<?xml version="1.0" encoding="UTF-8" standalone="no"?>
<!-- Created with Inkscape (http://www.inkscape.org/) -->

<svg
   version="1.1"
   id="svg3472"
   width="136.06667"
   height="140.26666"
   viewBox="0 0 136.06667 140.26666"
   sodipodi:docname="gu_logo_black.svg"
   inkscape:version="1.2.2 (b0a8486541, 2022-12-01)"
   xmlns:inkscape="http://www.inkscape.org/namespaces/inkscape"
   xmlns:sodipodi="http://sodipodi.sourceforge.net/DTD/sodipodi-0.dtd"
   xmlns="http://www.w3.org/2000/svg"
   xmlns:svg="http://www.w3.org/2000/svg">
  <defs
     id="defs3476">
    <clipPath
       clipPathUnits="userSpaceOnUse"
       id="clipPath3492">
      <path
         d="M 135.242,802.02 V 201.523 H 885 V 802.02 Z"
         id="path3490" />
    </clipPath>
  </defs>
  <sodipodi:namedview
     id="namedview3474"
     pagecolor="#ffffff"
     bordercolor="#000000"
     borderopacity="0.25"
     inkscape:showpageshadow="2"
     inkscape:pageopacity="0.0"
     inkscape:pagecheckerboard="0"
     inkscape:deskcolor="#d1d1d1"
     showgrid="false"
     inkscape:zoom="2.1450138"
     inkscape:cx="30.302835"
     inkscape:cy="106.99232"
     inkscape:window-width="1920"
     inkscape:window-height="1029"
     inkscape:window-x="0"
     inkscape:window-y="27"
     inkscape:window-maximized="1"
     inkscape:current-layer="g3480">
    <inkscape:page
       x="0"
       y="0"
       id="page3478"
       width="136.06667"
       height="140.26666" />
  </sodipodi:namedview>
  <g
     id="g3480"
     inkscape:groupmode="layer"
     inkscape:label="Page 1"
     transform="matrix(1.3333333,0,0,-1.3333333,0,140.26667)">
    <rect
       style="fill:#000000;fill-opacity:1;stroke:none;stroke-width:0.761369;stroke-linecap:round;stroke-linejoin:bevel;stroke-dasharray:0.761369, 0.761369"
       id="rect2508"
       width="102"
       height="105"
       x="0"
       y="-105.2"
       transform="scale(1,-1)" />
    <g
       id="g3486"
       transform="scale(0.1)">
      <g
         id="g3488"
         clip-path="url(#clipPath3492)">
        <path
           d="m 425.508,725.273 c -23.543,-22.554 -36.903,-52.91 -37.61,-85.519 -1.449,-67.293 52.102,-123.231 119.387,-124.688 32.617,-0.707 63.535,11.325 87.078,33.868 23.547,22.558 36.907,52.933 37.61,85.523 1.457,67.293 -52.11,123.238 -119.395,124.684 -32.59,0.711 -63.496,-11.317 -87.07,-33.868 z m 81.953,-202.14 c -62.832,1.347 -112.852,53.594 -111.504,116.449 0.664,30.441 13.145,58.809 35.137,79.875 21.992,21.051 50.879,32.289 81.308,31.625 62.864,-1.352 112.871,-53.602 111.504,-116.449 -0.664,-30.442 -13.125,-58.809 -35.136,-79.879 -21.985,-21.035 -50.86,-32.293 -81.309,-31.621 v 0"
           style="fill:#ffffff;fill-opacity:1;fill-rule:nonzero;stroke:none"
           id="path3494" />
        <path
           d="m 395.891,756.215 c -31.825,-30.469 -49.871,-71.5 -50.828,-115.527 -1.961,-90.934 70.386,-166.485 161.292,-168.461 90.93,-1.969 166.477,70.402 168.45,161.32 v 0 c 0.957,44.019 -15.313,85.797 -45.75,117.613 -30.469,31.817 -71.516,49.863 -115.547,50.817 -44.035,0.957 -85.813,-15.289 -117.617,-45.762 z M 506.504,478.906 c -87.219,1.887 -156.649,74.399 -154.762,161.641 0.918,42.246 18.235,81.609 48.746,110.832 30.528,29.246 70.625,44.84 112.871,43.922 42.254,-0.918 81.621,-18.231 110.879,-48.766 29.219,-30.512 44.805,-70.605 43.887,-112.851 v 0 C 666.23,546.453 593.73,477.016 506.504,478.906 v 0"
           style="fill:#ffffff;fill-opacity:1;fill-rule:nonzero;stroke:none"
           id="path3496" />
      </g>
    </g>
    <path
       d="m 42.0254,61.8066 c -0.1477,0.118 -0.207,0.3418 -0.1477,0.5536 0.0696,0.2492 0.2766,0.4183 0.552,0.4566 0.3535,0.0477 0.6465,-0.0563 0.8457,-0.2988 0.3301,-0.4067 0.3601,-1.1379 0.0762,-1.9543 -0.5176,-1.4856 0.0339,-2.2801 0.2949,-2.5524 0.2082,-0.2183 0.459,-0.3394 0.6062,-0.2937 l 0.0188,0.0039 0.0019,0.0195 c 0.0137,0.0918 0.125,0.3258 0.1973,0.4602 l 0.0098,0.0164 -0.0137,0.0156 c -0.4375,0.5586 -0.5605,1.2887 -0.3125,1.8617 0.2109,0.486 0.6484,0.7828 1.2285,0.834 0.2766,0.0254 0.386,-0.0605 0.3945,-0.141 0.0118,-0.0899 -0.0918,-0.2 -0.2812,-0.2285 -0.6191,-0.0899 -0.8762,-0.5176 -0.9121,-0.8867 -0.0293,-0.3321 0.1055,-0.6258 0.3223,-0.7 0.1171,-0.0016 0.2089,0.0355 0.2832,0.1093 l 0.0097,0.0098 -0.0019,0.0125 c -0.0118,0.1621 0.0605,0.3527 0.1699,0.4449 0.0683,0.0571 0.1465,0.0762 0.2285,0.0551 0.3406,-0.0855 0.3652,-0.3473 0.3594,-0.4551 -0.0117,-0.2504 -0.1914,-0.4785 -0.4004,-0.5097 l -0.0164,-0.0036 -0.1367,-0.3871 c -0.1536,-0.4215 -0.3274,-0.9 -0.2746,-1.1797 0.0332,-0.1875 0.1191,-0.3105 0.2402,-0.3476 0.1055,-0.0328 0.2258,0.0074 0.3301,0.1117 0.1406,0.1395 0.2129,0.4426 0.2968,0.7926 l 0.0352,0.1445 -0.002,0.0063 c -0.0566,0.248 -0.0156,0.4679 0.1094,0.5718 0.0879,0.0743 0.2071,0.0832 0.3469,0.0235 0.0906,-0.0391 0.1559,-0.1196 0.1824,-0.2285 0.041,-0.1723 -0.0195,-0.3868 -0.1601,-0.5582 L 46.5,57.5789 v -0.0098 c -0.0156,-0.1578 -0.052,-0.3261 -0.0879,-0.4898 -0.0508,-0.2348 -0.1008,-0.457 -0.0781,-0.6355 0.0156,-0.1184 0.084,-0.2032 0.1992,-0.2395 0.1484,-0.0473 0.3418,0 0.4395,0.107 0.1035,0.1145 0.1984,0.595 0.2949,1.1184 l 0.0703,0.3476 -0.0117,0.0129 c -0.1082,0.0953 -0.1426,0.3 -0.0801,0.4852 0.0625,0.1875 0.2059,0.3039 0.3926,0.3191 0.1504,0.0118 0.2578,-0.0386 0.3164,-0.1511 0.1113,-0.2157 0.0168,-0.5762 -0.0774,-0.6914 l -0.0105,-0.011 0.0058,-0.0152 c 0.084,-0.3184 0.0442,-0.6672 0.0118,-0.9485 -0.0262,-0.2316 -0.0489,-0.4312 0.0039,-0.5539 0.0547,-0.1273 0.1843,-0.2211 0.3476,-0.2484 0.1692,-0.0289 0.334,0.0211 0.4336,0.1305 0.1114,0.125 0.0879,0.3152 0.0637,0.539 -0.0234,0.1965 -0.0481,0.4215 8e-4,0.661 l 0.0019,0.0093 -0.0039,0.0079 c -0.0937,0.2304 -0.0886,0.457 0.0125,0.6214 0.0637,0.1036 0.1594,0.168 0.2629,0.1754 0.166,0.0125 0.2805,-0.0187 0.3418,-0.0949 0.127,-0.1547 0.0332,-0.475 -0.041,-0.7305 l -0.0078,-0.0257 c 0.0262,-0.361 0.0898,-0.8614 0.2383,-1.2528 0.0468,-0.1261 0.1757,-0.2121 0.3222,-0.2148 0.1524,-0.0051 0.2813,0.0808 0.3438,0.2277 0.0547,0.1301 -0.0031,0.3973 -0.0645,0.6793 -0.0332,0.1524 -0.0676,0.3117 -0.082,0.4469 -0.1289,0.3016 -0.1543,0.5141 -0.0762,0.6414 0.0449,0.0773 0.127,0.1203 0.2461,0.1289 0.0703,0.0066 0.2051,0 0.3106,-0.1039 0.1172,-0.1137 0.166,-0.309 0.1484,-0.5816 0,-0.009 0.1094,-0.4012 0.1094,-0.4012 0.084,-0.302 0.1672,-0.6149 0.2734,-0.8422 0.0344,-0.1266 0.1367,-0.2164 0.2578,-0.2219 0.1231,-0.0058 0.2324,0.0735 0.2813,0.2074 0.0879,0.2422 -0.041,0.5157 -0.2039,0.8645 l -0.0813,0.1707 c -0.1679,0.1656 -0.2246,0.3238 -0.1758,0.4664 0.0547,0.1523 0.2286,0.2563 0.3621,0.2676 0.125,0.009 0.3,-0.0035 0.4141,-0.1223 0.1059,-0.1117 0.1438,-0.2996 0.1137,-0.5574 l -0.0031,-0.0051 0.1582,-0.5047 c 0.0586,-0.1972 0.1074,-0.3687 0.1582,-0.4886 0.0527,-0.1223 0.1589,-0.2043 0.2988,-0.2266 0.134,-0.0231 0.2656,0.0172 0.3437,0.1027 0.1036,0.1145 0.0286,0.27 -0.0566,0.4504 -0.0547,0.1121 -0.1152,0.2371 -0.1426,0.3715 l -0.0019,0.0094 -0.0078,0.0062 c -0.1719,0.168 -0.2442,0.3825 -0.1856,0.5469 0.041,0.1145 0.1375,0.1824 0.2754,0.1941 0.1719,0.0125 0.3027,-0.0226 0.3848,-0.105 0.091,-0.0895 0.1308,-0.234 0.1179,-0.434 l -7e-4,-0.0078 0.0039,-0.0067 c 0.0449,-0.1015 0.0722,-0.2125 0.0996,-0.3308 0.039,-0.1653 0.082,-0.3344 0.1758,-0.4922 0.0886,-0.1422 0.2058,-0.216 0.33,-0.2067 0.1426,0.0118 0.2754,0.127 0.3496,0.2993 0.0508,0.125 -0.0351,0.3242 -0.1289,0.5351 -0.0918,0.216 -0.1894,0.4387 -0.1211,0.552 0.0293,0.0488 0.086,0.0758 0.1778,0.0836 0.3984,0.0308 0.5664,-0.3309 0.6992,-0.62 0.0586,-0.1238 0.1074,-0.2308 0.1687,-0.289 0.0747,-0.0727 0.1497,-0.1059 0.2239,-0.1043 0.1086,0.0027 0.1941,0.0836 0.248,0.1445 0.0801,0.0883 0.0332,0.2348 -0.0117,0.3766 -0.0625,0.1941 -0.0938,0.3269 0.0332,0.3855 0.3203,0.1477 0.4414,0.0035 0.582,-0.1617 0.0996,-0.1184 0.2032,-0.2426 0.3887,-0.2465 0.8723,-0.0129 1.5742,0.6422 2.0129,1.1938 0.7527,0.9527 1.1453,2.139 1.0269,2.6101 l -0.0027,0.0117 -0.0098,0.0063 c -0.3242,0.1918 -0.3984,0.5449 -0.33,0.809 0.0625,0.2375 0.2324,0.3929 0.4289,0.3969 0.3086,0.0054 0.5359,-0.1016 0.6785,-0.3188 0.1172,-0.1785 0.1726,-0.4301 0.1726,-0.7422 0,-0.6637 -0.2585,-1.5961 -0.7539,-2.668 -1.2449,-2.6917 -4.3328,-3.9496 -5.6043,-4.1785 -6.1543,-1.0379 -10.8964,1.2172 -11.7812,4.1063 -0.3731,1.225 -0.207,1.8418 0.0293,2.484 0.1309,0.3523 0.2656,0.7172 0.3125,1.2015 l 0.0059,0.0547 -0.0489,-0.0262 c -0.291,-0.1543 -0.5422,-0.1668 -0.707,-0.0332 v 0"
       style="fill:#ffffff;fill-opacity:1;fill-rule:nonzero;stroke:none;stroke-width:0.1"
       id="path3498" />
    <path
       d="m 50.2422,72.9852 c 0.1172,0.0894 0.1699,0.2003 0.1523,0.3285 -0.0429,0.3386 0.125,0.7394 0.4707,0.7988 0.4356,0.0758 1.2364,-0.0238 1.3828,-0.1211 0.2012,-0.1316 0.2852,-0.2894 0.2383,-0.4445 -0.0761,-0.2332 -0.4179,-0.4074 -0.7851,-0.3957 -0.2324,0.0078 -0.4082,-0.0668 -0.5196,-0.2211 -0.3476,-0.4781 0.0086,-1.5699 0.127,-1.8934 0.0312,-0.0941 0.1055,-0.1375 0.2051,-0.1219 -0.0032,0 0.8593,0.0836 0.8593,0.0836 0.7227,0.0746 1.6211,0.1696 2.3672,0.1821 -0.0019,0 0.0586,0.0273 0.0586,0.0273 l 0.0176,0.0531 c -0.0137,0.1692 -0.1152,0.6071 -0.1582,0.6989 l -0.0078,0.0156 -0.0176,0.0019 c -0.1738,0.0157 -0.5051,0.1219 -0.6953,0.352 -0.1152,0.1363 -0.1621,0.2984 -0.1453,0.4801 0.0476,0.3117 0.4949,0.4863 0.8777,0.4679 0.4512,0.0067 0.8098,-0.1242 0.9551,-0.3496 0.1152,-0.1769 0.1035,-0.4121 -0.0312,-0.6961 l -0.002,-0.0062 v -0.0063 c 0,-0.2394 0.1133,-0.7066 0.1934,-0.8683 0.0293,-0.0578 0.1132,-0.0668 0.1289,-0.0684 l 0.1269,-0.0082 c 0.2383,-0.0137 0.536,-0.032 1.0879,-0.1687 0.1641,-0.0422 0.3242,-0.241 0.3035,-0.4719 -0.073,-0.7875 -0.2027,-1.2406 -0.3816,-1.8691 l -0.2,-0.7317 c -0.007,-0.0293 0.0027,-0.0789 0.0398,-0.0922 v 0 c 0.5227,-0.1883 1.125,-0.5062 1.1094,-0.7836 -0.0164,-0.2246 -0.084,-0.2933 -0.125,-0.316 -0.032,-0.0164 -0.0684,-0.016 -0.1016,0.002 -0.3144,0.1793 -0.7871,0.2965 -0.9414,0.3258 -0.0254,0.0058 -0.0703,-0.0223 -0.0781,-0.0489 -0.0559,-0.1879 0.0156,-0.4316 0.0977,-0.7136 0.0937,-0.318 0.2011,-0.679 0.1484,-1.05 -0.0547,-0.404 -0.2109,-0.8825 -0.3254,-1.2313 -0.0769,-0.2391 -0.1336,-0.4117 -0.1324,-0.4797 0.0027,-0.1898 0.0074,-0.2012 0.1172,-0.2836 0.0769,-0.059 0.2215,-0.1695 0.4793,-0.4601 0.9394,-1.0571 0.1699,-2.5688 -0.3907,-3.6723 -0.1953,-0.3844 -0.3652,-0.718 -0.4316,-0.9691 -0.043,-0.17 -0.3887,-0.3684 -0.8184,-0.4711 -0.425,-0.1016 -0.7773,-0.0762 -0.9011,0.0636 -0.0266,0.0286 -0.0364,0.0661 -0.0317,0.1106 0.0129,0.1019 0.1028,0.2215 0.2453,0.3219 0.2266,0.157 0.4551,0.2332 0.8008,0.3496 0.0469,0.016 0.0782,0.0515 0.0789,0.0941 0.2934,1.5082 0.4883,2.7914 0.1379,4.3777 l -0.0801,0.245 c -0.0625,0.166 -0.1289,0.3382 -0.121,0.6132 0,0.0957 0.0234,0.2278 0.0507,0.3805 0.0918,0.5317 0.2325,1.3332 -0.1543,2.2477 -0.0957,0.1461 -0.2734,0.2039 -0.4621,0.1535 -0.1636,-0.043 -0.3347,-0.1731 -0.3465,-0.3645 L 54.707,66.2719 c -0.0547,-0.777 -0.1132,-1.6578 -0.5254,-2.475 -0.2304,-0.4571 0.0059,-0.6403 0.2364,-0.818 l 0.0144,-0.0101 c 0.8293,-0.6418 0.6914,-2.0696 0.125,-3.1477 l -0.0867,-0.1645 c -0.116,-0.2105 -0.2461,-0.4511 -0.3555,-0.757 l -0.039,-0.0781 c -0.1867,-0.277 -0.6121,-0.4793 -1.1426,-0.5457 -0.3711,-0.0449 -0.6465,-4e-4 -0.7156,0.0648 -0.0305,0.0332 -0.0422,0.0789 -0.0356,0.1313 0.0188,0.1375 0.1574,0.2965 0.2864,0.384 0.1855,0.1257 0.4394,0.2695 0.9062,0.3761 0.0078,0.0012 0.082,0.0207 0.1055,0.1039 0.55,1.5864 0.0605,3.0496 -0.1758,3.4797 -0.2195,0.4 -0.1895,0.6211 -0.127,1.0598 l 0.043,0.3172 c 0.0898,0.6383 0.2781,1.9691 0.3535,2.8387 0.0039,0.032 -0.0234,0.0828 -0.0715,0.0878 -0.1511,0.0172 -0.5203,0.0461 -0.6648,-0.0714 -0.1008,-0.0821 -0.1133,-0.4028 -0.1309,-0.8461 -0.0332,-0.8743 -0.08,-2.07 -0.8203,-2.1911 -0.2246,-0.0371 -0.4375,0.0235 -0.6308,0.1782 -0.4727,0.3773 -0.8184,1.3289 -0.8809,2.4207 -0.0637,1.0773 0.1074,2.4179 0.502,2.7957 l 0.0371,0.0347 -0.0489,0.0141 c -0.125,0.0371 -0.2246,0.1524 -0.2722,0.3164 -0.0547,0.1953 -0.0188,0.4113 0.0925,0.5352 l 0.0079,0.0078 v 0.0113 c 0,0.1199 -0.0801,0.3223 -0.1797,0.5781 -0.1133,0.2828 -0.25,0.6356 -0.3145,0.9723 -0.0051,0.0301 -0.0605,0.0676 -0.0945,0.0707 l -0.2356,-0.0016 c -0.698,-0.0132 -2.1523,-0.039 -2.655,1.477 -0.0383,0.1109 0.0457,0.2559 0.1804,0.3156 0.1543,0.0684 0.3086,-0.0054 0.416,-0.1949 0.1329,-0.2367 0.502,-0.5914 0.8008,-0.7117 0.3164,-0.1281 1.252,-0.1379 1.6309,0.1551 z m 0.8777,-5.7379 c -0.0203,-0.9086 0.2473,-2.3028 0.5324,-2.3364 0.3067,-0.0351 0.3118,0.8614 0.3196,1.2106 0.0183,0.9086 -0.1516,2.3285 -0.4875,2.3348 -0.2864,0.007 -0.3567,-0.7883 -0.3645,-1.209 z m 1.1379,2.9144 C 52.0391,70.1352 51.8469,69.9813 51.8262,69.8172 51.8027,69.6047 51.7363,69.5215 51.625,69.4434 l -0.0566,-0.0403 0.0671,-0.0136 c 0.5833,-0.1129 0.7063,-0.5665 0.7981,-0.8981 0.0469,-0.1762 0.0852,-0.3715 0.1816,-0.4086 0.2266,-0.0867 0.6446,-0.0937 0.9063,0.0059 0.1191,0.0453 0.1797,0.3031 0.1582,0.4738 -0.0391,0.4559 -0.1934,1.3898 -0.1934,1.3898 -0.0508,0.195 -0.2773,0.259 -0.4133,0.2649 -0.1179,0.0023 -0.3523,-0.0035 -0.8152,-0.0555 z m 3.1289,0.2434 c -0.373,-0.0117 -0.8515,-0.0582 -0.9316,-0.2434 -0.1438,-0.3371 -0.041,-1.6512 0.2402,-1.8168 0.3242,-0.1902 1.0996,-0.1808 1.3184,0.0313 0.1718,0.1656 0.2707,1.1168 0.2707,1.5832 0,0.1269 -0.011,0.2261 -0.0383,0.275 -0.0625,0.1273 -0.5059,0.1824 -0.8594,0.1707 v 0"
       style="fill:#ffffff;fill-opacity:1;fill-rule:nonzero;stroke:none;stroke-width:0.1"
       id="path3500" />
    <path
       d="m 45.8984,77.7148 -0.08,-0.6289 -0.4063,-0.4867 0.6289,-0.0797 0.4856,-0.4074 0.0808,0.6289 0.4063,0.4863 -0.6289,0.0805 -0.4864,0.407 v 0"
       style="fill:#ffffff;fill-opacity:1;fill-rule:nonzero;stroke:none;stroke-width:0.1"
       id="path3502" />
    <path
       d="m 57.666,50.4656 -0.5117,0.3742 -0.6328,0.0375 0.373,0.5141 0.0391,0.6332 0.5105,-0.3754 0.6329,-0.041 -0.3719,-0.5105 -0.0391,-0.6321 v 0"
       style="fill:#ffffff;fill-opacity:1;fill-rule:nonzero;stroke:none;stroke-width:0.1"
       id="path3504" />
    <path
       d="m 44.2754,50.4891 0.5117,0.3714 0.6328,0.0368 -0.3711,0.5152 -0.0383,0.6332 -0.5117,-0.375 -0.6336,-0.0355 0.3731,-0.5133 0.0371,-0.6328 v 0"
       style="fill:#ffffff;fill-opacity:1;fill-rule:nonzero;stroke:none;stroke-width:0.1"
       id="path3506" />
    <path
       d="m 40.7734,53.2098 0.6446,0.7562 c 0.2929,0.3449 0.7617,0.3192 1.209,-0.0609 0.4511,-0.3844 0.5507,-0.8453 0.2578,-1.1891 l -0.6446,-0.7562 c -0.08,-0.0938 -0.0839,-0.145 0.0215,-0.236 l -0.2285,-0.173 -0.623,0.5297 0.1386,0.2527 c 0.1055,-0.0887 0.1563,-0.0781 0.2344,0.0145 l 0.6492,0.7601 c 0.1281,0.1496 0.1164,0.3348 -0.0847,0.5055 -0.2071,0.1769 -0.3926,0.1609 -0.5215,0.0105 l -0.6485,-0.7597 c -0.0793,-0.0934 -0.082,-0.1446 0.0215,-0.234 l -0.2285,-0.1731 -0.5684,0.4832 0.1348,0.2559 c 0.1055,-0.0906 0.1563,-0.0789 0.2363,0.0137 v 0"
       style="fill:#ffffff;fill-opacity:1;fill-rule:nonzero;stroke:none;stroke-width:0.1"
       id="path3508" />
    <path
       d="m 38.7008,55.7313 1.3637,1.0222 0.2578,-0.3433 -0.4278,-1.4426 c -0.0293,-0.0996 -0.1074,-0.2578 -0.1074,-0.2578 0,0 0.1231,0.114 0.1836,0.1613 l 0.6023,0.45 c 0.095,0.0707 0.1125,0.1199 0.0305,0.2309 l 0.2598,0.1222 0.4121,-0.5484 -0.1875,-0.2188 c -0.084,0.1114 -0.1387,0.1086 -0.2324,0.0391 l -1.0039,-0.752 c -0.0965,-0.073 -0.1114,-0.123 -0.0274,-0.2343 l -0.2637,-0.1188 -0.3691,0.4918 0.3867,1.3117 c 0.0313,0.1024 0.1121,0.2625 0.1121,0.2625 0,0 -0.1257,-0.1168 -0.1953,-0.1679 L 38.9824,55.3555 C 38.8848,55.282 38.8711,55.2316 38.9531,55.1211 l -0.2601,-0.1223 -0.4117,0.5504 0.189,0.2172 c 0.0832,-0.1117 0.1336,-0.109 0.2305,-0.0351 v 0"
       style="fill:#ffffff;fill-opacity:1;fill-rule:nonzero;stroke:none;stroke-width:0.1"
       id="path3510" />
    <path
       d="M 39.2246,58.3445 39.5801,57.6277 39.3535,57.45 c -0.0625,0.1246 -0.1152,0.1324 -0.2226,0.0801 l -1.1204,-0.5563 c -0.1105,-0.0547 -0.1339,-0.1 -0.0718,-0.225 l -0.2782,-0.0718 -0.3554,0.7175 0.2262,0.1782 c 0.0621,-0.125 0.1128,-0.1352 0.2222,-0.0805 l 1.1227,0.5555 c 0.1051,0.0523 0.1316,0.1007 0.0711,0.2246 l 0.2773,0.0722 v 0"
       style="fill:#ffffff;fill-opacity:1;fill-rule:nonzero;stroke:none;stroke-width:0.1"
       id="path3512" />
    <path
       d="m 36.6813,60.4895 1.8437,-0.1665 0.1621,-0.5507 -1.4605,-1.1309 c -0.1071,-0.082 -0.1188,-0.1258 -0.0828,-0.2488 l -0.2887,-0.0207 -0.225,0.764 0.2531,0.1403 c 0.0352,-0.1094 0.0801,-0.125 0.1727,-0.0586 l 0.7062,0.5316 c 0.118,0.0821 0.3656,0.2004 0.3656,0.2004 0,0 -0.2738,-0.0316 -0.4183,-0.023 l -0.8875,0.0859 c -0.1192,0.0078 -0.1438,-0.043 -0.111,-0.1562 l -0.2863,-0.0223 -0.2012,0.6801 0.2536,0.1367 c 0.0375,-0.1274 0.0699,-0.1496 0.2043,-0.1613 v 0"
       style="fill:#ffffff;fill-opacity:1;fill-rule:nonzero;stroke:none;stroke-width:0.1"
       id="path3514" />
    <path
       d="m 38.0438,63.3781 0.1519,-1.6527 -0.2762,-0.0879 c -0.0125,0.1398 -0.0586,0.166 -0.1769,0.1555 L 36.4961,61.6797 C 36.375,61.6688 36.3344,61.6332 36.348,61.4941 l -0.2871,0.0372 -0.1433,1.5789 0.5086,0.0468 0.0664,-0.2183 c -0.1645,-0.0391 -0.1992,-0.0879 -0.1774,-0.3266 l 0.0332,-0.366 0.5172,0.0469 -0.0312,0.3312 c -0.0125,0.1426 -0.0414,0.1926 -0.1524,0.1832 l 0.0348,0.2324 0.509,0.0469 0.0812,-0.2226 C 37.1918,62.8523 37.1711,62.7996 37.1855,62.657 l 0.0297,-0.3324 0.5614,0.0512 -0.0465,0.5082 c -0.0207,0.2226 -0.0871,0.2586 -0.2418,0.2726 l 0.0234,0.2352 0.5321,-0.0137 v 0"
       style="fill:#ffffff;fill-opacity:1;fill-rule:nonzero;stroke:none;stroke-width:0.1"
       id="path3516" />
    <path
       d="m 38.275,66.2762 -0.0715,-0.6328 c -0.3351,-0.2774 -0.8594,0.0089 -0.9074,-0.4239 l -0.0285,-0.2554 0.4066,-0.0453 c 0.1184,-0.0137 0.1653,0.0097 0.1809,0.148 l 0.2738,-0.091 -0.0879,-0.7875 -0.2867,-0.0309 c 0.0156,0.1422 -0.0262,0.1735 -0.1434,0.1879 l -1.2453,0.1379 c -0.1168,0.0148 -0.1652,-0.0121 -0.1804,-0.1504 l -0.2731,0.0942 0.1207,1.0777 c 0.0574,0.5219 0.3063,0.8062 0.7039,0.7613 0.2598,-0.0289 0.4242,-0.1875 0.4946,-0.464 0.1015,0.257 0.355,0.2957 0.5074,0.3097 0.1761,0.0156 0.2398,0.0446 0.2574,0.2059 l 0.0059,0.0484 z m -1.9266,-0.8871 -0.0347,-0.318 0.6105,-0.0684 0.0344,0.3071 c 0.0262,0.232 -0.0781,0.3664 -0.2637,0.3867 -0.1871,0.0211 -0.3199,-0.0793 -0.3465,-0.3074 v 0"
       style="fill:#ffffff;fill-opacity:1;fill-rule:nonzero;stroke:none;stroke-width:0.1"
       id="path3518" />
    <path
       d="M 38.718,67.6531 C 38.5902,67.252 38.3668,67.0023 38.2555,66.8957 l -0.4047,0.2539 0.0597,0.1856 c 0.2555,-0.002 0.4157,0.2027 0.484,0.4136 0.0524,0.1621 0.0297,0.3567 -0.1422,0.4121 -0.1484,0.0473 -0.2503,-0.0437 -0.4179,-0.3582 -0.166,-0.3234 -0.434,-0.6132 -0.8496,-0.4797 -0.4028,0.1293 -0.5153,0.5645 -0.3688,1.0239 0.1141,0.3511 0.2996,0.5953 0.4028,0.7008 l 0.382,-0.243 -0.059,-0.1828 c -0.2234,-0.0235 -0.3559,-0.2071 -0.4086,-0.3731 -0.0586,-0.182 -0.0176,-0.3379 0.1188,-0.3808 0.132,-0.043 0.2285,0.0547 0.3507,0.2883 0.2266,0.4281 0.47,0.7078 0.9235,0.5613 0.4437,-0.1426 0.5371,-0.6149 0.3918,-1.0645 v 0"
       style="fill:#ffffff;fill-opacity:1;fill-rule:nonzero;stroke:none;stroke-width:0.1"
       id="path3520" />
    <path
       d="m 39.6688,69.9559 -0.3661,-0.7129 -0.2773,0.0769 c 0.0625,0.1239 0.0371,0.1715 -0.0664,0.2258 l -1.1156,0.5723 c -0.1086,0.0547 -0.1594,0.0468 -0.2227,-0.0778 l -0.2238,0.1813 0.3652,0.7125 0.2774,-0.0762 C 37.9766,70.7344 38,70.6867 38.1074,70.6301 l 1.1153,-0.5707 c 0.1035,-0.0531 0.1589,-0.0453 0.2226,0.0769 l 0.2235,-0.1804 v 0"
       style="fill:#ffffff;fill-opacity:1;fill-rule:nonzero;stroke:none;stroke-width:0.1"
       id="path3522" />
    <path
       d="m 39.7668,72.9047 c -0.132,0.068 -0.2133,0.0742 -0.3457,-0.1074 l -0.1242,-0.1696 1.0761,-0.7894 c 0.0958,-0.0688 0.1485,-0.0738 0.2317,0.0375 l 0.1922,-0.2133 -0.4688,-0.6398 -0.2636,0.1168 c 0.0839,0.1148 0.0625,0.1632 -0.0313,0.2339 l -1.0781,0.7899 -0.1227,-0.1692 C 38.698,71.8113 38.7305,71.7375 38.834,71.6313 l -0.1735,-0.1579 -0.3929,0.3618 1.1316,1.5461 0.468,-0.2641 -0.1004,-0.2125 v 0"
       style="fill:#ffffff;fill-opacity:1;fill-rule:nonzero;stroke:none;stroke-width:0.1"
       id="path3524" />
    <path
       d="m 43,73.9281 -0.5754,-0.5355 -0.2344,0.1648 c 0.0754,0.0707 0.0832,0.1203 -0.0281,0.1793 l -0.1555,0.0781 -0.5593,-0.5218 0.0664,-0.1614 c 0.0488,-0.1214 0.1062,-0.1054 0.1875,-0.0296 l 0.1504,-0.2465 -0.4969,-0.4625 -0.2356,0.1648 c 0.0918,0.0856 0.1055,0.1324 0.0528,0.2535 l -0.5391,1.2719 c -0.0344,0.0781 -0.0848,0.1023 -0.1848,0.009 l -0.146,0.2496 0.8269,0.7715 0.2371,-0.1637 c -0.1004,-0.0953 -0.0879,-0.1402 -0.0074,-0.1793 l 1.2371,-0.6289 c 0.1145,-0.0601 0.1609,-0.0547 0.2551,0.0328 z m -1.8281,0.3481 c -0.1067,0.0625 -0.3242,0.2453 -0.3242,0.2453 0,0 0.1562,-0.2434 0.2089,-0.352 l 0.2305,-0.5414 0.4004,0.3746 -0.5156,0.2735 v 0"
       style="fill:#ffffff;fill-opacity:1;fill-rule:nonzero;stroke:none;stroke-width:0.1"
       id="path3526" />
    <path
       d="m 44.1992,74.6652 c -0.3574,-0.2211 -0.6887,-0.2679 -0.8437,-0.2773 l -0.1414,0.4562 0.1636,0.102 c 0.1946,-0.1664 0.4485,-0.1148 0.6379,0.0027 0.1446,0.0903 0.2539,0.2512 0.1582,0.4051 -0.082,0.1332 -0.2207,0.1289 -0.5508,-0.0016 -0.3359,-0.1386 -0.7285,-0.1855 -0.957,0.1836 -0.2226,0.3606 -0.0273,0.7641 0.3836,1.0192 0.3125,0.1937 0.6106,0.2601 0.7578,0.2738 l 0.134,-0.4332 -0.1621,-0.1004 c -0.1855,0.127 -0.4043,0.0727 -0.5527,-0.0195 -0.1641,-0.1012 -0.2317,-0.2461 -0.1582,-0.3672 0.0742,-0.1188 0.2109,-0.1078 0.457,-0.009 0.4473,0.1809 0.8144,0.2359 1.0664,-0.1691 0.2461,-0.3957 0.0098,-0.8157 -0.3926,-1.0653 v 0"
       style="fill:#ffffff;fill-opacity:1;fill-rule:nonzero;stroke:none;stroke-width:0.1"
       id="path3528" />
    <path
       d="m 50.2219,77.5008 c -0.1457,-0.0195 -0.1692,-0.0684 -0.1555,-0.1817 l 0.0227,-0.1656 c 0.0156,-0.1097 0.0425,-0.1347 0.116,-0.1254 l -0.0196,-0.2722 c -0.3046,-0.0618 -0.3574,-0.195 -0.8222,-0.2579 -0.6231,-0.0851 -1.1922,0.1473 -1.2988,0.9403 -0.0997,0.7273 0.325,1.1601 1.0019,1.2519 0.4082,0.0547 0.7227,-0.0644 0.8574,-0.1203 l -0.0578,-0.4918 -0.1863,-0.025 c -0.0918,0.2153 -0.291,0.2801 -0.5098,0.2504 -0.3894,-0.0527 -0.5664,-0.3008 -0.5019,-0.7871 0.0664,-0.4898 0.2734,-0.6785 0.6582,-0.6277 0.091,0.0129 0.2051,0.0562 0.2656,0.0996 L 49.5566,77.25 c -0.0156,0.1137 -0.0488,0.1547 -0.1972,0.1352 l -0.0371,-0.0055 0.0195,0.2871 0.8203,0.1109 0.0977,-0.2711 -0.0379,-0.0058 v 0"
       style="fill:#ffffff;fill-opacity:1;fill-rule:nonzero;stroke:none;stroke-width:0.1"
       id="path3530" />
    <path
       d="m 52.0391,76.5566 c -0.6465,0.0528 -1.075,0.3875 -1.0098,1.1918 0.0645,0.8043 0.543,1.0661 1.1887,1.0137 0.655,-0.0527 1.0781,-0.3871 1.0125,-1.191 -0.0645,-0.8047 -0.5364,-1.0676 -1.1914,-1.0145 z m 0.1464,1.8172 c -0.332,0.0266 -0.507,-0.1445 -0.55,-0.675 -0.0425,-0.53 0.1028,-0.7269 0.4348,-0.7539 0.3399,-0.0269 0.5078,0.1442 0.5508,0.675 0.0422,0.5309 -0.0957,0.7266 -0.4356,0.7539 v 0"
       style="fill:#ffffff;fill-opacity:1;fill-rule:nonzero;stroke:none;stroke-width:0.1"
       id="path3532" />
    <path
       d="m 55.582,77.4793 c 0.0137,0.1484 -0.0078,0.2262 -0.2265,0.2855 l -0.2012,0.0559 -0.3516,-1.2891 c -0.03,-0.1144 -0.0156,-0.1652 0.1172,-0.2023 l -0.1289,-0.2559 -0.7676,0.2086 0.0149,0.2887 c 0.1363,-0.0371 0.1765,-0.0016 0.2078,0.1129 l 0.3516,1.2883 -0.2032,0.0554 c -0.2168,0.0594 -0.2734,0.0032 -0.3371,-0.132 l -0.2097,0.1051 0.1972,0.498 1.8496,-0.5054 -0.0793,-0.5301 -0.2332,0.0164 v 0"
       style="fill:#ffffff;fill-opacity:1;fill-rule:nonzero;stroke:none;stroke-width:0.1"
       id="path3534" />
    <path
       d="m 57.8223,74.7391 -0.7071,0.3593 0.0711,0.2789 c 0.1282,-0.0644 0.175,-0.0363 0.227,0.0692 l 0.2183,0.4273 -0.7234,0.3672 -0.2168,-0.4277 c -0.0527,-0.1051 -0.0508,-0.1578 0.0742,-0.2207 l -0.1816,-0.2246 -0.7063,0.3601 0.0743,0.2793 c 0.1261,-0.0652 0.1718,-0.0375 0.2238,0.068 l 0.5691,1.1164 c 0.0547,0.1082 0.05,0.1582 -0.0777,0.223 l 0.1836,0.2231 0.7066,-0.3606 L 57.4836,77 c -0.1242,0.0633 -0.1691,0.0379 -0.2238,-0.0695 l -0.1758,-0.3446 0.7226,-0.3683 0.1758,0.3449 c 0.0547,0.1078 0.0489,0.159 -0.0781,0.223 l 0.1836,0.2227 0.707,-0.3609 -0.0761,-0.2774 c -0.125,0.0637 -0.168,0.0387 -0.2227,-0.0699 L 57.9277,75.1844 C 57.873,75.0789 57.8789,75.0258 58.002,74.9637 l -0.1797,-0.2246 v 0"
       style="fill:#ffffff;fill-opacity:1;fill-rule:nonzero;stroke:none;stroke-width:0.1"
       id="path3536" />
    <path
       d="m 59.1785,73.668 c -0.5,0.4109 -0.6629,0.9312 -0.1512,1.5539 0.5137,0.6234 1.0567,0.5648 1.5547,0.1539 0.5098,-0.418 0.666,-0.9348 0.1524,-1.557 C 60.2207,73.1961 59.6855,73.25 59.1785,73.668 Z m 1.1567,1.4066 c -0.2571,0.2121 -0.4973,0.1723 -0.8352,-0.2383 -0.3398,-0.4121 -0.332,-0.6558 -0.0742,-0.8672 0.2617,-0.2168 0.498,-0.173 0.8359,0.2387 0.3379,0.4117 0.336,0.6504 0.0735,0.8668 v 0"
       style="fill:#ffffff;fill-opacity:1;fill-rule:nonzero;stroke:none;stroke-width:0.1"
       id="path3538" />
    <path
       d="m 61.1523,71.7 -0.6582,0.818 0.1797,0.225 c 0.0879,-0.1078 0.1426,-0.1039 0.2356,-0.0301 l 0.9754,0.7859 c 0.0937,0.0762 0.1054,0.1262 0.0195,0.2348 l 0.259,0.1269 0.616,-0.7636 c 0.3301,-0.4106 0.3691,-0.7641 0.0781,-1 -0.1367,-0.1094 -0.3574,-0.1121 -0.5215,-0.0297 0.1016,-0.2664 0.0196,-0.5024 -0.1648,-0.6504 -0.3117,-0.252 -0.6887,-0.1262 -1.0188,0.2832 z m 0.5079,0.8773 -0.4825,-0.3886 0.1934,-0.2375 c 0.1465,-0.1817 0.3125,-0.1946 0.459,-0.0762 0.1445,0.1145 0.1621,0.2902 0.0129,0.4773 z m 0.2695,0.2157 0.1594,-0.1992 c 0.1355,-0.1668 0.2781,-0.177 0.3972,-0.0782 0.1211,0.0961 0.1426,0.2235 0.0059,0.3953 l -0.166,0.2032 -0.3965,-0.3211 v 0"
       style="fill:#ffffff;fill-opacity:1;fill-rule:nonzero;stroke:none;stroke-width:0.1"
       id="path3540" />
    <path
       d="M 64.4648,69.4844 63.5781,69.032 c -0.4023,-0.2066 -0.8261,-0.0043 -1.0937,0.5196 -0.2676,0.5269 -0.1856,0.9906 0.2176,1.1957 L 63.5898,71.2 c 0.1075,0.0551 0.129,0.102 0.0665,0.2262 l 0.28,0.0726 0.3723,-0.7285 -0.2246,-0.1805 c -0.0645,0.1239 -0.1133,0.1321 -0.2227,0.077 l -0.8894,-0.4531 c -0.177,-0.0903 -0.2356,-0.2653 -0.1145,-0.5008 0.1211,-0.2418 0.2989,-0.3 0.4746,-0.2098 l 0.8907,0.4543 c 0.1086,0.0551 0.1308,0.102 0.0683,0.2231 l 0.2793,0.0758 0.3399,-0.6676 -0.2227,-0.1824 c -0.0625,0.1238 -0.1145,0.1328 -0.2227,0.0781 v 0"
       style="fill:#ffffff;fill-opacity:1;fill-rule:nonzero;stroke:none;stroke-width:0.1"
       id="path3542" />
    <path
       d="m 63.7734,65.9398 -0.1613,0.6157 c 0.2121,0.3793 0.8051,0.3015 0.6945,0.7226 l -0.0664,0.2481 -0.3972,-0.1043 c -0.1145,-0.0301 -0.1496,-0.0688 -0.1145,-0.2028 l -0.2871,-0.0156 -0.2031,0.7676 0.2566,0.1316 c 0.0364,-0.1371 0.0864,-0.1527 0.2004,-0.1222 l 1.211,0.3195 c 0.1152,0.0309 0.1484,0.0719 0.1152,0.2066 l 0.2871,0.0114 0.2773,-1.0489 c 0.136,-0.5078 0.0059,-0.8625 -0.3808,-0.964 -0.252,-0.0668 -0.4629,0.0222 -0.6289,0.2547 -0.002,-0.2785 -0.2227,-0.4055 -0.3614,-0.4739 -0.1582,-0.0785 -0.207,-0.1257 -0.164,-0.2847 l 0.0117,-0.0469 z m 1.4754,1.5231 -0.0808,0.3094 -0.595,-0.1567 0.0793,-0.3 c 0.0586,-0.225 0.2051,-0.3129 0.3868,-0.2648 0.1816,0.0484 0.2695,0.1902 0.2097,0.4121 v 0"
       style="fill:#ffffff;fill-opacity:1;fill-rule:nonzero;stroke:none;stroke-width:0.1"
       id="path3544" />
    <path
       d="m 64.7988,63.3066 c -0.0078,0.1454 -0.0527,0.175 -0.1679,0.1688 l -0.1661,-0.0082 c -0.1113,-0.0055 -0.1386,-0.0309 -0.1367,-0.1039 l -0.2695,0.043 c -0.0352,0.307 -0.1641,0.3714 -0.1875,0.8398 -0.0313,0.6297 0.25,1.1746 1.0469,1.2148 0.7343,0.036 1.1281,-0.4218 1.1633,-1.1066 0.0195,-0.4094 -0.125,-0.7125 -0.1926,-0.8406 l -0.4844,0.0968 -0.0098,0.1883 c 0.2227,0.0731 0.3047,0.2664 0.293,0.4887 -0.0195,0.3922 -0.252,0.5895 -0.7422,0.5648 -0.4933,-0.0238 -0.6992,-0.2148 -0.6816,-0.6 0.0051,-0.0945 0.039,-0.2117 0.0781,-0.2757 l 0.2629,0.0136 c 0.1141,0.0047 0.159,0.0352 0.1519,0.1844 l -0.0027,0.0387 0.2852,-0.0453 0.041,-0.827 -0.2793,-0.0726 -0.002,0.0382 v 0"
       style="fill:#ffffff;fill-opacity:1;fill-rule:nonzero;stroke:none;stroke-width:0.1"
       id="path3546" />
    <path
       d="m 63.6387,60.8914 0.25,1.6399 0.2871,0.0195 c -0.0215,-0.1367 0.0195,-0.175 0.1367,-0.1938 l 1.2371,-0.1882 c 0.1215,-0.0196 0.1672,0.0058 0.1887,0.1425 l 0.2676,-0.1035 -0.2383,-1.5683 -0.5039,0.0777 -0.0117,0.2269 c 0.166,-7e-4 0.2121,0.0375 0.248,0.2747 l 0.0566,0.3644 -0.5136,0.0785 -0.0489,-0.3304 c -0.0234,-0.1411 -0.0058,-0.1961 0.1055,-0.2133 l -0.0918,-0.2184 -0.5051,0.0777 -0.0242,0.236 c 0.1145,-0.0172 0.1445,0.0301 0.168,0.1707 l 0.0488,0.3308 -0.5566,0.0848 -0.0774,-0.5055 c -0.034,-0.2203 0.0227,-0.2707 0.1692,-0.3207 L 64.1523,60.75 63.6387,60.8914 v 0"
       style="fill:#ffffff;fill-opacity:1;fill-rule:nonzero;stroke:none;stroke-width:0.1"
       id="path3548" />
    <path
       d="m 64.334,57.6395 -1.5938,0.6015 0.1504,0.3996 1.4453,0.4141 c 0.0996,0.0297 0.2754,0.0484 0.2754,0.0484 0,0 -0.164,0.0434 -0.2343,0.0696 l -0.7032,0.2656 c -0.1093,0.0414 -0.1621,0.0312 -0.2109,-0.0985 l -0.2441,0.1551 0.2421,0.6406 0.2852,-0.0406 c -0.0488,-0.1293 -0.0176,-0.1754 0.0937,-0.2172 l 1.1707,-0.4422 c 0.1145,-0.0429 0.1653,-0.0281 0.2141,0.102 l 0.2422,-0.1574 -0.2188,-0.5766 -1.3144,-0.3789 c -0.1023,-0.0273 -0.2793,-0.0449 -0.2793,-0.0449 0,0 0.1641,-0.0438 0.2441,-0.0746 l 0.6004,-0.2266 c 0.1133,-0.043 0.1645,-0.0273 0.2121,0.102 l 0.2442,-0.1547 -0.2442,-0.6445 -0.2832,0.0433 c 0.0489,0.1309 0.0196,0.1719 -0.0937,0.2149 v 0"
       style="fill:#ffffff;fill-opacity:1;fill-rule:nonzero;stroke:none;stroke-width:0.1"
       id="path3550" />
    <path
       d="m 61.9043,56.8477 c 0.2246,0.3562 0.502,0.5418 0.6379,0.6179 l 0.3277,-0.3476 -0.1023,-0.1641 c -0.2481,0.0656 -0.4551,-0.0922 -0.5742,-0.2812 -0.0918,-0.1442 -0.1172,-0.336 0.0363,-0.4332 0.1297,-0.0832 0.2527,-0.02 0.493,0.2433 0.2421,0.2723 0.5742,0.4848 0.9414,0.2539 0.3593,-0.2277 0.3613,-0.6769 0.1015,-1.0844 -0.1965,-0.3125 -0.4355,-0.5027 -0.5625,-0.5785 l -0.3086,0.3297 0.1004,0.1625 c 0.2239,-0.0336 0.3977,0.111 0.4895,0.2594 0.1015,0.1617 0.1015,0.3219 -0.0176,0.3984 -0.1199,0.0754 -0.2363,0.0067 -0.4141,-0.1902 -0.3261,-0.3594 -0.6308,-0.5703 -1.0351,-0.316 -0.3938,0.2496 -0.3653,0.7301 -0.1133,1.1301 v 0"
       style="fill:#ffffff;fill-opacity:1;fill-rule:nonzero;stroke:none;stroke-width:0.1"
       id="path3552" />
    <path
       d="m 60.3867,54.827 0.5332,0.5972 0.25,-0.1429 c -0.0918,-0.1043 -0.0801,-0.1575 0.0078,-0.236 l 0.9356,-0.832 c 0.0918,-0.0797 0.1433,-0.0848 0.2363,0.0183 l 0.1699,-0.2308 -0.5324,-0.5973 -0.2488,0.1418 c 0.0937,0.1055 0.0808,0.1551 -0.0086,0.2367 l -0.9348,0.8325 c -0.0898,0.0781 -0.1433,0.0843 -0.2363,-0.0196 l -0.1719,0.2321 v 0"
       style="fill:#ffffff;fill-opacity:1;fill-rule:nonzero;stroke:none;stroke-width:0.1"
       id="path3554" />
    <path
       d="m 59.0574,53.6551 c 0.3281,0.264 0.6516,0.3484 0.802,0.375 l 0.198,-0.4336 -0.1519,-0.1211 c -0.2114,0.1418 -0.4582,0.0598 -0.6321,-0.0797 -0.1328,-0.1059 -0.2226,-0.2797 -0.1074,-0.4203 0.0957,-0.1231 0.2317,-0.1031 0.5469,0.0684 0.3144,0.1773 0.6992,0.2714 0.9726,-0.0684 0.2637,-0.3309 0.1192,-0.7555 -0.2578,-1.0574 -0.2871,-0.2305 -0.5761,-0.3313 -0.7214,-0.3625 l -0.1848,0.4121 0.1504,0.1207 c 0.198,-0.1039 0.4101,-0.0235 0.5449,0.0859 0.1484,0.1188 0.2012,0.2719 0.1133,0.3828 -0.0879,0.1094 -0.2227,0.0821 -0.4551,-0.0465 -0.4238,-0.2324 -0.7812,-0.332 -1.0789,0.0403 -0.2922,0.364 -0.1086,0.8074 0.2613,1.1043 v 0"
       style="fill:#ffffff;fill-opacity:1;fill-rule:nonzero;stroke:none;stroke-width:0.1"
       id="path3556" />
    <path
       d="m 47.5176,48.9426 -1.0664,0.3047 0.0215,0.2918 0.1367,-0.0403 c 0.1406,-0.0406 0.1867,-0.0093 0.2187,0.1039 l 0.3106,1.0875 c -0.0762,-0.0406 -0.2032,-0.0566 -0.4219,-0.0211 l 0.0898,0.3153 c 0.2325,-0.009 0.3731,0.0156 0.6133,0.2316 l 0.4356,-0.1234 -0.4727,-1.6488 c -0.032,-0.1129 -0.0039,-0.1653 0.1348,-0.2043 l 0.1367,-0.0391 -0.1367,-0.2578 v 0"
       style="fill:#ffffff;fill-opacity:1;fill-rule:nonzero;stroke:none;stroke-width:0.1"
       id="path3558" />
    <path
       d="m 49.5535,48.5781 c -0.5887,0.0543 -0.9414,0.3254 -0.907,0.6821 0.0293,0.3089 0.291,0.4586 0.5762,0.5507 -0.2317,0.1332 -0.4258,0.2993 -0.4024,0.5446 0.0274,0.3136 0.3945,0.4968 0.9414,0.4465 0.5235,-0.0508 0.8653,-0.2997 0.834,-0.6137 -0.0234,-0.2457 -0.241,-0.3723 -0.4941,-0.461 0.2617,-0.1425 0.4922,-0.3394 0.4636,-0.6468 -0.0339,-0.3567 -0.4414,-0.5563 -1.0117,-0.5024 z m 0.0949,1.0106 c -0.239,-0.086 -0.414,-0.2051 -0.4296,-0.3817 -0.0157,-0.1562 0.1347,-0.2863 0.3652,-0.3062 0.2207,-0.0223 0.4004,0.0726 0.418,0.2277 0.0156,0.1801 -0.1387,0.3313 -0.3536,0.4602 z m 0.084,0.8902 c -0.1933,0.0184 -0.3301,-0.0504 -0.3429,-0.1848 -0.0125,-0.1378 0.1046,-0.2578 0.2902,-0.3621 0.1953,0.0688 0.334,0.1641 0.3476,0.3032 0.0137,0.1343 -0.1113,0.2269 -0.2949,0.2437 v 0"
       style="fill:#ffffff;fill-opacity:1;fill-rule:nonzero;stroke:none;stroke-width:0.1"
       id="path3560" />
    <path
       d="m 52.252,48.5699 c -0.1426,-0.0129 -0.4141,0.009 -0.5079,0.0664 l -0.0293,0.3063 c 0.1036,-0.0285 0.2559,-0.0418 0.3907,-0.0297 0.3808,0.0371 0.6008,0.2285 0.6484,0.6078 -0.0684,-0.1156 -0.2695,-0.225 -0.4785,-0.2465 -0.5254,-0.0488 -0.8516,0.2266 -0.8926,0.6621 -0.043,0.4473 0.2793,0.8008 0.843,0.8539 0.6551,0.0637 0.9969,-0.3304 1.0515,-0.8945 0.0645,-0.6746 -0.2304,-1.2488 -1.0253,-1.3258 z m 0.0078,1.8883 C 52,50.4336 51.8691,50.25 51.8938,49.9852 c 0.0242,-0.2442 0.1714,-0.3946 0.4175,-0.3707 0.2239,0.0207 0.4192,0.1808 0.3918,0.4644 -0.0176,0.1867 -0.1406,0.4078 -0.4433,0.3793 v 0"
       style="fill:#ffffff;fill-opacity:1;fill-rule:nonzero;stroke:none;stroke-width:0.1"
       id="path3562" />
    <path
       d="m 55.6152,49.2461 -1.0742,-0.2828 -0.1289,0.2594 0.1375,0.0375 c 0.1406,0.0375 0.1633,0.0859 0.1328,0.1996 l -0.2879,1.0937 c -0.0468,-0.0722 -0.1457,-0.1539 -0.3523,-0.2336 l -0.0832,0.3164 c 0.2043,0.1121 0.3137,0.2047 0.407,0.5145 l 0.4387,0.1148 0.4375,-1.6574 c 0.0305,-0.1137 0.0801,-0.1449 0.2187,-0.1074 l 0.1387,0.0355 0.0156,-0.2902 v 0"
       style="fill:#ffffff;fill-opacity:1;fill-rule:nonzero;stroke:none;stroke-width:0.1"
       id="path3564" />
    <path
       d="m 49.8906,66.7863 c -0.1023,1.2477 -1.3066,2.9098 -3.0051,3.191 -1.8445,0.3067 -4.5261,-0.4793 -4.8367,-3.191 -0.3222,-2.8043 1.6817,-4.7254 4.2598,-4.5281 2.7969,0.2152 3.7285,2.7641 3.582,4.5281 z m -1.5898,-1.934 c 0.1504,0.0129 0.4668,-0.0632 0.5488,-0.271 0.0899,-0.225 -0.5605,-0.936 -0.8476,-1.0176 -0.1778,-0.0512 -0.4793,0.2761 -0.4297,0.5386 0.0293,0.1704 0.6054,0.7383 0.7285,0.75 z m 0.948,0.8379 c -0.1453,-0.0976 -0.4422,-0.0871 -0.5586,0.0903 -0.0808,0.1207 -0.114,1.0543 -0.0593,1.1886 0.0546,0.1372 0.4074,0.2329 0.5781,0.1391 0.1953,-0.1074 0.2773,-1.2598 0.0398,-1.418 z m -0.5086,2.3672 c -0.0332,-0.1734 -0.3359,-0.2738 -0.4589,-0.2597 -0.1524,0.0168 -0.8399,0.5523 -0.879,0.7285 -0.0546,0.2308 0.1204,0.4023 0.2696,0.4406 0.3984,0.0984 1.1152,-0.6629 1.0683,-0.9094 z m -2.207,1.2981 c 0.0566,-0.1258 0.1289,-0.3328 -0.0027,-0.4774 -0.1086,-0.1199 -1.1223,-0.2074 -1.2688,-0.1976 -0.3125,0.0195 -0.4297,0.3925 -0.3281,0.5527 0.1875,0.2902 1.491,0.3547 1.5996,0.1223 z m 0.8691,-1.8309 c 0,-0.266 -0.9941,-0.7855 -1.1796,-0.6762 -0.2707,0.1598 -0.8575,1.0528 -0.743,1.1954 0.4012,0.496 1.9226,-0.0997 1.9226,-0.5192 z m -2.6132,0.2422 c 0.1679,0.0266 0.6945,-0.8828 0.5918,-1.2023 -0.086,-0.2707 -1.1243,-0.7102 -1.2266,-0.6067 -0.3125,0.3125 -0.1563,1.6879 0.6348,1.809 z m -0.2598,-2.6133 c 0,0.2156 0.9043,0.7903 1.2344,0.6672 0.2656,-0.0992 0.7539,-1.2285 0.498,-1.3449 -0.6101,-0.2797 -1.7324,0.2789 -1.7324,0.6777 z m 2.7004,-0.2324 c -0.2453,0.1055 -0.9426,1.032 -0.716,1.2586 0.2121,0.2137 1.1816,0.7101 1.3254,0.5769 0.5547,-0.516 -0.1282,-2.0464 -0.6094,-1.8355 z m -3.632,2.5836 c -0.2344,-0.1172 -0.5762,0.1031 -0.6016,0.3922 -0.0234,0.2898 0.6875,0.9644 0.9355,0.8969 0.1211,-0.0333 0.336,-0.3145 0.3164,-0.5196 -0.0136,-0.1426 -0.5117,-0.7012 -0.6503,-0.7695 z m -0.2122,-1.9641 c -0.1296,-0.1558 -0.4753,-0.2426 -0.616,-0.1297 -0.2121,0.1711 -0.2773,0.8672 -0.1386,1.1645 0.0937,0.2004 0.6347,0.3008 0.7265,0.0734 0.0606,-0.1574 0.127,-0.9937 0.0281,-1.1082 z M 43.1816,64.323 c -0.0175,0.2227 0.325,0.5157 0.5547,0.4688 0.1856,-0.0391 0.7825,-0.6676 0.8086,-0.8098 0.0489,-0.2593 -0.1992,-0.5105 -0.3738,-0.5238 -0.2688,-0.0184 -0.9699,0.6211 -0.9895,0.8648 z m 2.1805,-1.2519 c -0.1863,0.1035 -0.0633,0.5898 0.207,0.6312 0.1887,0.0305 0.8645,0.0989 1.0872,0 0.1738,-0.0742 0.3105,-0.5179 0.2136,-0.6253 -0.1844,-0.2036 -1.241,-0.1524 -1.5078,-0.0059 v 0"
       style="fill:#ffffff;fill-opacity:1;fill-rule:nonzero;stroke:none;stroke-width:0.1"
       id="path3566" />
    <path
       d="m 18.5035,36.4711 c 0,2.3437 1.5828,3.723 3.6688,3.723 0.7918,0 1.2511,-0.1289 1.6578,-0.2464 l 0.3531,0.3109 h 0.1602 l 0.075,-2.3438 h -0.2246 c -0.5344,1.4336 -1.2946,1.8403 -2.086,1.8403 -1.2406,0 -2.4492,-0.9313 -2.4492,-3.1762 0,-1.7551 0.8769,-3.3473 2.6961,-3.3473 0.5242,0 1.091,0.1485 1.091,0.3192 0,0.3644 0.0109,1.3383 -0.0223,2.1609 l -0.0421,0.0434 -1.0489,0.0543 v 0.3613 h 2.9957 V 35.8094 L 24.557,35.7551 24.5141,35.7117 c -0.0215,-0.6836 -0.0328,-1.4531 -0.0215,-2.2773 -0.1278,-0.2676 -1.1543,-0.6848 -2.236,-0.6848 -2.1804,0 -3.7531,1.3582 -3.7531,3.7215 v 0"
       style="fill:#ffffff;fill-opacity:1;fill-rule:nonzero;stroke:none;stroke-width:0.1"
       id="path3568" />
    <path
       d="m 26.5023,36.3645 c 0,2.4285 1.4879,3.8296 3.3809,3.8296 2.1285,0 3.3578,-1.4992 3.3578,-3.6152 0,-2.4281 -1.4859,-3.8293 -3.3793,-3.8293 -2.1281,0 -3.3594,1.4973 -3.3594,3.6149 z m 5.584,0.1066 c 0,2.1613 -0.8445,3.2422 -2.2031,3.2422 -1.359,0 -2.2246,-1.0809 -2.2246,-3.2422 0,-2.1598 0.8441,-3.2395 2.2031,-3.2395 1.3586,0 2.2246,1.0797 2.2246,3.2395 z m -3.7867,4.9531 c 0,0.3414 0.2145,0.6098 0.5777,0.6098 0.3434,0 0.5563,-0.2254 0.5563,-0.5668 0,-0.3434 -0.2242,-0.6106 -0.5883,-0.6106 -0.3312,0 -0.5457,0.2254 -0.5457,0.5676 z m 2.0012,0 c 0,0.3414 0.2133,0.6098 0.5765,0.6098 0.343,0 0.5575,-0.2254 0.5575,-0.5668 0,-0.3434 -0.2258,-0.6106 -0.5887,-0.6106 -0.332,0 -0.5453,0.2254 -0.5453,0.5676 v 0"
       style="fill:#ffffff;fill-opacity:1;fill-rule:nonzero;stroke:none;stroke-width:0.1"
       id="path3570" />
    <path
       d="m 35.4664,33.2211 1.1441,0.0531 0.0422,0.0418 c 0.0114,0.3973 0.0332,1.7766 0.0332,3.2199 0,1.4434 0,2.6321 -0.0332,3.0055 l -0.0332,0.0531 H 35.348 c -0.2234,0 -0.4917,-0.3847 -0.93,-1.6797 h -0.2129 l 0.0844,2.3438 h 0.1925 l 0.3102,-0.1816 h 4.8023 l 0.3098,0.1816 h 0.1934 l 0.0859,-2.3438 h -0.2148 c -0.4485,1.3063 -0.7051,1.6797 -0.9297,1.6797 H 37.766 L 37.7328,39.5414 C 37.723,39.284 37.7016,37.841 37.7016,36.3957 c 0,-1.4437 0.0214,-2.6937 0.0312,-3.0797 l 0.0438,-0.0418 1.1754,-0.0531 v -0.3656 h -3.4856 v 0.3656 0"
       style="fill:#ffffff;fill-opacity:1;fill-rule:nonzero;stroke:none;stroke-width:0.1"
       id="path3572" />
    <path
       d="m 41.4648,33.2211 1.0489,0.0531 0.0437,0.0418 c 0.009,0.4926 0.0317,1.7766 0.0317,3.2199 0,1.4434 -0.0227,2.6524 -0.0317,3.0797 l -0.0437,0.043 -1.0489,0.0547 v 0.3637 h 4.6954 l 0.4179,0.1816 h 0.1602 l 0.0762,-2.3438 h -0.2137 c -0.3867,1.0813 -0.7297,1.6153 -0.9094,1.6266 l -2.0234,0.1078 -0.0313,-0.0547 c -0.0097,-0.4906 -0.0312,-1.6269 -0.0312,-2.8238 0.4804,0 1.5293,0.0328 1.8066,0.0531 l 0.043,0.0442 0.3847,0.748 h 0.2032 c -0.0098,-0.2988 -0.0196,-0.7594 -0.0196,-1.0488 0,-0.2774 0.0098,-0.8762 0.0196,-1.1961 h -0.2032 l -0.3847,0.8855 -0.043,0.0442 c -0.3308,0.0101 -1.2832,0.0301 -1.8066,0.0301 0,-1.3571 0.0215,-2.4473 0.0312,-2.9926 l 0.0313,-0.0531 2.1836,0.116 c 0.1816,0.0117 0.6621,0.4511 1.0488,1.7121 h 0.2461 C 47.0059,33.0285 46.9746,32.8555 46.793,32.8555 h -5.3282 v 0.3656 0"
       style="fill:#ffffff;fill-opacity:1;fill-rule:nonzero;stroke:none;stroke-width:0.1"
       id="path3574" />
    <path
       d="m 48.4285,33.2211 1.0481,0.0531 0.0429,0.0418 c 0.011,0.375 0.0313,1.7766 0.0313,3.2199 0,1.4434 -0.0203,2.6098 -0.0313,3.0797 l -0.0429,0.043 -1.0481,0.0547 v 0.3637 c 0.7922,0 1.7024,0.0207 2.332,0.0207 0.7805,0 1.3801,-0.0657 1.8625,-0.2141 0.8438,-0.268 1.3575,-0.8125 1.3575,-1.5938 0,-0.9187 -0.6106,-1.466 -1.3047,-1.6363 v -0.0219 c 1.1328,-0.0527 1.8066,-0.7168 1.8066,-1.5824 0,-1.4543 -1.3047,-2.2144 -3.3789,-2.2144 -0.6953,0 -1.8183,0.0207 -2.675,0.0207 z m 2.8137,3.5719 c 1.2605,0 1.584,0.5984 1.584,1.423 0,0.566 -0.2032,0.9938 -0.6438,1.2188 -0.2769,0.1496 -0.6726,0.2343 -1.2613,0.2343 -0.052,0 -0.1711,0 -0.2773,-0.0105 l -0.043,-0.052 c -0.011,-0.5574 -0.0434,-1.6043 -0.0324,-2.8136 z m 2.0859,-1.8828 c 0,1.0156 -0.6965,1.4113 -1.6379,1.4113 h -1.1218 c -0.011,-1.3578 0.0214,-2.4379 0.0324,-3.0055 l 0.0515,-0.0418 c 0.2051,-0.0129 0.3973,-0.0129 0.5254,-0.0129 1.4453,0 2.1504,0.6008 2.1504,1.6489 v 0"
       style="fill:#ffffff;fill-opacity:1;fill-rule:nonzero;stroke:none;stroke-width:0.1"
       id="path3576" />
    <path
       d="m 55.9805,36.3645 c 0,2.4285 1.4863,3.8296 3.3789,3.8296 2.1289,0 3.3574,-1.4992 3.3574,-3.6152 0,-2.4281 -1.4844,-3.8293 -3.3789,-3.8293 -2.1277,0 -3.3574,1.4973 -3.3574,3.6149 z m 5.582,0.1066 c 0,2.1613 -0.8437,3.2422 -2.2031,3.2422 -1.3574,0 -2.2246,-1.0809 -2.2246,-3.2422 0,-2.1598 0.8457,-3.2395 2.2031,-3.2395 1.3574,0 2.2246,1.0797 2.2246,3.2395 v 0"
       style="fill:#ffffff;fill-opacity:1;fill-rule:nonzero;stroke:none;stroke-width:0.1"
       id="path3578" />
    <path
       d="m 63.7883,33.2211 1.0691,0.0531 0.0442,0.0418 c 0.0086,0.3113 0.03,1.7766 0.03,3.2199 0,1.4434 -0.0214,2.5993 -0.03,3.0797 l -0.0442,0.043 -1.0691,0.0547 v 0.3637 c 0.9617,0 1.989,0.0207 2.5347,0.0207 0.845,0 1.3364,-0.0536 1.7336,-0.1719 1.0254,-0.3102 1.4747,-0.9727 1.4747,-1.7004 0,-1.0586 -0.7161,-1.5613 -1.5938,-1.8391 v -0.0218 c 0.2773,-0.3207 0.7598,-1.1981 1.3809,-2.2891 0.2656,-0.4715 0.5234,-0.8227 0.875,-0.8438 l 0.2351,-0.0105 v -0.3656 h -1.6043 l -0.041,0.0441 c -0.3977,0.8024 -0.6758,1.4543 -1.3496,2.6535 -0.1375,0.2446 -0.2656,0.4477 -0.427,0.6305 -0.3836,-0.0551 -0.7488,-0.0754 -1.0593,-0.0754 -0.0078,-1.2734 0.0234,-2.4707 0.0332,-2.7922 l 0.0429,-0.0418 0.9832,-0.0531 v -0.3656 h -3.2183 z m 4.5887,4.9949 c 0,0.5875 -0.2571,1.025 -0.7383,1.25 -0.2676,0.1285 -0.5996,0.2031 -1.2735,0.2031 h -0.3515 l -0.0332,-0.0312 c -0.0098,-0.4609 -0.0215,-1.8606 -0.0332,-3.1121 1.8613,0.0531 2.4297,0.6512 2.4297,1.6902 v 0"
       style="fill:#ffffff;fill-opacity:1;fill-rule:nonzero;stroke:none;stroke-width:0.1"
       id="path3580" />
    <path
       d="m 71.2324,36.4711 c 0,2.3437 1.5821,3.723 3.668,3.723 0.793,0 1.2519,-0.1289 1.657,-0.2464 l 0.3528,0.3109 h 0.1621 l 0.0742,-2.3438 h -0.2246 c -0.5352,1.4336 -1.2949,1.8403 -2.086,1.8403 -1.2421,0 -2.4492,-0.9313 -2.4492,-3.1762 0,-1.7551 0.877,-3.3473 2.6953,-3.3473 0.5254,0 1.0918,0.1485 1.0918,0.3192 0,0.3644 0.0117,1.3383 -0.0215,2.1609 l -0.0449,0.0434 -1.0461,0.0543 v 0.3613 h 2.9934 v -0.3613 l -0.7695,-0.0543 -0.043,-0.0434 c -0.0215,-0.6836 -0.032,-1.4531 -0.0215,-2.2773 -0.1277,-0.2676 -1.1543,-0.6848 -2.2344,-0.6848 -2.1828,0 -3.7539,1.3582 -3.7539,3.7215 v 0"
       style="fill:#ffffff;fill-opacity:1;fill-rule:nonzero;stroke:none;stroke-width:0.1"
       id="path3582" />
    <path
       d="m 79.1777,35.1133 h 0.2461 c 0.375,-1.3582 0.9844,-1.9262 1.7325,-1.9262 0.8781,0 1.4335,0.5887 1.4335,1.3586 0,1.8613 -3.2832,1.3906 -3.2832,3.7441 0,0.9942 0.7813,1.9043 2.1387,1.9043 0.6953,0 1.252,-0.2136 1.3692,-0.2464 l 0.3203,0.3109 h 0.2031 l 0.0644,-2.3438 h -0.2246 c -0.4492,1.3063 -1.0371,1.8403 -1.7644,1.8403 -0.632,0 -1.1762,-0.4168 -1.1762,-1.1227 0,-1.7863 3.3391,-1.5086 3.3391,-3.7652 0,-1.0809 -0.8145,-2.1176 -2.4844,-2.1176 -0.459,0 -1.0039,0.1059 -1.4758,0.4172 l -0.2117,-0.4172 h -0.2266 v 2.3637 0"
       style="fill:#ffffff;fill-opacity:1;fill-rule:nonzero;stroke:none;stroke-width:0.1"
       id="path3584" />
    <path
       d="m 14.6051,22.827 c 0,0.4062 0.0105,0.6507 0.0105,1.7093 0,0.8473 -0.0105,1.5196 -0.0218,2.4821 l -0.0426,0.0429 -1.027,0.0547 v 0.3633 H 16.584 V 27.116 l -0.8668,-0.0547 -0.0426,-0.0429 c -0.0101,-0.8024 -0.0215,-2.5332 -0.0215,-4.1489 0,-1.3472 0.3102,-2.2574 1.7324,-2.2574 1.4868,0 1.9149,0.8668 1.9149,2.4606 0,1.3894 -0.0215,2.8972 -0.0426,3.9457 l -0.043,0.0429 -0.9843,0.0547 v 0.3633 H 21.066 V 27.116 L 20.0172,27.0613 19.975,27.0184 c -0.0324,-1.1446 -0.0324,-2.7164 -0.0219,-4.0418 0.0098,-1.8403 -0.8562,-2.8243 -2.6519,-2.8243 -1.7657,0 -2.6961,0.911 -2.6961,2.6747 v 0"
       style="fill:#ffffff;fill-opacity:1;fill-rule:nonzero;stroke:none;stroke-width:0.1"
       id="path3586" />
    <path
       d="m 22.0277,20.6223 1.0477,0.0543 0.0437,0.0429 c 0.0313,1.145 0.0313,1.9899 0.0313,3.059 0,1.0699 0,1.6578 -0.0313,3.2399 l -0.0437,0.0429 -1.0477,0.0547 v 0.3633 h 2.043 c 1.3047,-1.8285 2.7914,-3.968 3.8609,-5.4977 h 0.0211 c -0.0211,2.0536 -0.0425,3.9883 -0.0636,5.0368 l -0.043,0.0429 -0.984,0.0547 v 0.3633 h 2.8348 V 27.116 L 28.6477,27.0613 28.6055,27.0184 C 28.573,25.8738 28.573,25.0301 28.573,22.3461 v -2.1406 h -0.5242 c -1.3258,1.8816 -2.9097,4.0965 -4.2566,6.0218 h -0.0207 c 0.0101,-2.5035 0.043,-4.4375 0.0637,-5.5078 l 0.0421,-0.0429 0.986,-0.0543 V 20.259 h -2.8356 v 0.3633 0"
       style="fill:#ffffff;fill-opacity:1;fill-rule:nonzero;stroke:none;stroke-width:0.1"
       id="path3588" />
    <path
       d="m 30.9797,20.6223 1.0476,0.0543 0.0434,0.0429 c 0.0215,0.3321 0.0324,1.7766 0.0324,3.2203 0,1.4438 -0.0109,2.7153 -0.0324,3.0786 l -0.0434,0.0429 -1.0476,0.0547 v 0.3633 h 3.2516 V 27.116 l -1.0375,-0.0547 -0.043,-0.0429 c -0.0207,-0.2879 -0.032,-1.775 -0.032,-3.2188 0,-1.4433 0.0207,-2.7168 0.032,-3.0801 l 0.043,-0.0429 1.0375,-0.0543 V 20.259 h -3.2516 v 0.3633 0"
       style="fill:#ffffff;fill-opacity:1;fill-rule:nonzero;stroke:none;stroke-width:0.1"
       id="path3590" />
    <path
       d="m 35.782,27.0832 -0.6418,0.0328 v 0.3633 h 2.8024 V 27.116 l -0.952,-0.0433 -0.0437,-0.0426 c 0.6,-1.5508 1.3054,-3.4235 2.0121,-5.2293 h 0.0215 c 0.5234,1.4543 1.4336,4.0414 1.7871,5.2406 l -0.0332,0.0313 -0.8672,0.0433 v 0.3633 h 2.3652 V 27.116 l -0.6211,-0.0328 c -0.5566,-1.4125 -1.8398,-4.7371 -2.6855,-6.9309 h -0.2887 c -1.1019,2.6747 -2.0527,5.0051 -2.8551,6.9309 v 0"
       style="fill:#ffffff;fill-opacity:1;fill-rule:nonzero;stroke:none;stroke-width:0.1"
       id="path3592" />
    <path
       d="m 43.0332,20.6223 1.0481,0.0543 0.0425,0.0429 c 0.011,0.4922 0.0325,1.7766 0.0325,3.2203 0,1.4438 -0.0215,2.6508 -0.0325,3.0786 l -0.0425,0.0429 -1.0481,0.0547 v 0.3633 h 4.6953 l 0.416,0.1809 h 0.1621 l 0.0743,-2.3414 h -0.2137 c -0.3867,1.0804 -0.727,1.6148 -0.9094,1.6261 l -2.0215,0.1071 -0.0312,-0.0536 c -0.0117,-0.4921 -0.0332,-1.6261 -0.0332,-2.8226 0.4824,0 1.5293,0.0312 1.8066,0.0531 l 0.043,0.0414 0.3848,0.7492 h 0.205 c -0.0105,-0.3 -0.0215,-0.7593 -0.0215,-1.048 0,-0.2789 0.011,-0.8777 0.0215,-1.1992 h -0.205 l -0.3848,0.8879 -0.043,0.0437 c -0.3301,0.0109 -1.2832,0.0328 -1.8066,0.0328 0,-1.3609 0.0215,-2.4515 0.0332,-2.9972 l 0.0312,-0.0512 2.1817,0.1172 c 0.1828,0.0097 0.6621,0.448 1.0488,1.7109 h 0.2461 C 48.5742,20.432 48.541,20.259 48.3594,20.259 h -5.3262 v 0.3633 0"
       style="fill:#ffffff;fill-opacity:1;fill-rule:nonzero;stroke:none;stroke-width:0.1"
       id="path3594" />
    <path
       d="m 49.9949,20.6223 1.0703,0.0543 0.0434,0.0429 c 0.0113,0.3102 0.0309,1.7766 0.0309,3.2203 0,1.4438 -0.0196,2.5993 -0.0309,3.0786 l -0.0434,0.0429 -1.0703,0.0547 v 0.3633 c 0.9641,0 1.9914,0.0215 2.5356,0.0215 0.8445,0 1.3386,-0.0543 1.7332,-0.1715 1.0273,-0.3109 1.4765,-0.9727 1.4765,-1.7008 0,-1.0586 -0.7175,-1.5625 -1.5937,-1.8394 V 23.768 c 0.2781,-0.3215 0.759,-1.1989 1.3789,-2.2891 0.2676,-0.4703 0.5254,-0.8242 0.8762,-0.8437 l 0.2371,-0.0129 V 20.259 h -1.6043 l -0.0442,0.0441 c -0.3945,0.8024 -0.6718,1.4535 -1.3457,2.6524 -0.1386,0.2445 -0.2695,0.448 -0.4297,0.6312 -0.3847,-0.0543 -0.748,-0.0754 -1.0585,-0.0754 -0.0098,-1.2722 0.0222,-2.4711 0.0312,-2.7918 l 0.0449,-0.0429 0.9824,-0.0543 V 20.259 h -3.2199 z m 4.5903,4.9949 c 0,0.5887 -0.2571,1.0281 -0.7375,1.2523 -0.2696,0.1289 -0.5997,0.2032 -1.2735,0.2032 h -0.3535 l -0.0332,-0.0313 c -0.009,-0.4594 -0.0195,-1.8629 -0.0312,-3.1144 1.8613,0.0546 2.4289,0.6535 2.4289,1.6902 v 0"
       style="fill:#ffffff;fill-opacity:1;fill-rule:nonzero;stroke:none;stroke-width:0.1"
       id="path3596" />
    <path
       d="m 57.8145,22.5164 h 0.246 c 0.3731,-1.3578 0.9825,-1.9266 1.7325,-1.9266 0.8769,0 1.4316,0.5887 1.4316,1.359 0,1.861 -3.2812,1.391 -3.2812,3.7438 0,0.9937 0.7793,1.9039 2.1386,1.9039 0.6953,0 1.252,-0.2129 1.3692,-0.2461 l 0.3203,0.3098 h 0.2031 l 0.0645,-2.3414 h -0.2239 c -0.45,1.3046 -1.0379,1.8398 -1.7656,1.8398 -0.6316,0 -1.1766,-0.4176 -1.1766,-1.1234 0,-1.7864 3.3379,-1.5079 3.3379,-3.7649 0,-1.0793 -0.8132,-2.118 -2.4812,-2.118 -0.4602,0 -1.007,0.1067 -1.477,0.4168 l -0.2136,-0.4168 h -0.2246 v 2.3641 0"
       style="fill:#ffffff;fill-opacity:1;fill-rule:nonzero;stroke:none;stroke-width:0.1"
       id="path3598" />
    <path
       d="m 63.7605,20.6223 1.05,0.0543 0.0411,0.0429 c 0.0222,0.3321 0.0332,1.7766 0.0332,3.2203 0,1.4438 -0.011,2.7153 -0.0332,3.0786 l -0.0411,0.0429 -1.05,0.0547 v 0.3633 h 3.2532 V 27.116 l -1.0391,-0.0547 -0.043,-0.0429 c -0.0214,-0.2879 -0.0312,-1.775 -0.0312,-3.2188 0,-1.4433 0.0234,-2.7168 0.0312,-3.0801 l 0.043,-0.0429 1.0391,-0.0543 V 20.259 h -3.2532 v 0.3633 0"
       style="fill:#ffffff;fill-opacity:1;fill-rule:nonzero;stroke:none;stroke-width:0.1"
       id="path3600" />
    <path
       d="m 69.5586,20.6223 1.1434,0.0543 0.0421,0.0429 c 0.0118,0.3965 0.0332,1.7766 0.0332,3.2203 0,1.4438 0,2.6313 -0.0332,3.0051 l -0.0312,0.0535 h -1.2727 c -0.2254,0 -0.4922,-0.3851 -0.9304,-1.6796 h -0.2137 l 0.0848,2.3414 h 0.1921 l 0.3098,-0.1809 h 4.8035 l 0.3098,0.1809 h 0.1934 l 0.0839,-2.3414 h -0.2129 c -0.4492,1.3046 -0.705,1.6796 -0.9296,1.6796 h -1.2735 l -0.0332,-0.0535 c -0.0117,-0.2586 -0.032,-1.7015 -0.032,-3.1453 0,-1.4433 0.0203,-2.6941 0.032,-3.0801 l 0.043,-0.0429 1.1777,-0.0543 V 20.259 h -3.4863 v 0.3633 0"
       style="fill:#ffffff;fill-opacity:1;fill-rule:nonzero;stroke:none;stroke-width:0.1"
       id="path3602" />
    <path
       d="m 75.5574,20.6223 1.0481,0.0543 0.0429,0.0429 c 0.011,0.4922 0.0332,1.7766 0.0332,3.2203 0,1.4438 -0.0222,2.6508 -0.0332,3.0786 l -0.0429,0.0429 -1.0481,0.0547 v 0.3633 h 4.6965 l 0.4172,0.1809 h 0.1602 l 0.0742,-2.3414 h -0.2141 c -0.3848,1.0804 -0.7266,1.6148 -0.9082,1.6261 l -2.0215,0.1071 -0.0312,-0.0536 c -0.0117,-0.4921 -0.0332,-1.6261 -0.0332,-2.8226 0.4812,0 1.5293,0.0312 1.8066,0.0531 l 0.0449,0.0414 0.3828,0.7492 h 0.2032 c -0.0098,-0.3 -0.0196,-0.7593 -0.0196,-1.048 0,-0.2789 0.0098,-0.8777 0.0196,-1.1992 h -0.2032 l -0.3828,0.8879 -0.0449,0.0437 c -0.3301,0.0109 -1.282,0.0328 -1.8066,0.0328 0,-1.3609 0.0215,-2.4515 0.0332,-2.9972 l 0.0312,-0.0512 2.1817,0.1172 c 0.1816,0.0097 0.664,0.448 1.0476,1.7109 h 0.2461 C 81.0977,20.432 81.0652,20.259 80.8848,20.259 h -5.3274 v 0.3633 0"
       style="fill:#ffffff;fill-opacity:1;fill-rule:nonzero;stroke:none;stroke-width:0.1"
       id="path3604" />
    <path
       d="m 83.7832,20.6223 1.1426,0.0543 0.043,0.0429 c 0.0117,0.3965 0.0332,1.7766 0.0332,3.2203 0,1.4438 0,2.6313 -0.0332,3.0051 l -0.0293,0.0535 H 83.666 c -0.2246,0 -0.4922,-0.3851 -0.9324,-1.6796 h -0.2141 l 0.0852,2.3414 h 0.1949 l 0.3078,-0.1809 h 4.8028 l 0.3105,0.1809 h 0.1934 L 88.5,25.3188 h -0.2129 c -0.4512,1.3046 -0.709,1.6796 -0.9316,1.6796 H 86.082 l -0.0324,-0.0535 c -0.0105,-0.2586 -0.032,-1.7015 -0.032,-3.1453 0,-1.4433 0.0215,-2.6941 0.032,-3.0801 l 0.0442,-0.0429 1.1757,-0.0543 V 20.259 h -3.4863 v 0.3633 0"
       style="fill:#ffffff;fill-opacity:1;fill-rule:nonzero;stroke:none;stroke-width:0.1"
       id="path3606" />
  </g>
</svg>
