<?xml version="1.0" encoding="UTF-8" standalone="no"?>
<!-- Created with Inkscape (http://www.inkscape.org/) -->

<svg
   width="76.09626mm"
   height="16.685709mm"
   viewBox="0 0 76.09626 16.685709"
   version="1.1"
   id="svg780"
   inkscape:version="1.2.2 (b0a8486541, 2022-12-01)"
   sodipodi:docname="karps_slogan_en.svg"
   xmlns:inkscape="http://www.inkscape.org/namespaces/inkscape"
   xmlns:sodipodi="http://sodipodi.sourceforge.net/DTD/sodipodi-0.dtd"
   xmlns="http://www.w3.org/2000/svg"
   xmlns:svg="http://www.w3.org/2000/svg">
  <sodipodi:namedview
     id="namedview782"
     pagecolor="#ffffff"
     bordercolor="#000000"
     borderopacity="0.25"
     inkscape:showpageshadow="2"
     inkscape:pageopacity="0.0"
     inkscape:pagecheckerboard="0"
     inkscape:deskcolor="#d1d1d1"
     inkscape:document-units="mm"
     showgrid="false"
     inkscape:zoom="0.96057914"
     inkscape:cx="-59.339202"
     inkscape:cy="10.930906"
     inkscape:window-width="1536"
     inkscape:window-height="909"
     inkscape:window-x="0"
     inkscape:window-y="0"
     inkscape:window-maximized="1"
     inkscape:current-layer="layer1" />
  <defs
     id="defs777">
    <rect
       x="165.33238"
       y="165.66167"
       width="170.87849"
       height="72.536377"
       id="rect827-2" />
    <rect
       x="482.19177"
       y="295.30188"
       width="300.78351"
       height="66.402"
       id="rect10965" />
    <rect
       x="165.33238"
       y="165.66167"
       width="170.87849"
       height="72.536377"
       id="rect827-2-1" />
    <rect
       x="482.19177"
       y="295.30188"
       width="300.78351"
       height="66.402"
       id="rect10965-0" />
  </defs>
  <g
     inkscape:label="Layer 1"
     inkscape:groupmode="layer"
     id="layer1"
     transform="translate(-104.48467,-29.360004)">
    <path
       style="fill:#f0581a;fill-opacity:1;stroke-width:0.0112058"
       d="m 143.30884,41.212884 c -0.82127,-0.20932 -1.19527,-1.11657 -1.38129,-1.85689 -0.18356,-0.70428 1.55612,-0.98507 0.39221,-0.83932 -1.06742,0.18072 -2.35735,-0.52305 -3.0352,0.59416 -0.58986,0.65776 -1.78292,1.10137 -2.04862,-0.0618 -0.41899,-0.61833 -0.60953,-1.42631 0.42122,-1.4425 0.26375,-0.32838 -0.99327,-0.37008 -1.31698,-0.42633 -1.03625,-0.11474 -1.76876,0.72687 -2.64291,1.11995 -0.63327,0.33256 -1.28644,0.63918 -1.9687,0.85445 -0.715,-0.43081 0.24564,-1.45031 0.49907,-2.01889 0.60987,-0.61923 0.91774,-1.56386 0.34837,-2.31458 -0.37056,-0.81454 -1.00198,-1.55082 -1.0515,-2.47858 0.93707,0.0222 1.53746,0.89264 2.31669,1.30243 0.70314,0.45504 1.4045,1.12282 2.30538,0.83928 0.55262,-0.0709 1.91576,-0.16069 0.93879,-0.77853 -0.78229,-0.88015 0.95864,-1.18416 1.47081,-1.595 1.09667,-0.50261 2.22369,-0.92088 3.39364,-1.20147 0.84358,0.0244 1.91773,-1.14271 2.45972,-0.0652 0.33368,0.70139 0.59325,1.7649 1.59356,1.58576 1.51642,0.1152 2.89999,0.80655 4.1521,1.62818 1.04307,0.57006 2.01474,1.33032 2.75784,2.25371 0.0972,0.72466 -0.79766,1.26906 -1.4257,1.24688 -0.96354,0.37165 -1.96387,0.627 -2.9916,0.75048 -1.40278,0.20677 -2.82099,0.29389 -4.23811,0.31017 -0.13323,0.81421 0.34885,1.82978 -0.31129,2.4901 -0.18947,0.11391 -0.42262,0.135 -0.6375,0.10349 z"
       id="path674-1-6"
       inkscape:export-filename="../logotyper/karp_slogan_en.svg"
       inkscape:export-xdpi="275.48999"
       inkscape:export-ydpi="275.48999" />
    <g
       aria-label="Karp"
       transform="matrix(0.26458333,0,0,0.26458333,59.583461,-16.806596)"
       id="text825-0-5"
       style="font-weight:300;font-size:49.3333px;font-family:'Open Sans';-inkscape-font-specification:'Open Sans, Light';white-space:pre;shape-inside:url(#rect827-2-1);display:inline">
      <path
         d="m 169.70536,174.48794 v 37.33331 h 2.93333 v -18.77332 l 16.26666,18.77332 h 3.73333 l -17.22665,-19.83999 16.42665,-17.49332 h -3.73333 l -15.46666,16.63999 v -16.63999 z"
         style="font-size:53.3333px;font-family:'Jost*';-inkscape-font-specification:'Jost*, Light'"
         id="path597" />
      <path
         d="m 197.86534,191.76793 c 1.33333,-1.01333 3.78667,-2.56 7.46666,-2.56 4.74667,0 6.29333,2.77333 6.29333,5.6 v 4.10666 c -1.44,-0.96 -3.94666,-2.08 -7.46666,-2.08 -5.70666,0 -9.22666,2.98667 -9.22666,7.73333 0,5.17333 4.05333,7.78666 8.26666,7.78666 3.36,0 6.98666,-1.65333 8.42666,-5.11999 v 4.58666 h 2.77333 V 194.4346 c 0,-4.90667 -3.30666,-7.68 -8.85332,-7.68 -4.32,0 -7.25333,1.65333 -9.06666,2.93333 z m -0.10667,12.69333 c 0,-3.68 2.66667,-5.38667 6.82667,-5.38667 2.56,0 4.90666,0.58667 7.03999,1.81333 v 0.69334 c 0,5.49333 -3.57333,8.37333 -7.67999,8.37333 -3.41333,0 -6.18667,-1.76 -6.18667,-5.49333 z"
         style="font-size:53.3333px;font-family:'Jost*';-inkscape-font-specification:'Jost*, Light'"
         id="path599" />
      <path
         d="m 224.79862,187.28793 h -2.77333 v 24.53332 h 2.77333 v -14.93332 c 0,-4.16 1.33333,-7.52 4.96,-7.52 1.28,0 2.13333,0.37333 3.2,1.17333 l 1.54666,-2.29333 c -1.12,-1.06666 -2.56,-1.49333 -4.10666,-1.49333 -2.34667,0 -4.37333,1.6 -5.6,4.10666 z"
         style="font-size:53.3333px;font-family:'Jost*';-inkscape-font-specification:'Jost*, Light'"
         id="path601" />
      <path
         d="m 241.7053,223.55458 v -17.49333 c 1.65333,3.84 4.90667,6.29333 9.12,6.29333 6.55999,0 11.83999,-4.90666 11.83999,-12.79999 0,-7.89333 -5.28,-12.79999 -11.83999,-12.79999 -4.21333,0 -7.46667,2.45333 -9.12,6.29333 v -5.76 h -2.77333 v 36.26665 z m 18.18666,-23.99999 c 0,6.4 -4.21333,10.18666 -9.44,10.18666 -4.53333,0 -8.74666,-4.31999 -8.74666,-10.18666 0,-5.86666 4.21333,-10.18666 8.74666,-10.18666 5.22667,0 9.44,3.78667 9.44,10.18666 z"
         style="font-size:53.3333px;font-family:'Jost*';-inkscape-font-specification:'Jost*, Light'"
         id="path603" />
    </g>
    <g
       aria-label="Språkbanken’s data publishing platform"
       transform="matrix(0.26458333,0,0,0.26458333,-23.234319,-44.994656)"
       id="text10963-74"
       style="font-weight:300;font-size:49.3333px;font-family:'Open Sans';-inkscape-font-specification:'Open Sans, Light';white-space:pre;shape-inside:url(#rect10965-0);display:inline;fill:#f0581a">
      <path
         d="m 484.25808,336.42291 -1.46667,1.03333 c 0.76667,1.60001 2.41667,2.98334 4.46667,2.98334 1.98334,0 3.88334,-1.3 3.88334,-3.48334 0,-2.03333 -1.56667,-3.01667 -2.96667,-3.5 -1.88334,-0.65001 -2.65,-1.23334 -2.65,-2.13334 0,-0.66667 0.5,-1.25 1.58333,-1.25 1.18334,0 1.88334,0.76666 2.36667,1.63333 l 1.58334,-0.9 c -0.6,-1.21667 -1.85,-2.5 -3.91667,-2.5 -2.10001,0 -3.66668,1.28333 -3.66668,3.15 0,2.16667 1.95001,3.00001 3.10001,3.41668 1.48333,0.55 2.48334,0.95 2.48334,2.23333 0,0.93334 -0.71667,1.56667 -1.80001,1.56667 -1.31667,0 -2.25,-0.88333 -3,-2.25 z"
         style="font-weight:500;font-size:16.6667px;font-family:'Jost*';-inkscape-font-specification:'Jost*, Medium';fill:#000000"
         id="path606" />
      <path
         d="m 494.74144,343.85626 v -4.95001 c 0.55,0.95 1.46667,1.48333 2.61667,1.48333 2.00001,0 3.73334,-1.46667 3.73334,-4.03334 0,-2.56667 -1.73333,-4.05001 -3.73334,-4.05001 -1.15,0 -2.06667,0.55 -2.61667,1.50001 v -1.28334 h -1.81667 v 11.33336 z m 4.48334,-7.50002 c 0,1.53334 -1.05,2.40001 -2.3,2.40001 -1.05,0 -2.18334,-0.85001 -2.18334,-2.40001 0,-1.56667 1.13334,-2.4 2.18334,-2.4 1.25,0 2.3,0.86666 2.3,2.4 z"
         style="font-weight:500;font-size:16.6667px;font-family:'Jost*';-inkscape-font-specification:'Jost*, Medium';fill:#000000"
         id="path608" />
      <path
         d="m 506.87481,334.43957 0.88333,-1.51667 c -0.35,-0.4 -0.86667,-0.58333 -1.41667,-0.58333 -0.65,0 -1.3,0.41666 -1.75,1.1 v -0.91667 h -1.78334 v 7.66668 h 1.78334 v -4.31667 c 0,-1.10001 0.36667,-1.83334 1.26667,-1.83334 0.43333,0 0.68333,0.13333 1.01667,0.4 z"
         style="font-weight:500;font-size:16.6667px;font-family:'Jost*';-inkscape-font-specification:'Jost*, Medium';fill:#000000"
         id="path610" />
      <path
         d="m 510.30815,329.55623 c 0,1.06667 0.86667,1.78333 1.85001,1.78333 0.98333,0 1.86667,-0.71666 1.86667,-1.78333 0,-1.05 -0.88334,-1.76667 -1.86667,-1.76667 -0.98334,0 -1.85001,0.71667 -1.85001,1.76667 z m 1.03334,0 c 0,-0.51667 0.4,-0.85 0.81667,-0.85 0.41667,0 0.81667,0.33333 0.81667,0.85 0,0.53333 -0.4,0.85 -0.81667,0.85 -0.41667,0 -0.81667,-0.31667 -0.81667,-0.85 z m -1.6,4.98334 c 0.36666,-0.23333 1.23333,-0.73333 2.33333,-0.73333 0.83334,0 1.51667,0.4 1.51667,1.11667 v 1.06666 c -0.46666,-0.26666 -1.15,-0.51666 -2,-0.51666 -1.9,0 -3.28334,0.91666 -3.28334,2.61667 0,1.41667 1.06667,2.26667 2.68334,2.26667 1.15,0 2.15,-0.45 2.6,-1.26667 v 1.1 h 1.76667 v -5.46668 c 0,-1.51666 -1.31667,-2.38333 -3.2,-2.38333 -1.38334,0 -2.46667,0.5 -3.15001,0.91667 z m 0.38333,3.38334 c 0,-0.8 0.58333,-1.3 1.73334,-1.3 0.68333,0 1.21667,0.13333 1.73333,0.38333 v 0.13334 c 0,1.35 -0.88333,1.85 -2.05,1.85 -0.9,0 -1.41667,-0.35 -1.41667,-1.06667 z"
         style="font-weight:500;font-size:16.6667px;font-family:'Jost*';-inkscape-font-specification:'Jost*, Medium';fill:#000000"
         id="path612" />
      <path
         d="m 521.99152,332.5229 -2.81667,2.70001 v -8.03335 h -1.76667 v 13.00002 h 1.76667 v -3.88334 l 3.16667,3.88334 h 2.20001 l -3.65001,-4.50001 3.31667,-3.16667 z"
         style="font-weight:500;font-size:16.6667px;font-family:'Jost*';-inkscape-font-specification:'Jost*, Medium';fill:#000000"
         id="path614" />
      <path
         d="m 533.82489,336.35624 c 0,-2.53334 -1.73333,-4.00001 -3.73334,-4.00001 -1.11667,0 -2.05,0.51667 -2.61667,1.45001 v -6.61668 h -1.81667 v 13.00002 h 1.81667 v -1.28333 c 0.56667,0.93333 1.5,1.45 2.61667,1.45 2.00001,0 3.73334,-1.48334 3.73334,-4.00001 z m -1.86667,0 c 0,1.53334 -1.05,2.43334 -2.3,2.43334 -1.05,0 -2.18334,-0.88334 -2.18334,-2.43334 0,-1.56667 1.13334,-2.43334 2.18334,-2.43334 1.25,0 2.3,0.9 2.3,2.43334 z"
         style="font-weight:500;font-size:16.6667px;font-family:'Jost*';-inkscape-font-specification:'Jost*, Medium';fill:#000000"
         id="path616" />
      <path
         d="m 536.10824,334.5229 c 0.33334,-0.25 1.25001,-0.71666 2.33334,-0.71666 0.95,0 1.63334,0.33333 1.63334,1.26667 v 0.93333 c -0.48333,-0.26667 -1.21667,-0.53333 -2.21667,-0.53333 -1.90001,0 -3.00001,0.95 -3.00001,2.43333 0,1.56667 1.23334,2.45001 2.68334,2.45001 0.98334,0 2.05001,-0.4 2.53334,-1.21667 v 1.05 h 1.76667 v -5.46668 c 0,-1.51666 -1.35,-2.38333 -3.21667,-2.38333 -1.43334,0 -2.55001,0.5 -3.25001,0.91667 z m 0.56667,3.28334 c 0,-0.71666 0.48334,-1.15 1.61667,-1.15 0.65,0 1.23334,0.11667 1.78334,0.36667 v 0.11667 c 0,1.16667 -0.9,1.86667 -1.96667,1.86667 -0.83334,0 -1.43334,-0.43334 -1.43334,-1.20001 z"
         style="font-weight:500;font-size:16.6667px;font-family:'Jost*';-inkscape-font-specification:'Jost*, Medium';fill:#000000"
         id="path618" />
      <path
         d="m 548.87493,335.52291 v 4.66667 h 1.85001 v -4.88334 c 0,-1.83334 -0.93334,-2.95001 -2.66667,-2.95001 -1.05001,0 -1.81668,0.45 -2.30001,1.35001 v -1.18334 h -1.81667 v 7.66668 h 1.81667 v -4.66667 c 0,-1.05001 0.66667,-1.71667 1.7,-1.71667 0.96667,0 1.41667,0.6 1.41667,1.71667 z"
         style="font-weight:500;font-size:16.6667px;font-family:'Jost*';-inkscape-font-specification:'Jost*, Medium';fill:#000000"
         id="path620" />
      <path
         d="m 557.54162,332.5229 -2.81668,2.70001 v -8.03335 h -1.76667 v 13.00002 h 1.76667 v -3.88334 l 3.16668,3.88334 h 2.2 l -3.65001,-4.50001 3.31668,-3.16667 z"
         style="font-weight:500;font-size:16.6667px;font-family:'Jost*';-inkscape-font-specification:'Jost*, Medium';fill:#000000"
         id="path622" />
      <path
         d="m 564.35832,340.35625 c 1.76667,0 3.03334,-0.68334 3.85001,-2.08334 l -1.56667,-0.61667 c -0.48334,0.81667 -1.21667,1.21667 -2.20001,1.21667 -1.25,0 -2.03333,-0.75 -2.15,-2.1 h 5.96668 c 0,-0.0833 0.0167,-0.3 0.0167,-0.5 0,-2.45001 -1.41667,-3.91668 -3.83334,-3.91668 -2.43334,0 -4.00001,1.58334 -4.00001,4.00001 0,2.40001 1.55001,4.00001 3.91668,4.00001 z m 0.0667,-6.63335 c 1.08333,0 1.8,0.71667 1.88333,1.80001 h -3.96667 c 0.21667,-1.16667 0.93333,-1.78334 2.08334,-1.80001 z"
         style="font-weight:500;font-size:16.6667px;font-family:'Jost*';-inkscape-font-specification:'Jost*, Medium';fill:#000000"
         id="path624" />
      <path
         d="m 574.94167,335.52291 v 4.66667 h 1.85 v -4.88334 c 0,-1.83334 -0.93333,-2.95001 -2.66667,-2.95001 -1.05,0 -1.81667,0.45 -2.30001,1.35001 v -1.18334 h -1.81667 v 7.66668 h 1.81667 v -4.66667 c 0,-1.05001 0.66667,-1.71667 1.70001,-1.71667 0.96667,0 1.41667,0.6 1.41667,1.71667 z"
         style="font-weight:500;font-size:16.6667px;font-family:'Jost*';-inkscape-font-specification:'Jost*, Medium';fill:#000000"
         id="path626" />
      <path
         d="m 579.24167,328.52289 -0.96667,4.00001 h 1.26667 l 1.7,-4.00001 z"
         style="font-weight:500;font-size:16.6667px;font-family:'Jost*';-inkscape-font-specification:'Jost*, Medium';fill:#000000"
         id="path628" />
      <path
         d="m 582.24167,337.65624 -1.05,1.06667 c 0.66667,0.86667 1.83334,1.70001 3.43334,1.70001 1.66667,0 2.73334,-0.95001 2.73334,-2.40001 0,-1.38333 -1.06667,-1.9 -2.35001,-2.41667 -0.93333,-0.36667 -1.66667,-0.63333 -1.66667,-1.2 0,-0.43334 0.38334,-0.65 0.90001,-0.65 0.75,0 1.5,0.43333 2,1.01666 l 1,-1.06666 c -0.63333,-0.76667 -1.71667,-1.35001 -2.96667,-1.35001 -1.41667,0 -2.63334,0.7 -2.63334,2.08334 0,1.38334 1.13334,1.96667 2.18334,2.33334 1.01667,0.36667 1.71667,0.66667 1.71667,1.35 0,0.5 -0.38334,0.81667 -1.03334,0.81667 -0.78333,0 -1.51667,-0.45 -2.26667,-1.28334 z"
         style="font-weight:500;font-size:16.6667px;font-family:'Jost*';-inkscape-font-specification:'Jost*, Medium';fill:#000000"
         id="path630" />
      <path
         d="m 593.37501,336.35624 c 0,2.51667 1.73334,4.00001 3.73334,4.00001 1.11667,0 2.05,-0.51667 2.61667,-1.45 v 1.28333 h 1.81667 v -13.00002 h -1.81667 v 6.61668 c -0.56667,-0.93334 -1.5,-1.45001 -2.61667,-1.45001 -2,0 -3.73334,1.46667 -3.73334,4.00001 z m 1.86667,0 c 0,-1.53334 1.05,-2.43334 2.3,-2.43334 1.05001,0 2.18334,0.86667 2.18334,2.43334 0,1.55 -1.13333,2.43334 -2.18334,2.43334 -1.25,0 -2.3,-0.9 -2.3,-2.43334 z"
         style="font-weight:500;font-size:16.6667px;font-family:'Jost*';-inkscape-font-specification:'Jost*, Medium';fill:#000000"
         id="path632" />
      <path
         d="m 604.34172,334.5229 c 0.33333,-0.25 1.25,-0.71666 2.33333,-0.71666 0.95001,0 1.63334,0.33333 1.63334,1.26667 v 0.93333 c -0.48333,-0.26667 -1.21667,-0.53333 -2.21667,-0.53333 -1.9,0 -3.00001,0.95 -3.00001,2.43333 0,1.56667 1.23334,2.45001 2.68334,2.45001 0.98334,0 2.05001,-0.4 2.53334,-1.21667 v 1.05 h 1.76667 v -5.46668 c 0,-1.51666 -1.35,-2.38333 -3.21667,-2.38333 -1.43334,0 -2.55001,0.5 -3.25001,0.91667 z m 0.56666,3.28334 c 0,-0.71666 0.48334,-1.15 1.61667,-1.15 0.65,0 1.23334,0.11667 1.78334,0.36667 v 0.11667 c 0,1.16667 -0.9,1.86667 -1.96667,1.86667 -0.83334,0 -1.43334,-0.43334 -1.43334,-1.20001 z"
         style="font-weight:500;font-size:16.6667px;font-family:'Jost*';-inkscape-font-specification:'Jost*, Medium';fill:#000000"
         id="path634" />
      <path
         d="m 611.10839,332.5229 v 1.58334 h 1.3 v 6.08334 h 1.76667 v -6.08334 h 1.28334 v -1.58334 h -1.28334 v -2.66667 h -1.76667 v 2.66667 z"
         style="font-weight:500;font-size:16.6667px;font-family:'Jost*';-inkscape-font-specification:'Jost*, Medium';fill:#000000"
         id="path636" />
      <path
         d="m 617.2584,334.5229 c 0.33334,-0.25 1.25001,-0.71666 2.33334,-0.71666 0.95,0 1.63334,0.33333 1.63334,1.26667 v 0.93333 c -0.48334,-0.26667 -1.21667,-0.53333 -2.21667,-0.53333 -1.90001,0 -3.00001,0.95 -3.00001,2.43333 0,1.56667 1.23334,2.45001 2.68334,2.45001 0.98333,0 2.05,-0.4 2.53334,-1.21667 v 1.05 h 1.76667 v -5.46668 c 0,-1.51666 -1.35,-2.38333 -3.21668,-2.38333 -1.43333,0 -2.55,0.5 -3.25,0.91667 z m 0.56667,3.28334 c 0,-0.71666 0.48334,-1.15 1.61667,-1.15 0.65,0 1.23334,0.11667 1.78334,0.36667 v 0.11667 c 0,1.16667 -0.9,1.86667 -1.96667,1.86667 -0.83334,0 -1.43334,-0.43334 -1.43334,-1.20001 z"
         style="font-weight:500;font-size:16.6667px;font-family:'Jost*';-inkscape-font-specification:'Jost*, Medium';fill:#000000"
         id="path638" />
      <path
         d="m 631.84175,343.85626 v -4.95001 c 0.55,0.95 1.46667,1.48333 2.61667,1.48333 2,0 3.73334,-1.46667 3.73334,-4.03334 0,-2.56667 -1.73334,-4.05001 -3.73334,-4.05001 -1.15,0 -2.06667,0.55 -2.61667,1.50001 v -1.28334 h -1.81667 v 11.33336 z m 4.48334,-7.50002 c 0,1.53334 -1.05,2.40001 -2.3,2.40001 -1.05001,0 -2.18334,-0.85001 -2.18334,-2.40001 0,-1.56667 1.13333,-2.4 2.18334,-2.4 1.25,0 2.3,0.86666 2.3,2.4 z"
         style="font-weight:500;font-size:16.6667px;font-family:'Jost*';-inkscape-font-specification:'Jost*, Medium';fill:#000000"
         id="path640" />
      <path
         d="m 641.75844,337.18958 v -4.66668 h -1.85 v 4.86668 c 0,1.83333 0.95,2.96667 2.66667,2.96667 1.06667,0 1.81667,-0.46667 2.31667,-1.35 v 1.18333 h 1.80001 v -7.66668 h -1.80001 v 4.66668 c 0,1.03333 -0.68333,1.71667 -1.7,1.71667 -0.96667,0 -1.43334,-0.61667 -1.43334,-1.71667 z"
         style="font-weight:500;font-size:16.6667px;font-family:'Jost*';-inkscape-font-specification:'Jost*, Medium';fill:#000000"
         id="path642" />
      <path
         d="m 657.09182,336.35624 c 0,-2.53334 -1.73334,-4.00001 -3.73335,-4.00001 -1.11666,0 -2.05,0.51667 -2.61667,1.45001 v -6.61668 h -1.81667 v 13.00002 h 1.81667 v -1.28333 c 0.56667,0.93333 1.50001,1.45 2.61667,1.45 2.00001,0 3.73335,-1.48334 3.73335,-4.00001 z m -1.86667,0 c 0,1.53334 -1.05001,2.43334 -2.30001,2.43334 -1.05,0 -2.18334,-0.88334 -2.18334,-2.43334 0,-1.56667 1.13334,-2.43334 2.18334,-2.43334 1.25,0 2.30001,0.9 2.30001,2.43334 z"
         style="font-weight:500;font-size:16.6667px;font-family:'Jost*';-inkscape-font-specification:'Jost*, Medium';fill:#000000"
         id="path644" />
      <path
         d="m 658.8085,327.18956 v 13.00002 h 1.81667 v -13.00002 z"
         style="font-weight:500;font-size:16.6667px;font-family:'Jost*';-inkscape-font-specification:'Jost*, Medium';fill:#000000"
         id="path646" />
      <path
         d="m 662.84183,329.47289 c 0,0.61667 0.51667,1.10001 1.13334,1.10001 0.63333,0 1.15,-0.48334 1.15,-1.10001 0,-0.61666 -0.51667,-1.1 -1.15,-1.1 -0.61667,0 -1.13334,0.48334 -1.13334,1.1 z m 0.25001,3.05001 v 7.66668 h 1.78333 v -7.66668 z"
         style="font-weight:500;font-size:16.6667px;font-family:'Jost*';-inkscape-font-specification:'Jost*, Medium';fill:#000000"
         id="path648" />
      <path
         d="m 667.70851,337.65624 -1.05,1.06667 c 0.66667,0.86667 1.83334,1.70001 3.43334,1.70001 1.66667,0 2.73334,-0.95001 2.73334,-2.40001 0,-1.38333 -1.06667,-1.9 -2.35,-2.41667 -0.93334,-0.36667 -1.66667,-0.63333 -1.66667,-1.2 0,-0.43334 0.38333,-0.65 0.9,-0.65 0.75,0 1.5,0.43333 2,1.01666 l 1,-1.06666 c -0.63333,-0.76667 -1.71667,-1.35001 -2.96667,-1.35001 -1.41667,0 -2.63334,0.7 -2.63334,2.08334 0,1.38334 1.13334,1.96667 2.18334,2.33334 1.01667,0.36667 1.71667,0.66667 1.71667,1.35 0,0.5 -0.38333,0.81667 -1.03333,0.81667 -0.78334,0 -1.51667,-0.45 -2.26668,-1.28334 z"
         style="font-weight:500;font-size:16.6667px;font-family:'Jost*';-inkscape-font-specification:'Jost*, Medium';fill:#000000"
         id="path650" />
      <path
         d="m 679.35854,335.52291 v 4.66667 h 1.81667 v -4.91667 c 0,-1.95001 -0.93334,-2.96668 -2.63334,-2.96668 -1.05,0 -1.85,0.53334 -2.30001,1.36667 v -6.48334 h -1.81667 v 13.00002 h 1.81667 v -4.66667 c 0,-1.01667 0.66667,-1.71667 1.70001,-1.71667 0.96667,0 1.41667,0.6 1.41667,1.71667 z"
         style="font-weight:500;font-size:16.6667px;font-family:'Jost*';-inkscape-font-specification:'Jost*, Medium';fill:#000000"
         id="path652" />
      <path
         d="m 683.40853,329.47289 c 0,0.61667 0.51667,1.10001 1.13334,1.10001 0.63333,0 1.15,-0.48334 1.15,-1.10001 0,-0.61666 -0.51667,-1.1 -1.15,-1.1 -0.61667,0 -1.13334,0.48334 -1.13334,1.1 z m 0.25,3.05001 v 7.66668 h 1.78334 v -7.66668 z"
         style="font-weight:500;font-size:16.6667px;font-family:'Jost*';-inkscape-font-specification:'Jost*, Medium';fill:#000000"
         id="path654" />
      <path
         d="m 692.85855,335.52291 v 4.66667 h 1.85001 v -4.88334 c 0,-1.83334 -0.93334,-2.95001 -2.66668,-2.95001 -1.05,0 -1.81667,0.45 -2.3,1.35001 v -1.18334 h -1.81667 v 7.66668 h 1.81667 v -4.66667 c 0,-1.05001 0.66667,-1.71667 1.7,-1.71667 0.96667,0 1.41667,0.6 1.41667,1.71667 z"
         style="font-weight:500;font-size:16.6667px;font-family:'Jost*';-inkscape-font-specification:'Jost*, Medium';fill:#000000"
         id="path656" />
      <path
         d="m 696.57523,340.70625 c 0.0833,2 1.50001,3.38334 4.00001,3.38334 2.08334,0 3.96668,-1.3 3.96668,-4.06667 v -7.50002 h -1.76667 v 1.25 c -0.56667,-0.91667 -1.50001,-1.41667 -2.61668,-1.41667 -2,0 -3.73334,1.43334 -3.73334,3.95001 0,2.53334 1.73334,3.96668 3.73334,3.96668 1.11667,0 2.05001,-0.50001 2.61668,-1.41667 v 1.16667 c 0,1.71667 -1.11667,2.5 -2.23334,2.5 -1.3,0 -2.13334,-0.78333 -2.16667,-1.81667 z m 1.71667,-4.40001 c 0,-1.53334 1.05001,-2.38334 2.30001,-2.38334 1.05,0 2.18334,0.83334 2.18334,2.38334 0,1.56667 -1.13334,2.40001 -2.18334,2.40001 -1.25,0 -2.30001,-0.85001 -2.30001,-2.40001 z"
         style="font-weight:500;font-size:16.6667px;font-family:'Jost*';-inkscape-font-specification:'Jost*, Medium';fill:#000000"
         id="path658" />
      <path
         d="m 713.52527,343.85626 v -4.95001 c 0.55,0.95 1.46666,1.48333 2.61667,1.48333 2,0 3.73334,-1.46667 3.73334,-4.03334 0,-2.56667 -1.73334,-4.05001 -3.73334,-4.05001 -1.15001,0 -2.06667,0.55 -2.61667,1.50001 v -1.28334 h -1.81668 v 11.33336 z m 4.48334,-7.50002 c 0,1.53334 -1.05,2.40001 -2.30001,2.40001 -1.05,0 -2.18333,-0.85001 -2.18333,-2.40001 0,-1.56667 1.13333,-2.4 2.18333,-2.4 1.25001,0 2.30001,0.86666 2.30001,2.4 z"
         style="font-weight:500;font-size:16.6667px;font-family:'Jost*';-inkscape-font-specification:'Jost*, Medium';fill:#000000"
         id="path660" />
      <path
         d="m 721.59196,327.18956 v 13.00002 h 1.81667 v -13.00002 z"
         style="font-weight:500;font-size:16.6667px;font-family:'Jost*';-inkscape-font-specification:'Jost*, Medium';fill:#000000"
         id="path662" />
      <path
         d="m 726.25863,334.5229 c 0.33334,-0.25 1.25,-0.71666 2.33334,-0.71666 0.95,0 1.63334,0.33333 1.63334,1.26667 v 0.93333 c -0.48334,-0.26667 -1.21667,-0.53333 -2.21667,-0.53333 -1.90001,0 -3.00001,0.95 -3.00001,2.43333 0,1.56667 1.23334,2.45001 2.68334,2.45001 0.98333,0 2.05,-0.4 2.53334,-1.21667 v 1.05 h 1.76667 v -5.46668 c 0,-1.51666 -1.35001,-2.38333 -3.21668,-2.38333 -1.43333,0 -2.55,0.5 -3.25,0.91667 z m 0.56667,3.28334 c 0,-0.71666 0.48333,-1.15 1.61667,-1.15 0.65,0 1.23334,0.11667 1.78334,0.36667 v 0.11667 c 0,1.16667 -0.90001,1.86667 -1.96667,1.86667 -0.83334,0 -1.43334,-0.43334 -1.43334,-1.20001 z"
         style="font-weight:500;font-size:16.6667px;font-family:'Jost*';-inkscape-font-specification:'Jost*, Medium';fill:#000000"
         id="path664" />
      <path
         d="m 733.0253,332.5229 v 1.58334 h 1.30001 v 6.08334 h 1.76667 v -6.08334 h 1.28333 v -1.58334 h -1.28333 v -2.66667 h -1.76667 v 2.66667 z"
         style="font-weight:500;font-size:16.6667px;font-family:'Jost*';-inkscape-font-specification:'Jost*, Medium';fill:#000000"
         id="path666" />
      <path
         d="m 737.97532,332.5229 v 1.58334 h 0.83333 v 6.08334 h 1.78334 v -6.08334 h 1.78334 v -1.58334 h -1.78334 v -2.48334 c 0,-0.96667 0.3,-1.35 0.8,-1.35 0.26667,0 0.56667,0.0833 0.8,0.43333 l 0.83334,-1.4 c -0.28334,-0.33333 -0.83334,-0.75 -1.71667,-0.75 -1.61667,0 -2.50001,0.93333 -2.50001,2.71667 v 2.83334 z"
         style="font-weight:500;font-size:16.6667px;font-family:'Jost*';-inkscape-font-specification:'Jost*, Medium';fill:#000000"
         id="path668" />
      <path
         d="m 743.17534,336.35624 c 0,2.35001 1.78334,4.00001 4.13334,4.00001 2.35001,0 4.13334,-1.65 4.13334,-4.00001 0,-2.36667 -1.78333,-4.00001 -4.13334,-4.00001 -2.35,0 -4.13334,1.63334 -4.13334,4.00001 z m 1.85,0 c 0,-1.43333 0.98334,-2.41667 2.28334,-2.41667 1.28334,0 2.28334,0.98334 2.28334,2.41667 0,1.43334 -1,2.41667 -2.28334,2.41667 -1.3,0 -2.28334,-0.98333 -2.28334,-2.41667 z"
         style="font-weight:500;font-size:16.6667px;font-family:'Jost*';-inkscape-font-specification:'Jost*, Medium';fill:#000000"
         id="path670" />
      <path
         d="m 757.22534,334.43957 0.88334,-1.51667 c -0.35,-0.4 -0.86667,-0.58333 -1.41667,-0.58333 -0.65,0 -1.3,0.41666 -1.75,1.1 v -0.91667 h -1.78334 v 7.66668 h 1.78334 v -4.31667 c 0,-1.10001 0.36666,-1.83334 1.26667,-1.83334 0.43333,0 0.68333,0.13333 1.01666,0.4 z"
         style="font-weight:500;font-size:16.6667px;font-family:'Jost*';-inkscape-font-specification:'Jost*, Medium';fill:#000000"
         id="path672" />
      <path
         d="m 770.32537,335.30624 c 0,-1.86667 -0.8,-2.95001 -2.45,-2.95001 -1.03334,0 -1.85,0.46667 -2.40001,1.36667 -0.33333,-0.88333 -1.08333,-1.36667 -2.2,-1.36667 -1,0 -1.71667,0.43334 -2.16667,1.28334 v -1.11667 h -1.76667 v 7.66668 h 1.76667 v -4.66667 c 0,-1.10001 0.6,-1.71667 1.51667,-1.71667 0.88333,0 1.28333,0.55 1.28333,1.71667 v 4.66667 h 1.80001 v -4.66667 c 0,-1.10001 0.6,-1.71667 1.53333,-1.71667 0.86667,0 1.26667,0.55 1.26667,1.71667 v 4.66667 h 1.81667 z"
         style="font-weight:500;font-size:16.6667px;font-family:'Jost*';-inkscape-font-specification:'Jost*, Medium';fill:#000000"
         id="path674" />
    </g>
  </g>
</svg>
