<?xml version="1.0" encoding="UTF-8" standalone="no"?>
<!-- Created with Inkscape (http://www.inkscape.org/) -->

<svg
   width="210mm"
   height="297mm"
   viewBox="0 0 210 297"
   version="1.1"
   id="svg780"
   inkscape:version="1.2.2 (b0a8486541, 2022-12-01)"
   sodipodi:docname="karps_slogan.svg"
   xmlns:inkscape="http://www.inkscape.org/namespaces/inkscape"
   xmlns:sodipodi="http://sodipodi.sourceforge.net/DTD/sodipodi-0.dtd"
   xmlns="http://www.w3.org/2000/svg"
   xmlns:svg="http://www.w3.org/2000/svg">
  <sodipodi:namedview
     id="namedview782"
     pagecolor="#ffffff"
     bordercolor="#000000"
     borderopacity="0.25"
     inkscape:showpageshadow="2"
     inkscape:pageopacity="0.0"
     inkscape:pagecheckerboard="0"
     inkscape:deskcolor="#d1d1d1"
     inkscape:document-units="mm"
     showgrid="false"
     inkscape:zoom="0.96057914"
     inkscape:cx="339.37859"
     inkscape:cy="233.71317"
     inkscape:window-width="1536"
     inkscape:window-height="909"
     inkscape:window-x="0"
     inkscape:window-y="0"
     inkscape:window-maximized="1"
     inkscape:current-layer="layer1" />
  <defs
     id="defs777">
    <rect
       x="165.33238"
       y="165.66167"
       width="170.87849"
       height="72.536377"
       id="rect827-2" />
    <rect
       x="482.19177"
       y="295.30188"
       width="300.78351"
       height="66.402"
       id="rect10965" />
    <rect
       x="165.33238"
       y="165.66167"
       width="170.87849"
       height="72.536377"
       id="rect827-2-1" />
    <rect
       x="482.19177"
       y="295.30188"
       width="300.78351"
       height="66.402"
       id="rect10965-0" />
  </defs>
  <g
     inkscape:label="Layer 1"
     inkscape:groupmode="layer"
     id="layer1">
    <path
       style="fill:#f0581a;fill-opacity:1;stroke-width:0.0112058"
       d="m 39.981271,41.315654 c -0.82126,-0.20932 -1.19526,-1.11658 -1.38128,-1.8569 -0.18356,-0.70428 1.55611,-0.98506 0.3922,-0.83931 -1.06742,0.18072 -2.35735,-0.52305 -3.03519,0.59416 -0.58987,0.65776 -1.78292,1.10137 -2.04863,-0.0618 -0.41899,-0.61833 -0.60952,-1.42631 0.42122,-1.4425 0.26375,-0.32839 -0.99326,-0.37008 -1.31697,-0.42633 -1.03625,-0.11474 -1.76877,0.72687 -2.64291,1.11995 -0.63327,0.33256 -1.28645,0.63918 -1.96871,0.85445 -0.71499,-0.43081 0.24565,-1.45031 0.49907,-2.01889 0.60987,-0.61923 0.91775,-1.56386 0.34838,-2.31459 -0.37057,-0.81454 -1.00198,-1.55081 -1.0515,-2.47857 0.93707,0.0222 1.53746,0.89264 2.31669,1.30242 0.70314,0.45504 1.4045,1.12283 2.30538,0.83928 0.55262,-0.0709 1.91576,-0.16069 0.93879,-0.77852 -0.78229,-0.88015 0.95863,-1.18416 1.4708,-1.59501 1.09667,-0.5026 2.2237,-0.92087 3.39365,-1.20147 0.84357,0.0244 1.91772,-1.1427 2.45972,-0.0652 0.33368,0.70139 0.59324,1.76491 1.59356,1.58577 1.51641,0.1152 2.89998,0.80655 4.15209,1.62818 1.04307,0.57006 2.01474,1.33032 2.75785,2.25371 0.0972,0.72466 -0.79767,1.26906 -1.42571,1.24687 -0.96354,0.37166 -1.96387,0.62701 -2.9916,0.75049 -1.40278,0.20677 -2.82099,0.29389 -4.23811,0.31017 -0.13322,0.81421 0.34886,1.82978 -0.31128,2.4901 -0.18948,0.11391 -0.42263,0.135 -0.63751,0.10349 z"
       id="path674-1"
       inkscape:export-filename="../logotyper/karp_slogan.svg"
       inkscape:export-xdpi="275.48999"
       inkscape:export-ydpi="275.48999" />
    <text
       xml:space="preserve"
       transform="matrix(0.26458333,0,0,0.26458333,-43.744099,-16.703826)"
       id="text825-0"
       style="font-style:normal;font-variant:normal;font-weight:300;font-stretch:normal;font-size:49.3333px;font-family:'Open Sans';-inkscape-font-specification:'Open Sans, Light';font-variant-ligatures:normal;font-variant-caps:normal;font-variant-numeric:normal;font-variant-east-asian:normal;white-space:pre;shape-inside:url(#rect827-2);display:inline;fill:#000000"><tspan
         x="165.33203"
         y="211.82125"
         id="tspan431"><tspan
           style="font-size:53.3333px;font-family:'Jost*';-inkscape-font-specification:'Jost*, Light'"
           id="tspan429">Karp</tspan></tspan></text>
    <text
       xml:space="preserve"
       transform="matrix(0.26458333,0,0,0.26458333,-126.56188,-44.891886)"
       id="text10963"
       style="font-style:normal;font-variant:normal;font-weight:300;font-stretch:normal;font-size:49.3333px;font-family:'Open Sans';-inkscape-font-specification:'Open Sans, Light';font-variant-ligatures:normal;font-variant-caps:normal;font-variant-numeric:normal;font-variant-east-asian:normal;white-space:pre;shape-inside:url(#rect10965);display:inline;fill:#f0581a;fill-opacity:1"><tspan
         x="482.19141"
         y="340.18958"
         id="tspan435"><tspan
           style="font-weight:500;font-size:16.6667px;font-family:'Jost*';-inkscape-font-specification:'Jost*, Medium';fill:#1a1a1a"
           id="tspan433">Språkbankens datapubliceringsplattform</tspan></tspan></text>
    <path
       style="fill:#f0581a;fill-opacity:1;stroke-width:0.0112058"
       d="m 143.30884,41.212884 c -0.82127,-0.20932 -1.19527,-1.11657 -1.38129,-1.85689 -0.18356,-0.70428 1.55612,-0.98507 0.39221,-0.83932 -1.06742,0.18072 -2.35735,-0.52305 -3.0352,0.59416 -0.58986,0.65776 -1.78292,1.10137 -2.04862,-0.0618 -0.41899,-0.61833 -0.60953,-1.42631 0.42122,-1.4425 0.26375,-0.32838 -0.99327,-0.37008 -1.31698,-0.42633 -1.03625,-0.11474 -1.76876,0.72687 -2.64291,1.11995 -0.63327,0.33256 -1.28644,0.63918 -1.9687,0.85445 -0.715,-0.43081 0.24564,-1.45031 0.49907,-2.01889 0.60987,-0.61923 0.91774,-1.56386 0.34837,-2.31458 -0.37056,-0.81454 -1.00198,-1.55082 -1.0515,-2.47858 0.93707,0.0222 1.53746,0.89264 2.31669,1.30243 0.70314,0.45504 1.4045,1.12282 2.30538,0.83928 0.55262,-0.0709 1.91576,-0.16069 0.93879,-0.77853 -0.78229,-0.88015 0.95864,-1.18416 1.47081,-1.595 1.09667,-0.50261 2.22369,-0.92088 3.39364,-1.20147 0.84358,0.0244 1.91773,-1.14271 2.45972,-0.0652 0.33368,0.70139 0.59325,1.7649 1.59356,1.58576 1.51642,0.1152 2.89999,0.80655 4.1521,1.62818 1.04307,0.57006 2.01474,1.33032 2.75784,2.25371 0.0972,0.72466 -0.79766,1.26906 -1.4257,1.24688 -0.96354,0.37165 -1.96387,0.627 -2.9916,0.75048 -1.40278,0.20677 -2.82099,0.29389 -4.23811,0.31017 -0.13323,0.81421 0.34885,1.82978 -0.31129,2.4901 -0.18947,0.11391 -0.42262,0.135 -0.6375,0.10349 z"
       id="path674-1-6"
       inkscape:export-filename="../logotyper/karp_slogan_en.svg"
       inkscape:export-xdpi="275.48999"
       inkscape:export-ydpi="275.48999" />
    <text
       xml:space="preserve"
       transform="matrix(0.26458333,0,0,0.26458333,59.583461,-16.806596)"
       id="text825-0-5"
       style="font-style:normal;font-variant:normal;font-weight:300;font-stretch:normal;font-size:49.3333px;font-family:'Open Sans';-inkscape-font-specification:'Open Sans, Light';font-variant-ligatures:normal;font-variant-caps:normal;font-variant-numeric:normal;font-variant-east-asian:normal;white-space:pre;shape-inside:url(#rect827-2-1);display:inline;fill:#000000"><tspan
         x="165.33203"
         y="211.82125"
         id="tspan439"><tspan
           style="font-size:53.3333px;font-family:'Jost*';-inkscape-font-specification:'Jost*, Light'"
           id="tspan437">Karp</tspan></tspan></text>
    <text
       xml:space="preserve"
       transform="matrix(0.26458333,0,0,0.26458333,-23.234319,-44.994656)"
       id="text10963-74"
       style="font-style:normal;font-variant:normal;font-weight:300;font-stretch:normal;font-size:49.3333px;font-family:'Open Sans';-inkscape-font-specification:'Open Sans, Light';font-variant-ligatures:normal;font-variant-caps:normal;font-variant-numeric:normal;font-variant-east-asian:normal;white-space:pre;shape-inside:url(#rect10965-0);display:inline;fill:#f0581a;fill-opacity:1"><tspan
         x="482.19141"
         y="340.18958"
         id="tspan443"><tspan
           style="font-weight:500;font-size:16.6667px;font-family:'Jost*';-inkscape-font-specification:'Jost*, Medium';fill:#000000"
           id="tspan441">Språkbanken’s data publishing platform</tspan></tspan></text>
  </g>
</svg>
