<?xml version="1.0" encoding="UTF-8" standalone="no"?>
<!-- Created with Inkscape (http://www.inkscape.org/) -->

<svg
   width="48.435661mm"
   height="12.982212mm"
   viewBox="0 0 48.435661 12.982212"
   version="1.1"
   id="svg5"
   inkscape:version="1.2.2 (b0a8486541, 2022-12-01)"
   sodipodi:docname="karp.svg"
   xml:space="preserve"
   inkscape:export-filename="tmp.png"
   inkscape:export-xdpi="171.03999"
   inkscape:export-ydpi="171.03999"
   xmlns:inkscape="http://www.inkscape.org/namespaces/inkscape"
   xmlns:sodipodi="http://sodipodi.sourceforge.net/DTD/sodipodi-0.dtd"
   xmlns="http://www.w3.org/2000/svg"
   xmlns:svg="http://www.w3.org/2000/svg"><sodipodi:namedview
     id="namedview7"
     pagecolor="#ffffff"
     bordercolor="#000000"
     borderopacity="0.25"
     inkscape:showpageshadow="2"
     inkscape:pageopacity="0.0"
     inkscape:pagecheckerboard="0"
     inkscape:deskcolor="#d1d1d1"
     inkscape:document-units="mm"
     showgrid="false"
     inkscape:zoom="1.8816409"
     inkscape:cx="197.43406"
     inkscape:cy="175.11312"
     inkscape:window-width="1920"
     inkscape:window-height="1149"
     inkscape:window-x="0"
     inkscape:window-y="27"
     inkscape:window-maximized="1"
     inkscape:current-layer="layer1"
     showguides="true"><inkscape:grid
       type="xygrid"
       id="grid13315" /><sodipodi:guide
       position="-0.13918715,62.151294"
       orientation="1,0"
       id="guide13317"
       inkscape:locked="false" /><sodipodi:guide
       position="-13.368353,58.182544"
       orientation="0,-1"
       id="guide13319"
       inkscape:locked="false" /><sodipodi:guide
       position="103.04831,-35.744545"
       orientation="1,0"
       id="guide4551"
       inkscape:locked="false" /></sodipodi:namedview><defs
     id="defs2"><rect
       x="165.33238"
       y="165.66167"
       width="170.87849"
       height="72.536377"
       id="rect827-2" /></defs><g
     inkscape:label="Layer 1"
     inkscape:groupmode="layer"
     id="layer1"
     transform="translate(-10.72252,-55.783663)"><path
       style="fill:#f0581a;fill-opacity:1;stroke-width:0.0112058"
       d="m 49.546682,67.636545 c -0.821267,-0.20932 -1.195267,-1.116574 -1.381286,-1.856893 -0.183558,-0.704281 1.556116,-0.985069 0.392207,-0.839313 -1.067423,0.18072 -2.357351,-0.52305 -3.035198,0.59416 -0.589863,0.65776 -1.782918,1.101366 -2.048624,-0.06177 C 43.054792,64.8544 42.86426,64.046417 43.895,64.030224 c 0.263754,-0.328383 -0.99326,-0.370079 -1.31697,-0.426329 -1.036254,-0.11474 -1.768767,0.726874 -2.64291,1.119949 -0.633269,0.332563 -1.286446,0.639185 -1.968706,0.854449 -0.714995,-0.430805 0.245645,-1.45031 0.499069,-2.018887 0.60987,-0.619232 0.917745,-1.563862 0.348372,-2.314585 -0.370563,-0.81454 -1.001978,-1.550817 -1.051498,-2.478572 0.937072,0.02223 1.537462,0.89264 2.316693,1.302422 0.703135,0.455041 1.404497,1.122823 2.305378,0.839281 0.552617,-0.07092 1.915758,-0.16069 0.93879,-0.778527 -0.782292,-0.880152 0.958636,-1.184157 1.470801,-1.595004 1.096675,-0.502602 2.223696,-0.920872 3.393648,-1.201469 0.843574,0.02444 1.917727,-1.142704 2.459718,-0.06518 0.333683,0.70139 0.593248,1.764904 1.593561,1.585761 1.516417,0.115205 2.899986,0.806552 4.152094,1.628183 1.043074,0.570061 2.014743,1.330318 2.757846,2.253712 0.09719,0.724658 -0.797662,1.269056 -1.425703,1.246874 -0.963541,0.371655 -1.963873,0.627003 -2.991604,0.750488 -1.402779,0.206769 -2.820989,0.293885 -4.238108,0.310167 -0.133224,0.814213 0.348855,1.82978 -0.311286,2.4901 -0.189475,0.113907 -0.422624,0.134997 -0.637503,0.103488 z"
       id="path674-1"
       inkscape:export-filename="logotyper/karp_slogan.svg"
       inkscape:export-xdpi="275.48999"
       inkscape:export-ydpi="275.48999" /><g
       aria-label="Karp"
       transform="matrix(0.26458333,0,0,0.26458333,-34.178689,9.6170629)"
       id="text825-0"
       style="font-weight:300;font-size:49.3333px;font-family:'Open Sans';-inkscape-font-specification:'Open Sans, Light';white-space:pre;shape-inside:url(#rect827-2);display:inline"><path
         d="m 169.70536,174.48794 v 37.33331 h 2.93333 v -18.77332 l 16.26666,18.77332 h 3.73333 l -17.22665,-19.83999 16.42665,-17.49332 h -3.73333 l -15.46666,16.63999 v -16.63999 z"
         style="font-size:53.3333px;font-family:'Jost*';-inkscape-font-specification:'Jost*, Light'"
         id="path3963" /><path
         d="m 197.86534,191.76793 c 1.33333,-1.01333 3.78667,-2.56 7.46666,-2.56 4.74667,0 6.29333,2.77333 6.29333,5.6 v 4.10666 c -1.44,-0.96 -3.94666,-2.08 -7.46666,-2.08 -5.70666,0 -9.22666,2.98667 -9.22666,7.73333 0,5.17333 4.05333,7.78666 8.26666,7.78666 3.36,0 6.98666,-1.65333 8.42666,-5.11999 v 4.58666 h 2.77333 V 194.4346 c 0,-4.90667 -3.30666,-7.68 -8.85332,-7.68 -4.32,0 -7.25333,1.65333 -9.06666,2.93333 z m -0.10667,12.69333 c 0,-3.68 2.66667,-5.38667 6.82667,-5.38667 2.56,0 4.90666,0.58667 7.03999,1.81333 v 0.69334 c 0,5.49333 -3.57333,8.37333 -7.67999,8.37333 -3.41333,0 -6.18667,-1.76 -6.18667,-5.49333 z"
         style="font-size:53.3333px;font-family:'Jost*';-inkscape-font-specification:'Jost*, Light'"
         id="path3965" /><path
         d="m 224.79862,187.28793 h -2.77333 v 24.53332 h 2.77333 v -14.93332 c 0,-4.16 1.33333,-7.52 4.96,-7.52 1.28,0 2.13333,0.37333 3.2,1.17333 l 1.54666,-2.29333 c -1.12,-1.06666 -2.56,-1.49333 -4.10666,-1.49333 -2.34667,0 -4.37333,1.6 -5.6,4.10666 z"
         style="font-size:53.3333px;font-family:'Jost*';-inkscape-font-specification:'Jost*, Light'"
         id="path3967" /><path
         d="m 241.7053,223.55458 v -17.49333 c 1.65333,3.84 4.90667,6.29333 9.12,6.29333 6.55999,0 11.83999,-4.90666 11.83999,-12.79999 0,-7.89333 -5.28,-12.79999 -11.83999,-12.79999 -4.21333,0 -7.46667,2.45333 -9.12,6.29333 v -5.76 h -2.77333 v 36.26665 z m 18.18666,-23.99999 c 0,6.4 -4.21333,10.18666 -9.44,10.18666 -4.53333,0 -8.74666,-4.31999 -8.74666,-10.18666 0,-5.86666 4.21333,-10.18666 8.74666,-10.18666 5.22667,0 9.44,3.78667 9.44,10.18666 z"
         style="font-size:53.3333px;font-family:'Jost*';-inkscape-font-specification:'Jost*, Light'"
         id="path3969" /></g></g></svg>
