<?xml version="1.0" encoding="UTF-8" standalone="no"?>
<!-- Created with Inkscape (http://www.inkscape.org/) -->

<svg
   width="71.199745mm"
   height="20.710684mm"
   viewBox="0 0 71.199745 20.710684"
   version="1.1"
   id="svg1260"
   inkscape:version="1.2.2 (b0a8486541, 2022-12-01)"
   sodipodi:docname="korp_slogan_et.svg"
   xmlns:inkscape="http://www.inkscape.org/namespaces/inkscape"
   xmlns:sodipodi="http://sodipodi.sourceforge.net/DTD/sodipodi-0.dtd"
   xmlns="http://www.w3.org/2000/svg"
   xmlns:svg="http://www.w3.org/2000/svg">
  <sodipodi:namedview
     id="namedview1262"
     pagecolor="#ffffff"
     bordercolor="#000000"
     borderopacity="0.25"
     inkscape:showpageshadow="2"
     inkscape:pageopacity="0.0"
     inkscape:pagecheckerboard="0"
     inkscape:deskcolor="#d1d1d1"
     inkscape:document-units="mm"
     showgrid="false"
     inkscape:zoom="1.5124476"
     inkscape:cx="158.3526"
     inkscape:cy="116.69826"
     inkscape:window-width="1536"
     inkscape:window-height="909"
     inkscape:window-x="0"
     inkscape:window-y="27"
     inkscape:window-maximized="1"
     inkscape:current-layer="layer1" />
  <defs
     id="defs1257">
    <rect
       x="165.33238"
       y="165.66167"
       width="170.87849"
       height="72.536377"
       id="rect827-6-9-2-6" />
    <rect
       x="482.19177"
       y="295.30188"
       width="310.23126"
       height="88.70002"
       id="rect10965-7-1" />
  </defs>
  <g
     inkscape:label="Layer 1"
     inkscape:groupmode="layer"
     id="layer1"
     transform="translate(-9.5520138,-6.65495)">
    <text
       xml:space="preserve"
       transform="matrix(0.26458333,0,0,0.26458333,-35.349196,-36.884206)"
       id="text825-4-5-1-9"
       style="font-style:normal;font-variant:normal;font-weight:300;font-stretch:normal;font-size:53.3333px;font-family:'Jost*';-inkscape-font-specification:'Jost*, Light';font-variant-ligatures:normal;font-variant-caps:normal;font-variant-numeric:normal;font-variant-east-asian:normal;white-space:pre;shape-inside:url(#rect827-6-9-2-6);display:inline;fill:#000000"
       inkscape:export-filename="logotyper/korp_slogan_en.svg"
       inkscape:export-xdpi="275.48999"
       inkscape:export-ydpi="275.48999"><tspan
         x="165.33203"
         y="211.82125"
         id="tspan1464">Korp</tspan></text>
    <g
       id="Layer_2_1_-9-5"
       transform="matrix(0.08562054,0,0,0.08562054,-18.464382,0.557774)"
       style="fill:#f0581a;fill-opacity:1">
      <g
         id="g4569-0-2"
         style="fill:#f0581a;fill-opacity:1">
        <path
           class="st1"
           d="m 863.2,124.7 c -11.63163,12.50213 -15.14012,33.06885 -32.85722,39.25964 -13.94121,7.76838 -31.59326,13.71501 -38.05592,29.73247 -5.90736,11.91066 9.62959,26.14001 19.07988,14.80583 5.29358,-0.57134 -6.90359,6.98507 2.46284,6.82737 3.94566,0.0218 11.63084,-0.92193 11.23573,2.06494 5.28475,0.0788 9.74718,-2.80355 4.53033,2.31283 -4.60559,11.7193 -19.64629,5.07309 -28.87058,9.16292 -5.16589,2.93233 -22.57946,-1.46187 -9.43635,-4.42925 4.30171,1.25907 11.36203,-3.0939 3.26694,-1.52193 -6.40739,-0.83211 -17.71316,-0.30367 -20.24465,-0.69986 1.55961,-8.41368 23.82054,0.25757 13.0713,-11.90646 -6.98894,-6.12584 -17.40109,-5.06201 -24.27499,-11.43167 1.76438,-6.69423 -14.86548,-2.95498 -9.73027,-11.88388 -4.45542,0.36242 -9.95864,0.80993 -8.79289,-1.39656 -7.2263,4.56527 -16.46815,5.35003 -24.85189,9.54603 -11.9971,4.77259 -24.19553,9.49364 -34.57897,17.28763 -10.11584,6.21653 -21.97912,10.78611 -29.09763,-0.75113 -15.35795,-0.79695 4.14176,-11.31221 9.93912,-13.38971 4.02379,-1.79693 16.0159,-7.89534 13.3976,-7.57939 -4.46312,3.5126 -14.18685,3.99916 -5.83851,-2.45978 4.7969,-5.3353 15.81727,-6.18944 17.24724,-13.51714 -9.64538,0.21054 -24.87092,8.55083 -30.75873,4.36844 4.96238,-12.354 22.04189,-10.90068 31.21974,-19.31754 10.91354,-3.53332 15.84553,-14.08164 24.38601,-20.49412 10.42199,-6.84926 25.29391,-6.99556 32.48255,-18.32493 6.52568,-11.40029 19.14872,-11.71711 30.40049,-13.3284 14.21229,-3.85206 28.58408,-8.149974 43.46642,-7.4532 13.80095,-2.321118 19.93861,-19.8914 34.8681,-19.207137 12.20459,-1.263691 22.80014,-10.903908 35.23614,-9.652631 11.64582,4.774077 -8.74906,6.412065 -11.7773,10.570625 -7.0328,2.096818 -12.43085,13.884879 -0.82797,11.357287 5.77869,-0.26786 19.66445,0.84101 19.00768,5.590825 -12.39166,1.531011 -27.5761,4.613861 -30.19908,19.227191 -1.19963,2.53019 -2.75908,5.00951 -5.10516,6.63069 z m -46.4,94.7 c -3.54656,4.69795 -10.23212,-1.49095 -1.97669,-0.27465 z m 6.5,0.2 c -3.63221,-1.67575 -2.9076,3.9425 0,0 z"
           id="path4567-9-5"
           style="clip-rule:evenodd;fill:#f0581a;fill-opacity:1;fill-rule:evenodd" />
      </g>
    </g>
    <text
       xml:space="preserve"
       transform="matrix(0.26458333,0,0,0.26458333,-118.1202,-63.674736)"
       id="text10963-7-3"
       style="font-style:normal;font-variant:normal;font-weight:300;font-stretch:normal;font-size:49.3333px;font-family:'Open Sans';-inkscape-font-specification:'Open Sans, Light';font-variant-ligatures:normal;font-variant-caps:normal;font-variant-numeric:normal;font-variant-east-asian:normal;white-space:pre;shape-inside:url(#rect10965-7-1);display:inline;fill:#f0581a;fill-opacity:1"><tspan
         x="482.19141"
         y="340.18958"
         id="tspan1468"><tspan
           style="font-weight:500;font-size:16.6667px;font-family:'Jost*';-inkscape-font-specification:'Jost*, Medium';fill:#000000"
           id="tspan1466">Språkbankeni korpuspäringusüsteem</tspan></tspan></text>
  </g>
</svg>
