<?xml version="1.0" encoding="UTF-8" standalone="no"?>
<!-- Created with Inkscape (http://www.inkscape.org/) -->

<svg
   width="45.557369mm"
   height="17.038223mm"
   viewBox="0 0 45.557369 17.038223"
   version="1.1"
   id="svg5"
   inkscape:version="1.2.2 (b0a8486541, 2022-12-01)"
   sodipodi:docname="larka.svg"
   xml:space="preserve"
   inkscape:export-filename="tmp.png"
   inkscape:export-xdpi="171.03999"
   inkscape:export-ydpi="171.03999"
   xmlns:inkscape="http://www.inkscape.org/namespaces/inkscape"
   xmlns:sodipodi="http://sodipodi.sourceforge.net/DTD/sodipodi-0.dtd"
   xmlns="http://www.w3.org/2000/svg"
   xmlns:svg="http://www.w3.org/2000/svg"><sodipodi:namedview
     id="namedview7"
     pagecolor="#ffffff"
     bordercolor="#000000"
     borderopacity="0.25"
     inkscape:showpageshadow="2"
     inkscape:pageopacity="0.0"
     inkscape:pagecheckerboard="0"
     inkscape:deskcolor="#d1d1d1"
     inkscape:document-units="mm"
     showgrid="false"
     inkscape:zoom="1.8816409"
     inkscape:cx="301.06701"
     inkscape:cy="164.48409"
     inkscape:window-width="1920"
     inkscape:window-height="1029"
     inkscape:window-x="0"
     inkscape:window-y="27"
     inkscape:window-maximized="1"
     inkscape:current-layer="layer1"
     showguides="true"><inkscape:grid
       type="xygrid"
       id="grid13315" /><sodipodi:guide
       position="-0.12304812,147.50924"
       orientation="1,0"
       id="guide13317"
       inkscape:locked="false" /><sodipodi:guide
       position="-13.352215,143.54049"
       orientation="0,-1"
       id="guide13319"
       inkscape:locked="false" /><sodipodi:guide
       position="103.06445,49.613401"
       orientation="1,0"
       id="guide4551"
       inkscape:locked="false" /></sodipodi:namedview><defs
     id="defs2"><rect
       x="165.33238"
       y="165.66167"
       width="170.87849"
       height="72.536377"
       id="rect827-6-9-4-2" /></defs><g
     inkscape:label="Layer 1"
     inkscape:groupmode="layer"
     id="layer1"
     transform="translate(-10.706381,-137.0856)"><g
       aria-label="Lärka"
       transform="matrix(0.26458333,0,0,0.26458333,-34.223051,97.435846)"
       id="text825-4-5-8-5"
       style="font-weight:300;font-size:53.3333px;font-family:'Jost*';-inkscape-font-specification:'Jost*, Light';white-space:pre;shape-inside:url(#rect827-6-9-4-2);display:inline"><path
         d="m 169.81203,174.48794 v 37.33331 h 18.34665 v -2.77333 h -15.41332 v -34.55998 z"
         id="path4133" /><path
         d="m 204.53198,181.1546 c 0,1.06667 0.90666,1.97334 1.97333,1.97334 1.06667,0 1.97333,-0.90667 1.97333,-1.97334 0,-1.12 -0.90666,-2.02666 -1.97333,-2.02666 -1.06667,0 -1.97333,0.90666 -1.97333,2.02666 z m -9.81333,0 c 0,1.06667 0.90667,1.97334 1.97333,1.97334 1.06667,0 1.97334,-0.90667 1.97334,-1.97334 0,-1.12 -0.90667,-2.02666 -1.97334,-2.02666 -1.06666,0 -1.97333,0.90666 -1.97333,2.02666 z m -0.48,10.98666 c 1.49333,-1.28 4.05333,-2.93333 7.57333,-2.93333 3.36,0 5.70666,1.92 5.70666,5.22667 v 4.21333 c -1.28,-0.90667 -3.46666,-1.97334 -6.66666,-1.97334 -5.49333,0 -10.13333,2.77334 -10.13333,8.26667 0,4.90666 3.68,7.41332 8.32,7.41332 4,0 7.19999,-1.97333 8.47999,-5.01333 v 4.48 h 2.77334 V 194.4346 c 0,-4.74667 -3.2,-7.68 -8.48,-7.68 -4.21333,0 -7.14666,1.81333 -8.95999,3.25333 z m -0.69333,12.48 c 0,-3.73334 3.09333,-5.76 7.41333,-5.76 2.72,0 4.79999,0.64 6.55999,1.70666 v 2.08 c 0,4.58667 -3.35999,7.2 -7.83999,7.2 -3.52,0 -6.13333,-1.54667 -6.13333,-5.22666 z"
         id="path4135" /><path
         d="m 220.69198,187.28793 h -2.77333 v 24.53332 h 2.77333 v -14.93332 c 0,-4.16 1.33333,-7.52 4.95999,-7.52 1.28,0 2.13334,0.37333 3.2,1.17333 l 1.54667,-2.29333 c -1.12,-1.06666 -2.56,-1.49333 -4.10667,-1.49333 -2.34666,0 -4.37333,1.6 -5.59999,4.10666 z"
         id="path4137" /><path
         d="m 248.10532,187.28793 -10.50666,9.22666 v -26.29331 h -2.77333 v 41.59997 h 2.77333 v -13.22666 l 11.57332,13.22666 h 3.52 l -12.58666,-14.39999 11.57333,-10.13333 z"
         id="path4139" /><path
         d="m 257.65198,191.76793 c 1.33334,-1.01333 3.78667,-2.56 7.46667,-2.56 4.74666,0 6.29332,2.77333 6.29332,5.6 v 4.10666 c -1.43999,-0.96 -3.94666,-2.08 -7.46666,-2.08 -5.70666,0 -9.22666,2.98667 -9.22666,7.73333 0,5.17333 4.05333,7.78666 8.26666,7.78666 3.36,0 6.98667,-1.65333 8.42666,-5.11999 v 4.58666 h 2.77334 V 194.4346 c 0,-4.90667 -3.30667,-7.68 -8.85333,-7.68 -4.32,0 -7.25333,1.65333 -9.06666,2.93333 z m -0.10666,12.69333 c 0,-3.68 2.66666,-5.38667 6.82666,-5.38667 2.56,0 4.90666,0.58667 7.03999,1.81333 v 0.69334 c 0,5.49333 -3.57333,8.37333 -7.67999,8.37333 -3.41333,0 -6.18666,-1.76 -6.18666,-5.49333 z"
         id="path4141" /></g><path
       style="fill:#f0581a;fill-opacity:1;stroke-width:0.236963"
       d="m 41.536718,149.38878 c 0.800493,-0.56352 1.491243,-1.2284 2.276838,-1.81356 0.453979,-0.72626 1.088269,-1.27297 1.470403,-2.07088 0.545747,-0.84168 1.479883,-1.40006 2.141326,-2.17169 0.533335,-0.61988 1.321479,-0.91983 2.011386,-1.3113 1.114005,-0.11913 1.084812,-1.41017 1.633267,-2.14165 0.493981,-0.87734 1.590536,-1.31254 2.014345,-1.73956 0.423809,-0.42702 0.3337,-0.65186 0.382536,-1.05455 0.494675,0.26992 0.732366,1.38943 1.10768,2.10068 0.05425,0.4845 0.627071,0.61887 0.593176,1.14241 -0.160329,0.78571 1.001182,0.66883 0.950098,1.49423 0.570317,0.1299 -0.702539,-0.11732 -0.875811,-0.24224 -0.5408,-0.10305 -1.13655,0.55864 -1.435175,0.68894 0.04133,0.86642 0.349073,1.73373 0.21935,2.59569 -0.527545,1.74891 -1.694512,3.2906 -3.244527,4.25853 -0.474786,0.79857 -0.791408,0.7151 -1.077242,1.39411 0.06799,0.43267 -0.07241,0.70133 0.225104,1.10085 0.29752,0.39951 1.036544,1.05269 1.552352,1.54595 0.297844,0.16003 1.019607,-0.54885 1.28838,-0.26474 -0.310535,0.2734 -0.564409,0.19019 -0.584982,0.44435 0.554687,-0.15419 0.723113,0.0836 0.926195,0.21229 -0.407147,0.0621 -0.749069,-0.0565 -0.869817,0.0428 0.118875,0.17889 0.540537,0.20823 0.652261,0.45606 -0.334258,-0.14038 -0.963022,-0.14784 -1.20712,-0.23228 -0.488195,-0.16888 -0.600175,0.26217 -1.261909,0.30059 0.06378,-0.10902 0.316979,-0.36443 0.592858,-0.51479 -0.04574,-0.39095 -1.059391,-0.90657 -1.411618,-1.67437 -0.570204,-0.69994 -0.377578,-1.40305 -1.356688,-1.13095 -0.97911,0.2721 -1.911887,-0.26945 -1.653071,0.57863 0.258817,0.84808 0.38898,1.18725 0.734429,1.41689 0.374236,-0.13577 1.092011,-0.11134 1.497754,0.0198 -0.275025,0.0709 -0.57241,0.18528 -0.673109,0.3902 0.140629,0.12756 0.657762,0.31856 0.645127,0.57508 -0.693399,-0.33824 -2.056103,-0.40121 -2.618922,0.14114 -0.117007,-0.44218 0.593624,-0.7636 0.539202,-1.34834 -0.05442,-0.58474 -0.69685,-1.15933 -0.518145,-1.62993 -0.382595,0.21576 -2.122585,-0.41059 -2.591515,-0.15831 -0.800448,-0.7284 -1.707349,0.53672 -2.396401,1.13221 -0.689052,0.59549 -1.096338,-0.29432 -1.28318,-0.62158 -0.186837,-0.32729 -0.21731,-0.43265 -0.131479,-0.65359 0.08583,-0.22095 1.474752,-1.07377 1.736639,-1.2571 z"
       id="path6236-1"
       sodipodi:nodetypes="cccccczccccccccczccccccsccczzccccczcczzzcc" /></g></svg>
