<?xml version="1.0" encoding="UTF-8" standalone="no"?>
<!-- Created with Inkscape (http://www.inkscape.org/) -->

<svg
   width="64.518188mm"
   height="21.778381mm"
   viewBox="0 0 64.518188 21.778381"
   version="1.1"
   id="svg5"
   inkscape:version="1.2.2 (b0a8486541, 2022-12-01)"
   sodipodi:docname="larka_slogan.svg"
   xml:space="preserve"
   inkscape:export-filename="tmp.png"
   inkscape:export-xdpi="171.03999"
   inkscape:export-ydpi="171.03999"
   xmlns:inkscape="http://www.inkscape.org/namespaces/inkscape"
   xmlns:sodipodi="http://sodipodi.sourceforge.net/DTD/sodipodi-0.dtd"
   xmlns="http://www.w3.org/2000/svg"
   xmlns:svg="http://www.w3.org/2000/svg"><sodipodi:namedview
     id="namedview7"
     pagecolor="#ffffff"
     bordercolor="#000000"
     borderopacity="0.25"
     inkscape:showpageshadow="2"
     inkscape:pageopacity="0.0"
     inkscape:pagecheckerboard="0"
     inkscape:deskcolor="#d1d1d1"
     inkscape:document-units="mm"
     showgrid="false"
     inkscape:zoom="1.8816409"
     inkscape:cx="301.06701"
     inkscape:cy="164.48409"
     inkscape:window-width="1920"
     inkscape:window-height="1029"
     inkscape:window-x="0"
     inkscape:window-y="27"
     inkscape:window-maximized="1"
     inkscape:current-layer="layer1"
     showguides="true"><inkscape:grid
       type="xygrid"
       id="grid13315" /><sodipodi:guide
       position="-0.12304812,152.2494"
       orientation="1,0"
       id="guide13317"
       inkscape:locked="false" /><sodipodi:guide
       position="-13.352215,148.28065"
       orientation="0,-1"
       id="guide13319"
       inkscape:locked="false" /><sodipodi:guide
       position="103.06445,54.35356"
       orientation="1,0"
       id="guide4551"
       inkscape:locked="false" /></sodipodi:namedview><defs
     id="defs2"><rect
       x="165.33238"
       y="165.66167"
       width="170.87849"
       height="72.536377"
       id="rect827-6-9-4-2" /><rect
       x="482.19177"
       y="295.30188"
       width="327.69745"
       height="62.83186"
       id="rect10965-1-9-6-5" /></defs><g
     inkscape:label="Layer 1"
     inkscape:groupmode="layer"
     id="layer1"
     transform="translate(-10.706381,-137.0856)"><g
       aria-label="Lärka"
       transform="matrix(0.26458333,0,0,0.26458333,-34.223051,97.435846)"
       id="text825-4-5-8-5"
       style="font-weight:300;font-size:53.3333px;font-family:'Jost*';-inkscape-font-specification:'Jost*, Light';white-space:pre;shape-inside:url(#rect827-6-9-4-2);display:inline"><path
         d="m 169.81203,174.48794 v 37.33331 h 18.34665 v -2.77333 h -15.41332 v -34.55998 z"
         id="path4073" /><path
         d="m 204.53198,181.1546 c 0,1.06667 0.90666,1.97334 1.97333,1.97334 1.06667,0 1.97333,-0.90667 1.97333,-1.97334 0,-1.12 -0.90666,-2.02666 -1.97333,-2.02666 -1.06667,0 -1.97333,0.90666 -1.97333,2.02666 z m -9.81333,0 c 0,1.06667 0.90667,1.97334 1.97333,1.97334 1.06667,0 1.97334,-0.90667 1.97334,-1.97334 0,-1.12 -0.90667,-2.02666 -1.97334,-2.02666 -1.06666,0 -1.97333,0.90666 -1.97333,2.02666 z m -0.48,10.98666 c 1.49333,-1.28 4.05333,-2.93333 7.57333,-2.93333 3.36,0 5.70666,1.92 5.70666,5.22667 v 4.21333 c -1.28,-0.90667 -3.46666,-1.97334 -6.66666,-1.97334 -5.49333,0 -10.13333,2.77334 -10.13333,8.26667 0,4.90666 3.68,7.41332 8.32,7.41332 4,0 7.19999,-1.97333 8.47999,-5.01333 v 4.48 h 2.77334 V 194.4346 c 0,-4.74667 -3.2,-7.68 -8.48,-7.68 -4.21333,0 -7.14666,1.81333 -8.95999,3.25333 z m -0.69333,12.48 c 0,-3.73334 3.09333,-5.76 7.41333,-5.76 2.72,0 4.79999,0.64 6.55999,1.70666 v 2.08 c 0,4.58667 -3.35999,7.2 -7.83999,7.2 -3.52,0 -6.13333,-1.54667 -6.13333,-5.22666 z"
         id="path4075" /><path
         d="m 220.69198,187.28793 h -2.77333 v 24.53332 h 2.77333 v -14.93332 c 0,-4.16 1.33333,-7.52 4.95999,-7.52 1.28,0 2.13334,0.37333 3.2,1.17333 l 1.54667,-2.29333 c -1.12,-1.06666 -2.56,-1.49333 -4.10667,-1.49333 -2.34666,0 -4.37333,1.6 -5.59999,4.10666 z"
         id="path4077" /><path
         d="m 248.10532,187.28793 -10.50666,9.22666 v -26.29331 h -2.77333 v 41.59997 h 2.77333 v -13.22666 l 11.57332,13.22666 h 3.52 l -12.58666,-14.39999 11.57333,-10.13333 z"
         id="path4079" /><path
         d="m 257.65198,191.76793 c 1.33334,-1.01333 3.78667,-2.56 7.46667,-2.56 4.74666,0 6.29332,2.77333 6.29332,5.6 v 4.10666 c -1.43999,-0.96 -3.94666,-2.08 -7.46666,-2.08 -5.70666,0 -9.22666,2.98667 -9.22666,7.73333 0,5.17333 4.05333,7.78666 8.26666,7.78666 3.36,0 6.98667,-1.65333 8.42666,-5.11999 v 4.58666 h 2.77334 V 194.4346 c 0,-4.90667 -3.30667,-7.68 -8.85333,-7.68 -4.32,0 -7.25333,1.65333 -9.06666,2.93333 z m -0.10666,12.69333 c 0,-3.68 2.66666,-5.38667 6.82666,-5.38667 2.56,0 4.90666,0.58667 7.03999,1.81333 v 0.69334 c 0,5.49333 -3.57333,8.37333 -7.67999,8.37333 -3.41333,0 -6.18666,-1.76 -6.18666,-5.49333 z"
         id="path4081" /></g><path
       style="fill:#f0581a;fill-opacity:1;stroke-width:0.236963"
       d="m 41.536718,149.38878 c 0.800493,-0.56352 1.491243,-1.2284 2.276838,-1.81356 0.453979,-0.72626 1.088269,-1.27297 1.470403,-2.07088 0.545747,-0.84168 1.479883,-1.40006 2.141326,-2.17169 0.533335,-0.61988 1.321479,-0.91983 2.011386,-1.3113 1.114005,-0.11913 1.084812,-1.41017 1.633267,-2.14165 0.493981,-0.87734 1.590536,-1.31254 2.014345,-1.73956 0.423809,-0.42702 0.3337,-0.65186 0.382536,-1.05455 0.494675,0.26992 0.732366,1.38943 1.10768,2.10068 0.05425,0.4845 0.627071,0.61887 0.593176,1.14241 -0.160329,0.78571 1.001182,0.66883 0.950098,1.49423 0.570317,0.1299 -0.702539,-0.11732 -0.875811,-0.24224 -0.5408,-0.10305 -1.13655,0.55864 -1.435175,0.68894 0.04133,0.86642 0.349073,1.73373 0.21935,2.59569 -0.527545,1.74891 -1.694512,3.2906 -3.244527,4.25853 -0.474786,0.79857 -0.791408,0.7151 -1.077242,1.39411 0.06799,0.43267 -0.07241,0.70133 0.225104,1.10085 0.29752,0.39951 1.036544,1.05269 1.552352,1.54595 0.297844,0.16003 1.019607,-0.54885 1.28838,-0.26474 -0.310535,0.2734 -0.564409,0.19019 -0.584982,0.44435 0.554687,-0.15419 0.723113,0.0836 0.926195,0.21229 -0.407147,0.0621 -0.749069,-0.0565 -0.869817,0.0428 0.118875,0.17889 0.540537,0.20823 0.652261,0.45606 -0.334258,-0.14038 -0.963022,-0.14784 -1.20712,-0.23228 -0.488195,-0.16888 -0.600175,0.26217 -1.261909,0.30059 0.06378,-0.10902 0.316979,-0.36443 0.592858,-0.51479 -0.04574,-0.39095 -1.059391,-0.90657 -1.411618,-1.67437 -0.570204,-0.69994 -0.377578,-1.40305 -1.356688,-1.13095 -0.97911,0.2721 -1.911887,-0.26945 -1.653071,0.57863 0.258817,0.84808 0.38898,1.18725 0.734429,1.41689 0.374236,-0.13577 1.092011,-0.11134 1.497754,0.0198 -0.275025,0.0709 -0.57241,0.18528 -0.673109,0.3902 0.140629,0.12756 0.657762,0.31856 0.645127,0.57508 -0.693399,-0.33824 -2.056103,-0.40121 -2.618922,0.14114 -0.117007,-0.44218 0.593624,-0.7636 0.539202,-1.34834 -0.05442,-0.58474 -0.69685,-1.15933 -0.518145,-1.62993 -0.382595,0.21576 -2.122585,-0.41059 -2.591515,-0.15831 -0.800448,-0.7284 -1.707349,0.53672 -2.396401,1.13221 -0.689052,0.59549 -1.096338,-0.29432 -1.28318,-0.62158 -0.186837,-0.32729 -0.21731,-0.43265 -0.131479,-0.65359 0.08583,-0.22095 1.474752,-1.07377 1.736639,-1.2571 z"
       id="path6236-1"
       sodipodi:nodetypes="cccccczccccccccczccccccsccczzccccczcczzzcc" /><g
       aria-label="Språkbankens inlärningsplattform"
       transform="matrix(0.26458333,0,0,0.26458333,-116.8564,67.823608)"
       id="text10963-5-5-0"
       style="font-weight:300;font-size:49.3333px;font-family:'Open Sans';-inkscape-font-specification:'Open Sans, Light';white-space:pre;shape-inside:url(#rect10965-1-9-6-5);display:inline;fill:#f0581a"><path
         d="m 484.25808,336.42291 -1.46667,1.03333 c 0.76667,1.60001 2.41667,2.98334 4.46667,2.98334 1.98334,0 3.88334,-1.3 3.88334,-3.48334 0,-2.03333 -1.56667,-3.01667 -2.96667,-3.5 -1.88334,-0.65001 -2.65,-1.23334 -2.65,-2.13334 0,-0.66667 0.5,-1.25 1.58333,-1.25 1.18334,0 1.88334,0.76666 2.36667,1.63333 l 1.58334,-0.9 c -0.6,-1.21667 -1.85,-2.5 -3.91667,-2.5 -2.10001,0 -3.66668,1.28333 -3.66668,3.15 0,2.16667 1.95001,3.00001 3.10001,3.41668 1.48333,0.55 2.48334,0.95 2.48334,2.23333 0,0.93334 -0.71667,1.56667 -1.80001,1.56667 -1.31667,0 -2.25,-0.88333 -3,-2.25 z"
         style="font-weight:500;font-size:16.6667px;font-family:'Jost*';-inkscape-font-specification:'Jost*, Medium';fill:#000000"
         id="path4010" /><path
         d="m 494.74144,343.85626 v -4.95001 c 0.55,0.95 1.46667,1.48333 2.61667,1.48333 2.00001,0 3.73334,-1.46667 3.73334,-4.03334 0,-2.56667 -1.73333,-4.05001 -3.73334,-4.05001 -1.15,0 -2.06667,0.55 -2.61667,1.50001 v -1.28334 h -1.81667 v 11.33336 z m 4.48334,-7.50002 c 0,1.53334 -1.05,2.40001 -2.3,2.40001 -1.05,0 -2.18334,-0.85001 -2.18334,-2.40001 0,-1.56667 1.13334,-2.4 2.18334,-2.4 1.25,0 2.3,0.86666 2.3,2.4 z"
         style="font-weight:500;font-size:16.6667px;font-family:'Jost*';-inkscape-font-specification:'Jost*, Medium';fill:#000000"
         id="path4012" /><path
         d="m 506.87481,334.43957 0.88333,-1.51667 c -0.35,-0.4 -0.86667,-0.58333 -1.41667,-0.58333 -0.65,0 -1.3,0.41666 -1.75,1.1 v -0.91667 h -1.78334 v 7.66668 h 1.78334 v -4.31667 c 0,-1.10001 0.36667,-1.83334 1.26667,-1.83334 0.43333,0 0.68333,0.13333 1.01667,0.4 z"
         style="font-weight:500;font-size:16.6667px;font-family:'Jost*';-inkscape-font-specification:'Jost*, Medium';fill:#000000"
         id="path4014" /><path
         d="m 510.30815,329.55623 c 0,1.06667 0.86667,1.78333 1.85001,1.78333 0.98333,0 1.86667,-0.71666 1.86667,-1.78333 0,-1.05 -0.88334,-1.76667 -1.86667,-1.76667 -0.98334,0 -1.85001,0.71667 -1.85001,1.76667 z m 1.03334,0 c 0,-0.51667 0.4,-0.85 0.81667,-0.85 0.41667,0 0.81667,0.33333 0.81667,0.85 0,0.53333 -0.4,0.85 -0.81667,0.85 -0.41667,0 -0.81667,-0.31667 -0.81667,-0.85 z m -1.6,4.98334 c 0.36666,-0.23333 1.23333,-0.73333 2.33333,-0.73333 0.83334,0 1.51667,0.4 1.51667,1.11667 v 1.06666 c -0.46666,-0.26666 -1.15,-0.51666 -2,-0.51666 -1.9,0 -3.28334,0.91666 -3.28334,2.61667 0,1.41667 1.06667,2.26667 2.68334,2.26667 1.15,0 2.15,-0.45 2.6,-1.26667 v 1.1 h 1.76667 v -5.46668 c 0,-1.51666 -1.31667,-2.38333 -3.2,-2.38333 -1.38334,0 -2.46667,0.5 -3.15001,0.91667 z m 0.38333,3.38334 c 0,-0.8 0.58333,-1.3 1.73334,-1.3 0.68333,0 1.21667,0.13333 1.73333,0.38333 v 0.13334 c 0,1.35 -0.88333,1.85 -2.05,1.85 -0.9,0 -1.41667,-0.35 -1.41667,-1.06667 z"
         style="font-weight:500;font-size:16.6667px;font-family:'Jost*';-inkscape-font-specification:'Jost*, Medium';fill:#000000"
         id="path4016" /><path
         d="m 521.99152,332.5229 -2.81667,2.70001 v -8.03335 h -1.76667 v 13.00002 h 1.76667 v -3.88334 l 3.16667,3.88334 h 2.20001 l -3.65001,-4.50001 3.31667,-3.16667 z"
         style="font-weight:500;font-size:16.6667px;font-family:'Jost*';-inkscape-font-specification:'Jost*, Medium';fill:#000000"
         id="path4018" /><path
         d="m 533.82489,336.35624 c 0,-2.53334 -1.73333,-4.00001 -3.73334,-4.00001 -1.11667,0 -2.05,0.51667 -2.61667,1.45001 v -6.61668 h -1.81667 v 13.00002 h 1.81667 v -1.28333 c 0.56667,0.93333 1.5,1.45 2.61667,1.45 2.00001,0 3.73334,-1.48334 3.73334,-4.00001 z m -1.86667,0 c 0,1.53334 -1.05,2.43334 -2.3,2.43334 -1.05,0 -2.18334,-0.88334 -2.18334,-2.43334 0,-1.56667 1.13334,-2.43334 2.18334,-2.43334 1.25,0 2.3,0.9 2.3,2.43334 z"
         style="font-weight:500;font-size:16.6667px;font-family:'Jost*';-inkscape-font-specification:'Jost*, Medium';fill:#000000"
         id="path4020" /><path
         d="m 536.10824,334.5229 c 0.33334,-0.25 1.25001,-0.71666 2.33334,-0.71666 0.95,0 1.63334,0.33333 1.63334,1.26667 v 0.93333 c -0.48333,-0.26667 -1.21667,-0.53333 -2.21667,-0.53333 -1.90001,0 -3.00001,0.95 -3.00001,2.43333 0,1.56667 1.23334,2.45001 2.68334,2.45001 0.98334,0 2.05001,-0.4 2.53334,-1.21667 v 1.05 h 1.76667 v -5.46668 c 0,-1.51666 -1.35,-2.38333 -3.21667,-2.38333 -1.43334,0 -2.55001,0.5 -3.25001,0.91667 z m 0.56667,3.28334 c 0,-0.71666 0.48334,-1.15 1.61667,-1.15 0.65,0 1.23334,0.11667 1.78334,0.36667 v 0.11667 c 0,1.16667 -0.9,1.86667 -1.96667,1.86667 -0.83334,0 -1.43334,-0.43334 -1.43334,-1.20001 z"
         style="font-weight:500;font-size:16.6667px;font-family:'Jost*';-inkscape-font-specification:'Jost*, Medium';fill:#000000"
         id="path4022" /><path
         d="m 548.87493,335.52291 v 4.66667 h 1.85001 v -4.88334 c 0,-1.83334 -0.93334,-2.95001 -2.66667,-2.95001 -1.05001,0 -1.81668,0.45 -2.30001,1.35001 v -1.18334 h -1.81667 v 7.66668 h 1.81667 v -4.66667 c 0,-1.05001 0.66667,-1.71667 1.7,-1.71667 0.96667,0 1.41667,0.6 1.41667,1.71667 z"
         style="font-weight:500;font-size:16.6667px;font-family:'Jost*';-inkscape-font-specification:'Jost*, Medium';fill:#000000"
         id="path4024" /><path
         d="m 557.54162,332.5229 -2.81668,2.70001 v -8.03335 h -1.76667 v 13.00002 h 1.76667 v -3.88334 l 3.16668,3.88334 h 2.2 l -3.65001,-4.50001 3.31668,-3.16667 z"
         style="font-weight:500;font-size:16.6667px;font-family:'Jost*';-inkscape-font-specification:'Jost*, Medium';fill:#000000"
         id="path4026" /><path
         d="m 564.35832,340.35625 c 1.76667,0 3.03334,-0.68334 3.85001,-2.08334 l -1.56667,-0.61667 c -0.48334,0.81667 -1.21667,1.21667 -2.20001,1.21667 -1.25,0 -2.03333,-0.75 -2.15,-2.1 h 5.96668 c 0,-0.0833 0.0167,-0.3 0.0167,-0.5 0,-2.45001 -1.41667,-3.91668 -3.83334,-3.91668 -2.43334,0 -4.00001,1.58334 -4.00001,4.00001 0,2.40001 1.55001,4.00001 3.91668,4.00001 z m 0.0667,-6.63335 c 1.08333,0 1.8,0.71667 1.88333,1.80001 h -3.96667 c 0.21667,-1.16667 0.93333,-1.78334 2.08334,-1.80001 z"
         style="font-weight:500;font-size:16.6667px;font-family:'Jost*';-inkscape-font-specification:'Jost*, Medium';fill:#000000"
         id="path4028" /><path
         d="m 574.94167,335.52291 v 4.66667 h 1.85 v -4.88334 c 0,-1.83334 -0.93333,-2.95001 -2.66667,-2.95001 -1.05,0 -1.81667,0.45 -2.30001,1.35001 v -1.18334 h -1.81667 v 7.66668 h 1.81667 v -4.66667 c 0,-1.05001 0.66667,-1.71667 1.70001,-1.71667 0.96667,0 1.41667,0.6 1.41667,1.71667 z"
         style="font-weight:500;font-size:16.6667px;font-family:'Jost*';-inkscape-font-specification:'Jost*, Medium';fill:#000000"
         id="path4030" /><path
         d="m 579.44168,337.65624 -1.05001,1.06667 c 0.66667,0.86667 1.83334,1.70001 3.43334,1.70001 1.66667,0 2.73334,-0.95001 2.73334,-2.40001 0,-1.38333 -1.06667,-1.9 -2.35,-2.41667 -0.93334,-0.36667 -1.66667,-0.63333 -1.66667,-1.2 0,-0.43334 0.38333,-0.65 0.9,-0.65 0.75,0 1.5,0.43333 2,1.01666 l 1.00001,-1.06666 c -0.63334,-0.76667 -1.71667,-1.35001 -2.96668,-1.35001 -1.41667,0 -2.63333,0.7 -2.63333,2.08334 0,1.38334 1.13333,1.96667 2.18333,2.33334 1.01667,0.36667 1.71667,0.66667 1.71667,1.35 0,0.5 -0.38333,0.81667 -1.03333,0.81667 -0.78334,0 -1.51667,-0.45 -2.26667,-1.28334 z"
         style="font-weight:500;font-size:16.6667px;font-family:'Jost*';-inkscape-font-specification:'Jost*, Medium';fill:#000000"
         id="path4032" /><path
         d="m 591.09169,329.47289 c 0,0.61667 0.51667,1.10001 1.13334,1.10001 0.63333,0 1.15,-0.48334 1.15,-1.10001 0,-0.61666 -0.51667,-1.1 -1.15,-1.1 -0.61667,0 -1.13334,0.48334 -1.13334,1.1 z m 0.25,3.05001 v 7.66668 h 1.78334 v -7.66668 z"
         style="font-weight:500;font-size:16.6667px;font-family:'Jost*';-inkscape-font-specification:'Jost*, Medium';fill:#000000"
         id="path4034" /><path
         d="m 600.54171,335.52291 v 4.66667 h 1.85001 v -4.88334 c 0,-1.83334 -0.93334,-2.95001 -2.66668,-2.95001 -1.05,0 -1.81667,0.45 -2.3,1.35001 v -1.18334 h -1.81667 v 7.66668 h 1.81667 v -4.66667 c 0,-1.05001 0.66667,-1.71667 1.7,-1.71667 0.96667,0 1.41667,0.6 1.41667,1.71667 z"
         style="font-weight:500;font-size:16.6667px;font-family:'Jost*';-inkscape-font-specification:'Jost*, Medium';fill:#000000"
         id="path4036" /><path
         d="m 604.69172,327.18956 v 13.00002 h 1.81667 v -13.00002 z"
         style="font-weight:500;font-size:16.6667px;font-family:'Jost*';-inkscape-font-specification:'Jost*, Medium';fill:#000000"
         id="path4038" /><path
         d="m 612.64174,330.23956 c 0,0.61667 0.51667,1.1 1.13334,1.1 0.63333,0 1.13333,-0.48333 1.13333,-1.1 0,-0.61667 -0.5,-1.1 -1.13333,-1.1 -0.61667,0 -1.13334,0.48333 -1.13334,1.1 z m -3.63334,0 c 0,0.61667 0.51667,1.1 1.15,1.1 0.61667,0 1.13334,-0.48333 1.13334,-1.1 0,-0.61667 -0.51667,-1.1 -1.13334,-1.1 -0.63333,0 -1.15,0.48333 -1.15,1.1 z m 0.53334,4.30001 c 0.36666,-0.23333 1.23333,-0.73333 2.33333,-0.73333 0.83334,0 1.51667,0.4 1.51667,1.11667 v 1.06666 c -0.46666,-0.26666 -1.15,-0.51666 -2,-0.51666 -1.9,0 -3.28334,0.91666 -3.28334,2.61667 0,1.41667 1.06667,2.26667 2.68334,2.26667 1.15,0 2.15,-0.45 2.6,-1.26667 v 1.1 h 1.76667 v -5.46668 c 0,-1.51666 -1.31667,-2.38333 -3.2,-2.38333 -1.38334,0 -2.46667,0.5 -3.15001,0.91667 z m 0.38333,3.38334 c 0,-0.8 0.58333,-1.3 1.73334,-1.3 0.68333,0 1.21667,0.13333 1.73333,0.38333 v 0.13334 c 0,1.35 -0.88333,1.85 -2.05,1.85 -0.9,0 -1.41667,-0.35 -1.41667,-1.06667 z"
         style="font-weight:500;font-size:16.6667px;font-family:'Jost*';-inkscape-font-specification:'Jost*, Medium';fill:#000000"
         id="path4040" /><path
         d="m 621.34177,334.43957 0.88333,-1.51667 c -0.35,-0.4 -0.86666,-0.58333 -1.41667,-0.58333 -0.65,0 -1.3,0.41666 -1.75,1.1 v -0.91667 h -1.78334 v 7.66668 h 1.78334 v -4.31667 c 0,-1.10001 0.36667,-1.83334 1.26667,-1.83334 0.43333,0 0.68333,0.13333 1.01667,0.4 z"
         style="font-weight:500;font-size:16.6667px;font-family:'Jost*';-inkscape-font-specification:'Jost*, Medium';fill:#000000"
         id="path4042" /><path
         d="m 628.39179,335.52291 v 4.66667 h 1.85 v -4.88334 c 0,-1.83334 -0.93333,-2.95001 -2.66667,-2.95001 -1.05,0 -1.81667,0.45 -2.30001,1.35001 v -1.18334 h -1.81667 v 7.66668 h 1.81667 v -4.66667 c 0,-1.05001 0.66667,-1.71667 1.70001,-1.71667 0.96667,0 1.41667,0.6 1.41667,1.71667 z"
         style="font-weight:500;font-size:16.6667px;font-family:'Jost*';-inkscape-font-specification:'Jost*, Medium';fill:#000000"
         id="path4044" /><path
         d="m 632.47514,329.47289 c 0,0.61667 0.51666,1.10001 1.13333,1.10001 0.63334,0 1.15,-0.48334 1.15,-1.10001 0,-0.61666 -0.51666,-1.1 -1.15,-1.1 -0.61667,0 -1.13333,0.48334 -1.13333,1.1 z m 0.25,3.05001 v 7.66668 h 1.78333 v -7.66668 z"
         style="font-weight:500;font-size:16.6667px;font-family:'Jost*';-inkscape-font-specification:'Jost*, Medium';fill:#000000"
         id="path4046" /><path
         d="m 641.92516,335.52291 v 4.66667 h 1.85 v -4.88334 c 0,-1.83334 -0.93333,-2.95001 -2.66667,-2.95001 -1.05,0 -1.81667,0.45 -2.30001,1.35001 v -1.18334 h -1.81667 v 7.66668 h 1.81667 v -4.66667 c 0,-1.05001 0.66667,-1.71667 1.70001,-1.71667 0.96667,0 1.41667,0.6 1.41667,1.71667 z"
         style="font-weight:500;font-size:16.6667px;font-family:'Jost*';-inkscape-font-specification:'Jost*, Medium';fill:#000000"
         id="path4048" /><path
         d="m 645.64182,340.70625 c 0.0833,2 1.50001,3.38334 4.00001,3.38334 2.08334,0 3.96668,-1.3 3.96668,-4.06667 v -7.50002 h -1.76667 v 1.25 c -0.56667,-0.91667 -1.50001,-1.41667 -2.61668,-1.41667 -2,0 -3.73334,1.43334 -3.73334,3.95001 0,2.53334 1.73334,3.96668 3.73334,3.96668 1.11667,0 2.05001,-0.50001 2.61668,-1.41667 v 1.16667 c 0,1.71667 -1.11667,2.5 -2.23334,2.5 -1.3,0 -2.13334,-0.78333 -2.16667,-1.81667 z m 1.71667,-4.40001 c 0,-1.53334 1.05001,-2.38334 2.30001,-2.38334 1.05,0 2.18334,0.83334 2.18334,2.38334 0,1.56667 -1.13334,2.40001 -2.18334,2.40001 -1.25,0 -2.30001,-0.85001 -2.30001,-2.40001 z"
         style="font-weight:500;font-size:16.6667px;font-family:'Jost*';-inkscape-font-specification:'Jost*, Medium';fill:#000000"
         id="path4050" /><path
         d="m 656.19185,337.65624 -1.05,1.06667 c 0.66667,0.86667 1.83334,1.70001 3.43334,1.70001 1.66667,0 2.73334,-0.95001 2.73334,-2.40001 0,-1.38333 -1.06667,-1.9 -2.35001,-2.41667 -0.93333,-0.36667 -1.66667,-0.63333 -1.66667,-1.2 0,-0.43334 0.38334,-0.65 0.90001,-0.65 0.75,0 1.5,0.43333 2,1.01666 l 1,-1.06666 c -0.63333,-0.76667 -1.71667,-1.35001 -2.96667,-1.35001 -1.41667,0 -2.63334,0.7 -2.63334,2.08334 0,1.38334 1.13334,1.96667 2.18334,2.33334 1.01667,0.36667 1.71667,0.66667 1.71667,1.35 0,0.5 -0.38334,0.81667 -1.03334,0.81667 -0.78333,0 -1.51667,-0.45 -2.26667,-1.28334 z"
         style="font-weight:500;font-size:16.6667px;font-family:'Jost*';-inkscape-font-specification:'Jost*, Medium';fill:#000000"
         id="path4052" /><path
         d="m 664.65854,343.85626 v -4.95001 c 0.55,0.95 1.46667,1.48333 2.61667,1.48333 2,0 3.73334,-1.46667 3.73334,-4.03334 0,-2.56667 -1.73334,-4.05001 -3.73334,-4.05001 -1.15,0 -2.06667,0.55 -2.61667,1.50001 v -1.28334 h -1.81667 v 11.33336 z m 4.48334,-7.50002 c 0,1.53334 -1.05,2.40001 -2.30001,2.40001 -1.05,0 -2.18333,-0.85001 -2.18333,-2.40001 0,-1.56667 1.13333,-2.4 2.18333,-2.4 1.25001,0 2.30001,0.86666 2.30001,2.4 z"
         style="font-weight:500;font-size:16.6667px;font-family:'Jost*';-inkscape-font-specification:'Jost*, Medium';fill:#000000"
         id="path4054" /><path
         d="m 672.72523,327.18956 v 13.00002 h 1.81667 v -13.00002 z"
         style="font-weight:500;font-size:16.6667px;font-family:'Jost*';-inkscape-font-specification:'Jost*, Medium';fill:#000000"
         id="path4056" /><path
         d="m 677.39192,334.5229 c 0.33333,-0.25 1.25,-0.71666 2.33334,-0.71666 0.95,0 1.63333,0.33333 1.63333,1.26667 v 0.93333 c -0.48333,-0.26667 -1.21667,-0.53333 -2.21667,-0.53333 -1.9,0 -3.00001,0.95 -3.00001,2.43333 0,1.56667 1.23334,2.45001 2.68334,2.45001 0.98334,0 2.05001,-0.4 2.53334,-1.21667 v 1.05 h 1.76667 v -5.46668 c 0,-1.51666 -1.35,-2.38333 -3.21667,-2.38333 -1.43334,0 -2.55001,0.5 -3.25001,0.91667 z m 0.56667,3.28334 c 0,-0.71666 0.48333,-1.15 1.61667,-1.15 0.65,0 1.23333,0.11667 1.78333,0.36667 v 0.11667 c 0,1.16667 -0.9,1.86667 -1.96667,1.86667 -0.83333,0 -1.43333,-0.43334 -1.43333,-1.20001 z"
         style="font-weight:500;font-size:16.6667px;font-family:'Jost*';-inkscape-font-specification:'Jost*, Medium';fill:#000000"
         id="path4058" /><path
         d="m 684.15859,332.5229 v 1.58334 h 1.3 v 6.08334 h 1.76667 v -6.08334 h 1.28334 v -1.58334 h -1.28334 v -2.66667 h -1.76667 v 2.66667 z"
         style="font-weight:500;font-size:16.6667px;font-family:'Jost*';-inkscape-font-specification:'Jost*, Medium';fill:#000000"
         id="path4060" /><path
         d="m 688.67527,332.5229 v 1.58334 h 1.3 v 6.08334 h 1.76667 v -6.08334 h 1.28334 v -1.58334 h -1.28334 v -2.66667 h -1.76667 v 2.66667 z"
         style="font-weight:500;font-size:16.6667px;font-family:'Jost*';-inkscape-font-specification:'Jost*, Medium';fill:#000000"
         id="path4062" /><path
         d="m 693.62528,332.5229 v 1.58334 h 0.83333 v 6.08334 h 1.78334 v -6.08334 h 1.78334 v -1.58334 h -1.78334 v -2.48334 c 0,-0.96667 0.3,-1.35 0.8,-1.35 0.26667,0 0.56667,0.0833 0.8,0.43333 l 0.83334,-1.4 c -0.28333,-0.33333 -0.83334,-0.75 -1.71667,-0.75 -1.61667,0 -2.50001,0.93333 -2.50001,2.71667 v 2.83334 z"
         style="font-weight:500;font-size:16.6667px;font-family:'Jost*';-inkscape-font-specification:'Jost*, Medium';fill:#000000"
         id="path4064" /><path
         d="m 698.82529,336.35624 c 0,2.35001 1.78334,4.00001 4.13334,4.00001 2.35001,0 4.13334,-1.65 4.13334,-4.00001 0,-2.36667 -1.78333,-4.00001 -4.13334,-4.00001 -2.35,0 -4.13334,1.63334 -4.13334,4.00001 z m 1.85,0 c 0,-1.43333 0.98334,-2.41667 2.28334,-2.41667 1.28334,0 2.28334,0.98334 2.28334,2.41667 0,1.43334 -1,2.41667 -2.28334,2.41667 -1.3,0 -2.28334,-0.98333 -2.28334,-2.41667 z"
         style="font-weight:500;font-size:16.6667px;font-family:'Jost*';-inkscape-font-specification:'Jost*, Medium';fill:#000000"
         id="path4066" /><path
         d="m 712.87529,334.43957 0.88334,-1.51667 c -0.35,-0.4 -0.86667,-0.58333 -1.41667,-0.58333 -0.65,0 -1.3,0.41666 -1.75001,1.1 v -0.91667 h -1.78333 v 7.66668 h 1.78333 v -4.31667 c 0,-1.10001 0.36667,-1.83334 1.26667,-1.83334 0.43334,0 0.68334,0.13333 1.01667,0.4 z"
         style="font-weight:500;font-size:16.6667px;font-family:'Jost*';-inkscape-font-specification:'Jost*, Medium';fill:#000000"
         id="path4068" /><path
         d="m 725.97532,335.30624 c 0,-1.86667 -0.8,-2.95001 -2.45,-2.95001 -1.03334,0 -1.85001,0.46667 -2.40001,1.36667 -0.33333,-0.88333 -1.08333,-1.36667 -2.2,-1.36667 -1,0 -1.71667,0.43334 -2.16667,1.28334 v -1.11667 h -1.76667 v 7.66668 h 1.76667 v -4.66667 c 0,-1.10001 0.6,-1.71667 1.51667,-1.71667 0.88333,0 1.28333,0.55 1.28333,1.71667 v 4.66667 h 1.80001 v -4.66667 c 0,-1.10001 0.6,-1.71667 1.53333,-1.71667 0.86667,0 1.26667,0.55 1.26667,1.71667 v 4.66667 h 1.81667 z"
         style="font-weight:500;font-size:16.6667px;font-family:'Jost*';-inkscape-font-specification:'Jost*, Medium';fill:#000000"
         id="path4070" /></g></g></svg>
