<?xml version="1.0" encoding="UTF-8" standalone="no"?>
<!-- Created with Inkscape (http://www.inkscape.org/) -->

<svg
   width="54.490692mm"
   height="20.000648mm"
   viewBox="0 0 54.490692 20.000648"
   version="1.1"
   id="svg5"
   inkscape:version="1.2.2 (b0a8486541, 2022-12-01)"
   sodipodi:docname="mink_slogan_en.svg"
   xml:space="preserve"
   inkscape:export-filename="tmp.png"
   inkscape:export-xdpi="171.03999"
   inkscape:export-ydpi="171.03999"
   xmlns:inkscape="http://www.inkscape.org/namespaces/inkscape"
   xmlns:sodipodi="http://sodipodi.sourceforge.net/DTD/sodipodi-0.dtd"
   xmlns="http://www.w3.org/2000/svg"
   xmlns:svg="http://www.w3.org/2000/svg"><sodipodi:namedview
     id="namedview7"
     pagecolor="#ffffff"
     bordercolor="#000000"
     borderopacity="0.25"
     inkscape:showpageshadow="2"
     inkscape:pageopacity="0.0"
     inkscape:pagecheckerboard="0"
     inkscape:deskcolor="#d1d1d1"
     inkscape:document-units="mm"
     showgrid="false"
     inkscape:zoom="1.8816409"
     inkscape:cx="221.88081"
     inkscape:cy="-16.740708"
     inkscape:window-width="1920"
     inkscape:window-height="1149"
     inkscape:window-x="0"
     inkscape:window-y="27"
     inkscape:window-maximized="1"
     inkscape:current-layer="layer1"
     showguides="true"><inkscape:grid
       type="xygrid"
       id="grid13315" /><sodipodi:guide
       position="-103.30252,92.985911"
       orientation="1,0"
       id="guide13317"
       inkscape:locked="false" /><sodipodi:guide
       position="-116.53169,89.017161"
       orientation="0,-1"
       id="guide13319"
       inkscape:locked="false" /><sodipodi:guide
       position="-0.11502192,-4.9099284"
       orientation="1,0"
       id="guide4551"
       inkscape:locked="false" /></sodipodi:namedview><defs
     id="defs2"><rect
       x="165.33238"
       y="165.66167"
       width="170.87849"
       height="72.536377"
       id="rect827-6-7-9" /><rect
       x="482.19177"
       y="295.30188"
       width="329.70599"
       height="94.550728"
       id="rect10965-6-2" /></defs><g
     inkscape:label="Layer 1"
     inkscape:groupmode="layer"
     id="layer1"
     transform="translate(-113.88585,-79.599844)"><g
       aria-label="Mink"
       transform="matrix(0.26458333,0,0,0.26458333,69.464418,38.845647)"
       id="text825-4-6-6"
       style="font-weight:300;font-size:53.3333px;font-family:'Jost*';-inkscape-font-specification:'Jost*, Light';white-space:pre;shape-inside:url(#rect827-6-7-9);display:inline"><path
         d="m 174.02536,182.2746 13.11999,25.22665 13.11999,-25.22665 3.2,29.54665 h 2.93333 l -4.31999,-38.77331 -14.93333,28.69332 -14.93332,-28.69332 -4.32,38.77331 h 2.93333 z"
         id="path2411" /><path
         d="m 213.17204,176.19461 c 0,1.06666 0.85334,1.97333 1.97334,1.97333 1.12,0 1.97333,-0.90667 1.97333,-1.97333 0,-1.06667 -0.85333,-1.97334 -1.97333,-1.97334 -1.12,0 -1.97334,0.90667 -1.97334,1.97334 z m 0.58667,11.09332 v 24.53332 h 2.77333 v -24.53332 z"
         id="path2413" /><path
         d="m 241.27871,196.03459 v 15.78666 h 2.77333 v -16.10666 c 0,-5.43999 -2.77333,-8.95999 -7.89332,-8.95999 -3.62667,0 -6.45333,2.08 -7.84,5.65333 v -5.12 h -2.77333 v 24.53332 h 2.77333 v -14.93332 c 0,-4.21333 3.04,-7.52 7.2,-7.52 3.94666,0 5.75999,2.50667 5.75999,6.66666 z"
         id="path2415" /><path
         d="m 265.49199,187.28793 -10.50666,9.22666 V 170.22128 H 252.212 v 41.59997 h 2.77333 v -13.22666 l 11.57333,13.22666 h 3.52 L 257.492,197.42126 269.06532,187.28793 Z"
         id="path2417" /></g><path
       d="m 150.90244,94.641546 c 0.21323,-0.10515 0.60108,-0.48847 0.79534,-0.78607 0.19491,-0.29857 0.23586,-0.49148 0.15145,-0.71345 -0.0194,-0.0513 -0.0413,-0.18374 -0.0485,-0.29452 l -0.0131,-0.20139 0.2578,-0.0907 c 0.14179,-0.0499 0.35338,-0.14546 0.47022,-0.21231 0.11684,-0.0668 0.17448,-0.0804 0.26127,-0.12154 0.36357,-0.17235 0.5418,-0.23924 1.08687,-0.52502 0.13914,-0.073 0.35734,-0.21651 0.4849,-0.31904 0.12756,-0.10252 0.35411,-0.27268 0.50346,-0.37813 0.32234,-0.22761 0.98252,-0.87495 1.22609,-1.20226 0.24282,-0.3263 0.50574,-0.76889 0.73253,-1.23328 0.1463,-0.29954 0.22724,-0.53923 0.33033,-0.97823 0.16636,-0.70846 0.20391,-1.272309 0.1382,-2.074969 -0.0513,-0.625786 -0.13879,-0.93538 -0.5304,-1.875232 -0.19644,-0.471422 -0.68466,-1.365831 -0.97742,-1.790614 -0.50312,-0.729951 -1.10531,-0.842084 -1.37869,-0.256624 -0.0733,0.156886 -0.12244,0.212506 -0.11984,0.671367 0,0 -0.0107,0.320213 0.0422,0.555054 0.0528,0.234832 0.38958,0.834032 0.38958,0.834032 0.58119,1.244145 0.67647,1.550528 0.74476,2.394461 0.0329,0.4067 0.0277,0.544865 -0.0369,0.969795 -0.0916,0.60287 -0.16315,0.75922 -0.7864,1.71747 -0.7616,1.17094 -1.11936,1.45515 -1.69906,1.34977 -0.42285,-0.0768 -0.74264,-0.30856 -0.97107,-0.70355 -0.0883,-0.15274 -0.24128,-0.36498 -0.3399,-0.47166 -0.0986,-0.10668 -0.24875,-0.27972 -0.33363,-0.38455 -0.14714,-0.18171 -0.66904,-0.64827 -1.24056,-1.10891 -0.14556,-0.11735 -0.36428,-0.30064 -0.48603,-0.40732 -0.12175,-0.10668 -0.37641,-0.29812 -0.56589,-0.42544 -0.48434,-0.325417 -0.71811,-0.521138 -1.13193,-0.94766 -0.35259,-0.363429 -0.72805,-0.867704 -0.9009,-1.210023 -0.25638,-0.507633 -0.60234,-1.013868 -0.93572,-1.369043 -0.59318,-0.632044 -1.1108,-0.973819 -1.77475,-1.17196 -0.87974,-0.262504 -1.92366,-0.698496 -2.4147,-1.00843 -0.13417,-0.08466 -0.14552,-0.104836 -0.12374,-0.219445 0.0132,-0.06948 0.0477,-0.173322 0.0767,-0.23093 0.0793,-0.15777 0.0637,-0.33504 -0.0458,-0.522018 -0.1216,-0.207482 -0.28808,-0.299489 -0.54157,-0.299333 -0.25859,1.47e-4 -0.45294,0.106456 -0.72549,0.396743 -0.19866,0.211595 -0.24995,0.243721 -0.50948,0.319127 -0.15873,0.04611 -0.33856,0.127475 -0.39963,0.180785 -0.061,0.05328 -0.22551,0.188902 -0.36542,0.301321 -0.31743,0.255041 -0.61151,0.578172 -0.68812,0.756067 -0.0321,0.07463 -0.0602,0.241872 -0.0623,0.371555 -0.006,0.316349 0.14194,0.563798 0.44197,0.74369 0.25324,0.151852 0.32767,0.15453 0.76587,0.02752 0.18701,-0.0542 0.4273,-0.09904 0.53395,-0.09963 0.20881,-0.0018 0.55385,0.10456 0.81179,0.248728 0.19029,0.106364 0.75928,0.566816 0.75928,0.61443 0,0.02954 -0.10985,0.03929 -0.55279,0.04887 -0.0694,0.0018 -0.37328,-0.01169 -0.67544,-0.02936 -0.47577,-0.02779 -0.56754,-0.02347 -0.68496,0.0323 -0.28901,0.137156 -0.25459,0.462799 0.0801,0.757383 0.33586,0.295624 0.83952,0.467768 1.60039,0.546957 0.22402,0.02337 0.48585,0.07224 0.58185,0.108719 0.24033,0.09129 0.59065,0.32107 0.87069,0.571086 0.12918,0.115309 0.44301,0.349423 0.69743,0.52026 0.27232,0.182855 0.50142,0.367791 0.55705,0.44963 0.11399,0.167761 0.48112,0.942121 0.54928,1.158621 0.047,0.14925 0.30826,0.74102 0.55356,1.25395 0.0646,0.13495 0.22175,0.38616 0.34936,0.55827 0.38389,0.51777 0.43189,0.62437 0.3437,0.76368 -0.0277,0.0437 -0.0901,0.0188 -0.31659,-0.12607 -0.33175,-0.21225 -0.47873,-0.2313 -0.6205,-0.0804 -0.0795,0.0847 -0.0936,0.13706 -0.0909,0.33943 0.002,0.13769 0.0293,0.28873 0.0646,0.35568 0.0687,0.13024 0.26081,0.31784 0.43658,0.42647 0.0641,0.0396 0.23136,0.16455 0.37188,0.27776 0.14051,0.11322 0.35538,0.25159 0.47748,0.30749 0.27267,0.12483 0.43082,0.10605 0.63675,-0.0757 0.0788,-0.0694 0.21062,-0.16508 0.29309,-0.2125 l 0.14992,-0.0862 0.33951,0.28877 c 0.6318,0.53734 1.2971,0.90281 1.91429,1.05149 0.22299,0.0537 0.42917,0.0977 0.45817,0.0978 0.0305,3e-5 0.056,0.0473 0.0606,0.11172 0.004,0.0615 0.0634,0.23605 0.13136,0.38809 0.11804,0.26397 0.12163,0.28634 0.0795,0.49604 -0.0878,0.43739 -0.0332,0.74903 0.1544,0.88043 0.11167,0.0782 0.17467,0.0784 0.33219,7.5e-4 z"
       fill="#d4d4d8"
       stroke-width="0.733062"
       id="path3563-4-6"
       style="fill:#f0581a;fill-opacity:1"
       inkscape:export-filename="logotyper/mink.svg"
       inkscape:export-xdpi="275.48999"
       inkscape:export-ydpi="275.48999" /><g
       aria-label="Språkbanken's data platform"
       transform="matrix(0.26458333,0,0,0.26458333,-13.808978,8.6218584)"
       id="text10963-73-4"
       style="font-weight:300;font-size:49.3333px;font-family:'Open Sans';-inkscape-font-specification:'Open Sans, Light';white-space:pre;shape-inside:url(#rect10965-6-2);display:inline;fill:#f0581a"><path
         d="m 484.25808,336.42291 -1.46667,1.03333 c 0.76667,1.60001 2.41667,2.98334 4.46667,2.98334 1.98334,0 3.88334,-1.3 3.88334,-3.48334 0,-2.03333 -1.56667,-3.01667 -2.96667,-3.5 -1.88334,-0.65001 -2.65,-1.23334 -2.65,-2.13334 0,-0.66667 0.5,-1.25 1.58333,-1.25 1.18334,0 1.88334,0.76666 2.36667,1.63333 l 1.58334,-0.9 c -0.6,-1.21667 -1.85,-2.5 -3.91667,-2.5 -2.10001,0 -3.66668,1.28333 -3.66668,3.15 0,2.16667 1.95001,3.00001 3.10001,3.41668 1.48333,0.55 2.48334,0.95 2.48334,2.23333 0,0.93334 -0.71667,1.56667 -1.80001,1.56667 -1.31667,0 -2.25,-0.88333 -3,-2.25 z"
         style="font-weight:500;font-size:16.6667px;font-family:'Jost*';-inkscape-font-specification:'Jost*, Medium';fill:#1a1a1a"
         id="path2360" /><path
         d="m 494.74144,343.85626 v -4.95001 c 0.55,0.95 1.46667,1.48333 2.61667,1.48333 2.00001,0 3.73334,-1.46667 3.73334,-4.03334 0,-2.56667 -1.73333,-4.05001 -3.73334,-4.05001 -1.15,0 -2.06667,0.55 -2.61667,1.50001 v -1.28334 h -1.81667 v 11.33336 z m 4.48334,-7.50002 c 0,1.53334 -1.05,2.40001 -2.3,2.40001 -1.05,0 -2.18334,-0.85001 -2.18334,-2.40001 0,-1.56667 1.13334,-2.4 2.18334,-2.4 1.25,0 2.3,0.86666 2.3,2.4 z"
         style="font-weight:500;font-size:16.6667px;font-family:'Jost*';-inkscape-font-specification:'Jost*, Medium';fill:#1a1a1a"
         id="path2362" /><path
         d="m 506.87481,334.43957 0.88333,-1.51667 c -0.35,-0.4 -0.86667,-0.58333 -1.41667,-0.58333 -0.65,0 -1.3,0.41666 -1.75,1.1 v -0.91667 h -1.78334 v 7.66668 h 1.78334 v -4.31667 c 0,-1.10001 0.36667,-1.83334 1.26667,-1.83334 0.43333,0 0.68333,0.13333 1.01667,0.4 z"
         style="font-weight:500;font-size:16.6667px;font-family:'Jost*';-inkscape-font-specification:'Jost*, Medium';fill:#1a1a1a"
         id="path2364" /><path
         d="m 510.30815,329.55623 c 0,1.06667 0.86667,1.78333 1.85001,1.78333 0.98333,0 1.86667,-0.71666 1.86667,-1.78333 0,-1.05 -0.88334,-1.76667 -1.86667,-1.76667 -0.98334,0 -1.85001,0.71667 -1.85001,1.76667 z m 1.03334,0 c 0,-0.51667 0.4,-0.85 0.81667,-0.85 0.41667,0 0.81667,0.33333 0.81667,0.85 0,0.53333 -0.4,0.85 -0.81667,0.85 -0.41667,0 -0.81667,-0.31667 -0.81667,-0.85 z m -1.6,4.98334 c 0.36666,-0.23333 1.23333,-0.73333 2.33333,-0.73333 0.83334,0 1.51667,0.4 1.51667,1.11667 v 1.06666 c -0.46666,-0.26666 -1.15,-0.51666 -2,-0.51666 -1.9,0 -3.28334,0.91666 -3.28334,2.61667 0,1.41667 1.06667,2.26667 2.68334,2.26667 1.15,0 2.15,-0.45 2.6,-1.26667 v 1.1 h 1.76667 v -5.46668 c 0,-1.51666 -1.31667,-2.38333 -3.2,-2.38333 -1.38334,0 -2.46667,0.5 -3.15001,0.91667 z m 0.38333,3.38334 c 0,-0.8 0.58333,-1.3 1.73334,-1.3 0.68333,0 1.21667,0.13333 1.73333,0.38333 v 0.13334 c 0,1.35 -0.88333,1.85 -2.05,1.85 -0.9,0 -1.41667,-0.35 -1.41667,-1.06667 z"
         style="font-weight:500;font-size:16.6667px;font-family:'Jost*';-inkscape-font-specification:'Jost*, Medium';fill:#1a1a1a"
         id="path2366" /><path
         d="m 521.99152,332.5229 -2.81667,2.70001 v -8.03335 h -1.76667 v 13.00002 h 1.76667 v -3.88334 l 3.16667,3.88334 h 2.20001 l -3.65001,-4.50001 3.31667,-3.16667 z"
         style="font-weight:500;font-size:16.6667px;font-family:'Jost*';-inkscape-font-specification:'Jost*, Medium';fill:#1a1a1a"
         id="path2368" /><path
         d="m 533.82489,336.35624 c 0,-2.53334 -1.73333,-4.00001 -3.73334,-4.00001 -1.11667,0 -2.05,0.51667 -2.61667,1.45001 v -6.61668 h -1.81667 v 13.00002 h 1.81667 v -1.28333 c 0.56667,0.93333 1.5,1.45 2.61667,1.45 2.00001,0 3.73334,-1.48334 3.73334,-4.00001 z m -1.86667,0 c 0,1.53334 -1.05,2.43334 -2.3,2.43334 -1.05,0 -2.18334,-0.88334 -2.18334,-2.43334 0,-1.56667 1.13334,-2.43334 2.18334,-2.43334 1.25,0 2.3,0.9 2.3,2.43334 z"
         style="font-weight:500;font-size:16.6667px;font-family:'Jost*';-inkscape-font-specification:'Jost*, Medium';fill:#1a1a1a"
         id="path2370" /><path
         d="m 536.10824,334.5229 c 0.33334,-0.25 1.25001,-0.71666 2.33334,-0.71666 0.95,0 1.63334,0.33333 1.63334,1.26667 v 0.93333 c -0.48333,-0.26667 -1.21667,-0.53333 -2.21667,-0.53333 -1.90001,0 -3.00001,0.95 -3.00001,2.43333 0,1.56667 1.23334,2.45001 2.68334,2.45001 0.98334,0 2.05001,-0.4 2.53334,-1.21667 v 1.05 h 1.76667 v -5.46668 c 0,-1.51666 -1.35,-2.38333 -3.21667,-2.38333 -1.43334,0 -2.55001,0.5 -3.25001,0.91667 z m 0.56667,3.28334 c 0,-0.71666 0.48334,-1.15 1.61667,-1.15 0.65,0 1.23334,0.11667 1.78334,0.36667 v 0.11667 c 0,1.16667 -0.9,1.86667 -1.96667,1.86667 -0.83334,0 -1.43334,-0.43334 -1.43334,-1.20001 z"
         style="font-weight:500;font-size:16.6667px;font-family:'Jost*';-inkscape-font-specification:'Jost*, Medium';fill:#1a1a1a"
         id="path2372" /><path
         d="m 548.87493,335.52291 v 4.66667 h 1.85001 v -4.88334 c 0,-1.83334 -0.93334,-2.95001 -2.66667,-2.95001 -1.05001,0 -1.81668,0.45 -2.30001,1.35001 v -1.18334 h -1.81667 v 7.66668 h 1.81667 v -4.66667 c 0,-1.05001 0.66667,-1.71667 1.7,-1.71667 0.96667,0 1.41667,0.6 1.41667,1.71667 z"
         style="font-weight:500;font-size:16.6667px;font-family:'Jost*';-inkscape-font-specification:'Jost*, Medium';fill:#1a1a1a"
         id="path2374" /><path
         d="m 557.54162,332.5229 -2.81668,2.70001 v -8.03335 h -1.76667 v 13.00002 h 1.76667 v -3.88334 l 3.16668,3.88334 h 2.2 l -3.65001,-4.50001 3.31668,-3.16667 z"
         style="font-weight:500;font-size:16.6667px;font-family:'Jost*';-inkscape-font-specification:'Jost*, Medium';fill:#1a1a1a"
         id="path2376" /><path
         d="m 564.35832,340.35625 c 1.76667,0 3.03334,-0.68334 3.85001,-2.08334 l -1.56667,-0.61667 c -0.48334,0.81667 -1.21667,1.21667 -2.20001,1.21667 -1.25,0 -2.03333,-0.75 -2.15,-2.1 h 5.96668 c 0,-0.0833 0.0167,-0.3 0.0167,-0.5 0,-2.45001 -1.41667,-3.91668 -3.83334,-3.91668 -2.43334,0 -4.00001,1.58334 -4.00001,4.00001 0,2.40001 1.55001,4.00001 3.91668,4.00001 z m 0.0667,-6.63335 c 1.08333,0 1.8,0.71667 1.88333,1.80001 h -3.96667 c 0.21667,-1.16667 0.93333,-1.78334 2.08334,-1.80001 z"
         style="font-weight:500;font-size:16.6667px;font-family:'Jost*';-inkscape-font-specification:'Jost*, Medium';fill:#1a1a1a"
         id="path2378" /><path
         d="m 574.94167,335.52291 v 4.66667 h 1.85 v -4.88334 c 0,-1.83334 -0.93333,-2.95001 -2.66667,-2.95001 -1.05,0 -1.81667,0.45 -2.30001,1.35001 v -1.18334 h -1.81667 v 7.66668 h 1.81667 v -4.66667 c 0,-1.05001 0.66667,-1.71667 1.70001,-1.71667 0.96667,0 1.41667,0.6 1.41667,1.71667 z"
         style="font-weight:500;font-size:16.6667px;font-family:'Jost*';-inkscape-font-specification:'Jost*, Medium';fill:#1a1a1a"
         id="path2380" /><path
         d="m 579.44167,328.52289 -0.78334,5.11668 h 1.20001 l 1.6,-5.11668 z"
         style="font-weight:500;font-size:16.6667px;font-family:'Jost*';-inkscape-font-specification:'Jost*, Medium';fill:#1a1a1a"
         id="path2382" /><path
         d="m 582.17501,337.65624 -1.05,1.06667 c 0.66667,0.86667 1.83334,1.70001 3.43334,1.70001 1.66667,0 2.73334,-0.95001 2.73334,-2.40001 0,-1.38333 -1.06667,-1.9 -2.35,-2.41667 -0.93334,-0.36667 -1.66667,-0.63333 -1.66667,-1.2 0,-0.43334 0.38333,-0.65 0.9,-0.65 0.75,0 1.5,0.43333 2,1.01666 l 1,-1.06666 c -0.63333,-0.76667 -1.71667,-1.35001 -2.96667,-1.35001 -1.41667,0 -2.63334,0.7 -2.63334,2.08334 0,1.38334 1.13334,1.96667 2.18334,2.33334 1.01667,0.36667 1.71667,0.66667 1.71667,1.35 0,0.5 -0.38333,0.81667 -1.03334,0.81667 -0.78333,0 -1.51666,-0.45 -2.26667,-1.28334 z"
         style="font-weight:500;font-size:16.6667px;font-family:'Jost*';-inkscape-font-specification:'Jost*, Medium';fill:#1a1a1a"
         id="path2384" /><path
         d="m 593.30835,336.35624 c 0,2.51667 1.73334,4.00001 3.73334,4.00001 1.11667,0 2.05001,-0.51667 2.61667,-1.45 v 1.28333 h 1.81667 v -13.00002 h -1.81667 v 6.61668 c -0.56666,-0.93334 -1.5,-1.45001 -2.61667,-1.45001 -2,0 -3.73334,1.46667 -3.73334,4.00001 z m 1.86667,0 c 0,-1.53334 1.05,-2.43334 2.30001,-2.43334 1.05,0 2.18333,0.86667 2.18333,2.43334 0,1.55 -1.13333,2.43334 -2.18333,2.43334 -1.25001,0 -2.30001,-0.9 -2.30001,-2.43334 z"
         style="font-weight:500;font-size:16.6667px;font-family:'Jost*';-inkscape-font-specification:'Jost*, Medium';fill:#1a1a1a"
         id="path2386" /><path
         d="m 604.27505,334.5229 c 0.33333,-0.25 1.25,-0.71666 2.33334,-0.71666 0.95,0 1.63333,0.33333 1.63333,1.26667 v 0.93333 c -0.48333,-0.26667 -1.21666,-0.53333 -2.21667,-0.53333 -1.9,0 -3,0.95 -3,2.43333 0,1.56667 1.23333,2.45001 2.68334,2.45001 0.98333,0 2.05,-0.4 2.53333,-1.21667 v 1.05 h 1.76668 v -5.46668 c 0,-1.51666 -1.35001,-2.38333 -3.21668,-2.38333 -1.43333,0 -2.55,0.5 -3.25,0.91667 z m 0.56667,3.28334 c 0,-0.71666 0.48333,-1.15 1.61667,-1.15 0.65,0 1.23333,0.11667 1.78333,0.36667 v 0.11667 c 0,1.16667 -0.9,1.86667 -1.96667,1.86667 -0.83333,0 -1.43333,-0.43334 -1.43333,-1.20001 z"
         style="font-weight:500;font-size:16.6667px;font-family:'Jost*';-inkscape-font-specification:'Jost*, Medium';fill:#1a1a1a"
         id="path2388" /><path
         d="m 611.04172,332.5229 v 1.58334 h 1.30001 v 6.08334 h 1.76667 v -6.08334 h 1.28333 v -1.58334 h -1.28333 v -2.66667 h -1.76667 v 2.66667 z"
         style="font-weight:500;font-size:16.6667px;font-family:'Jost*';-inkscape-font-specification:'Jost*, Medium';fill:#1a1a1a"
         id="path2390" /><path
         d="m 617.19174,334.5229 c 0.33333,-0.25 1.25,-0.71666 2.33334,-0.71666 0.95,0 1.63333,0.33333 1.63333,1.26667 v 0.93333 c -0.48333,-0.26667 -1.21667,-0.53333 -2.21667,-0.53333 -1.9,0 -3.00001,0.95 -3.00001,2.43333 0,1.56667 1.23334,2.45001 2.68334,2.45001 0.98334,0 2.05001,-0.4 2.53334,-1.21667 v 1.05 h 1.76667 v -5.46668 c 0,-1.51666 -1.35,-2.38333 -3.21667,-2.38333 -1.43334,0 -2.55001,0.5 -3.25001,0.91667 z m 0.56667,3.28334 c 0,-0.71666 0.48333,-1.15 1.61667,-1.15 0.65,0 1.23333,0.11667 1.78333,0.36667 v 0.11667 c 0,1.16667 -0.9,1.86667 -1.96667,1.86667 -0.83333,0 -1.43333,-0.43334 -1.43333,-1.20001 z"
         style="font-weight:500;font-size:16.6667px;font-family:'Jost*';-inkscape-font-specification:'Jost*, Medium';fill:#1a1a1a"
         id="path2392" /><path
         d="m 631.77508,343.85626 v -4.95001 c 0.55,0.95 1.46667,1.48333 2.61667,1.48333 2.00001,0 3.73334,-1.46667 3.73334,-4.03334 0,-2.56667 -1.73333,-4.05001 -3.73334,-4.05001 -1.15,0 -2.06667,0.55 -2.61667,1.50001 v -1.28334 h -1.81667 v 11.33336 z m 4.48334,-7.50002 c 0,1.53334 -1.05,2.40001 -2.3,2.40001 -1.05,0 -2.18334,-0.85001 -2.18334,-2.40001 0,-1.56667 1.13334,-2.4 2.18334,-2.4 1.25,0 2.3,0.86666 2.3,2.4 z"
         style="font-weight:500;font-size:16.6667px;font-family:'Jost*';-inkscape-font-specification:'Jost*, Medium';fill:#1a1a1a"
         id="path2394" /><path
         d="m 639.84177,327.18956 v 13.00002 h 1.81668 v -13.00002 z"
         style="font-weight:500;font-size:16.6667px;font-family:'Jost*';-inkscape-font-specification:'Jost*, Medium';fill:#1a1a1a"
         id="path2396" /><path
         d="m 644.50846,334.5229 c 0.33334,-0.25 1.25001,-0.71666 2.33334,-0.71666 0.95,0 1.63334,0.33333 1.63334,1.26667 v 0.93333 c -0.48334,-0.26667 -1.21667,-0.53333 -2.21667,-0.53333 -1.90001,0 -3.00001,0.95 -3.00001,2.43333 0,1.56667 1.23334,2.45001 2.68334,2.45001 0.98334,0 2.05,-0.4 2.53334,-1.21667 v 1.05 h 1.76667 v -5.46668 c 0,-1.51666 -1.35,-2.38333 -3.21667,-2.38333 -1.43334,0 -2.55001,0.5 -3.25001,0.91667 z m 0.56667,3.28334 c 0,-0.71666 0.48334,-1.15 1.61667,-1.15 0.65,0 1.23334,0.11667 1.78334,0.36667 v 0.11667 c 0,1.16667 -0.9,1.86667 -1.96667,1.86667 -0.83334,0 -1.43334,-0.43334 -1.43334,-1.20001 z"
         style="font-weight:500;font-size:16.6667px;font-family:'Jost*';-inkscape-font-specification:'Jost*, Medium';fill:#1a1a1a"
         id="path2398" /><path
         d="m 651.27514,332.5229 v 1.58334 h 1.3 v 6.08334 h 1.76667 v -6.08334 h 1.28334 v -1.58334 h -1.28334 v -2.66667 h -1.76667 v 2.66667 z"
         style="font-weight:500;font-size:16.6667px;font-family:'Jost*';-inkscape-font-specification:'Jost*, Medium';fill:#1a1a1a"
         id="path2400" /><path
         d="m 656.22515,332.5229 v 1.58334 h 0.83333 v 6.08334 h 1.78334 v -6.08334 h 1.78334 v -1.58334 h -1.78334 v -2.48334 c 0,-0.96667 0.3,-1.35 0.8,-1.35 0.26667,0 0.56667,0.0833 0.8,0.43333 l 0.83334,-1.4 c -0.28334,-0.33333 -0.83334,-0.75 -1.71667,-0.75 -1.61667,0 -2.50001,0.93333 -2.50001,2.71667 v 2.83334 z"
         style="font-weight:500;font-size:16.6667px;font-family:'Jost*';-inkscape-font-specification:'Jost*, Medium';fill:#1a1a1a"
         id="path2402" /><path
         d="m 661.42516,336.35624 c 0,2.35001 1.78333,4.00001 4.13334,4.00001 2.35,0 4.13334,-1.65 4.13334,-4.00001 0,-2.36667 -1.78334,-4.00001 -4.13334,-4.00001 -2.35001,0 -4.13334,1.63334 -4.13334,4.00001 z m 1.85,0 c 0,-1.43333 0.98334,-2.41667 2.28334,-2.41667 1.28334,0 2.28334,0.98334 2.28334,2.41667 0,1.43334 -1,2.41667 -2.28334,2.41667 -1.3,0 -2.28334,-0.98333 -2.28334,-2.41667 z"
         style="font-weight:500;font-size:16.6667px;font-family:'Jost*';-inkscape-font-specification:'Jost*, Medium';fill:#1a1a1a"
         id="path2404" /><path
         d="m 675.47516,334.43957 0.88334,-1.51667 c -0.35,-0.4 -0.86667,-0.58333 -1.41667,-0.58333 -0.65,0 -1.30001,0.41666 -1.75001,1.1 v -0.91667 h -1.78333 v 7.66668 h 1.78333 v -4.31667 c 0,-1.10001 0.36667,-1.83334 1.26667,-1.83334 0.43334,0 0.68334,0.13333 1.01667,0.4 z"
         style="font-weight:500;font-size:16.6667px;font-family:'Jost*';-inkscape-font-specification:'Jost*, Medium';fill:#1a1a1a"
         id="path2406" /><path
         d="m 688.57519,335.30624 c 0,-1.86667 -0.8,-2.95001 -2.45,-2.95001 -1.03334,0 -1.85001,0.46667 -2.40001,1.36667 -0.33333,-0.88333 -1.08333,-1.36667 -2.2,-1.36667 -1,0 -1.71667,0.43334 -2.16667,1.28334 v -1.11667 h -1.76667 v 7.66668 h 1.76667 v -4.66667 c 0,-1.10001 0.6,-1.71667 1.51667,-1.71667 0.88333,0 1.28333,0.55 1.28333,1.71667 v 4.66667 h 1.80001 v -4.66667 c 0,-1.10001 0.6,-1.71667 1.53333,-1.71667 0.86667,0 1.26667,0.55 1.26667,1.71667 v 4.66667 h 1.81667 z"
         style="font-weight:500;font-size:16.6667px;font-family:'Jost*';-inkscape-font-specification:'Jost*, Medium';fill:#1a1a1a"
         id="path2408" /></g></g></svg>
