<?xml version="1.0" encoding="UTF-8" standalone="no"?>
<!-- Created with Inkscape (http://www.inkscape.org/) -->

<svg
   width="63.35244mm"
   height="15.274075mm"
   viewBox="0 0 63.35244 15.274075"
   version="1.1"
   id="svg1047"
   xmlns:inkscape="http://www.inkscape.org/namespaces/inkscape"
   xmlns:sodipodi="http://sodipodi.sourceforge.net/DTD/sodipodi-0.dtd"
   xmlns="http://www.w3.org/2000/svg"
   xmlns:svg="http://www.w3.org/2000/svg">
  <sodipodi:namedview
     id="namedview1049"
     pagecolor="#ffffff"
     bordercolor="#000000"
     borderopacity="0.25"
     inkscape:showpageshadow="2"
     inkscape:pageopacity="0.0"
     inkscape:pagecheckerboard="0"
     inkscape:deskcolor="#d1d1d1"
     inkscape:document-units="mm"
     showgrid="false" />
  <defs
     id="defs1044" />
  <g
     inkscape:label="Layer 1"
     inkscape:groupmode="layer"
     id="layer1"
     transform="translate(-119.18139,-40.322589)">
    <g
       aria-label="Saldo"
       transform="matrix(0.26458333,0,0,0.26458333,74.816407,-4.7151264)"
       id="text825-4-5-8-7-9-5-2-2"
       style="font-weight:300;font-size:53.3333px;font-family:'Jost*';-inkscape-font-specification:'Jost*, Light';white-space:pre">
      <path
         d="m 170.0787,201.04792 -2.4,1.49334 c 1.76,5.22666 5.91999,9.75999 12.37332,9.75999 6.08,0 10.82666,-4.10666 10.82666,-10.18666 0,-6.56 -5.11999,-9.38666 -9.27999,-10.87999 -6.02666,-2.13334 -9.06666,-4.42667 -9.06666,-8.53333 0,-3.36 2.4,-5.86666 6.77333,-5.86666 4.85333,0 7.25333,3.25333 8.53332,6.07999 l 2.56,-1.44 c -1.49333,-3.57333 -5.01333,-7.46666 -10.93332,-7.46666 -5.86667,0 -10.02666,3.68 -10.02666,9.06666 0,6.34666 5.59999,8.85333 9.91999,10.45333 4.26666,1.6 8.47999,3.52 8.47999,8.90666 0,4.10666 -2.93333,7.09333 -7.73332,7.09333 -5.38667,0 -8.26667,-3.78666 -10.02666,-8.48 z"
         id="path1418" />
      <path
         d="m 198.02535,191.76793 c 1.33334,-1.01333 3.78667,-2.56 7.46667,-2.56 4.74666,0 6.29333,2.77333 6.29333,5.6 v 4.10666 c -1.44,-0.96 -3.94667,-2.08 -7.46667,-2.08 -5.70666,0 -9.22666,2.98667 -9.22666,7.73333 0,5.17333 4.05333,7.78666 8.26666,7.78666 3.36,0 6.98667,-1.65333 8.42667,-5.11999 v 4.58666 h 2.77333 V 194.4346 c 0,-4.90667 -3.30667,-7.68 -8.85333,-7.68 -4.32,0 -7.25333,1.65333 -9.06666,2.93333 z m -0.10666,12.69333 c 0,-3.68 2.66666,-5.38667 6.82666,-5.38667 2.56,0 4.90666,0.58667 7.04,1.81333 v 0.69334 c 0,5.49333 -3.57334,8.37333 -7.68,8.37333 -3.41333,0 -6.18666,-1.76 -6.18666,-5.49333 z"
         id="path1420" />
      <path
         d="m 222.1853,170.22128 v 41.59997 h 2.77334 v -41.59997 z"
         id="path1422" />
      <path
         d="m 231.25192,199.55459 c 0,7.89333 5.27999,12.79999 11.83999,12.79999 4.21333,0 7.46666,-2.45333 9.11999,-6.29333 v 5.76 h 2.77333 v -41.59997 h -2.77333 v 22.82665 c -1.65333,-3.84 -4.90666,-6.29333 -9.11999,-6.29333 -6.56,0 -11.83999,4.90666 -11.83999,12.79999 z m 2.82666,0 c 0,-6.39999 4.21333,-10.18666 9.38666,-10.18666 4.58667,0 8.74666,4.32 8.74666,10.18666 0,5.86667 -4.15999,10.18666 -8.74666,10.18666 -5.17333,0 -9.38666,-3.78666 -9.38666,-10.18666 z"
         id="path1424" />
      <path
         d="m 261.01193,199.55459 c 0,7.41333 5.44,12.79999 12.58666,12.79999 7.14666,0 12.58666,-5.38666 12.58666,-12.79999 0,-7.41333 -5.44,-12.79999 -12.58666,-12.79999 -7.14666,0 -12.58666,5.38666 -12.58666,12.79999 z m 2.82666,0 c 0,-5.91999 4.21334,-10.18666 9.76,-10.18666 5.54666,0 9.75999,4.26667 9.75999,10.18666 0,5.92 -4.21333,10.18666 -9.75999,10.18666 -5.54666,0 -9.76,-4.26666 -9.76,-10.18666 z"
         id="path1426" />
    </g>
    <g
       aria-label="Swedish Associative Thesaurus 2"
       transform="matrix(0.26458333,0,0,0.26458333,-8.4843367,-34.597036)"
       id="text10963-5-3-2-9"
       style="font-weight:300;font-size:49.3333px;font-family:'Open Sans';-inkscape-font-specification:'Open Sans, Light';white-space:pre;fill:#f0581a">
      <path
         d="m 484.25808,336.42291 -1.46667,1.03333 c 0.76667,1.60001 2.41667,2.98334 4.46667,2.98334 1.98334,0 3.88334,-1.3 3.88334,-3.48334 0,-2.03333 -1.56667,-3.01667 -2.96667,-3.5 -1.88334,-0.65001 -2.65,-1.23334 -2.65,-2.13334 0,-0.66667 0.5,-1.25 1.58333,-1.25 1.18334,0 1.88334,0.76666 2.36667,1.63333 l 1.58334,-0.9 c -0.6,-1.21667 -1.85,-2.5 -3.91667,-2.5 -2.10001,0 -3.66668,1.28333 -3.66668,3.15 0,2.16667 1.95001,3.00001 3.10001,3.41668 1.48333,0.55 2.48334,0.95 2.48334,2.23333 0,0.93334 -0.71667,1.56667 -1.80001,1.56667 -1.31667,0 -2.25,-0.88333 -3,-2.25 z"
         style="-inkscape-font-specification:'Jost*, Medium';fill:#1a1a1a"
         id="path1439" />
      <path
         d="m 491.84143,332.5229 3.58334,8.20002 2.30001,-5.16668 2.41667,5.16668 3.58334,-8.20002 h -1.96667 l -1.8,4.58334 -2.23334,-5.16667 -2.13334,5.15001 -1.78334,-4.56668 z"
         style="-inkscape-font-specification:'Jost*, Medium';fill:#1a1a1a"
         id="path1441" />
      <path
         d="m 507.95813,340.35625 c 1.76667,0 3.03334,-0.68334 3.85001,-2.08334 l -1.56667,-0.61667 c -0.48334,0.81667 -1.21667,1.21667 -2.20001,1.21667 -1.25,0 -2.03333,-0.75 -2.15,-2.1 h 5.96668 c 0,-0.0833 0.0167,-0.3 0.0167,-0.5 0,-2.45001 -1.41667,-3.91668 -3.83335,-3.91668 -2.43333,0 -4,1.58334 -4,4.00001 0,2.40001 1.55,4.00001 3.91667,4.00001 z m 0.0667,-6.63335 c 1.08333,0 1.8,0.71667 1.88334,1.80001 h -3.96668 c 0.21667,-1.16667 0.93334,-1.78334 2.08334,-1.80001 z"
         style="-inkscape-font-specification:'Jost*, Medium';fill:#1a1a1a"
         id="path1443" />
      <path
         d="m 513.0248,336.35624 c 0,2.51667 1.73334,4.00001 3.73334,4.00001 1.11667,0 2.05001,-0.51667 2.61667,-1.45 v 1.28333 h 1.81667 v -13.00002 h -1.81667 v 6.61668 c -0.56666,-0.93334 -1.5,-1.45001 -2.61667,-1.45001 -2,0 -3.73334,1.46667 -3.73334,4.00001 z m 1.86667,0 c 0,-1.53334 1.05,-2.43334 2.30001,-2.43334 1.05,0 2.18333,0.86667 2.18333,2.43334 0,1.55 -1.13333,2.43334 -2.18333,2.43334 -1.25001,0 -2.30001,-0.9 -2.30001,-2.43334 z"
         style="-inkscape-font-specification:'Jost*, Medium';fill:#1a1a1a"
         id="path1445" />
      <path
         d="m 523.35817,329.47289 c 0,0.61667 0.51667,1.10001 1.13333,1.10001 0.63334,0 1.15001,-0.48334 1.15001,-1.10001 0,-0.61666 -0.51667,-1.1 -1.15001,-1.1 -0.61666,0 -1.13333,0.48334 -1.13333,1.1 z m 0.25,3.05001 v 7.66668 h 1.78334 v -7.66668 z"
         style="-inkscape-font-specification:'Jost*, Medium';fill:#1a1a1a"
         id="path1447" />
      <path
         d="m 528.22485,337.65624 -1.05,1.06667 c 0.66666,0.86667 1.83333,1.70001 3.43334,1.70001 1.66667,0 2.73334,-0.95001 2.73334,-2.40001 0,-1.38333 -1.06667,-1.9 -2.35001,-2.41667 -0.93333,-0.36667 -1.66667,-0.63333 -1.66667,-1.2 0,-0.43334 0.38334,-0.65 0.9,-0.65 0.75,0 1.50001,0.43333 2.00001,1.01666 l 1,-1.06666 c -0.63334,-0.76667 -1.71667,-1.35001 -2.96667,-1.35001 -1.41667,0 -2.63334,0.7 -2.63334,2.08334 0,1.38334 1.13333,1.96667 2.18334,2.33334 1.01666,0.36667 1.71667,0.66667 1.71667,1.35 0,0.5 -0.38334,0.81667 -1.03334,0.81667 -0.78333,0 -1.51667,-0.45 -2.26667,-1.28334 z"
         style="-inkscape-font-specification:'Jost*, Medium';fill:#1a1a1a"
         id="path1449" />
      <path
         d="m 539.87487,335.52291 v 4.66667 h 1.81667 v -4.91667 c 0,-1.95001 -0.93334,-2.96668 -2.63334,-2.96668 -1.05,0 -1.85,0.53334 -2.3,1.36667 v -6.48334 h -1.81667 v 13.00002 h 1.81667 v -4.66667 c 0,-1.01667 0.66666,-1.71667 1.7,-1.71667 0.96667,0 1.41667,0.6 1.41667,1.71667 z"
         style="-inkscape-font-specification:'Jost*, Medium';fill:#1a1a1a"
         id="path1451" />
      <path
         d="m 557.07487,340.18958 h 2.23334 l -5.71668,-12.31669 -5.70001,12.31669 h 2.21667 l 1.33334,-3 h 4.28334 z m -3.48334,-8.36668 1.60001,3.70001 h -3.18334 z"
         style="-inkscape-font-specification:'Jost*, Medium';fill:#1a1a1a"
         id="path1453" />
      <path
         d="m 560.84156,337.65624 -1.05,1.06667 c 0.66667,0.86667 1.83334,1.70001 3.43334,1.70001 1.66667,0 2.73334,-0.95001 2.73334,-2.40001 0,-1.38333 -1.06667,-1.9 -2.35,-2.41667 -0.93334,-0.36667 -1.66667,-0.63333 -1.66667,-1.2 0,-0.43334 0.38333,-0.65 0.9,-0.65 0.75,0 1.5,0.43333 2,1.01666 l 1,-1.06666 c -0.63333,-0.76667 -1.71667,-1.35001 -2.96667,-1.35001 -1.41667,0 -2.63334,0.7 -2.63334,2.08334 0,1.38334 1.13334,1.96667 2.18334,2.33334 1.01667,0.36667 1.71667,0.66667 1.71667,1.35 0,0.5 -0.38333,0.81667 -1.03334,0.81667 -0.78333,0 -1.51667,-0.45 -2.26667,-1.28334 z"
         style="-inkscape-font-specification:'Jost*, Medium';fill:#1a1a1a"
         id="path1455" />
      <path
         d="m 567.90824,337.65624 -1.05001,1.06667 c 0.66667,0.86667 1.83334,1.70001 3.43334,1.70001 1.66667,0 2.73334,-0.95001 2.73334,-2.40001 0,-1.38333 -1.06667,-1.9 -2.35,-2.41667 -0.93334,-0.36667 -1.66667,-0.63333 -1.66667,-1.2 0,-0.43334 0.38333,-0.65 0.9,-0.65 0.75,0 1.5,0.43333 2,1.01666 l 1.00001,-1.06666 c -0.63334,-0.76667 -1.71667,-1.35001 -2.96668,-1.35001 -1.41667,0 -2.63333,0.7 -2.63333,2.08334 0,1.38334 1.13333,1.96667 2.18333,2.33334 1.01667,0.36667 1.71667,0.66667 1.71667,1.35 0,0.5 -0.38333,0.81667 -1.03333,0.81667 -0.78334,0 -1.51667,-0.45 -2.26667,-1.28334 z"
         style="-inkscape-font-specification:'Jost*, Medium';fill:#1a1a1a"
         id="path1457" />
      <path
         d="m 574.04158,336.35624 c 0,2.35001 1.78334,4.00001 4.13334,4.00001 2.35001,0 4.13335,-1.65 4.13335,-4.00001 0,-2.36667 -1.78334,-4.00001 -4.13335,-4.00001 -2.35,0 -4.13334,1.63334 -4.13334,4.00001 z m 1.85001,0 c 0,-1.43333 0.98333,-2.41667 2.28333,-2.41667 1.28334,0 2.28334,0.98334 2.28334,2.41667 0,1.43334 -1,2.41667 -2.28334,2.41667 -1.3,0 -2.28333,-0.98333 -2.28333,-2.41667 z"
         style="-inkscape-font-specification:'Jost*, Medium';fill:#1a1a1a"
         id="path1459" />
      <path
         d="m 585.22492,336.35624 c 0,-1.41667 1.03334,-2.45 2.38334,-2.45 1.06667,0 2.11667,0.55 2.5,1.3 v -2 c -0.53333,-0.51667 -1.48333,-0.85001 -2.58333,-0.85001 -2.36668,0 -4.15001,1.63334 -4.15001,4.00001 0,2.35001 1.78333,4.00001 4.15001,4.00001 1.1,0 2.05,-0.31667 2.58333,-0.86667 v -1.98334 c -0.38333,0.73334 -1.38333,1.30001 -2.5,1.30001 -1.35,0 -2.38334,-1.00001 -2.38334,-2.45001 z"
         style="-inkscape-font-specification:'Jost*, Medium';fill:#1a1a1a"
         id="path1461" />
      <path
         d="m 592.02492,329.47289 c 0,0.61667 0.51667,1.10001 1.13334,1.10001 0.63334,0 1.15,-0.48334 1.15,-1.10001 0,-0.61666 -0.51666,-1.1 -1.15,-1.1 -0.61667,0 -1.13334,0.48334 -1.13334,1.1 z m 0.25001,3.05001 v 7.66668 h 1.78333 v -7.66668 z"
         style="-inkscape-font-specification:'Jost*, Medium';fill:#1a1a1a"
         id="path1463" />
      <path
         d="m 597.10827,334.5229 c 0.33334,-0.25 1.25,-0.71666 2.33334,-0.71666 0.95,0 1.63334,0.33333 1.63334,1.26667 v 0.93333 c -0.48334,-0.26667 -1.21667,-0.53333 -2.21667,-0.53333 -1.90001,0 -3.00001,0.95 -3.00001,2.43333 0,1.56667 1.23333,2.45001 2.68334,2.45001 0.98333,0 2.05,-0.4 2.53334,-1.21667 v 1.05 h 1.76667 v -5.46668 c 0,-1.51666 -1.35001,-2.38333 -3.21668,-2.38333 -1.43333,0 -2.55,0.5 -3.25,0.91667 z m 0.56667,3.28334 c 0,-0.71666 0.48333,-1.15 1.61667,-1.15 0.65,0 1.23334,0.11667 1.78334,0.36667 v 0.11667 c 0,1.16667 -0.90001,1.86667 -1.96667,1.86667 -0.83334,0 -1.43334,-0.43334 -1.43334,-1.20001 z"
         style="-inkscape-font-specification:'Jost*, Medium';fill:#1a1a1a"
         id="path1465" />
      <path
         d="m 603.87494,332.5229 v 1.58334 h 1.30001 v 6.08334 h 1.76667 v -6.08334 h 1.28333 v -1.58334 h -1.28333 v -2.66667 h -1.76667 v 2.66667 z"
         style="-inkscape-font-specification:'Jost*, Medium';fill:#1a1a1a"
         id="path1467" />
      <path
         d="m 609.39162,329.47289 c 0,0.61667 0.51667,1.10001 1.13334,1.10001 0.63333,0 1.15,-0.48334 1.15,-1.10001 0,-0.61666 -0.51667,-1.1 -1.15,-1.1 -0.61667,0 -1.13334,0.48334 -1.13334,1.1 z m 0.25,3.05001 v 7.66668 h 1.78334 v -7.66668 z"
         style="-inkscape-font-specification:'Jost*, Medium';fill:#1a1a1a"
         id="path1469" />
      <path
         d="m 612.74163,332.5229 3.98335,8.36668 3.96667,-8.36668 h -1.96667 l -2,4.95001 -2.00001,-4.95001 z"
         style="-inkscape-font-specification:'Jost*, Medium';fill:#1a1a1a"
         id="path1471" />
      <path
         d="m 624.90835,340.35625 c 1.76667,0 3.03333,-0.68334 3.85,-2.08334 l -1.56667,-0.61667 c -0.48333,0.81667 -1.21667,1.21667 -2.2,1.21667 -1.25,0 -2.03334,-0.75 -2.15001,-2.1 h 5.96668 c 0,-0.0833 0.0167,-0.3 0.0167,-0.5 0,-2.45001 -1.41667,-3.91668 -3.83334,-3.91668 -2.43334,0 -4.00001,1.58334 -4.00001,4.00001 0,2.40001 1.55,4.00001 3.91668,4.00001 z m 0.0667,-6.63335 c 1.08334,0 1.80001,0.71667 1.88334,1.80001 h -3.96668 c 0.21667,-1.16667 0.93334,-1.78334 2.08334,-1.80001 z"
         style="-inkscape-font-specification:'Jost*, Medium';fill:#1a1a1a"
         id="path1473" />
      <path
         d="m 634.54167,330.33956 h 3.08334 v 9.85002 h 1.96667 v -9.85002 h 3.08334 v -1.81667 h -8.13335 z"
         style="-inkscape-font-specification:'Jost*, Medium';fill:#1a1a1a"
         id="path1475" />
      <path
         d="m 648.8917,335.52291 v 4.66667 h 1.81667 v -4.91667 c 0,-1.95001 -0.93334,-2.96668 -2.63334,-2.96668 -1.05001,0 -1.85001,0.53334 -2.30001,1.36667 v -6.48334 h -1.81667 v 13.00002 h 1.81667 v -4.66667 c 0,-1.01667 0.66667,-1.71667 1.70001,-1.71667 0.96666,0 1.41667,0.6 1.41667,1.71667 z"
         style="-inkscape-font-specification:'Jost*, Medium';fill:#1a1a1a"
         id="path1477" />
      <path
         d="m 656.3417,340.35625 c 1.76667,0 3.03333,-0.68334 3.85,-2.08334 l -1.56667,-0.61667 c -0.48333,0.81667 -1.21667,1.21667 -2.2,1.21667 -1.25,0 -2.03334,-0.75 -2.15001,-2.1 h 5.96668 c 0,-0.0833 0.0167,-0.3 0.0167,-0.5 0,-2.45001 -1.41667,-3.91668 -3.83334,-3.91668 -2.43334,0 -4.00001,1.58334 -4.00001,4.00001 0,2.40001 1.55,4.00001 3.91668,4.00001 z m 0.0667,-6.63335 c 1.08334,0 1.80001,0.71667 1.88334,1.80001 h -3.96668 c 0.21667,-1.16667 0.93334,-1.78334 2.08334,-1.80001 z"
         style="-inkscape-font-specification:'Jost*, Medium';fill:#1a1a1a"
         id="path1479" />
      <path
         d="m 662.34171,337.65624 -1.05,1.06667 c 0.66666,0.86667 1.83333,1.70001 3.43334,1.70001 1.66667,0 2.73334,-0.95001 2.73334,-2.40001 0,-1.38333 -1.06667,-1.9 -2.35001,-2.41667 -0.93333,-0.36667 -1.66667,-0.63333 -1.66667,-1.2 0,-0.43334 0.38333,-0.65 0.9,-0.65 0.75,0 1.50001,0.43333 2.00001,1.01666 l 1,-1.06666 c -0.63334,-0.76667 -1.71667,-1.35001 -2.96667,-1.35001 -1.41667,0 -2.63334,0.7 -2.63334,2.08334 0,1.38334 1.13333,1.96667 2.18333,2.33334 1.01667,0.36667 1.71668,0.66667 1.71668,1.35 0,0.5 -0.38334,0.81667 -1.03334,0.81667 -0.78334,0 -1.51667,-0.45 -2.26667,-1.28334 z"
         style="-inkscape-font-specification:'Jost*, Medium';fill:#1a1a1a"
         id="path1481" />
      <path
         d="m 669.62506,334.5229 c 0.33333,-0.25 1.25,-0.71666 2.33333,-0.71666 0.95001,0 1.63334,0.33333 1.63334,1.26667 v 0.93333 c -0.48333,-0.26667 -1.21667,-0.53333 -2.21667,-0.53333 -1.9,0 -3.00001,0.95 -3.00001,2.43333 0,1.56667 1.23334,2.45001 2.68334,2.45001 0.98334,0 2.05001,-0.4 2.53334,-1.21667 v 1.05 h 1.76667 v -5.46668 c 0,-1.51666 -1.35,-2.38333 -3.21667,-2.38333 -1.43334,0 -2.55001,0.5 -3.25001,0.91667 z m 0.56666,3.28334 c 0,-0.71666 0.48334,-1.15 1.61667,-1.15 0.65001,0 1.23334,0.11667 1.78334,0.36667 v 0.11667 c 0,1.16667 -0.9,1.86667 -1.96667,1.86667 -0.83333,0 -1.43334,-0.43334 -1.43334,-1.20001 z"
         style="-inkscape-font-specification:'Jost*, Medium';fill:#1a1a1a"
         id="path1483" />
      <path
         d="m 679.3084,337.18958 v -4.66668 h -1.85 v 4.86668 c 0,1.83333 0.95,2.96667 2.66667,2.96667 1.06667,0 1.81667,-0.46667 2.31667,-1.35 v 1.18333 h 1.8 v -7.66668 h -1.8 v 4.66668 c 0,1.03333 -0.68333,1.71667 -1.7,1.71667 -0.96667,0 -1.43334,-0.61667 -1.43334,-1.71667 z"
         style="-inkscape-font-specification:'Jost*, Medium';fill:#1a1a1a"
         id="path1485" />
      <path
         d="m 690.60842,334.43957 0.88333,-1.51667 c -0.35,-0.4 -0.86667,-0.58333 -1.41667,-0.58333 -0.65,0 -1.3,0.41666 -1.75,1.1 v -0.91667 h -1.78334 v 7.66668 h 1.78334 v -4.31667 c 0,-1.10001 0.36667,-1.83334 1.26667,-1.83334 0.43333,0 0.68333,0.13333 1.01667,0.4 z"
         style="-inkscape-font-specification:'Jost*, Medium';fill:#1a1a1a"
         id="path1487" />
      <path
         d="m 694.57509,337.18958 v -4.66668 h -1.85 v 4.86668 c 0,1.83333 0.95,2.96667 2.66667,2.96667 1.06667,0 1.81667,-0.46667 2.31667,-1.35 v 1.18333 h 1.80001 v -7.66668 h -1.80001 v 4.66668 c 0,1.03333 -0.68333,1.71667 -1.7,1.71667 -0.96667,0 -1.43334,-0.61667 -1.43334,-1.71667 z"
         style="-inkscape-font-specification:'Jost*, Medium';fill:#1a1a1a"
         id="path1489" />
      <path
         d="m 702.15845,337.65624 -1.05,1.06667 c 0.66667,0.86667 1.83334,1.70001 3.43334,1.70001 1.66667,0 2.73334,-0.95001 2.73334,-2.40001 0,-1.38333 -1.06667,-1.9 -2.35001,-2.41667 -0.93333,-0.36667 -1.66667,-0.63333 -1.66667,-1.2 0,-0.43334 0.38334,-0.65 0.9,-0.65 0.75001,0 1.50001,0.43333 2.00001,1.01666 l 1,-1.06666 c -0.63333,-0.76667 -1.71667,-1.35001 -2.96667,-1.35001 -1.41667,0 -2.63334,0.7 -2.63334,2.08334 0,1.38334 1.13333,1.96667 2.18334,2.33334 1.01667,0.36667 1.71667,0.66667 1.71667,1.35 0,0.5 -0.38334,0.81667 -1.03334,0.81667 -0.78333,0 -1.51667,-0.45 -2.26667,-1.28334 z"
         style="-inkscape-font-specification:'Jost*, Medium';fill:#1a1a1a"
         id="path1491" />
      <path
         d="m 713.05846,340.18958 h 8.90002 v -1.83333 h -5.05001 l 3.30001,-3.25001 c 0.96667,-0.9 1.61667,-2.06667 1.61667,-3.28334 0,-1.55 -1.30001,-3.50001 -4.00001,-3.50001 -2.66667,0 -4.13334,1.83334 -4.13334,4.31668 h 1.95 c 0,-1.55001 0.81667,-2.55001 2.15001,-2.55001 1.28333,0 1.98333,0.93334 1.98333,1.83334 0,0.93333 -0.48333,1.68334 -1.31667,2.58334 z"
         style="-inkscape-font-specification:'Jost*, Medium';fill:#1a1a1a"
         id="path1493" />
    </g>
  </g>
</svg>
