<?xml version="1.0" encoding="UTF-8" standalone="no"?>
<!-- Created with Inkscape (http://www.inkscape.org/) -->

<svg
   width="47.75798mm"
   height="15.089493mm"
   viewBox="0 0 47.75798 15.089493"
   version="1.1"
   id="svg5"
   inkscape:version="1.2.2 (b0a8486541, 2022-12-01)"
   sodipodi:docname="sparv.svg"
   xml:space="preserve"
   inkscape:export-filename="tmp.png"
   inkscape:export-xdpi="171.03999"
   inkscape:export-ydpi="171.03999"
   xmlns:inkscape="http://www.inkscape.org/namespaces/inkscape"
   xmlns:sodipodi="http://sodipodi.sourceforge.net/DTD/sodipodi-0.dtd"
   xmlns="http://www.w3.org/2000/svg"
   xmlns:svg="http://www.w3.org/2000/svg"><sodipodi:namedview
     id="namedview7"
     pagecolor="#ffffff"
     bordercolor="#000000"
     borderopacity="0.25"
     inkscape:showpageshadow="2"
     inkscape:pageopacity="0.0"
     inkscape:pagecheckerboard="0"
     inkscape:deskcolor="#d1d1d1"
     inkscape:document-units="mm"
     showgrid="false"
     inkscape:zoom="1.8816409"
     inkscape:cx="301.06701"
     inkscape:cy="-5.5802358"
     inkscape:window-width="1920"
     inkscape:window-height="1029"
     inkscape:window-x="0"
     inkscape:window-y="27"
     inkscape:window-maximized="1"
     inkscape:current-layer="layer1"
     showguides="true"><inkscape:grid
       type="xygrid"
       id="grid13315" /><sodipodi:guide
       position="-0.11890059,176.42844"
       orientation="1,0"
       id="guide13317"
       inkscape:locked="false" /><sodipodi:guide
       position="-13.348067,172.45969"
       orientation="0,-1"
       id="guide13319"
       inkscape:locked="false" /><sodipodi:guide
       position="103.06859,78.532603"
       orientation="1,0"
       id="guide4551"
       inkscape:locked="false" /></sodipodi:namedview><defs
     id="defs2"><rect
       x="165.33238"
       y="165.66167"
       width="170.87849"
       height="72.536377"
       id="rect827-6-9-4-1-6" /></defs><g
     inkscape:label="Layer 1"
     inkscape:groupmode="layer"
     id="layer1"
     transform="translate(-10.702234,-167.95353)"><g
       aria-label="Sparv"
       transform="matrix(0.26458333,0,0,0.26458333,-33.662754,123.89419)"
       id="text825-4-5-8-7-9"
       style="font-weight:300;font-size:53.3333px;font-family:'Jost*';-inkscape-font-specification:'Jost*, Light';white-space:pre;shape-inside:url(#rect827-6-9-4-1-6);display:inline"><path
         d="m 170.0787,201.04792 -2.4,1.49334 c 1.76,5.22666 5.91999,9.75999 12.37332,9.75999 6.08,0 10.82666,-4.10666 10.82666,-10.18666 0,-6.56 -5.11999,-9.38666 -9.27999,-10.87999 -6.02666,-2.13334 -9.06666,-4.42667 -9.06666,-8.53333 0,-3.36 2.4,-5.86666 6.77333,-5.86666 4.85333,0 7.25333,3.25333 8.53332,6.07999 l 2.56,-1.44 c -1.49333,-3.57333 -5.01333,-7.46666 -10.93332,-7.46666 -5.86667,0 -10.02666,3.68 -10.02666,9.06666 0,6.34666 5.59999,8.85333 9.91999,10.45333 4.26666,1.6 8.47999,3.52 8.47999,8.90666 0,4.10666 -2.93333,7.09333 -7.73332,7.09333 -5.38667,0 -8.26667,-3.78666 -10.02666,-8.48 z"
         id="path5865" /><path
         d="m 199.99869,223.55458 v -17.49333 c 1.65333,3.84 4.90666,6.29333 9.11999,6.29333 6.56,0 11.83999,-4.90666 11.83999,-12.79999 0,-7.89333 -5.27999,-12.79999 -11.83999,-12.79999 -4.21333,0 -7.46666,2.45333 -9.11999,6.29333 v -5.76 h -2.77334 v 36.26665 z m 18.18665,-23.99999 c 0,6.4 -4.21333,10.18666 -9.43999,10.18666 -4.53333,0 -8.74666,-4.31999 -8.74666,-10.18666 0,-5.86666 4.21333,-10.18666 8.74666,-10.18666 5.22666,0 9.43999,3.78667 9.43999,10.18666 z"
         id="path5867" /><path
         d="m 227.78537,191.76793 c 1.33333,-1.01333 3.78666,-2.56 7.46666,-2.56 4.74666,0 6.29333,2.77333 6.29333,5.6 v 4.10666 c -1.44,-0.96 -3.94666,-2.08 -7.46666,-2.08 -5.70667,0 -9.22666,2.98667 -9.22666,7.73333 0,5.17333 4.05333,7.78666 8.26666,7.78666 3.36,0 6.98666,-1.65333 8.42666,-5.11999 v 4.58666 h 2.77333 V 194.4346 c 0,-4.90667 -3.30666,-7.68 -8.85333,-7.68 -4.31999,0 -7.25333,1.65333 -9.06666,2.93333 z m -0.10667,12.69333 c 0,-3.68 2.66667,-5.38667 6.82666,-5.38667 2.56,0 4.90667,0.58667 7.04,1.81333 v 0.69334 c 0,5.49333 -3.57333,8.37333 -7.68,8.37333 -3.41333,0 -6.18666,-1.76 -6.18666,-5.49333 z"
         id="path5869" /><path
         d="m 254.71865,187.28793 h -2.77333 v 24.53332 h 2.77333 v -14.93332 c 0,-4.16 1.33333,-7.52 4.96,-7.52 1.28,0 2.13333,0.37333 3.19999,1.17333 l 1.54667,-2.29333 c -1.12,-1.06666 -2.56,-1.49333 -4.10666,-1.49333 -2.34667,0 -4.37333,1.6 -5.6,4.10666 z"
         id="path5871" /><path
         d="m 266.7187,187.28793 11.30666,25.97332 11.30666,-25.97332 h -3.14666 l -8.16,19.99999 -8.15999,-19.99999 z"
         id="path5873" /></g><path
       id="path3151"
       style="fill:#f0581a;fill-opacity:1;stroke-width:0.0206747"
       d="m 55.32339,167.96562 c -0.767276,-0.0785 -1.490064,0.2282 -1.966272,0.83374 -0.570183,0.48901 -0.927823,1.22498 -1.667216,1.49808 -0.873534,0.34608 -1.634417,1.01403 -1.978151,1.90097 -0.562873,0.44796 -0.315121,1.23696 -1.0528,1.42378 -0.761387,0.4197 -0.952425,1.35017 -1.595179,1.89567 -0.421069,0.53245 -0.748897,0.9688 -1.392845,1.25305 -0.170955,0.16663 -0.523674,0.50137 -0.06476,0.44233 -0.822906,0.58544 -1.758617,0.9941 -2.604434,1.54767 -0.360553,0.17924 -1.081101,0.69429 -0.939916,0.97708 0.856936,-0.25309 1.566996,-0.86166 2.452616,-1.02929 0.860983,-0.25987 1.725407,-0.50412 2.59188,-0.73992 0.922542,-0.35132 -1.286148,1.15161 -0.09922,0.93727 0.606737,-0.0626 1.169943,-0.72584 1.738455,-0.5521 0.702216,0.27922 1.642509,0.0161 2.212504,0.61077 0.302529,0.45947 0.87511,1.18639 0.818143,1.61581 -0.474525,-0.0584 -1.357642,-0.37008 -1.375238,0.40435 0.459154,-0.40919 1.07185,0.2334 1.679307,0.0205 0.610231,0.12821 1.401653,0.55448 1.950141,0.19634 0.338127,-0.005 1.022004,0.0113 1.100632,-0.12097 -0.118919,-0.34631 -1.534434,-0.27773 -0.738551,-0.46079 0.322446,-0.0722 1.310613,0.29223 0.658848,-0.17491 -0.682195,-0.27698 -1.655536,0.0523 -2.113,-0.68173 -0.460069,-0.47694 -0.933965,-1.04433 0.0097,-1.11862 1.103304,-0.40702 2.308987,-0.76807 3.076236,-1.72239 0.801356,-0.75345 1.396773,-1.74344 1.652236,-2.81726 0.113479,-0.79269 -0.16769,-1.57024 -0.203781,-2.35831 -0.347188,-0.77467 0.252234,-1.22303 0.918441,-1.43804 0.411662,-0.63634 -1.147616,-0.5655 -1.248272,-1.24107 -0.40725,-0.60857 -1.055177,-1.11213 -1.819509,-1.10201 z m -3.657683,10.85982 c 0.288631,0.34304 0.831422,0.87705 0.787854,1.30226 -0.392033,-0.1509 -0.647971,-0.83457 -0.88927,-1.19595 0.01041,-0.0475 0.04442,-0.10858 0.101416,-0.10631 z m 1.10872,1.61533 c 0.278366,0.0634 1.051648,0.42898 0.290876,0.34648 -0.155179,-0.0153 -0.752977,-0.3413 -0.290876,-0.34648 z" /></g></svg>
