<?xml version="1.0" encoding="UTF-8" standalone="no"?>
<!-- Created with Inkscape (http://www.inkscape.org/) -->

<svg
   width="61.235771mm"
   height="20.212418mm"
   viewBox="0 0 61.235771 20.212418"
   version="1.1"
   id="svg5"
   inkscape:version="1.2.2 (b0a8486541, 2022-12-01)"
   sodipodi:docname="sparv_slogan_en.svg"
   xml:space="preserve"
   inkscape:export-filename="tmp.png"
   inkscape:export-xdpi="171.03999"
   inkscape:export-ydpi="171.03999"
   xmlns:inkscape="http://www.inkscape.org/namespaces/inkscape"
   xmlns:sodipodi="http://sodipodi.sourceforge.net/DTD/sodipodi-0.dtd"
   xmlns="http://www.w3.org/2000/svg"
   xmlns:svg="http://www.w3.org/2000/svg"><sodipodi:namedview
     id="namedview7"
     pagecolor="#ffffff"
     bordercolor="#000000"
     borderopacity="0.25"
     inkscape:showpageshadow="2"
     inkscape:pageopacity="0.0"
     inkscape:pagecheckerboard="0"
     inkscape:deskcolor="#d1d1d1"
     inkscape:document-units="mm"
     showgrid="false"
     inkscape:zoom="1.8816409"
     inkscape:cx="301.06701"
     inkscape:cy="121.96801"
     inkscape:window-width="1920"
     inkscape:window-height="1029"
     inkscape:window-x="0"
     inkscape:window-y="27"
     inkscape:window-maximized="1"
     inkscape:current-layer="layer1"
     showguides="true"><inkscape:grid
       type="xygrid"
       id="grid13315" /><sodipodi:guide
       position="-103.44646,181.44859"
       orientation="1,0"
       id="guide13317"
       inkscape:locked="false" /><sodipodi:guide
       position="-116.67563,177.47984"
       orientation="0,-1"
       id="guide13319"
       inkscape:locked="false" /><sodipodi:guide
       position="-0.25896571,83.552747"
       orientation="1,0"
       id="guide4551"
       inkscape:locked="false" /></sodipodi:namedview><defs
     id="defs2"><rect
       x="165.33238"
       y="165.66167"
       width="170.87849"
       height="72.536377"
       id="rect827-6-9-4-1-6-2" /><rect
       x="482.19177"
       y="295.30188"
       width="327.69745"
       height="62.83186"
       id="rect10965-1-9-5" /></defs><g
     inkscape:label="Layer 1"
     inkscape:groupmode="layer"
     id="layer1"
     transform="translate(-114.0298,-167.85075)"><g
       aria-label="Sparv"
       transform="matrix(0.26458333,0,0,0.26458333,69.664805,123.79143)"
       id="text825-4-5-8-7-9-7"
       style="font-weight:300;font-size:53.3333px;font-family:'Jost*';-inkscape-font-specification:'Jost*, Light';white-space:pre;shape-inside:url(#rect827-6-9-4-1-6-2);display:inline"><path
         d="m 170.0787,201.04792 -2.4,1.49334 c 1.76,5.22666 5.91999,9.75999 12.37332,9.75999 6.08,0 10.82666,-4.10666 10.82666,-10.18666 0,-6.56 -5.11999,-9.38666 -9.27999,-10.87999 -6.02666,-2.13334 -9.06666,-4.42667 -9.06666,-8.53333 0,-3.36 2.4,-5.86666 6.77333,-5.86666 4.85333,0 7.25333,3.25333 8.53332,6.07999 l 2.56,-1.44 c -1.49333,-3.57333 -5.01333,-7.46666 -10.93332,-7.46666 -5.86667,0 -10.02666,3.68 -10.02666,9.06666 0,6.34666 5.59999,8.85333 9.91999,10.45333 4.26666,1.6 8.47999,3.52 8.47999,8.90666 0,4.10666 -2.93333,7.09333 -7.73332,7.09333 -5.38667,0 -8.26667,-3.78666 -10.02666,-8.48 z"
         id="path5807" /><path
         d="m 199.99869,223.55458 v -17.49333 c 1.65333,3.84 4.90666,6.29333 9.11999,6.29333 6.56,0 11.83999,-4.90666 11.83999,-12.79999 0,-7.89333 -5.27999,-12.79999 -11.83999,-12.79999 -4.21333,0 -7.46666,2.45333 -9.11999,6.29333 v -5.76 h -2.77334 v 36.26665 z m 18.18665,-23.99999 c 0,6.4 -4.21333,10.18666 -9.43999,10.18666 -4.53333,0 -8.74666,-4.31999 -8.74666,-10.18666 0,-5.86666 4.21333,-10.18666 8.74666,-10.18666 5.22666,0 9.43999,3.78667 9.43999,10.18666 z"
         id="path5809" /><path
         d="m 227.78537,191.76793 c 1.33333,-1.01333 3.78666,-2.56 7.46666,-2.56 4.74666,0 6.29333,2.77333 6.29333,5.6 v 4.10666 c -1.44,-0.96 -3.94666,-2.08 -7.46666,-2.08 -5.70667,0 -9.22666,2.98667 -9.22666,7.73333 0,5.17333 4.05333,7.78666 8.26666,7.78666 3.36,0 6.98666,-1.65333 8.42666,-5.11999 v 4.58666 h 2.77333 V 194.4346 c 0,-4.90667 -3.30666,-7.68 -8.85333,-7.68 -4.31999,0 -7.25333,1.65333 -9.06666,2.93333 z m -0.10667,12.69333 c 0,-3.68 2.66667,-5.38667 6.82666,-5.38667 2.56,0 4.90667,0.58667 7.04,1.81333 v 0.69334 c 0,5.49333 -3.57333,8.37333 -7.68,8.37333 -3.41333,0 -6.18666,-1.76 -6.18666,-5.49333 z"
         id="path5811" /><path
         d="m 254.71865,187.28793 h -2.77333 v 24.53332 h 2.77333 v -14.93332 c 0,-4.16 1.33333,-7.52 4.96,-7.52 1.28,0 2.13333,0.37333 3.19999,1.17333 l 1.54667,-2.29333 c -1.12,-1.06666 -2.56,-1.49333 -4.10666,-1.49333 -2.34667,0 -4.37333,1.6 -5.6,4.10666 z"
         id="path5813" /><path
         d="m 266.7187,187.28793 11.30666,25.97332 11.30666,-25.97332 h -3.14666 l -8.16,19.99999 -8.15999,-19.99999 z"
         id="path5815" /></g><g
       aria-label="Språkbanken’s analysis platform"
       transform="matrix(0.26458333,0,0,0.26458333,-13.635953,97.084529)"
       id="text10963-5-0"
       style="font-weight:300;font-size:49.3333px;font-family:'Open Sans';-inkscape-font-specification:'Open Sans, Light';white-space:pre;shape-inside:url(#rect10965-1-9-5);display:inline;fill:#f0581a"><path
         d="m 484.25808,336.42291 -1.46667,1.03333 c 0.76667,1.60001 2.41667,2.98334 4.46667,2.98334 1.98334,0 3.88334,-1.3 3.88334,-3.48334 0,-2.03333 -1.56667,-3.01667 -2.96667,-3.5 -1.88334,-0.65001 -2.65,-1.23334 -2.65,-2.13334 0,-0.66667 0.5,-1.25 1.58333,-1.25 1.18334,0 1.88334,0.76666 2.36667,1.63333 l 1.58334,-0.9 c -0.6,-1.21667 -1.85,-2.5 -3.91667,-2.5 -2.10001,0 -3.66668,1.28333 -3.66668,3.15 0,2.16667 1.95001,3.00001 3.10001,3.41668 1.48333,0.55 2.48334,0.95 2.48334,2.23333 0,0.93334 -0.71667,1.56667 -1.80001,1.56667 -1.31667,0 -2.25,-0.88333 -3,-2.25 z"
         style="font-weight:500;font-size:16.6667px;font-family:'Jost*';-inkscape-font-specification:'Jost*, Medium';fill:#000000"
         id="path5748" /><path
         d="m 494.74144,343.85626 v -4.95001 c 0.55,0.95 1.46667,1.48333 2.61667,1.48333 2.00001,0 3.73334,-1.46667 3.73334,-4.03334 0,-2.56667 -1.73333,-4.05001 -3.73334,-4.05001 -1.15,0 -2.06667,0.55 -2.61667,1.50001 v -1.28334 h -1.81667 v 11.33336 z m 4.48334,-7.50002 c 0,1.53334 -1.05,2.40001 -2.3,2.40001 -1.05,0 -2.18334,-0.85001 -2.18334,-2.40001 0,-1.56667 1.13334,-2.4 2.18334,-2.4 1.25,0 2.3,0.86666 2.3,2.4 z"
         style="font-weight:500;font-size:16.6667px;font-family:'Jost*';-inkscape-font-specification:'Jost*, Medium';fill:#000000"
         id="path5750" /><path
         d="m 506.87481,334.43957 0.88333,-1.51667 c -0.35,-0.4 -0.86667,-0.58333 -1.41667,-0.58333 -0.65,0 -1.3,0.41666 -1.75,1.1 v -0.91667 h -1.78334 v 7.66668 h 1.78334 v -4.31667 c 0,-1.10001 0.36667,-1.83334 1.26667,-1.83334 0.43333,0 0.68333,0.13333 1.01667,0.4 z"
         style="font-weight:500;font-size:16.6667px;font-family:'Jost*';-inkscape-font-specification:'Jost*, Medium';fill:#000000"
         id="path5752" /><path
         d="m 510.30815,329.55623 c 0,1.06667 0.86667,1.78333 1.85001,1.78333 0.98333,0 1.86667,-0.71666 1.86667,-1.78333 0,-1.05 -0.88334,-1.76667 -1.86667,-1.76667 -0.98334,0 -1.85001,0.71667 -1.85001,1.76667 z m 1.03334,0 c 0,-0.51667 0.4,-0.85 0.81667,-0.85 0.41667,0 0.81667,0.33333 0.81667,0.85 0,0.53333 -0.4,0.85 -0.81667,0.85 -0.41667,0 -0.81667,-0.31667 -0.81667,-0.85 z m -1.6,4.98334 c 0.36666,-0.23333 1.23333,-0.73333 2.33333,-0.73333 0.83334,0 1.51667,0.4 1.51667,1.11667 v 1.06666 c -0.46666,-0.26666 -1.15,-0.51666 -2,-0.51666 -1.9,0 -3.28334,0.91666 -3.28334,2.61667 0,1.41667 1.06667,2.26667 2.68334,2.26667 1.15,0 2.15,-0.45 2.6,-1.26667 v 1.1 h 1.76667 v -5.46668 c 0,-1.51666 -1.31667,-2.38333 -3.2,-2.38333 -1.38334,0 -2.46667,0.5 -3.15001,0.91667 z m 0.38333,3.38334 c 0,-0.8 0.58333,-1.3 1.73334,-1.3 0.68333,0 1.21667,0.13333 1.73333,0.38333 v 0.13334 c 0,1.35 -0.88333,1.85 -2.05,1.85 -0.9,0 -1.41667,-0.35 -1.41667,-1.06667 z"
         style="font-weight:500;font-size:16.6667px;font-family:'Jost*';-inkscape-font-specification:'Jost*, Medium';fill:#000000"
         id="path5754" /><path
         d="m 521.99152,332.5229 -2.81667,2.70001 v -8.03335 h -1.76667 v 13.00002 h 1.76667 v -3.88334 l 3.16667,3.88334 h 2.20001 l -3.65001,-4.50001 3.31667,-3.16667 z"
         style="font-weight:500;font-size:16.6667px;font-family:'Jost*';-inkscape-font-specification:'Jost*, Medium';fill:#000000"
         id="path5756" /><path
         d="m 533.82489,336.35624 c 0,-2.53334 -1.73333,-4.00001 -3.73334,-4.00001 -1.11667,0 -2.05,0.51667 -2.61667,1.45001 v -6.61668 h -1.81667 v 13.00002 h 1.81667 v -1.28333 c 0.56667,0.93333 1.5,1.45 2.61667,1.45 2.00001,0 3.73334,-1.48334 3.73334,-4.00001 z m -1.86667,0 c 0,1.53334 -1.05,2.43334 -2.3,2.43334 -1.05,0 -2.18334,-0.88334 -2.18334,-2.43334 0,-1.56667 1.13334,-2.43334 2.18334,-2.43334 1.25,0 2.3,0.9 2.3,2.43334 z"
         style="font-weight:500;font-size:16.6667px;font-family:'Jost*';-inkscape-font-specification:'Jost*, Medium';fill:#000000"
         id="path5758" /><path
         d="m 536.10824,334.5229 c 0.33334,-0.25 1.25001,-0.71666 2.33334,-0.71666 0.95,0 1.63334,0.33333 1.63334,1.26667 v 0.93333 c -0.48333,-0.26667 -1.21667,-0.53333 -2.21667,-0.53333 -1.90001,0 -3.00001,0.95 -3.00001,2.43333 0,1.56667 1.23334,2.45001 2.68334,2.45001 0.98334,0 2.05001,-0.4 2.53334,-1.21667 v 1.05 h 1.76667 v -5.46668 c 0,-1.51666 -1.35,-2.38333 -3.21667,-2.38333 -1.43334,0 -2.55001,0.5 -3.25001,0.91667 z m 0.56667,3.28334 c 0,-0.71666 0.48334,-1.15 1.61667,-1.15 0.65,0 1.23334,0.11667 1.78334,0.36667 v 0.11667 c 0,1.16667 -0.9,1.86667 -1.96667,1.86667 -0.83334,0 -1.43334,-0.43334 -1.43334,-1.20001 z"
         style="font-weight:500;font-size:16.6667px;font-family:'Jost*';-inkscape-font-specification:'Jost*, Medium';fill:#000000"
         id="path5760" /><path
         d="m 548.87493,335.52291 v 4.66667 h 1.85001 v -4.88334 c 0,-1.83334 -0.93334,-2.95001 -2.66667,-2.95001 -1.05001,0 -1.81668,0.45 -2.30001,1.35001 v -1.18334 h -1.81667 v 7.66668 h 1.81667 v -4.66667 c 0,-1.05001 0.66667,-1.71667 1.7,-1.71667 0.96667,0 1.41667,0.6 1.41667,1.71667 z"
         style="font-weight:500;font-size:16.6667px;font-family:'Jost*';-inkscape-font-specification:'Jost*, Medium';fill:#000000"
         id="path5762" /><path
         d="m 557.54162,332.5229 -2.81668,2.70001 v -8.03335 h -1.76667 v 13.00002 h 1.76667 v -3.88334 l 3.16668,3.88334 h 2.2 l -3.65001,-4.50001 3.31668,-3.16667 z"
         style="font-weight:500;font-size:16.6667px;font-family:'Jost*';-inkscape-font-specification:'Jost*, Medium';fill:#000000"
         id="path5764" /><path
         d="m 564.35832,340.35625 c 1.76667,0 3.03334,-0.68334 3.85001,-2.08334 l -1.56667,-0.61667 c -0.48334,0.81667 -1.21667,1.21667 -2.20001,1.21667 -1.25,0 -2.03333,-0.75 -2.15,-2.1 h 5.96668 c 0,-0.0833 0.0167,-0.3 0.0167,-0.5 0,-2.45001 -1.41667,-3.91668 -3.83334,-3.91668 -2.43334,0 -4.00001,1.58334 -4.00001,4.00001 0,2.40001 1.55001,4.00001 3.91668,4.00001 z m 0.0667,-6.63335 c 1.08333,0 1.8,0.71667 1.88333,1.80001 h -3.96667 c 0.21667,-1.16667 0.93333,-1.78334 2.08334,-1.80001 z"
         style="font-weight:500;font-size:16.6667px;font-family:'Jost*';-inkscape-font-specification:'Jost*, Medium';fill:#000000"
         id="path5766" /><path
         d="m 574.94167,335.52291 v 4.66667 h 1.85 v -4.88334 c 0,-1.83334 -0.93333,-2.95001 -2.66667,-2.95001 -1.05,0 -1.81667,0.45 -2.30001,1.35001 v -1.18334 h -1.81667 v 7.66668 h 1.81667 v -4.66667 c 0,-1.05001 0.66667,-1.71667 1.70001,-1.71667 0.96667,0 1.41667,0.6 1.41667,1.71667 z"
         style="font-weight:500;font-size:16.6667px;font-family:'Jost*';-inkscape-font-specification:'Jost*, Medium';fill:#000000"
         id="path5768" /><path
         d="m 579.24167,328.52289 -0.96667,4.00001 h 1.26667 l 1.7,-4.00001 z"
         style="font-weight:500;font-size:16.6667px;font-family:'Jost*';-inkscape-font-specification:'Jost*, Medium';fill:#000000"
         id="path5770" /><path
         d="m 582.24167,337.65624 -1.05,1.06667 c 0.66667,0.86667 1.83334,1.70001 3.43334,1.70001 1.66667,0 2.73334,-0.95001 2.73334,-2.40001 0,-1.38333 -1.06667,-1.9 -2.35001,-2.41667 -0.93333,-0.36667 -1.66667,-0.63333 -1.66667,-1.2 0,-0.43334 0.38334,-0.65 0.90001,-0.65 0.75,0 1.5,0.43333 2,1.01666 l 1,-1.06666 c -0.63333,-0.76667 -1.71667,-1.35001 -2.96667,-1.35001 -1.41667,0 -2.63334,0.7 -2.63334,2.08334 0,1.38334 1.13334,1.96667 2.18334,2.33334 1.01667,0.36667 1.71667,0.66667 1.71667,1.35 0,0.5 -0.38334,0.81667 -1.03334,0.81667 -0.78333,0 -1.51667,-0.45 -2.26667,-1.28334 z"
         style="font-weight:500;font-size:16.6667px;font-family:'Jost*';-inkscape-font-specification:'Jost*, Medium';fill:#000000"
         id="path5772" /><path
         d="m 594.52501,334.5229 c 0.33334,-0.25 1.25,-0.71666 2.33334,-0.71666 0.95,0 1.63334,0.33333 1.63334,1.26667 v 0.93333 c -0.48334,-0.26667 -1.21667,-0.53333 -2.21667,-0.53333 -1.90001,0 -3.00001,0.95 -3.00001,2.43333 0,1.56667 1.23334,2.45001 2.68334,2.45001 0.98333,0 2.05,-0.4 2.53334,-1.21667 v 1.05 h 1.76667 v -5.46668 c 0,-1.51666 -1.35001,-2.38333 -3.21668,-2.38333 -1.43333,0 -2.55,0.5 -3.25,0.91667 z m 0.56667,3.28334 c 0,-0.71666 0.48333,-1.15 1.61667,-1.15 0.65,0 1.23334,0.11667 1.78334,0.36667 v 0.11667 c 0,1.16667 -0.90001,1.86667 -1.96667,1.86667 -0.83334,0 -1.43334,-0.43334 -1.43334,-1.20001 z"
         style="font-weight:500;font-size:16.6667px;font-family:'Jost*';-inkscape-font-specification:'Jost*, Medium';fill:#000000"
         id="path5774" /><path
         d="m 607.2917,335.52291 v 4.66667 h 1.85001 v -4.88334 c 0,-1.83334 -0.93334,-2.95001 -2.66667,-2.95001 -1.05001,0 -1.81667,0.45 -2.30001,1.35001 v -1.18334 h -1.81667 v 7.66668 h 1.81667 v -4.66667 c 0,-1.05001 0.66667,-1.71667 1.7,-1.71667 0.96667,0 1.41667,0.6 1.41667,1.71667 z"
         style="font-weight:500;font-size:16.6667px;font-family:'Jost*';-inkscape-font-specification:'Jost*, Medium';fill:#000000"
         id="path5776" /><path
         d="m 612.00839,334.5229 c 0.33333,-0.25 1.25,-0.71666 2.33334,-0.71666 0.95,0 1.63333,0.33333 1.63333,1.26667 v 0.93333 c -0.48333,-0.26667 -1.21667,-0.53333 -2.21667,-0.53333 -1.9,0 -3,0.95 -3,2.43333 0,1.56667 1.23333,2.45001 2.68333,2.45001 0.98334,0 2.05001,-0.4 2.53334,-1.21667 v 1.05 h 1.76667 v -5.46668 c 0,-1.51666 -1.35,-2.38333 -3.21667,-2.38333 -1.43334,0 -2.55001,0.5 -3.25001,0.91667 z m 0.56667,3.28334 c 0,-0.71666 0.48333,-1.15 1.61667,-1.15 0.65,0 1.23333,0.11667 1.78333,0.36667 v 0.11667 c 0,1.16667 -0.9,1.86667 -1.96667,1.86667 -0.83333,0 -1.43333,-0.43334 -1.43333,-1.20001 z"
         style="font-weight:500;font-size:16.6667px;font-family:'Jost*';-inkscape-font-specification:'Jost*, Medium';fill:#000000"
         id="path5778" /><path
         d="m 619.84173,327.18956 v 13.00002 h 1.81667 v -13.00002 z"
         style="font-weight:500;font-size:16.6667px;font-family:'Jost*';-inkscape-font-specification:'Jost*, Medium';fill:#000000"
         id="path5780" /><path
         d="m 630.72508,332.5229 h -1.93334 l -1.98333,4.98334 -2.01667,-4.98334 h -2.06667 l 3.1,6.76668 -2.01667,4.56668 h 1.91667 z"
         style="font-weight:500;font-size:16.6667px;font-family:'Jost*';-inkscape-font-specification:'Jost*, Medium';fill:#000000"
         id="path5782" /><path
         d="m 632.17508,337.65624 -1.05,1.06667 c 0.66667,0.86667 1.83334,1.70001 3.43334,1.70001 1.66667,0 2.73334,-0.95001 2.73334,-2.40001 0,-1.38333 -1.06667,-1.9 -2.35001,-2.41667 -0.93333,-0.36667 -1.66667,-0.63333 -1.66667,-1.2 0,-0.43334 0.38334,-0.65 0.90001,-0.65 0.75,0 1.5,0.43333 2,1.01666 l 1,-1.06666 c -0.63333,-0.76667 -1.71667,-1.35001 -2.96667,-1.35001 -1.41667,0 -2.63334,0.7 -2.63334,2.08334 0,1.38334 1.13334,1.96667 2.18334,2.33334 1.01667,0.36667 1.71667,0.66667 1.71667,1.35 0,0.5 -0.38334,0.81667 -1.03334,0.81667 -0.78333,0 -1.51667,-0.45 -2.26667,-1.28334 z"
         style="font-weight:500;font-size:16.6667px;font-family:'Jost*';-inkscape-font-specification:'Jost*, Medium';fill:#000000"
         id="path5784" /><path
         d="m 638.8251,329.47289 c 0,0.61667 0.51666,1.10001 1.13333,1.10001 0.63334,0 1.15,-0.48334 1.15,-1.10001 0,-0.61666 -0.51666,-1.1 -1.15,-1.1 -0.61667,0 -1.13333,0.48334 -1.13333,1.1 z m 0.25,3.05001 v 7.66668 h 1.78333 v -7.66668 z"
         style="font-weight:500;font-size:16.6667px;font-family:'Jost*';-inkscape-font-specification:'Jost*, Medium';fill:#000000"
         id="path5786" /><path
         d="m 643.69178,337.65624 -1.05001,1.06667 c 0.66667,0.86667 1.83334,1.70001 3.43334,1.70001 1.66667,0 2.73334,-0.95001 2.73334,-2.40001 0,-1.38333 -1.06667,-1.9 -2.35,-2.41667 -0.93334,-0.36667 -1.66667,-0.63333 -1.66667,-1.2 0,-0.43334 0.38333,-0.65 0.9,-0.65 0.75,0 1.5,0.43333 2,1.01666 l 1.00001,-1.06666 c -0.63334,-0.76667 -1.71667,-1.35001 -2.96668,-1.35001 -1.41667,0 -2.63334,0.7 -2.63334,2.08334 0,1.38334 1.13334,1.96667 2.18334,2.33334 1.01667,0.36667 1.71667,0.66667 1.71667,1.35 0,0.5 -0.38333,0.81667 -1.03333,0.81667 -0.78334,0 -1.51667,-0.45 -2.26667,-1.28334 z"
         style="font-weight:500;font-size:16.6667px;font-family:'Jost*';-inkscape-font-specification:'Jost*, Medium';fill:#000000"
         id="path5788" /><path
         d="m 657.15844,343.85626 v -4.95001 c 0.55001,0.95 1.46667,1.48333 2.61668,1.48333 2,0 3.73334,-1.46667 3.73334,-4.03334 0,-2.56667 -1.73334,-4.05001 -3.73334,-4.05001 -1.15001,0 -2.06667,0.55 -2.61668,1.50001 v -1.28334 h -1.81667 v 11.33336 z m 4.48335,-7.50002 c 0,1.53334 -1.05001,2.40001 -2.30001,2.40001 -1.05,0 -2.18334,-0.85001 -2.18334,-2.40001 0,-1.56667 1.13334,-2.4 2.18334,-2.4 1.25,0 2.30001,0.86666 2.30001,2.4 z"
         style="font-weight:500;font-size:16.6667px;font-family:'Jost*';-inkscape-font-specification:'Jost*, Medium';fill:#000000"
         id="path5790" /><path
         d="m 665.22514,327.18956 v 13.00002 h 1.81667 v -13.00002 z"
         style="font-weight:500;font-size:16.6667px;font-family:'Jost*';-inkscape-font-specification:'Jost*, Medium';fill:#000000"
         id="path5792" /><path
         d="m 669.89183,334.5229 c 0.33333,-0.25 1.25,-0.71666 2.33333,-0.71666 0.95001,0 1.63334,0.33333 1.63334,1.26667 v 0.93333 c -0.48333,-0.26667 -1.21667,-0.53333 -2.21667,-0.53333 -1.9,0 -3.00001,0.95 -3.00001,2.43333 0,1.56667 1.23334,2.45001 2.68334,2.45001 0.98334,0 2.05001,-0.4 2.53334,-1.21667 v 1.05 h 1.76667 v -5.46668 c 0,-1.51666 -1.35,-2.38333 -3.21667,-2.38333 -1.43334,0 -2.55001,0.5 -3.25001,0.91667 z m 0.56666,3.28334 c 0,-0.71666 0.48334,-1.15 1.61667,-1.15 0.65,0 1.23334,0.11667 1.78334,0.36667 v 0.11667 c 0,1.16667 -0.9,1.86667 -1.96667,1.86667 -0.83334,0 -1.43334,-0.43334 -1.43334,-1.20001 z"
         style="font-weight:500;font-size:16.6667px;font-family:'Jost*';-inkscape-font-specification:'Jost*, Medium';fill:#000000"
         id="path5794" /><path
         d="m 676.6585,332.5229 v 1.58334 h 1.3 v 6.08334 h 1.76667 v -6.08334 h 1.28334 v -1.58334 h -1.28334 v -2.66667 h -1.76667 v 2.66667 z"
         style="font-weight:500;font-size:16.6667px;font-family:'Jost*';-inkscape-font-specification:'Jost*, Medium';fill:#000000"
         id="path5796" /><path
         d="m 681.60851,332.5229 v 1.58334 h 0.83334 v 6.08334 h 1.78333 v -6.08334 h 1.78334 v -1.58334 h -1.78334 v -2.48334 c 0,-0.96667 0.3,-1.35 0.8,-1.35 0.26667,0 0.56667,0.0833 0.80001,0.43333 l 0.83333,-1.4 c -0.28333,-0.33333 -0.83333,-0.75 -1.71667,-0.75 -1.61667,0 -2.5,0.93333 -2.5,2.71667 v 2.83334 z"
         style="font-weight:500;font-size:16.6667px;font-family:'Jost*';-inkscape-font-specification:'Jost*, Medium';fill:#000000"
         id="path5798" /><path
         d="m 686.80852,336.35624 c 0,2.35001 1.78334,4.00001 4.13334,4.00001 2.35001,0 4.13334,-1.65 4.13334,-4.00001 0,-2.36667 -1.78333,-4.00001 -4.13334,-4.00001 -2.35,0 -4.13334,1.63334 -4.13334,4.00001 z m 1.85,0 c 0,-1.43333 0.98334,-2.41667 2.28334,-2.41667 1.28334,0 2.28334,0.98334 2.28334,2.41667 0,1.43334 -1,2.41667 -2.28334,2.41667 -1.3,0 -2.28334,-0.98333 -2.28334,-2.41667 z"
         style="font-weight:500;font-size:16.6667px;font-family:'Jost*';-inkscape-font-specification:'Jost*, Medium';fill:#000000"
         id="path5800" /><path
         d="m 700.85854,334.43957 0.88333,-1.51667 c -0.35,-0.4 -0.86667,-0.58333 -1.41667,-0.58333 -0.65,0 -1.3,0.41666 -1.75,1.1 v -0.91667 h -1.78334 v 7.66668 h 1.78334 v -4.31667 c 0,-1.10001 0.36667,-1.83334 1.26667,-1.83334 0.43333,0 0.68333,0.13333 1.01667,0.4 z"
         style="font-weight:500;font-size:16.6667px;font-family:'Jost*';-inkscape-font-specification:'Jost*, Medium';fill:#000000"
         id="path5802" /><path
         d="m 713.95857,335.30624 c 0,-1.86667 -0.8,-2.95001 -2.45001,-2.95001 -1.03333,0 -1.85,0.46667 -2.4,1.36667 -0.33334,-0.88333 -1.08334,-1.36667 -2.20001,-1.36667 -1,0 -1.71667,0.43334 -2.16667,1.28334 v -1.11667 h -1.76667 v 7.66668 h 1.76667 v -4.66667 c 0,-1.10001 0.6,-1.71667 1.51667,-1.71667 0.88334,0 1.28334,0.55 1.28334,1.71667 v 4.66667 h 1.8 v -4.66667 c 0,-1.10001 0.6,-1.71667 1.53334,-1.71667 0.86667,0 1.26667,0.55 1.26667,1.71667 v 4.66667 h 1.81667 z"
         style="font-weight:500;font-size:16.6667px;font-family:'Jost*';-inkscape-font-specification:'Jost*, Medium';fill:#000000"
         id="path5804" /></g><path
       id="path3151-8"
       style="fill:#f0581a;fill-opacity:1;stroke-width:0.0206747"
       d="m 158.65096,167.86285 c -0.76728,-0.0785 -1.49007,0.2282 -1.96628,0.83374 -0.57018,0.48901 -0.92782,1.22498 -1.66721,1.49808 -0.87354,0.34608 -1.63442,1.01403 -1.97815,1.90097 -0.56288,0.44796 -0.31512,1.23696 -1.0528,1.42378 -0.76139,0.4197 -0.95243,1.35017 -1.59518,1.89567 -0.42107,0.53245 -0.7489,0.9688 -1.39285,1.25305 -0.17095,0.16663 -0.52367,0.50137 -0.0648,0.44233 -0.8229,0.58544 -1.75861,0.9941 -2.60443,1.54767 -0.36056,0.17924 -1.0811,0.69429 -0.93992,0.97708 0.85694,-0.25309 1.567,-0.86166 2.45262,-1.02929 0.86098,-0.25987 1.72541,-0.50412 2.59188,-0.73992 0.92254,-0.35132 -1.28615,1.15161 -0.0992,0.93727 0.60674,-0.0626 1.16994,-0.72584 1.73845,-0.5521 0.70222,0.27922 1.64251,0.0161 2.21251,0.61077 0.30253,0.45947 0.87511,1.18639 0.81814,1.61581 -0.47452,-0.0584 -1.35764,-0.37008 -1.37524,0.40435 0.45916,-0.40919 1.07185,0.2334 1.67931,0.0205 0.61023,0.12821 1.40165,0.55448 1.95014,0.19634 0.33813,-0.005 1.02201,0.0113 1.10063,-0.12097 -0.11892,-0.34631 -1.53443,-0.27773 -0.73855,-0.46079 0.32245,-0.0722 1.31062,0.29223 0.65885,-0.17491 -0.68219,-0.27698 -1.65554,0.0523 -2.113,-0.68173 -0.46007,-0.47694 -0.93396,-1.04433 0.01,-1.11862 1.1033,-0.40702 2.30899,-0.76807 3.07624,-1.72239 0.80135,-0.75345 1.39677,-1.74344 1.65223,-2.81726 0.11348,-0.79269 -0.16769,-1.57024 -0.20378,-2.35831 -0.34719,-0.77467 0.25224,-1.22303 0.91844,-1.43804 0.41166,-0.63634 -1.14761,-0.5655 -1.24827,-1.24107 -0.40725,-0.60857 -1.05518,-1.11213 -1.81951,-1.10201 z m -3.65769,10.85982 c 0.28863,0.34304 0.83143,0.87705 0.78786,1.30226 -0.39204,-0.1509 -0.64797,-0.83457 -0.88927,-1.19595 0.0104,-0.0475 0.0444,-0.10858 0.10141,-0.10631 z m 1.10872,1.61533 c 0.27837,0.0634 1.05165,0.42898 0.29088,0.34648 -0.15518,-0.0153 -0.75298,-0.3413 -0.29088,-0.34648 z" /></g></svg>
