<?xml version="1.0" encoding="UTF-8" standalone="no"?>
<!-- Created with Inkscape (http://www.inkscape.org/) -->

<svg
   width="112.75104mm"
   height="23.461647mm"
   viewBox="0 0 112.75104 23.461646"
   version="1.1"
   id="svg5"
   inkscape:version="1.2.2 (b0a8486541, 2022-12-01)"
   sodipodi:docname="sprakbanken_text_slogan_en.svg"
   xml:space="preserve"
   inkscape:export-filename="logotyper/bitmaps.png"
   inkscape:export-xdpi="427.60999"
   inkscape:export-ydpi="427.60999"
   xmlns:inkscape="http://www.inkscape.org/namespaces/inkscape"
   xmlns:sodipodi="http://sodipodi.sourceforge.net/DTD/sodipodi-0.dtd"
   xmlns="http://www.w3.org/2000/svg"
   xmlns:svg="http://www.w3.org/2000/svg"><sodipodi:namedview
     id="namedview7"
     pagecolor="#ffffff"
     bordercolor="#000000"
     borderopacity="0.25"
     inkscape:showpageshadow="2"
     inkscape:pageopacity="0.0"
     inkscape:pagecheckerboard="0"
     inkscape:deskcolor="#d1d1d1"
     inkscape:document-units="mm"
     showgrid="false"
     inkscape:zoom="2.037283"
     inkscape:cx="174.25169"
     inkscape:cy="155.35397"
     inkscape:window-width="1920"
     inkscape:window-height="1029"
     inkscape:window-x="0"
     inkscape:window-y="27"
     inkscape:window-maximized="1"
     inkscape:current-layer="layer1"
     showguides="true"><inkscape:grid
       type="xygrid"
       id="grid13315"
       originx="-6.8207552e-07"
       originy="-1.0001701e-08" /><sodipodi:guide
       position="-0.24448969,56.613586"
       orientation="1,0"
       id="guide13317"
       inkscape:locked="false" /><sodipodi:guide
       position="-13.473656,52.644836"
       orientation="0,-1"
       id="guide13319"
       inkscape:locked="false" /><sodipodi:guide
       position="102.94301,-41.282251"
       orientation="1,0"
       id="guide4551"
       inkscape:locked="false" /><sodipodi:guide
       position="25.761852,-130.85619"
       orientation="0,-1"
       id="guide5892"
       inkscape:locked="false" /><sodipodi:guide
       position="94.296915,-155.78622"
       orientation="0,-1"
       id="guide8737"
       inkscape:locked="false" /></sodipodi:namedview><defs
     id="defs2"><rect
       x="34.405685"
       y="187.59879"
       width="498.24536"
       height="62.798195"
       id="rect1143-4" /><rect
       x="42.637711"
       y="232.56482"
       width="428.09613"
       height="65.5849"
       id="rect4674-3" /></defs><g
     inkscape:label="Layer 1"
     inkscape:groupmode="layer"
     id="layer1"
     transform="translate(-10.827823,-39.766521)"><g
       aria-label="SPRÅKBANKENTEXT"
       transform="matrix(0.26458333,0,0,0.26458333,1.4800128,-9.3796976)"
       id="text1141-1"
       style="font-size:10.6667px;font-family:'Open Sans';-inkscape-font-specification:'Open Sans, Normal';white-space:pre;shape-inside:url(#rect1143-4);display:inline;fill:#f0bca9"><path
         d="m 38.915586,221.21617 -2.280001,1.41867 c 1.672001,4.96534 5.624003,9.27201 11.754674,9.27201 5.776003,0 10.28534,-3.90134 10.28534,-9.67734 0,-6.23201 -4.864003,-8.91734 -8.816006,-10.33601 -5.725337,-2.02667 -8.613339,-4.20533 -8.613339,-8.10667 0,-3.192 2.280002,-5.57334 6.434671,-5.57334 4.61067,0 6.890671,3.09067 8.106672,5.77601 l 2.432001,-1.368 c -1.418667,-3.39467 -4.762669,-7.09334 -10.386673,-7.09334 -5.573337,0 -9.525339,3.496 -9.525339,8.61334 0,6.02933 5.320003,8.41067 9.424006,9.93067 4.053336,1.52 8.056005,3.344 8.056005,8.46134 0,3.90133 -2.786669,6.73867 -7.346672,6.73867 -5.117336,0 -7.853338,-3.59734 -9.525339,-8.05601 z"
         style="font-weight:300;font-size:50.6667px;font-family:'Jost*';-inkscape-font-specification:'Jost*, Light';fill:#1a1a1a"
         id="path3040" /><path
         d="m 65.211611,195.98416 v 35.46669 h 2.786668 v -14.49068 h 5.522671 c 6.637337,0 11.602674,-3.952 11.602674,-10.488 0,-6.53601 -4.965337,-10.48801 -11.602674,-10.48801 z m 8.309339,2.63467 c 5.168003,0 8.765338,2.736 8.765338,7.85334 0,5.11733 -3.597335,7.85333 -8.765338,7.85333 h -5.522671 v -15.70667 z"
         style="font-weight:300;font-size:50.6667px;font-family:'Jost*';-inkscape-font-specification:'Jost*, Light';fill:#1a1a1a"
         id="path3042" /><path
         d="m 91.608954,195.98416 v 35.46669 h 2.786668 v -14.89601 h 4.661336 l 10.336002,14.89601 h 3.44534 l -10.74134,-15.04801 c 5.624,-0.76 9.62667,-4.35734 9.62667,-10.13334 0,-6.53601 -5.168,-10.28534 -12.008005,-10.28534 z m 8.106671,2.48267 c 5.370675,0 9.221335,2.68533 9.221335,7.80267 0,5.11734 -3.8,7.80267 -9.221335,7.80267 h -5.320003 v -15.60534 z"
         style="font-weight:300;font-size:50.6667px;font-family:'Jost*';-inkscape-font-specification:'Jost*, Light';fill:#1a1a1a"
         id="path3044" /><path
         d="m 124.79568,190.81616 c 0,2.83733 2.22933,4.81333 4.66133,5.016 l -15.14934,35.61869 h 3.14133 l 4.86401,-11.90668 h 15.30134 l 4.864,11.90668 h 3.14134 l -15.14934,-35.61869 c 2.432,-0.20267 4.66133,-2.17867 4.66133,-5.016 0,-3.04001 -2.53333,-5.06667 -5.168,-5.06667 -2.63467,0 -5.168,2.02666 -5.168,5.06667 z m 1.77333,0 c 0,-2.07734 1.672,-3.44534 3.39467,-3.44534 1.72267,0 3.39467,1.368 3.39467,3.44534 0,2.07733 -1.672,3.44533 -3.39467,3.44533 -1.72267,0 -3.39467,-1.368 -3.39467,-3.44533 z m 3.39467,10.23467 6.58667,15.85868 h -13.12267 z"
         style="font-weight:300;font-size:50.6667px;font-family:'Jost*';-inkscape-font-specification:'Jost*, Light';fill:#1a1a1a"
         id="path3046" /><path
         d="m 150.23035,195.98416 v 35.46669 h 2.78666 v -17.83468 l 15.45335,17.83468 h 3.54667 l -16.36535,-18.84801 15.60535,-16.61868 h -3.54667 l -14.69335,15.80801 v -15.80801 z"
         style="font-weight:300;font-size:50.6667px;font-family:'Jost*';-inkscape-font-specification:'Jost*, Light';fill:#1a1a1a"
         id="path3048" /><path
         d="m 196.74237,221.16551 c 0,-5.32001 -3.8,-8.25867 -8.36,-9.17067 3.90133,-0.96267 6.384,-3.39467 6.384,-7.44801 0,-5.624 -4.00267,-8.56267 -10.33601,-8.56267 h -7.70133 v 35.46669 h 8.208 c 6.84,0 11.80534,-3.24267 11.80534,-10.28534 z m -12.31201,-22.69868 c 4.56001,0 7.54934,2.33067 7.54934,6.232 0,4.15467 -3.39467,6.08 -7.54934,6.08 h -4.91467 v -12.312 z m -4.91467,30.50135 V 213.2615 h 5.42134 c 4.76267,0 8.96801,2.78667 8.96801,7.75201 0,5.26933 -3.59734,7.95467 -8.96801,7.95467 z"
         style="font-weight:300;font-size:50.6667px;font-family:'Jost*';-inkscape-font-specification:'Jost*, Light';fill:#1a1a1a"
         id="path3050" /><path
         d="m 227.34513,231.45085 h 3.14133 l -15.65601,-36.83469 -15.656,36.83469 h 3.14133 l 4.864,-11.90668 h 15.30135 z m -12.51468,-30.40002 6.58668,15.85868 h -13.12268 z"
         style="font-weight:300;font-size:50.6667px;font-family:'Jost*';-inkscape-font-specification:'Jost*, Light';fill:#1a1a1a"
         id="path3052" /><path
         d="m 262.15313,195.98416 v 29.69068 l -26.95468,-31.05868 v 36.83469 h 2.78666 V 201.8615 l 26.95469,30.95735 v -36.83469 z"
         style="font-weight:300;font-size:50.6667px;font-family:'Jost*';-inkscape-font-specification:'Jost*, Light';fill:#1a1a1a"
         id="path3054" /><path
         d="m 273.35044,195.98416 v 35.46669 h 2.78667 v -17.83468 l 15.45334,17.83468 h 3.54667 l -16.36534,-18.84801 15.60534,-16.61868 h -3.54667 l -14.69334,15.80801 v -15.80801 z"
         style="font-weight:300;font-size:50.6667px;font-family:'Jost*';-inkscape-font-specification:'Jost*, Light';fill:#1a1a1a"
         id="path3056" /><path
         d="m 299.84911,195.98416 v 35.46669 h 19.05068 v -2.63467 h -16.26401 v -15.50401 h 15.25068 v -2.63467 h -15.25068 v -12.05867 h 16.26401 v -2.63467 z"
         style="font-weight:300;font-size:50.6667px;font-family:'Jost*';-inkscape-font-specification:'Jost*, Light';fill:#1a1a1a"
         id="path3058" /><path
         d="m 353.85983,195.98416 v 29.69068 l -26.95469,-31.05868 v 36.83469 h 2.78667 V 201.8615 l 26.95468,30.95735 v -36.83469 z"
         style="font-weight:300;font-size:50.6667px;font-family:'Jost*';-inkscape-font-specification:'Jost*, Light';fill:#1a1a1a"
         id="path3060" /><path
         d="m 361.6118,198.61883 h 9.32267 v 32.83202 h 2.78667 v -32.83202 h 9.32267 v -2.63467 H 361.6118 Z"
         style="font-weight:300;font-size:50.6667px;font-family:'Jost*';-inkscape-font-specification:'Jost*, Light';fill:#f0581a"
         id="path3062" /><path
         d="m 388.00915,195.98416 v 35.46669 h 19.05067 v -2.63467 h -16.26401 v -15.50401 h 15.25068 v -2.63467 h -15.25068 v -12.05867 h 16.26401 v -2.63467 z"
         style="font-weight:300;font-size:50.6667px;font-family:'Jost*';-inkscape-font-specification:'Jost*, Light';fill:#f0581a"
         id="path3064" /><path
         d="m 433.00122,195.98416 -8.51201,14.44001 -8.36,-14.44001 h -3.344 l 10.23467,16.87201 -11.50134,18.59468 h 3.344 l 9.57601,-16.11201 9.32267,16.11201 h 3.344 l -11.24801,-18.59468 10.48801,-16.87201 z"
         style="font-weight:300;font-size:50.6667px;font-family:'Jost*';-inkscape-font-specification:'Jost*, Light';fill:#f0581a"
         id="path3066" /><path
         d="m 440.04396,198.61883 h 9.32267 v 32.83202 h 2.78667 v -32.83202 h 9.32267 v -2.63467 h -21.43201 z"
         style="font-weight:300;font-size:50.6667px;font-family:'Jost*';-inkscape-font-specification:'Jost*, Light';fill:#f0581a"
         id="path3068" /></g><g
       aria-label="A research infrastructure for language data and a language technology research unit"
       transform="matrix(0.26458333,0,0,0.26458333,-0.46688815,-8.7312479)"
       id="text4672-4"
       style="font-weight:500;font-size:12px;line-height:1.1;font-family:'Jost*';-inkscape-font-specification:'Jost*, Medium';white-space:pre;shape-inside:url(#rect4674-3);display:inline;fill:#f0581a"><path
         d="m 51.872024,249.73922 h 2.233338 l -5.716678,-12.31669 -5.700012,12.31669 h 2.216671 l 1.333336,-3.00001 h 4.283342 z m -3.48334,-8.36668 1.600003,3.7 h -3.18334 z"
         style="font-size:16.6667px;fill:#000000"
         id="path2895" /><path
         d="m 64.35538,243.98921 0.883335,-1.51667 c -0.350001,-0.4 -0.866669,-0.58334 -1.41667,-0.58334 -0.650001,0 -1.300002,0.41667 -1.750003,1.10001 v -0.91667 h -1.783337 v 7.66668 h 1.783337 v -4.31667 c 0,-1.10001 0.366667,-1.83334 1.266669,-1.83334 0.433334,0 0.683335,0.13333 1.016669,0.4 z"
         style="font-size:16.6667px;fill:#000000"
         id="path2897" /><path
         d="m 69.555404,249.90589 c 1.76667,0 3.033339,-0.68334 3.850008,-2.08334 l -1.56667,-0.61667 c -0.483334,0.81667 -1.216669,1.21667 -2.200005,1.21667 -1.250002,0 -2.033337,-0.75 -2.150004,-2.1 h 5.966679 c 0,-0.0833 0.01667,-0.3 0.01667,-0.5 0,-2.45001 -1.41667,-3.91668 -3.833342,-3.91668 -2.433338,0 -4.000008,1.58334 -4.000008,4.00001 0,2.4 1.550003,4.00001 3.916675,4.00001 z m 0.06667,-6.63335 c 1.083335,0 1.800003,0.71667 1.883337,1.8 h -3.966675 c 0.216667,-1.16666 0.933335,-1.78333 2.083338,-1.8 z"
         style="font-size:16.6667px;fill:#000000"
         id="path2899" /><path
         d="m 75.55541,247.20588 -1.050003,1.06667 c 0.666668,0.86667 1.833338,1.7 3.433341,1.7 1.66667,0 2.733339,-0.95 2.733339,-2.4 0,-1.38334 -1.066669,-1.9 -2.350005,-2.41667 -0.933335,-0.36667 -1.66667,-0.63334 -1.66667,-1.2 0,-0.43334 0.383334,-0.65001 0.900002,-0.65001 0.750001,0 1.500003,0.43334 2.000004,1.01667 l 1.000002,-1.06667 c -0.633335,-0.76666 -1.71667,-1.35 -2.966673,-1.35 -1.416669,0 -2.633339,0.7 -2.633339,2.08334 0,1.38333 1.133336,1.96667 2.183338,2.33334 1.016669,0.36666 1.71667,0.66666 1.71667,1.35 0,0.5 -0.383334,0.81667 -1.033335,0.81667 -0.783335,0 -1.51667,-0.45 -2.266671,-1.28334 z"
         style="font-size:16.6667px;fill:#000000"
         id="path2901" /><path
         d="m 85.605428,249.90589 c 1.76667,0 3.033339,-0.68334 3.850008,-2.08334 l -1.56667,-0.61667 c -0.483334,0.81667 -1.216669,1.21667 -2.200005,1.21667 -1.250002,0 -2.033337,-0.75 -2.150004,-2.1 h 5.966679 c 0,-0.0833 0.01667,-0.3 0.01667,-0.5 0,-2.45001 -1.41667,-3.91668 -3.833342,-3.91668 -2.433338,0 -4.000008,1.58334 -4.000008,4.00001 0,2.4 1.550004,4.00001 3.916675,4.00001 z m 0.06667,-6.63335 c 1.083335,0 1.800003,0.71667 1.883337,1.8 H 83.58876 c 0.216667,-1.16666 0.933335,-1.78333 2.083338,-1.8 z"
         style="font-size:16.6667px;fill:#000000"
         id="path2903" /><path
         d="m 91.822097,244.07254 c 0.333334,-0.25 1.250002,-0.71667 2.333338,-0.71667 0.950002,0 1.633337,0.33334 1.633337,1.26667 v 0.93334 c -0.483335,-0.26667 -1.21667,-0.53334 -2.216672,-0.53334 -1.900003,0 -3.000006,0.95001 -3.000006,2.43334 0,1.56667 1.233336,2.45001 2.683339,2.45001 0.983335,0 2.050004,-0.4 2.533339,-1.21667 v 1.05 h 1.76667 v -5.46668 c 0,-1.51667 -1.350003,-2.38334 -3.216673,-2.38334 -1.433337,0 -2.550005,0.50001 -3.250007,0.91667 z m 0.566668,3.28334 c 0,-0.71667 0.483334,-1.15 1.61667,-1.15 0.650001,0 1.233336,0.11667 1.783337,0.36667 v 0.11666 c 0,1.16667 -0.900002,1.86667 -1.966671,1.86667 -0.833335,0 -1.433336,-0.43333 -1.433336,-1.2 z"
         style="font-size:16.6667px;fill:#000000"
         id="path2905" /><path
         d="m 103.72212,243.98921 0.88333,-1.51667 c -0.35,-0.4 -0.86667,-0.58334 -1.41667,-0.58334 -0.65,0 -1.3,0.41667 -1.75,1.10001 v -0.91667 h -1.783338 v 7.66668 h 1.783338 v -4.31667 c 0,-1.10001 0.36667,-1.83334 1.26667,-1.83334 0.43333,0 0.68333,0.13333 1.01667,0.4 z"
         style="font-size:16.6667px;fill:#000000"
         id="path2907" /><path
         d="m 106.78881,245.90588 c 0,-1.41667 1.03333,-2.45001 2.38333,-2.45001 1.06667,0 2.11667,0.55001 2.50001,1.30001 v -2.00001 c -0.53334,-0.51666 -1.48334,-0.85 -2.58334,-0.85 -2.36667,0 -4.15001,1.63334 -4.15001,4.00001 0,2.35 1.78334,4.00001 4.15001,4.00001 1.1,0 2.05,-0.31667 2.58334,-0.86667 v -1.98334 c -0.38334,0.73334 -1.38334,1.3 -2.50001,1.3 -1.35,0 -2.38333,-1 -2.38333,-2.45 z"
         style="font-size:16.6667px;fill:#000000"
         id="path2909" /><path
         d="m 118.58882,245.07254 v 4.66668 h 1.81667 v -4.91668 c 0,-1.95 -0.93334,-2.96667 -2.63334,-2.96667 -1.05,0 -1.85001,0.53334 -2.30001,1.36667 v -6.48335 h -1.81667 v 13.00003 h 1.81667 v -4.66668 c 0,-1.01666 0.66667,-1.71667 1.70001,-1.71667 0.96666,0 1.41667,0.60001 1.41667,1.71667 z"
         style="font-size:16.6667px;fill:#000000"
         id="path2911" /><path
         d="m 127.63881,239.02253 c 0,0.61667 0.51667,1.1 1.13333,1.1 0.63334,0 1.15001,-0.48333 1.15001,-1.1 0,-0.61667 -0.51667,-1.1 -1.15001,-1.1 -0.61666,0 -1.13333,0.48333 -1.13333,1.1 z m 0.25,3.05001 v 7.66668 h 1.78334 v -7.66668 z"
         style="font-size:16.6667px;fill:#000000"
         id="path2913" /><path
         d="m 137.08883,245.07254 v 4.66668 h 1.85 v -4.88334 c 0,-1.83334 -0.93333,-2.95001 -2.66667,-2.95001 -1.05,0 -1.81667,0.45 -2.3,1.35 v -1.18333 h -1.81667 v 7.66668 h 1.81667 v -4.66668 c 0,-1.05 0.66667,-1.71667 1.7,-1.71667 0.96667,0 1.41667,0.60001 1.41667,1.71667 z"
         style="font-size:16.6667px;fill:#000000"
         id="path2915" /><path
         d="m 140.6055,242.07254 v 1.58333 h 0.83334 v 6.08335 h 1.78334 v -6.08335 h 1.78333 v -1.58333 h -1.78333 v -2.48334 c 0,-0.96667 0.3,-1.35 0.8,-1.35 0.26667,0 0.56667,0.0833 0.8,0.43333 l 0.83333,-1.4 c -0.28333,-0.33334 -0.83333,-0.75 -1.71667,-0.75 -1.61667,0 -2.5,0.93333 -2.5,2.71667 v 2.83334 z"
         style="font-size:16.6667px;fill:#000000"
         id="path2917" /><path
         d="m 150.45552,243.98921 0.88334,-1.51667 c -0.35,-0.4 -0.86667,-0.58334 -1.41667,-0.58334 -0.65,0 -1.3,0.41667 -1.75,1.10001 v -0.91667 h -1.78334 v 7.66668 h 1.78334 v -4.31667 c 0,-1.10001 0.36666,-1.83334 1.26666,-1.83334 0.43334,0 0.68334,0.13333 1.01667,0.4 z"
         style="font-size:16.6667px;fill:#000000"
         id="path2919" /><path
         d="m 153.13887,244.07254 c 0.33334,-0.25 1.25001,-0.71667 2.33334,-0.71667 0.95,0 1.63334,0.33334 1.63334,1.26667 v 0.93334 c -0.48334,-0.26667 -1.21667,-0.53334 -2.21667,-0.53334 -1.90001,0 -3.00001,0.95001 -3.00001,2.43334 0,1.56667 1.23334,2.45001 2.68334,2.45001 0.98333,0 2.05,-0.4 2.53334,-1.21667 v 1.05 h 1.76667 v -5.46668 c 0,-1.51667 -1.35,-2.38334 -3.21668,-2.38334 -1.43333,0 -2.55,0.50001 -3.25,0.91667 z m 0.56667,3.28334 c 0,-0.71667 0.48334,-1.15 1.61667,-1.15 0.65,0 1.23334,0.11667 1.78334,0.36667 v 0.11666 c 0,1.16667 -0.9,1.86667 -1.96667,1.86667 -0.83334,0 -1.43334,-0.43333 -1.43334,-1.2 z"
         style="font-size:16.6667px;fill:#000000"
         id="path2921" /><path
         d="m 161.32222,247.20588 -1.05001,1.06667 c 0.66667,0.86667 1.83334,1.7 3.43334,1.7 1.66667,0 2.73334,-0.95 2.73334,-2.4 0,-1.38334 -1.06667,-1.9 -2.35,-2.41667 -0.93334,-0.36667 -1.66667,-0.63334 -1.66667,-1.2 0,-0.43334 0.38333,-0.65001 0.9,-0.65001 0.75,0 1.5,0.43334 2,1.01667 l 1.00001,-1.06667 c -0.63334,-0.76666 -1.71667,-1.35 -2.96668,-1.35 -1.41667,0 -2.63334,0.7 -2.63334,2.08334 0,1.38333 1.13334,1.96667 2.18334,2.33334 1.01667,0.36666 1.71667,0.66666 1.71667,1.35 0,0.5 -0.38333,0.81667 -1.03333,0.81667 -0.78334,0 -1.51667,-0.45 -2.26667,-1.28334 z"
         style="font-size:16.6667px;fill:#000000"
         id="path2923" /><path
         d="m 166.97223,242.07254 v 1.58333 h 1.3 v 6.08335 h 1.76667 v -6.08335 h 1.28334 v -1.58333 h -1.28334 v -2.66667 h -1.76667 v 2.66667 z"
         style="font-size:16.6667px;fill:#000000"
         id="path2925" /><path
         d="m 176.62224,243.98921 0.88334,-1.51667 c -0.35001,-0.4 -0.86667,-0.58334 -1.41667,-0.58334 -0.65001,0 -1.30001,0.41667 -1.75001,1.10001 v -0.91667 h -1.78333 v 7.66668 h 1.78333 v -4.31667 c 0,-1.10001 0.36667,-1.83334 1.26667,-1.83334 0.43334,0 0.68334,0.13333 1.01667,0.4 z"
         style="font-size:16.6667px;fill:#000000"
         id="path2927" /><path
         d="m 180.58892,246.73921 v -4.66667 h -1.85 v 4.86667 c 0,1.83334 0.95,2.96668 2.66667,2.96668 1.06667,0 1.81667,-0.46667 2.31667,-1.35001 v 1.18334 h 1.8 v -7.66668 h -1.8 v 4.66667 c 0,1.03334 -0.68334,1.71667 -1.7,1.71667 -0.96667,0 -1.43334,-0.61666 -1.43334,-1.71667 z"
         style="font-size:16.6667px;fill:#000000"
         id="path2929" /><path
         d="m 189.02228,245.90588 c 0,-1.41667 1.03333,-2.45001 2.38333,-2.45001 1.06667,0 2.11668,0.55001 2.50001,1.30001 v -2.00001 c -0.53333,-0.51666 -1.48334,-0.85 -2.58334,-0.85 -2.36667,0 -4.15001,1.63334 -4.15001,4.00001 0,2.35 1.78334,4.00001 4.15001,4.00001 1.1,0 2.05001,-0.31667 2.58334,-0.86667 v -1.98334 c -0.38333,0.73334 -1.38334,1.3 -2.50001,1.3 -1.35,0 -2.38333,-1 -2.38333,-2.45 z"
         style="font-size:16.6667px;fill:#000000"
         id="path2931" /><path
         d="m 194.82227,242.07254 v 1.58333 h 1.3 v 6.08335 h 1.76667 v -6.08335 h 1.28334 v -1.58333 h -1.28334 v -2.66667 h -1.76667 v 2.66667 z"
         style="font-size:16.6667px;fill:#000000"
         id="path2933" /><path
         d="m 202.25562,246.73921 v -4.66667 h -1.85 v 4.86667 c 0,1.83334 0.95,2.96668 2.66667,2.96668 1.06667,0 1.81667,-0.46667 2.31667,-1.35001 v 1.18334 h 1.8 v -7.66668 h -1.8 v 4.66667 c 0,1.03334 -0.68333,1.71667 -1.7,1.71667 -0.96667,0 -1.43334,-0.61666 -1.43334,-1.71667 z"
         style="font-size:16.6667px;fill:#000000"
         id="path2935" /><path
         d="m 213.55564,243.98921 0.88333,-1.51667 c -0.35,-0.4 -0.86667,-0.58334 -1.41667,-0.58334 -0.65,0 -1.3,0.41667 -1.75,1.10001 v -0.91667 h -1.78334 v 7.66668 h 1.78334 v -4.31667 c 0,-1.10001 0.36667,-1.83334 1.26667,-1.83334 0.43333,0 0.68333,0.13333 1.01667,0.4 z"
         style="font-size:16.6667px;fill:#000000"
         id="path2937" /><path
         d="m 218.75567,249.90589 c 1.76667,0 3.03334,-0.68334 3.85,-2.08334 l -1.56667,-0.61667 c -0.48333,0.81667 -1.21667,1.21667 -2.2,1.21667 -1.25,0 -2.03334,-0.75 -2.15,-2.1 h 5.96667 c 0,-0.0833 0.0167,-0.3 0.0167,-0.5 0,-2.45001 -1.41667,-3.91668 -3.83334,-3.91668 -2.43334,0 -4.00001,1.58334 -4.00001,4.00001 0,2.4 1.55,4.00001 3.91668,4.00001 z m 0.0667,-6.63335 c 1.08334,0 1.80001,0.71667 1.88334,1.8 H 216.739 c 0.21666,-1.16666 0.93333,-1.78333 2.08333,-1.8 z"
         style="font-size:16.6667px;fill:#000000"
         id="path2939" /><path
         d="m 228.77233,242.07254 v 1.58333 h 0.83333 v 6.08335 h 1.78334 v -6.08335 h 1.78334 v -1.58333 H 231.389 v -2.48334 c 0,-0.96667 0.3,-1.35 0.8,-1.35 0.26667,0 0.56667,0.0833 0.8,0.43333 l 0.83334,-1.4 c -0.28333,-0.33334 -0.83334,-0.75 -1.71667,-0.75 -1.61667,0 -2.50001,0.93333 -2.50001,2.71667 v 2.83334 z"
         style="font-size:16.6667px;fill:#000000"
         id="path2941" /><path
         d="m 233.97234,245.90588 c 0,2.35 1.78333,4.00001 4.13334,4.00001 2.35,0 4.13334,-1.65001 4.13334,-4.00001 0,-2.36667 -1.78334,-4.00001 -4.13334,-4.00001 -2.35001,0 -4.13334,1.63334 -4.13334,4.00001 z m 1.85,0 c 0,-1.43334 0.98334,-2.41667 2.28334,-2.41667 1.28334,0 2.28334,0.98333 2.28334,2.41667 0,1.43334 -1,2.41667 -2.28334,2.41667 -1.3,0 -2.28334,-0.98333 -2.28334,-2.41667 z"
         style="font-size:16.6667px;fill:#000000"
         id="path2943" /><path
         d="m 248.02236,243.98921 0.88333,-1.51667 c -0.35,-0.4 -0.86667,-0.58334 -1.41667,-0.58334 -0.65,0 -1.3,0.41667 -1.75,1.10001 v -0.91667 h -1.78334 v 7.66668 h 1.78334 v -4.31667 c 0,-1.10001 0.36667,-1.83334 1.26667,-1.83334 0.43333,0 0.68333,0.13333 1.01667,0.4 z"
         style="font-size:16.6667px;fill:#000000"
         id="path2945" /><path
         d="m 255.13903,236.73919 v 13.00003 h 1.81667 v -13.00003 z"
         style="font-size:16.6667px;fill:#000000"
         id="path2947" /><path
         d="m 259.80572,244.07254 c 0.33333,-0.25 1.25,-0.71667 2.33334,-0.71667 0.95,0 1.63334,0.33334 1.63334,1.26667 v 0.93334 c -0.48334,-0.26667 -1.21667,-0.53334 -2.21668,-0.53334 -1.9,0 -3,0.95001 -3,2.43334 0,1.56667 1.23333,2.45001 2.68334,2.45001 0.98333,0 2.05,-0.4 2.53334,-1.21667 v 1.05 h 1.76667 v -5.46668 c 0,-1.51667 -1.35001,-2.38334 -3.21668,-2.38334 -1.43333,0 -2.55,0.50001 -3.25,0.91667 z m 0.56667,3.28334 c 0,-0.71667 0.48333,-1.15 1.61667,-1.15 0.65,0 1.23333,0.11667 1.78334,0.36667 v 0.11666 c 0,1.16667 -0.90001,1.86667 -1.96668,1.86667 -0.83333,0 -1.43333,-0.43333 -1.43333,-1.2 z"
         style="font-size:16.6667px;fill:#000000"
         id="path2949" /><path
         d="m 272.57241,245.07254 v 4.66668 h 1.85 v -4.88334 c 0,-1.83334 -0.93334,-2.95001 -2.66667,-2.95001 -1.05001,0 -1.81667,0.45 -2.30001,1.35 v -1.18333 h -1.81667 v 7.66668 h 1.81667 v -4.66668 c 0,-1.05 0.66667,-1.71667 1.70001,-1.71667 0.96666,0 1.41667,0.60001 1.41667,1.71667 z"
         style="font-size:16.6667px;fill:#000000"
         id="path2951" /><path
         d="m 276.28907,250.25589 c 0.0833,2 1.5,3.38334 4.00001,3.38334 2.08334,0 3.96667,-1.3 3.96667,-4.06668 v -7.50001 h -1.76667 v 1.25 c -0.56666,-0.91667 -1.5,-1.41667 -2.61667,-1.41667 -2,0 -3.73334,1.43334 -3.73334,3.95001 0,2.53334 1.73334,3.96667 3.73334,3.96667 1.11667,0 2.05001,-0.5 2.61667,-1.41667 v 1.16667 c 0,1.71667 -1.11667,2.50001 -2.23333,2.50001 -1.30001,0 -2.13334,-0.78334 -2.16668,-1.81667 z m 1.71667,-4.40001 c 0,-1.53334 1.05,-2.38334 2.30001,-2.38334 1.05,0 2.18333,0.83334 2.18333,2.38334 0,1.56667 -1.13333,2.4 -2.18333,2.4 -1.25001,0 -2.30001,-0.85 -2.30001,-2.4 z"
         style="font-size:16.6667px;fill:#000000"
         id="path2953" /><path
         d="m 288.3391,246.73921 v -4.66667 h -1.85 v 4.86667 c 0,1.83334 0.95,2.96668 2.66667,2.96668 1.06667,0 1.81667,-0.46667 2.31667,-1.35001 v 1.18334 h 1.80001 v -7.66668 h -1.80001 v 4.66667 c 0,1.03334 -0.68333,1.71667 -1.7,1.71667 -0.96667,0 -1.43334,-0.61666 -1.43334,-1.71667 z"
         style="font-size:16.6667px;fill:#000000"
         id="path2955" /><path
         d="m 296.13912,244.07254 c 0.33334,-0.25 1.25001,-0.71667 2.33334,-0.71667 0.95,0 1.63334,0.33334 1.63334,1.26667 v 0.93334 c -0.48333,-0.26667 -1.21667,-0.53334 -2.21667,-0.53334 -1.90001,0 -3.00001,0.95001 -3.00001,2.43334 0,1.56667 1.23334,2.45001 2.68334,2.45001 0.98334,0 2.05001,-0.4 2.53334,-1.21667 v 1.05 h 1.76667 v -5.46668 c 0,-1.51667 -1.35,-2.38334 -3.21667,-2.38334 -1.43334,0 -2.55001,0.50001 -3.25001,0.91667 z m 0.56667,3.28334 c 0,-0.71667 0.48334,-1.15 1.61667,-1.15 0.65,0 1.23334,0.11667 1.78334,0.36667 v 0.11666 c 0,1.16667 -0.9,1.86667 -1.96667,1.86667 -0.83334,0 -1.43334,-0.43333 -1.43334,-1.2 z"
         style="font-size:16.6667px;fill:#000000"
         id="path2957" /><path
         d="m 303.53915,250.25589 c 0.0833,2 1.5,3.38334 4.00001,3.38334 2.08333,0 3.96667,-1.3 3.96667,-4.06668 v -7.50001 h -1.76667 v 1.25 c -0.56667,-0.91667 -1.5,-1.41667 -2.61667,-1.41667 -2.00001,0 -3.73334,1.43334 -3.73334,3.95001 0,2.53334 1.73333,3.96667 3.73334,3.96667 1.11667,0 2.05,-0.5 2.61667,-1.41667 v 1.16667 c 0,1.71667 -1.11667,2.50001 -2.23334,2.50001 -1.3,0 -2.13334,-0.78334 -2.16667,-1.81667 z m 1.71667,-4.40001 c 0,-1.53334 1.05,-2.38334 2.3,-2.38334 1.05,0 2.18334,0.83334 2.18334,2.38334 0,1.56667 -1.13334,2.4 -2.18334,2.4 -1.25,0 -2.3,-0.85 -2.3,-2.4 z"
         style="font-size:16.6667px;fill:#000000"
         id="path2959" /><path
         d="m 317.07251,249.90589 c 1.76667,0 3.03334,-0.68334 3.85001,-2.08334 l -1.56667,-0.61667 c -0.48333,0.81667 -1.21667,1.21667 -2.2,1.21667 -1.25,0 -2.03334,-0.75 -2.15001,-2.1 h 5.96668 c 0,-0.0833 0.0167,-0.3 0.0167,-0.5 0,-2.45001 -1.41667,-3.91668 -3.83334,-3.91668 -2.43334,0 -4.00001,1.58334 -4.00001,4.00001 0,2.4 1.55,4.00001 3.91667,4.00001 z m 0.0667,-6.63335 c 1.08334,0 1.80001,0.71667 1.88334,1.8 h -3.96668 c 0.21667,-1.16666 0.93334,-1.78333 2.08334,-1.8 z"
         style="font-size:16.6667px;fill:#000000"
         id="path2961" /><path
         d="m 327.13918,245.90588 c 0,2.51667 1.73333,4.00001 3.73334,4.00001 1.11667,0 2.05,-0.51667 2.61667,-1.45001 v 1.28334 h 1.81667 v -13.00003 h -1.81667 v 6.61668 c -0.56667,-0.93333 -1.5,-1.45 -2.61667,-1.45 -2.00001,0 -3.73334,1.46667 -3.73334,4.00001 z m 1.86667,0 c 0,-1.53334 1.05,-2.43334 2.3,-2.43334 1.05,0 2.18334,0.86667 2.18334,2.43334 0,1.55 -1.13334,2.43334 -2.18334,2.43334 -1.25,0 -2.3,-0.9 -2.3,-2.43334 z"
         style="font-size:16.6667px;fill:#000000"
         id="path2963" /><path
         d="m 338.10586,244.07254 c 0.33333,-0.25 1.25,-0.71667 2.33334,-0.71667 0.95,0 1.63334,0.33334 1.63334,1.26667 v 0.93334 c -0.48334,-0.26667 -1.21667,-0.53334 -2.21668,-0.53334 -1.9,0 -3,0.95001 -3,2.43334 0,1.56667 1.23333,2.45001 2.68334,2.45001 0.98333,0 2.05,-0.4 2.53334,-1.21667 v 1.05 h 1.76667 v -5.46668 c 0,-1.51667 -1.35001,-2.38334 -3.21668,-2.38334 -1.43333,0 -2.55,0.50001 -3.25,0.91667 z m 0.56667,3.28334 c 0,-0.71667 0.48333,-1.15 1.61667,-1.15 0.65,0 1.23333,0.11667 1.78334,0.36667 v 0.11666 c 0,1.16667 -0.90001,1.86667 -1.96668,1.86667 -0.83333,0 -1.43333,-0.43333 -1.43333,-1.2 z"
         style="font-size:16.6667px;fill:#000000"
         id="path2965" /><path
         d="m 344.87255,242.07254 v 1.58333 h 1.3 v 6.08335 h 1.76667 v -6.08335 h 1.28334 v -1.58333 h -1.28334 v -2.66667 h -1.76667 v 2.66667 z"
         style="font-size:16.6667px;fill:#000000"
         id="path2967" /><path
         d="m 351.02255,244.07254 c 0.33333,-0.25 1.25,-0.71667 2.33334,-0.71667 0.95,0 1.63333,0.33334 1.63333,1.26667 v 0.93334 c -0.48333,-0.26667 -1.21667,-0.53334 -2.21667,-0.53334 -1.9,0 -3,0.95001 -3,2.43334 0,1.56667 1.23333,2.45001 2.68333,2.45001 0.98334,0 2.05001,-0.4 2.53334,-1.21667 v 1.05 h 1.76667 v -5.46668 c 0,-1.51667 -1.35,-2.38334 -3.21667,-2.38334 -1.43334,0 -2.55001,0.50001 -3.25001,0.91667 z m 0.56667,3.28334 c 0,-0.71667 0.48333,-1.15 1.61667,-1.15 0.65,0 1.23333,0.11667 1.78333,0.36667 v 0.11666 c 0,1.16667 -0.9,1.86667 -1.96667,1.86667 -0.83333,0 -1.43333,-0.43333 -1.43333,-1.2 z"
         style="font-size:16.6667px;fill:#000000"
         id="path2969" /><path
         d="m 44.355342,262.40592 c 0.333334,-0.25 1.250003,-0.71667 2.333338,-0.71667 0.950002,0 1.633337,0.33333 1.633337,1.26667 v 0.93333 c -0.483335,-0.26666 -1.216669,-0.53333 -2.216671,-0.53333 -1.900004,0 -3.000007,0.95 -3.000007,2.43334 0,1.56667 1.233336,2.45 2.683339,2.45 0.983336,0 2.050004,-0.4 2.533339,-1.21667 v 1.05 h 1.76667 v -5.46667 c 0,-1.51667 -1.350003,-2.38334 -3.216673,-2.38334 -1.433336,0 -2.550005,0.5 -3.250007,0.91667 z m 0.566668,3.28334 c 0,-0.71667 0.483334,-1.15001 1.61667,-1.15001 0.650001,0 1.233336,0.11667 1.783337,0.36667 v 0.11667 c 0,1.16667 -0.900002,1.86667 -1.966671,1.86667 -0.833335,0 -1.433336,-0.43334 -1.433336,-1.2 z"
         style="font-size:16.6667px;fill:#000000"
         id="path2971" /><path
         d="m 57.12203,263.40592 v 4.66667 h 1.850003 v -4.88334 c 0,-1.83334 -0.933335,-2.95 -2.666672,-2.95 -1.050002,0 -1.81667,0.45 -2.300004,1.35 v -1.18334 h -1.816671 v 7.66668 h 1.816671 v -4.66667 c 0,-1.05 0.666668,-1.71667 1.700003,-1.71667 0.966669,0 1.41667,0.6 1.41667,1.71667 z"
         style="font-size:16.6667px;fill:#000000"
         id="path2973" /><path
         d="m 60.688704,264.23925 c 0,2.51668 1.733337,4.00001 3.733341,4.00001 1.116669,0 2.050004,-0.51667 2.616672,-1.45 v 1.28333 h 1.81667 v -13.00002 h -1.81667 v 6.61668 c -0.566668,-0.93334 -1.500003,-1.45 -2.616672,-1.45 -2.000004,0 -3.733341,1.46666 -3.733341,4 z m 1.86667,0 c 0,-1.53333 1.050002,-2.43333 2.300005,-2.43333 1.050002,0 2.183338,0.86666 2.183338,2.43333 0,1.55001 -1.133336,2.43334 -2.183338,2.43334 -1.250003,0 -2.300005,-0.9 -2.300005,-2.43334 z"
         style="font-size:16.6667px;fill:#000000"
         id="path2975" /><path
         d="m 76.655402,262.40592 c 0.333334,-0.25 1.250003,-0.71667 2.333338,-0.71667 0.950002,0 1.633337,0.33333 1.633337,1.26667 v 0.93333 c -0.483334,-0.26666 -1.216669,-0.53333 -2.216671,-0.53333 -1.900004,0 -3.000006,0.95 -3.000006,2.43334 0,1.56667 1.233336,2.45 2.683339,2.45 0.983335,0 2.050004,-0.4 2.533338,-1.21667 v 1.05 h 1.76667 v -5.46667 c 0,-1.51667 -1.350003,-2.38334 -3.216673,-2.38334 -1.433336,0 -2.550005,0.5 -3.250007,0.91667 z m 0.566668,3.28334 c 0,-0.71667 0.483334,-1.15001 1.61667,-1.15001 0.650001,0 1.233336,0.11667 1.783337,0.36667 v 0.11667 c 0,1.16667 -0.900002,1.86667 -1.966671,1.86667 -0.833335,0 -1.433336,-0.43334 -1.433336,-1.2 z"
         style="font-size:16.6667px;fill:#000000"
         id="path2977" /><path
         d="m 89.488744,255.07257 v 13.00002 h 1.81667 v -13.00002 z"
         style="font-size:16.6667px;fill:#000000"
         id="path2979" /><path
         d="m 94.155425,262.40592 c 0.333334,-0.25 1.250003,-0.71667 2.333338,-0.71667 0.950002,0 1.633337,0.33333 1.633337,1.26667 v 0.93333 c -0.483334,-0.26666 -1.216669,-0.53333 -2.216671,-0.53333 -1.900004,0 -3.000006,0.95 -3.000006,2.43334 0,1.56667 1.233335,2.45 2.683338,2.45 0.983336,0 2.050005,-0.4 2.533339,-1.21667 v 1.05 h 1.76667 v -5.46667 c 0,-1.51667 -1.350003,-2.38334 -3.216673,-2.38334 -1.433336,0 -2.550005,0.5 -3.250007,0.91667 z m 0.566668,3.28334 c 0,-0.71667 0.483334,-1.15001 1.61667,-1.15001 0.650001,0 1.233336,0.11667 1.783337,0.36667 v 0.11667 c 0,1.16667 -0.900002,1.86667 -1.966671,1.86667 -0.833335,0 -1.433336,-0.43334 -1.433336,-1.2 z"
         style="font-size:16.6667px;fill:#000000"
         id="path2981" /><path
         d="m 106.92211,263.40592 v 4.66667 h 1.85001 v -4.88334 c 0,-1.83334 -0.93334,-2.95 -2.66667,-2.95 -1.05001,0 -1.81668,0.45 -2.30001,1.35 v -1.18334 h -1.81667 v 7.66668 h 1.81667 v -4.66667 c 0,-1.05 0.66667,-1.71667 1.7,-1.71667 0.96667,0 1.41667,0.6 1.41667,1.71667 z"
         style="font-size:16.6667px;fill:#000000"
         id="path2983" /><path
         d="m 110.63879,268.58926 c 0.0833,2.00001 1.5,3.38334 4.00001,3.38334 2.08333,0 3.96667,-1.3 3.96667,-4.06667 v -7.50002 h -1.76667 v 1.25 c -0.56667,-0.91666 -1.5,-1.41666 -2.61667,-1.41666 -2.00001,0 -3.73334,1.43333 -3.73334,3.95 0,2.53334 1.73333,3.96668 3.73334,3.96668 1.11667,0 2.05,-0.5 2.61667,-1.41667 v 1.16667 c 0,1.71667 -1.11667,2.5 -2.23334,2.5 -1.3,0 -2.13334,-0.78333 -2.16667,-1.81667 z m 1.71667,-4.40001 c 0,-1.53333 1.05,-2.38333 2.3,-2.38333 1.05,0 2.18334,0.83333 2.18334,2.38333 0,1.56667 -1.13334,2.40001 -2.18334,2.40001 -1.25,0 -2.3,-0.85 -2.3,-2.40001 z"
         style="font-size:16.6667px;fill:#000000"
         id="path2985" /><path
         d="m 122.68882,265.07259 v -4.66668 h -1.85001 v 4.86668 c 0,1.83334 0.95001,2.96667 2.66668,2.96667 1.06667,0 1.81667,-0.46667 2.31667,-1.35 v 1.18333 h 1.8 v -7.66668 h -1.8 v 4.66668 c 0,1.03333 -0.68334,1.71667 -1.70001,1.71667 -0.96666,0 -1.43333,-0.61667 -1.43333,-1.71667 z"
         style="font-size:16.6667px;fill:#000000"
         id="path2987" /><path
         d="m 130.48884,262.40592 c 0.33334,-0.25 1.25,-0.71667 2.33334,-0.71667 0.95,0 1.63334,0.33333 1.63334,1.26667 v 0.93333 c -0.48334,-0.26666 -1.21667,-0.53333 -2.21668,-0.53333 -1.9,0 -3,0.95 -3,2.43334 0,1.56667 1.23333,2.45 2.68334,2.45 0.98333,0 2.05,-0.4 2.53334,-1.21667 v 1.05 h 1.76667 v -5.46667 c 0,-1.51667 -1.35001,-2.38334 -3.21668,-2.38334 -1.43333,0 -2.55,0.5 -3.25,0.91667 z m 0.56667,3.28334 c 0,-0.71667 0.48333,-1.15001 1.61667,-1.15001 0.65,0 1.23333,0.11667 1.78334,0.36667 v 0.11667 c 0,1.16667 -0.90001,1.86667 -1.96667,1.86667 -0.83334,0 -1.43334,-0.43334 -1.43334,-1.2 z"
         style="font-size:16.6667px;fill:#000000"
         id="path2989" /><path
         d="m 137.88885,268.58926 c 0.0833,2.00001 1.5,3.38334 4.00001,3.38334 2.08333,0 3.96667,-1.3 3.96667,-4.06667 v -7.50002 h -1.76667 v 1.25 c -0.56667,-0.91666 -1.5,-1.41666 -2.61667,-1.41666 -2.00001,0 -3.73334,1.43333 -3.73334,3.95 0,2.53334 1.73333,3.96668 3.73334,3.96668 1.11667,0 2.05,-0.5 2.61667,-1.41667 v 1.16667 c 0,1.71667 -1.11667,2.5 -2.23334,2.5 -1.3,0 -2.13333,-0.78333 -2.16667,-1.81667 z m 1.71667,-4.40001 c 0,-1.53333 1.05,-2.38333 2.3,-2.38333 1.05001,0 2.18334,0.83333 2.18334,2.38333 0,1.56667 -1.13333,2.40001 -2.18334,2.40001 -1.25,0 -2.3,-0.85 -2.3,-2.40001 z"
         style="font-size:16.6667px;fill:#000000"
         id="path2991" /><path
         d="m 151.42222,268.23926 c 1.76667,0 3.03334,-0.68333 3.85,-2.08334 l -1.56667,-0.61666 c -0.48333,0.81666 -1.21667,1.21667 -2.2,1.21667 -1.25,0 -2.03334,-0.75001 -2.15001,-2.10001 h 5.96668 c 0,-0.0833 0.0167,-0.3 0.0167,-0.5 0,-2.45001 -1.41667,-3.91667 -3.83334,-3.91667 -2.43334,0 -4.00001,1.58333 -4.00001,4 0,2.40001 1.55,4.00001 3.91668,4.00001 z m 0.0667,-6.63335 c 1.08334,0 1.80001,0.71667 1.88334,1.80001 h -3.96668 c 0.21667,-1.16667 0.93334,-1.78334 2.08334,-1.80001 z"
         style="font-size:16.6667px;fill:#000000"
         id="path2993" /><path
         d="m 161.00555,260.40591 v 1.58334 h 1.3 v 6.08334 h 1.76667 v -6.08334 h 1.28334 v -1.58334 h -1.28334 v -2.66667 h -1.76667 v 2.66667 z"
         style="font-size:16.6667px;fill:#000000"
         id="path2995" /><path
         d="m 169.92223,268.23926 c 1.76667,0 3.03334,-0.68333 3.85001,-2.08334 l -1.56667,-0.61666 c -0.48334,0.81666 -1.21667,1.21667 -2.20001,1.21667 -1.25,0 -2.03333,-0.75001 -2.15,-2.10001 h 5.96668 c 0,-0.0833 0.0167,-0.3 0.0167,-0.5 0,-2.45001 -1.41667,-3.91667 -3.83335,-3.91667 -2.43333,0 -4,1.58333 -4,4 0,2.40001 1.55,4.00001 3.91667,4.00001 z m 0.0667,-6.63335 c 1.08333,0 1.8,0.71667 1.88333,1.80001 h -3.96667 c 0.21667,-1.16667 0.93334,-1.78334 2.08334,-1.80001 z"
         style="font-size:16.6667px;fill:#000000"
         id="path2997" /><path
         d="m 176.77225,264.23925 c 0,-1.41667 1.03333,-2.45 2.38333,-2.45 1.06667,0 2.11668,0.55 2.50001,1.3 v -2 c -0.53334,-0.51667 -1.48334,-0.85 -2.58334,-0.85 -2.36667,0 -4.15001,1.63333 -4.15001,4 0,2.35001 1.78334,4.00001 4.15001,4.00001 1.1,0 2.05,-0.31667 2.58334,-0.86667 v -1.98333 c -0.38333,0.73333 -1.38334,1.3 -2.50001,1.3 -1.35,0 -2.38333,-1 -2.38333,-2.45001 z"
         style="font-size:16.6667px;fill:#000000"
         id="path2999" /><path
         d="m 188.57225,263.40592 v 4.66667 h 1.81667 v -4.91667 c 0,-1.95001 -0.93333,-2.96667 -2.63334,-2.96667 -1.05,0 -1.85,0.53333 -2.3,1.36666 v -6.48334 h -1.81667 v 13.00002 h 1.81667 v -4.66667 c 0,-1.01667 0.66667,-1.71667 1.7,-1.71667 0.96667,0 1.41667,0.6 1.41667,1.71667 z"
         style="font-size:16.6667px;fill:#000000"
         id="path3001" /><path
         d="m 197.62226,263.40592 v 4.66667 h 1.85 v -4.88334 c 0,-1.83334 -0.93334,-2.95 -2.66667,-2.95 -1.05,0 -1.81667,0.45 -2.30001,1.35 v -1.18334 h -1.81667 v 7.66668 h 1.81667 v -4.66667 c 0,-1.05 0.66667,-1.71667 1.70001,-1.71667 0.96666,0 1.41667,0.6 1.41667,1.71667 z"
         style="font-size:16.6667px;fill:#000000"
         id="path3003" /><path
         d="m 201.18894,264.23925 c 0,2.35001 1.78333,4.00001 4.13334,4.00001 2.35,0 4.13334,-1.65 4.13334,-4.00001 0,-2.36667 -1.78334,-4 -4.13334,-4 -2.35001,0 -4.13334,1.63333 -4.13334,4 z m 1.85,0 c 0,-1.43333 0.98334,-2.41667 2.28334,-2.41667 1.28333,0 2.28334,0.98334 2.28334,2.41667 0,1.43334 -1.00001,2.41667 -2.28334,2.41667 -1.3,0 -2.28334,-0.98333 -2.28334,-2.41667 z"
         style="font-size:16.6667px;fill:#000000"
         id="path3005" /><path
         d="m 211.17226,255.07257 v 13.00002 h 1.81668 v -13.00002 z"
         style="font-size:16.6667px;fill:#000000"
         id="path3007" /><path
         d="m 214.68895,264.23925 c 0,2.35001 1.78334,4.00001 4.13334,4.00001 2.35001,0 4.13335,-1.65 4.13335,-4.00001 0,-2.36667 -1.78334,-4 -4.13335,-4 -2.35,0 -4.13334,1.63333 -4.13334,4 z m 1.85001,0 c 0,-1.43333 0.98333,-2.41667 2.28333,-2.41667 1.28334,0 2.28334,0.98334 2.28334,2.41667 0,1.43334 -1,2.41667 -2.28334,2.41667 -1.3,0 -2.28333,-0.98333 -2.28333,-2.41667 z"
         style="font-size:16.6667px;fill:#000000"
         id="path3009" /><path
         d="m 224.23896,268.58926 c 0.0833,2.00001 1.5,3.38334 4.00001,3.38334 2.08334,0 3.96667,-1.3 3.96667,-4.06667 v -7.50002 h -1.76667 v 1.25 c -0.56666,-0.91666 -1.5,-1.41666 -2.61667,-1.41666 -2,0 -3.73334,1.43333 -3.73334,3.95 0,2.53334 1.73334,3.96668 3.73334,3.96668 1.11667,0 2.05001,-0.5 2.61667,-1.41667 v 1.16667 c 0,1.71667 -1.11667,2.5 -2.23333,2.5 -1.30001,0 -2.13334,-0.78333 -2.16668,-1.81667 z m 1.71667,-4.40001 c 0,-1.53333 1.05,-2.38333 2.30001,-2.38333 1.05,0 2.18333,0.83333 2.18333,2.38333 0,1.56667 -1.13333,2.40001 -2.18333,2.40001 -1.25001,0 -2.30001,-0.85 -2.30001,-2.40001 z"
         style="font-size:16.6667px;fill:#000000"
         id="path3011" /><path
         d="M 241.22234,260.40591 H 239.289 l -1.98334,4.98335 -2.01667,-4.98335 h -2.06667 l 3.10001,6.76668 -2.01668,4.56668 h 1.91668 z"
         style="font-size:16.6667px;fill:#000000"
         id="path3013" /><path
         d="m 251.38899,262.32258 0.88334,-1.51667 c -0.35,-0.4 -0.86667,-0.58333 -1.41667,-0.58333 -0.65,0 -1.3,0.41667 -1.75,1.1 v -0.91667 h -1.78334 v 7.66668 h 1.78334 v -4.31667 c 0,-1.1 0.36666,-1.83334 1.26667,-1.83334 0.43333,0 0.68333,0.13334 1.01666,0.4 z"
         style="font-size:16.6667px;fill:#000000"
         id="path3015" /><path
         d="m 256.58902,268.23926 c 1.76668,0 3.03334,-0.68333 3.85001,-2.08334 l -1.56667,-0.61666 c -0.48333,0.81666 -1.21667,1.21667 -2.2,1.21667 -1.25,0 -2.03334,-0.75001 -2.15001,-2.10001 h 5.96668 c 0,-0.0833 0.0167,-0.3 0.0167,-0.5 0,-2.45001 -1.41667,-3.91667 -3.83334,-3.91667 -2.43334,0 -4.00001,1.58333 -4.00001,4 0,2.40001 1.55,4.00001 3.91667,4.00001 z m 0.0667,-6.63335 c 1.08334,0 1.80001,0.71667 1.88334,1.80001 h -3.96668 c 0.21667,-1.16667 0.93334,-1.78334 2.08334,-1.80001 z"
         style="font-size:16.6667px;fill:#000000"
         id="path3017" /><path
         d="m 262.58902,265.53926 -1.05,1.06666 c 0.66667,0.86667 1.83334,1.70001 3.43334,1.70001 1.66667,0 2.73334,-0.95 2.73334,-2.40001 0,-1.38333 -1.06667,-1.9 -2.35,-2.41667 -0.93334,-0.36667 -1.66667,-0.63333 -1.66667,-1.2 0,-0.43333 0.38333,-0.65 0.9,-0.65 0.75,0 1.5,0.43333 2,1.01667 l 1,-1.06667 c -0.63333,-0.76667 -1.71667,-1.35 -2.96667,-1.35 -1.41667,0 -2.63334,0.7 -2.63334,2.08333 0,1.38334 1.13334,1.96667 2.18334,2.33334 1.01667,0.36667 1.71667,0.66667 1.71667,1.35 0,0.5 -0.38333,0.81667 -1.03334,0.81667 -0.78333,0 -1.51667,-0.45 -2.26667,-1.28333 z"
         style="font-size:16.6667px;fill:#000000"
         id="path3019" /><path
         d="m 272.63904,268.23926 c 1.76667,0 3.03334,-0.68333 3.85001,-2.08334 l -1.56667,-0.61666 c -0.48333,0.81666 -1.21667,1.21667 -2.2,1.21667 -1.25001,0 -2.03334,-0.75001 -2.15001,-2.10001 h 5.96668 c 0,-0.0833 0.0167,-0.3 0.0167,-0.5 0,-2.45001 -1.41667,-3.91667 -3.83334,-3.91667 -2.43334,0 -4.00001,1.58333 -4.00001,4 0,2.40001 1.55,4.00001 3.91667,4.00001 z m 0.0667,-6.63335 c 1.08334,0 1.8,0.71667 1.88334,1.80001 h -3.96668 c 0.21667,-1.16667 0.93334,-1.78334 2.08334,-1.80001 z"
         style="font-size:16.6667px;fill:#000000"
         id="path3021" /><path
         d="m 278.85572,262.40592 c 0.33334,-0.25 1.25001,-0.71667 2.33334,-0.71667 0.95,0 1.63334,0.33333 1.63334,1.26667 v 0.93333 c -0.48334,-0.26666 -1.21667,-0.53333 -2.21667,-0.53333 -1.90001,0 -3.00001,0.95 -3.00001,2.43334 0,1.56667 1.23334,2.45 2.68334,2.45 0.98334,0 2.05,-0.4 2.53334,-1.21667 v 1.05 h 1.76667 v -5.46667 c 0,-1.51667 -1.35,-2.38334 -3.21667,-2.38334 -1.43334,0 -2.55001,0.5 -3.25001,0.91667 z m 0.56667,3.28334 c 0,-0.71667 0.48334,-1.15001 1.61667,-1.15001 0.65,0 1.23334,0.11667 1.78334,0.36667 v 0.11667 c 0,1.16667 -0.9,1.86667 -1.96667,1.86667 -0.83334,0 -1.43334,-0.43334 -1.43334,-1.2 z"
         style="font-size:16.6667px;fill:#000000"
         id="path3023" /><path
         d="m 290.75574,262.32258 0.88333,-1.51667 c -0.35,-0.4 -0.86666,-0.58333 -1.41666,-0.58333 -0.65001,0 -1.30001,0.41667 -1.75001,1.1 v -0.91667 h -1.78334 v 7.66668 h 1.78334 v -4.31667 c 0,-1.1 0.36667,-1.83334 1.26667,-1.83334 0.43334,0 0.68334,0.13334 1.01667,0.4 z"
         style="font-size:16.6667px;fill:#000000"
         id="path3025" /><path
         d="m 293.82242,264.23925 c 0,-1.41667 1.03333,-2.45 2.38334,-2.45 1.06666,0 2.11667,0.55 2.5,1.3 v -2 c -0.53333,-0.51667 -1.48334,-0.85 -2.58334,-0.85 -2.36667,0 -4.15001,1.63333 -4.15001,4 0,2.35001 1.78334,4.00001 4.15001,4.00001 1.1,0 2.05001,-0.31667 2.58334,-0.86667 v -1.98333 c -0.38333,0.73333 -1.38334,1.3 -2.5,1.3 -1.35001,0 -2.38334,-1 -2.38334,-2.45001 z"
         style="font-size:16.6667px;fill:#000000"
         id="path3027" /><path
         d="m 305.62244,263.40592 v 4.66667 h 1.81667 v -4.91667 c 0,-1.95001 -0.93334,-2.96667 -2.63334,-2.96667 -1.05,0 -1.85,0.53333 -2.3,1.36666 v -6.48334 h -1.81667 v 13.00002 h 1.81667 v -4.66667 c 0,-1.01667 0.66666,-1.71667 1.7,-1.71667 0.96667,0 1.41667,0.6 1.41667,1.71667 z"
         style="font-size:16.6667px;fill:#000000"
         id="path3029" /><path
         d="m 316.58909,265.07259 v -4.66668 h -1.85001 v 4.86668 c 0,1.83334 0.95001,2.96667 2.66668,2.96667 1.06666,0 1.81667,-0.46667 2.31667,-1.35 v 1.18333 h 1.8 v -7.66668 h -1.8 v 4.66668 c 0,1.03333 -0.68334,1.71667 -1.70001,1.71667 -0.96667,0 -1.43333,-0.61667 -1.43333,-1.71667 z"
         style="font-size:16.6667px;fill:#000000"
         id="path3031" /><path
         d="m 328.7558,263.40592 v 4.66667 h 1.85 v -4.88334 c 0,-1.83334 -0.93333,-2.95 -2.66667,-2.95 -1.05,0 -1.81667,0.45 -2.3,1.35 v -1.18334 h -1.81667 v 7.66668 h 1.81667 v -4.66667 c 0,-1.05 0.66667,-1.71667 1.7,-1.71667 0.96667,0 1.41667,0.6 1.41667,1.71667 z"
         style="font-size:16.6667px;fill:#000000"
         id="path3033" /><path
         d="m 332.83913,257.35591 c 0,0.61666 0.51667,1.1 1.13334,1.1 0.63333,0 1.15,-0.48334 1.15,-1.1 0,-0.61667 -0.51667,-1.10001 -1.15,-1.10001 -0.61667,0 -1.13334,0.48334 -1.13334,1.10001 z m 0.25,3.05 v 7.66668 h 1.78334 v -7.66668 z"
         style="font-size:16.6667px;fill:#000000"
         id="path3035" /><path
         d="m 336.28914,260.40591 v 1.58334 h 1.30001 v 6.08334 h 1.76667 v -6.08334 h 1.28333 v -1.58334 h -1.28333 v -2.66667 h -1.76667 v 2.66667 z"
         style="font-size:16.6667px;fill:#000000"
         id="path3037" /></g></g></svg>
