<?xml version="1.0" encoding="UTF-8" standalone="no"?>
<!-- Created with Inkscape (http://www.inkscape.org/) -->

<svg
   width="40.110329mm"
   height="14.269318mm"
   viewBox="0 0 40.110329 14.269318"
   version="1.1"
   id="svg5"
   inkscape:version="1.2.2 (b0a8486541, 2022-12-01)"
   sodipodi:docname="strix.svg"
   xml:space="preserve"
   inkscape:export-filename="tmp.png"
   inkscape:export-xdpi="171.03999"
   inkscape:export-ydpi="171.03999"
   xmlns:inkscape="http://www.inkscape.org/namespaces/inkscape"
   xmlns:sodipodi="http://sodipodi.sourceforge.net/DTD/sodipodi-0.dtd"
   xmlns="http://www.w3.org/2000/svg"
   xmlns:svg="http://www.w3.org/2000/svg"><sodipodi:namedview
     id="namedview7"
     pagecolor="#ffffff"
     bordercolor="#000000"
     borderopacity="0.25"
     inkscape:showpageshadow="2"
     inkscape:pageopacity="0.0"
     inkscape:pagecheckerboard="0"
     inkscape:deskcolor="#d1d1d1"
     inkscape:document-units="mm"
     showgrid="false"
     inkscape:zoom="1.330521"
     inkscape:cx="336.33441"
     inkscape:cy="61.2542"
     inkscape:window-width="1920"
     inkscape:window-height="1029"
     inkscape:window-x="0"
     inkscape:window-y="27"
     inkscape:window-maximized="1"
     inkscape:current-layer="layer1"
     showguides="true"><inkscape:grid
       type="xygrid"
       id="grid13315" /><sodipodi:guide
       position="-0.62088806,202.15266"
       orientation="1,0"
       id="guide13317"
       inkscape:locked="false" /><sodipodi:guide
       position="-13.850054,198.18391"
       orientation="0,-1"
       id="guide13319"
       inkscape:locked="false" /><sodipodi:guide
       position="102.56661,104.25682"
       orientation="1,0"
       id="guide4551"
       inkscape:locked="false" /><sodipodi:guide
       position="25.385454,14.682877"
       orientation="0,-1"
       id="guide5892"
       inkscape:locked="false" /></sodipodi:namedview><defs
     id="defs2"><rect
       x="165.33238"
       y="165.66167"
       width="170.87849"
       height="72.536377"
       id="rect827-6-9-4-1-6-6-9-9" /></defs><g
     inkscape:label="Layer 1"
     inkscape:groupmode="layer"
     id="layer1"
     transform="translate(-11.204221,-194.49792)"><g
       aria-label="Strix"
       transform="matrix(0.26458333,0,0,0.26458333,-33.160766,152.59586)"
       id="text825-4-5-8-7-9-3-4"
       style="font-weight:300;font-size:53.3333px;font-family:'Jost*';-inkscape-font-specification:'Jost*, Light';white-space:pre;shape-inside:url(#rect827-6-9-4-1-6-6-9-9);display:inline"><path
         d="m 170.0787,201.04792 -2.4,1.49334 c 1.76,5.22666 5.91999,9.75999 12.37332,9.75999 6.08,0 10.82666,-4.10666 10.82666,-10.18666 0,-6.56 -5.11999,-9.38666 -9.27999,-10.87999 -6.02666,-2.13334 -9.06666,-4.42667 -9.06666,-8.53333 0,-3.36 2.4,-5.86666 6.77333,-5.86666 4.85333,0 7.25333,3.25333 8.53332,6.07999 l 2.56,-1.44 c -1.49333,-3.57333 -5.01333,-7.46666 -10.93332,-7.46666 -5.86667,0 -10.02666,3.68 -10.02666,9.06666 0,6.34666 5.59999,8.85333 9.91999,10.45333 4.26666,1.6 8.47999,3.52 8.47999,8.90666 0,4.10666 -2.93333,7.09333 -7.73332,7.09333 -5.38667,0 -8.26667,-3.78666 -10.02666,-8.48 z"
         id="path8272" /><path
         d="m 193.75869,187.28793 v 2.61333 h 4 v 21.91999 h 2.77333 v -21.91999 h 4 v -2.61333 h -4 v -8.53333 h -2.77333 v 8.53333 z"
         id="path8274" /><path
         d="m 211.99864,187.28793 h -2.77333 v 24.53332 h 2.77333 v -14.93332 c 0,-4.16 1.33333,-7.52 4.96,-7.52 1.28,0 2.13333,0.37333 3.2,1.17333 l 1.54666,-2.29333 c -1.12,-1.06666 -2.56,-1.49333 -4.10666,-1.49333 -2.34667,0 -4.37333,1.6 -5.6,4.10666 z"
         id="path8276" /><path
         d="m 226.39866,176.19461 c 0,1.06666 0.85333,1.97333 1.97333,1.97333 1.12,0 1.97333,-0.90667 1.97333,-1.97333 0,-1.06667 -0.85333,-1.97334 -1.97333,-1.97334 -1.12,0 -1.97333,0.90667 -1.97333,1.97334 z m 0.58667,11.09332 v 24.53332 h 2.77333 v -24.53332 z"
         id="path8278" /><path
         d="m 252.15866,187.28793 -6.82666,9.70666 -6.82667,-9.70666 h -3.19999 l 8.47999,11.89333 -9.01333,12.63999 h 3.2 l 7.36,-10.45333 7.35999,10.45333 h 3.2 l -9.01333,-12.63999 8.48,-11.89333 z"
         id="path8280" /></g><path
       style="fill:#f0581a;fill-opacity:1;stroke-width:0.10897"
       d="m 36.989318,205.89001 c 0.403016,-0.71764 1.093497,-1.20534 1.406454,-1.97878 0.375534,-0.66244 1.032285,-1.09507 1.368295,-1.79825 0.418941,-0.54228 0.989252,-0.95519 1.151953,-1.63883 0.542246,-0.74459 1.272729,-1.31399 2.03212,-1.80951 0.71925,-0.30617 1.245242,-0.85039 1.774532,-1.38973 0.53601,-0.85741 0.736675,-2.02341 1.739871,-2.49629 0.710755,-0.39484 1.562873,-0.27126 2.337904,-0.22762 0.724954,0.0908 1.553399,0.52691 1.928163,0.89569 0.374764,0.36878 0.476863,1.21207 0.54878,1.84616 0.04758,0.41957 0.08029,0.93735 -0.103275,1.55454 -0.01606,0.30048 0.05706,0.47849 0.0191,0.8923 -0.09712,1.05868 -0.827138,1.89622 -1.480515,2.69354 -1.069208,1.39206 -2.504261,2.53568 -4.140086,3.187 -0.440368,0.18258 -1.573666,0.43042 -0.700302,0.87459 0.551045,0.23153 0.872422,0.35791 1.327906,0.62607 0.728986,-0.0715 1.25569,-0.13201 1.690292,0.35261 0.434603,0.48462 0.3805,0.48217 0.396149,0.7949 -0.299909,-0.0864 -1.060749,-0.58413 -1.589303,-0.39212 -0.59913,0.13858 -1.398285,-0.36565 -1.849128,0.15131 -0.172448,0.3542 -0.460702,-0.40677 -0.922848,0.0713 -0.286332,-0.63998 0.626894,-0.64223 -0.357743,-0.76652 -0.466234,0.10668 0.314562,-0.69533 -0.325974,-0.44602 -0.648546,0.44129 0.20182,-1.07097 -0.337958,-0.60124 -0.369307,0.26549 -0.184407,-0.70578 -0.683443,-0.32123 -0.353153,0.17135 -0.674962,0.30832 -0.494021,-0.21814 -0.179835,-0.40469 -1.351055,0.62241 -1.494244,0.38326 -0.742294,0.18115 -1.229798,0.77149 -1.88864,1.11661 -0.794075,0.42613 -1.566356,1.0784 -2.509708,1.0708 0.362702,-0.6815 1.178582,-1.06283 1.365855,-1.83176 -0.343421,0.0183 -1.188184,0.58746 -1.1252,0.4434 0.268935,-0.37783 0.647367,-0.66122 0.915014,-1.03799 z"
       id="path11581-7"
       sodipodi:nodetypes="sccccccczscszzzzzczcccczcczccczcs" /></g></svg>
