<?xml version="1.0" encoding="UTF-8" standalone="no"?>
<!-- Created with Inkscape (http://www.inkscape.org/) -->

<svg
   width="48.718735mm"
   height="22.139923mm"
   viewBox="0 0 48.718735 22.139923"
   version="1.1"
   id="svg5"
   inkscape:version="1.2.2 (b0a8486541, 2022-12-01)"
   sodipodi:docname="utter_slogan_en.svg"
   xml:space="preserve"
   inkscape:export-filename="tmp.png"
   inkscape:export-xdpi="171.03999"
   inkscape:export-ydpi="171.03999"
   xmlns:inkscape="http://www.inkscape.org/namespaces/inkscape"
   xmlns:sodipodi="http://sodipodi.sourceforge.net/DTD/sodipodi-0.dtd"
   xmlns="http://www.w3.org/2000/svg"
   xmlns:svg="http://www.w3.org/2000/svg"><sodipodi:namedview
     id="namedview7"
     pagecolor="#ffffff"
     bordercolor="#000000"
     borderopacity="0.25"
     inkscape:showpageshadow="2"
     inkscape:pageopacity="0.0"
     inkscape:pagecheckerboard="0"
     inkscape:deskcolor="#d1d1d1"
     inkscape:document-units="mm"
     showgrid="false"
     inkscape:zoom="1.330521"
     inkscape:cx="308.52576"
     inkscape:cy="1.1273779"
     inkscape:window-width="1920"
     inkscape:window-height="1029"
     inkscape:window-x="0"
     inkscape:window-y="27"
     inkscape:window-maximized="1"
     inkscape:current-layer="layer1"
     showguides="true"><inkscape:grid
       type="xygrid"
       id="grid13315" /><sodipodi:guide
       position="-103.88121,241.39697"
       orientation="1,0"
       id="guide13317"
       inkscape:locked="false" /><sodipodi:guide
       position="-117.11037,237.42822"
       orientation="0,-1"
       id="guide13319"
       inkscape:locked="false" /><sodipodi:guide
       position="-0.69371149,143.50114"
       orientation="1,0"
       id="guide4551"
       inkscape:locked="false" /><sodipodi:guide
       position="-77.874865,53.927198"
       orientation="0,-1"
       id="guide5892"
       inkscape:locked="false" /><sodipodi:guide
       position="-76.780234,22.186945"
       orientation="0,-1"
       id="guide8737"
       inkscape:locked="false" /></sodipodi:namedview><defs
     id="defs2"><rect
       x="165.33238"
       y="165.66167"
       width="170.87849"
       height="72.536377"
       id="rect827-6-9-4-1-6-3-2" /><rect
       x="482.19177"
       y="295.30188"
       width="327.69745"
       height="62.83186"
       id="rect10965-1-9-67-7" /></defs><g
     inkscape:label="Layer 1"
     inkscape:groupmode="layer"
     id="layer1"
     transform="translate(-114.46454,-225.87164)"><g
       aria-label="Utter"
       transform="matrix(0.26458333,0,0,0.26458333,70.02673,186.91485)"
       id="text825-4-5-8-7-9-5-2"
       style="font-weight:300;font-size:53.3333px;font-family:'Jost*';-inkscape-font-specification:'Jost*, Light';white-space:pre;shape-inside:url(#rect827-6-9-4-1-6-3-2);display:inline"><path
         d="m 169.54536,174.48794 v 25.27999 c 0,7.41332 4.42667,12.58665 11.94666,12.58665 7.52,0 11.94666,-5.17333 11.94666,-12.58665 v -25.27999 h -2.93333 v 25.27999 c 0,5.97333 -3.25333,9.81332 -9.01333,9.81332 -5.75999,0 -9.01333,-3.83999 -9.01333,-9.81332 v -25.27999 z"
         id="path10408" /><path
         d="m 198.13206,187.28793 v 2.61333 h 4 v 21.91999 h 2.77333 v -21.91999 h 4 v -2.61333 h -4 v -8.53333 h -2.77333 v 8.53333 z"
         id="path10410" /><path
         d="m 209.86535,187.28793 v 2.61333 h 4 v 21.91999 h 2.77333 v -21.91999 h 4 v -2.61333 h -4 v -8.53333 h -2.77333 v 8.53333 z"
         id="path10412" /><path
         d="m 234.55863,212.35458 c 4.90667,0 8.48,-1.97333 11.25333,-6.23999 l -2.24,-1.44 c -2.24,3.52 -4.96,5.06666 -8.69333,5.06666 -5.11999,0 -8.53333,-3.73333 -8.85333,-9.49333 h 20.10666 c 0.0533,-0.26666 0.10667,-0.90666 0.10667,-1.33333 0,-7.19999 -4.58667,-12.15999 -11.25333,-12.15999 -6.93333,0 -11.78666,5.28 -11.78666,12.74666 0,7.51999 4.74666,12.85332 11.35999,12.85332 z m 0.42667,-23.14665 c 4.69333,0 8.15999,3.62667 8.26666,8.64 h -17.17332 c 0.58666,-5.28 4,-8.64 8.90666,-8.64 z"
         id="path10414" /><path
         d="m 255.3053,187.28793 h -2.77334 v 24.53332 h 2.77334 v -14.93332 c 0,-4.16 1.33333,-7.52 4.95999,-7.52 1.28,0 2.13334,0.37333 3.2,1.17333 l 1.54667,-2.29333 c -1.12,-1.06666 -2.56,-1.49333 -4.10667,-1.49333 -2.34666,0 -4.37333,1.6 -5.59999,4.10666 z"
         id="path10416" /></g><g
       aria-label="Språkbanken's repository"
       transform="matrix(0.26458333,0,0,0.26458333,-13.274016,157.03294)"
       id="text10963-5-3-2"
       style="font-weight:300;font-size:49.3333px;font-family:'Open Sans';-inkscape-font-specification:'Open Sans, Light';white-space:pre;shape-inside:url(#rect10965-1-9-67-7);display:inline;fill:#f0581a"><path
         d="m 484.25808,336.42291 -1.46667,1.03333 c 0.76667,1.60001 2.41667,2.98334 4.46667,2.98334 1.98334,0 3.88334,-1.3 3.88334,-3.48334 0,-2.03333 -1.56667,-3.01667 -2.96667,-3.5 -1.88334,-0.65001 -2.65,-1.23334 -2.65,-2.13334 0,-0.66667 0.5,-1.25 1.58333,-1.25 1.18334,0 1.88334,0.76666 2.36667,1.63333 l 1.58334,-0.9 c -0.6,-1.21667 -1.85,-2.5 -3.91667,-2.5 -2.10001,0 -3.66668,1.28333 -3.66668,3.15 0,2.16667 1.95001,3.00001 3.10001,3.41668 1.48333,0.55 2.48334,0.95 2.48334,2.23333 0,0.93334 -0.71667,1.56667 -1.80001,1.56667 -1.31667,0 -2.25,-0.88333 -3,-2.25 z"
         style="font-weight:500;font-size:16.6667px;font-family:'Jost*';-inkscape-font-specification:'Jost*, Medium';fill:#1a1a1a"
         id="path10361" /><path
         d="m 494.74144,343.85626 v -4.95001 c 0.55,0.95 1.46667,1.48333 2.61667,1.48333 2.00001,0 3.73334,-1.46667 3.73334,-4.03334 0,-2.56667 -1.73333,-4.05001 -3.73334,-4.05001 -1.15,0 -2.06667,0.55 -2.61667,1.50001 v -1.28334 h -1.81667 v 11.33336 z m 4.48334,-7.50002 c 0,1.53334 -1.05,2.40001 -2.3,2.40001 -1.05,0 -2.18334,-0.85001 -2.18334,-2.40001 0,-1.56667 1.13334,-2.4 2.18334,-2.4 1.25,0 2.3,0.86666 2.3,2.4 z"
         style="font-weight:500;font-size:16.6667px;font-family:'Jost*';-inkscape-font-specification:'Jost*, Medium';fill:#1a1a1a"
         id="path10363" /><path
         d="m 506.87481,334.43957 0.88333,-1.51667 c -0.35,-0.4 -0.86667,-0.58333 -1.41667,-0.58333 -0.65,0 -1.3,0.41666 -1.75,1.1 v -0.91667 h -1.78334 v 7.66668 h 1.78334 v -4.31667 c 0,-1.10001 0.36667,-1.83334 1.26667,-1.83334 0.43333,0 0.68333,0.13333 1.01667,0.4 z"
         style="font-weight:500;font-size:16.6667px;font-family:'Jost*';-inkscape-font-specification:'Jost*, Medium';fill:#1a1a1a"
         id="path10365" /><path
         d="m 510.30815,329.55623 c 0,1.06667 0.86667,1.78333 1.85001,1.78333 0.98333,0 1.86667,-0.71666 1.86667,-1.78333 0,-1.05 -0.88334,-1.76667 -1.86667,-1.76667 -0.98334,0 -1.85001,0.71667 -1.85001,1.76667 z m 1.03334,0 c 0,-0.51667 0.4,-0.85 0.81667,-0.85 0.41667,0 0.81667,0.33333 0.81667,0.85 0,0.53333 -0.4,0.85 -0.81667,0.85 -0.41667,0 -0.81667,-0.31667 -0.81667,-0.85 z m -1.6,4.98334 c 0.36666,-0.23333 1.23333,-0.73333 2.33333,-0.73333 0.83334,0 1.51667,0.4 1.51667,1.11667 v 1.06666 c -0.46666,-0.26666 -1.15,-0.51666 -2,-0.51666 -1.9,0 -3.28334,0.91666 -3.28334,2.61667 0,1.41667 1.06667,2.26667 2.68334,2.26667 1.15,0 2.15,-0.45 2.6,-1.26667 v 1.1 h 1.76667 v -5.46668 c 0,-1.51666 -1.31667,-2.38333 -3.2,-2.38333 -1.38334,0 -2.46667,0.5 -3.15001,0.91667 z m 0.38333,3.38334 c 0,-0.8 0.58333,-1.3 1.73334,-1.3 0.68333,0 1.21667,0.13333 1.73333,0.38333 v 0.13334 c 0,1.35 -0.88333,1.85 -2.05,1.85 -0.9,0 -1.41667,-0.35 -1.41667,-1.06667 z"
         style="font-weight:500;font-size:16.6667px;font-family:'Jost*';-inkscape-font-specification:'Jost*, Medium';fill:#1a1a1a"
         id="path10367" /><path
         d="m 521.99152,332.5229 -2.81667,2.70001 v -8.03335 h -1.76667 v 13.00002 h 1.76667 v -3.88334 l 3.16667,3.88334 h 2.20001 l -3.65001,-4.50001 3.31667,-3.16667 z"
         style="font-weight:500;font-size:16.6667px;font-family:'Jost*';-inkscape-font-specification:'Jost*, Medium';fill:#1a1a1a"
         id="path10369" /><path
         d="m 533.82489,336.35624 c 0,-2.53334 -1.73333,-4.00001 -3.73334,-4.00001 -1.11667,0 -2.05,0.51667 -2.61667,1.45001 v -6.61668 h -1.81667 v 13.00002 h 1.81667 v -1.28333 c 0.56667,0.93333 1.5,1.45 2.61667,1.45 2.00001,0 3.73334,-1.48334 3.73334,-4.00001 z m -1.86667,0 c 0,1.53334 -1.05,2.43334 -2.3,2.43334 -1.05,0 -2.18334,-0.88334 -2.18334,-2.43334 0,-1.56667 1.13334,-2.43334 2.18334,-2.43334 1.25,0 2.3,0.9 2.3,2.43334 z"
         style="font-weight:500;font-size:16.6667px;font-family:'Jost*';-inkscape-font-specification:'Jost*, Medium';fill:#1a1a1a"
         id="path10371" /><path
         d="m 536.10824,334.5229 c 0.33334,-0.25 1.25001,-0.71666 2.33334,-0.71666 0.95,0 1.63334,0.33333 1.63334,1.26667 v 0.93333 c -0.48333,-0.26667 -1.21667,-0.53333 -2.21667,-0.53333 -1.90001,0 -3.00001,0.95 -3.00001,2.43333 0,1.56667 1.23334,2.45001 2.68334,2.45001 0.98334,0 2.05001,-0.4 2.53334,-1.21667 v 1.05 h 1.76667 v -5.46668 c 0,-1.51666 -1.35,-2.38333 -3.21667,-2.38333 -1.43334,0 -2.55001,0.5 -3.25001,0.91667 z m 0.56667,3.28334 c 0,-0.71666 0.48334,-1.15 1.61667,-1.15 0.65,0 1.23334,0.11667 1.78334,0.36667 v 0.11667 c 0,1.16667 -0.9,1.86667 -1.96667,1.86667 -0.83334,0 -1.43334,-0.43334 -1.43334,-1.20001 z"
         style="font-weight:500;font-size:16.6667px;font-family:'Jost*';-inkscape-font-specification:'Jost*, Medium';fill:#1a1a1a"
         id="path10373" /><path
         d="m 548.87493,335.52291 v 4.66667 h 1.85001 v -4.88334 c 0,-1.83334 -0.93334,-2.95001 -2.66667,-2.95001 -1.05001,0 -1.81668,0.45 -2.30001,1.35001 v -1.18334 h -1.81667 v 7.66668 h 1.81667 v -4.66667 c 0,-1.05001 0.66667,-1.71667 1.7,-1.71667 0.96667,0 1.41667,0.6 1.41667,1.71667 z"
         style="font-weight:500;font-size:16.6667px;font-family:'Jost*';-inkscape-font-specification:'Jost*, Medium';fill:#1a1a1a"
         id="path10375" /><path
         d="m 557.54162,332.5229 -2.81668,2.70001 v -8.03335 h -1.76667 v 13.00002 h 1.76667 v -3.88334 l 3.16668,3.88334 h 2.2 l -3.65001,-4.50001 3.31668,-3.16667 z"
         style="font-weight:500;font-size:16.6667px;font-family:'Jost*';-inkscape-font-specification:'Jost*, Medium';fill:#1a1a1a"
         id="path10377" /><path
         d="m 564.35832,340.35625 c 1.76667,0 3.03334,-0.68334 3.85001,-2.08334 l -1.56667,-0.61667 c -0.48334,0.81667 -1.21667,1.21667 -2.20001,1.21667 -1.25,0 -2.03333,-0.75 -2.15,-2.1 h 5.96668 c 0,-0.0833 0.0167,-0.3 0.0167,-0.5 0,-2.45001 -1.41667,-3.91668 -3.83334,-3.91668 -2.43334,0 -4.00001,1.58334 -4.00001,4.00001 0,2.40001 1.55001,4.00001 3.91668,4.00001 z m 0.0667,-6.63335 c 1.08333,0 1.8,0.71667 1.88333,1.80001 h -3.96667 c 0.21667,-1.16667 0.93333,-1.78334 2.08334,-1.80001 z"
         style="font-weight:500;font-size:16.6667px;font-family:'Jost*';-inkscape-font-specification:'Jost*, Medium';fill:#1a1a1a"
         id="path10379" /><path
         d="m 574.94167,335.52291 v 4.66667 h 1.85 v -4.88334 c 0,-1.83334 -0.93333,-2.95001 -2.66667,-2.95001 -1.05,0 -1.81667,0.45 -2.30001,1.35001 v -1.18334 h -1.81667 v 7.66668 h 1.81667 v -4.66667 c 0,-1.05001 0.66667,-1.71667 1.70001,-1.71667 0.96667,0 1.41667,0.6 1.41667,1.71667 z"
         style="font-weight:500;font-size:16.6667px;font-family:'Jost*';-inkscape-font-specification:'Jost*, Medium';fill:#1a1a1a"
         id="path10381" /><path
         d="m 579.44167,328.52289 -0.78334,5.11668 h 1.20001 l 1.6,-5.11668 z"
         style="font-weight:500;font-size:16.6667px;font-family:'Jost*';-inkscape-font-specification:'Jost*, Medium';fill:#1a1a1a"
         id="path10383" /><path
         d="m 582.17501,337.65624 -1.05,1.06667 c 0.66667,0.86667 1.83334,1.70001 3.43334,1.70001 1.66667,0 2.73334,-0.95001 2.73334,-2.40001 0,-1.38333 -1.06667,-1.9 -2.35,-2.41667 -0.93334,-0.36667 -1.66667,-0.63333 -1.66667,-1.2 0,-0.43334 0.38333,-0.65 0.9,-0.65 0.75,0 1.5,0.43333 2,1.01666 l 1,-1.06666 c -0.63333,-0.76667 -1.71667,-1.35001 -2.96667,-1.35001 -1.41667,0 -2.63334,0.7 -2.63334,2.08334 0,1.38334 1.13334,1.96667 2.18334,2.33334 1.01667,0.36667 1.71667,0.66667 1.71667,1.35 0,0.5 -0.38333,0.81667 -1.03334,0.81667 -0.78333,0 -1.51666,-0.45 -2.26667,-1.28334 z"
         style="font-weight:500;font-size:16.6667px;font-family:'Jost*';-inkscape-font-specification:'Jost*, Medium';fill:#1a1a1a"
         id="path10385" /><path
         d="m 597.95836,334.43957 0.88334,-1.51667 c -0.35,-0.4 -0.86667,-0.58333 -1.41667,-0.58333 -0.65,0 -1.30001,0.41666 -1.75001,1.1 v -0.91667 h -1.78333 v 7.66668 h 1.78333 v -4.31667 c 0,-1.10001 0.36667,-1.83334 1.26667,-1.83334 0.43334,0 0.68334,0.13333 1.01667,0.4 z"
         style="font-weight:500;font-size:16.6667px;font-family:'Jost*';-inkscape-font-specification:'Jost*, Medium';fill:#1a1a1a"
         id="path10387" /><path
         d="m 603.15838,340.35625 c 1.76667,0 3.03334,-0.68334 3.85001,-2.08334 l -1.56667,-0.61667 c -0.48333,0.81667 -1.21667,1.21667 -2.2,1.21667 -1.25001,0 -2.03334,-0.75 -2.15001,-2.1 h 5.96668 c 0,-0.0833 0.0167,-0.3 0.0167,-0.5 0,-2.45001 -1.41667,-3.91668 -3.83334,-3.91668 -2.43334,0 -4.00001,1.58334 -4.00001,4.00001 0,2.40001 1.55,4.00001 3.91667,4.00001 z m 0.0667,-6.63335 c 1.08334,0 1.8,0.71667 1.88334,1.80001 h -3.96668 c 0.21667,-1.16667 0.93334,-1.78334 2.08334,-1.80001 z"
         style="font-weight:500;font-size:16.6667px;font-family:'Jost*';-inkscape-font-specification:'Jost*, Medium';fill:#1a1a1a"
         id="path10389" /><path
         d="m 610.55839,343.85626 v -4.95001 c 0.55,0.95 1.46667,1.48333 2.61667,1.48333 2.00001,0 3.73334,-1.46667 3.73334,-4.03334 0,-2.56667 -1.73333,-4.05001 -3.73334,-4.05001 -1.15,0 -2.06667,0.55 -2.61667,1.50001 v -1.28334 h -1.81667 v 11.33336 z m 4.48334,-7.50002 c 0,1.53334 -1.05,2.40001 -2.3,2.40001 -1.05,0 -2.18334,-0.85001 -2.18334,-2.40001 0,-1.56667 1.13334,-2.4 2.18334,-2.4 1.25,0 2.3,0.86666 2.3,2.4 z"
         style="font-weight:500;font-size:16.6667px;font-family:'Jost*';-inkscape-font-specification:'Jost*, Medium';fill:#1a1a1a"
         id="path10391" /><path
         d="m 618.04175,336.35624 c 0,2.35001 1.78334,4.00001 4.13334,4.00001 2.35001,0 4.13334,-1.65 4.13334,-4.00001 0,-2.36667 -1.78333,-4.00001 -4.13334,-4.00001 -2.35,0 -4.13334,1.63334 -4.13334,4.00001 z m 1.85,0 c 0,-1.43333 0.98334,-2.41667 2.28334,-2.41667 1.28334,0 2.28334,0.98334 2.28334,2.41667 0,1.43334 -1,2.41667 -2.28334,2.41667 -1.3,0 -2.28334,-0.98333 -2.28334,-2.41667 z"
         style="font-weight:500;font-size:16.6667px;font-family:'Jost*';-inkscape-font-specification:'Jost*, Medium';fill:#1a1a1a"
         id="path10393" /><path
         d="m 628.37509,337.65624 -1.05,1.06667 c 0.66667,0.86667 1.83334,1.70001 3.43334,1.70001 1.66667,0 2.73334,-0.95001 2.73334,-2.40001 0,-1.38333 -1.06667,-1.9 -2.35,-2.41667 -0.93334,-0.36667 -1.66667,-0.63333 -1.66667,-1.2 0,-0.43334 0.38333,-0.65 0.9,-0.65 0.75,0 1.5,0.43333 2,1.01666 l 1,-1.06666 c -0.63333,-0.76667 -1.71667,-1.35001 -2.96667,-1.35001 -1.41667,0 -2.63334,0.7 -2.63334,2.08334 0,1.38334 1.13334,1.96667 2.18334,2.33334 1.01667,0.36667 1.71667,0.66667 1.71667,1.35 0,0.5 -0.38333,0.81667 -1.03333,0.81667 -0.78334,0 -1.51667,-0.45 -2.26668,-1.28334 z"
         style="font-weight:500;font-size:16.6667px;font-family:'Jost*';-inkscape-font-specification:'Jost*, Medium';fill:#1a1a1a"
         id="path10395" /><path
         d="m 635.02511,329.47289 c 0,0.61667 0.51667,1.10001 1.13333,1.10001 0.63334,0 1.15001,-0.48334 1.15001,-1.10001 0,-0.61666 -0.51667,-1.1 -1.15001,-1.1 -0.61666,0 -1.13333,0.48334 -1.13333,1.1 z m 0.25,3.05001 v 7.66668 h 1.78334 v -7.66668 z"
         style="font-weight:500;font-size:16.6667px;font-family:'Jost*';-inkscape-font-specification:'Jost*, Medium';fill:#1a1a1a"
         id="path10397" /><path
         d="m 638.47512,332.5229 v 1.58334 h 1.3 v 6.08334 h 1.76667 v -6.08334 h 1.28334 v -1.58334 h -1.28334 v -2.66667 h -1.76667 v 2.66667 z"
         style="font-weight:500;font-size:16.6667px;font-family:'Jost*';-inkscape-font-specification:'Jost*, Medium';fill:#1a1a1a"
         id="path10399" /><path
         d="m 643.47512,336.35624 c 0,2.35001 1.78333,4.00001 4.13334,4.00001 2.35,0 4.13334,-1.65 4.13334,-4.00001 0,-2.36667 -1.78334,-4.00001 -4.13334,-4.00001 -2.35001,0 -4.13334,1.63334 -4.13334,4.00001 z m 1.85,0 c 0,-1.43333 0.98333,-2.41667 2.28334,-2.41667 1.28333,0 2.28333,0.98334 2.28333,2.41667 0,1.43334 -1,2.41667 -2.28333,2.41667 -1.30001,0 -2.28334,-0.98333 -2.28334,-2.41667 z"
         style="font-weight:500;font-size:16.6667px;font-family:'Jost*';-inkscape-font-specification:'Jost*, Medium';fill:#1a1a1a"
         id="path10401" /><path
         d="m 657.52513,334.43957 0.88334,-1.51667 c -0.35,-0.4 -0.86667,-0.58333 -1.41667,-0.58333 -0.65,0 -1.3,0.41666 -1.75,1.1 v -0.91667 h -1.78334 v 7.66668 h 1.78334 v -4.31667 c 0,-1.10001 0.36666,-1.83334 1.26666,-1.83334 0.43334,0 0.68334,0.13333 1.01667,0.4 z"
         style="font-weight:500;font-size:16.6667px;font-family:'Jost*';-inkscape-font-specification:'Jost*, Medium';fill:#1a1a1a"
         id="path10403" /><path
         d="m 666.92517,332.5229 h -1.93334 l -1.98333,4.98334 -2.01667,-4.98334 h -2.06668 l 3.10001,6.76668 -2.01667,4.56668 h 1.91667 z"
         style="font-weight:500;font-size:16.6667px;font-family:'Jost*';-inkscape-font-specification:'Jost*, Medium';fill:#1a1a1a"
         id="path10405" /></g><path
       style="fill:#ff6600;stroke-width:0.0297785"
       d="m 141.99274,242.14711 c 1.05645,-0.52339 1.59602,-0.49765 2.29133,-0.79692 0.73158,-0.3142 1.67731,-0.39038 1.9523,-1.26537 0.38486,-0.79354 0.39513,-1.67137 0.57333,-2.52326 0.18886,-0.76614 0.59812,-1.46803 0.95845,-2.15894 0.40314,-0.80897 1.35754,-1.206 1.62272,-2.10081 0.37091,-0.63308 0.47806,-1.36874 0.46748,-2.09127 0.23652,-0.69312 0.14766,-1.42256 0.26491,-2.1249 0.18642,-0.53264 -0.26861,0.17302 -0.13125,-0.42879 0.0248,-0.27523 -1.02667,-0.66737 -0.24441,-0.91021 0.0457,-0.86484 0.71471,-1.27822 1.40795,-1.62797 0.49511,-0.37058 1.1087,-0.21355 1.57899,-0.21627 -0.0858,0.71953 0.98045,0.13942 0.75046,0.82836 0.19448,0.41755 -0.0168,0.8157 -0.3572,1.22434 -0.0724,0.7834 0.66538,1.43232 0.39902,2.27204 -0.20615,0.75438 0.0604,1.56975 0.8541,1.82691 0.72581,0.26844 1.01942,1.04152 1.05089,1.75763 -0.0277,0.40899 -0.23637,0.28253 -0.39814,0.4082 -0.61126,-0.16531 0.0302,-0.26695 -0.43078,-0.76274 -0.54886,-0.65102 -0.28273,0.27975 -0.68127,0.47386 0.61293,0.16031 0.58212,0.81591 -0.11162,0.61543 -0.31962,0.45144 -0.87124,1.05605 -0.8904,1.72622 0.17944,0.71536 -0.23254,1.21717 -0.67192,1.71548 -0.53178,0.59575 -0.78212,1.37234 -1.38752,1.92355 -0.21622,0.35586 -1.15427,1.41793 -0.41415,1.44863 0.65676,0.0928 1.23134,-0.0328 1.94124,0.10778 0.45822,-0.15946 0.94248,0.62827 1.01841,0.689 -0.78271,-0.0823 -1.5744,-0.11195 -2.35022,-0.2644 -0.47214,0.003 -1.01511,-0.25607 -0.6485,0.43017 0.4495,0.54013 1.49233,0.27542 2.04315,0.85666 0.64438,0.33358 -0.6777,0.27191 -0.9262,0.2501 -0.71573,-0.23174 -1.4881,-0.33528 -2.17855,-0.63965 -0.66446,-0.2374 -0.83679,-0.64864 -1.46645,-1.01587 -1.04002,0.72063 -3.3137,0.55251 -4.44826,1.08567 -0.64761,0.28569 -3.48349,1.10898 -4.15859,1.05331 -0.29941,-0.30022 1.60334,-1.44315 2.7207,-1.76597 z"
       id="path460-6"
       sodipodi:nodetypes="cccccccccccccccccccccccccccccccccccc" /></g></svg>
