<?xml version="1.0" encoding="UTF-8" standalone="no"?>
<!-- Created with Inkscape (http://www.inkscape.org/) -->

<svg
   width="40.546207mm"
   height="18.044113mm"
   viewBox="0 0 40.546207 18.044113"
   version="1.1"
   id="svg5"
   inkscape:version="1.2.2 (b0a8486541, 2022-12-01)"
   sodipodi:docname="utter.svg"
   xml:space="preserve"
   inkscape:export-filename="tmp.png"
   inkscape:export-xdpi="171.03999"
   inkscape:export-ydpi="171.03999"
   xmlns:inkscape="http://www.inkscape.org/namespaces/inkscape"
   xmlns:sodipodi="http://sodipodi.sourceforge.net/DTD/sodipodi-0.dtd"
   xmlns="http://www.w3.org/2000/svg"
   xmlns:svg="http://www.w3.org/2000/svg"><sodipodi:namedview
     id="namedview7"
     pagecolor="#ffffff"
     bordercolor="#000000"
     borderopacity="0.25"
     inkscape:showpageshadow="2"
     inkscape:pageopacity="0.0"
     inkscape:pagecheckerboard="0"
     inkscape:deskcolor="#d1d1d1"
     inkscape:document-units="mm"
     showgrid="false"
     inkscape:zoom="1.330521"
     inkscape:cx="308.52576"
     inkscape:cy="-58.999445"
     inkscape:window-width="1920"
     inkscape:window-height="1029"
     inkscape:window-x="0"
     inkscape:window-y="27"
     inkscape:window-maximized="1"
     inkscape:current-layer="layer1"
     showguides="true"><inkscape:grid
       type="xygrid"
       id="grid13315" /><sodipodi:guide
       position="-0.97836907,237.23763"
       orientation="1,0"
       id="guide13317"
       inkscape:locked="false" /><sodipodi:guide
       position="-14.207535,233.26888"
       orientation="0,-1"
       id="guide13319"
       inkscape:locked="false" /><sodipodi:guide
       position="102.20913,139.34179"
       orientation="1,0"
       id="guide4551"
       inkscape:locked="false" /><sodipodi:guide
       position="25.027973,49.767852"
       orientation="0,-1"
       id="guide5892"
       inkscape:locked="false" /></sodipodi:namedview><defs
     id="defs2"><rect
       x="165.33238"
       y="165.66167"
       width="170.87849"
       height="72.536377"
       id="rect827-6-9-4-1-6-3" /><rect
       x="482.19177"
       y="295.30188"
       width="327.69745"
       height="62.83186"
       id="rect10965-1-9-67" /></defs><g
     inkscape:label="Layer 1"
     inkscape:groupmode="layer"
     id="layer1"
     transform="translate(-11.561702,-225.8081)"><g
       aria-label="Utter"
       transform="matrix(0.26458333,0,0,0.26458333,-33.297174,186.8513)"
       id="text825-4-5-8-7-9-5"
       style="font-weight:300;font-size:53.3333px;font-family:'Jost*';-inkscape-font-specification:'Jost*, Light';white-space:pre;shape-inside:url(#rect827-6-9-4-1-6-3);display:inline"><path
         d="m 169.54536,174.48794 v 25.27999 c 0,7.41332 4.42667,12.58665 11.94666,12.58665 7.52,0 11.94666,-5.17333 11.94666,-12.58665 v -25.27999 h -2.93333 v 25.27999 c 0,5.97333 -3.25333,9.81332 -9.01333,9.81332 -5.75999,0 -9.01333,-3.83999 -9.01333,-9.81332 v -25.27999 z"
         id="path10566" /><path
         d="m 198.13206,187.28793 v 2.61333 h 4 v 21.91999 h 2.77333 v -21.91999 h 4 v -2.61333 h -4 v -8.53333 h -2.77333 v 8.53333 z"
         id="path10568" /><path
         d="m 209.86535,187.28793 v 2.61333 h 4 v 21.91999 h 2.77333 v -21.91999 h 4 v -2.61333 h -4 v -8.53333 h -2.77333 v 8.53333 z"
         id="path10570" /><path
         d="m 234.55863,212.35458 c 4.90667,0 8.48,-1.97333 11.25333,-6.23999 l -2.24,-1.44 c -2.24,3.52 -4.96,5.06666 -8.69333,5.06666 -5.11999,0 -8.53333,-3.73333 -8.85333,-9.49333 h 20.10666 c 0.0533,-0.26666 0.10667,-0.90666 0.10667,-1.33333 0,-7.19999 -4.58667,-12.15999 -11.25333,-12.15999 -6.93333,0 -11.78666,5.28 -11.78666,12.74666 0,7.51999 4.74666,12.85332 11.35999,12.85332 z m 0.42667,-23.14665 c 4.69333,0 8.15999,3.62667 8.26666,8.64 h -17.17332 c 0.58666,-5.28 4,-8.64 8.90666,-8.64 z"
         id="path10572" /><path
         d="m 255.3053,187.28793 h -2.77334 v 24.53332 h 2.77334 v -14.93332 c 0,-4.16 1.33333,-7.52 4.95999,-7.52 1.28,0 2.13334,0.37333 3.2,1.17333 l 1.54667,-2.29333 c -1.12,-1.06666 -2.56,-1.49333 -4.10667,-1.49333 -2.34666,0 -4.37333,1.6 -5.59999,4.10666 z"
         id="path10574" /></g><path
       style="fill:#ff6600;stroke-width:0.0297785"
       d="m 38.668838,242.08356 c 1.056445,-0.52339 1.596021,-0.49765 2.291323,-0.79692 0.731581,-0.3142 1.677315,-0.39038 1.952303,-1.26537 0.384861,-0.79354 0.395127,-1.67137 0.573335,-2.52326 0.188858,-0.76614 0.59812,-1.46803 0.95845,-2.15894 0.403136,-0.80897 1.357541,-1.206 1.622717,-2.10081 0.370907,-0.63308 0.478057,-1.36874 0.467481,-2.09127 0.23652,-0.69312 0.147662,-1.42256 0.264905,-2.1249 0.186421,-0.53264 -0.268603,0.17302 -0.131246,-0.42879 0.02478,-0.27523 -1.02667,-0.66737 -0.244407,-0.91021 0.04566,-0.86484 0.71471,-1.27822 1.407944,-1.62797 0.495111,-0.37058 1.108703,-0.21355 1.578989,-0.21627 -0.0858,0.71953 0.980454,0.13942 0.750467,0.82836 0.194479,0.41755 -0.0168,0.8157 -0.357206,1.22434 -0.07235,0.7834 0.665386,1.43232 0.399021,2.27204 -0.206148,0.75438 0.06041,1.56975 0.854099,1.82691 0.725812,0.26844 1.019422,1.04152 1.050897,1.75763 -0.02774,0.40899 -0.23637,0.28253 -0.398144,0.4082 -0.611256,-0.16531 0.03025,-0.26695 -0.430778,-0.76274 -0.548867,-0.65102 -0.282733,0.27975 -0.681269,0.47386 0.612926,0.16031 0.582119,0.81591 -0.11162,0.61543 -0.319622,0.45144 -0.871246,1.05605 -0.890402,1.72622 0.179439,0.71536 -0.232546,1.21717 -0.671919,1.71548 -0.53178,0.59575 -0.782118,1.37234 -1.387525,1.92355 -0.216221,0.35586 -1.154267,1.41793 -0.414147,1.44863 0.656762,0.0928 1.23134,-0.0328 1.941241,0.10778 0.458218,-0.15946 0.942474,0.62827 1.018406,0.689 -0.782711,-0.0823 -1.574396,-0.11195 -2.350214,-0.2644 -0.47214,0.003 -1.015111,-0.25607 -0.648504,0.43017 0.449501,0.54013 1.49233,0.27542 2.043148,0.85666 0.64438,0.33358 -0.677701,0.27191 -0.926197,0.2501 -0.71573,-0.23174 -1.488104,-0.33528 -2.178548,-0.63965 -0.664462,-0.2374 -0.836797,-0.64864 -1.466448,-1.01587 -1.040022,0.72063 -3.313702,0.55251 -4.44826,1.08567 -0.647611,0.28569 -3.483491,1.10898 -4.15859,1.05331 -0.299416,-0.30022 1.603335,-1.44315 2.720698,-1.76597 z"
       id="path460"
       sodipodi:nodetypes="cccccccccccccccccccccccccccccccccccc" /></g></svg>
