<?xml version="1.0" encoding="UTF-8" standalone="no"?>
<!-- Created with Inkscape (http://www.inkscape.org/) -->

<svg
   width="210mm"
   height="297mm"
   viewBox="0 0 210 297"
   version="1.1"
   id="svg5"
   inkscape:version="1.2.2 (b0a8486541, 2022-12-01)"
   sodipodi:docname="sprakbanken_text_stickers.svg"
   xml:space="preserve"
   inkscape:export-filename="sprakbanken_text_stickers.pdf"
   inkscape:export-xdpi="427.60999"
   inkscape:export-ydpi="427.60999"
   xmlns:inkscape="http://www.inkscape.org/namespaces/inkscape"
   xmlns:sodipodi="http://sodipodi.sourceforge.net/DTD/sodipodi-0.dtd"
   xmlns="http://www.w3.org/2000/svg"
   xmlns:svg="http://www.w3.org/2000/svg"><sodipodi:namedview
     id="namedview7"
     pagecolor="#ffffff"
     bordercolor="#000000"
     borderopacity="0.25"
     inkscape:showpageshadow="2"
     inkscape:pageopacity="0.0"
     inkscape:pagecheckerboard="0"
     inkscape:deskcolor="#d1d1d1"
     inkscape:document-units="mm"
     showgrid="false"
     inkscape:zoom="1.4405766"
     inkscape:cx="223.86869"
     inkscape:cy="237.05786"
     inkscape:window-width="1920"
     inkscape:window-height="1029"
     inkscape:window-x="0"
     inkscape:window-y="27"
     inkscape:window-maximized="1"
     inkscape:current-layer="layer1"
     showguides="true"><inkscape:grid
       type="xygrid"
       id="grid13315" /><sodipodi:guide
       position="10.583333,290.38542"
       orientation="1,0"
       id="guide13317"
       inkscape:locked="false" /><sodipodi:guide
       position="-2.6458333,286.41667"
       orientation="0,-1"
       id="guide13319"
       inkscape:locked="false" /><sodipodi:guide
       position="113.77083,192.48958"
       orientation="1,0"
       id="guide4551"
       inkscape:locked="false" /><sodipodi:guide
       position="36.589675,102.91564"
       orientation="0,-1"
       id="guide5892"
       inkscape:locked="false" /><sodipodi:guide
       position="105.12474,77.98561"
       orientation="0,-1"
       id="guide8737"
       inkscape:locked="false" /><sodipodi:guide
       position="5.063191,281.76047"
       orientation="0,-1"
       id="guide3563"
       inkscape:locked="false" /><sodipodi:guide
       position="5.0003434,261.30258"
       orientation="0,-1"
       id="guide3687"
       inkscape:locked="false" /><sodipodi:guide
       position="6.1843046,265.99565"
       orientation="0,-1"
       id="guide4144"
       inkscape:locked="false" /><sodipodi:guide
       position="80.145788,250.48013"
       orientation="1,0"
       id="guide4225"
       inkscape:locked="false" /></sodipodi:namedview><defs
     id="defs2"><rect
       x="42.637709"
       y="232.56482"
       width="428.09614"
       height="65.584899"
       id="rect4674" /><rect
       x="99.617993"
       y="550.61148"
       width="245.36638"
       height="102.65854"
       id="rect5734" /><rect
       x="34.405686"
       y="187.59879"
       width="498.24537"
       height="62.798194"
       id="rect1143" /><rect
       x="254.20188"
       y="183.8771"
       width="153.63864"
       height="82.655352"
       id="rect698" /><rect
       x="689.1286"
       y="893.97142"
       width="74.947767"
       height="26.692038"
       id="rect13528" /><rect
       x="485.13888"
       y="113.61871"
       width="246.03393"
       height="18.001416"
       id="rect13261" /><rect
       x="482.19178"
       y="295.30188"
       width="300.78352"
       height="66.401998"
       id="rect10965" /><rect
       x="165.33238"
       y="165.66166"
       width="170.87849"
       height="72.536374"
       id="rect827" /><rect
       x="34.120269"
       y="93.969898"
       width="452.19574"
       height="117.19179"
       id="rect600" /><rect
       x="165.33238"
       y="165.66167"
       width="170.87849"
       height="72.536377"
       id="rect827-6" /><rect
       x="165.33238"
       y="165.66167"
       width="170.87849"
       height="72.536377"
       id="rect827-6-9" /><rect
       x="165.33238"
       y="165.66167"
       width="170.87849"
       height="72.536377"
       id="rect827-6-9-4" /><rect
       x="165.33238"
       y="165.66167"
       width="170.87849"
       height="72.536377"
       id="rect827-6-9-4-1" /><rect
       x="165.33238"
       y="165.66167"
       width="170.87849"
       height="72.536377"
       id="rect827-2" /><rect
       x="165.33238"
       y="165.66167"
       width="170.87849"
       height="72.536377"
       id="rect827-6-7" /><rect
       x="165.33238"
       y="165.66167"
       width="170.87849"
       height="72.536377"
       id="rect827-6-9-2" /><rect
       x="165.33238"
       y="165.66167"
       width="170.87849"
       height="72.536377"
       id="rect827-6-9-4-2" /><rect
       x="165.33238"
       y="165.66167"
       width="170.87849"
       height="72.536377"
       id="rect827-6-9-4-1-6" /><rect
       x="482.19177"
       y="295.30188"
       width="245.63087"
       height="99.294273"
       id="rect10965-1" /><rect
       x="482.19177"
       y="295.30188"
       width="327.69745"
       height="62.83186"
       id="rect10965-1-9" /><rect
       x="482.19177"
       y="295.30188"
       width="380.62839"
       height="63.044887"
       id="rect10965-7" /><rect
       x="482.19177"
       y="295.30188"
       width="329.70599"
       height="94.550728"
       id="rect10965-6" /><rect
       x="482.19177"
       y="295.30188"
       width="327.69745"
       height="62.83186"
       id="rect10965-1-9-6" /><rect
       x="165.33238"
       y="165.66167"
       width="170.87849"
       height="72.536377"
       id="rect827-6-9-4-1-6-6" /><rect
       x="165.33238"
       y="165.66167"
       width="170.87849"
       height="72.536377"
       id="rect827-6-9-4-1-6-6-9" /><rect
       x="482.19177"
       y="295.30188"
       width="327.69745"
       height="62.83186"
       id="rect10965-1-9-1" /><rect
       x="482.19177"
       y="295.30188"
       width="327.69745"
       height="62.83186"
       id="rect10965-1-9-1-9" /><rect
       x="689.1286"
       y="893.97144"
       width="74.947769"
       height="26.692038"
       id="rect13528-1" /><rect
       x="485.13889"
       y="113.61871"
       width="246.03394"
       height="18.001415"
       id="rect13261-3" /><rect
       x="485.13889"
       y="113.61871"
       width="246.03394"
       height="18.001415"
       id="rect13261-1" /><rect
       x="482.19177"
       y="295.30188"
       width="324.68641"
       height="137.48706"
       id="rect10965-1-9-1-8" /><rect
       x="485.13889"
       y="113.61871"
       width="246.03394"
       height="18.001415"
       id="rect13261-1-6" /><rect
       x="482.19177"
       y="295.30188"
       width="327.69745"
       height="62.83186"
       id="rect10965-1-9-6-6" /><rect
       x="482.19177"
       y="295.30188"
       width="327.69745"
       height="62.83186"
       id="rect10965-1-9-6-5" /><rect
       x="165.33238"
       y="165.66167"
       width="170.87849"
       height="72.536377"
       id="rect827-2-1" /><rect
       x="165.33238"
       y="165.66167"
       width="170.87849"
       height="72.536377"
       id="rect827-6-7-0" /><rect
       x="165.33238"
       y="165.66167"
       width="170.87849"
       height="72.536377"
       id="rect827-6-9-2-6" /><rect
       x="165.33238"
       y="165.66167"
       width="170.87849"
       height="72.536377"
       id="rect827-6-9-4-2-3" /><rect
       x="165.33238"
       y="165.66167"
       width="170.87849"
       height="72.536377"
       id="rect827-6-9-4-1-6-2" /><rect
       x="482.19177"
       y="295.30188"
       width="300.78351"
       height="66.402"
       id="rect10965-0" /><rect
       x="482.19177"
       y="295.30188"
       width="329.70599"
       height="94.550728"
       id="rect10965-6-6" /><rect
       x="482.19177"
       y="295.30188"
       width="310.23126"
       height="88.70002"
       id="rect10965-7-1" /><rect
       x="482.19177"
       y="295.30188"
       width="327.69745"
       height="62.83186"
       id="rect10965-1-9-5" /><rect
       x="482.19177"
       y="295.30188"
       width="327.69745"
       height="62.83186"
       id="rect10965-1-9-1-8-5" /><rect
       x="482.19177"
       y="295.30188"
       width="327.69745"
       height="62.83186"
       id="rect10965-1-9-6-5-4" /><rect
       x="165.33238"
       y="165.66167"
       width="170.87849"
       height="72.536377"
       id="rect827-6-9-4-1-6-6-9-7" /><rect
       x="34.405685"
       y="187.59879"
       width="498.24536"
       height="62.798195"
       id="rect1143-4" /><rect
       x="42.637711"
       y="232.56482"
       width="428.09613"
       height="65.5849"
       id="rect4674-3" /><rect
       x="165.33238"
       y="165.66167"
       width="170.87849"
       height="72.536377"
       id="rect827-6-9-4-2-6" /><rect
       x="165.33238"
       y="165.66167"
       width="170.87849"
       height="72.536377"
       id="rect827-6-9-4-2-35" /><rect
       x="165.33238"
       y="165.66167"
       width="170.87849"
       height="72.536377"
       id="rect827-6-9-4-1-6-6-9-0" /><rect
       x="482.19177"
       y="295.30188"
       width="324.6864"
       height="137.48706"
       id="rect10965-1-9-1-8-2" /><rect
       x="34.405685"
       y="187.59879"
       width="498.24536"
       height="62.798195"
       id="rect1143-3" /><rect
       x="42.637711"
       y="232.56482"
       width="428.09613"
       height="65.5849"
       id="rect4674-6" /><rect
       x="165.33238"
       y="165.66167"
       width="170.87849"
       height="72.536377"
       id="rect827-6-9-4-1-6-6-9-3" /><rect
       x="482.19177"
       y="295.30188"
       width="324.6864"
       height="137.48706"
       id="rect10965-1-9-1-8-53" /><rect
       x="482.19177"
       y="295.30188"
       width="324.6864"
       height="137.48706"
       id="rect10965-1-9-1-8-2-5" /><rect
       x="165.33238"
       y="165.66167"
       width="170.87849"
       height="72.536377"
       id="rect827-6-7-9" /><rect
       x="482.19177"
       y="295.30188"
       width="329.70599"
       height="94.550728"
       id="rect10965-6-2" /><rect
       x="165.33238"
       y="165.66167"
       width="170.87849"
       height="72.536377"
       id="rect827-6-9-4-1-6-3" /><rect
       x="482.19177"
       y="295.30188"
       width="327.69745"
       height="62.83186"
       id="rect10965-1-9-67" /><rect
       x="482.19177"
       y="295.30188"
       width="327.69745"
       height="62.83186"
       id="rect10965-1-9-1-8-4" /><rect
       x="165.33238"
       y="165.66167"
       width="170.87849"
       height="72.536377"
       id="rect827-6-9-4-1-6-6-9-9" /><rect
       x="482.19177"
       y="295.30188"
       width="327.69745"
       height="62.83186"
       id="rect10965-1-9-1-8-5-5" /><rect
       x="165.33238"
       y="165.66167"
       width="170.87849"
       height="72.536377"
       id="rect827-6-9-4-1-6-6-9-7-0" /><rect
       x="165.33238"
       y="165.66167"
       width="170.87849"
       height="72.536377"
       id="rect827-6-9-4-1-6-3-2" /><rect
       x="482.19177"
       y="295.30188"
       width="327.69745"
       height="62.83186"
       id="rect10965-1-9-67-7" /><rect
       x="34.405685"
       y="187.59879"
       width="498.24536"
       height="62.798195"
       id="rect1143-5" /><rect
       x="34.405685"
       y="187.59879"
       width="498.24536"
       height="62.798195"
       id="rect1143-30" /><rect
       x="165.33238"
       y="165.66167"
       width="170.87849"
       height="72.536377"
       id="rect827-6-9-4-1-6-3-2-4" /><rect
       x="482.19177"
       y="295.30188"
       width="327.69745"
       height="62.83186"
       id="rect10965-1-9-67-7-9" /><rect
       x="34.405685"
       y="187.59879"
       width="498.24536"
       height="62.798195"
       id="rect1143-4-5" /><rect
       x="34.405685"
       y="187.59879"
       width="498.24536"
       height="62.798195"
       id="rect1143-6" /><rect
       x="42.637711"
       y="232.56482"
       width="429.04333"
       height="39.494087"
       id="rect4674-1" /><clipPath
       clipPathUnits="userSpaceOnUse"
       id="clipPath3492"><path
         d="M 135.242,802.02 V 201.523 H 885 V 802.02 Z"
         id="path3490" /></clipPath><rect
       x="34.405685"
       y="187.59879"
       width="498.24536"
       height="62.798195"
       id="rect1143-6-9" /><rect
       x="42.637711"
       y="232.56482"
       width="429.04333"
       height="39.494087"
       id="rect4674-1-3" /></defs><g
     inkscape:label="Layer 1"
     inkscape:groupmode="layer"
     id="layer1"><rect
       style="fill:#ffffff;fill-opacity:1;stroke:#1a1a1a;stroke-width:0.221798;stroke-linecap:round;stroke-linejoin:bevel;stroke-dasharray:0.665394, 0.665394;stroke-dashoffset:0"
       id="rect2064"
       width="125.98723"
       height="25.141504"
       x="10.563694"
       y="10.563691" /><text
       xml:space="preserve"
       transform="scale(0.26458333)"
       id="text5732"
       style="font-weight:900;font-size:12px;font-family:'Jost*';-inkscape-font-specification:'Jost*, Heavy';white-space:pre;shape-inside:url(#rect5734);display:inline;fill:#1e989f;fill-opacity:1" /><g
       id="g3695"
       transform="matrix(0.83162703,0,0,0.83162703,3.8817794,3.4122419)"><text
         xml:space="preserve"
         transform="matrix(0.25301307,0,0,0.25301307,37.017657,-35.505586)"
         id="text1141"
         style="font-size:10.6667px;font-family:'Open Sans';-inkscape-font-specification:'Open Sans, Normal';white-space:pre;shape-inside:url(#rect1143);display:inline;fill:#f0bca9"
         inkscape:export-filename="../logotyper/sprakbanken_text_slogan_sv.svg"
         inkscape:export-xdpi="171.03999"
         inkscape:export-ydpi="171.03999"><tspan
           x="34.40625"
           y="231.45085"
           id="tspan5527"><tspan
             style="font-weight:300;font-size:50.6667px;font-family:'Jost*';-inkscape-font-specification:'Jost*, Light';fill:#1a1a1a"
             id="tspan5523">SPRÅKBANKEN</tspan><tspan
             style="font-weight:300;font-size:50.6667px;font-family:'Jost*';-inkscape-font-specification:'Jost*, Light';fill:#f0581a"
             id="tspan5525">TEXT</tspan></tspan></text><text
         xml:space="preserve"
         transform="matrix(0.25301307,0,0,0.25301307,35.155892,-33.873438)"
         id="text4672"
         style="font-style:normal;font-variant:normal;font-weight:500;font-stretch:normal;font-size:12px;line-height:1.1;font-family:'Jost*';-inkscape-font-specification:'Jost*, Medium';font-variant-ligatures:normal;font-variant-caps:normal;font-variant-numeric:normal;font-variant-east-asian:normal;white-space:pre;shape-inside:url(#rect4674);display:inline;fill:#f0581a"><tspan
           x="42.638672"
           y="245.73922"
           id="tspan5531"><tspan
             style="font-size:16.6667px;fill:#000000"
             id="tspan5529">En forskningsinfrastruktur för språkliga data
</tspan></tspan><tspan
           x="42.638672"
           y="264.07259"
           id="tspan5535"><tspan
             style="font-size:16.6667px;fill:#000000"
             id="tspan5533">och en språkteknologisk forskningsenhet</tspan></tspan></text></g><rect
       style="fill:#000000;fill-opacity:1;stroke:none;stroke-width:0.198321;stroke-linecap:round;stroke-linejoin:bevel;stroke-dasharray:0.198321, 0.198321"
       id="rect2508"
       width="28.924238"
       height="25.123272"
       x="10.451"
       y="10.57415" /><g
       id="g3624"
       transform="matrix(0.73801278,0,0,0.73801278,3.8137409,0.92621359)"><g
         id="g3486"
         transform="matrix(0.03527778,0,0,-0.03527778,10.450998,47.686371)"><g
           id="g3488"
           clip-path="url(#clipPath3492)"><path
             d="m 425.508,725.273 c -23.543,-22.554 -36.903,-52.91 -37.61,-85.519 -1.449,-67.293 52.102,-123.231 119.387,-124.688 32.617,-0.707 63.535,11.325 87.078,33.868 23.547,22.558 36.907,52.933 37.61,85.523 1.457,67.293 -52.11,123.238 -119.395,124.684 -32.59,0.711 -63.496,-11.317 -87.07,-33.868 z m 81.953,-202.14 c -62.832,1.347 -112.852,53.594 -111.504,116.449 0.664,30.441 13.145,58.809 35.137,79.875 21.992,21.051 50.879,32.289 81.308,31.625 62.864,-1.352 112.871,-53.602 111.504,-116.449 -0.664,-30.442 -13.125,-58.809 -35.136,-79.879 -21.985,-21.035 -50.86,-32.293 -81.309,-31.621 v 0"
             style="fill:#ffffff;fill-opacity:1;fill-rule:nonzero;stroke:none"
             id="path3494" /><path
             d="m 395.891,756.215 c -31.825,-30.469 -49.871,-71.5 -50.828,-115.527 -1.961,-90.934 70.386,-166.485 161.292,-168.461 90.93,-1.969 166.477,70.402 168.45,161.32 v 0 c 0.957,44.019 -15.313,85.797 -45.75,117.613 -30.469,31.817 -71.516,49.863 -115.547,50.817 -44.035,0.957 -85.813,-15.289 -117.617,-45.762 z M 506.504,478.906 c -87.219,1.887 -156.649,74.399 -154.762,161.641 0.918,42.246 18.235,81.609 48.746,110.832 30.528,29.246 70.625,44.84 112.871,43.922 42.254,-0.918 81.621,-18.231 110.879,-48.766 29.219,-30.512 44.805,-70.605 43.887,-112.851 v 0 C 666.23,546.453 593.73,477.016 506.504,478.906 v 0"
             style="fill:#ffffff;fill-opacity:1;fill-rule:nonzero;stroke:none"
             id="path3496" /></g></g><path
         d="m 25.276628,25.882376 c -0.0521,-0.04163 -0.073,-0.120579 -0.0521,-0.195297 0.0245,-0.08791 0.0976,-0.147567 0.19473,-0.161079 0.12471,-0.01683 0.22808,0.01986 0.29835,0.10541 0.11645,0.143475 0.12703,0.401426 0.0269,0.689434 -0.1826,0.524087 0.012,0.804369 0.10403,0.90043 0.0735,0.07701 0.16193,0.119733 0.21386,0.103611 l 0.007,-0.0014 6.7e-4,-0.0069 c 0.005,-0.03238 0.0441,-0.114935 0.0696,-0.162349 l 0.003,-0.0058 -0.005,-0.0055 c -0.15434,-0.197062 -0.19773,-0.454625 -0.11024,-0.656767 0.0744,-0.17145 0.22874,-0.276154 0.43338,-0.294216 0.0976,-0.009 0.13618,0.02134 0.13917,0.04974 0.004,0.03171 -0.0324,0.07056 -0.0992,0.08061 -0.2184,0.03171 -0.3091,0.182598 -0.32177,0.312808 -0.0103,0.117157 0.0372,0.220768 0.1137,0.246944 0.0413,5.65e-4 0.0737,-0.01252 0.0999,-0.03856 l 0.003,-0.0035 -6.7e-4,-0.0044 c -0.004,-0.05718 0.0213,-0.124425 0.0599,-0.156951 0.0241,-0.02014 0.0517,-0.02688 0.0806,-0.01944 0.12016,0.03016 0.12883,0.12252 0.12679,0.160549 -0.004,0.08834 -0.0675,0.168804 -0.14125,0.179811 l -0.006,0.0013 -0.0482,0.13656 c -0.0542,0.148696 -0.1155,0.3175 -0.0969,0.416172 0.0117,0.06615 0.042,0.109538 0.0847,0.122626 0.0372,0.01157 0.0797,-0.0026 0.11645,-0.03941 0.0496,-0.04921 0.0751,-0.156139 0.10471,-0.279611 l 0.0124,-0.05098 -7e-4,-0.0022 c -0.02,-0.08749 -0.006,-0.165065 0.0386,-0.201718 0.031,-0.02621 0.0731,-0.02935 0.12238,-0.0083 0.032,0.01379 0.055,0.04219 0.0643,0.08061 0.0145,0.06078 -0.007,0.136454 -0.0565,0.196921 l -0.002,0.0022 v 0.0035 c -0.006,0.05567 -0.0183,0.115041 -0.031,0.172791 -0.0179,0.08283 -0.0356,0.161219 -0.0276,0.22419 0.006,0.04177 0.0296,0.07168 0.0703,0.08449 0.0523,0.01669 0.12058,0 0.15504,-0.03775 0.0365,-0.04039 0.07,-0.209903 0.10404,-0.394546 l 0.0248,-0.122626 -0.004,-0.0046 c -0.0382,-0.03362 -0.0503,-0.105833 -0.0283,-0.171168 0.0221,-0.06614 0.0726,-0.107209 0.1385,-0.112571 0.0531,-0.0042 0.091,0.01362 0.11162,0.0533 0.0393,0.07609 0.006,0.20327 -0.0273,0.24391 l -0.004,0.0039 0.002,0.0054 c 0.0296,0.112324 0.0156,0.235373 0.004,0.33461 -0.009,0.0817 -0.0173,0.152117 0.001,0.195403 0.0193,0.04491 0.065,0.078 0.12262,0.08763 0.0597,0.0102 0.11783,-0.0074 0.15297,-0.04604 0.0393,-0.0441 0.031,-0.111196 0.0225,-0.190147 -0.008,-0.06932 -0.017,-0.148696 2.8e-4,-0.233186 l 6.7e-4,-0.0033 -0.001,-0.0028 c -0.0331,-0.08128 -0.0313,-0.16122 0.004,-0.219216 0.0225,-0.03655 0.0562,-0.05927 0.0927,-0.06188 0.0586,-0.0044 0.099,0.0066 0.12058,0.03348 0.0448,0.05457 0.0117,0.167569 -0.0145,0.257704 l -0.003,0.0091 c 0.009,0.127352 0.0317,0.303882 0.0841,0.44196 0.0165,0.04448 0.062,0.07482 0.11367,0.07578 0.0538,0.0018 0.0992,-0.0285 0.12128,-0.08033 0.0193,-0.0459 -0.001,-0.140159 -0.0228,-0.239642 -0.0117,-0.05376 -0.0238,-0.109961 -0.0289,-0.157657 -0.0455,-0.106397 -0.0544,-0.181363 -0.0269,-0.226271 0.0158,-0.02727 0.0448,-0.04244 0.0868,-0.04547 0.0248,-0.0023 0.0724,0 0.10957,0.03665 0.0413,0.04011 0.0586,0.109009 0.0524,0.205176 0,0.0032 0.0386,0.141534 0.0386,0.141534 0.0296,0.106539 0.059,0.216923 0.0965,0.29711 0.0121,0.04466 0.0482,0.07634 0.0909,0.07828 0.0434,0.002 0.082,-0.02593 0.0992,-0.07317 0.031,-0.08544 -0.0145,-0.181928 -0.0719,-0.304976 l -0.0287,-0.06022 c -0.0592,-0.05842 -0.0792,-0.114229 -0.062,-0.164535 0.0193,-0.05373 0.0806,-0.09042 0.12774,-0.0944 0.0441,-0.0032 0.10583,0.0012 0.14608,0.04314 0.0374,0.03941 0.0507,0.105693 0.0401,0.196639 l -0.001,0.0018 0.0558,0.178047 c 0.0207,0.06957 0.0379,0.130069 0.0558,0.172367 0.0186,0.04314 0.0561,0.07207 0.10541,0.07994 0.0473,0.0082 0.0937,-0.0061 0.12125,-0.03623 0.0366,-0.04039 0.0101,-0.09525 -0.02,-0.158891 -0.0193,-0.03955 -0.0406,-0.08364 -0.0503,-0.131057 l -6.7e-4,-0.0033 -0.003,-0.0022 c -0.0607,-0.05927 -0.0862,-0.134938 -0.0655,-0.192934 0.0145,-0.04039 0.0485,-0.06435 0.0971,-0.06847 0.0607,-0.0044 0.10679,0.008 0.13575,0.03704 0.0321,0.03157 0.0462,0.08255 0.0416,0.153106 l -2.5e-4,0.0028 0.001,0.0024 c 0.0158,0.03581 0.0255,0.07496 0.0351,0.116699 0.0138,0.05831 0.0289,0.117969 0.062,0.173637 0.0313,0.05016 0.0726,0.0762 0.11642,0.07292 0.0503,-0.0042 0.0971,-0.0448 0.12333,-0.105586 0.0179,-0.0441 -0.0124,-0.114371 -0.0455,-0.188772 -0.0324,-0.0762 -0.0668,-0.154763 -0.0427,-0.194733 0.0103,-0.01722 0.0303,-0.02674 0.0627,-0.02949 0.14054,-0.01087 0.19981,0.116734 0.24666,0.218722 0.0207,0.04367 0.0379,0.08142 0.0595,0.101953 0.0264,0.02565 0.0528,0.03736 0.079,0.03679 0.0383,-9.53e-4 0.0685,-0.02949 0.0875,-0.05098 0.0283,-0.03115 0.0117,-0.08283 -0.004,-0.132856 -0.022,-0.06847 -0.0331,-0.115323 0.0117,-0.135996 0.113,-0.05211 0.15572,-0.0012 0.20532,0.05704 0.0351,0.04177 0.0717,0.08558 0.13712,0.08696 0.30773,0.0046 0.55535,-0.226554 0.71011,-0.421146 0.26554,-0.336091 0.40404,-0.754592 0.36227,-0.920785 l -9.5e-4,-0.0041 -0.003,-0.0022 c -0.11437,-0.06766 -0.14055,-0.192229 -0.11642,-0.285397 0.0221,-0.08378 0.082,-0.138607 0.15131,-0.140018 0.10887,-0.0019 0.18905,0.03584 0.23936,0.112466 0.0413,0.06297 0.0609,0.151729 0.0609,0.261831 0,0.234139 -0.0912,0.563069 -0.26596,0.941211 -0.43917,0.949572 -1.52852,1.393331 -1.97707,1.474082 -2.1711,0.366148 -3.84401,-0.429401 -4.15615,-1.448611 -0.13162,-0.432153 -0.073,-0.649746 0.0103,-0.8763 0.0462,-0.124284 0.0937,-0.253012 0.11024,-0.423863 l 0.002,-0.0193 -0.0173,0.0092 c -0.10266,0.05443 -0.19128,0.05884 -0.24941,0.01171 v 0"
         style="fill:#ffffff;fill-opacity:1;fill-rule:nonzero;stroke:none;stroke-width:0.0352778"
         id="path3498" /><path
         d="m 28.175328,21.938815 c 0.0413,-0.03154 0.0599,-0.07066 0.0537,-0.115888 -0.0151,-0.11945 0.0441,-0.260843 0.16605,-0.281798 0.15367,-0.02674 0.43618,0.0084 0.48782,0.04272 0.071,0.04642 0.10062,0.102094 0.0841,0.15681 -0.0269,0.08227 -0.14743,0.143721 -0.27697,0.139594 -0.082,-0.0028 -0.144,0.02356 -0.1833,0.078 -0.12262,0.168663 0.003,0.553826 0.0448,0.667949 0.011,0.0332 0.0372,0.04851 0.0724,0.043 -10e-4,0 0.30314,-0.02949 0.30314,-0.02949 0.25495,-0.02632 0.57189,-0.05983 0.8351,-0.06424 -6.7e-4,0 0.0207,-0.0096 0.0207,-0.0096 l 0.006,-0.01873 c -0.005,-0.05969 -0.0406,-0.214172 -0.0558,-0.246557 l -0.003,-0.0055 -0.006,-6.7e-4 c -0.0613,-0.0055 -0.17819,-0.043 -0.24529,-0.124178 -0.0406,-0.04808 -0.0572,-0.105269 -0.0513,-0.169369 0.0168,-0.109961 0.17459,-0.171556 0.30964,-0.165064 0.15917,-0.0024 0.28567,0.04382 0.33693,0.123331 0.0406,0.06241 0.0365,0.145379 -0.011,0.245568 l -7.1e-4,0.0022 v 0.0022 c 0,0.08445 0.04,0.249273 0.0682,0.306317 0.0103,0.02039 0.0399,0.02356 0.0455,0.02413 l 0.0448,0.0029 c 0.0841,0.0048 0.18909,0.01129 0.38379,0.05951 0.0579,0.01489 0.11437,0.08502 0.10706,0.166476 -0.0258,0.277813 -0.0715,0.437656 -0.13462,0.659377 l -0.0705,0.258128 c -0.002,0.01034 9.5e-4,0.02783 0.014,0.03253 v 0 c 0.1844,0.06643 0.39687,0.178576 0.39137,0.276436 -0.006,0.07923 -0.0296,0.10347 -0.0441,0.111478 -0.0113,0.0058 -0.0241,0.0056 -0.0358,-7.05e-4 -0.11091,-0.06325 -0.27767,-0.104599 -0.3321,-0.114935 -0.009,-0.002 -0.0248,0.0079 -0.0276,0.01725 -0.0197,0.06629 0.006,0.152259 0.0345,0.251743 0.0331,0.112183 0.0709,0.239536 0.0523,0.370416 -0.0193,0.142522 -0.0744,0.311327 -0.11479,0.434375 -0.0271,0.08435 -0.0471,0.145239 -0.0467,0.169228 9.5e-4,0.06696 0.003,0.07098 0.0413,0.100048 0.0271,0.02081 0.0781,0.0598 0.16908,0.162313 0.3314,0.372921 0.0599,0.906215 -0.13783,1.295506 -0.0689,0.135607 -0.12883,0.253294 -0.15226,0.341877 -0.0152,0.05997 -0.13712,0.129963 -0.28871,0.166193 -0.14993,0.03584 -0.27421,0.02688 -0.31789,-0.02244 -0.009,-0.01009 -0.0128,-0.02332 -0.0112,-0.03902 0.005,-0.03595 0.0363,-0.07814 0.0865,-0.113559 0.0799,-0.05539 0.16055,-0.08227 0.2825,-0.123331 0.0165,-0.0056 0.0276,-0.01817 0.0278,-0.0332 0.10351,-0.53206 0.17227,-0.984744 0.0486,-1.544356 l -0.0282,-0.08643 c -0.0221,-0.05856 -0.0455,-0.11931 -0.0427,-0.216324 0,-0.03376 0.008,-0.08036 0.0179,-0.134231 0.0324,-0.187572 0.082,-0.470324 -0.0544,-0.792939 -0.0338,-0.05154 -0.0965,-0.07193 -0.16302,-0.05415 -0.0577,0.01517 -0.11807,0.06106 -0.12223,0.128587 l -0.003,0.03884 c -0.0193,0.274108 -0.0399,0.584835 -0.18535,0.873125 -0.0813,0.161255 0.002,0.225883 0.0834,0.288572 l 0.005,0.0036 c 0.29256,0.226413 0.24391,0.730109 0.0441,1.110439 l -0.0306,0.05803 c -0.0409,0.07426 -0.0868,0.159138 -0.12541,0.267052 l -0.0138,0.02755 c -0.0659,0.09772 -0.21593,0.169087 -0.40308,0.192511 -0.13092,0.01584 -0.22807,1.41e-4 -0.25245,-0.02286 -0.0108,-0.01171 -0.0149,-0.02783 -0.0126,-0.04632 0.007,-0.04851 0.0555,-0.104599 0.10104,-0.135467 0.0654,-0.04434 0.15501,-0.09507 0.31968,-0.13268 0.003,-4.23e-4 0.0289,-0.0073 0.0372,-0.03665 0.19403,-0.559647 0.0213,-1.075832 -0.062,-1.227561 -0.0774,-0.141111 -0.0668,-0.219111 -0.0448,-0.373874 l 0.0152,-0.111901 c 0.0317,-0.225178 0.0981,-0.694655 0.12471,-1.001431 10e-4,-0.01129 -0.008,-0.02921 -0.0252,-0.03097 -0.0533,-0.0061 -0.18355,-0.01626 -0.23452,0.02519 -0.0356,0.02896 -0.04,0.142099 -0.0462,0.298485 -0.0117,0.308434 -0.0282,0.73025 -0.28939,0.772972 -0.0792,0.01309 -0.15434,-0.0083 -0.22253,-0.06286 -0.16676,-0.133103 -0.28871,-0.468807 -0.31076,-0.85397 -0.0225,-0.380047 0.0379,-0.852981 0.17709,-0.98626 l 0.0131,-0.01224 -0.0173,-0.005 c -0.0441,-0.01309 -0.0792,-0.05376 -0.096,-0.111619 -0.0193,-0.0689 -0.007,-0.145097 0.0326,-0.188807 l 0.003,-0.0028 v -0.004 c 0,-0.0423 -0.0282,-0.1137 -0.0634,-0.20394 -0.04,-0.09977 -0.0882,-0.224226 -0.11095,-0.343006 -0.002,-0.01062 -0.0213,-0.02385 -0.0333,-0.02494 l -0.0831,5.65e-4 c -0.24624,0.0047 -0.75928,0.01376 -0.93663,-0.521053 -0.0135,-0.03912 0.0161,-0.09028 0.0636,-0.111337 0.0544,-0.02413 0.10886,0.0019 0.14675,0.06876 0.0469,0.0835 0.1771,0.208633 0.28251,0.251072 0.11161,0.04519 0.44167,0.04865 0.57534,-0.05472 z m 0.30963,2.024203 c -0.007,0.320534 0.0873,0.812377 0.18782,0.82423 0.1082,0.01238 0.11,-0.303882 0.11275,-0.427072 0.006,-0.320534 -0.0535,-0.821443 -0.17198,-0.823666 -0.10103,-0.0025 -0.12583,0.278095 -0.12859,0.426508 z m 0.40143,-1.028135 c -0.0772,0.0093 -0.14496,0.06364 -0.15226,0.121532 -0.008,0.07496 -0.0317,0.104316 -0.071,0.131868 l -0.02,0.01422 0.0237,0.0048 c 0.20577,0.03983 0.24916,0.199849 0.28155,0.31683 0.0165,0.06216 0.0301,0.131057 0.0641,0.144145 0.0799,0.03059 0.2274,0.03305 0.31973,-0.0021 0.042,-0.01598 0.0634,-0.106927 0.0558,-0.167146 -0.0138,-0.160831 -0.0682,-0.49029 -0.0682,-0.49029 -0.0179,-0.06879 -0.0978,-0.09137 -0.14581,-0.09345 -0.0416,-8.12e-4 -0.12428,0.0012 -0.28758,0.01958 z m 1.10381,-0.08587 c -0.13159,0.0041 -0.30039,0.02053 -0.32865,0.08587 -0.0507,0.118921 -0.0145,0.582507 0.0847,0.640927 0.11437,0.0671 0.38791,0.06378 0.4651,-0.01104 0.0606,-0.05842 0.0955,-0.393983 0.0955,-0.558518 0,-0.04477 -0.004,-0.07976 -0.0135,-0.09701 -0.022,-0.04491 -0.17847,-0.06435 -0.30317,-0.06022 v 0"
         style="fill:#ffffff;fill-opacity:1;fill-rule:nonzero;stroke:none;stroke-width:0.0352778"
         id="path3500" /><path
         d="m 26.642938,20.270317 -0.0282,0.221862 -0.14333,0.171697 0.22186,0.02812 0.17131,0.143722 0.0285,-0.221862 0.14334,-0.171556 -0.22186,-0.0284 -0.17159,-0.143581 v 0"
         style="fill:#ffffff;fill-opacity:1;fill-rule:nonzero;stroke:none;stroke-width:0.0352778"
         id="path3502" /><path
         d="m 30.794278,29.883229 -0.18051,-0.132009 -0.22324,-0.01323 0.13158,-0.181363 0.0138,-0.223379 0.18009,0.132432 0.22327,0.01446 -0.13119,0.180093 -0.0138,0.222991 v 0"
         style="fill:#ffffff;fill-opacity:1;fill-rule:nonzero;stroke:none;stroke-width:0.0352778"
         id="path3504" /><path
         d="m 26.070378,29.874939 0.18051,-0.131022 0.22324,-0.01298 -0.13091,-0.181751 -0.0135,-0.223379 -0.18051,0.132292 -0.22352,0.01252 0.13162,0.181081 0.0131,0.223238 v 0"
         style="fill:#ffffff;fill-opacity:1;fill-rule:nonzero;stroke:none;stroke-width:0.0352778"
         id="path3506" /><path
         d="m 24.834948,28.915136 0.2274,-0.26677 c 0.10333,-0.121673 0.26871,-0.112607 0.42651,0.02148 0.15914,0.135608 0.19427,0.298203 0.0909,0.419488 l -0.2274,0.266771 c -0.0282,0.03309 -0.0296,0.05115 0.008,0.08326 l -0.0806,0.06103 -0.21978,-0.186867 0.0489,-0.08915 c 0.0372,0.03129 0.0551,0.02755 0.0827,-0.0051 l 0.22903,-0.268146 c 0.0452,-0.05278 0.0411,-0.11811 -0.0299,-0.178329 -0.0731,-0.06241 -0.1385,-0.05676 -0.18398,-0.0037 l -0.22877,0.268006 c -0.028,0.03295 -0.0289,0.05101 0.008,0.08255 l -0.0806,0.06107 -0.20052,-0.170463 0.0476,-0.09028 c 0.0372,0.03196 0.0551,0.02783 0.0834,-0.0048 v 0"
         style="fill:#ffffff;fill-opacity:1;fill-rule:nonzero;stroke:none;stroke-width:0.0352778"
         id="path3508" /><path
         d="m 24.103778,28.025607 0.48108,-0.360609 0.091,0.121108 -0.15092,0.508918 c -0.0103,0.03514 -0.0379,0.09095 -0.0379,0.09095 0,0 0.0434,-0.04022 0.0648,-0.0569 l 0.21248,-0.15875 c 0.0335,-0.02494 0.0397,-0.0423 0.0108,-0.08146 l 0.0916,-0.04311 0.14538,0.193463 -0.0661,0.07719 c -0.0296,-0.0393 -0.0489,-0.03831 -0.082,-0.01379 l -0.35415,0.265289 c -0.034,0.02575 -0.0393,0.04339 -0.01,0.08266 l -0.093,0.04191 -0.13021,-0.173496 0.13642,-0.462739 c 0.011,-0.03612 0.0395,-0.0926 0.0395,-0.0926 0,0 -0.0443,0.04121 -0.0689,0.05923 l -0.1808,0.135325 c -0.0344,0.02593 -0.0393,0.04371 -0.0103,0.08269 l -0.0918,0.04315 -0.14524,-0.194169 0.0667,-0.07662 c 0.0293,0.03941 0.0471,0.03845 0.0813,0.01238 v 0"
         style="fill:#ffffff;fill-opacity:1;fill-rule:nonzero;stroke:none;stroke-width:0.0352778"
         id="path3510" /><path
         d="m 24.288568,27.103728 0.12541,0.252872 -0.0799,0.06269 c -0.022,-0.04396 -0.0406,-0.04671 -0.0785,-0.02826 l -0.39525,0.19625 c -0.039,0.0193 -0.0472,0.03528 -0.0253,0.07937 l -0.0981,0.02533 -0.12538,-0.253118 0.0798,-0.06287 c 0.0219,0.0441 0.0398,0.0477 0.0784,0.0284 l 0.39606,-0.195968 c 0.0371,-0.01845 0.0464,-0.03552 0.0251,-0.07923 l 0.0978,-0.02547 v 0"
         style="fill:#ffffff;fill-opacity:1;fill-rule:nonzero;stroke:none;stroke-width:0.0352778"
         id="path3512" /><path
         d="m 23.391348,26.34702 0.65041,0.05874 0.0572,0.194274 -0.51523,0.398957 c -0.0378,0.02893 -0.0419,0.04438 -0.0292,0.08777 l -0.10185,0.0073 -0.0794,-0.269522 0.0893,-0.0495 c 0.0124,0.03859 0.0283,0.0441 0.0609,0.02067 l 0.24913,-0.187537 c 0.0416,-0.02896 0.12897,-0.0707 0.12897,-0.0707 0,0 -0.0966,0.01115 -0.14756,0.0081 l -0.31309,-0.0303 c -0.042,-0.0028 -0.0507,0.01517 -0.0392,0.0551 l -0.101,0.0079 -0.071,-0.239924 0.0895,-0.04822 c 0.0132,0.04494 0.0247,0.05278 0.0721,0.0569 v 0"
         style="fill:#ffffff;fill-opacity:1;fill-rule:nonzero;stroke:none;stroke-width:0.0352778"
         id="path3514" /><path
         d="m 23.872008,25.327986 0.0536,0.583036 -0.0974,0.03101 c -0.004,-0.04932 -0.0207,-0.05856 -0.0624,-0.05486 l -0.43974,0.03997 c -0.0427,0.0038 -0.057,0.0164 -0.0522,0.06548 l -0.10129,-0.01312 -0.0506,-0.557001 0.17942,-0.01651 0.0234,0.07701 c -0.058,0.01379 -0.0703,0.03101 -0.0626,0.115217 l 0.0117,0.129117 0.18245,-0.01655 -0.011,-0.11684 c -0.004,-0.05031 -0.0146,-0.06795 -0.0538,-0.06463 l 0.0123,-0.08199 0.17956,-0.01655 0.0286,0.07853 c -0.0406,0.0042 -0.0479,0.02275 -0.0429,0.07306 l 0.0105,0.117264 0.19804,-0.01806 -0.0164,-0.179281 c -0.007,-0.07853 -0.0307,-0.09123 -0.0853,-0.09617 l 0.008,-0.08297 0.18772,0.0048 v 0"
         style="fill:#ffffff;fill-opacity:1;fill-rule:nonzero;stroke:none;stroke-width:0.0352778"
         id="path3516" /><path
         d="m 23.953568,24.305601 -0.0252,0.223238 c -0.11822,0.09786 -0.30318,-0.0031 -0.32012,0.149542 l -0.01,0.0901 0.14344,0.01598 c 0.0418,0.0048 0.0583,-0.0034 0.0638,-0.05221 l 0.0966,0.0321 -0.031,0.277813 -0.10114,0.0109 c 0.006,-0.05016 -0.009,-0.06121 -0.0506,-0.06629 l -0.43931,-0.04865 c -0.0412,-0.0052 -0.0583,0.0043 -0.0636,0.05306 l -0.0963,-0.03323 0.0426,-0.380189 c 0.0203,-0.184115 0.10806,-0.284409 0.24832,-0.26857 0.0917,0.0102 0.14965,0.06615 0.17448,0.163689 0.0358,-0.09066 0.12524,-0.104316 0.179,-0.109255 0.0621,-0.0055 0.0846,-0.01573 0.0908,-0.07264 l 0.002,-0.01707 z m -0.67966,0.312949 -0.0122,0.112183 0.21537,0.02413 0.0121,-0.108338 c 0.009,-0.08184 -0.0275,-0.129257 -0.093,-0.136419 -0.066,-0.0074 -0.11285,0.02798 -0.12223,0.108444 v 0"
         style="fill:#ffffff;fill-opacity:1;fill-rule:nonzero;stroke:none;stroke-width:0.0352778"
         id="path3518" /><path
         d="m 24.109848,23.819861 c -0.0451,0.141499 -0.1239,0.229588 -0.16316,0.267194 l -0.14277,-0.08957 0.0211,-0.06548 c 0.0901,7.06e-4 0.14665,-0.07151 0.17075,-0.145909 0.0185,-0.05718 0.0105,-0.125835 -0.0502,-0.145379 -0.0523,-0.01669 -0.0883,0.01542 -0.14742,0.126365 -0.0586,0.114088 -0.15311,0.216323 -0.29972,0.169227 -0.1421,-0.04561 -0.18179,-0.199143 -0.13011,-0.361209 0.0402,-0.12386 0.10569,-0.210009 0.1421,-0.247227 l 0.13476,0.08572 -0.0208,0.06449 c -0.0788,0.0083 -0.12556,0.07306 -0.14415,0.131622 -0.0207,0.0642 -0.006,0.119203 0.0419,0.134337 0.0466,0.01517 0.0806,-0.0193 0.12372,-0.101706 0.0799,-0.151024 0.16581,-0.249696 0.32579,-0.198014 0.15653,0.05031 0.18948,0.216923 0.13822,0.375532 v 0"
         style="fill:#ffffff;fill-opacity:1;fill-rule:nonzero;stroke:none;stroke-width:0.0352778"
         id="path3520" /><path
         d="m 24.445268,23.007485 -0.12915,0.251495 -0.0978,-0.02713 c 0.0221,-0.04371 0.0131,-0.0605 -0.0234,-0.07966 l -0.39361,-0.201891 c -0.0383,-0.0193 -0.0562,-0.01651 -0.0786,0.02745 l -0.079,-0.06396 0.12884,-0.251354 0.0979,0.02688 c -0.0222,0.04353 -0.0139,0.06036 0.024,0.08033 l 0.39346,0.20133 c 0.0365,0.01873 0.056,0.01598 0.0785,-0.02713 l 0.0788,0.06364 v 0"
         style="fill:#ffffff;fill-opacity:1;fill-rule:nonzero;stroke:none;stroke-width:0.0352778"
         id="path3522" /><path
         d="m 24.479838,21.967214 c -0.0466,-0.02399 -0.0752,-0.02618 -0.12195,0.03789 l -0.0438,0.05983 0.37963,0.278483 c 0.0338,0.02427 0.0524,0.02604 0.0817,-0.01323 l 0.0678,0.07525 -0.16538,0.225707 -0.093,-0.0412 c 0.0296,-0.0405 0.0221,-0.05757 -0.011,-0.08252 l -0.38033,-0.278659 -0.0433,0.05969 c -0.0474,0.06449 -0.0359,0.09052 5.6e-4,0.127988 l -0.0612,0.0557 -0.1386,-0.127635 0.3992,-0.545429 0.1651,0.09317 -0.0354,0.07497 v 0"
         style="fill:#ffffff;fill-opacity:1;fill-rule:nonzero;stroke:none;stroke-width:0.0352778"
         id="path3524" /><path
         d="m 25.620438,21.606181 -0.20298,0.188912 -0.0827,-0.05814 c 0.0266,-0.02494 0.0294,-0.04244 -0.01,-0.06325 l -0.0549,-0.02755 -0.1973,0.18408 0.0234,0.05694 c 0.0172,0.04283 0.0375,0.03718 0.0661,0.01044 l 0.053,0.08696 -0.17529,0.16316 -0.0831,-0.05814 c 0.0324,-0.0302 0.0372,-0.04671 0.0186,-0.08943 l -0.19018,-0.448698 c -0.0121,-0.02755 -0.0299,-0.03609 -0.0652,-0.0032 l -0.0515,-0.08805 0.29171,-0.272168 0.0836,0.05775 c -0.0354,0.03362 -0.031,0.04946 -0.003,0.06325 l 0.43643,0.221862 c 0.0404,0.0212 0.0568,0.0193 0.09,-0.01157 z m -0.64491,-0.122802 c -0.0376,-0.02205 -0.11437,-0.08654 -0.11437,-0.08654 0,0 0.0551,0.08587 0.0737,0.124178 l 0.0813,0.190994 0.14125,-0.13215 -0.18189,-0.09649 v 0"
         style="fill:#ffffff;fill-opacity:1;fill-rule:nonzero;stroke:none;stroke-width:0.0352778"
         id="path3526" /><path
         d="m 26.043498,21.346148 c -0.12609,0.078 -0.24296,0.09451 -0.29764,0.09783 l -0.0499,-0.160938 0.0577,-0.03598 c 0.0686,0.0587 0.15822,0.0405 0.22504,-9.53e-4 0.051,-0.03186 0.0896,-0.08862 0.0558,-0.14291 -0.0289,-0.04699 -0.0778,-0.04547 -0.19431,5.65e-4 -0.11849,0.0489 -0.25699,0.06544 -0.3376,-0.06477 -0.0785,-0.127212 -0.01,-0.269558 0.13532,-0.359551 0.11024,-0.06833 0.21541,-0.09176 0.26734,-0.09659 l 0.0473,0.152823 -0.0572,0.03542 c -0.0654,-0.0448 -0.14262,-0.02565 -0.19498,0.0069 -0.0579,0.0357 -0.0817,0.08682 -0.0558,0.12954 0.0262,0.04191 0.0744,0.03803 0.16122,0.0032 0.1578,-0.06382 0.28731,-0.08322 0.37621,0.05965 0.0868,0.139594 0.003,0.287761 -0.1385,0.375814 v 0"
         style="fill:#ffffff;fill-opacity:1;fill-rule:nonzero;stroke:none;stroke-width:0.0352778"
         id="path3528" /><path
         d="m 28.168168,20.345812 c -0.0514,0.0069 -0.0597,0.02413 -0.0549,0.0641 l 0.008,0.05842 c 0.006,0.0387 0.015,0.04752 0.0409,0.04424 l -0.007,0.09603 c -0.10746,0.0218 -0.12608,0.06879 -0.29006,0.09098 -0.21981,0.03002 -0.42058,-0.05196 -0.45818,-0.331717 -0.0352,-0.256575 0.11465,-0.409257 0.35345,-0.441642 0.144,-0.0193 0.25495,0.02272 0.30247,0.04244 l -0.0204,0.173496 -0.0657,0.0088 c -0.0324,-0.07595 -0.10265,-0.09881 -0.17984,-0.08833 -0.13737,0.01859 -0.19982,0.106115 -0.17706,0.277671 0.0234,0.172791 0.0965,0.23936 0.2322,0.221439 0.0321,-0.0046 0.0724,-0.01983 0.0937,-0.03514 l -0.0124,-0.09232 c -0.006,-0.04011 -0.0172,-0.05457 -0.0696,-0.0477 l -0.0131,0.0019 0.007,-0.101283 0.28938,-0.03912 0.0345,0.09564 -0.0134,0.002 v 0"
         style="fill:#ffffff;fill-opacity:1;fill-rule:nonzero;stroke:none;stroke-width:0.0352778"
         id="path3530" /><path
         d="m 28.809238,20.678904 c -0.22807,-0.01863 -0.37924,-0.136701 -0.35624,-0.42044 0.0228,-0.283739 0.19156,-0.376097 0.41935,-0.357611 0.23107,0.01859 0.38033,0.13656 0.35719,0.420158 -0.0228,0.283881 -0.18923,0.376626 -0.4203,0.357893 z m 0.0516,-0.641067 c -0.11712,-0.0094 -0.17885,0.05098 -0.19402,0.238125 -0.015,0.186972 0.0363,0.256434 0.15338,0.265959 0.11991,0.0095 0.17914,-0.05087 0.19431,-0.238125 0.0149,-0.18729 -0.0338,-0.256329 -0.15367,-0.265959 v 0"
         style="fill:#ffffff;fill-opacity:1;fill-rule:nonzero;stroke:none;stroke-width:0.0352778"
         id="path3532" /><path
         d="m 30.059088,20.353396 c 0.005,-0.05235 -0.003,-0.0798 -0.0799,-0.100718 l -0.071,-0.01972 -0.12404,0.454766 c -0.0106,0.04036 -0.005,0.05828 0.0414,0.07137 l -0.0455,0.09028 -0.2708,-0.07359 0.005,-0.101847 c 0.0481,0.01309 0.0623,5.65e-4 0.0733,-0.03983 l 0.12403,-0.454484 -0.0717,-0.01954 c -0.0765,-0.02096 -0.0965,-0.0011 -0.11892,0.04657 l -0.074,-0.03708 0.0696,-0.175684 0.6525,0.178294 -0.028,0.187008 -0.0823,-0.0058 v 0"
         style="fill:#ffffff;fill-opacity:1;fill-rule:nonzero;stroke:none;stroke-width:0.0352778"
         id="path3534" /><path
         d="m 30.849418,21.320078 -0.24945,-0.126753 0.0251,-0.09839 c 0.0452,0.02272 0.0617,0.01281 0.0801,-0.02441 l 0.077,-0.150742 -0.2552,-0.12954 -0.0765,0.150883 c -0.0186,0.03708 -0.0179,0.05567 0.0262,0.07786 l -0.0641,0.07923 -0.24917,-0.127035 0.0262,-0.09853 c 0.0445,0.023 0.0606,0.01323 0.079,-0.02399 l 0.20077,-0.393841 c 0.0193,-0.03817 0.0176,-0.05581 -0.0274,-0.07867 l 0.0648,-0.0787 0.24927,0.127211 -0.026,0.09783 c -0.0438,-0.02233 -0.0597,-0.01337 -0.079,0.02452 l -0.062,0.121567 0.25491,0.129928 0.062,-0.121673 c 0.0193,-0.03803 0.0172,-0.05609 -0.0275,-0.07867 l 0.0648,-0.07856 0.24941,0.127317 -0.0268,0.09786 c -0.0441,-0.02247 -0.0593,-0.01365 -0.0786,0.02466 l -0.20052,0.393559 c -0.0193,0.03722 -0.0172,0.05595 0.0262,0.07786 l -0.0634,0.07923 v 0"
         style="fill:#ffffff;fill-opacity:1;fill-rule:nonzero;stroke:none;stroke-width:0.0352778"
         id="path3536" /><path
         d="m 31.327858,21.697938 c -0.17639,-0.144956 -0.23386,-0.328506 -0.0533,-0.548181 0.18122,-0.219922 0.37278,-0.199249 0.54846,-0.05429 0.17985,0.147461 0.23495,0.329777 0.0538,0.549275 -0.18123,0.219675 -0.37003,0.20066 -0.54889,0.0532 z m 0.40806,-0.496217 c -0.0907,-0.07482 -0.17544,-0.06078 -0.29464,0.08407 -0.11988,0.14538 -0.11712,0.231352 -0.0262,0.305929 0.0923,0.07648 0.17568,0.06103 0.29489,-0.08421 0.1192,-0.145239 0.11853,-0.229447 0.0259,-0.305788 v 0"
         style="fill:#ffffff;fill-opacity:1;fill-rule:nonzero;stroke:none;stroke-width:0.0352778"
         id="path3538" /><path
         d="m 32.024168,22.392205 -0.2322,-0.288572 0.0634,-0.07938 c 0.031,0.03803 0.0503,0.03665 0.0831,0.01062 l 0.3441,-0.277248 c 0.0331,-0.02688 0.0372,-0.04452 0.007,-0.08283 l 0.0914,-0.04477 0.21731,0.269381 c 0.11645,0.14485 0.13021,0.269557 0.0275,0.352777 -0.0482,0.03859 -0.12608,0.03955 -0.18397,0.01048 0.0358,0.09398 0.007,0.177235 -0.0581,0.229447 -0.10996,0.0889 -0.24296,0.04452 -0.35941,-0.09991 z m 0.17918,-0.309492 -0.17022,0.137089 0.0682,0.08378 c 0.0517,0.0641 0.11024,0.06865 0.16192,0.02688 0.051,-0.04039 0.0572,-0.102376 0.005,-0.168381 z m 0.0951,-0.07609 0.0562,0.07027 c 0.0478,0.05884 0.0981,0.06244 0.14013,0.02759 0.0427,-0.0339 0.0503,-0.07885 0.002,-0.139453 l -0.0586,-0.07168 -0.13988,0.113277 v 0"
         style="fill:#ffffff;fill-opacity:1;fill-rule:nonzero;stroke:none;stroke-width:0.0352778"
         id="path3540" /><path
         d="m 33.192748,23.173819 -0.31281,0.159597 c -0.14192,0.07288 -0.29143,0.0015 -0.38583,-0.183303 -0.0944,-0.185879 -0.0655,-0.349462 0.0768,-0.421817 l 0.3132,-0.159702 c 0.0379,-0.01944 0.0455,-0.03598 0.0235,-0.0798 l 0.0988,-0.02561 0.13133,0.256998 -0.0792,0.06368 c -0.0228,-0.04371 -0.04,-0.0466 -0.0786,-0.02716 l -0.31376,0.159843 c -0.0624,0.03186 -0.0831,0.09359 -0.0404,0.176672 0.0427,0.0853 0.10545,0.105833 0.16743,0.07401 l 0.31422,-0.160267 c 0.0383,-0.01944 0.0461,-0.03598 0.0241,-0.0787 l 0.0985,-0.02674 0.11991,0.235515 -0.0786,0.06435 c -0.0221,-0.04367 -0.0404,-0.04685 -0.0786,-0.02755 v 0"
         style="fill:#ffffff;fill-opacity:1;fill-rule:nonzero;stroke:none;stroke-width:0.0352778"
         id="path3542" /><path
         d="m 32.948838,24.424275 -0.0569,-0.217205 c 0.0748,-0.133808 0.28403,-0.106362 0.24501,-0.254917 l -0.0234,-0.08752 -0.14012,0.03679 c -0.0404,0.01062 -0.0528,0.02427 -0.0404,0.07154 l -0.10128,0.0055 -0.0716,-0.270792 0.0905,-0.04643 c 0.0128,0.04837 0.0305,0.05387 0.0707,0.04311 l 0.42721,-0.112713 c 0.0406,-0.0109 0.0523,-0.02536 0.0406,-0.07288 l 0.10128,-0.004 0.0978,0.370028 c 0.048,0.179141 0.002,0.304271 -0.13434,0.340078 -0.0889,0.02357 -0.1633,-0.0078 -0.22186,-0.08985 -7.1e-4,0.09825 -0.0786,0.143051 -0.1275,0.167181 -0.0558,0.02769 -0.073,0.04434 -0.0579,0.100436 l 0.004,0.01655 z m 0.52049,-0.537315 -0.0285,-0.10915 -0.2099,0.05528 0.028,0.105834 c 0.0207,0.07937 0.0724,0.110384 0.13646,0.09342 0.0641,-0.01707 0.0951,-0.0671 0.074,-0.145379 v 0"
         style="fill:#ffffff;fill-opacity:1;fill-rule:nonzero;stroke:none;stroke-width:0.0352778"
         id="path3544" /><path
         d="m 33.310578,25.35321 c -0.003,-0.05129 -0.0186,-0.06174 -0.0592,-0.05955 l -0.0586,0.0029 c -0.0393,0.0019 -0.0489,0.0109 -0.0482,0.03665 l -0.0951,-0.01517 c -0.0124,-0.108303 -0.0579,-0.131022 -0.0662,-0.296263 -0.011,-0.222144 0.0882,-0.414373 0.36933,-0.428554 0.25904,-0.0127 0.39797,0.148801 0.41038,0.390384 0.007,0.144427 -0.0441,0.251354 -0.0679,0.296545 l -0.17089,-0.03415 -0.003,-0.06643 c 0.0786,-0.02579 0.10749,-0.09398 0.10336,-0.172403 -0.007,-0.138359 -0.0889,-0.207962 -0.26183,-0.199249 -0.17403,0.0084 -0.24666,0.07578 -0.24046,0.211667 0.002,0.03334 0.0138,0.07468 0.0276,0.09726 l 0.0927,-0.0048 c 0.0403,-0.0017 0.0561,-0.01242 0.0536,-0.06505 l -9.5e-4,-0.01365 0.10061,0.01598 0.0145,0.291747 -0.0985,0.02561 -7e-4,-0.01348 v 0"
         style="fill:#ffffff;fill-opacity:1;fill-rule:nonzero;stroke:none;stroke-width:0.0352778"
         id="path3546" /><path
         d="m 32.901318,26.205239 0.0882,-0.578521 0.10129,-0.0069 c -0.008,0.04823 0.007,0.06174 0.0482,0.06837 l 0.43642,0.06639 c 0.0429,0.0069 0.059,-0.002 0.0666,-0.05027 l 0.0944,0.03651 -0.0841,0.553261 -0.17777,-0.02741 -0.004,-0.08005 c 0.0586,2.47e-4 0.0748,-0.01323 0.0875,-0.09691 l 0.02,-0.128552 -0.18119,-0.02769 -0.0172,0.116558 c -0.008,0.04978 -0.002,0.06918 0.0372,0.07525 l -0.0324,0.07705 -0.17819,-0.02741 -0.009,-0.08326 c 0.0404,0.0061 0.051,-0.01062 0.0593,-0.06022 l 0.0172,-0.116699 -0.19635,-0.02992 -0.0273,0.178329 c -0.012,0.07772 0.008,0.0955 0.0597,0.113136 l -0.0276,0.07881 -0.18119,-0.04988 v 0"
         style="fill:#ffffff;fill-opacity:1;fill-rule:nonzero;stroke:none;stroke-width:0.0352778"
         id="path3548" /><path
         d="m 33.146608,27.352437 -0.56226,-0.212196 0.0531,-0.14097 0.50987,-0.146085 c 0.0351,-0.01048 0.0971,-0.01707 0.0971,-0.01707 0,0 -0.0579,-0.01531 -0.0827,-0.02455 l -0.24807,-0.0937 c -0.0386,-0.01461 -0.0572,-0.01101 -0.0744,0.03475 l -0.0861,-0.05472 0.0854,-0.22599 0.10062,0.01432 c -0.0172,0.04561 -0.006,0.06188 0.0331,0.07662 l 0.413,0.155998 c 0.0404,0.01513 0.0583,0.0099 0.0755,-0.03598 l 0.0854,0.05553 -0.0772,0.203411 -0.46369,0.133668 c -0.0361,0.0096 -0.0985,0.01584 -0.0985,0.01584 0,0 0.0579,0.01545 0.0861,0.02632 l 0.2118,0.07994 c 0.04,0.01517 0.058,0.0096 0.0748,-0.03598 l 0.0862,0.05457 -0.0862,0.227365 -0.0999,-0.01527 c 0.0172,-0.04618 0.007,-0.06064 -0.0331,-0.07581 v 0"
         style="fill:#ffffff;fill-opacity:1;fill-rule:nonzero;stroke:none;stroke-width:0.0352778"
         id="path3550" /><path
         d="m 32.289458,27.631766 c 0.0792,-0.125659 0.1771,-0.191135 0.22504,-0.217981 l 0.1156,0.122625 -0.0361,0.05789 c -0.0875,-0.02314 -0.16055,0.03253 -0.20256,0.0992 -0.0324,0.05087 -0.0413,0.118534 0.0128,0.152824 0.0458,0.02935 0.0892,0.0071 0.17392,-0.08583 0.0854,-0.09606 0.20257,-0.171027 0.33211,-0.08957 0.12675,0.08033 0.12746,0.238796 0.0358,0.382553 -0.0693,0.110243 -0.15364,0.177341 -0.19844,0.204082 l -0.10887,-0.116311 0.0354,-0.05733 c 0.079,0.01185 0.1403,-0.03916 0.17269,-0.09151 0.0358,-0.05704 0.0358,-0.113559 -0.006,-0.140547 -0.0423,-0.0266 -0.0834,-0.0024 -0.14609,0.0671 -0.11504,0.126788 -0.22253,0.201189 -0.36516,0.111477 -0.13892,-0.08805 -0.12887,-0.257563 -0.04,-0.398674 v 0"
         style="fill:#ffffff;fill-opacity:1;fill-rule:nonzero;stroke:none;stroke-width:0.0352778"
         id="path3552" /><path
         d="m 31.754088,28.344624 0.1881,-0.210679 0.0882,0.05041 c -0.0324,0.03679 -0.0283,0.05556 0.003,0.08326 l 0.33006,0.293511 c 0.0324,0.02812 0.0505,0.02992 0.0834,-0.0065 l 0.0599,0.08142 -0.18782,0.210714 -0.0878,-0.05002 c 0.0331,-0.03722 0.0285,-0.05472 -0.003,-0.0835 l -0.32978,-0.293688 c -0.0317,-0.02755 -0.0505,-0.02974 -0.0834,0.0069 l -0.0606,-0.08188 v 0"
         style="fill:#ffffff;fill-opacity:1;fill-rule:nonzero;stroke:none;stroke-width:0.0352778"
         id="path3554" /><path
         d="m 31.285138,28.758044 c 0.11574,-0.09313 0.22987,-0.122907 0.28293,-0.132291 l 0.0699,0.152964 -0.0536,0.04272 c -0.0746,-0.05002 -0.16164,-0.0211 -0.22299,0.02812 -0.0469,0.03736 -0.0785,0.09867 -0.0379,0.148273 0.0338,0.04343 0.0817,0.03637 0.19293,-0.02413 0.11092,-0.06255 0.24667,-0.09574 0.34312,0.02413 0.093,0.116734 0.042,0.266523 -0.0909,0.373027 -0.10128,0.08132 -0.20324,0.116875 -0.25449,0.127882 l -0.0652,-0.14538 0.0531,-0.04258 c 0.0698,0.03665 0.14467,0.0083 0.19223,-0.0303 0.0523,-0.04191 0.071,-0.09592 0.04,-0.135043 -0.031,-0.03859 -0.0786,-0.02896 -0.16055,0.0164 -0.14951,0.08199 -0.27559,0.117122 -0.38061,-0.01422 -0.10308,-0.128411 -0.0383,-0.284833 0.0922,-0.389573 v 0"
         style="fill:#ffffff;fill-opacity:1;fill-rule:nonzero;stroke:none;stroke-width:0.0352778"
         id="path3556" /><path
         d="m 27.214148,30.42051 -0.3762,-0.107492 0.008,-0.10294 0.0482,0.01422 c 0.0496,0.01432 0.0659,0.0033 0.0772,-0.03665 l 0.10958,-0.383646 c -0.0269,0.01432 -0.0717,0.01997 -0.14884,0.0074 l 0.0317,-0.111231 c 0.082,0.0032 0.13162,-0.0055 0.21636,-0.0817 l 0.15367,0.04353 -0.16676,0.581659 c -0.0113,0.03983 -0.001,0.05832 0.0476,0.07207 l 0.0482,0.01379 -0.0482,0.09095 v 0"
         style="fill:#ffffff;fill-opacity:1;fill-rule:nonzero;stroke:none;stroke-width:0.0352778"
         id="path3558" /><path
         d="m 27.932368,30.549097 c -0.20768,-0.01916 -0.3321,-0.114794 -0.31997,-0.24063 0.0103,-0.108973 0.10266,-0.161783 0.20327,-0.194274 -0.0817,-0.04699 -0.15021,-0.105587 -0.14195,-0.192123 0.01,-0.110631 0.13917,-0.17526 0.3321,-0.157515 0.18468,0.01792 0.30526,0.105727 0.29422,0.216499 -0.008,0.08668 -0.085,0.13134 -0.17431,0.162631 0.0923,0.05027 0.17364,0.119733 0.16355,0.228177 -0.012,0.125835 -0.15572,0.19625 -0.35691,0.177235 z m 0.0335,-0.356517 c -0.0843,0.03034 -0.14605,0.07236 -0.15155,0.134655 -0.006,0.0551 0.0475,0.101001 0.12883,0.108021 0.0779,0.0079 0.14126,-0.02561 0.14746,-0.08033 0.006,-0.06354 -0.0489,-0.116875 -0.12474,-0.162348 z m 0.0296,-0.314043 c -0.0682,-0.0065 -0.11646,0.01778 -0.12097,0.06519 -0.004,0.04861 0.0369,0.09095 0.10237,0.12774 0.0689,-0.02427 0.11783,-0.05789 0.12263,-0.106962 0.005,-0.04738 -0.0393,-0.08004 -0.10403,-0.08597 v 0"
         style="fill:#ffffff;fill-opacity:1;fill-rule:nonzero;stroke:none;stroke-width:0.0352778"
         id="path3560" /><path
         d="m 28.884338,30.55199 c -0.0503,0.0046 -0.14608,-0.0032 -0.17917,-0.02342 l -0.0103,-0.108056 c 0.0366,0.01005 0.0903,0.01475 0.13783,0.01048 0.13434,-0.01309 0.21195,-0.08061 0.22874,-0.214418 -0.0241,0.04078 -0.0951,0.07937 -0.1688,0.08696 -0.18535,0.01722 -0.30043,-0.07994 -0.31489,-0.233575 -0.0152,-0.157797 0.0985,-0.282504 0.29739,-0.301236 0.23111,-0.02247 0.35169,0.116557 0.37095,0.315559 0.0228,0.237984 -0.0813,0.440549 -0.36171,0.467713 z m 0.003,-0.66615 c -0.0917,0.0087 -0.13783,0.07345 -0.12912,0.166864 0.009,0.08615 0.0605,0.139206 0.14728,0.130774 0.079,-0.0073 0.14789,-0.06378 0.13822,-0.16383 -0.006,-0.06586 -0.0496,-0.143862 -0.15638,-0.133808 v 0"
         style="fill:#ffffff;fill-opacity:1;fill-rule:nonzero;stroke:none;stroke-width:0.0352778"
         id="path3562" /><path
         d="m 30.070808,30.313442 -0.37896,0.09976 -0.0455,-0.09151 0.0485,-0.01323 c 0.0496,-0.01323 0.0576,-0.0303 0.0469,-0.07041 l -0.10157,-0.385833 c -0.0165,0.02547 -0.0514,0.05429 -0.12428,0.08241 l -0.0294,-0.111619 c 0.0721,-0.03955 0.11066,-0.07221 0.14358,-0.181504 l 0.15476,-0.0405 0.15434,0.584694 c 0.0108,0.04011 0.0283,0.05112 0.0771,0.03789 l 0.0489,-0.01252 0.006,0.102376 v 0"
         style="fill:#ffffff;fill-opacity:1;fill-rule:nonzero;stroke:none;stroke-width:0.0352778"
         id="path3564" /><path
         d="m 28.051288,24.125649 c -0.0361,-0.440161 -0.46093,-1.026513 -1.06013,-1.125714 -0.6507,-0.108197 -1.59671,0.169087 -1.70628,1.125714 -0.11366,0.989295 0.59327,1.667016 1.50276,1.597413 0.98669,-0.07592 1.31534,-0.975113 1.26365,-1.597413 z m -0.56084,0.682272 c 0.0531,-0.0046 0.16468,0.0223 0.1936,0.0956 0.0317,0.07937 -0.19773,0.3302 -0.29901,0.358987 -0.0627,0.01806 -0.16909,-0.0974 -0.15159,-0.190006 0.0103,-0.06011 0.21357,-0.260456 0.257,-0.264584 z m 0.33443,-0.295592 c -0.0513,0.03443 -0.156,0.03073 -0.19706,-0.03186 -0.0285,-0.04258 -0.0402,-0.371934 -0.0209,-0.419312 0.0193,-0.0484 0.14372,-0.08216 0.20394,-0.04907 0.0689,0.03789 0.0978,0.444429 0.014,0.500239 z m -0.17942,-0.835096 c -0.0117,0.06117 -0.1185,0.09659 -0.16189,0.09162 -0.0538,-0.0059 -0.2963,-0.19484 -0.31009,-0.256999 -0.0193,-0.08142 0.0425,-0.141923 0.0951,-0.155434 0.14054,-0.03471 0.39341,0.233856 0.37687,0.320816 z m -0.77858,-0.457941 c 0.02,0.04438 0.0455,0.117405 -9.5e-4,0.168416 -0.0383,0.0423 -0.39593,0.07317 -0.44761,0.06971 -0.11024,-0.0069 -0.15159,-0.138465 -0.11574,-0.19498 0.0661,-0.102376 0.52599,-0.12513 0.5643,-0.04315 z m 0.3066,0.645901 c 0,0.09384 -0.3507,0.277107 -0.41614,0.238549 -0.0955,-0.05637 -0.30251,-0.371405 -0.26211,-0.421711 0.14153,-0.174978 0.67825,0.03517 0.67825,0.183162 z m -0.92188,-0.08544 c 0.0592,-0.0094 0.245,0.311433 0.20877,0.424145 -0.0303,0.0955 -0.39663,0.250543 -0.43271,0.21403 -0.11025,-0.110243 -0.0551,-0.595453 0.22394,-0.638175 z m -0.0916,0.921915 c 0,-0.07606 0.31901,-0.278801 0.43547,-0.235374 0.0937,0.035 0.26596,0.433388 0.17568,0.474451 -0.21523,0.09867 -0.61115,-0.09839 -0.61115,-0.239077 z m 0.95264,0.08199 c -0.0865,-0.03722 -0.33253,-0.364067 -0.25259,-0.444006 0.0748,-0.07539 0.41684,-0.250507 0.46757,-0.203517 0.19569,0.182033 -0.0452,0.721924 -0.21498,0.647523 z m -1.28129,-0.911437 c -0.0827,0.04135 -0.20327,-0.03637 -0.21223,-0.138359 -0.008,-0.102235 0.24253,-0.340219 0.33002,-0.316406 0.0427,0.01175 0.11854,0.110948 0.11162,0.183303 -0.005,0.05031 -0.18052,0.247368 -0.22941,0.271462 z m -0.0749,0.692891 c -0.0457,0.05496 -0.16768,0.08558 -0.21731,0.04576 -0.0748,-0.06036 -0.0978,-0.305929 -0.0489,-0.41081 0.0331,-0.0707 0.22391,-0.106116 0.2563,-0.02589 0.0214,0.05553 0.0448,0.350555 0.01,0.390948 z m -0.0719,0.429543 c -0.006,-0.07856 0.11465,-0.181928 0.19568,-0.165383 0.0655,0.01379 0.27605,0.235515 0.28526,0.28568 0.0173,0.09147 -0.0703,0.180093 -0.13187,0.184785 -0.0948,0.0065 -0.34216,-0.219111 -0.34907,-0.305082 z m 0.76923,0.441642 c -0.0657,-0.03651 -0.0223,-0.208068 0.073,-0.222673 0.0666,-0.01076 0.30497,-0.03489 0.38354,0 0.0613,0.02618 0.10953,0.182703 0.0753,0.220592 -0.065,0.07183 -0.4378,0.05376 -0.53192,0.0021 v 0"
         style="fill:#ffffff;fill-opacity:1;fill-rule:nonzero;stroke:none;stroke-width:0.0352778"
         id="path3566" /><path
         d="m 16.978618,34.820178 c 0,-0.826806 0.55838,-1.313392 1.29427,-1.313392 0.27933,0 0.44136,0.04547 0.58484,0.08692 l 0.12457,-0.109678 h 0.0565 l 0.0265,0.82684 h -0.0792 c -0.18852,-0.505742 -0.4567,-0.649217 -0.73589,-0.649217 -0.43766,0 -0.86402,0.328542 -0.86402,1.120493 0,0.61916 0.30935,1.180853 0.95112,1.180853 0.18493,0 0.38488,-0.05239 0.38488,-0.112606 0,-0.128553 0.004,-0.472123 -0.008,-0.762318 l -0.0148,-0.01531 -0.37003,-0.01916 v -0.127459 h 1.05682 v 0.127459 l -0.27203,0.01916 -0.0151,0.01531 c -0.008,0.241159 -0.0116,0.512621 -0.008,0.803381 -0.0451,0.0944 -0.40721,0.241582 -0.78881,0.241582 -0.76919,0 -1.32401,-0.479143 -1.32401,-1.312862 v 0"
         style="fill:#ffffff;fill-opacity:1;fill-rule:nonzero;stroke:none;stroke-width:0.0352778"
         id="path3568" /><path
         d="m 19.800418,34.857784 c 0,-0.856721 0.5249,-1.350998 1.19271,-1.350998 0.75089,0 1.18456,0.528884 1.18456,1.275362 0,0.85658 -0.5242,1.350892 -1.19215,1.350892 -0.75074,0 -1.18512,-0.528214 -1.18512,-1.275256 z m 1.96991,-0.03761 c 0,-0.762459 -0.29792,-1.143776 -0.7772,-1.143776 -0.47943,0 -0.78479,0.381317 -0.78479,1.143776 0,0.761929 0.29778,1.142823 0.7772,1.142823 0.47929,0 0.78479,-0.380894 0.78479,-1.142823 z m -1.33586,-1.747344 c 0,-0.120438 0.0757,-0.215124 0.2038,-0.215124 0.12114,0 0.19625,0.07952 0.19625,0.199955 0,0.121144 -0.0791,0.215406 -0.20754,0.215406 -0.11684,0 -0.19251,-0.07952 -0.19251,-0.200237 z m 0.70598,0 c 0,-0.120438 0.0752,-0.215124 0.20338,-0.215124 0.121,0 0.19667,0.07952 0.19667,0.199955 0,0.121144 -0.0797,0.215406 -0.20768,0.215406 -0.11712,0 -0.19237,-0.07952 -0.19237,-0.200237 v 0"
         style="fill:#ffffff;fill-opacity:1;fill-rule:nonzero;stroke:none;stroke-width:0.0352778"
         id="path3570" /><path
         d="m 22.962758,35.966705 0.40361,-0.01873 0.0149,-0.01475 c 0.004,-0.140159 0.0117,-0.626745 0.0117,-1.135909 0,-0.5092 0,-0.928547 -0.0117,-1.060274 l -0.0117,-0.01873 h -0.44856 c -0.0788,0 -0.17346,0.135713 -0.32808,0.59256 h -0.0751 l 0.0298,-0.82684 h 0.0679 l 0.10943,0.06406 h 1.69415 l 0.10929,-0.06406 h 0.0682 l 0.0303,0.82684 h -0.0758 c -0.15822,-0.460833 -0.24874,-0.59256 -0.32797,-0.59256 h -0.44912 l -0.0117,0.01873 c -0.003,0.09081 -0.011,0.599863 -0.011,1.109733 0,0.509305 0.008,0.950278 0.011,1.08645 l 0.0154,0.01475 0.41466,0.01873 v 0.128976 h -1.22964 v -0.128976 0"
         style="fill:#ffffff;fill-opacity:1;fill-rule:nonzero;stroke:none;stroke-width:0.0352778"
         id="path3572" /><path
         d="m 25.078858,35.966705 0.37003,-0.01873 0.0154,-0.01475 c 0.003,-0.173779 0.0112,-0.626745 0.0112,-1.135909 0,-0.5092 -0.008,-0.935708 -0.0112,-1.08645 l -0.0154,-0.01517 -0.37003,-0.0193 V 33.54809 h 1.65643 l 0.14743,-0.06406 h 0.0565 l 0.0269,0.82684 h -0.0754 c -0.13642,-0.381458 -0.25743,-0.569842 -0.32082,-0.573828 l -0.71381,-0.03803 -0.011,0.0193 c -0.003,0.173072 -0.011,0.573934 -0.011,0.996173 0.16948,0 0.5395,-0.01157 0.63733,-0.01873 l 0.0152,-0.01559 0.13571,-0.263878 h 0.0717 c -0.003,0.10541 -0.007,0.2679 -0.007,0.369994 0,0.09786 0.003,0.309104 0.007,0.421957 h -0.0717 l -0.13571,-0.312384 -0.0152,-0.01559 c -0.1167,-0.0036 -0.45269,-0.01062 -0.63733,-0.01062 0,0.478755 0.008,0.863353 0.011,1.055723 l 0.011,0.01873 0.77033,-0.04092 c 0.0641,-0.0041 0.23357,-0.159138 0.36999,-0.603991 h 0.0868 c -0.0496,0.735471 -0.0606,0.796502 -0.12471,0.796502 h -1.87967 v -0.128976 0"
         style="fill:#ffffff;fill-opacity:1;fill-rule:nonzero;stroke:none;stroke-width:0.0352778"
         id="path3574" /><path
         d="m 27.535498,35.966705 0.36974,-0.01873 0.0151,-0.01475 c 0.004,-0.132292 0.011,-0.626745 0.011,-1.135909 0,-0.5092 -0.007,-0.92068 -0.011,-1.08645 l -0.0151,-0.01517 -0.36974,-0.0193 V 33.54809 c 0.27947,0 0.60057,-0.0073 0.82268,-0.0073 0.27534,0 0.48686,0.02318 0.65704,0.07553 0.29768,0.09454 0.4789,0.286631 0.4789,0.562257 0,0.324097 -0.21541,0.517172 -0.46027,0.57725 v 0.0077 c 0.39963,0.01859 0.63733,0.252871 0.63733,0.558235 0,0.513045 -0.46027,0.781191 -1.192,0.781191 -0.24529,0 -0.64146,-0.0073 -0.94368,-0.0073 z m 0.99261,-1.260086 c 0.44468,0 0.5588,-0.211103 0.5588,-0.502003 0,-0.199672 -0.0717,-0.350591 -0.22712,-0.429966 -0.0977,-0.05278 -0.23728,-0.08266 -0.44496,-0.08266 -0.0183,0 -0.0604,0 -0.0978,0.0037 l -0.0152,0.01834 c -0.004,0.196638 -0.0153,0.565961 -0.0114,0.992576 z m 0.73586,0.664209 c 0,-0.358281 -0.24571,-0.497875 -0.57782,-0.497875 h -0.39574 c -0.004,0.479002 0.008,0.860037 0.0114,1.060274 l 0.0182,0.01475 c 0.0724,0.0046 0.14015,0.0046 0.18534,0.0046 0.50987,0 0.75862,-0.211949 0.75862,-0.581696 v 0"
         style="fill:#ffffff;fill-opacity:1;fill-rule:nonzero;stroke:none;stroke-width:0.0352778"
         id="path3576" /><path
         d="m 30.199678,34.857784 c 0,-0.856721 0.52433,-1.350998 1.192,-1.350998 0.75103,0 1.18441,0.528884 1.18441,1.275362 0,0.85658 -0.52366,1.350892 -1.192,1.350892 -0.7506,0 -1.18441,-0.528214 -1.18441,-1.275256 z m 1.9692,-0.03761 c 0,-0.762459 -0.29764,-1.143776 -0.7772,-1.143776 -0.47886,0 -0.78479,0.381317 -0.78479,1.143776 0,0.761929 0.29834,1.142823 0.7772,1.142823 0.47886,0 0.78479,-0.380894 0.78479,-1.142823 v 0"
         style="fill:#ffffff;fill-opacity:1;fill-rule:nonzero;stroke:none;stroke-width:0.0352778"
         id="path3578" /><path
         d="m 32.954088,35.966705 0.37716,-0.01873 0.0156,-0.01475 c 0.003,-0.10982 0.0106,-0.626745 0.0106,-1.135909 0,-0.5092 -0.008,-0.916976 -0.0106,-1.08645 l -0.0156,-0.01517 -0.37716,-0.0193 V 33.54809 c 0.33927,0 0.70168,-0.0073 0.89419,-0.0073 0.2981,0 0.47145,0.01891 0.61158,0.06064 0.36173,0.109432 0.52024,0.343147 0.52024,0.599864 0,0.37345 -0.25263,0.550792 -0.56226,0.648793 v 0.0077 c 0.0978,0.113136 0.26804,0.422663 0.48715,0.807543 0.0937,0.166335 0.18464,0.290231 0.30868,0.297674 l 0.0829,0.0037 v 0.128976 h -0.56596 l -0.0145,-0.01556 c -0.1403,-0.283068 -0.2384,-0.513044 -0.4761,-0.936095 -0.0485,-0.08629 -0.0937,-0.157939 -0.15064,-0.222427 -0.13533,0.01944 -0.26416,0.0266 -0.3737,0.0266 -0.003,0.449227 0.008,0.871608 0.0117,0.985026 l 0.0151,0.01475 0.34685,0.01873 v 0.128976 h -1.13535 z m 1.6188,-1.762089 c 0,-0.207257 -0.0907,-0.361597 -0.26046,-0.440972 -0.0944,-0.04533 -0.21153,-0.07165 -0.44926,-0.07165 h -0.124 l -0.0117,0.01101 c -0.003,0.162595 -0.008,0.656378 -0.0117,1.09788 0.65663,-0.01873 0.85715,-0.229729 0.85715,-0.596265 v 0"
         style="fill:#ffffff;fill-opacity:1;fill-rule:nonzero;stroke:none;stroke-width:0.0352778"
         id="path3580" /><path
         d="m 35.580208,34.820178 c 0,-0.826806 0.55813,-1.313392 1.29399,-1.313392 0.27975,0 0.44164,0.04547 0.58455,0.08692 l 0.12446,-0.109678 h 0.0572 l 0.0262,0.82684 h -0.0792 c -0.18881,-0.505742 -0.45682,-0.649217 -0.7359,-0.649217 -0.43818,0 -0.86402,0.328542 -0.86402,1.120493 0,0.61916 0.30938,1.180853 0.95084,1.180853 0.18535,0 0.38516,-0.05239 0.38516,-0.112606 0,-0.128553 0.004,-0.472123 -0.008,-0.762318 l -0.0158,-0.01531 -0.36904,-0.01916 v -0.127459 h 1.056 v 0.127459 l -0.27146,0.01916 -0.0152,0.01531 c -0.008,0.241159 -0.0113,0.512621 -0.008,0.803381 -0.0451,0.0944 -0.40722,0.241582 -0.78825,0.241582 -0.77004,0 -1.32429,-0.479143 -1.32429,-1.312862 v 0"
         style="fill:#ffffff;fill-opacity:1;fill-rule:nonzero;stroke:none;stroke-width:0.0352778"
         id="path3582" /><path
         d="m 38.383128,35.299179 h 0.0868 c 0.13229,0.479143 0.34728,0.679521 0.61119,0.679521 0.30977,0 0.50571,-0.20768 0.50571,-0.479284 0,-0.656625 -1.15824,-0.490573 -1.15824,-1.320835 0,-0.350732 0.27562,-0.671795 0.75448,-0.671795 0.24529,0 0.44168,0.07535 0.48302,0.08692 l 0.113,-0.109678 h 0.0717 l 0.0227,0.82684 h -0.0792 c -0.15846,-0.460833 -0.36586,-0.649217 -0.62244,-0.649217 -0.22295,0 -0.41493,0.147038 -0.41493,0.396064 0,0.630167 1.17796,0.532201 1.17796,1.328279 0,0.381317 -0.28734,0.747042 -0.87645,0.747042 -0.16192,0 -0.35415,-0.03736 -0.52063,-0.147179 l -0.0747,0.147179 h -0.0799 v -0.833861 0"
         style="fill:#ffffff;fill-opacity:1;fill-rule:nonzero;stroke:none;stroke-width:0.0352778"
         id="path3584" /><path
         d="m 15.603348,39.633513 c 0,-0.143298 0.004,-0.229553 0.004,-0.603003 0,-0.298909 -0.004,-0.536081 -0.008,-0.87563 l -0.015,-0.01513 -0.3623,-0.0193 v -0.128164 h 1.07943 v 0.128164 l -0.30579,0.0193 -0.015,0.01513 c -0.004,0.283069 -0.008,0.893657 -0.008,1.46364 0,0.475262 0.10943,0.79636 0.61115,0.79636 0.52451,0 0.67553,-0.305787 0.67553,-0.868045 0,-0.490149 -0.008,-1.022067 -0.015,-1.391955 l -0.0152,-0.01513 -0.34723,-0.0193 v -0.128164 h 1.0003 v 0.128164 l -0.37,0.0193 -0.0149,0.01513 c -0.0114,0.40379 -0.0114,0.958286 -0.008,1.425857 0.003,0.649217 -0.30205,0.996351 -0.93553,0.996351 -0.6229,0 -0.95113,-0.321381 -0.95113,-0.943575 v 0"
         style="fill:#ffffff;fill-opacity:1;fill-rule:nonzero;stroke:none;stroke-width:0.0352778"
         id="path3586" /><path
         d="m 18.221878,40.411282 0.36961,-0.01916 0.0154,-0.01513 c 0.011,-0.403931 0.011,-0.701992 0.011,-1.079147 0,-0.377437 0,-0.584835 -0.011,-1.142965 l -0.0154,-0.01513 -0.36961,-0.0193 v -0.128164 h 0.72073 c 0.46027,0.645054 0.98474,1.399822 1.36204,1.939466 h 0.007 c -0.007,-0.724464 -0.015,-1.406983 -0.0224,-1.776871 l -0.0152,-0.01513 -0.34714,-0.0193 v -0.128164 h 1.00006 v 0.128164 l -0.37014,0.0193 -0.0149,0.01513 c -0.0115,0.40379 -0.0115,0.701428 -0.0115,1.648284 v 0.755156 h -0.18493 c -0.46771,-0.663787 -1.02647,-1.445154 -1.50163,-2.124357 h -0.007 c 0.004,0.883179 0.0152,1.565451 0.0225,1.943029 l 0.0148,0.01513 0.34784,0.01916 v 0.128164 h -1.00034 v -0.128164 0"
         style="fill:#ffffff;fill-opacity:1;fill-rule:nonzero;stroke:none;stroke-width:0.0352778"
         id="path3588" /><path
         d="m 21.379948,40.411282 0.36957,-0.01916 0.0153,-0.01513 c 0.008,-0.117158 0.0114,-0.626745 0.0114,-1.13605 0,-0.509341 -0.004,-0.957898 -0.0114,-1.086062 l -0.0153,-0.01513 -0.36957,-0.0193 v -0.128164 h 1.14709 v 0.128164 l -0.36601,0.0193 -0.0152,0.01513 c -0.007,0.101565 -0.0113,0.626181 -0.0113,1.135521 0,0.509164 0.007,0.958427 0.0113,1.086591 l 0.0152,0.01513 0.36601,0.01916 v 0.128164 h -1.14709 v -0.128164 0"
         style="fill:#ffffff;fill-opacity:1;fill-rule:nonzero;stroke:none;stroke-width:0.0352778"
         id="path3590" /><path
         d="m 23.074088,38.13202 -0.22641,-0.01157 v -0.128164 h 0.98863 v 0.128164 l -0.33585,0.01527 -0.0154,0.01503 c 0.21167,0.547087 0.46052,1.207734 0.70983,1.84478 h 0.008 c 0.18465,-0.513044 0.50575,-1.425716 0.63045,-1.848767 l -0.0117,-0.01104 -0.30593,-0.01527 v -0.128164 h 0.83439 v 0.128164 l -0.21911,0.01157 c -0.19635,0.498299 -0.64904,1.671144 -0.94738,2.445068 h -0.1023 c -0.38873,-0.943575 -0.72415,-1.765688 -1.00722,-2.445068 v 0"
         style="fill:#ffffff;fill-opacity:1;fill-rule:nonzero;stroke:none;stroke-width:0.0352778"
         id="path3592" /><path
         d="m 25.632158,40.411282 0.36974,-0.01916 0.015,-0.01513 c 0.004,-0.173637 0.0115,-0.626745 0.0115,-1.13605 0,-0.509341 -0.008,-0.935144 -0.0115,-1.086062 l -0.015,-0.01513 -0.36974,-0.0193 v -0.128164 h 1.65639 l 0.14676,-0.06382 h 0.0572 l 0.0262,0.825994 h -0.0754 c -0.13642,-0.381141 -0.25647,-0.569665 -0.32082,-0.573652 l -0.71314,-0.03778 -0.011,0.01891 c -0.004,0.173602 -0.0117,0.573652 -0.0117,0.99575 0.17018,0 0.53951,-0.01101 0.63733,-0.01873 l 0.0152,-0.0146 0.13575,-0.264301 h 0.0723 c -0.004,0.105833 -0.008,0.267864 -0.008,0.369711 0,0.09839 0.004,0.309633 0.008,0.423051 h -0.0723 l -0.13575,-0.313232 -0.0152,-0.01542 c -0.11645,-0.0038 -0.45268,-0.01157 -0.63733,-0.01157 0,0.480095 0.008,0.864835 0.0117,1.057345 l 0.011,0.01806 0.76966,-0.04135 c 0.0645,-0.0034 0.23357,-0.158044 0.36999,-0.603567 h 0.0868 c -0.0489,0.73533 -0.0606,0.79636 -0.12471,0.79636 h -1.87896 v -0.128164 0"
         style="fill:#ffffff;fill-opacity:1;fill-rule:nonzero;stroke:none;stroke-width:0.0352778"
         id="path3594" /><path
         d="m 28.088088,40.411282 0.37758,-0.01916 0.0153,-0.01513 c 0.004,-0.109432 0.0109,-0.626745 0.0109,-1.13605 0,-0.509341 -0.007,-0.916976 -0.0109,-1.086062 l -0.0153,-0.01513 -0.37758,-0.0193 v -0.128164 c 0.34011,0 0.70252,-0.0076 0.8945,-0.0076 0.29792,0 0.47223,0.01916 0.61144,0.0605 0.36241,0.109679 0.52087,0.343147 0.52087,0.600005 0,0.37345 -0.25311,0.551215 -0.56222,0.648899 v 0.0074 c 0.0981,0.113418 0.26776,0.422945 0.48645,0.807544 0.0944,0.165911 0.18535,0.290759 0.3091,0.297638 l 0.0836,0.0046 v 0.128164 h -0.56596 l -0.0156,-0.01556 c -0.13917,-0.283069 -0.237,-0.512763 -0.47473,-0.935708 -0.0489,-0.08625 -0.0951,-0.158045 -0.15159,-0.222673 -0.13572,0.01915 -0.26388,0.0266 -0.37342,0.0266 -0.003,0.448804 0.008,0.871749 0.011,0.984885 l 0.0158,0.01513 0.34657,0.01916 v 0.128164 h -1.13591 z m 1.61936,-1.76209 c 0,-0.20768 -0.0907,-0.362691 -0.26018,-0.441783 -0.0951,-0.04547 -0.21156,-0.07169 -0.44926,-0.07169 h -0.12471 l -0.0117,0.01104 c -0.003,0.162066 -0.007,0.65719 -0.011,1.098691 0.65663,-0.01926 0.85687,-0.23054 0.85687,-0.596265 v 0"
         style="fill:#ffffff;fill-opacity:1;fill-rule:nonzero;stroke:none;stroke-width:0.0352778"
         id="path3596" /><path
         d="m 30.846668,39.743086 h 0.0868 c 0.13163,0.479001 0.34661,0.679661 0.61119,0.679661 0.30935,0 0.50504,-0.20768 0.50504,-0.479425 0,-0.656519 -1.15754,-0.490714 -1.15754,-1.320729 0,-0.350555 0.27492,-0.671654 0.75445,-0.671654 0.24529,0 0.44168,0.07511 0.48303,0.08682 l 0.11299,-0.109291 h 0.0716 l 0.0228,0.825994 h -0.079 c -0.15875,-0.460234 -0.36615,-0.64904 -0.62287,-0.64904 -0.22281,0 -0.41507,0.14732 -0.41507,0.39631 0,0.630202 1.17753,0.531954 1.17753,1.328173 0,0.380753 -0.28688,0.747184 -0.87531,0.747184 -0.16235,0 -0.35525,-0.03764 -0.52105,-0.147038 l -0.0754,0.147038 h -0.0792 v -0.834002 0"
         style="fill:#ffffff;fill-opacity:1;fill-rule:nonzero;stroke:none;stroke-width:0.0352778"
         id="path3598" /><path
         d="m 32.944288,40.411282 0.37041,-0.01916 0.0145,-0.01513 c 0.008,-0.117158 0.0117,-0.626745 0.0117,-1.13605 0,-0.509341 -0.004,-0.957898 -0.0117,-1.086062 l -0.0145,-0.01513 -0.37041,-0.0193 v -0.128164 h 1.14765 v 0.128164 l -0.36657,0.0193 -0.0152,0.01513 c -0.008,0.101565 -0.011,0.626181 -0.011,1.135521 0,0.509164 0.008,0.958427 0.011,1.086591 l 0.0152,0.01513 0.36657,0.01916 v 0.128164 h -1.14765 v -0.128164 0"
         style="fill:#ffffff;fill-opacity:1;fill-rule:nonzero;stroke:none;stroke-width:0.0352778"
         id="path3600" /><path
         d="m 34.989728,40.411282 0.40336,-0.01916 0.0149,-0.01513 c 0.004,-0.139876 0.0117,-0.626745 0.0117,-1.13605 0,-0.509341 0,-0.928264 -0.0117,-1.060133 l -0.011,-0.01887 h -0.44898 c -0.0795,0 -0.17364,0.135854 -0.32823,0.592525 h -0.0754 l 0.0299,-0.825994 h 0.0678 l 0.10929,0.06382 h 1.69457 l 0.10929,-0.06382 h 0.0682 l 0.0296,0.825994 h -0.0751 c -0.15847,-0.460234 -0.24871,-0.592525 -0.32794,-0.592525 h -0.44927 l -0.0117,0.01887 c -0.004,0.09123 -0.0113,0.600252 -0.0113,1.109592 0,0.509164 0.007,0.950419 0.0113,1.086591 l 0.0152,0.01513 0.41547,0.01916 v 0.128164 h -1.22989 v -0.128164 0"
         style="fill:#ffffff;fill-opacity:1;fill-rule:nonzero;stroke:none;stroke-width:0.0352778"
         id="path3602" /><path
         d="m 37.105968,40.411282 0.36975,-0.01916 0.0151,-0.01513 c 0.004,-0.173637 0.0117,-0.626745 0.0117,-1.13605 0,-0.509341 -0.008,-0.935144 -0.0117,-1.086062 l -0.0151,-0.01513 -0.36975,-0.0193 v -0.128164 h 1.65682 l 0.14718,-0.06382 h 0.0565 l 0.0262,0.825994 h -0.0755 c -0.13575,-0.381141 -0.25633,-0.569665 -0.32039,-0.573652 l -0.71314,-0.03778 -0.011,0.01891 c -0.004,0.173602 -0.0117,0.573652 -0.0117,0.99575 0.16976,0 0.5395,-0.01101 0.63733,-0.01873 l 0.0158,-0.0146 0.13504,-0.264301 h 0.0717 c -0.003,0.105833 -0.007,0.267864 -0.007,0.369711 0,0.09839 0.003,0.309633 0.007,0.423051 h -0.0717 l -0.13504,-0.313232 -0.0158,-0.01542 c -0.11645,-0.0038 -0.45226,-0.01157 -0.63733,-0.01157 0,0.480095 0.008,0.864835 0.0117,1.057345 l 0.011,0.01806 0.76965,-0.04135 c 0.0641,-0.0034 0.23425,-0.158044 0.36957,-0.603567 h 0.0868 c -0.0492,0.73533 -0.0606,0.79636 -0.12428,0.79636 h -1.87939 v -0.128164 0"
         style="fill:#ffffff;fill-opacity:1;fill-rule:nonzero;stroke:none;stroke-width:0.0352778"
         id="path3604" /><path
         d="m 40.007848,40.411282 0.40308,-0.01916 0.0152,-0.01513 c 0.004,-0.139876 0.0117,-0.626745 0.0117,-1.13605 0,-0.509341 0,-0.928264 -0.0117,-1.060133 l -0.0103,-0.01887 h -0.44927 c -0.0792,0 -0.17363,0.135854 -0.32893,0.592525 h -0.0755 l 0.03,-0.825994 h 0.0688 l 0.10858,0.06382 h 1.69432 l 0.10954,-0.06382 h 0.0682 l 0.0303,0.825994 h -0.0751 c -0.15918,-0.460234 -0.25012,-0.592525 -0.32865,-0.592525 h -0.44926 l -0.0114,0.01887 c -0.004,0.09123 -0.0113,0.600252 -0.0113,1.109592 0,0.509164 0.008,0.950419 0.0113,1.086591 l 0.0156,0.01513 0.41476,0.01916 v 0.128164 h -1.22989 v -0.128164 0"
         style="fill:#ffffff;fill-opacity:1;fill-rule:nonzero;stroke:none;stroke-width:0.0352778"
         id="path3606" /></g><text
       xml:space="preserve"
       transform="matrix(0.15253784,0,0,0.15253784,7.3028683,13.827683)"
       id="text1141-1-4"
       style="font-size:10.6667px;font-family:'Open Sans';-inkscape-font-specification:'Open Sans, Normal';white-space:pre;shape-inside:url(#rect1143-4-5);display:inline;fill:#f0bca9"
       inkscape:export-filename="../logotyper/sprakbanken_text_slogan_en.svg"
       inkscape:export-xdpi="171.03999"
       inkscape:export-ydpi="171.03999"><tspan
         x="34.40625"
         y="231.45085"
         id="tspan5541"><tspan
           style="font-weight:300;font-size:50.6667px;font-family:'Jost*';-inkscape-font-specification:'Jost*, Light';fill:#1a1a1a"
           id="tspan5537">SPRÅKBANKEN</tspan><tspan
           style="font-weight:300;font-size:50.6667px;font-family:'Jost*';-inkscape-font-specification:'Jost*, Light';fill:#f0581a"
           id="tspan5539">TEXT</tspan></tspan></text><rect
       style="fill:none;fill-opacity:1;stroke:#1a1a1a;stroke-width:0.228569;stroke-linecap:round;stroke-linejoin:bevel;stroke-dasharray:0.685709, 0.685709;stroke-dashoffset:0"
       id="rect2064-6"
       width="110.93144"
       height="30.323835"
       x="10.697618"
       y="56.29435" /><rect
       style="fill:none;fill-opacity:1;stroke:#1a1a1a;stroke-width:0.150413;stroke-linecap:round;stroke-linejoin:bevel;stroke-dasharray:0.60165203,0.15041301;stroke-dashoffset:0"
       id="rect2064-4-5"
       width="69.609093"
       height="12.082628"
       x="10.5367"
       y="40.478561" /><g
       id="g4088"
       transform="matrix(1.1616738,0,0,1.1616738,-0.06086926,-8.4374877)"><text
         xml:space="preserve"
         transform="matrix(0.26458333,0,0,0.26458333,3.7901567,9.5882119)"
         id="text1141-8"
         style="font-size:10.6667px;font-family:'Open Sans';-inkscape-font-specification:'Open Sans, Normal';white-space:pre;shape-inside:url(#rect1143-6);display:inline;fill:#000000;fill-opacity:1"
         inkscape:export-filename="../logotyper/sprakbanken_text_slogan_sv.svg"
         inkscape:export-xdpi="171.03999"
         inkscape:export-ydpi="171.03999"><tspan
           x="34.40625"
           y="231.45085"
           id="tspan5545"><tspan
             style="font-weight:300;font-size:50.6667px;font-family:'Jost*';-inkscape-font-specification:'Jost*, Light';fill:#f0581a"
             id="tspan5543">SPRÅKBANKEN</tspan></tspan></text><text
         xml:space="preserve"
         transform="matrix(0.26458333,0,0,0.26458333,1.8432557,11.294998)"
         id="text4672-7"
         style="font-style:normal;font-variant:normal;font-weight:500;font-stretch:normal;font-size:12px;line-height:1.1;font-family:'Jost*';-inkscape-font-specification:'Jost*, Medium';font-variant-ligatures:normal;font-variant-caps:normal;font-variant-numeric:normal;font-variant-east-asian:normal;white-space:pre;shape-inside:url(#rect4674-1);display:inline;fill:#f0581a"><tspan
           x="42.638672"
           y="245.73922"
           id="tspan5549"><tspan
             style="font-size:16.6667px;fill:#000000"
             id="tspan5547">En forskningsinfrastruktur för språkliga data</tspan></tspan></text></g><rect
       style="fill:none;fill-opacity:1;stroke:#1a1a1a;stroke-width:0.136505;stroke-linecap:round;stroke-linejoin:bevel;stroke-dasharray:0.409517, 0.409517;stroke-dashoffset:0"
       id="rect2064-6-7"
       width="69.682686"
       height="17.2178"
       x="10.485399"
       y="91.095421" /><text
       xml:space="preserve"
       transform="matrix(0.20101144,0,0,0.20101144,5.4162309,56.482614)"
       id="text1141-8-5"
       style="font-size:10.6667px;font-family:'Open Sans';-inkscape-font-specification:'Open Sans, Normal';white-space:pre;shape-inside:url(#rect1143-6-9);display:inline;fill:#000000;fill-opacity:1"
       inkscape:export-filename="../logotyper/sprakbanken_text_slogan_sv.svg"
       inkscape:export-xdpi="171.03999"
       inkscape:export-ydpi="171.03999"><tspan
         x="34.40625"
         y="231.45085"
         id="tspan5553"><tspan
           style="font-weight:300;font-size:50.6667px;font-family:'Jost*';-inkscape-font-specification:'Jost*, Light';fill:#f0581a"
           id="tspan5551">SPRÅKBANKEN</tspan></tspan></text></g></svg>
