<?xml version="1.0" encoding="utf-8"?>
<!-- Created with Inkscape (http://www.inkscape.org/)  -->
<svg version="1.1"
	 id="svg1" xmlns:inkscape="http://www.inkscape.org/namespaces/inkscape" xmlns:sodipodi="http://sodipodi.sourceforge.net/DTD/sodipodi-0.dtd" xmlns:svg="http://www.w3.org/2000/svg" inkscape:version="1.3.2 (091e20ef0f, 2023-11-25)" sodipodi:docname="sweclarin_txtright.svg"
	 xmlns="http://www.w3.org/2000/svg" xmlns:xlink="http://www.w3.org/1999/xlink" x="0px" y="0px" viewBox="298 207.3 1208 378.7"
	 style="enable-background:new 298 207.3 1208 378.7;" xml:space="preserve">
<style type="text/css">
	.st0{clip-path:url(#SVGID_2_);}
	.st1{clip-path:url(#SVGID_4_);}
	.st2{clip-path:url(#SVGID_6_);}
	.st3{clip-path:url(#SVGID_8_);}
	.st4{clip-path:url(#SVGID_10_);}
	.st5{clip-path:url(#SVGID_12_);}
	.st6{clip-path:url(#SVGID_14_);}
	.st7{clip-path:url(#SVGID_16_);}
	.st8{clip-path:url(#SVGID_18_);}
	.st9{clip-path:url(#SVGID_20_);}
	.st10{clip-path:url(#SVGID_22_);fill:url(#path45_1_);}
	.st11{clip-path:url(#SVGID_24_);fill:url(#path46_1_);}
	.st12{clip-path:url(#SVGID_26_);fill:url(#path47_1_);}
	.st13{fill:url(#path48_1_);}
	.st14{fill:url(#path49_1_);}
	.st15{fill:url(#path50_1_);}
	.st16{fill:url(#path51_1_);}
	.st17{fill:url(#path52_1_);}
	.st18{clip-path:url(#SVGID_28_);fill:#00406F;}
	.st19{fill:url(#path54_1_);}
	.st20{clip-path:url(#SVGID_30_);fill:#00406F;}
	.st21{clip-path:url(#SVGID_32_);fill:#00406F;}
	.st22{clip-path:url(#SVGID_34_);fill:#00406F;}
	.st23{clip-path:url(#SVGID_36_);fill:#00406F;}
	.st24{clip-path:url(#SVGID_38_);fill:#00406F;}
	.st25{clip-path:url(#SVGID_40_);fill:#00406F;}
	.st26{clip-path:url(#SVGID_42_);fill:#006AA7;}
	.st27{clip-path:url(#SVGID_44_);fill:#FECC00;stroke:#FECC00;stroke-width:5.669290e-002;}
	.st28{clip-path:url(#SVGID_46_);fill:url(#path73_1_);}
</style>
<sodipodi:namedview  inkscape:cy="188.53107" inkscape:cx="604.10167" inkscape:zoom="0.62323946" borderopacity="1.0" bordercolor="#666666" pagecolor="#ffffff" id="namedview1" inkscape:window-x="0" inkscape:window-height="1083" inkscape:window-width="2048" inkscape:pagecheckerboard="0" inkscape:pageopacity="0.0" inkscape:current-layer="g1" inkscape:showpageshadow="2" inkscape:window-maximized="1" inkscape:window-y="32" inkscape:deskcolor="#d1d1d1">
	<inkscape:page  width="1208" height="378.66666" bleed="0" margin="0" inkscape:label="1" y="0" x="0" id="page1"></inkscape:page>
</sodipodi:namedview>
<g>
	<g>
		<g>
			<defs>
				<rect id="SVGID_1_" x="-16.8" y="-431.4" width="2925.9" height="2062.7"/>
			</defs>
			<clipPath id="SVGID_2_">
				<use xlink:href="#SVGID_1_"  style="overflow:visible;"/>
			</clipPath>
			<path id="path62" class="st0" d="M692.5,456.1l1.5,0.4c0.7-0.7,1.5-1.6,2.5-1.6c2.8,0,12,5.7,32.5,5.7
				c26.8,0,34.8-11.7,34.8-22.3c0-28.4-51-14.9-51-25.9c0-2.8,3.7-5.8,14.4-5.8c11.6,0,25.7,3.5,25.7,6.5v1.4l1.5,0.7l8.5-17.1
				l-1.4-0.5c-0.9,1-1.7,1.9-3.3,1.9c-3.3,0-15.5-5.2-32.4-5.2c-18.1,0-30,8.5-30,20.8c0,23.8,50.8,13.7,50.8,22.8
				c0,5.4-5.6,8.4-17.9,8.4c-12.8,0-26-5.6-26-8.9c0-1.1,0-2,0.2-2.6l-1.2-0.6L692.5,456.1z"/>
		</g>
		<g>
			<defs>
				<rect id="SVGID_3_" x="-16.8" y="-431.4" width="2925.9" height="2062.7"/>
			</defs>
			<clipPath id="SVGID_4_">
				<use xlink:href="#SVGID_3_"  style="overflow:visible;"/>
			</clipPath>
			<path id="path63" class="st1" d="M818,459.9v-1.5c-1.6,0-2.7-0.7-2.7-1.7c0-2.2,9-28.9,13.1-43.2h0.3
				c4.6,16.5,11.8,39.2,11.8,43.2c0,1-0.7,1.5-2.5,1.7v1.5h25.6v-1.5c-1.1-0.1-2.5-0.3-2.5-1.7c0-1.5,19-55.7,19.4-57.8
				c0.3-1.2,0.9-2.2,2.1-2.3V395h-20.7v1.5c1.2,0.4,2.6,0.6,2.6,2.1c0,1.6-10.6,31.9-12.1,37.9h-0.3c-1.7-8.2-10.3-37.4-10.3-38.1
				c0-1.2,1-1.5,2.1-1.8V395h-29.3v1.5c1,0.3,2.6,0.5,2.6,1.8c0,1.2-8.5,28.9-11.5,38.1h-0.3c-3.1-10-12.1-36.8-12.1-38.1
				s1.1-1.6,2.6-1.8V395h-22.6v1.5c0.4,0,1,0.4,1.2,1.4c0.6,2.2,19.2,57.6,19.2,58.5c0,1.6-1.1,1.8-2.5,2.1v1.5H818z"/>
		</g>
		<g>
			<defs>
				<rect id="SVGID_5_" x="-16.8" y="-431.4" width="2925.9" height="2062.7"/>
			</defs>
			<clipPath id="SVGID_6_">
				<use xlink:href="#SVGID_5_"  style="overflow:visible;"/>
			</clipPath>
			<path id="path64" class="st2" d="M946.2,416.9h-1.5c-0.4,1.6-1.2,2.8-3.7,2.8h-22.9v-10.2h39.6c1.4,0,1.9,0.6,2.2,3.4h1.5v-21.4
				h-1.5c-0.4,2.8-0.9,3.5-2.2,3.5h-61.5v1.5c3.1,0.3,3.5,1.1,3.5,2.2v57.5c0,1.1-0.4,2-3.5,2.2v1.5h61.5c1.4,0,1.9,0.6,2.2,2.7h1.5
				v-21.5h-1.5c-0.4,3.1-0.9,3.7-2.2,3.7h-39.6v-11.5h22.9c2.5,0,3.3,1.2,3.7,2.8h1.5V416.9z"/>
		</g>
		<g>
			<defs>
				<rect id="SVGID_7_" x="-16.8" y="-431.4" width="2925.9" height="2062.7"/>
			</defs>
			<clipPath id="SVGID_8_">
				<use xlink:href="#SVGID_7_"  style="overflow:visible;"/>
			</clipPath>
			<path id="path65" class="st3" d="M972.8,425.4h32.3V440h-32.3V425.4z"/>
		</g>
		<g>
			<defs>
				<rect id="SVGID_9_" x="-16.8" y="-431.4" width="2925.9" height="2062.7"/>
			</defs>
			<clipPath id="SVGID_10_">
				<use xlink:href="#SVGID_9_"  style="overflow:visible;"/>
			</clipPath>
			<path id="path66" class="st4" d="M1091.1,398.6l-1.4-0.4c-0.5,0.6-1.1,1-1.9,1c-1.2,0-3.7-1-8.5-2.3c-4.9-1.4-12-2.6-21.8-2.6
				c-19.7,0-40.7,11.1-40.7,33.2s21,33.2,40.7,33.2c18.4,0,29.9-6.7,32.3-6.7c0.9,0,1.4,0.1,1.7,1l1.5-0.9l-12.7-19.3l-1.4,0.9
				c0.3,0.6,0.7,1.1,0.7,1.9c0,3.6-16.4,6.9-20.7,6.9c-10,0-22.9-4.3-22.9-16.9s12.9-16.9,22.9-16.9c10.5,0,20,3.2,20,5.7
				c0,0.9-0.1,1.4-0.3,1.8l1.2,0.9L1091.1,398.6z"/>
		</g>
		<g>
			<defs>
				<rect id="SVGID_11_" x="-16.8" y="-431.4" width="2925.9" height="2062.7"/>
			</defs>
			<clipPath id="SVGID_12_">
				<use xlink:href="#SVGID_11_"  style="overflow:visible;"/>
			</clipPath>
			<path id="path67" class="st5" d="M1130.8,398.7c0-1.1,0.4-2,3.5-2.2V395h-25.4v1.5c3.1,0.3,3.5,1.1,3.5,2.2v57.5
				c0,1.1-0.4,2-3.5,2.2v1.5h64.4c1.4,0,1.9,0.6,2.2,3.2h1.5v-21.7h-1.5c-0.4,2.8-0.9,3.5-2.2,3.5h-42.4V398.7z"/>
		</g>
		<g>
			<defs>
				<rect id="SVGID_13_" x="-16.8" y="-431.4" width="2925.9" height="2062.7"/>
			</defs>
			<clipPath id="SVGID_14_">
				<use xlink:href="#SVGID_13_"  style="overflow:visible;"/>
			</clipPath>
			<path id="path68" class="st6" d="M1223.9,406.6l12,29.3h-22.9L1223.9,406.6z M1239.1,445.8c0.5,1.6,4.2,10.6,4.2,11.1
				c0,0.7-0.6,1.3-2.3,1.5v1.5h24.3v-1.5c-1.5,0-2.2-0.7-3.5-3.7c-7.6-18.7-22.8-55.6-22.8-56.6c0-1.2,0.9-1.5,2.2-1.6V395H1209v1.5
				c1.1,0.1,2.5,0.4,2.5,1.2c0,0.7-20.8,55-22,57.8c-0.7,2-1.5,2.5-3.2,2.8v1.5h21.8v-1.5c-1.7,0-2.2-0.5-2.2-1.2s0.7-2.3,3.9-11.3
				H1239.1z"/>
		</g>
		<g>
			<defs>
				<rect id="SVGID_15_" x="-16.8" y="-431.4" width="2925.9" height="2062.7"/>
			</defs>
			<clipPath id="SVGID_16_">
				<use xlink:href="#SVGID_15_"  style="overflow:visible;"/>
			</clipPath>
			<path id="path69" class="st7" d="M1302.3,435.4h12.1c1.6,2.6,14.7,19.6,14.7,20.7c0,1.5-1,2.1-2.7,2.2v1.5h25.6v-1.5
				c-1.4,0-2.5-0.6-3.6-2.2l-14.6-20.5c10.2-2.9,17.6-8.9,17.6-20.2c0-14.1-7.8-20.5-26-20.5h-45.1v1.5c3.1,0.3,3.5,1.1,3.5,2.2
				v57.5c0,1.1-0.4,2-3.5,2.2v1.5h25.4v-1.5c-3.1-0.3-3.5-1.1-3.5-2.2V435.4z M1302.3,408.8h20.7c7.3,0,9.5,3.2,9.5,6.8
				c0,3.6-2.2,6.8-9.5,6.8h-20.7V408.8z"/>
		</g>
		<g>
			<defs>
				<rect id="SVGID_17_" x="-16.8" y="-431.4" width="2925.9" height="2062.7"/>
			</defs>
			<clipPath id="SVGID_18_">
				<use xlink:href="#SVGID_17_"  style="overflow:visible;"/>
			</clipPath>
			<path id="path70" class="st8" d="M1396.2,459.9v-1.5c-3.1-0.3-3.4-1.1-3.4-2.2v-57.5c0-1.1,0.4-2,3.4-2.2V395h-25.4v1.5
				c3.1,0.3,3.4,1.1,3.4,2.2v57.5c0,1.1-0.4,2-3.4,2.2v1.5H1396.2z"/>
		</g>
		<g>
			<defs>
				<rect id="SVGID_19_" x="-16.8" y="-431.4" width="2925.9" height="2062.7"/>
			</defs>
			<clipPath id="SVGID_20_">
				<use xlink:href="#SVGID_19_"  style="overflow:visible;"/>
			</clipPath>
			<path id="path71" class="st9" d="M1420.9,456.1c0,1.1-0.4,2-3.5,2.2v1.5h23.4v-1.5c-3.1-0.3-3.5-1.1-3.5-2.2v-38.7
				c32.5,36.4,35.6,38,35.6,39.6c0,0.9-0.6,1.4-2.8,1.4v1.5h23.4v-1.5c-3.1-0.3-3.4-1.1-3.4-2.2v-57.5c0-1.1,0.4-2,3.4-2.2V395
				h-22.6v1.5c1.6,0.1,2.6,0.7,2.6,2.2v32.9c-8.6-9.5-30-32.2-30-33.5c0-0.7,0.6-1.5,3.5-1.6V395h-29.7v1.5c3.1,0.3,3.5,1.1,3.5,2.2
				V456.1z"/>
		</g>
	</g>
	<g>
		<g>
			<defs>
				<rect id="SVGID_21_" x="-1081.1" y="-332.5" width="2610" height="1839.9"/>
			</defs>
			<clipPath id="SVGID_22_">
				<use xlink:href="#SVGID_21_"  style="overflow:visible;"/>
			</clipPath>
			
				<linearGradient id="path45_1_" gradientUnits="userSpaceOnUse" x1="-295.7486" y1="-11.3824" x2="-343.5168" y2="118.0473" gradientTransform="matrix(0.5333 0 0 -0.5333 631.77 332.3217)">
				<stop  offset="0" style="stop-color:#00386D"/>
				<stop  offset="1" style="stop-color:#00386D;stop-opacity:0"/>
			</linearGradient>
			<path id="path45" class="st10" d="M463.3,168.7c-77.7,0-140.6,63-140.6,140.6c0,77.7,63,140.6,140.6,140.6
				C541,450,604,387,604,309.4C604,231.7,541,168.7,463.3,168.7z M463.3,171.9c75.9,0,137.5,61.6,137.5,137.5
				c0,75.9-61.6,137.5-137.5,137.5c-76,0-137.5-61.6-137.5-137.5C325.8,233.4,387.4,171.9,463.3,171.9z"/>
		</g>
		<g>
			<defs>
				<rect id="SVGID_23_" x="-1081.1" y="-332.5" width="2610" height="1839.9"/>
			</defs>
			<clipPath id="SVGID_24_">
				<use xlink:href="#SVGID_23_"  style="overflow:visible;"/>
			</clipPath>
			
				<linearGradient id="path46_1_" gradientUnits="userSpaceOnUse" x1="-307.2588" y1="-200.005" x2="-310.9659" y2="-353.8598" gradientTransform="matrix(0.5333 0 0 -0.5333 631.77 332.3217)">
				<stop  offset="0" style="stop-color:#002957"/>
				<stop  offset="1" style="stop-color:#002957;stop-opacity:0"/>
			</linearGradient>
			<path id="path46" class="st11" d="M466.3,364.1c-77.7,0-140.6,63-140.6,140.6c0,77.7,63,140.6,140.6,140.6
				c77.7,0,140.6-63,140.6-140.6C606.9,427,544,364.1,466.3,364.1z M466.3,367.2c75.9,0,137.5,61.6,137.5,137.5
				c0,75.9-61.6,137.5-137.5,137.5c-75.9,0-137.5-61.6-137.5-137.5S390.4,367.2,466.3,367.2z"/>
		</g>
		<g>
			<defs>
				<rect id="SVGID_25_" x="-1081.1" y="-332.5" width="2610" height="1839.9"/>
			</defs>
			<clipPath id="SVGID_26_">
				<use xlink:href="#SVGID_25_"  style="overflow:visible;"/>
			</clipPath>
			
				<linearGradient id="path47_1_" gradientUnits="userSpaceOnUse" x1="-214.4605" y1="-91.3765" x2="-92.1179" y2="-293.4269" gradientTransform="matrix(0.5333 0 0 -0.5333 631.77 332.3217)">
				<stop  offset="0" style="stop-color:#00447F"/>
				<stop  offset="1" style="stop-color:#00447F;stop-opacity:0"/>
			</linearGradient>
			<path id="path47" class="st12" d="M548.5,291.7c-77.7,0-140.6,63-140.6,140.6c0,77.7,63,140.6,140.6,140.6
				c77.7,0,140.6-63,140.6-140.6C689.1,354.7,626.1,291.7,548.5,291.7z M548.5,294.8c75.9,0,137.5,61.6,137.5,137.5
				c0,76-61.6,137.5-137.5,137.5c-75.9,0-137.5-61.6-137.5-137.5C410.9,356.4,472.5,294.8,548.5,294.8z"/>
		</g>
		
			<linearGradient id="path48_1_" gradientUnits="userSpaceOnUse" x1="-271.2001" y1="-98.7524" x2="-247.0331" y2="-121.6908" gradientTransform="matrix(0.6034 0 0 -0.6034 750.4622 234.6871)">
			<stop  offset="0" style="stop-color:#0B7DC1"/>
			<stop  offset="1" style="stop-color:#002F5E"/>
		</linearGradient>
		<path id="path48" class="st13" d="M626.1,309.4c0,12.9-10.4,23.3-23.3,23.3c-12.9,0-23.3-10.4-23.3-23.3
			c0-12.9,10.4-23.3,23.3-23.3C615.6,286,626.1,296.5,626.1,309.4z"/>
		
			<linearGradient id="path49_1_" gradientUnits="userSpaceOnUse" x1="-270.9682" y1="-97.52" x2="-246.8011" y2="-120.4584" gradientTransform="matrix(0.6034 0 0 -0.6034 740.3127 288.6926)">
			<stop  offset="0" style="stop-color:#0B7DC1"/>
			<stop  offset="1" style="stop-color:#002F5E"/>
		</linearGradient>
		<path id="path49" class="st14" d="M616,362.6c0,12.9-10.4,23.3-23.3,23.3c-12.9,0-23.3-10.4-23.3-23.3c0-12.9,10.4-23.3,23.3-23.3
			C605.6,339.3,616,349.7,616,362.6z"/>
		
			<linearGradient id="path50_1_" gradientUnits="userSpaceOnUse" x1="-270.2677" y1="-96.4707" x2="-246.1006" y2="-119.4091" gradientTransform="matrix(0.6034 0 0 -0.6034 709.6135 334.679)">
			<stop  offset="0" style="stop-color:#0B7DC1"/>
			<stop  offset="1" style="stop-color:#002F5E"/>
		</linearGradient>
		<path id="path50" class="st15" d="M585.8,408c0,12.9-10.4,23.3-23.3,23.3c-12.9,0-23.3-10.4-23.3-23.3c0-12.9,10.4-23.3,23.3-23.3
			C575.3,384.6,585.8,395.1,585.8,408z"/>
		
			<linearGradient id="path51_1_" gradientUnits="userSpaceOnUse" x1="-269.2444" y1="-95.7648" x2="-245.0774" y2="-118.7032" gradientTransform="matrix(0.6034 0 0 -0.6034 664.7549 365.6288)">
			<stop  offset="0" style="stop-color:#0B7DC1"/>
			<stop  offset="1" style="stop-color:#002F5E"/>
		</linearGradient>
		<path id="path51" class="st16" d="M541.5,438.5c0,12.9-10.4,23.3-23.3,23.3c-12.9,0-23.3-10.4-23.3-23.3
			c0-12.9,10.4-23.3,23.3-23.3C531.1,415.2,541.5,425.6,541.5,438.5z"/>
		
			<linearGradient id="path52_1_" gradientUnits="userSpaceOnUse" x1="-267.9931" y1="-95.5282" x2="-243.826" y2="-118.4666" gradientTransform="matrix(0.6034 0 0 -0.6034 609.8723 376.0289)">
			<stop  offset="0" style="stop-color:#0B7DC1"/>
			<stop  offset="1" style="stop-color:#002F5E"/>
		</linearGradient>
		<path id="path52" class="st17" d="M487.4,448.8c0,12.9-10.4,23.3-23.3,23.3c-12.9,0-23.3-10.4-23.3-23.3
			c0-12.9,10.4-23.3,23.3-23.3C477,425.4,487.4,435.9,487.4,448.8z"/>
		<g>
			<defs>
				<rect id="SVGID_27_" x="-1081.1" y="-332.5" width="2610" height="1839.9"/>
			</defs>
			<clipPath id="SVGID_28_">
				<use xlink:href="#SVGID_27_"  style="overflow:visible;"/>
			</clipPath>
			<path id="path53" class="st18" d="M431.1,438.9c0,11.3-9.2,20.4-20.4,20.4c-11.3,0-20.4-9.2-20.4-20.4c0-11.3,9.2-20.4,20.4-20.4
				C422,418.4,431.1,427.6,431.1,438.9z"/>
		</g>
		
			<linearGradient id="path54_1_" gradientUnits="userSpaceOnUse" x1="-265.7119" y1="-96.4688" x2="-241.5448" y2="-119.4072" gradientTransform="matrix(0.6034 0 0 -0.6034 509.9034 334.7706)">
			<stop  offset="0" style="stop-color:#0B7DC1"/>
			<stop  offset="1" style="stop-color:#002F5E"/>
		</linearGradient>
		<path id="path54" class="st19" d="M388.8,408.1c0,12.9-10.4,23.3-23.3,23.3c-12.9,0-23.3-10.4-23.3-23.3
			c0-12.9,10.4-23.3,23.3-23.3C378.4,384.7,388.8,395.2,388.8,408.1z"/>
		<g>
			<defs>
				<rect id="SVGID_29_" x="-1081.1" y="-332.5" width="2610" height="1839.9"/>
			</defs>
			<clipPath id="SVGID_30_">
				<use xlink:href="#SVGID_29_"  style="overflow:visible;"/>
			</clipPath>
			<path id="path55" class="st20" d="M385.9,408.1c0,11.3-9.2,20.4-20.4,20.4c-11.3,0-20.4-9.2-20.4-20.4c0-11.3,9.2-20.4,20.4-20.4
				C376.8,387.6,385.9,396.8,385.9,408.1z"/>
		</g>
		<g>
			<defs>
				<rect id="SVGID_31_" x="-1081.1" y="-332.5" width="2610" height="1839.9"/>
			</defs>
			<clipPath id="SVGID_32_">
				<use xlink:href="#SVGID_31_"  style="overflow:visible;"/>
			</clipPath>
			<path id="path56" class="st21" d="M484.5,448.8c0,11.3-9.2,20.4-20.4,20.4c-11.3,0-20.4-9.2-20.4-20.4c0-11.3,9.2-20.4,20.4-20.4
				C475.4,428.3,484.5,437.5,484.5,448.8z"/>
		</g>
		<g>
			<defs>
				<rect id="SVGID_33_" x="-1081.1" y="-332.5" width="2610" height="1839.9"/>
			</defs>
			<clipPath id="SVGID_34_">
				<use xlink:href="#SVGID_33_"  style="overflow:visible;"/>
			</clipPath>
			<path id="path57" class="st22" d="M538.6,438.5c0,11.3-9.2,20.4-20.4,20.4c-11.3,0-20.4-9.2-20.4-20.4c0-11.3,9.2-20.4,20.4-20.4
				C529.5,418.1,538.6,427.2,538.6,438.5z"/>
		</g>
		<g>
			<defs>
				<rect id="SVGID_35_" x="-1081.1" y="-332.5" width="2610" height="1839.9"/>
			</defs>
			<clipPath id="SVGID_36_">
				<use xlink:href="#SVGID_35_"  style="overflow:visible;"/>
			</clipPath>
			<path id="path58" class="st23" d="M582.9,408c0,11.3-9.2,20.4-20.4,20.4c-11.3,0-20.4-9.2-20.4-20.4c0-11.3,9.2-20.4,20.4-20.4
				C573.7,387.5,582.9,396.7,582.9,408z"/>
		</g>
		<g>
			<defs>
				<rect id="SVGID_37_" x="-1081.1" y="-332.5" width="2610" height="1839.9"/>
			</defs>
			<clipPath id="SVGID_38_">
				<use xlink:href="#SVGID_37_"  style="overflow:visible;"/>
			</clipPath>
			<path id="path59" class="st24" d="M613.2,362.6c0,11.3-9.2,20.4-20.4,20.4c-11.3,0-20.4-9.2-20.4-20.4c0-11.3,9.2-20.4,20.4-20.4
				C604,342.2,613.2,351.3,613.2,362.6z"/>
		</g>
		<g>
			<defs>
				<rect id="SVGID_39_" x="-1081.1" y="-332.5" width="2610" height="1839.9"/>
			</defs>
			<clipPath id="SVGID_40_">
				<use xlink:href="#SVGID_39_"  style="overflow:visible;"/>
			</clipPath>
			<path id="path60" class="st25" d="M623.2,309.4c0,11.3-9.2,20.4-20.4,20.4c-11.3,0-20.4-9.2-20.4-20.4c0-11.3,9.2-20.4,20.4-20.4
				C614,288.9,623.2,298.1,623.2,309.4z"/>
		</g>
		<g>
			<defs>
				<rect id="SVGID_41_" x="-1081.1" y="-332.5" width="2610" height="1839.9"/>
			</defs>
			<clipPath id="SVGID_42_">
				<use xlink:href="#SVGID_41_"  style="overflow:visible;"/>
			</clipPath>
			<path id="path61" class="st26" d="M434,438.8c0,12.9-10.4,23.3-23.3,23.3c-12.9,0-23.3-10.4-23.3-23.3
				c0-12.9,10.4-23.3,23.3-23.3C423.5,415.5,434,426,434,438.8z"/>
		</g>
		<g>
			<defs>
				<rect id="SVGID_43_" x="-1081.1" y="-332.5" width="2610" height="1839.9"/>
			</defs>
			<clipPath id="SVGID_44_">
				<use xlink:href="#SVGID_43_"  style="overflow:visible;"/>
			</clipPath>
			<path id="path72" class="st27" d="M410,415.5c-1.8,0-4,0.4-5.2,0.7c-1.3,0.4-2.9,0.9-4.1,1.5v16.3l-12.9,0.1
				c-0.3,1.5-0.5,3.1-0.5,4.7c0,1.6,0.2,3.2,0.5,4.7l12.9,0V460c1.5,0.7,2.8,1.2,4.4,1.6c1.8,0.4,3.7,0.6,5,0.7l0-18.6l23.5,0
				c0.3-1.5,0.5-3.1,0.5-4.7c0-1.6-0.2-3.2-0.5-4.7l-23.5-0.1L410,415.5z"/>
		</g>
		<g>
			<defs>
				<rect id="SVGID_45_" x="-1081.1" y="-332.5" width="2610" height="1839.9"/>
			</defs>
			<clipPath id="SVGID_46_">
				<use xlink:href="#SVGID_45_"  style="overflow:visible;"/>
			</clipPath>
			
				<linearGradient id="path73_1_" gradientUnits="userSpaceOnUse" x1="308.4424" y1="-362.6822" x2="280.7666" y2="-332.4337" gradientTransform="matrix(0.5333 0 0 -0.5333 246.3103 245.5981)">
				<stop  offset="0" style="stop-color:#000000;stop-opacity:0.3922"/>
				<stop  offset="1" style="stop-color:#FFFFFF;stop-opacity:0.3922"/>
			</linearGradient>
			<path id="path73" class="st28" d="M410.6,415.5c-12.9,0-23.3,10.4-23.3,23.3c0,12.9,10.5,23.3,23.3,23.3c11.3,0,20.7-8,22.9-18.7
				c0.3-1.5,0.5-3,0.5-4.6C434,425.9,423.5,415.5,410.6,415.5z M410.6,418.4c11.3,0,20.4,9.1,20.4,20.4c0,11.3-9.2,20.4-20.4,20.4
				c-11.3,0-20.4-9.2-20.4-20.4C390.2,427.5,399.3,418.4,410.6,418.4z"/>
		</g>
	</g>
</g>
</svg>
