<?xml version="1.0" encoding="UTF-8" standalone="no"?>
<svg role="img" aria-label="Göteborgs universitet" viewBox="0 0 332.3 339.6" width="332.3" height="339.6" version="1.1" id="svg347" sodipodi:docname="gu-sv.svg" inkscape:version="1.2.2 (b0a8486541, 2022-12-01)" xmlns:inkscape="http://www.inkscape.org/namespaces/inkscape" xmlns:sodipodi="http://sodipodi.sourceforge.net/DTD/sodipodi-0.dtd" xmlns="http://www.w3.org/2000/svg" xmlns:svg="http://www.w3.org/2000/svg">
  <defs id="defs351"/>
  <sodipodi:namedview id="namedview349" pagecolor="#ffffff" bordercolor="#000000" borderopacity="0.25" inkscape:showpageshadow="2" inkscape:pageopacity="0.0" inkscape:pagecheckerboard="0" inkscape:deskcolor="#d1d1d1" showgrid="false" inkscape:zoom="0.69493521" inkscape:cx="66.193222" inkscape:cy="170.51949" inkscape:window-width="1536" inkscape:window-height="909" inkscape:window-x="0" inkscape:window-y="27" inkscape:window-maximized="1" inkscape:current-layer="logo-sv"/>
  <g id="logo-sv">
    <style id="style331">.bfst0{fill:#074f8c}.bfst1{fill:#fff}</style>
    <g id="bfPage-1_1_" style="fill:#000000">
      <g id="bfMobile_1_" style="fill:#000000">
        <path id="bfRectangle_1_" class="bfst0" d="M0 0h332.3v328.7c0 6-4.8 10.9-10.6 10.9h-311c-5.8 0-10.6-4.9-10.6-10.9V0z" fill="#074f8c" style="fill:#000000"/>
      </g>
    </g>
    <path class="bfst1" d="M58.5 216.3c0-7.9 5.3-12.5 12.2-12.5 2.7 0 4.3.5 5.6.8l1.1-1.1h.5l.3 7.9h-.8c-1.9-4.9-4.3-6.2-6.9-6.2-4 0-8.2 3.3-8.2 10.9 0 6 2.9 11.4 9 11.4 1.9 0 3.7-.5 3.7-1.1V219l-.5-.3-3.5-.3V217h9.8v1.4l-2.7.3-.3.3v7.6c-.5.8-3.7 2.4-7.4 2.4-6.9-.2-11.9-4.9-11.9-12.7zm26.3.2c0-8.2 5.1-13 11.2-13 7.2 0 11.2 5.2 11.2 12.2 0 8.2-5.1 13-11.2 13-6.9.1-11.2-5.1-11.2-12.2zm18.6-.2c0-7.3-2.9-10.9-7.2-10.9-4.5 0-7.4 3.5-7.4 10.9 0 7.3 2.9 10.9 7.2 10.9 4.5-.1 7.4-3.6 7.4-10.9zm-12.5-16.9c0-1.1.8-2.2 1.9-2.2 1.1 0 1.9.8 1.9 1.9s-.8 2.2-1.9 2.2c-1.4 0-1.9-.8-1.9-1.9zm6.7 0c0-1.1.8-2.2 1.9-2.2s1.9.8 1.9 1.9-.8 2.2-1.9 2.2c-1.4 0-1.9-.8-1.9-1.9zm17 27.7l3.7-.3.3-.3V205.3h-4.3c-.8 0-1.6 1.4-3.2 5.7h-.8l.3-7.9h.5l1.1.5h16l1.1-.5h.5l.3 7.9h-.8c-1.6-4.3-2.4-5.7-3.2-5.7h-3.7v21.2l.3.3 4 .3v1.4h-11.4v-1.4h-.7zm19.9 0l3.5-.3.3-.3V205.3l-.3-.3-3.5-.3v-1.4h15.7l1.3-.5h.5l.3 7.9h-.8c-1.3-3.5-2.4-5.4-2.9-5.4l-6.6-.3v9.8c1.6 0 5.1 0 6.1-.3l.3-.3 1.3-2.4h.8v7.6h-1.6l-1.3-3-.3-.3h-6.1v10.3l7.2-.3c.5 0 2.1-1.6 3.5-5.7h.8c-.5 7.1-.5 7.6-1.1 7.6H134v-1.1l.5.2zm23.1 0l3.5-.3.3-.3V205.3l-.3-.3-3.5-.3v-1.4h7.7c2.7 0 4.5.3 6.1.8 2.9.8 4.5 2.7 4.5 5.4 0 3-2.1 4.9-4.3 5.4 3.7.3 6.1 2.4 6.1 5.4 0 4.9-4.3 7.6-11.2 7.6h-8.8v-1.1l-.1.3zm9.3-11.9c4.3 0 5.3-1.9 5.3-4.9 0-1.9-.8-3.3-2.1-4.1-.8-.5-2.1-.8-4.3-.8h-.8l-.3.3c0 1.9-.3 5.4 0 9.5h2.2zm7 6.2c0-3.5-2.4-4.9-5.3-4.9h-3.7v10.1l.3.3h1.9c4.4.2 6.8-1.9 6.8-5.5zm8.7-4.9c0-8.2 5.1-13 11.2-13 7.2 0 11.2 5.2 11.2 12.2 0 8.2-5.1 13-11.2 13-7.2.1-11.2-5.1-11.2-12.2zm18.6-.2c0-7.3-2.9-10.9-7.2-10.9-4.5 0-7.4 3.5-7.4 10.9 0 7.3 2.9 10.9 7.2 10.9 4.5-.1 7.4-3.6 7.4-10.9zm7.2 10.8l3.5-.3.3-.3V205.3l-.3-.3-3.5-.3v-1.4h8.5c2.9 0 4.5.3 5.8.5 3.5 1.1 4.8 3.3 4.8 5.7 0 3.5-2.4 5.2-5.3 6.2.8 1.1 2.4 4.1 4.5 7.9.8 1.6 1.9 2.7 2.9 3h.8v1.4h-5.3c-1.3-2.7-2.1-4.9-4.5-9-.5-.8-.8-1.6-1.3-2.2-1.3.3-2.7.3-3.7.3v9.5l.3.3 3.2.3v1.4h-10.6c-.1.2-.1-1.5-.1-1.5zm15.4-16.8c0-1.9-.8-3.5-2.4-4.3-.8-.5-1.9-.8-4.3-.8H216v10.6c5.7-.1 7.8-2 7.8-5.5zm9.3 6c0-7.9 5.3-12.5 12.2-12.5 2.7 0 4.3.5 5.6.8l1.1-1.1h.5l.3 7.9h-.8c-1.9-4.9-4.3-6.2-6.9-6.2-4 0-8.2 3.3-8.2 10.9 0 6 2.9 11.4 9 11.4 1.9 0 3.7-.5 3.7-1.1V219l-.3-.3-3.5-.3V217h9.8v1.4l-2.7.3-.3.3v7.6c-.5.8-3.7 2.4-7.4 2.4-6.7-.2-12.1-4.9-12.1-12.7zm26.4 4.6h.8c1.3 4.6 3.2 6.5 5.8 6.5 2.9 0 4.8-1.9 4.8-4.6 0-6.2-10.9-4.6-10.9-12.8 0-3.3 2.7-6.5 7.2-6.5 2.4 0 4.3.8 4.5.8l1.1-1.1h.8l.3 7.9h-.9c-1.6-4.3-3.5-6.2-5.8-6.2-2.1 0-4 1.4-4 3.8 0 6 11.2 5.2 11.2 12.8 0 3.5-2.7 7.1-8.2 7.1-1.6 0-3.5-.3-4.8-1.4l-.8 1.4h-.8V221h-.3zm-214 41.5V248.3l-.3-.3-3.5-.3v-1.4h10.1v1.4l-2.9.3-.3.3v14.1c0 4.6 1.1 7.6 5.8 7.6 5.1 0 6.4-3 6.4-8.4 0-4.6 0-9.8-.3-13.3l-.3-.3-3.2-.3v-1.4h9.3v1.4l-3.3.3-.3.3v13.6c0 6.2-2.9 9.5-8.8 9.5-5.3 0-8.4-3-8.4-9zm24.7 7.4l3.5-.3.3-.3V248l-.3-.3-3.5-.3V246h6.6c4.3 6.2 9.3 13.3 12.8 18.7 0-7.1-.3-13.6-.3-17.1l-.3-.3-3.2-.3v-1.4h9.3v1.4l-3.5.3-.3.3v23.1h-1.9c-4.5-6.2-9.6-13.9-14.1-20.4 0 8.4.3 14.9.3 18.7l.3.3 3.2.3v1.4h-9.3v-1.4h.4zm29.5 0l3.5-.3.3-.3V248l-.3-.3-3.5-.3V246h10.9v1.4l-3.5.3-.3.3v21.2l.3.3 3.5.3v1.4H99.7v-1.4zm15.9-21.8h-2.1v-1.4h9.3v1.4h-3.2c1.9 5.2 4.3 11.7 6.6 17.7 1.9-4.9 4.8-13.6 5.8-17.7l-2.9-.3v-1.4h7.7v1.4h-2.1c-1.9 4.9-6.1 16-8.8 23.4h-1.1c-3.3-8.7-6.5-16.5-9.2-23.1zm24 21.8l3.5-.3.3-.3V248l-.3-.3-3.5-.3V246h15.7l1.3-.5h.5l.3 7.9h-.5c-1.3-3.5-2.4-5.4-2.9-5.4l-6.6-.3v9.8c1.6 0 5.1 0 6.1-.3l.3-.3 1.3-2.4h.8v7.6h-1.6l-1.3-3-.3-.3h-6.1v10.3l7.2-.3c.5 0 2.1-1.6 3.5-5.7h.8c-.5 7.1-.5 7.6-1.1 7.6h-17.5v-1.1h.1zm23.1 0l3.5-.3.3-.3V248l-.3-.3-3.5-.3V246h8.5c2.9 0 4.5.3 5.8.5 3.5 1.1 4.8 3.3 4.8 5.7 0 3.5-2.4 5.2-5.3 6.2.8 1.1 2.4 4.1 4.5 7.9.8 1.6 1.9 2.7 2.9 3h.8v1.4h-5.3l-.3-.3c-1.3-2.7-2.1-4.9-4.5-9-.5-.8-.8-1.6-1.3-2.2-1.3.3-2.4.3-3.5.3v9.5l.3.3 3.2.3v1.4h-10.6v-1.2zm15.4-16.9c0-1.9-.8-3.5-2.4-4.3-.8-.5-1.9-.8-4.3-.8h-1.3v10.6c5.9.2 8-1.9 8-5.5zm10.6 10.6h.8c1.3 4.6 3.2 6.5 5.8 6.5 2.9 0 4.8-1.9 4.8-4.6 0-6.2-10.9-4.6-10.9-12.8 0-3.3 2.7-6.5 7.2-6.5 2.4 0 4.3.8 4.5.8l1.1-1.1h.8l.3 7.9H202c-1.6-4.3-3.5-6.2-5.8-6.2-2.1 0-4 1.4-4 3.8 0 6 11.2 5.2 11.2 12.8 0 3.5-2.7 7.1-8.2 7.1-1.6 0-3.5-.3-4.8-1.4l-.8 1.4h-.8v-7.7zm19.7 6.3l3.5-.3.3-.3V248l-.3-.3-3.5-.3V246h10.9v1.4l-3.5.3-.3.3v21.2l.3.3 3.5.3v1.4h-10.9v-1.4zm19.2 0l3.7-.3.3-.3V248h-4.3c-.8 0-1.6 1.4-3.2 5.7h-.8l.3-7.9h.5l1.1.5h16l1.1-.5h.5l.3 7.9h-.8c-1.6-4.3-2.4-5.7-3.2-5.7h-4.3v21.2l.3.3 4 .3v1.4h-11.4c-.1-.1-.1-1.4-.1-1.4zm19.9 0l3.5-.3.3-.3V248l-.3-.3-3.5-.3V246h15.7l1.3-.5h.5l.3 7.9h-.8c-1.3-3.5-2.4-5.4-2.9-5.4l-6.6-.3v9.8c1.6 0 5.1 0 6.1-.3l.3-.3 1.3-2.4h.8v7.6h-.8l-1.3-3-.8.3h-6.1v10.3l7.2-.3c.5 0 2.1-1.6 3.5-5.7h.8c-.5 7.1-.5 7.6-1.1 7.6h-17.5v-1.6h.1zm27.4 0l3.7-.3.3-.3V248h-4.3c-.8 0-1.6 1.4-3.2 5.7h-.8l.3-7.9h.5l1.1.5h16l1.1-.5h.5l.3 7.9h-.5c-1.6-4.3-2.4-5.7-3.2-5.7h-4.3v21.2l.3.3 4 .3v1.4h-11.4v-1.4h-.4zM138 94.3c-7.7 7.6-12.2 17.9-12.5 29.1-.5 22.8 17.3 41.8 39.6 42.4 10.9.3 21-3.8 29-11.4 7.7-7.6 12.2-17.9 12.5-29.1.5-22.8-17.3-41.8-39.6-42.4-11-.6-21.1 3.5-29 11.4zm27.4 67.9c-20.7-.5-37-17.9-36.7-39.1.3-10.3 4.3-19.8 11.4-26.9 7.2-7.1 16.7-10.9 26.6-10.6 20.7.5 37 17.9 36.7 39.1-.3 10.3-4.3 19.8-11.4 26.9-7.2 7.1-16.8 10.9-26.6 10.6z" fill="#ffffff" id="path336"/>
    <path class="bfst1" d="M128.1 83.7c-10.6 10.3-16.5 24.2-16.7 39.1-.8 31 23.4 56.5 53.4 57.3 30.3.5 55.3-23.9 55.8-54.6.3-14.9-5.1-29.1-15.2-39.9-10.1-10.9-23.7-16.8-38.3-17.1-14.5-.6-28.3 4.9-39 15.2zm36.7 93.7c-28.7-.5-51.8-25-51-54.6.3-14.1 6.1-27.4 16.2-37.5 10.1-9.8 23.4-15.2 37.2-14.9 13.8.3 26.8 6.2 36.7 16.6 9.6 10.3 14.9 23.9 14.6 38-.8 29.6-24.7 53.2-53.7 52.4z" fill="#ffffff" id="path338"/>
    <path class="bfst1" d="M177 157.3c-20.2 3.8-36.7-4.3-39.6-14.4-1.9-6.5.8-7.9 1.3-12.5-3.5 1.9-4.3-3-1.1-3.5s4.8 3 3.2 7.9c-2.4 6.8 1.9 9.8 2.9 9.5 0-.3.5-1.1.5-1.6-2.7-3.5-1.6-9 3.2-9.2 1.9-.3 1.9 1.4.3 1.4-3.7.5-3.5 4.6-1.9 5.2.3 0 .5 0 .8-.3 0-.8.5-2.2 1.3-1.9 2.1.5 1.3 3.3-.3 3.5-.5 1.6-1.6 4.1-1.3 5.2.3 1.1 1.1 1.4 1.6.8s.8-1.6 1.1-3c-.3-1.6.3-2.7 1.6-2.2.8.3 1.1 1.6 0 2.7 0 1.4-.8 2.7-.5 3.8 0 1.1 1.6.8 1.9.3.5-.5 1.1-4.1 1.1-4.9-.8-.8-.5-2.7 1.1-3 1.9-.3 1.3 2.4.8 3 .5 1.9-.3 4.1 0 5.2.3.8 1.9 1.1 2.4.3s-.3-2.2.3-4.1c-.5-1.6 0-2.7 1.1-2.7 2.1-.3 1.3 1.6 1.1 3 0 1.4.3 3 .8 4.1.3.8 1.6 1.1 2.1 0 .3-.5-.3-2.4-.5-3.8-.8-2.2-.3-2.7.5-2.7s1.9.3 1.6 2.4c.5 1.4.8 3 1.3 4.1.3.8 1.3 1.1 1.6 0 .3-.8-.3-1.9-1.1-3.5-1.3-1.4-.3-2.4.8-2.7.8 0 2.1.3 1.9 2.4.5 1.4.8 2.7 1.1 3.3.3.8 1.6.8 1.9.3.5-.5-.5-1.6-.8-2.7-1.1-1.1-.8-2.4.3-2.7.5 0 1.9 0 1.9 1.9.3.8.3 1.9.8 2.7.5 1.1 1.6.8 2.1-.3s-2.1-3.8-.3-4.1c1.9-.3 2.4 2.4 2.9 3 .5.5 1.1.3 1.3 0 .5-.5-.8-2.2 0-2.7 1.9-.8 1.9 1.4 3.2 1.4 6.1 0 10.6-10.1 10.1-12.8-2.1-1.1-1.3-4.3.3-4.3 4.3 0 3.5 6 .5 12.8-2.8 10-12.9 14.6-17.2 15.4z" fill="#ffffff" id="path340"/>
    <path class="bfst1" d="M185.6 109.5c.8-3.8 1.6-5.4 1.9-9 0-.8-.5-1.6-1.1-1.6-2.1-.5-3.2-.5-4-.5 0 0-.3 0-.3-.3-.3-.5-.5-2.2-.5-3 1.3-2.7-1.1-3.8-3.2-3.8-1.3 0-2.9.5-2.9 1.6-.3 2.2 2.1 3 2.9 3 .3.3.5 1.6.5 2.4 0 0 0 .3-.3.3-3.7 0-8.2.8-10.6.8-.3 0-.5-.3-.5-.3-.5-1.4-2.4-7.1 1.3-7.1 2.1 0 4-1.6 1.9-3-.5-.3-3.2-.8-4.8-.5-1.3.3-1.9 1.6-1.6 2.7.3 1.9-4.5 2.2-5.8 1.6-1.1-.3-2.1-1.6-2.7-2.4-.8-1.6-2.4-.3-2.1.5 1.9 6 8 4.9 9.6 5.2 0 0 .3 0 .3.3.3 2.2 1.6 4.3 1.6 5.2-.8.8-.5 2.7.5 3-1.3 1.4-1.9 5.7-1.6 9.5.3 4.9 2.1 9.5 5.1 9 3.7-.5 2.4-9.5 3.2-10.3.5-.3 1.6-.3 2.1-.3 0 0 .3 0 .3.3-.3 3.5-1.1 9.2-1.3 10.6-.3 1.6-.3 2.4.5 3.8.8 1.6 2.4 6.5.5 11.7 0 .3-.3.3-.3.3-1.6.3-2.4.8-2.9 1.4-.5.5-1.3 1.4-.8 1.9.8.5 5.1.3 6.4-1.6 0 0 0-.3.3-.3.5-1.4 1.1-2.2 1.6-3 1.9-3.8 2.4-8.7-.5-10.9-.8-.5-1.6-1.1-.8-2.7 1.3-3 1.6-6 1.9-8.7 0-1.1 1.9-1.6 2.4-.8 1.6 4.1.3 7.3.3 9 0 1.4.5 2.2.8 3 1.1 5.2.5 9.5-.5 14.9 0 0 0 .3-.3.3-1.1.5-1.9.5-2.7 1.1-.8.5-1.1 1.4-.8 1.6 1.1 1.1 5.6 0 5.8-1.4.8-3.3 6.9-10.9 2.7-15.8-1.9-2.2-1.9-1.4-1.9-2.4 0-.5 1.3-3.5 1.6-5.7.3-2.4-1.3-4.6-.8-6h.3c.5 0 2.1.5 3.2 1.1.3.3.8 0 .8-1.1-.8-2-3.9-3.3-4.7-3.6zm-17.3 10c-1.9 0-2.4-11.1-.5-11.1 1.5 0 1.5 11.1.5 11.1zm5.8-16.5c.3.5.8 3 .8 4.6 0 .5 0 1.4-.5 1.4-.8.3-2.1.3-2.9 0-.8-.3-.3-3.5-3.2-4.3.5-.3.5-.5.8-1.4 0-.5.5-1.1 1.3-1.1 1.3-.3 2.1-.3 2.7-.3.2.3.8.5 1 1.1zm8.3 4.9c-.5.5-2.7.8-3.7.3-.8-.5-1.1-4.6-.5-5.7.5-1.1 5.1-1.1 5.3-.3-.1.8-.6 5.1-1.1 5.7z" fill="#ffffff" id="path342"/>
    <path class="bfst1" d="M162.4 113.6c-.3-4.3-4.3-9.8-9.8-10.9-6.1-1.1-15.7 1.4-16.7 10.6-1.1 9.5 6.1 16.6 14.6 16 9.5-.8 12.5-9.8 11.9-15.7zm-5.3 6.8c.5 0 1.3 0 1.6.8.3.8-1.9 3.3-2.7 3.5-.5.3-1.6-.8-1.3-1.6 0-.8 1.9-2.7 2.4-2.7zm3.2-3c-.5.3-1.3.3-1.9-.3-.3-.5-.3-3.5-.3-3.8.3-.5 1.1-.8 1.9-.5.6.2 1.1 4 .3 4.6zm-1.9-8.2c0 .5-1.1.8-1.3.8-.5 0-2.7-1.6-2.7-2.4-.3-.8.3-1.4.8-1.4 1.1-.2 3.2 2.2 3.2 3zm-7.1-4.1c.3.5.5 1.1 0 1.4-.3.5-3.7.5-4.3.5-1.1 0-1.6-1.1-1.1-1.6.6-1.1 4.8-1.1 5.4-.3zm2.6 6c0 .8-3.2 2.4-3.7 2.2-.8-.5-2.7-3.3-2.4-3.8 1.3-1.6 6.1.3 6.1 1.6zm-8.5-.5c.3 0 2.1 2.7 1.9 3.8-.3.8-3.7 2.2-4 1.9-1.1-1.1 0-5.5 2.1-5.7zm-.8 8.4c0-.5 2.7-2.4 4-2.2.8.3 2.4 3.8 1.6 4.3-2.1 1.2-5.6-1-5.6-2.1zm8.8.5c-.8-.3-2.9-3.3-2.1-4.1.8-.8 3.7-2.2 4.3-1.9 1.5 2.2-.6 6.9-2.2 6zm-12.2-8.4c-.8.3-1.6-.3-1.6-1.1 0-1.1 2.1-3.3 2.9-3.3.5 0 1.1.8 1.1 1.6-.3.6-2.2 2.5-2.4 2.8zm-.6 6.8c-.5.5-1.3.8-1.9.5-.8-.5-.8-3-.5-4.1.3-.5 1.9-1.1 2.1-.3.3.6.6 3.4.3 3.9zm-.5 4.1c0-.8 1.1-1.6 1.6-1.4.5 0 2.4 2.2 2.7 2.7.3.8-.5 1.6-1.1 1.6-.8-.2-2.9-2.1-3.2-2.9zm7.2 4.1c-.5-.3-.3-1.6.8-1.6.5 0 2.7-.3 3.5 0 .5.3 1.1 1.4.5 1.9-.6.2-4 .2-4.8-.3zm1.8-49.5l-.3 2.2-1.3 1.6 2.1.3 1.6 1.4.3-2.2 1.3-1.6-2.1-.3-1.6-1.4zm39.1 92.4l-1.6-1.4h-2.1l1.1-1.9.3-1.9 1.6 1.1 2.1.3-1.3 1.6v2.2zm-44.4 0l1.6-1.4h2.1l-1.3-1.9v-2.2l-1.6 1.4h-2.1l1.1 1.9.2 2.2zm-11.7-9.3l2.1-2.4c1.1-1.1 2.7-1.1 4 .3 1.6 1.4 1.9 3 .8 4.1l-2.1 2.4c-.3.3-.3.5 0 .8l-.8.5-2.1-1.9.5-.8c.3.3.5.3.8 0l2.1-2.4c.5-.5.3-1.1-.3-1.6-.8-.5-1.3-.5-1.9 0l-2.1 2.4c-.3.3-.3.5 0 .8l-.8.5-1.9-1.6.5-.8c.7 0 1 0 1.2-.3zm-6.9-8.6l4.5-3.5.8 1.1-1.3 4.9c0 .3-.3.8-.3.8s.5-.3.5-.5l2.1-1.6c.3-.3.3-.5 0-.8l.8-.5 1.3 1.9-.5.8c-.3-.3-.5-.3-.8 0l-3.5 2.4c-.3.3-.3.5 0 .8l-.8.8-1.3-1.6 1.3-4.3c0-.3.3-.8.3-.8s-.5.3-.5.5l-1.6 1.4c-.3.3-.3.5 0 .8l-.8.5-1.3-1.9.5-.8c.1-.2.3-.2.6-.4zm1.9-8.7l1.1 2.4-.8.5c-.3-.5-.3-.5-.8-.3l-3.7 1.9c-.3.3-.5.3-.3.8l-.8.3-1.1-2.4.8-.5c.3.5.3.5.8.3l3.7-1.9c.3-.3.5-.3.3-.8l.8-.3zm-8.5-7.4l6.1.5.5 1.9-4.8 3.8c-.3.3-.3.5-.3.8H119l-.8-2.7.8-.5c0 .3.3.5.5.3l2.4-1.9c.3-.3 1.3-.5 1.3-.5H122l-2.9-.3c-.3 0-.5.3-.3.5h-1.1l-.7-1.9.8-.5c.2.3.2.5.8.5zm4.5-9.8l.5 5.7-.8.3c0-.5-.3-.5-.5-.5l-4.3.3c-.5 0-.5.3-.5.5h-1.1l-.5-5.4 1.6-.3.3.8c-.5 0-.5.3-.5 1.1v1.4l1.6-.3v-1.1c0-.5-.3-.5-.5-.5v-.8l1.6-.3.3.8c-.3 0-.5.3-.5.8v1.1l1.9-.3-.3-1.6c0-.8-.3-.8-.8-.8v-.8c-.2-.1 2.5-.1 2.5-.1zm.8-9.7l-.3 2.2c-1.1.8-2.9 0-2.9 1.4v.8l1.3.3c.3 0 .5 0 .5-.5l.8.3-.3 2.7h-1c0-.5 0-.5-.5-.5l-4.3-.5c-.3 0-.5 0-.5.5l-.8-.3.5-3.5c.3-1.9 1.1-2.7 2.4-2.7.8 0 1.3.5 1.6 1.6.3-.8 1.1-1.1 1.6-1.1s.8-.3.8-.8v-.3c0-.2 1.1.4 1.1.4zm-6.4 3v1.1l2.1.3v-1.1c0-.8-.3-1.4-.8-1.4-.8 0-1.3.2-1.3 1.1zm7.7-7.9c-.5 1.4-1.1 2.2-1.6 2.4l-1.3-.8.3-.5c.8 0 1.3-.8 1.6-1.4.3-.5 0-1.1-.5-1.4-.5-.3-.8.3-1.3 1.1-.5 1.1-1.3 2.2-2.9 1.6-1.3-.5-1.6-1.9-1.3-3.5.3-1.1 1.1-1.9 1.3-2.4l1.3.8-.3.5c-.8 0-1.1.8-1.3 1.4-.3.5 0 1.1.3 1.4.5.3.8-.3 1.1-1.1.8-1.4 1.6-2.4 3.2-1.9 1.7.8 1.9 2.4 1.4 3.8zm3.2-7.6l-1.3 2.4-.8-.3c.3-.5 0-.5-.3-.8l-3.7-1.9c-.3-.3-.5-.3-.8.3l-.8-.5 1.3-2.4.8.3c-.3.5-.3.5.3.8l3.7 1.9c.3.3.5.3.8-.3l.8.5zm.3-10.1c-.5-.3-.8-.3-1.1.3l-.5.5 3.5 2.7c.3.3.5.3.8 0l.5.8-1.6 2.2-.8-.3c.3-.3.3-.5 0-.8l-3.5-2.7-.5.5c-.5.5-.3.8 0 1.4l-.3.3-1.3-1.4 3.7-5.2 1.6.8c0 .1-.5.9-.5.9zm10.9-3.5l-1.9 1.9-.8-.5c.3-.3.3-.3 0-.5l-.8-.5-1.9 1.9.3.5c.3.3.3.3.5 0l.5.8-1.6 1.6-.8-.5c.3-.3.3-.5.3-.8l-1.9-4.3c0-.3-.3-.3-.5 0l-.5-.8 2.7-2.7.8.5c-.3.3-.3.5 0 .5l4 2.2c.3.3.5.3.8 0 0-.1.8.7.8.7zm-6.1-1.1c-.3-.3-1.1-.8-1.1-.8s.5.8.8 1.1l.8 1.9 1.3-1.4-1.8-.8zm10.1-1.4c-1.1.8-2.4.8-2.9.8l-.5-1.6.5-.3c.5.5 1.6.3 2.1 0s.8-.8.5-1.4c-.3-.5-.8-.5-1.9 0-1.1.5-2.4.5-3.2-.5-.8-1.4 0-2.7 1.3-3.5 1.1-.5 2.1-.8 2.4-.8l.5 1.4-.3.5c-.5-.5-1.3-.3-1.9 0-.5.3-.8.8-.5 1.4.3.3.8.3 1.6 0 1.6-.5 2.7-.8 3.5.5s.1 2.7-1.2 3.5zm19.9-9.7c-.5 0-.5.3-.5.5v.5c0 .3.3.5.3.5v.8c-1.1.3-1.1.5-2.7.8-2.1.3-4-.5-4.3-3.3-.3-2.4 1.1-3.8 3.5-4.3 1.3-.3 2.4.3 2.9.3l-.3 1.6h-.5c-.3-.8-1.1-.8-1.6-.8-1.3.3-1.9 1.1-1.6 2.7s.8 2.2 2.1 2.2c.3 0 .8-.3.8-.3v-.8c0-.3-.3-.5-.5-.5V76l2.7-.3-.3 1.5zm6.1 3.2c-2.1-.3-3.5-1.4-3.5-4.1.3-2.7 1.9-3.5 4-3.5 2.1.3 3.5 1.4 3.5 4.1-.3 3-1.9 3.8-4 3.5zm.3-6c-1.1 0-1.6.5-1.9 2.2-.3 1.9.3 2.4 1.3 2.4s1.6-.5 1.9-2.2c.3-1.8 0-2.4-1.3-2.4zm11.4 3c0-.5 0-.8-.8-1.1l-.5-.3-1.1 4.3c0 .3 0 .5.3.8l-.5.8-2.7-.8V80c.5 0 .5 0 .8-.3l1.1-4.3-.8-.3c-.8-.3-.8 0-1.1.5l-.5-.3.5-1.6 6.1 1.6-.3 1.9c0 .2-.5.2-.5.2zm7.4 9.3l-2.4-1.1.3-.8c.5.3.5 0 .8-.3l.8-1.4-2.7-1.6-.8 1.4c-.3.3-.3.5.3.8l-.5.8-2.4-1.1.3-.8c.5.3.5 0 .8-.3l1.9-3.8c.3-.3.3-.5-.3-.8l.5-.8 2.4 1.1-.3.8c-.5-.3-.5 0-.8.3l-.5 1.1 2.7 1.4.5-1.1c.3-.3.3-.5-.3-.8l.5-.8 2.4 1.1-.3.8c-.5-.3-.5 0-.8.3l-1.9 3.8c-.3.3-.3.5.3.8l-.5 1zm4.6 3.5c-1.6-1.4-2.1-3.3-.5-5.2 1.6-2.2 3.5-1.9 5.1-.5 1.6 1.4 2.1 3.3.5 5.2-1.7 2.1-3.5 2.1-5.1.5zm3.7-4.6c-.8-.8-1.6-.5-2.7.8-1.1 1.4-1.1 2.2-.3 3s1.6.5 2.7-.8c1.4-1.7 1.4-2.5.3-3zm2.6 11.4l-2.1-2.7.5-.8c.3.3.5.3.8 0l3.2-2.7c.3-.3.3-.5 0-.8l.8-.5 2.1 2.7c1.1 1.4 1.3 2.7.3 3.3-.5.3-1.1.3-1.9 0 .3.8 0 1.6-.5 2.2-.8 1.2-1.8.6-3.2-.7zm1.9-3l-1.6 1.4.5.8c.5.5 1.1.5 1.6.3.5-.3.5-1.1 0-1.6l-.5-.9zm.8-.8l.5.8c.5.5.8.5 1.3.3.3-.3.5-.8 0-1.4l-.5-.8-1.3 1.1zm8.5 11.4l-2.9 1.4c-1.3.8-2.7 0-3.7-1.6-.8-1.9-.5-3.3.8-4.1l2.9-1.6c.3-.3.5-.3.3-.8l.8-.3 1.3 2.4-.8.5c-.3-.5-.3-.5-.8-.3l-2.9 1.6c-.5.3-.8.8-.3 1.6s1.1 1.1 1.6.8l2.9-1.6c.3-.3.5-.3.3-.8l.8-.3 1.1 2.2-.8.5c-.1.1-.3.1-.6.4zm-2.4 12l-.5-2.2c.8-1.4 2.7-1.1 2.4-2.4l-.3-.8-1.3.3c-.3 0-.5.3-.3.8h-1.1l-.8-2.7.8-.5c0 .5.3.5.8.5l4-1.1c.3 0 .5-.3.3-.8h1.1l.8 3.5c.5 1.6 0 3-1.3 3.3-.8.3-1.6 0-2.1-.8 0 .8-.8 1.4-1.3 1.6-.5.3-.8.5-.5 1.1v.3c-.1-.1-.7-.1-.7-.1zm5.1-5.2l-.3-1.1-1.9.5.3 1.1c.3.8.8 1.1 1.3.8.3-.2.6-.5.6-1.3zm-1.6 14.1c0-.5-.3-.5-.5-.5h-.5c-.3 0-.5 0-.5.3l-.8-.3c0-1.1-.5-1.4-.5-2.7 0-2.2.8-4.1 3.5-4.1 2.4 0 3.7 1.4 4 3.8 0 1.4-.5 2.4-.5 3l-1.6-.3v-.5c.8-.3 1.1-.8 1.1-1.6 0-1.4-.8-1.9-2.4-1.9-1.6 0-2.4.8-2.4 2.2 0 .3 0 .8.3.8h.8c.3 0 .5 0 .5-.5l1.1.3v2.7l-1.6-.7zm-4 8.2l.8-5.4h1.1c0 .5 0 .5.5.5l4 .5c.5 0 .5 0 .5-.5l.8.3-.8 5.4-1.6-.3v-.8c.5 0 .8 0 .8-.8l.3-1.4-1.6-.3-.3 1.1c0 .5 0 .5.3.8v.8l-1.6-.3v-.8c.3 0 .5 0 .5-.5l.3-1.1-1.9-.3-.3 1.6c0 .8 0 .8.5 1.1l-.3.8c.1.1-2-.4-2-.4zm2.4 10.8l-5.3-2.2.5-1.4 4.8-1.4c.3 0 .8-.3.8-.3s-.5-.3-.8-.3l-2.1-.5c-.3-.3-.5 0-.8.3l-.8-.5.8-2.2 1.1.3c-.3.5 0 .5.3.8l4 1.4c.3.3.5 0 .8-.3l.8.5-.8 1.9-4.3 1.4c-.3 0-1.1.3-1.1.3s.5.3.8.3l1.9.8c.3.3.5 0 .8-.3l.8.5-.8 2.2-1.1-.3c.2-.4.2-.7-.3-1zm-8 2.8c.8-1.1 1.6-1.9 2.1-2.2l1.1 1.1-.3.5c-.8-.3-1.6.3-1.9.8-.3.5-.3 1.1 0 1.4.5.3.8 0 1.6-.8s1.9-1.6 3.2-.8c1.1.8 1.1 2.2.3 3.8-.5 1.1-1.3 1.6-1.9 1.9l-1.1-.8.3-.5c.8 0 1.3-.3 1.6-.8.3-.5.3-1.1 0-1.4-.3-.3-.8 0-1.3.5-1.1 1.1-2.1 1.9-3.5 1.1-1.3-.9-1-2.5-.2-3.8zm-5 7l1.9-1.9.8.5c-.3.3-.3.5 0 .8l3.2 2.7c.3.3.5.3.8 0l.5.8-1.9 1.9-.8-.5c.3-.3.3-.5 0-.8l-3.2-2.7c-.3-.3-.5-.3-.8 0l-.5-.8zm-4.6 3.8c1.1-.8 2.1-1.1 2.7-1.4l.5 1.4-.5.5c-.8-.5-1.6-.3-2.1.3-.5.3-.8.8-.3 1.4.3.5.8.3 1.9-.3 1.1-.5 2.4-.8 3.2.3.8 1.1.3 2.4-.8 3.5-1.1.8-1.9 1.1-2.4 1.4l-.5-1.4.5-.3c.5.3 1.3 0 1.9-.3.5-.3.5-.8.3-1.4-.3-.3-.8-.3-1.6.3-1.3.8-2.7 1.1-3.5-.3-1.1-1.2-.3-2.6.7-3.7zm-38.2 16L151 173v-1h.5c.5.3.5 0 .8-.3l1.1-3.8c-.3 0-.8.3-1.3 0l.3-1.1c.8 0 1.3 0 2.1-.8l1.3.5-1.6 6c0 .3 0 .5.5.8h.5c.1 0-.7.8-.7.8zm6.9 1.4c-1.9-.3-3.2-1.1-2.9-2.4 0-1.1 1.1-1.6 1.9-1.9-.8-.5-1.3-1.1-1.3-1.9 0-1.1 1.3-1.6 3.2-1.6 1.9.3 2.9 1.1 2.7 2.2 0 .8-.8 1.4-1.6 1.6.8.5 1.6 1.1 1.6 2.2-.4 1.3-1.8 1.8-3.6 1.8zm.2-3.5c-.8.3-1.3.8-1.3 1.4 0 .5.5 1.1 1.3 1.1s1.3-.3 1.3-.8c-.2-.9-.5-1.2-1.3-1.7zm.3-3c-.5 0-1.1.3-1.1.5 0 .5.3.8 1.1 1.4.5-.3 1.1-.5 1.1-1.1s-.6-.8-1.1-.8zm8.2 6.5c-.5 0-1.3 0-1.6-.3v-1.1c.3 0 .8.3 1.3 0 1.3 0 1.9-.8 2.1-2.2-.3.3-.8.8-1.6.8-1.9.3-2.9-.8-2.9-2.2-.3-1.6.8-2.7 2.9-3 2.1-.3 3.2 1.1 3.5 3 .1 2.8-1 4.7-3.7 5zm0-6.5c-.8 0-1.3.8-1.3 1.6s.5 1.4 1.3 1.4 1.3-.5 1.3-1.6c.3-.6-.2-1.4-1.3-1.4zm11.2 4.1l-3.5 1.1-.5-.8h.5c.5 0 .5-.3.5-.8l-1.1-3.8c-.3.3-.5.5-1.1.8l-.3-1.1c.8-.3 1.1-.8 1.3-1.6l1.3-.3 1.3 5.7c0 .3.3.5.8.3h.5c.3-.1.3.5.3.5z" fill="#ffffff" id="path344"/>
  </g>
</svg>