<?xml version="1.0" encoding="UTF-8" standalone="no"?>
<svg
width="18.773567mm"
height="18.77356mm"
viewBox="0 0 18.773567 18.77356"
version="1.1"
id="svg5"
xmlns="http://www.w3.org/2000/svg"
xmlns:svg="http://www.w3.org/2000/svg">
<defs
id="defs2">
<rect
x="120.33752"
y="223.80835"
width="120.98554"
height="138.589"
id="rect2793" />
</defs>
<g
id="layer1"
transform="translate(-37.191163,-99.581616)">
<path
id="path2998"
style="fill:#f0581a;stroke-width:0.852327"
d="m 55.964732,108.9684 a 9.3867846,9.3867846 0 0 1 -9.386785,9.38678 9.3867846,9.3867846 0 0 1 -9.386784,-9.38678 9.3867846,9.3867846 0 0 1 9.386784,-9.386783 9.3867846,9.3867846 0 0 1 9.386785,9.386783 z" />
<g
aria-label="i"
transform="matrix(0.26458333,0,0,0.26458333,12.101179,39.657593)"
id="text2791-92"
style="fill:#ffffff;stroke-width:7">
<path
d="m 125.19123,240.42077 c 0,2.76267 2.31466,4.928 5.07733,4.928 2.83734,0 5.152,-2.16533 5.152,-4.928 0,-2.76267 -2.31466,-4.928 -5.152,-4.928 -2.76267,0 -5.07733,2.16533 -5.07733,4.928 z m 1.12,13.66401 v 34.34668 h 7.98933 v -34.34668 z"
id="path2993" />
</g>
</g>
</svg>
