<?xml version="1.0" encoding="UTF-8" standalone="no"?>
<!-- Created with Inkscape (http://www.inkscape.org/) -->

<svg
   width="210mm"
   height="297mm"
   viewBox="0 0 210 297"
   version="1.1"
   id="svg5"
   inkscape:version="1.2.2 (b0a8486541, 2022-12-01)"
   sodipodi:docname="sprakbanken_text_symbols.svg"
   xmlns:inkscape="http://www.inkscape.org/namespaces/inkscape"
   xmlns:sodipodi="http://sodipodi.sourceforge.net/DTD/sodipodi-0.dtd"
   xmlns="http://www.w3.org/2000/svg"
   xmlns:svg="http://www.w3.org/2000/svg">
  <sodipodi:namedview
     id="namedview7"
     pagecolor="#ffffff"
     bordercolor="#000000"
     borderopacity="0.25"
     inkscape:showpageshadow="2"
     inkscape:pageopacity="0.0"
     inkscape:pagecheckerboard="0"
     inkscape:deskcolor="#d1d1d1"
     inkscape:document-units="mm"
     showgrid="false"
     showguides="true"
     inkscape:zoom="1.5162318"
     inkscape:cx="320.20171"
     inkscape:cy="308.33017"
     inkscape:window-width="1920"
     inkscape:window-height="1029"
     inkscape:window-x="0"
     inkscape:window-y="27"
     inkscape:window-maximized="1"
     inkscape:current-layer="layer1">
    <sodipodi:guide
       position="26.220491,228.76503"
       orientation="0,-1"
       id="guide2665"
       inkscape:locked="false" />
    <sodipodi:guide
       position="26.405577,210.00967"
       orientation="0,-1"
       id="guide2667"
       inkscape:locked="false" />
    <sodipodi:guide
       position="19.020564,197.36017"
       orientation="0,-1"
       id="guide2911"
       inkscape:locked="false" />
    <sodipodi:guide
       position="17.275558,219.52175"
       orientation="1,0"
       id="guide4858"
       inkscape:locked="false" />
  </sodipodi:namedview>
  <defs
     id="defs2">
    <rect
       x="120.33752"
       y="223.80835"
       width="120.98554"
       height="138.589"
       id="rect2793" />
    <rect
       x="193.93709"
       y="225.70331"
       width="58.405132"
       height="90.365853"
       id="rect2759" />
    <rect
       x="242.264"
       y="258.69592"
       width="98.414229"
       height="85.028781"
       id="rect2703" />
    <rect
       x="304.61838"
       y="252.87863"
       width="104.77748"
       height="143.57163"
       id="rect2456" />
    <rect
       x="120.33752"
       y="223.80835"
       width="120.98554"
       height="138.589"
       id="rect2793-0" />
  </defs>
  <g
     inkscape:label="Layer 1"
     inkscape:groupmode="layer"
     id="layer1">
    <g
       id="g4713">
      <path
         id="path236-2"
         style="fill:#f0581a;stroke-width:0.852327"
         d="m 78.339566,77.45063 a 9.3867846,9.3867846 0 0 1 -9.386784,9.386785 9.3867846,9.3867846 0 0 1 -9.386785,-9.386785 9.3867846,9.3867846 0 0 1 9.386785,-9.386784 9.3867846,9.3867846 0 0 1 9.386784,9.386784 z" />
      <g
         aria-label="?"
         transform="matrix(0.26458333,0,0,0.26458333,-0.90489448,-1.228912)"
         id="text2701"
         style="font-weight:900;font-size:74.6667px;font-family:'Jost*';-inkscape-font-specification:'Jost*, Heavy';white-space:pre;shape-inside:url(#rect2703);fill:#ffffff;stroke-width:7">
        <path
           d="m 273.47435,285.98483 c 0,4.928 -4.928,10.528 -13.888,10.528 h -2.09067 l 1.49333,13.14134 h 6.34667 l 0.448,-7.84 c 8.13867,-0.82133 15.90401,-7.01867 15.90401,-15.82934 0,-9.48267 -7.91467,-15.97867 -17.39734,-15.97867 -8.88534,0 -13.73867,3.50933 -17.92001,9.10933 l 5.97334,4.40534 c 2.53866,-3.95734 6.34667,-6.34667 11.2,-6.34667 6.12267,0 9.93067,3.21067 9.93067,8.81067 z m -16.50134,33.74935 c 0,2.688 2.31467,5.00267 5.30134,5.00267 2.98667,0 5.22667,-2.31467 5.22667,-5.00267 0,-2.61334 -2.24,-4.928 -5.22667,-4.928 -2.98667,0 -5.30134,2.31466 -5.30134,4.928 z"
           style="font-weight:500;-inkscape-font-specification:'Jost* Medium'"
           id="path2855" />
      </g>
    </g>
    <g
       id="g4718">
      <path
         id="path236-2-2"
         style="fill:#f0581a;stroke-width:0.852327"
         d="m 102.18463,77.699707 a 9.3867846,9.3867846 0 0 1 -9.386786,9.386785 9.3867846,9.3867846 0 0 1 -9.386785,-9.386785 9.3867846,9.3867846 0 0 1 9.386785,-9.386785 9.3867846,9.3867846 0 0 1 9.386786,9.386785 z" />
      <g
         aria-label="!"
         transform="matrix(0.26458333,0,0,0.26458333,38.34408,7.6110588)"
         id="text2757"
         style="font-weight:900;font-size:74.6667px;font-family:'Jost*';-inkscape-font-specification:'Jost*, Heavy';white-space:pre;shape-inside:url(#rect2759);fill:#ffffff;stroke-width:7">
        <path
           d="m 200.73217,238.0593 1.86667,36.36269 h 6.34667 l 1.86666,-36.36269 z m -0.224,48.60802 c 0,2.83734 2.31467,5.07734 5.30134,5.07734 2.98666,0 5.30133,-2.24 5.30133,-5.07734 0,-2.83733 -2.31467,-5.00266 -5.30133,-5.00266 -2.98667,0 -5.30134,2.16533 -5.30134,5.00266 z"
           style="font-weight:500;-inkscape-font-specification:'Jost* Medium'"
           id="path2852" />
      </g>
    </g>
    <g
       id="g4708">
      <path
         id="path236"
         style="fill:#f0581a;stroke-width:0.852327"
         d="m 56.353719,77.63942 a 9.3867846,9.3867846 0 0 1 -9.386785,9.386784 9.3867846,9.3867846 0 0 1 -9.386784,-9.386784 9.3867846,9.3867846 0 0 1 9.386784,-9.386785 9.3867846,9.3867846 0 0 1 9.386785,9.386785 z" />
      <g
         aria-label="i"
         transform="matrix(0.26458333,0,0,0.26458333,12.490166,8.3286106)"
         id="text2791"
         style="font-weight:500;font-size:74.6667px;font-family:'Jost*';-inkscape-font-specification:'Jost* Medium';white-space:pre;shape-inside:url(#rect2793);display:inline;fill:#ffffff;stroke-width:7">
        <path
           d="m 125.19123,240.42077 c 0,2.76267 2.31466,4.928 5.07733,4.928 2.83734,0 5.152,-2.16533 5.152,-4.928 0,-2.76267 -2.31466,-4.928 -5.152,-4.928 -2.76267,0 -5.07733,2.16533 -5.07733,4.928 z m 1.12,13.66401 v 34.34668 h 7.98933 v -34.34668 z"
           id="path2901" />
      </g>
    </g>
    <g
       id="g4723">
      <path
         id="path236-2-2-7"
         style="fill:#f0581a;stroke-width:0.852327"
         d="m 125.14093,77.780312 a 9.3867846,9.3867846 0 0 1 -9.38679,9.386784 9.3867846,9.3867846 0 0 1 -9.38678,-9.386784 9.3867846,9.3867846 0 0 1 9.38678,-9.386785 9.3867846,9.3867846 0 0 1 9.38679,9.386785 z" />
      <g
         aria-label="i"
         transform="matrix(0.26458333,0,0,-0.26458333,81.277375,147.09112)"
         id="text2791-9"
         style="font-weight:500;font-size:74.6667px;font-family:'Jost*';-inkscape-font-specification:'Jost* Medium';white-space:pre;shape-inside:url(#rect2793-0);display:inline;fill:#ffffff;stroke-width:7">
        <path
           d="m 125.19123,240.42077 c 0,2.76267 2.31466,4.928 5.07733,4.928 2.83734,0 5.152,-2.16533 5.152,-4.928 0,-2.76267 -2.31466,-4.928 -5.152,-4.928 -2.76267,0 -5.07733,2.16533 -5.07733,4.928 z m 1.12,13.66401 v 34.34668 h 7.98933 v -34.34668 z"
           id="path2908" />
      </g>
    </g>
    <path
       id="path2998"
       style="fill:#f0581a;stroke-width:0.852327"
       d="M 46.578035 99.581519 A 9.3867846 9.3867846 0 0 0 37.191012 108.96854 A 9.3867846 9.3867846 0 0 0 46.578035 118.35505 A 9.3867846 9.3867846 0 0 0 55.964543 108.96854 A 9.3867846 9.3867846 0 0 0 46.578035 99.581519 z M 46.568217 101.96484 C 47.318929 101.96484 47.931441 102.53819 47.931441 103.26915 C 47.931441 104.00011 47.318929 104.57295 46.568217 104.57295 C 45.837262 104.57295 45.22463 104.00011 45.22463 103.26915 C 45.22463 102.53819 45.837262 101.96484 46.568217 101.96484 z M 45.521252 106.88443 L 47.634819 106.88443 L 47.634819 115.97173 L 45.521252 115.97173 L 45.521252 106.88443 z " />
    <path
       id="path236-2-0"
       style="fill:#f0581a;stroke-width:0.852327"
       d="M 68.563774 99.3929 A 9.3867846 9.3867846 0 0 0 59.177266 108.77941 A 9.3867846 9.3867846 0 0 0 68.563774 118.16643 A 9.3867846 9.3867846 0 0 0 77.950798 108.77941 A 9.3867846 9.3867846 0 0 0 68.563774 99.3929 z M 68.63302 101.53902 C 71.141974 101.53902 73.23584 103.25771 73.23584 105.76667 C 73.23584 108.09783 71.181183 109.73774 69.027828 109.95505 L 68.909489 112.02934 L 67.230522 112.02934 L 66.835197 108.55255 L 67.388135 108.55255 C 69.758799 108.55255 71.062846 107.07054 71.062846 105.76667 C 71.062846 104.285 70.05557 103.43555 68.435616 103.43555 C 67.151506 103.43555 66.143659 104.06798 65.471973 105.11503 L 63.891707 103.94921 C 64.998019 102.46754 66.282109 101.53902 68.63302 101.53902 z M 68.099719 113.39256 C 68.88994 113.39256 69.482581 114.00492 69.482581 114.69636 C 69.482581 115.40756 68.88994 116.01979 68.099719 116.01979 C 67.309498 116.01979 66.696704 115.40756 66.696704 114.69636 C 66.696704 114.00492 67.309498 113.39256 68.099719 113.39256 z " />
    <path
       id="path236-2-2-7-2"
       style="fill:#f0581a;stroke-width:0.852327"
       d="M 115.36505 99.722595 A 9.3867846 9.3867846 0 0 0 105.97854 109.1091 A 9.3867846 9.3867846 0 0 0 115.36505 118.49613 A 9.3867846 9.3867846 0 0 0 124.75208 109.1091 A 9.3867846 9.3867846 0 0 0 115.36505 99.722595 z M 114.30827 102.10591 L 116.42183 102.10591 L 116.42183 111.19373 L 114.30827 111.19373 L 114.30827 102.10591 z M 115.35523 113.5047 C 116.10595 113.5047 116.71846 114.07806 116.71846 114.80901 C 116.71846 115.53997 116.10595 116.11281 115.35523 116.11281 C 114.62428 116.11281 114.01165 115.53997 114.01165 114.80901 C 114.01165 114.07806 114.62428 113.5047 115.35523 113.5047 z " />
    <text
       xml:space="preserve"
       style="font-style:normal;font-variant:normal;font-weight:500;font-stretch:normal;font-size:8.46667px;font-family:'Jost*';-inkscape-font-specification:'Jost* Medium';fill:#ffffff;fill-opacity:1;stroke-width:1.85208"
       x="17.548477"
       y="64.875244"
       id="text4727"><tspan
         sodipodi:role="line"
         id="tspan4725"
         style="font-size:8.46667px;fill:#000000;stroke-width:1.85208"
         x="17.548477"
         y="64.875244">White filled symbols</tspan></text>
    <text
       xml:space="preserve"
       style="font-style:normal;font-variant:normal;font-weight:500;font-stretch:normal;font-size:8.46667px;font-family:'Jost*';-inkscape-font-specification:'Jost* Medium';fill:#ffffff;fill-opacity:1;stroke-width:1.85208"
       x="17.3293"
       y="97.533096"
       id="text4727-9"><tspan
         sodipodi:role="line"
         id="tspan4725-2"
         style="font-size:8.46667px;fill:#000000;stroke-width:1.85208"
         x="17.3293"
         y="97.533096">Transparent symbols</tspan></text>
  </g>
</svg>
