<?xml version="1.0" encoding="UTF-8" standalone="no"?>
<!-- Created with Inkscape (http://www.inkscape.org/) -->

<svg
   version="1.1"
   id="svg4730"
   width="501.62933"
   height="418.39331"
   viewBox="0 0 501.62935 418.39331"
   sodipodi:docname="logo_su.svg"
   inkscape:version="1.2.2 (b0a8486541, 2022-12-01)"
   xmlns:inkscape="http://www.inkscape.org/namespaces/inkscape"
   xmlns:sodipodi="http://sodipodi.sourceforge.net/DTD/sodipodi-0.dtd"
   xmlns="http://www.w3.org/2000/svg"
   xmlns:svg="http://www.w3.org/2000/svg">
  <defs
     id="defs4734" />
  <sodipodi:namedview
     id="namedview4732"
     pagecolor="#ffffff"
     bordercolor="#000000"
     borderopacity="0.25"
     inkscape:showpageshadow="2"
     inkscape:pageopacity="0.0"
     inkscape:pagecheckerboard="0"
     inkscape:deskcolor="#d1d1d1"
     showgrid="false"
     inkscape:zoom="0.42036536"
     inkscape:cx="366.34798"
     inkscape:cy="49.956543"
     inkscape:window-width="1920"
     inkscape:window-height="1056"
     inkscape:window-x="1920"
     inkscape:window-y="0"
     inkscape:window-maximized="1"
     inkscape:current-layer="g4738">
    <inkscape:page
       x="0"
       y="0"
       id="page4736"
       width="501.62936"
       height="418.39331" />
  </sodipodi:namedview>
  <g
     id="g4738"
     inkscape:groupmode="layer"
     inkscape:label="Page 1"
     transform="matrix(1.3333333,0,0,-1.3333333,0,418.39332)">
    <path
       d="M 0.554297,73.25 H 6.2168 v -6.5609 c 2.20898,-1.3121 6.4219,-1.795 9.4605,-1.795 6.9043,0 11.4622,3.1758 11.4622,8.977 0,12.9121 -26.515672,5.2461 -26.515672,22.5789 0,5.87 3.451952,13.741 17.883972,13.741 3.5227,0 9.943,-0.897 12.9813,-2.277 v -9.7378 h -5.3844 v 6.0078 c -1.7961,0.761 -5.8016,1.313 -8.0805,1.313 -5.1785,0 -11.04842,-2.002 -11.04842,-8.356 0,-12.291 26.51682,-4.6269 26.51682,-22.4418 C 33.4926,64.066 24.3773,60.2 15.0555,60.2 7.11406,60.2 3.24727,62.0621 0.554297,62.616 V 73.25"
       style="fill:#11497a;fill-opacity:1;fill-rule:nonzero;stroke:none;stroke-width:0.1"
       id="path4742" />
    <path
       d="m 37.8461,96.6582 h 5.7309 l 0.2761,8.6998 5.6625,0.345 -0.2765,-9.0448 h 11.1863 v -4.35 H 49.1699 C 49.032,86.3691 48.8934,80.3609 48.8934,74.423 c 0,-5.1089 0,-9.5289 5.455,-9.5289 2.9004,0 5.5246,0.8289 7.0442,1.4508 L 61.1852,61.8551 C 59.3895,60.9582 56.0754,60.2 53.1746,60.2 c -9.9433,0 -9.9433,7.1121 -9.9433,11.6691 0,4.3489 0.2078,15.2598 0.2761,20.4391 h -5.6613 v 4.35"
       style="fill:#11497a;fill-opacity:1;fill-rule:nonzero;stroke:none;stroke-width:0.1"
       id="path4744" />
    <path
       d="m 81.682,64.8941 c 7.5969,0 11.3246,6.2149 11.3246,13.9481 0,7.7348 -3.7277,13.95 -11.3246,13.95 -7.5953,0 -11.3234,-6.2152 -11.3234,-13.95 0,-7.7332 3.7281,-13.9481 11.3234,-13.9481 z m 0,32.5918 c 10.8422,0 17.2629,-7.4578 17.2629,-17.6769 0,-11.325 -6.4207,-19.609 -17.2629,-19.609 -10.8402,0 -17.2632,7.4559 -17.2632,17.675 0,11.3262 6.423,19.6109 17.2632,19.6109"
       style="fill:#11497a;fill-opacity:1;fill-rule:nonzero;stroke:none;stroke-width:0.1"
       id="path4746" />
    <path
       d="m 133.393,61.925 c -2.763,-0.8281 -6.354,-1.725 -10.29,-1.725 -14.086,0 -18.575,9.3199 -18.575,18.6422 0,13.6027 9.874,18.6437 17.816,18.6437 3.936,0 7.872,-0.4828 11.532,-1.7949 v -9.3219 h -5.11 v 5.593 c -1.519,0.552 -4.351,0.8301 -5.939,0.8301 -10.288,0 -12.36,-8.1481 -12.36,-13.95 0,-1.932 0.276,-13.9481 13.534,-13.9481 3.522,0 6.353,0.9688 9.668,2.0008 l -0.276,-4.9699"
       style="fill:#11497a;fill-opacity:1;fill-rule:nonzero;stroke:none;stroke-width:0.1"
       id="path4748" />
    <path
       d="m 143.763,109.777 h -6.907 v 4.352 h 12.569 l -0.138,-33.145 13.603,11.1871 v 0.1371 h -4.971 v 4.35 h 15.467 v -4.35 h -3.66 L 154.948,80.293 171.038,65.377 h 3.867 v -4.35 h -15.467 v 4.35 h 4.281 v 0.1378 L 149.287,79.2559 149.149,65.377 h 4.696 v -4.35 h -15.469 v 4.35 h 5.11 l 0.277,44.4"
       style="fill:#11497a;fill-opacity:1;fill-rule:nonzero;stroke:none;stroke-width:0.1"
       id="path4750" />
    <path
       d="m 184.019,109.777 h -6.906 v 4.352 h 12.569 l -0.07,-18.7149 c 0,-1.586 -0.414,-5.1102 -0.69,-6.6289 h 0.138 c 1.52,5.3859 7.251,8.7007 12.636,8.7007 9.806,0 12.224,-6.6289 12.224,-13.3949 0,-6.0769 -0.277,-13.189 -0.277,-18.714 h 5.249 v -4.35 h -15.468 v 4.35 h 4.556 c 0,5.525 0.276,11.325 0.276,17.057 0,3.4512 -0.137,10.3582 -8.076,10.3582 -5.043,0 -10.568,-3.0383 -10.568,-12.7051 L 189.405,65.377 h 5.249 v -4.35 h -16.021 v 4.35 h 5.111 l 0.275,44.4"
       style="fill:#11497a;fill-opacity:1;fill-rule:nonzero;stroke:none;stroke-width:0.1"
       id="path4752" />
    <path
       d="m 239.918,64.8941 c 7.596,0 11.324,6.2149 11.324,13.9481 0,7.7348 -3.728,13.95 -11.324,13.95 -7.598,0 -11.324,-6.2152 -11.324,-13.95 0,-7.7332 3.726,-13.9481 11.324,-13.9481 z m 0,32.5918 c 10.841,0 17.262,-7.4578 17.262,-17.6769 0,-11.325 -6.421,-19.609 -17.262,-19.609 -10.843,0 -17.264,7.4559 -17.264,17.675 0,11.3262 6.421,19.6109 17.264,19.6109"
       style="fill:#11497a;fill-opacity:1;fill-rule:nonzero;stroke:none;stroke-width:0.1"
       id="path4754" />
    <path
       d="m 266.381,109.777 h -6.905 v 4.352 h 12.571 l -0.278,-48.752 h 5.663 v -4.35 h -16.435 v 4.35 h 5.11 l 0.274,44.4"
       style="fill:#11497a;fill-opacity:1;fill-rule:nonzero;stroke:none;stroke-width:0.1"
       id="path4756" />
    <path
       d="m 282.459,65.377 h 4.56 l 0.275,26.9312 h -5.73 v 4.35 h 11.393 c 0,-1.3812 -0.07,-3.316 -0.207,-4.2812 l -0.555,-3.5918 h 0.14 c 1.52,5.3859 7.251,8.7007 12.637,8.7007 6.491,0 9.874,-3.7277 10.77,-8.355 h 0.14 c 0.69,1.5203 2.901,8.355 12.083,8.355 9.805,0 12.222,-6.6289 12.222,-13.3949 0,-6.0769 -0.275,-13.189 -0.275,-18.714 h 5.248 v -4.35 h -15.469 v 4.35 h 4.559 c 0.068,5.8011 0.274,11.5332 0.274,17.264 0,5.1781 -1.105,10.1512 -7.731,10.1512 -4.628,0 -10.152,-3.0383 -10.221,-12.7051 L 316.435,65.377 h 5.109 v -4.35 h -15.536 v 4.35 h 4.555 c 0.073,5.8011 0.278,11.5332 0.278,17.264 0,5.1781 -1.105,10.1512 -7.735,10.1512 -4.626,0 -10.149,-3.0383 -10.219,-12.7051 L 292.75,65.377 h 5.178 v -4.35 h -15.469 v 4.35"
       style="fill:#11497a;fill-opacity:1;fill-rule:nonzero;stroke:none;stroke-width:0.1"
       id="path4758" />
    <path
       d="m 374.561,86.7832 h -5.111 l -0.274,5.041 c -1.313,1.1039 -4.626,1.3117 -6.284,1.3117 -3.589,0 -8.215,-1.1738 -8.215,-5.455 0,-3.8668 3.452,-5.0399 8.698,-5.9387 9.047,-1.5192 12.847,-4.2793 12.847,-10.1512 0,-6.35 -4.283,-11.391 -14.572,-11.391 -3.869,0 -10.012,0.966 -12.221,2.1379 l -0.279,9.118 h 5.11 l 0.278,-5.3188 c 2.138,-1.0359 5.731,-1.5891 8.079,-1.5891 3.729,0 8.217,1.5891 8.217,5.9391 0,3.5199 -3.66,4.7649 -7.525,5.593 -9.532,2.0719 -14.295,3.7289 -14.295,10.7031 0,5.7309 3.796,10.7027 14.017,10.7027 2.97,0 8.492,-0.9668 11.255,-2.139 l 0.275,-8.5637"
       style="fill:#11497a;fill-opacity:1;fill-rule:nonzero;stroke:none;stroke-width:0.1"
       id="path4760" />
    <path
       d="m 0,36.4602 h 11.3934 c 0,-6.4922 -0.2762,-12.9141 -0.2762,-21.0633 0,-5.177 0.9668,-10.70276 7.8719,-10.70276 10.3582,0 10.4968,11.25506 10.4968,16.36486 v 11.05 h -5.5933 v 4.3512 H 35.2859 L 35.0098,5.17695 h 4.9711 V 0.828125 H 29.4164 c 0,1.380855 0.0695,3.312895 0.2066,4.280855 L 30.1758,8.7 H 30.0371 C 28.5184,4.48789 24.0996,0 18.023,0 7.80313,0 5.45508,6.49102 5.45508,14.5699 c 0,6.4891 0.20703,12.0141 0.27617,17.5391 H 0 v 4.3512"
       style="fill:#11497a;fill-opacity:1;fill-rule:nonzero;stroke:none;stroke-width:0.1"
       id="path4762" />
    <path
       d="m 69.8805,5.17695 h 4.557 c 0,5.52615 0.2766,11.32615 0.2766,17.05705 0,3.4519 -0.1379,10.3582 -8.0793,10.3582 -5.0407,0 -10.5657,-3.0383 -10.5657,-12.7063 L 55.9316,5.17695 h 5.1797 V 0.828125 H 45.6422 V 5.17695 h 4.5582 L 50.4766,32.109 h -5.7317 v 4.3512 h 11.3938 c 0,-1.3821 -0.0696,-3.3172 -0.2071,-4.284 l -0.5523,-3.591 h 0.1383 c 1.5195,5.3867 7.2504,8.7027 12.6367,8.7027 9.8047,0 12.2219,-6.6309 12.2219,-13.3969 0,-6.0762 -0.2766,-13.1879 -0.2766,-18.71405 h 5.2481 V 0.828125 H 69.8805 V 5.17695"
       style="fill:#11497a;fill-opacity:1;fill-rule:nonzero;stroke:none;stroke-width:0.1"
       id="path4764" />
    <path
       d="m 97.9828,54.484 c 2.3482,0 4.2812,-1.9371 4.2812,-4.282 0,-2.3481 -1.933,-4.2821 -4.2812,-4.2821 -2.3476,0 -4.2808,1.934 -4.2808,4.2821 0,2.3449 1.9332,4.2812 4.2808,4.282 z m -2.141,-22.375 h -6.4902 v 4.3512 H 101.504 L 101.228,5.17695 h 5.663 V 0.828125 H 89.9043 V 5.17695 H 95.566 L 95.8418,32.109"
       style="fill:#11497a;fill-opacity:1;fill-rule:nonzero;stroke:none;stroke-width:0.1"
       id="path4766" />
    <path
       d="m 107.004,36.4602 h 14.64 V 32.109 h -4.281 l 8.216,-22.85705 c 0.346,-0.96679 0.553,-2.00195 0.759,-3.03906 h 0.139 c 0.208,1.03711 0.414,2.07227 0.76,3.03906 l 8.425,22.85705 h -4.627 v 4.3512 H 145.26 V 32.109 h -3.937 L 129.033,0.828125 H 123.37 L 111.01,32.109 h -4.006 v 4.3512"
       style="fill:#11497a;fill-opacity:1;fill-rule:nonzero;stroke:none;stroke-width:0.1"
       id="path4768" />
    <path
       d="m 173.154,22.509 c 0,5.593 -3.521,10.4281 -9.459,10.4281 -6.077,0 -10.219,-4.559 -10.565,-10.4281 z M 153.13,18.1602 c 0.207,-7.3211 3.384,-13.46606 13.534,-13.46606 3.866,0 7.734,1.175 10.703,2.6918 L 177.159,2.48516 C 174.537,1.17188 169.011,0 165.422,0 c -11.256,0 -18.231,6.14609 -18.231,18.5742 0,10.4949 5.663,18.7137 16.504,18.7137 14.086,0 15.399,-12.7758 15.399,-19.1277 H 153.13"
       style="fill:#11497a;fill-opacity:1;fill-rule:nonzero;stroke:none;stroke-width:0.1"
       id="path4770" />
    <path
       d="m 190.211,32.109 h -6.078 v 4.3512 h 11.742 v -1.934 c 0,-2.0731 -0.416,-6.284 -0.762,-9.1852 h 0.207 c 1.382,5.2469 3.246,11.7391 12.085,11.7391 0.484,0 3.317,-0.2762 3.591,-0.552 l -0.553,-5.1109 c -0.967,0.3449 -2.486,0.5539 -3.865,0.5539 -7.32,0 -10.564,-7.182 -10.703,-13.466 L 195.597,5.17695 h 6.008 V 0.828125 H 184.893 V 5.17695 h 5.041 l 0.277,26.93205"
       style="fill:#11497a;fill-opacity:1;fill-rule:nonzero;stroke:none;stroke-width:0.1"
       id="path4772" />
    <path
       d="m 238.886,26.584 h -5.11 l -0.277,5.041 c -1.312,1.1039 -4.627,1.3121 -6.282,1.3121 -3.592,0 -8.217,-1.175 -8.217,-5.4539 0,-3.868 3.451,-5.041 8.7,-5.941 9.047,-1.5192 12.843,-4.2801 12.843,-10.15 C 240.543,5.04102 236.262,0 225.973,0 222.106,0 215.961,0.966016 213.752,2.13789 l -0.277,9.11801 h 5.111 l 0.277,-5.31879 c 2.138,-1.03516 5.73,-1.58828 8.076,-1.58828 3.73,0 8.219,1.58828 8.219,5.93827 0,3.5219 -3.659,4.7649 -7.528,5.593 -9.529,2.073 -14.293,3.7301 -14.293,10.7039 0,5.7308 3.798,10.7039 14.018,10.7039 2.969,0 8.493,-0.9668 11.254,-2.141 l 0.277,-8.5629"
       style="fill:#11497a;fill-opacity:1;fill-rule:nonzero;stroke:none;stroke-width:0.1"
       id="path4774" />
    <path
       d="m 254.272,54.484 c 2.35,0 4.282,-1.9371 4.282,-4.282 0,-2.3481 -1.932,-4.2821 -4.282,-4.2821 -2.348,0 -4.282,1.934 -4.282,4.2821 0,2.3449 1.934,4.282 4.282,4.282 z m -2.141,-22.375 h -6.49 v 4.3512 h 12.153 L 257.516,5.17695 h 5.666 V 0.828125 H 246.193 V 5.17695 h 5.662 l 0.276,26.93205"
       style="fill:#11497a;fill-opacity:1;fill-rule:nonzero;stroke:none;stroke-width:0.1"
       id="path4776" />
    <path
       d="m 265.776,36.4602 h 5.73 l 0.275,8.7 5.664,0.3449 -0.277,-9.0449 h 11.187 V 32.109 H 277.1 c -0.137,-5.9391 -0.276,-11.9461 -0.276,-17.8852 0,-5.10857 0,-9.52966 5.455,-9.52966 2.9,0 5.524,0.83008 7.043,1.45195 L 289.115,1.65586 C 287.319,0.758203 284.006,0 281.103,0 c -9.943,0 -9.943,7.11289 -9.943,11.6699 0,4.3492 0.209,15.259 0.277,20.4391 h -5.661 v 4.3512"
       style="fill:#11497a;fill-opacity:1;fill-rule:nonzero;stroke:none;stroke-width:0.1"
       id="path4778" />
    <path
       d="m 317.562,22.509 c 0,5.593 -3.522,10.4281 -9.462,10.4281 -6.077,0 -10.217,-4.559 -10.564,-10.4281 z m -20.026,-4.3488 c 0.208,-7.3211 3.384,-13.46606 13.535,-13.46606 3.866,0 7.732,1.175 10.703,2.6918 L 321.566,2.48516 C 318.941,1.17188 313.418,0 309.826,0 c -11.252,0 -18.228,6.14609 -18.228,18.5742 0,10.4949 5.662,18.7137 16.502,18.7137 14.088,0 15.401,-12.7758 15.401,-19.1277 h -25.965"
       style="fill:#11497a;fill-opacity:1;fill-rule:nonzero;stroke:none;stroke-width:0.1"
       id="path4780" />
    <path
       d="m 326.098,36.4602 h 5.732 l 0.276,8.7 5.662,0.3449 -0.275,-9.0449 h 11.186 V 32.109 h -11.255 c -0.139,-5.9391 -0.278,-11.9461 -0.278,-17.8852 0,-5.10857 0,-9.52966 5.457,-9.52966 2.9,0 5.524,0.83008 7.043,1.45195 L 349.438,1.65586 C 347.643,0.758203 344.328,0 341.429,0 c -9.944,0 -9.944,7.11289 -9.944,11.6699 0,4.3492 0.205,15.259 0.275,20.4391 h -5.662 v 4.3512"
       style="fill:#11497a;fill-opacity:1;fill-rule:nonzero;stroke:none;stroke-width:0.1"
       id="path4782" />
    <path
       d="m 150.373,295.601 c 0.146,-0.16 0.075,-0.272 -0.078,-0.4 -0.275,-0.224 -1.815,-2.477 -1.992,-2.756 -0.114,-0.188 -0.132,0.142 -0.068,0.33 0.18,0.53 0.697,2.672 -1.105,4.271 -1.277,1.134 -3.25,0.47 -3.971,-0.597 -0.966,-1.429 -0.994,-2.733 0,-6.465 1.033,-3.897 0.604,-5.331 -0.822,-6.983 -1.317,-1.519 -4.383,-2.347 -7.075,-0.48 -2.768,1.929 -2.882,2.372 -3.314,2.545 -0.338,0.137 -0.327,0.408 0.012,0.808 0.491,0.578 2.131,2.815 2.414,3.227 0.188,0.282 0.227,-0.035 0.033,-0.459 -0.264,-0.569 -1.219,-3.326 1.069,-4.876 2.221,-1.499 3.647,-0.518 4.397,0.365 0.834,0.982 1.305,1.932 0.138,6.399 -1.231,4.714 -0.381,6.256 1.401,7.65 1.838,1.436 4.281,1.527 6.275,-0.044 1.075,-0.839 1.611,-1.432 2.017,-1.816 0.228,-0.221 0.346,-0.472 0.465,-0.585 0.088,-0.083 0.135,-0.047 0.204,-0.134"
       style="fill:#11497a;fill-opacity:1;fill-rule:nonzero;stroke:none;stroke-width:0.1"
       id="path4784" />
    <path
       d="m 2.57891,242.334 c 0.06757,0.159 0.24961,0.083 0.47617,0 0.58125,-0.214 2.37148,-0.501 2.96015,-0.518 0.49727,-0.019 -0.34179,-0.376 -0.60273,-0.407 -0.70078,-0.088 -2.09844,-0.503 -2.72266,-2.83 -0.43867,-1.653 0.5625,-2.968 1.8293,-3.234 2.05078,-0.425 3.12617,0.36 6.14416,2.775 3.0902,2.476 5.1789,2.794 7.1472,2.233 1.825,-0.517 3.9958,-2.925 3.2809,-6.023 -0.6195,-2.691 -1.3609,-3.19 -1.5781,-3.755 -0.1266,-0.35 -0.2797,-0.472 -0.7922,-0.329 -0.6535,0.179 -3.1148,0.541 -3.5602,0.588 -0.7933,0.09 -0.4589,0.392 0,0.452 1.2696,0.161 4.0293,0.505 4.5809,3.218 0.4055,2.022 -0.9496,2.98 -2.1434,3.266 -1.2566,0.31 -2.6238,0.267 -6.1586,-2.662 -3.81363,-3.155 -5.43941,-3.147 -7.4898,-2.212 -2.16836,0.988 -3.077344,2.947 -2.61094,5.588 0.29571,1.68 1.03477,3.16 1.15547,3.332 0.08438,0.12 0.03906,0.405 0.08438,0.518"
       style="fill:#11497a;fill-opacity:1;fill-rule:nonzero;stroke:none;stroke-width:0.1"
       id="path4786" />
    <path
       d="m 119.433,131.148 c -0.265,0 -0.212,0.231 -0.254,0.39 0,0 -0.675,2.243 -0.738,2.417 -0.074,0.204 0.134,0.241 0.267,0.083 0.352,-0.393 1.805,-1.746 3.856,-1.232 1.634,0.409 2.541,2.162 2.13,3.385 -0.537,1.634 -2.139,2.404 -5.646,4.016 -3.166,1.462 -4.191,2.929 -4.48,4.747 -0.338,2.134 1.036,5.142 4.07,6.076 2.65,0.816 3.285,0.741 3.804,1.001 0.4,0.212 0.459,-0.624 0.516,-0.777 0.253,-0.706 0.941,-2.901 1.102,-3.312 0.138,-0.385 -0.144,-0.519 -0.337,-0.103 -0.261,0.564 -2.157,2.823 -4.551,2.045 -2.364,-0.765 -2.71,-2.447 -2.383,-3.565 0.368,-1.235 0.585,-2.221 5.028,-4.086 4.325,-1.82 5.172,-3.687 5.189,-5.78 0.017,-2.332 -1.832,-4.14 -4.294,-4.762 -1.322,-0.336 -1.58,-0.239 -2.131,-0.32 -0.316,-0.052 -0.565,-0.069 -0.729,-0.091 -0.117,-0.019 -0.203,-0.132 -0.419,-0.132"
       style="fill:#11497a;fill-opacity:1;fill-rule:nonzero;stroke:none;stroke-width:0.1"
       id="path4788" />
    <path
       d="m 152.478,290.706 c 0.483,0.212 1.287,0.632 1.782,1.049 0.22,0.184 0.649,0 0.919,-0.264 0.177,-0.176 4.035,-3.992 4.799,-4.812 1.03,-1.099 4.459,-4.243 4.902,-4.666 0.437,-0.418 0.855,-0.657 0.416,-0.948 -0.442,-0.285 -1.391,-0.832 -1.675,-0.969 -0.259,-0.133 -0.192,-0.032 -0.192,0.291 0,0.329 -0.223,0.812 -1.185,1.809 -0.962,1.005 -2.066,2.148 -2.266,2.309 -0.2,0.164 -0.272,0.192 -0.444,0.038 -0.277,-0.251 -4.061,-4.089 -4.914,-4.969 -0.784,-0.805 -5.719,-5.652 -5.865,-6.41 -0.151,-0.784 0.102,-0.946 0.2,-1.095 0.118,-0.189 0.22,-0.785 -0.022,-0.542 -0.24,0.24 -1.824,1.969 -2.198,2.32 -0.424,0.389 -1.908,1.649 -2.132,1.853 -0.191,0.169 -0.067,0.327 0.319,0.173 0.341,-0.141 0.872,-0.433 1.682,-0.028 1.132,0.562 5.364,4.942 5.959,5.543 0.602,0.601 4.699,4.871 4.817,4.992 0.186,0.205 0.251,0.303 -0.016,0.629 -0.291,0.365 -2.802,2.751 -3.32,3.093 -0.46,0.302 -0.754,0.436 -1.154,0.436 -0.334,0 -0.766,0.004 -0.412,0.168"
       style="fill:#11497a;fill-opacity:1;fill-rule:nonzero;stroke:none;stroke-width:0.1"
       id="path4790" />
    <path
       d="m 11.6316,259.979 c -0.3566,0.392 -1.207,1.131 -1.70113,1.548 -0.21953,0.183 -0.09805,0.431 0.10003,0.753 0.1273,0.208 2.8355,5.18 3.4496,6.119 0.8242,1.269 3.2629,5.346 3.5695,5.877 0.325,0.56 0.5328,0.933 0.7863,0.697 0.3836,-0.36 1.0621,-1.16 1.2387,-1.42 0.2152,-0.301 0.0918,-0.15 -0.2285,-0.15 -0.3332,0 -0.7344,-0.643 -1.4781,-1.809 -0.743,-1.173 -1.3321,-2.382 -1.4403,-2.618 -0.1527,-0.326 0.0614,-0.422 0.2465,-0.554 0.3168,-0.206 4.7938,-2.974 5.8535,-3.595 0.9661,-0.565 6.8578,-3.922 7.7114,-3.883 0.8004,0.036 0.7929,0.174 0.9425,0.279 0.2293,0.158 0.6864,0.232 0.4598,-0.018 -0.2652,-0.296 -1.2805,-1.794 -1.6027,-2.403 -0.3754,-0.679 -1.2453,-2.288 -1.3621,-2.54 -0.1118,-0.228 -0.1231,0.165 -0.0981,0.515 0.0238,0.412 0.2735,0.784 -0.3402,1.287 -1.0817,0.888 -6.2344,3.906 -6.9613,4.341 -0.7215,0.44 -5.7575,3.29 -6.1122,3.411 -0.2601,0.095 -0.4812,0.405 -0.6812,0.027 -0.2465,-0.459 -2.1129,-3.395 -2.2731,-4.407 -0.0757,-0.459 -0.1085,-0.628 -0.0214,-1.044 0.0961,-0.437 0.1105,-0.598 -0.0575,-0.413"
       style="fill:#11497a;fill-opacity:1;fill-rule:nonzero;stroke:none;stroke-width:0.1"
       id="path4792" />
    <path
       d="m 34.6969,290.227 c -0.1766,0.723 -0.6918,1.4 -0.9641,1.948 -0.1664,0.329 -0.1707,0.317 0.2633,0.671 0.1902,0.152 4.7043,3.488 5.5957,4.172 1.2242,0.937 5.3617,3.73 5.8578,4.09 0.5227,0.381 1.0469,0.573 1.2109,0.118 0.1813,-0.498 0.6754,-1.669 0.7622,-1.974 0.1211,-0.448 -0.0629,-0.114 -0.3813,0.169 -0.2484,0.219 -0.6976,0.184 -1.8523,-0.591 -1.1348,-0.756 -2.7657,-1.839 -2.9887,-2.037 -0.2727,-0.243 -0.1891,-0.202 -0.0863,-0.403 0.2558,-0.506 3.2257,-4.879 4.0617,-5.983 0.6859,-0.902 4.7961,-6.723 5.5805,-7.061 0.5257,-0.236 0.8484,-0.066 0.9847,-0.035 0.2414,0.055 0.5442,-0.031 0.136,-0.267 -0.3473,-0.196 -1.6457,-1.067 -2.0832,-1.362 -0.4708,-0.322 -1.6012,-1.189 -2.0012,-1.539 -0.4836,-0.408 -0.3492,0.032 -0.1293,0.319 0.1883,0.238 0.3726,0.467 0.0637,1.189 -0.5918,1.386 -3.5778,5.676 -4.3426,6.747 -0.4942,0.69 -4.4078,5.931 -4.6598,6.261 -0.1387,0.183 -0.1855,0.248 -0.5308,0 -0.3778,-0.271 -3.3895,-2.571 -3.8391,-2.991 -0.3484,-0.334 -0.5379,-0.413 -0.5699,-0.86 -0.0168,-0.266 -0.0059,-0.918 -0.0879,-0.581"
       style="fill:#11497a;fill-opacity:1;fill-rule:nonzero;stroke:none;stroke-width:0.1"
       id="path4794" />
    <path
       d="m 161.028,270.166 c -4.155,-4.039 -3.648,-8.612 -1.516,-10.768 2.096,-2.127 6.694,-2.496 10.688,1.347 4.067,3.9 3.678,9.06 1.116,11.312 -1.878,1.652 -6.093,2.179 -10.288,-1.891 z m 11.623,2.385 c 2.781,-2.903 5.007,-9.769 -0.718,-14.538 -4.868,-4.063 -11.088,-2.391 -13.675,0.479 -2.401,2.653 -4.853,8.859 0.414,14.004 5.114,4.994 11.339,2.815 13.979,0.055"
       style="fill:#11497a;fill-opacity:1;fill-rule:nonzero;stroke:none;stroke-width:0.1"
       id="path4796" />
    <path
       d="m 170.946,188.276 c -5.669,2.03 -9.281,-0.659 -10.2,-3.356 -0.874,-2.591 0.138,-6.465 5.87,-8.621 5.547,-2.075 9.715,-0.018 10.666,3.726 0.354,1.398 0.435,5.825 -6.336,8.251 z m 7.306,-9.505 c -1.289,-4.131 -6.814,-8.598 -13.443,-5.639 -5.439,2.432 -6.715,8.495 -5.422,12.169 1.19,3.38 6.11,8.354 12.498,5.876 6.285,-2.445 7.673,-8.211 6.367,-12.406"
       style="fill:#11497a;fill-opacity:1;fill-rule:nonzero;stroke:none;stroke-width:0.1"
       id="path4798" />
    <path
       d="m 171.044,235.737 c -0.489,-0.012 -2.013,0.173 -2.506,0.271 -0.571,0.118 -0.65,0.13 -0.83,0.373 -0.152,0.196 -2.565,3.078 -2.565,7.5 0,4.837 2.298,8.809 6.911,10.17 3.995,1.182 8.176,-0.501 10.584,-3.575 1.931,-2.457 2.161,-5.616 2.223,-6.617 0.088,-1.398 0.214,-2.241 0.277,-2.686 0.123,-0.76 0.114,-0.965 0.275,-1.166 0.159,-0.2 -0.069,-0.391 -0.359,-0.427 -0.343,-0.039 -1.387,-0.184 -1.948,-0.318 -0.418,-0.101 -1.273,-0.337 -1.392,-0.366 -0.605,-0.144 -0.579,0.017 -0.113,0.366 0.345,0.248 1.694,0.923 1.923,2.643 0.194,1.53 0.443,4.878 -1.985,7.347 -1.792,1.828 -4.798,3.289 -9.114,1.518 -3.419,-1.401 -5.7,-4.459 -5.724,-8.061 -0.026,-3.629 2.098,-5.786 4.166,-6.525 0.655,-0.232 1.022,-0.428 0.177,-0.447"
       style="fill:#11497a;fill-opacity:1;fill-rule:nonzero;stroke:none;stroke-width:0.1"
       id="path4800" />
    <path
       d="m 186.769,233.398 c -0.007,-0.736 0.336,-4.055 0.475,-4.706 0.167,-0.782 -0.18,-0.421 -0.227,-0.138 -0.049,0.242 -0.343,0.718 -0.926,0.776 -0.908,0.091 -4.85,-0.192 -8.096,-0.603 1.473,-1.568 6.366,-5.087 7.027,-5.546 0.797,-0.567 1.591,-1.074 1.842,-1.062 0.172,0.012 0.086,-0.132 0.163,0.088 0.103,0.31 0.425,1.295 0.372,-0.209 -0.014,-0.36 -0.031,-1.436 0.004,-1.715 0.038,-0.283 0.131,-1.028 0.154,-1.19 0.114,-0.812 -0.023,-0.647 -0.619,0.092 -0.892,1.088 -2.807,2.442 -3.5,2.942 -0.662,0.477 -4.878,3.668 -4.878,3.668 0,0 -6.047,-5.748 -7.192,-7 -0.402,-0.44 -1.933,-2.033 -2.357,-2.982 -0.195,-0.442 -0.354,-0.652 -0.284,-0.236 0.049,0.266 0.236,1.919 0.279,2.643 0.038,0.63 0.106,2.596 0.114,2.789 0.024,0.393 0.178,0.098 0.39,0.043 0.306,-0.084 2.02,1.518 3.89,3.357 1.416,1.398 3.787,3.964 3.96,4.212 -0.507,0.059 -5.002,-0.504 -5.877,-0.696 -0.887,-0.199 -1.822,-0.435 -2.1,-0.754 -0.281,-0.317 -0.375,-0.517 -0.402,-0.773 -0.03,-0.24 -0.266,-0.36 -0.307,-0.039 -0.036,0.317 -0.114,2.045 -0.15,2.654 -0.039,0.639 -0.248,2.037 -0.288,2.246 -0.038,0.188 0.163,0.364 0.282,0.081 0.122,-0.282 0.202,-0.416 0.562,-0.561 0.678,-0.266 1.583,-0.275 8.259,0.507 6.683,0.772 7.195,0.954 7.873,1.131 0.707,0.188 1.143,0.447 1.226,1.046 0.048,0.35 0.348,1.026 0.331,-0.065"
       style="fill:#11497a;fill-opacity:1;fill-rule:nonzero;stroke:none;stroke-width:0.1"
       id="path4802" />
    <path
       d="m 186.898,210.473 c -0.13,-0.604 -0.672,-3.897 -0.672,-4.561 -0.003,-0.67 -0.312,-0.67 -0.386,-0.223 -0.106,0.639 -0.354,0.722 -0.626,0.887 -0.281,0.172 -1.09,0.455 -3.32,0.813 -2.313,0.368 -3.817,0.632 -3.817,0.632 0,0 -0.72,-3.046 -1.119,-4.896 -0.504,-2.315 -1.058,-5.385 -1.058,-5.385 0,0 3.253,-0.922 4.45,-1.257 1.194,-0.331 3.024,-1.085 3.611,-0.098 0.411,0.692 0.666,0.542 0.277,-0.199 -0.136,-0.264 -0.949,-3.427 -1.077,-4.056 -0.241,-1.172 -0.396,-0.434 -0.348,-0.156 0.047,0.251 0.276,0.757 -0.761,1.166 -1.03,0.415 -4.523,1.582 -7.591,2.462 -3.068,0.875 -6.584,2 -7.972,1.883 -0.693,-0.059 -0.881,-0.215 -1.047,-0.451 -0.233,-0.33 -0.647,-0.433 -0.318,0.11 0.311,0.51 1.095,3.336 1.227,4.224 0.201,1.369 0.419,0.415 0.388,0.155 -0.037,-0.321 0.057,-0.717 0.638,-1.05 1.499,-0.841 7.062,-2.302 7.062,-2.302 0,0 0.712,2.811 1.184,4.975 0.559,2.554 0.938,5.083 0.938,5.083 0,0 -1.41,0.226 -2.408,0.4 -0.998,0.173 -4.705,0.706 -5.202,0.558 -0.466,-0.142 -0.728,-0.499 -0.796,-0.707 -0.074,-0.233 -0.533,-0.675 -0.276,0.16 0.178,0.596 0.542,2.869 0.606,4.178 0.058,1.176 0.366,0.663 0.379,0.329 0.012,-0.259 0.284,-0.703 0.535,-0.812 1.237,-0.539 3.44,-0.853 7.948,-1.519 4.509,-0.665 7.91,-1.136 8.517,-0.924 0.651,0.221 0.607,0.464 0.733,0.743 0.121,0.276 0.482,0.687 0.301,-0.162"
       style="fill:#11497a;fill-opacity:1;fill-rule:nonzero;stroke:none;stroke-width:0.1"
       id="path4804" />
    <path
       d="m 168.552,164.093 c -0.509,-0.354 -2.489,-2.759 -3.093,-3.591 -0.48,-0.653 -0.409,-0.134 -0.285,0.128 0.231,0.475 0.09,0.621 -0.09,1.034 -0.3,0.675 -2.616,2.558 -5.602,5.06 -2.942,2.452 -5.615,4.733 -6.417,4.769 -0.4,0.018 -0.749,0.047 -1.574,-0.704 -1.243,-1.137 -2.709,-2.956 -3.045,-3.544 -0.476,-0.842 -0.38,-1.64 -0.377,-1.911 0.006,-0.448 -0.134,-0.393 -0.288,-0.004 -0.175,0.439 -0.599,2.186 -0.624,2.503 -0.015,0.245 0,0.365 0.265,0.66 0.463,0.502 4.375,4.935 4.948,5.57 0.625,0.703 1.572,1.815 1.816,2.236 0.372,0.638 0.495,0.178 0.376,-0.143 -0.117,-0.326 -0.383,-0.703 -0.182,-1.296 0.392,-1.162 4.082,-3.89 6.21,-5.597 4.17,-3.361 6.211,-5.128 6.893,-5.132 0.529,-0.007 0.672,0.087 0.922,0.291 0.197,0.162 0.682,0.045 0.147,-0.329"
       style="fill:#11497a;fill-opacity:1;fill-rule:nonzero;stroke:none;stroke-width:0.1"
       id="path4806" />
    <path
       d="m 144.581,164.29 c 0.205,-0.508 2.195,-3.933 4.276,-7.424 2.153,-3.603 4.481,-7.356 4.801,-7.917 0.634,-1.103 0.653,-1.369 -0.44,-0.826 -1.584,0.785 -7.936,3.986 -8.964,4.482 -1.075,0.518 -6.246,3.143 -6.246,3.143 0,0 1.123,-8.47 1.206,-8.947 0.078,-0.482 1.006,-7.536 1.052,-7.888 0.045,-0.358 0.051,-0.917 -0.589,-0.314 -0.639,0.6 -10.664,13.391 -11.167,13.971 -0.481,0.553 -0.97,0.796 -1.468,0.861 -0.397,0.047 -0.591,0.031 -0.785,-0.045 -0.253,-0.094 -0.448,0.139 -0.082,0.283 0.447,0.173 4.025,2.018 4.377,2.234 0.225,0.131 0.525,-0.046 0.188,-0.254 -0.446,-0.279 -0.51,-0.475 -0.417,-0.879 0.221,-0.974 7.477,-9.981 7.477,-9.981 0,0 -1.239,8.091 -1.442,9.125 -0.198,1.046 -0.922,5.806 -0.922,5.806 0,0 0.002,0.302 0.306,0.14 0.32,-0.168 7.401,-3.786 8.15,-4.154 0.707,-0.362 5.303,-2.615 5.303,-2.615 0,0 -3.986,6.464 -5.632,9.049 -0.412,0.651 -0.848,0.948 -1.078,0.995 -0.56,0.114 -0.741,-0.125 -1.062,-0.26 -0.164,-0.07 -0.425,0.132 0.069,0.426 0.601,0.355 1.259,0.872 1.659,1.193 0.398,0.317 1.43,1.301 1.594,1.46 0.196,0.2 0.424,-0.044 0.236,-0.212 -0.384,-0.358 -0.701,-0.7 -0.4,-1.452"
       style="fill:#11497a;fill-opacity:1;fill-rule:nonzero;stroke:none;stroke-width:0.1"
       id="path4808" />
    <path
       d="m 100.796,139.674 c -0.044,-0.337 0.063,-4.255 0.105,-4.746 0.018,-0.23 -0.178,-0.161 -0.314,0.336 -0.042,0.155 -0.307,0.69 -0.8315,0.795 -1.5207,0.315 -4.3903,0.084 -4.3903,0.084 0,0 -0.0937,-4.535 0.3868,-5.056 0.4488,-0.487 0.5199,-0.435 0.7175,-0.479 0.1985,-0.044 0.686,-0.295 0.3653,-0.268 -0.6102,0.057 -4.025,0.057 -4.7981,-0.023 -0.557,-0.058 -0.2746,0.199 0.1969,0.306 0.4781,0.105 0.709,0.366 0.8887,0.963 0.2144,0.686 0.109,4.58 0.109,4.58 0,0 -4.17,0.037 -4.6915,-0.245 -0.4261,-0.222 -0.5203,-0.62 -0.5601,-0.942 -0.0406,-0.322 -0.3852,-0.612 -0.3395,-0.171 0.0817,0.784 0.1321,3.599 0.0375,4.234 -0.08,0.564 0.0489,0.484 0.236,0.149 0.2273,-0.408 0.1508,-0.645 0.6375,-0.84 0.5773,-0.227 4.6801,-0.161 4.6801,-0.161 0,0 0.0285,3.854 -0.0793,4.442 -0.1067,0.567 -0.5125,0.932 -0.9899,0.98 -0.2766,0.026 -0.525,0.273 -0.1641,0.235 1.2149,-0.13 3.6254,-0.082 4.5836,0.012 0.495,0.051 0.2004,-0.217 -0.1671,-0.31 -0.4094,-0.105 -0.8114,-0.332 -0.9707,-0.935 -0.1567,-0.593 -0.1333,-4.384 -0.1333,-4.384 0,0 3.5887,-0.046 4.2364,0.094 0.5461,0.117 0.8411,0.451 0.9621,0.959 0.073,0.323 0.323,0.721 0.287,0.391"
       style="fill:#11497a;fill-opacity:1;fill-rule:nonzero;stroke:none;stroke-width:0.1"
       id="path4810" />
    <path
       d="m 68.2672,130.467 c -0.6996,0.431 -3.9266,1.652 -5.1981,1.86 -0.5656,0.094 -0.0382,0.243 0.3176,0.215 0.4668,-0.041 0.8715,-0.105 1.209,0.258 0.8906,0.965 4.4082,9.832 4.8731,11.922 0.4785,2.17 0.548,4.966 -3.3805,6.369 -4.091,1.465 -5.7203,-0.767 -7.943,-4.948 -1.6199,-3.054 -4.2023,-8.476 -4.2023,-9.091 0,-0.471 0.1484,-0.641 0.4117,-0.849 0.3609,-0.297 0.5726,-0.778 0.2238,-0.498 -0.9047,0.723 -3.9226,1.997 -4.5105,2.179 -0.3532,0.112 -0.0684,0.31 0.3734,0.217 0.3731,-0.082 0.5313,0.012 0.8863,0.257 0.8832,0.613 5.3426,9.552 5.9328,10.522 1.0918,1.796 2.786,3.483 5.1512,3.906 2.5617,0.445 6.6121,-0.872 8.6852,-3.794 1.7246,-2.434 1.1301,-5.016 0.8113,-6.402 -0.3891,-1.685 -4.0684,-9.907 -4.0824,-11.012 -0.0039,-0.448 0.1871,-0.574 0.4281,-0.775 0.2391,-0.199 0.3731,-0.556 0.0133,-0.336"
       style="fill:#11497a;fill-opacity:1;fill-rule:nonzero;stroke:none;stroke-width:0.1"
       id="path4812" />
    <path
       d="m 42.5043,141.425 c 0,0 -0.7695,8.316 -1.0023,11.195 -0.2692,3.346 -1.1075,9.821 -1.1075,9.821 0,0 -6.5351,-7.067 -7.3808,-7.925 -0.8481,-0.856 -1.6282,-1.704 -1.6258,-2.285 0.0035,-0.589 0.2676,-0.707 0.3711,-0.914 0.0765,-0.169 0.225,-0.73 0.0617,-0.53 -0.3305,0.395 -1.0465,1.138 -1.7871,1.822 -0.6395,0.581 -1.293,1.105 -1.7309,1.403 -0.4433,0.299 0.1075,0.249 0.3493,0.091 0.239,-0.165 0.4117,-0.247 0.9035,-0.197 0.6226,0.08 5.3199,5.238 7.0644,7.062 1.7492,1.823 5.666,6.137 6.0727,6.688 0.2887,0.401 0.2863,0.22 0.3172,-0.206 0.0379,-0.534 0.7238,-9.084 0.8703,-10.073 0.1355,-0.924 0.5754,-6.736 0.6336,-7.386 0.057,-0.646 0.2539,-2.831 0.2539,-2.831 0,0 3.0023,4.317 4.0027,5.871 1.0031,1.554 3.0891,4.332 3.0844,5.075 -0.0063,0.784 -0.4211,1.019 -0.6684,1.26 -0.1367,0.139 -0.2437,0.494 0.066,0.221 0.6946,-0.621 2.8262,-2.164 4.1411,-2.764 0.6332,-0.294 -0.3141,-0.116 -0.4774,-0.036 -0.1023,0.039 -0.6953,0.173 -1.2113,-0.009 -0.6731,-0.238 -4.4481,-6.018 -5.1953,-7.126 -0.7774,-1.137 -3.0461,-4.317 -3.5746,-5.178 -0.5266,-0.858 -1.7485,-2.652 -1.9946,-3.096 -0.2578,-0.457 -0.3711,-0.418 -0.4359,0.047"
       style="fill:#11497a;fill-opacity:1;fill-rule:nonzero;stroke:none;stroke-width:0.1"
       id="path4814" />
    <path
       d="m 34.0867,176.255 c 0.2223,-0.425 0.8281,-1.34 1.5242,-2.216 0.6879,-0.856 1.4289,-1.616 1.8782,-2.037 0.3539,-0.339 -0.1391,-0.211 -0.4688,0.034 -0.3863,0.291 -0.7051,0.359 -1.7422,-0.207 -1.2133,-0.655 -11.9351,-9.682 -12.3449,-10.201 -0.4969,-0.617 -0.459,-0.922 -0.2477,-1.39 0.1614,-0.362 0.0493,-0.683 -0.0894,-0.451 -0.4148,0.666 -2.4496,3.484 -3.1813,4.021 -0.4746,0.348 0.0247,0.261 0.327,0.086 0.3258,-0.193 0.4227,-0.17 0.7805,-0.017 1.198,0.507 13.323,10.299 13.5105,10.987 0.1969,0.73 -0.0711,0.836 -0.0969,1.052 -0.0359,0.279 -0.082,0.765 0.1508,0.339"
       style="fill:#11497a;fill-opacity:1;fill-rule:nonzero;stroke:none;stroke-width:0.1"
       id="path4816" />
    <path
       d="m 24.7973,249.157 c -0.461,-0.715 -1.8493,-4.226 -2.0785,-5.243 -0.1079,-0.468 -0.3333,0.025 -0.2672,0.367 0.1175,0.594 0.2062,0.903 -0.7793,1.556 -1.2703,0.843 -13.93558,5.683 -15.21449,5.683 -0.65429,0 -0.80078,-0.266 -1.03711,-0.561 -0.20507,-0.26 -0.63867,-0.38 -0.36601,0.012 0.3082,0.435 1.98672,4.617 2.07929,5.205 0.09024,0.569 0.31407,-0.008 0.25469,-0.326 -0.09375,-0.479 -0.06054,-0.829 0.2375,-1.075 1.21133,-1.03 14.89613,-6.289 15.91133,-6.124 0.6922,0.113 0.6223,0.345 0.8578,0.565 0.2567,0.244 0.7277,0.44 0.402,-0.059"
       style="fill:#11497a;fill-opacity:1;fill-rule:nonzero;stroke:none;stroke-width:0.1"
       id="path4818" />
    <path
       d="m 20.0344,179.187 4.0562,5.419 c 0,0 -7.1117,-0.384 -8.6316,-0.511 -1.5188,-0.133 -5.95119,-0.317 -6.44572,-1.035 -0.33281,-0.482 -0.01914,-1.014 0.01094,-1.174 0.05859,-0.327 -0.01797,-0.84 -0.16016,-0.455 -0.08515,0.249 -0.63906,1.691 -1.07695,2.689 -0.39258,0.899 -0.91445,1.989 -1.04805,2.2 -0.2207,0.332 0.15157,0.248 0.3711,0.013 0.23281,-0.247 0.36172,-0.412 0.96132,-0.569 0.9961,-0.259 7.61402,0.079 8.89492,0.122 1.2793,0.048 10.6844,0.667 11.4652,0.593 0.4192,-0.04 0.7918,0.161 0.2891,-0.616 -0.2844,-0.438 -5.8977,-7.787 -6.3297,-8.383 -0.4371,-0.607 -5.6582,-7.361 -5.7555,-8.199 -0.0792,-0.716 0.0204,-0.897 0.0625,-1.093 0.0571,-0.287 0.025,-1.073 -0.0851,-0.81 -0.4805,1.159 -2.5234,4.262 -3.1582,5.095 -0.3981,0.518 0.1293,0.169 0.4496,0.048 0.3254,-0.111 0.5156,-0.036 0.8695,0.203 1.0157,0.68 4.7028,5.697 5.2606,6.463"
       style="fill:#11497a;fill-opacity:1;fill-rule:nonzero;stroke:none;stroke-width:0.1"
       id="path4820" />
    <path
       d="m 20.6262,205.917 c 0.2652,-0.766 1.0957,-4.137 1.5121,-5.609 0.1476,-0.523 1.0758,-3.953 1.3555,-4.527 0.1347,-0.279 -0.4793,0.158 -0.6043,0.455 -0.075,0.189 -0.0473,0.319 -0.3575,0.547 -0.173,0.125 -0.4121,0.156 -0.6277,0.183 -0.8551,0.111 -5.7664,-1.523 -8.2195,-2.271 -2.5215,-0.774 -7.33246,-2.218 -7.83402,-2.805 -0.49648,-0.592 -0.34414,-0.846 -0.29922,-1.152 0.0375,-0.264 -0.16289,-1.205 -0.26875,-0.621 -0.10351,0.562 -0.21406,1.559 -0.65664,3.152 -0.39531,1.413 -2.02187,7.235 -2.11992,7.486 -0.13242,0.325 -0.1543,0.444 0.09063,0.538 0.23476,0.082 1.76328,0.612 2.17109,0.855 0.51328,0.307 0.3125,-0.137 0.03047,-0.431 -0.27071,-0.288 -0.42188,-0.437 -0.36524,-1.346 0.06563,-1.073 1.35899,-5.069 1.35899,-5.069 0,0 2.40039,0.637 3.18476,0.915 0.76719,0.284 3.39845,1.053 3.39845,1.053 0,0 -1.141,4.321 -1.5445,4.843 -0.3805,0.502 -0.6317,0.4 -1.02192,0.365 -0.28515,-0.023 -0.77187,0.189 -0.40664,0.263 0.80666,0.161 3.02696,0.762 4.11216,1.28 0.4613,0.219 -0.0024,-0.346 -0.2149,-0.471 -0.2172,-0.133 -0.5523,-0.33 -0.5769,-1.063 -0.0207,-0.614 0.4007,-2.066 0.5859,-2.584 0.1715,-0.487 0.6633,-2.167 0.6633,-2.167 0,0 4.3472,1.253 5.0707,1.598 0.6914,0.342 1.2875,0.353 1.1328,1.795 -0.1359,1.208 -0.9242,4.025 -1.5383,4.94 -0.4715,0.695 -0.8562,0.947 -1.0148,1.072 -0.1633,0.13 -0.7301,0.609 -0.3918,0.504 0.5117,-0.163 2.6781,-0.924 2.939,-1.124 0.2278,-0.18 0.336,-0.26 0.4567,-0.604"
       style="fill:#11497a;fill-opacity:1;fill-rule:nonzero;stroke:none;stroke-width:0.1"
       id="path4822" />
    <path
       d="m 41.9668,274.327 c -0.5188,-0.546 -4.3375,-4.679 -5.4039,-5.889 -0.3586,-0.408 -1.2106,-1.381 -1.4582,-1.676 -0.1953,-0.228 -0.284,0.22 -0.1234,0.502 0.1613,0.283 0.3261,0.404 0.1234,1.064 -0.2668,0.884 -4.7164,4.51 -6.6531,6.193 -2.0805,1.799 -5.4332,4.86 -6.2,4.966 -0.6879,0.092 -0.8633,-0.032 -1.1856,-0.195 -0.2406,-0.117 -0.8355,-0.366 -0.4238,0.035 0.407,0.4 1.0426,1.099 1.9574,2.088 0.9973,1.071 5.0715,5.312 5.2359,5.53 0.2071,0.276 0.3215,0.28 0.4985,0.098 0.2098,-0.215 1.2324,-1.275 1.6324,-1.527 0.6094,-0.372 0.0633,-0.325 -0.2594,-0.254 -0.2843,0.063 -0.4379,0.172 -1.1058,-0.216 -1.0559,-0.616 -3.5469,-3.6 -3.5469,-3.6 l 4.8734,-4.502 c 0,0 3.3914,3.156 3.4528,3.807 0.05,0.562 -0.0297,0.704 -0.0692,0.825 -0.0867,0.259 -0.0523,0.706 0.1571,0.401 0.6261,-0.892 2.2535,-2.332 2.6695,-2.631 0.425,-0.303 -0.0734,-0.31 -0.302,-0.203 -0.3578,0.157 -0.4945,0.412 -1.1586,0.087 -0.6593,-0.332 -3.3835,-3.519 -3.3835,-3.519 0,0 3.4722,-2.982 4.1242,-3.458 0.8504,-0.623 1.4558,-0.773 2.3078,0.009 0.898,0.824 2.8379,2.711 3.2871,3.717 0.3484,0.765 0.2144,1.307 0.2336,1.502 0.025,0.303 0.2015,0.676 0.2555,0.429 0.0582,-0.251 0.7664,-2.47 0.8121,-2.806 0.0379,-0.291 -0.0293,-0.445 -0.3473,-0.777"
       style="fill:#11497a;fill-opacity:1;fill-rule:nonzero;stroke:none;stroke-width:0.1"
       id="path4824" />
    <path
       d="m 7.86094,219.812 c -2.62852,1.542 -5.11328,0.185 -5.95547,-1.189 -0.82461,-1.369 -0.37734,-3.942 -0.37734,-3.942 0,0 3.38281,0.228 4.02617,0.268 0.63906,0.036 4.14375,0.291 4.14375,0.291 0,0 0.36215,3.275 -1.83711,4.572 z M 19.2719,215.23 c 0.0336,-0.407 0.1351,-2.363 0.2664,-3.23 0.0691,-0.487 -0.227,0.123 -0.3004,0.37 -0.0734,0.235 -0.1086,0.495 -0.5152,0.703 -0.6789,0.356 -5.4106,-0.035 -8.1696,-0.342 -2.52146,-0.28 -8.34763,-0.573 -9.03865,-1.209 -0.5039,-0.46 -0.41367,-1.009 -0.42695,-1.213 -0.01445,-0.266 -0.473828,-1.138 -0.458203,-0.479 0.010156,0.4 -0.013672,2.147 -0.097266,2.756 -0.097265,0.659 -0.5624998,4.867 -0.310156,6.319 0.285938,1.657 1.926565,3.97 4.754685,4.09 2.96641,0.13 4.40742,-2.363 4.7125,-2.959 0.27227,0.353 0.42694,0.544 1.22074,1.142 0.9629,0.73 7.2679,4.448 7.7523,5.581 0.3145,0.731 0.1609,1.088 0.1492,1.252 -0.0562,0.739 0.1035,1.261 0.459,0 0.2102,-0.752 0.3567,-2.857 -0.5437,-4.12 -1.1243,-1.571 -4.6918,-3.694 -5.3907,-4.173 -0.8281,-0.565 -2.7328,-1.613 -2.7261,-2.755 0.0058,-1.01 0.1507,-1.622 0.1507,-1.622 0,0 2.8043,0.283 3.5637,0.366 0.7559,0.089 3.7196,0.265 4.1156,0.713 0.3993,0.447 0.3086,0.601 0.3485,0.834 0.0324,0.214 0.4808,1.153 0.4496,-0.068 -0.0145,-0.448 0,-1.542 0.034,-1.956"
       style="fill:#11497a;fill-opacity:1;fill-rule:nonzero;stroke:none;stroke-width:0.1"
       id="path4826" />
    <path
       d="m 89.1523,277.102 c -3.2738,3.885 -3.7914,8.153 -3.7914,10.39 0,2.888 1.3118,4.721 2.5782,6.496 l 0.9402,1.162 c 1.5676,1.841 3.7109,4.348 3.7109,8.736 0,3.819 -0.4355,5.458 -0.6847,6.093 -0.1434,-1.887 -1.2344,-9.711 -9.359,-16.757 -2.3281,-2.021 -6.2199,-5.397 -6.2199,-9.613 0,-6.18 3.9972,-11.289 5.2379,-12.729 -1.0696,2.72 -1.4102,5.377 -1.4102,7.552 0,3.054 0.6207,5.169 0.6293,5.208 l 0.0711,0.236 0.125,-0.212 c 2.8258,-4.766 7.0262,-6.246 8.1726,-6.562"
       style="fill:#11497a;fill-opacity:1;fill-rule:nonzero;stroke:none;stroke-width:0.1"
       id="path4828" />
    <path
       d="m 90.3621,295.19 c 2.0227,0.783 9.3715,3.995 9.3715,9.137 0,4.023 -2.9492,7.619 -3.952,8.73 0.2782,-0.9 0.8192,-2.971 0.8192,-5.469 0,-6.001 -4.7992,-11.033 -6.2387,-12.398"
       style="fill:#11497a;fill-opacity:1;fill-rule:nonzero;stroke:none;stroke-width:0.1"
       id="path4830" />
    <path
       d="m 117.884,305.05 c -1.969,-2.867 -9.206,-5.72 -9.54,-5.849 l -0.12,0.176 c 4.105,4.177 5.231,10.657 5.467,12.423 -5.79,-9.129 -9.337,-10.7 -13.423,-12.498 l -1.7914,-0.804 c -4.8965,-2.319 -10.5157,-5.636 -10.5157,-10.834 0,-6.864 2.3426,-9.742 3.1332,-10.516 -0.5105,1.825 -0.68,3.388 -0.68,4.608 0,1.986 0.4129,3.105 0.4203,3.125 l 0.1504,0.397 0.0617,-0.42 c 0.5414,-3.78 5.0996,-7.333 6.098,-8.066 -0.0461,0.412 -0.1265,1.298 -0.1265,2.476 0,3.835 0.8863,10.625 6.836,13.166 10.73,4.589 13.402,10.515 14.03,12.616"
       style="fill:#11497a;fill-opacity:1;fill-rule:nonzero;stroke:none;stroke-width:0.1"
       id="path4832" />
    <path
       d="m 108.987,283.786 c 0,7.085 1.358,9.802 2.079,10.747 -11.548,-5.232 -12.7906,-14.77 -12.7906,-18.554 0,-0.456 0.0199,-0.808 0.0359,-1.08 0.5016,1.46 2.2467,5.735 6.4847,9.322 l 0.07,0.056 0.069,-0.043 c 0.02,-0.013 0.04,-0.028 0.04,-0.138 0,-0.377 -0.264,-1.912 -1.792,-8.447 1.071,0.686 5.804,3.996 5.804,8.137"
       style="fill:#11497a;fill-opacity:1;fill-rule:nonzero;stroke:none;stroke-width:0.1"
       id="path4834" />
    <path
       d="m 119.124,284.485 c 0,2.081 -0.566,3.749 -0.826,4.411 -0.188,-0.738 -0.818,-2.57 -2.771,-4.391 l -0.003,-0.004 v 0 c 0,0 -0.001,-0.005 -0.005,-0.005 l -0.156,0.157 c 0.015,0.019 1.202,1.375 1.202,4.965 0,1.037 -0.097,2.25 -0.347,3.666 -0.093,0.539 -0.139,1.068 -0.139,1.583 0,2.842 1.266,5.176 1.87,6.139 -1.235,-0.899 -4.607,-3.772 -6.013,-9.056 -1.051,-3.921 -1.314,-5.573 -1.509,-6.771 -0.135,-0.828 -0.231,-1.424 -0.519,-2.397 -0.675,-2.277 -2.127,-6.372 -3.321,-8.307 0.85,0.498 3.14,2.084 4.881,5.57 l 0.152,0.303 0.057,-0.338 c 0.002,-0.017 0.127,-0.852 0.127,-2.096 0,-1.559 -0.227,-3.764 -1.131,-5.781 1.543,1.228 8.451,7.036 8.451,12.352"
       style="fill:#11497a;fill-opacity:1;fill-rule:nonzero;stroke:none;stroke-width:0.1"
       id="path4836" />
    <path
       d="m 131.388,295.978 c -3.882,2.885 -8.108,1.546 -8.152,1.527 l -0.348,-0.114 0.226,0.29 c 1.975,2.48 4.493,4 5.305,4.456 -1.228,0.177 -6.076,0.623 -8.479,-2.826 -1.549,-2.227 -1.805,-5.602 -1.805,-7.58 0,-0.55 0.02,-0.97 0.04,-1.252 2.374,4.121 2.643,4.113 2.727,4.098 l 0.1,-0.04 0.013,-0.078 c 0.092,-0.436 0.128,-0.986 0.128,-1.586 0,-1.864 -0.346,-4.216 -0.535,-5.354 4.197,8.035 9.372,8.498 10.78,8.459"
       style="fill:#11497a;fill-opacity:1;fill-rule:nonzero;stroke:none;stroke-width:0.1"
       id="path4838" />
    <path
       d="m 103.315,163.554 c -1.149,-1.599 -1.299,-1.649 -1.699,-1.649 -0.399,0 -0.399,1.749 -0.149,2.649 0.249,0.898 0.899,1.849 1.749,1.797 0.697,-0.04 1.248,-1.197 0.099,-2.797 z m -6.5408,-10.609 0.4356,19.418 c 0.3769,-0.562 0.6808,-1.045 0.8101,-1.315 0.4711,-0.989 0.7981,-2.297 0.7981,-2.297 0,0 0.65,-0.652 0.7996,-1.6 0.1492,-0.948 0.5984,-4.147 0.7504,-4.895 0.149,-0.751 0.149,-1.351 0.598,-1.351 2.598,0 4.047,4.297 3.498,5.647 -0.549,1.349 -1.999,2.997 -1.999,2.997 0,0 -1.399,4.447 -1.648,4.996 -0.25,0.549 -1.2482,1.049 -1.5486,1.249 -0.1504,0.1 -1.0641,1.002 -1.9399,1.877 l 0.1219,5.442 c -0.3363,-0.041 -0.6246,0 -0.8586,0 -3.9523,0 -6.1277,2.447 -6.2184,2.539 l 0.9567,-32.699 5.4441,-0.008"
       style="fill:#11497a;fill-opacity:1;fill-rule:nonzero;stroke:none;stroke-width:0.1"
       id="path4840" />
    <path
       d="m 133.079,217.485 c 3.757,0 9.235,-1.878 9.235,-1.878 0,0 -6.992,-0.888 -9.235,-0.888 -2.244,0 -6,0.574 -6,0.574 0,0 3.078,2.192 6,2.192 z m -22.228,-3.497 c 0,0 4.278,-0.992 6.209,-2.296 4.102,-2.772 6.627,-8.087 6.627,-8.087 0,0 -4.175,2.242 -7.201,4.539 -3.027,2.295 -5.635,5.688 -5.635,5.688 z m -24.7862,-6.262 c 0,0 -1.7734,3.027 -2.6601,6.262 -0.6942,2.531 -1.7223,8.66 -1.7223,8.66 0,0 4.0403,-5.834 4.7481,-7.773 1.2,-3.287 -0.3657,-7.149 -0.3657,-7.149 z m 6.3649,-8.559 c 2.3531,2.294 9.5493,4.541 9.5493,4.541 0,0 -5.7392,-4.906 -8.0349,-6.941 -2.2957,-2.034 -5.2171,-5.53 -5.2171,-5.53 0,0 -0.4711,3.861 3.7027,7.93 z m 6.4859,-8.31 c 2.2794,0.233 8.5654,-1.178 8.5654,-1.178 0,0 -6.601,-1.572 -9.979,-1.807 -3.379,-0.235 -6.3254,0.079 -6.3254,0.079 0,0 1.5722,2.278 7.739,2.906 z M 70.6309,179.662 c 0,0 0.8078,6.345 2.5937,8.564 2.593,3.221 5.3817,3.732 5.3817,3.732 z m 1.0328,18.775 c -2.3992,0.835 -5.8961,3.184 -5.8961,3.184 0,0 6.3664,0.732 8.7148,-0.418 4.0645,-1.987 4.643,-5.008 4.643,-5.008 0,0 -5.0617,1.407 -7.4617,2.242 z m 32.2473,28.908 c 0,0 -1.879,2.558 -1.931,6.732 -0.052,4.174 2.401,8.662 2.401,8.662 0,0 -0.105,-4.905 0.051,-7.671 0.157,-2.764 -0.521,-7.723 -0.521,-7.723 z m 9.078,16.072 c 1.879,2.922 8.714,6.469 8.714,6.469 0,0 -3.809,-3.807 -6.47,-6.938 -2.66,-3.131 -4.435,-5.271 -4.435,-5.271 l -0.051,-0.105 c 0,0 0.364,2.923 2.242,5.845 z m 7.881,-4.383 c 2.19,0.731 8.973,0.991 8.973,0.991 0,0 -5.896,-2.086 -8.295,-2.87 -2.401,-0.782 -6.627,-1.409 -6.627,-1.409 0,0 2.705,2.208 5.949,3.288 z m -8.297,-10.174 c 2.2,1.499 8.869,3.966 8.869,3.966 0,0 -5.112,-4.54 -7.669,-6.367 -2.557,-1.827 -5.636,-3.288 -5.636,-3.288 0,0 0.991,3.34 4.436,5.689 z m 13.096,-2.505 c 2.453,4.018 7.254,6.416 7.254,6.416 0,0 -2.975,-5.008 -4.645,-7.304 -1.669,-2.296 -4.07,-5.114 -4.07,-5.114 0,0 -0.99,1.984 1.461,6.002 z m 13.986,12.783 c 2.504,4.228 8.4,6.575 8.4,6.575 0,0 -4.279,-5.688 -5.636,-7.514 -1.356,-1.826 -4.852,-6.993 -4.852,-6.993 0,0 -0.417,3.707 2.088,7.932 z m 7.513,-7.148 c 3.757,0.887 10.644,0.574 9.809,0.365 -0.835,-0.209 -5.792,-2.347 -9.289,-3.287 -3.496,-0.939 -7.564,-1.2 -7.564,-1.2 l -0.053,0.105 c 0,0 3.339,3.13 7.097,4.017 z m -7.284,-5.189 c 0.85,-0.251 4.595,-1.299 6.494,-1.198 4.945,0.26 8.642,4.045 9.744,4.946 1.098,0.898 4.195,2.497 4.195,2.497 0,0 -2.698,0.051 -6.094,0.35 -3.398,0.299 -6.796,-0.249 -9.343,-1.1 -2.549,-0.849 -4.046,-2.496 -4.546,-2.897 -0.499,-0.398 -0.899,-0.999 -1.898,-1.249 -1,-0.249 -1.85,-0.45 -1.85,-0.45 0.501,1.349 0.95,1.999 1.351,2.299 0.398,0.299 2.597,1.747 4.846,4.146 2.247,2.398 5.643,8.243 5.894,9.193 0.249,0.949 2.297,5.545 2.297,5.545 0,0 -2.497,-1.799 -5.245,-3.248 -2.748,-1.448 -5.795,-4.095 -7.144,-6.443 -1.348,-2.348 -1.848,-5.197 -1.899,-7.496 -0.05,-2.297 -0.949,-4.245 -2.897,-6.593 -1.495,-1.802 -4.596,-4.347 -5.196,-4.847 -0.162,-0.136 -1.536,-1.151 -3.047,-1.548 -0.949,-0.25 -2.098,-0.1 -2.098,-0.1 0,0 1.049,1.35 1.698,1.549 0.649,0.2 2.199,0.699 4.697,2.948 2.498,2.247 3.997,7.943 4.196,8.891 0.201,0.95 1.1,3.849 1.1,3.849 0,0 -1.949,-1.9 -4.246,-3.349 -2.299,-1.448 -4.997,-4.096 -6.646,-6.843 -1.648,-2.749 -0.85,-4.947 -0.85,-5.345 0,-0.401 -0.148,-0.651 -0.797,-1.299 -0.65,-0.65 -1.65,-0.8 -2.199,-0.951 -0.55,-0.149 -2.848,-1.049 -5.197,-1.049 -2.348,0 -5.445,1.1 -6.144,1.149 -0.7,0.051 -1.799,-0.598 -2.249,-0.648 -0.449,-0.051 -0.798,0.148 -1.248,0.148 -0.45,0 -1.848,-0.049 -1.848,-0.049 0.349,0.7 0.4,1.948 0.449,2.298 0.05,0.349 0.15,0.849 0.649,0.949 0.5,0.1 1.949,1.049 2.448,1.299 0.5,0.249 0.9,0.3 1.449,0.3 0.4,0 3.197,0.1 5.496,1.498 4.092,2.491 6.345,6.345 6.994,7.295 0.65,0.949 3.897,3.347 3.897,3.347 0,0 -2.547,-0.7 -5.446,-1.549 -2.897,-0.849 -7.144,-2.848 -8.642,-4.197 -1.499,-1.349 -2.299,-2.648 -2.848,-3.548 -0.55,-0.899 -1.049,-2.146 -1.499,-2.497 -0.45,-0.349 -1.898,-1.099 -1.898,-0.899 0,0.2 0.549,1.25 0.899,1.849 0.35,0.599 1.449,2.347 2.148,3.396 0.7,1.051 1.1,2.148 1.299,2.699 0.199,0.549 0.699,1.899 1.299,2.598 2.186,2.549 3.696,2.548 4.896,2.646 1.199,0.102 2.398,-0.149 6.194,0.301 3.798,0.449 6.695,2.549 7.495,2.998 0.798,0.45 4.345,3.047 4.345,3.047 0,0 -3.446,-0.599 -4.544,-0.748 -1.1,-0.152 -5.345,-0.2 -7.794,-0.8 -2.448,-0.599 -4.597,-2.098 -6.646,-3.447 -2.047,-1.351 -4.245,-3.248 -4.245,-3.248 0,0 0,1.3 0.149,1.897 0.15,0.6 0.348,1.45 1.35,1.999 0.998,0.55 3.846,2.248 5.694,4.097 1.849,1.848 4.196,5.745 4.497,6.645 0.3,0.899 2.097,4.496 2.097,4.496 0,0 -0.849,-0.899 -3.995,-2.497 -3.148,-1.599 -5.997,-3.798 -7.695,-5.996 -1.698,-2.198 -1.948,-4.147 -1.997,-4.995 -0.05,-0.85 -0.201,-1.949 -0.401,-2.398 -0.199,-0.449 -0.431,-0.707 -0.599,-2.549 -0.15,-1.649 -0.349,-1.999 -0.649,-2.847 -0.301,-0.85 -0.301,-1.199 -0.65,-1.799 -0.35,-0.599 -0.3,-0.3 -0.65,-1.149 -0.349,-0.849 -2.348,-3.346 -2.348,-3.346 0,0 -0.648,0.798 0.35,2.946 1.452,3.12 1.998,5.646 2.049,7.295 0.05,1.648 -0.7,4.896 -1.15,6.096 -0.449,1.198 -1.948,5.444 -1.948,5.444 0,0 -0.15,-1.948 -0.849,-3.948 -0.701,-1.997 -2.299,-6.044 -2.299,-8.841 0,-2.799 1.449,-6.046 2.15,-6.945 0.699,-0.899 0.848,-1.649 0.749,-2.748 -0.1,-1.098 -0.489,-1.505 -1.049,-2.397 -0.348,-0.555 -0.341,-0.81 -0.7,-2.349 -0.698,-2.998 -2.198,-3.897 -3.4969,-4.944 -0.1546,-0.125 -0.3484,-0.265 -0.5652,-0.411 l 0.7039,27.411 c 0.311,4.143 0.7168,12.488 4.5112,17.979 0.476,0.691 0.733,1.029 0.733,1.029 2.47,3.439 6.194,5.072 9.398,5.392 v 2.243 c 0,0 -17.2195,0.027 -20.5695,0.027 h -0.0578 c -3.3317,0 -18.8446,-0.027 -18.8446,-0.027 v -2.243 c 3.2047,-0.32 6.9289,-1.953 9.3992,-5.392 2.9426,-4.096 4.7598,-6.508 5.2856,-19.488 l 0.9551,-31.33 c -2.2176,-1.24 -2.5887,-3.934 -2.5887,-3.934 -0.4008,0.699 -0.5504,1.548 -0.25,2.049 0.2996,0.499 1.3488,3.296 0.8484,5.994 -0.4992,2.697 -3.4972,7.194 -4.4453,8.294 -0.9496,1.099 -2.698,3.796 -2.698,3.796 0,0 0.0496,-2.498 -0.1008,-4.497 -0.1492,-1.998 -0.8488,-4.795 0.3508,-8.291 1.198,-3.498 3.7465,-5.197 4.1957,-5.546 0.45,-0.35 0.9484,-0.95 1.1488,-1.999 0.202,-1.049 0.0496,-1.298 -0.1,-2.048 -0.1488,-0.749 0.0504,-1.15 -0.25,-2.198 -0.2086,-0.732 -0.7988,-1.148 -0.8988,-1.799 -0.2281,-1.484 -0.5996,-2.498 -0.7492,-3.048 -0.1496,-0.548 -0.4996,-0.649 -0.9496,-1.399 -0.45,-0.748 -0.3504,-1.248 -0.3504,-1.248 0,0 -2.2965,1.948 -2.5965,2.647 -1.8961,4.421 -4.9461,5.396 -6.8949,5.847 -1.9477,0.449 -4.9957,0.297 -6.495,0.148 -1.4511,-0.144 -5.1859,0.599 -5.4218,0.646 0.2078,-0.044 1.8711,-0.455 3.9726,-2.744 2.2492,-2.447 4.8973,-4.197 6.9453,-4.996 2.0481,-0.798 4.4969,-0.149 5.2461,0.052 0.7488,0.197 1.2981,0.5 1.9477,0.249 0.6504,-0.249 1.3992,-1.249 1.3992,-1.249 0,0 -1.1492,-0.65 -1.9988,-1.049 -3.0262,-1.424 -5.3578,-2.578 -7.1434,-5.545 -0.7644,-1.272 -1.7992,-5.745 -1.9484,-6.795 -0.1516,-1.051 -1.0496,-3.848 -1.0496,-3.848 0,0 1.6976,1.45 3.0976,2.399 1.3988,0.949 3.4473,2.1 5.6957,4.945 2.2477,2.849 2.5473,7.244 2.6469,8.143 0.1,0.899 0.75,1.15 1,1.15 0.2488,0 1.0988,-0.599 1.0492,-1.348 -0.0515,-0.751 0.3488,-1.551 0.6485,-2 0.2996,-0.449 1.0003,-1.048 1.5996,-1.897 0.6,-0.85 1.0484,-2.747 1.448,-3.548 0.4,-0.798 0.5996,-0.699 1.1996,-1.798 0.5992,-1.098 0.4992,-1.699 0.9996,-2.547 0.4977,-0.849 0.7485,-0.751 0.7485,-0.751 l -0.2996,5.295 c 0,0 -0.2004,0.102 -0.4,0.351 -0.2004,0.251 -0.4997,0.899 -0.4997,0.899 0,0 0.8997,0.599 1.4993,0.9 0.5992,0.3 0.9492,0.148 1.348,-0.101 0.4,-0.25 3.2477,-2.549 6.3453,-2.549 3.0971,0 9.4421,3.399 10.5911,3.997 1.149,0.6 4.147,1.45 4.147,1.45 0,0 -2.997,0.299 -4.597,0.649 -1.598,0.35 -6.244,1.248 -7.343,1.248 -1.0992,0 -2.0481,-0.249 -2.0481,-0.249 l 0.1317,1.606 c 0,0 -1.3235,-1.118 -1.7735,-1.468 -0.4484,-0.349 -1.5886,-0.977 -3.3047,-1.637 -1.2308,-0.472 -2.398,-0.699 -2.398,-0.699 0,0 -0.1992,0.2 -0.3496,-0.551 -0.15,-0.748 -0.2496,-0.648 -1.0992,-0.847 -0.85,-0.2 -1.5989,-0.549 -1.5989,-0.549 0,0 0.6996,1.797 0.7989,2.097 0.1015,0.3 0.2504,0.599 1.2996,0.8 1.0484,0.199 4.0961,0.898 7.1449,3.647 3.0465,2.748 4.6119,6.259 5.1449,7.444 0.866,1.925 3.547,4.395 3.547,4.395 0,0 -2.298,-0.899 -6.6446,-2.396 -0.2071,-0.071 -0.4047,-0.146 -0.6055,-0.22 l 0.1559,5.739 -0.0102,-0.003 0.0082,0.415 c -0.118,-0.053 -0.2188,-0.1 -0.2977,-0.137 -0.6492,-0.299 -2.5476,-0.848 -3.2968,-1.198 -0.75,-0.35 -1.3496,-1.149 -1.9493,-1.448 -0.3566,-0.179 -1.6632,-0.586 -2.8242,-1.745 l 0.0508,-0.938 -0.0012,-0.003 0.1922,-6.106 c -1.6636,-2.175 -1.7648,-3.908 -1.964,-5.05 -0.1996,-1.148 -0.3489,-1.698 -0.4985,-2.297 -0.1504,-0.599 -0.7492,-1.999 -0.7492,-1.999 0,0 -0.8504,1.649 -1.6988,2.549 -0.85,0.899 -0.5504,1.649 -0.45,2.347 0.1,0.701 0.5,1.45 0.9492,2.598 0.4496,1.149 1.0484,3.348 1.3996,4.048 0.3492,0.699 0.1992,-0.65 0.9477,3.448 0.7492,4.095 4.0468,5.044 4.6464,5.343 0.5997,0.301 1.1993,1.1 1.9493,1.451 0.7492,0.35 2.6476,0.898 3.2968,1.197 0.6497,0.301 2.7689,1.188 3.7469,2.5 0.978,1.309 1.548,1.699 2.199,2.048 0.648,0.35 1.697,0.399 3.346,0.498 1.649,0.1 1.999,-1.197 2.349,-1.648 0.349,-0.45 0.349,-0.898 0.398,-1.498 0.051,-0.6 -0.398,-3.698 2.949,-6.596 3.347,-2.896 7.444,-3.147 8.943,-3.546 1.498,-0.4 5.245,-1.949 5.245,-1.949 0,0 -0.649,0.25 -3.197,4.197 -2.549,3.947 -4.996,6.295 -6.535,7.182 -1.537,0.888 -4.357,1.511 -5.006,1.662 -0.648,0.148 -1.248,0.348 -1.65,0.697 -0.399,0.349 -1.247,1.599 -1.247,1.599 0,0 0.349,0.05 0.649,0 0.3,-0.05 1.649,-0.948 4.996,-0.948 3.348,0 5.145,1.148 5.795,1.398 0.651,0.251 1.299,0.2 1.948,-0.2 0.649,-0.398 1.45,-0.947 3.047,-1.948 1.599,-1 4.496,-2.547 7.444,-2.547 2.948,0 8.045,1.398 9.393,2.047 1.349,0.65 3.896,1.199 3.896,1.199 0,0 -2.496,0.451 -3.896,0.751 -1.399,0.298 -5.946,1.996 -9.143,1.996 -3.198,0 -5.495,-1.498 -5.795,-1.698 -0.3,-0.198 -0.699,-0.8 -2.048,-0.399 -1.35,0.399 -1.549,1.348 -1.549,1.348 3.797,0.551 4.146,1.15 5.645,2.099 1.5,0.949 2.749,2.748 3.698,3.647 0.641,0.609 1.17,1.379 2.547,2.648 1.899,1.748 3.897,0.749 3.897,0.749"
       style="fill:#11497a;fill-opacity:1;fill-rule:nonzero;stroke:none;stroke-width:0.1"
       id="path4842" />
    <path
       d="m 122.289,245.225 c 0,0 -1.362,-0.564 -1.362,-2.604 0,-2.035 1.814,-1.467 1.814,-1.467 0,0 1.585,0.339 1.585,2.372 0,2.044 -2.037,1.699 -2.037,1.699"
       style="fill:#11497a;fill-opacity:1;fill-rule:nonzero;stroke:none;stroke-width:0.1"
       id="path4844" />
    <path
       d="m 147.028,237.734 c 0,0 -1.358,-0.561 -1.358,-2.596 0,-2.036 1.808,-1.472 1.808,-1.472 0,0 1.587,0.339 1.587,2.375 0,2.036 -2.037,1.693 -2.037,1.693"
       style="fill:#11497a;fill-opacity:1;fill-rule:nonzero;stroke:none;stroke-width:0.1"
       id="path4846" />
    <path
       d="m 105.14,214.226 c 0,0 -1.356,-0.568 -1.356,-2.609 0,-2.029 1.807,-1.462 1.807,-1.462 0,0 1.586,0.336 1.586,2.37 0,2.036 -2.037,1.701 -2.037,1.701"
       style="fill:#11497a;fill-opacity:1;fill-rule:nonzero;stroke:none;stroke-width:0.1"
       id="path4848" />
    <path
       d="m 134.422,222.088 c -0.623,-1.936 1.276,-1.952 1.276,-1.952 0,0 1.609,-0.161 2.231,1.776 0.626,1.942 -1.42,2.236 -1.42,2.236 0,0 -1.462,-0.12 -2.087,-2.06"
       style="fill:#11497a;fill-opacity:1;fill-rule:nonzero;stroke:none;stroke-width:0.1"
       id="path4850" />
    <path
       d="m 121.831,214.246 c 0,0 -1.357,-0.567 -1.357,-2.608 0,-2.037 1.808,-1.467 1.808,-1.467 0,0 1.586,0.339 1.586,2.375 0,2.039 -2.037,1.7 -2.037,1.7"
       style="fill:#11497a;fill-opacity:1;fill-rule:nonzero;stroke:none;stroke-width:0.1"
       id="path4852" />
    <path
       d="m 101.922,197.161 c 0,0 -1.358,-0.56 -1.358,-2.595 0,-2.041 1.811,-1.477 1.811,-1.477 0,0 1.583,0.344 1.583,2.379 0,2.037 -2.036,1.693 -2.036,1.693"
       style="fill:#11497a;fill-opacity:1;fill-rule:nonzero;stroke:none;stroke-width:0.1"
       id="path4854" />
    <path
       d="m 70.848,189.92 c 0,0 1.5825,0.343 1.5825,2.38 0,2.035 -2.0371,1.696 -2.0371,1.696 0,0 -1.3551,-0.565 -1.3551,-2.604 0,-2.037 1.8097,-1.472 1.8097,-1.472"
       style="fill:#11497a;fill-opacity:1;fill-rule:nonzero;stroke:none;stroke-width:0.1"
       id="path4856" />
    <path
       d="m 80.2457,313.795 c 0.6012,-0.821 2.7785,-4.098 2.7785,-8.06 0,-1.097 -0.1262,-2.854 -0.1262,-2.854 0,0 -0.1011,-1.713 -0.9468,-5.043 1.198,1.804 2.9074,4.655 3.5031,7.042 l 0.066,0.274 0.1352,-0.245 c 0.0422,-0.075 0.9082,-1.701 1.0465,-3.408 0.3363,0.772 1.041,2.634 1.041,4.679 0,3.375 -3.4348,7.458 -7.4973,7.615"
       style="fill:#11497a;fill-opacity:1;fill-rule:nonzero;stroke:none;stroke-width:0.1"
       id="path4858" />
    <path
       d="m 81.1473,301.378 -0.0055,-0.003 c -0.0578,1.066 -0.1859,2.326 -0.4406,3.76 -0.35,-1.088 -1.7535,-3.752 -7.3196,-9.004 -3.1808,-2.991 -4.9019,-5.255 -4.9019,-8.639 0,-6.575 5.8742,-11.792 7.307,-12.971 -0.4812,1.261 -1.9707,5.587 -1.9707,10.674 0,2.253 1.3141,3.564 2.5887,4.836 l 0.3078,0.31 c 0.8797,0.874 2.2363,2.22 3.1156,3.535 l 0.0024,-0.005 c 0,0 0.6695,0.909 1.0851,2.395 0.0578,0.244 0.1321,0.644 0.1914,1.22 l 0.0028,-0.008 c 0.075,0.625 0.1375,2.35 0.0375,3.9"
       style="fill:#11497a;fill-opacity:1;fill-rule:nonzero;stroke:none;stroke-width:0.1"
       id="path4860" />
    <path
       d="m 50.3445,242.217 c -0.9597,0 -1.68,-0.779 -1.68,-1.699 0,-0.4 0.18,-0.801 0.48,-1.1 -0.1996,0.06 -0.4,0.1 -0.5996,0.1 -1.1801,0 -2.1203,-0.961 -2.1203,-2.12 0,-1.181 0.9402,-2.121 2.1203,-2.121 0.1996,0 0.3797,0.041 0.5598,0.08 -0.4602,-1.56 -1.9199,-2.56 -3.5199,-2.56 -3.12,0 -4.3602,3.36 -4.4801,4.161 0.2398,-0.861 1.0398,-1.52 2,-1.52 1.1598,0 2.1,0.939 2.1,2.1 0,1.159 -0.9402,2.1 -2.1,2.1 -0.2199,0 -0.4199,-0.06 -0.6199,-0.12 0.4398,0.4 0.7199,0.94 0.7199,1.579 0,1.16 -0.9402,2.08 -2.1,2.08 -1.1598,0 -2.0996,-0.92 -2.0996,-2.08 0,-0.639 0.2996,-1.199 0.7394,-1.599 -0.2195,0.08 -0.4398,0.14 -0.68,0.14 -1.1598,0 -2.0997,-0.941 -2.0997,-2.1 0,-1.161 0.9399,-2.1 2.0997,-2.1 0.9605,0 1.7601,0.659 2,1.52 -0.1196,-0.96 -1.8797,-4.161 -4.5,-4.161 -1.7399,0 -3.1399,1.06 -3.5395,2.56 0.1797,-0.039 0.3598,-0.08 0.5598,-0.08 1.1597,0 2.1199,0.94 2.1199,2.121 0,1.159 -0.9602,2.12 -2.1199,2.12 -0.22,0 -0.4203,-0.04 -0.6,-0.1 0.3,0.299 0.48,0.7 0.48,1.1 0,0.92 -0.7203,1.699 -1.7003,1.699 -0.8196,0 -1.0598,-0.199 -1.0598,-0.199 0.4398,-1.741 0.9598,-5.221 1.0398,-5.7 l 1.4602,-9.521 h 15.7199 c 0,0 0.0203,0.161 0.0402,0.281 l 1.42,9.24 c 0.3199,2.16 0.6968,4.434 1.0199,5.7 0,0 -0.2402,0.199 -1.0602,0.199"
       style="fill:#11497a;fill-opacity:1;fill-rule:nonzero;stroke:none;stroke-width:0.1"
       id="path4862" />
    <path
       d="m 80.0605,242.217 c -0.9597,0 -1.68,-0.779 -1.68,-1.699 0,-0.4 0.18,-0.801 0.4797,-1.1 -0.1997,0.06 -0.3997,0.1 -0.5997,0.1 -1.18,0 -2.1199,-0.961 -2.1199,-2.12 0,-1.181 0.9399,-2.121 2.1199,-2.121 0.2,0 0.3801,0.041 0.5598,0.08 -0.4601,-1.56 -1.9199,-2.56 -3.5195,-2.56 -3.1203,0 -4.3606,3.36 -4.4805,4.161 0.2402,-0.861 1.0399,-1.52 2,-1.52 1.1602,0 2.1,0.939 2.1,2.1 0,1.159 -0.9398,2.1 -2.1,2.1 -0.2195,0 -0.4199,-0.06 -0.6195,-0.12 0.4398,0.4 0.7195,0.94 0.7195,1.579 0,1.16 -0.9398,2.08 -2.1,2.08 -1.1598,0 -2.0996,-0.92 -2.0996,-2.08 0,-0.639 0.2996,-1.199 0.7398,-1.599 -0.2199,0.08 -0.4402,0.14 -0.68,0.14 -1.1598,0 -2.1,-0.941 -2.1,-2.1 0,-1.161 0.9402,-2.1 2.1,-2.1 0.9601,0 1.7601,0.659 2,1.52 -0.12,-0.96 -1.8801,-4.161 -4.5,-4.161 -1.7399,0 -3.1399,1.06 -3.5399,2.56 0.1797,-0.039 0.3602,-0.08 0.5602,-0.08 1.1597,0 2.1195,0.94 2.1195,2.121 0,1.159 -0.9598,2.12 -2.1195,2.12 -0.2203,0 -0.4203,-0.04 -0.6,-0.1 0.2996,0.299 0.4797,0.7 0.4797,1.1 0,0.92 -0.72,1.699 -1.7,1.699 -0.82,0 -1.0602,-0.199 -1.0602,-0.199 0.4399,-1.741 0.9602,-5.221 1.0402,-5.7 l 1.4598,-9.521 h 15.7203 c 0,0 0.0199,0.161 0.0399,0.281 l 1.4203,9.24 c 0.3195,2.16 0.741,4.566 1.0199,5.7 0,0 -0.2402,0.199 -1.0602,0.199"
       style="fill:#11497a;fill-opacity:1;fill-rule:nonzero;stroke:none;stroke-width:0.1"
       id="path4864" />
    <path
       d="m 66.3711,223.203 c -1.0586,0 -1.8531,-0.861 -1.8531,-1.875 0,-0.441 0.1988,-0.883 0.5297,-1.213 -0.2207,0.066 -0.4414,0.11 -0.6622,0.11 -1.3007,0 -2.3378,-1.059 -2.3378,-2.338 0,-1.301 1.0371,-2.337 2.3378,-2.337 0.2208,0 0.4196,0.043 0.618,0.088 -0.5074,-1.721 -2.1172,-2.824 -3.882,-2.824 -3.4402,0 -4.8078,3.706 -4.9402,4.588 0.2644,-0.948 1.1468,-1.676 2.2054,-1.676 1.2793,0 2.316,1.037 2.316,2.316 0,1.279 -1.0367,2.315 -2.316,2.315 -0.2426,0 -0.4629,-0.066 -0.6836,-0.132 0.4856,0.441 0.7942,1.036 0.7942,1.742 0,1.279 -1.0368,2.294 -2.316,2.294 -1.2793,0 -2.3161,-1.015 -2.3161,-2.294 0,-0.706 0.3313,-1.323 0.8161,-1.764 -0.2426,0.088 -0.4848,0.154 -0.7497,0.154 -1.2793,0 -2.316,-1.036 -2.316,-2.315 0,-1.279 1.0367,-2.316 2.316,-2.316 1.0586,0 1.9411,0.728 2.2055,1.676 -0.132,-1.059 -2.073,-4.588 -4.9629,-4.588 -1.9183,0 -3.4625,1.169 -3.9039,2.824 0.1988,-0.045 0.3973,-0.088 0.618,-0.088 1.2793,0 2.3379,1.036 2.3379,2.337 0,1.279 -1.0586,2.338 -2.3379,2.338 -0.243,0 -0.4637,-0.044 -0.6617,-0.11 0.3304,0.33 0.5293,0.772 0.5293,1.213 0,1.014 -0.7942,1.875 -1.875,1.875 -0.9043,0 -1.1692,-0.221 -1.1692,-0.221 0.4856,-1.919 1.0594,-5.757 1.1473,-6.286 l 1.6101,-10.499 h 17.336 c 0,0 0.0219,0.177 0.0441,0.309 l 1.5656,10.19 c 0.3532,2.382 0.802,5.05 1.125,6.286 0,0 -0.2644,0.221 -1.1687,0.221"
       style="fill:#11497a;fill-opacity:1;fill-rule:nonzero;stroke:none;stroke-width:0.1"
       id="path4866" />
  </g>
</svg>
