<?xml version="1.0" encoding="UTF-8" standalone="no"?>
<!-- Created with Inkscape (http://www.inkscape.org/) -->

<svg
   version="1.1"
   id="svg489"
   width="864.28003"
   height="189.10667"
   viewBox="0 0 864.28003 189.10667"
   sodipodi:docname="logo_umu.svg"
   inkscape:version="1.2.2 (b0a8486541, 2022-12-01)"
   xmlns:inkscape="http://www.inkscape.org/namespaces/inkscape"
   xmlns:sodipodi="http://sodipodi.sourceforge.net/DTD/sodipodi-0.dtd"
   xmlns="http://www.w3.org/2000/svg"
   xmlns:svg="http://www.w3.org/2000/svg">
  <defs
     id="defs493" />
  <sodipodi:namedview
     id="namedview491"
     pagecolor="#ffffff"
     bordercolor="#000000"
     borderopacity="0.25"
     inkscape:showpageshadow="2"
     inkscape:pageopacity="0.0"
     inkscape:pagecheckerboard="0"
     inkscape:deskcolor="#d1d1d1"
     showgrid="false"
     inkscape:zoom="1.2479728"
     inkscape:cx="506.42127"
     inkscape:cy="94.953989"
     inkscape:window-width="1920"
     inkscape:window-height="1145"
     inkscape:window-x="0"
     inkscape:window-y="0"
     inkscape:window-maximized="1"
     inkscape:current-layer="g497">
    <inkscape:page
       x="0"
       y="0"
       id="page495"
       width="864.28003"
       height="189.10667" />
  </sodipodi:namedview>
  <g
     id="g497"
     inkscape:groupmode="layer"
     inkscape:label="Page 1"
     transform="matrix(1.3333333,0,0,-1.3333333,0,189.10667)">
    <g
       id="g499"
       transform="scale(0.1)">
      <path
         d="m 2087.75,997.336 c 0,-107.977 -39.09,-188.934 -142.06,-188.934 -108.68,0 -144.19,75.293 -144.19,189.653 v 153.425 c 0,73.88 1.42,85.96 42.61,89.49 l 17.03,1.41 c 4.27,2.85 2.85,14.94 -1.41,17.07 -34.8,-1.41 -58.23,-2.13 -87.38,-2.13 -28.4,0 -52.55,0.72 -88.06,2.13 -4.27,-2.13 -5.68,-14.22 -1.41,-17.07 l 17.74,-1.41 c 41.2,-3.53 42.62,-15.61 42.62,-89.49 V 983.836 c 0,-84.527 17.76,-136.391 55.41,-167.617 34.8,-29.832 83.81,-39.086 132.82,-39.086 52.57,0 105.15,18.465 135.68,51.867 39.78,42.613 49.71,107.957 49.71,169.754 v 80.276 c 0,39.78 0,121.46 9.95,144.91 4.27,9.21 17.77,15.61 35.53,17.03 l 17.03,1.41 c 3.57,4.27 4.27,13.5 -1.41,17.07 -25.59,-1.41 -44.75,-2.13 -74.6,-2.13 -27.7,0 -53.96,0.72 -80.98,2.13 -4.25,-2.85 -5.66,-12.08 -1.41,-17.07 l 17.76,-1.41 c 17.75,-1.42 30.53,-6.38 35.52,-14.92 12.08,-21.29 13.5,-102.99 13.5,-147.02 z m 316.77,144.904 c -22.02,45.45 -39.76,89.49 -36.93,117.21 -23.43,-2.13 -42.61,-2.13 -58.94,-2.13 -17.77,0 -34.8,0.72 -56.12,2.13 -5.68,-2.85 -6.4,-13.5 -2.85,-17.76 l 11.37,-1.42 c 43.33,-5.68 49.01,-16.33 47.6,-61.1 -1.42,-39.06 -4.27,-99.44 -7.84,-158.4 -4.25,-70.313 -7.78,-109.375 -12.05,-156.258 -4.28,-49.731 -14.21,-53.996 -44.04,-58.266 l -15.64,-2.113 c -4.24,-3.547 -2.83,-14.219 1.42,-17.746 24.17,1.414 49.73,2.113 72.46,2.113 27,0 54.7,-0.699 78.85,-2.113 4.96,2.113 5.68,13.48 0.69,17.746 l -26.97,2.113 c -27.7,2.156 -31.97,13.5 -31.97,66.082 0,60.383 2.83,123.594 4.99,166.922 2.11,41.2 4.24,82.39 7.09,126.42 h 1.42 c 15.61,-32.66 30.53,-69.61 45.44,-102.27 l 63.95,-137.091 c 16.34,-34.797 50.43,-104.411 62.52,-142.075 1.41,-2.117 4.94,-2.832 6.38,-2.832 2.83,0 5.66,0.715 7.1,2.832 12.8,32.68 44.74,99.461 76.73,161.977 l 63.21,124.309 c 14.2,27.69 41.2,84.5 46.16,92.32 h 1.44 l 2.11,-296.211 c 0,-45.445 0,-56.813 -34.8,-60.383 l -20.59,-2.113 c -4.27,-4.266 -3.57,-14.219 1.41,-17.746 29.11,1.414 61.08,2.113 85.96,2.113 25.55,0 54.7,-0.699 83.81,-2.113 4.97,2.832 5.69,13.48 1.42,17.746 l -22.75,2.113 c -33.36,2.852 -32.66,22.035 -34.8,57.551 -5.66,102.293 -6.38,233.683 -7.81,308.973 -0.7,49.75 4.98,63.23 49.73,67.5 l 14.91,1.42 c 3.55,2.85 3.55,14.91 -0.7,17.76 -22.01,-1.41 -45.46,-2.13 -63.21,-2.13 -14.21,0 -29.15,0 -53.28,2.13 -1.41,-32.68 -22.01,-71.76 -54,-136.39 l -66.76,-135.654 c -17.76,-36.254 -35.53,-73.183 -54.71,-106.562 h -1.42 c -17.03,31.265 -32.66,63.929 -49.01,97.308 z m 564.71,-247.197 c 0,-74.559 -3.57,-85.227 -44.03,-88.797 l -23.47,-2.113 c -4.24,-4.266 -2.83,-15.633 1.44,-17.746 41.91,1.414 66.06,2.113 96.59,2.113 h 63.95 c 63.21,0 126.42,-0.699 190.35,-2.113 9.25,19.164 27,73.859 31.99,98.722 -2.88,6.403 -12.81,8.516 -17.77,4.989 -18.49,-36.95 -37.65,-61.817 -50.43,-68.914 -15.63,-7.817 -36.23,-10.668 -90.93,-10.668 -62.51,0 -77.41,7.816 -85.96,16.328 -11.35,12.086 -13.5,36.254 -13.5,73.883 v 100.183 c 0,18.44 2.15,19.16 23.47,19.16 h 41.19 c 27.7,0 44.73,-0.72 54.7,-3.55 14.2,-3.57 19.16,-14.2 22.02,-27 l 6.38,-27.7 c 3.55,-4.265 15.63,-4.265 18.46,0.719 0,15.613 -2.83,42.611 -2.83,68.171 0,27 2.83,54.7 2.83,71.75 -2.83,4.99 -14.91,4.99 -18.46,0.7 l -5.69,-29.11 c -3.55,-17.75 -8.51,-22.02 -17.03,-24.85 -8.53,-2.85 -30.54,-4.27 -60.38,-4.27 h -41.19 c -21.32,0 -23.47,0 -23.47,19.88 v 142.06 c 0,27 0,28.42 21.33,28.42 h 51.13 c 31.25,0 54,-0.7 68.92,-4.25 36.93,-9.25 43.33,-34.1 53.97,-67.48 3.55,-4.29 14.92,-2.85 17.75,1.42 -2.83,31.24 -7.1,82.39 -11.37,94.47 -8.51,-2.13 -50.42,-2.13 -95.87,-2.13 h -133.56 c -29.11,0 -53.26,0.72 -83.81,2.13 -4.25,-2.13 -5.68,-14.91 -1.42,-17.76 l 11.37,-1.42 c 41.92,-4.98 43.33,-15.63 43.33,-89.51 z m 697.54,-38.348 c 5.66,-17.047 9.23,-29.851 9.23,-37.644 0,-7.121 -9.95,-11.367 -24.87,-12.805 l -20.61,-2.113 c -4.95,-3.547 -4.25,-14.914 1.45,-17.746 20.6,0.699 47.56,2.113 81.66,2.113 31.98,0 56.85,-0.699 85.96,-2.113 3.55,2.832 4.99,14.199 0,17.746 l -19.18,2.113 c -30.53,3.57 -39.78,14.238 -60.38,75.297 l -97.31,285.547 c -10.65,31.27 -22.02,63.95 -31.25,95.2 -1.41,4.96 -6.4,6.37 -10.67,6.37 -7.81,-9.21 -19.88,-22.01 -36.93,-26.97 2.14,-11.37 -2.11,-24.85 -12.08,-50.43 l -72.44,-191.791 c -29.85,-79.563 -49.71,-125.723 -62.5,-158.387 -9.97,-25.582 -25.58,-33.398 -42.63,-34.836 l -23.45,-2.113 c -4.25,-3.547 -2.83,-14.914 1.42,-17.746 19.18,0.699 44.76,2.113 68.19,2.113 33.4,-0.699 55.42,-0.699 73.88,-2.113 6.4,2.832 6.4,14.199 1.42,17.746 l -23.43,2.113 c -17.05,1.438 -20.6,5.684 -20.6,14.238 0,7.797 4.96,26.961 15.61,58.946 l 24.87,74.574 c 4.96,14.918 9.23,17.051 26.98,17.051 h 107.28 c 21.29,0 24.13,-2.133 29.11,-17.746 z m -127.16,283.415 c 7.81,21.32 14.93,38.34 17.05,41.91 h 1.41 c 4.29,-8.53 10.65,-27.69 16.33,-44.76 l 38.37,-115.76 c 6.4,-19.18 4.98,-22.031 -15.61,-22.031 h -87.38 c -19.88,0 -20.6,0.701 -14.92,17.051 z m 31.26,264.95 c -35.51,0 -60.38,-27.7 -60.38,-57.53 0,-30.55 24.87,-57.55 60.38,-57.55 35.52,0 60.38,27 60.38,57.55 0,29.83 -24.86,57.53 -60.38,57.53 m -31.98,-57.53 c 0,21.32 14.22,36.93 31.98,36.93 18.47,0 31.95,-15.61 31.95,-36.93 0,-22.03 -13.48,-37.65 -31.95,-37.65 -17.76,0 -31.98,15.62 -31.98,37.65 M 2086.65,341.48 c 0,-107.96 -39.06,-188.941 -142.08,-188.941 -108.65,0 -144.17,75.301 -144.17,189.652 v 153.422 c 0,73.879 1.42,85.965 42.62,89.516 l 17.03,1.414 c 4.28,2.832 2.87,14.914 -1.42,17.051 -34.8,-1.418 -58.23,-2.137 -87.36,-2.137 -28.41,0 -52.56,0.719 -88.08,2.137 -4.26,-2.137 -5.68,-14.219 -1.43,-17.051 l 17.77,-1.414 c 41.19,-3.551 42.61,-15.637 42.61,-89.516 V 327.98 c 0,-84.531 17.77,-136.378 55.41,-167.621 34.8,-29.828 83.81,-39.089 132.83,-39.089 52.56,0 105.14,18.468 135.67,51.871 39.78,42.609 49.71,107.98 49.71,169.769 v 80.262 c 0,39.781 0,121.476 9.95,144.906 4.27,9.215 17.77,15.613 35.54,17.051 l 17.02,1.414 c 3.57,4.25 4.27,13.5 -1.41,17.051 -25.58,-1.418 -44.77,-2.137 -74.58,-2.137 -27.72,0 -54,0.719 -81,2.137 -4.24,-2.832 -5.66,-12.086 -1.41,-17.051 l 17.77,-1.414 c 17.74,-1.438 30.54,-6.383 35.51,-14.938 12.08,-21.296 13.5,-102.992 13.5,-147.019 z m 594.54,81.692 c 0,32.683 -1.43,120.738 10.63,146.32 2.83,5.684 17.07,11.367 39.78,14.918 l 9.95,1.438 c 4.27,4.246 4.27,14.195 -1.41,17.746 -24.15,-1.418 -42.62,-2.137 -73.19,-2.137 -26.97,0 -51.12,0.719 -83.8,2.137 -5.67,-2.137 -6.39,-13.5 -1.42,-17.746 l 12.08,-1.438 c 28.4,-3.551 39.78,-7.816 44.03,-14.219 13.5,-21.296 14.2,-113.64 14.2,-147.019 v -152 c 0,-14.922 0,-26.313 -2.83,-29.844 h -1.42 c -33.38,34.102 -68.19,73.883 -117.21,128.563 l -68.89,77.41 c -23.43,26.301 -107.24,120.058 -121.48,156.293 -9.23,-1.418 -21.3,-2.137 -32.66,-2.137 -12.78,0 -50.45,0 -80.26,2.137 -5.7,-2.832 -5.7,-13.5 -1.42,-17.746 l 12.07,-1.438 c 17.05,-2.133 34.08,-7.117 44.05,-17.051 14.91,-16.347 15.61,-31.265 15.61,-51.144 V 310.949 c 0,-34.097 0.72,-120.777 -9.23,-146.328 -3.55,-7.812 -14.92,-12.082 -31.27,-14.211 l -19.16,-2.121 c -4.27,-4.258 -3.55,-14.23 1.41,-17.758 24.87,1.41 44.05,2.11 73.88,2.11 26.28,0 51.15,-0.7 83.09,-2.11 4.99,3.528 5.69,12.078 1.44,17.758 l -22.03,2.121 c -17.75,1.41 -31.95,5.68 -36.22,13.5 -12.08,21.309 -12.8,113.641 -12.8,147.039 v 154.836 c 0,21.297 0.72,37.649 3.57,46.18 h 1.42 c 14.91,-15.633 63.21,-73.879 82.39,-95.895 L 2578.9,228.531 c 61.79,-70.312 82.39,-95.172 90.91,-107.261 7.81,0 12.08,3.57 13.5,7.839 -2.12,18.45 -2.12,102.993 -2.12,124.313 z m 188.22,-182.551 c 0,-75.301 -1.42,-85.23 -43.35,-90.211 l -17.75,-2.121 c -4.26,-4.258 -2.85,-15.648 1.42,-17.758 35.51,1.41 59.68,2.11 89.51,2.11 28.42,0 52.56,-0.7 88.08,-2.11 4.24,2.11 5.66,14.91 1.41,17.758 l -17.76,2.121 c -41.9,4.981 -43.31,14.91 -43.31,90.211 V 493.48 c 0,75.297 1.41,87.379 43.31,90.93 l 17.76,1.438 c 4.25,2.828 2.83,15.609 -1.41,17.746 -35.52,-1.418 -59.66,-2.137 -88.08,-2.137 -29.83,0 -54,0.719 -89.51,2.137 -4.27,-2.137 -5.68,-14.918 -1.42,-17.746 l 17.75,-1.438 c 41.93,-3.551 43.35,-15.633 43.35,-90.93 z m 370.05,-22.742 c 12.09,-29.828 24.89,-64.641 32.69,-94.449 3.55,-1.442 7.12,-2.16 10.64,-2.16 2.86,0 5.69,0.718 7.82,2.16 12.09,37.621 45.47,120.019 73.88,185.379 l 38.37,87.363 c 31.94,72.465 59.66,129.992 79.54,163.371 9.23,14.918 19.9,23.449 36.93,24.867 l 21.33,1.438 c 3.53,3.527 3.53,14.914 -1.43,17.746 -23.43,-1.418 -45.47,-2.137 -68.92,-2.137 -26.97,0 -53.95,0.719 -73.85,2.137 -4.97,-2.832 -6.39,-13.5 -1.44,-17.746 l 12.8,-1.438 c 24.87,-2.832 31.97,-8.535 31.97,-13.5 0,-4.965 -0.72,-12.781 -6.41,-27.695 -12.08,-30.551 -45.46,-110.832 -66.06,-159.125 -16.33,-37.629 -46.16,-110.809 -68.17,-157.668 -35.54,80.976 -68.2,162.648 -100.88,245.047 -22.02,53.996 -34.1,92.344 -35.52,99.441 0.72,5.684 6.4,9.949 33.4,13.5 l 10.67,1.438 c 4.95,4.246 3.53,14.914 -1.43,17.746 -29.83,-1.418 -54.7,-2.137 -85.95,-2.137 -30.57,0 -53.28,0.719 -73.88,2.137 -5.7,-3.551 -6.4,-13.5 -1.41,-17.746 l 12.78,-1.438 c 30.53,-3.551 41.2,-18.465 57.53,-58.246 z m 403.46,21.32 c 0,-74.578 -3.53,-85.238 -44.03,-88.789 l -23.43,-2.121 c -4.27,-4.258 -2.85,-15.648 1.42,-17.758 41.91,1.41 66.04,2.11 96.61,2.11 h 63.91 c 63.23,0 126.44,-0.7 190.37,-2.11 9.23,19.18 26.98,73.879 31.96,98.719 -2.83,6.398 -12.78,8.52 -17.76,4.988 -18.45,-36.949 -37.63,-61.816 -50.43,-68.918 -15.62,-7.808 -36.22,-10.672 -90.91,-10.672 -62.52,0 -77.43,7.84 -85.95,16.364 -11.36,12.078 -13.5,36.226 -13.5,73.847 v 100.192 c 0,18.461 2.14,19.179 23.43,19.179 h 41.2 c 27.7,0 44.75,-0.718 54.7,-3.57 14.22,-3.551 19.18,-14.199 22.01,-27 l 6.4,-27.699 c 3.55,-4.25 15.62,-4.25 18.49,0.719 0,15.629 -2.87,42.609 -2.87,68.179 0,27 2.87,54.696 2.87,71.762 -2.87,4.965 -14.94,4.965 -18.49,0.68 l -5.68,-29.11 c -3.55,-17.75 -8.51,-22.019 -17.05,-24.851 -8.53,-2.852 -30.55,-4.27 -60.38,-4.27 h -41.2 c -21.29,0 -23.43,0 -23.43,19.879 v 142.063 c 0,27.015 0,28.433 21.32,28.433 h 51.13 c 31.26,0 53.98,-0.699 68.89,-4.269 36.93,-9.231 43.33,-34.098 54,-67.477 3.53,-4.265 14.92,-2.851 17.75,1.438 -2.83,31.222 -7.08,82.371 -11.35,94.457 -8.53,-2.137 -50.45,-2.137 -95.91,-2.137 h -133.52 c -29.14,0 -53.28,0.719 -83.85,2.137 -4.25,-2.137 -5.67,-14.918 -1.42,-17.746 l 11.39,-1.438 c 41.89,-4.965 43.31,-15.633 43.31,-89.512 z m 432.61,0 c 0,-74.578 -1.42,-83.808 -42.62,-88.789 l -17.76,-2.121 c -4.29,-4.98 -2.87,-15.648 1.41,-17.758 33.38,1.41 58.97,2.11 88.8,2.11 28.39,0 52.56,-0.7 84.5,-2.11 4.27,2.11 5.71,14.188 1.42,17.758 l -14.92,2.121 c -41.19,5.68 -42.61,14.211 -42.61,88.789 v 89.492 c 0,14.938 1.42,15.637 33.4,15.637 28.42,0 39.78,-7.098 50.43,-22.75 22.02,-31.949 51.15,-80.957 69.61,-107.238 50.41,-71.731 86.66,-89.5 147.02,-89.5 13.5,0 24.87,1.422 31.27,3.551 3.57,2.828 2.83,8.519 -0.72,9.929 -19.18,1.418 -36.93,9.239 -48.99,19.899 -48.32,40.5 -85.94,97.312 -142.79,188.941 -3.53,5.68 -7.1,12.801 -3.53,17.07 35.51,14.2 88.75,51.122 88.75,118.602 0,49.734 -24.84,81.676 -58.94,99.445 -32.68,17.766 -74.58,21.317 -118.61,21.317 -69.61,0 -118.62,-2.137 -158.4,-5.684 -5.69,-2.851 -5.69,-14.219 -0.72,-17.746 l 22.73,-2.871 c 29.11,-3.531 31.27,-15.613 31.27,-83.094 z m 58.22,319.649 c 0,19.898 2.14,22.73 46.18,22.73 78.85,0 113.64,-53.281 113.64,-109.394 0,-48.313 -16.33,-73.164 -35.51,-88.094 -20.6,-15.61 -47.6,-18.449 -73.16,-18.449 -36.23,0 -46.88,1.418 -49.01,3.531 -2.14,2.848 -2.14,10.668 -2.14,23.449 z M 4774.48,252.68 c 0,67.48 -44.07,108.699 -88.8,136.39 l -56.85,35.516 c -26.26,16.352 -60.36,46.184 -60.36,87.379 0,32.683 14.92,78.828 84.53,78.828 68.2,0 87.38,-46.145 96.59,-80.242 3.55,-4.27 14.92,-2.153 17.75,2.113 0,29.832 -6.38,69.613 -12.76,86.66 -5.69,0 -15.64,1.438 -24.87,4.27 -18.48,4.965 -44.03,9.211 -66.04,9.211 -92.37,0 -144.91,-54.676 -144.91,-122.157 0,-58.265 41.2,-98.738 76.71,-122.168 l 67.46,-44.031 c 51.87,-33.398 58.27,-68.199 58.27,-99.469 0,-42.609 -29.14,-81.671 -88.8,-81.671 -82.41,0 -111.52,69.613 -122.19,105.82 -2.83,4.293 -13.5,2.871 -17.03,-2.109 1.41,-33.399 10.67,-83.809 19.18,-99.461 13.5,-7.821 51.13,-26.289 110.81,-26.289 92.32,0 151.31,53.281 151.31,131.41 m 149.15,-12.059 c 0,-75.301 -1.41,-85.23 -43.33,-90.211 l -17.77,-2.121 c -4.24,-4.258 -2.83,-15.648 1.42,-17.758 35.53,1.41 59.68,2.11 89.49,2.11 28.42,0 52.59,-0.7 88.1,-2.11 4.27,2.11 5.68,14.91 1.42,17.758 l -17.75,2.121 c -41.94,4.981 -43.35,14.91 -43.35,90.211 V 493.48 c 0,75.297 1.41,87.379 43.35,90.93 l 17.75,1.438 c 4.26,2.828 2.85,15.609 -1.42,17.746 -35.51,-1.418 -59.68,-2.137 -88.1,-2.137 -29.81,0 -53.96,0.719 -89.49,2.137 -4.25,-2.137 -5.66,-14.918 -1.42,-17.746 l 17.77,-1.438 c 41.92,-3.551 43.33,-15.633 43.33,-90.93 z m 431.85,314.656 c 0,23.469 -0.7,24.168 20.62,24.168 h 50.43 c 39.06,0 66.06,-5.683 82.41,-17.765 10.65,-7.821 15.58,-34.102 17.73,-51.848 3.53,-4.266 15.65,-4.266 18.48,1.414 -2.13,21.32 2.84,78.848 10.67,107.961 -1.45,2.852 -9.27,3.566 -12.8,2.152 -10.67,-18.484 -17.05,-19.902 -55.41,-19.902 h -287.66 c -32.69,0 -56.12,-0.695 -60.4,22.016 -2.12,2.132 -11.37,1.418 -13.48,0 -4.97,-28.414 -15.64,-73.879 -27,-105.825 2.85,-5.683 12.78,-9.25 18.46,-4.984 7.82,17.766 14.92,33.399 31.99,49.016 17.74,16.347 56.81,17.765 87.36,17.765 h 39.06 c 21.32,0 21.32,-0.699 21.32,-22.754 V 239.199 c 0,-74.578 -3.57,-85.238 -44.03,-88.789 l -25.59,-2.121 c -5.68,-3.57 -4.26,-15.648 0,-17.758 45.45,1.41 70.31,2.11 98.73,2.11 28.41,0 52.56,-0.7 93.02,-2.11 4.29,2.11 5.68,14.91 1.46,17.758 l -22.74,2.121 c -41.19,3.551 -42.63,14.211 -42.63,88.789 z m 319.67,-316.078 c 0,-74.578 -3.59,-85.238 -44.05,-88.789 l -23.47,-2.121 c -4.23,-4.258 -2.83,-15.648 1.45,-17.758 41.9,1.41 66.07,2.11 96.62,2.11 h 63.92 c 63.21,0 126.41,-0.7 190.32,-2.11 9.27,19.18 27.01,73.879 32,98.719 -2.85,6.398 -12.82,8.52 -17.81,4.988 -18.42,-36.949 -37.6,-61.816 -50.37,-68.918 -15.63,-7.808 -36.27,-10.672 -90.93,-10.672 -62.53,0 -77.46,7.84 -86,16.364 -11.34,12.078 -13.44,36.226 -13.44,73.847 v 100.192 c 0,18.461 2.1,19.179 23.41,19.179 h 41.22 c 27.7,0 44.75,-0.718 54.7,-3.57 14.19,-3.551 19.18,-14.199 22.03,-27 l 6.36,-27.699 c 3.55,-4.25 15.65,-4.25 18.5,0.719 0,15.629 -2.85,42.609 -2.85,68.179 0,27 2.85,54.696 2.85,71.762 -2.85,4.965 -14.95,4.965 -18.5,0.68 l -5.66,-29.11 c -3.55,-17.75 -8.54,-22.019 -17.05,-24.851 -8.52,-2.852 -30.55,-4.27 -60.38,-4.27 h -41.22 c -21.31,0 -23.41,0 -23.41,19.879 v 142.063 c 0,27.015 0,28.433 21.28,28.433 h 51.17 c 31.24,0 53.95,-0.699 68.91,-4.269 36.91,-9.231 43.29,-34.098 53.96,-67.477 3.59,-4.265 14.93,-2.851 17.73,1.438 -2.8,31.222 -7.08,82.371 -11.31,94.457 -8.52,-2.137 -50.47,-2.137 -95.91,-2.137 H 5705.7 c -29.16,0 -53.33,0.719 -83.81,2.137 -4.29,-2.137 -5.69,-14.918 -1.46,-17.746 l 11.37,-1.438 c 41.91,-4.965 43.35,-15.633 43.35,-89.512 z m 606.56,316.078 c 0,23.469 -0.69,24.168 20.62,24.168 h 50.43 c 39.06,0 66.06,-5.683 82.42,-17.765 10.64,-7.821 15.63,-34.102 17.78,-51.848 3.53,-4.266 15.6,-4.266 18.43,1.414 -2.14,21.32 2.85,78.848 10.67,107.961 -1.46,2.852 -9.28,3.566 -12.81,2.152 -10.6,-18.484 -17.05,-19.902 -55.41,-19.902 h -287.62 c -32.7,0 -56.17,-0.695 -60.46,22.016 -2.07,2.132 -11.35,1.418 -13.44,0 -4.99,-28.414 -15.65,-73.879 -27,-105.825 2.83,-5.683 12.8,-9.25 18.48,-4.984 7.76,17.766 14.9,33.399 31.93,49.016 17.79,16.347 56.85,17.765 87.4,17.765 h 39.06 c 21.32,0 21.32,-0.699 21.32,-22.754 V 239.199 c 0,-74.578 -3.59,-85.238 -44.03,-88.789 l -25.62,-2.121 c -5.63,-3.57 -4.23,-15.648 0,-17.758 45.5,1.41 70.35,2.11 98.76,2.11 28.4,0 52.56,-0.7 93.06,-2.11 4.23,2.11 5.69,14.91 1.4,17.758 l -22.71,2.121 c -41.22,3.551 -42.66,14.211 -42.66,88.789 v 316.078"
         style="fill:#231f20;fill-opacity:1;fill-rule:nonzero;stroke:none"
         id="path501" />
      <path
         d="m 709.18,0 c 391.67,0 709.18,317.449 709.18,709.141 0,391.669 -317.51,709.199 -709.18,709.199 C 317.512,1418.34 0,1100.81 0,709.141 0,317.449 317.512,0 709.18,0"
         style="fill:#231f20;fill-opacity:1;fill-rule:nonzero;stroke:none"
         id="path503" />
      <path
         d="m 491.742,740.879 c 12.121,3.051 18.645,4.726 18.645,7.18 0,2.472 -11.407,13.082 -12.188,13.738 -0.797,0.641 1.141,2.793 2.317,2.176 5.742,-3.051 16.332,-7.637 21.632,-4.129 5.286,3.469 3.153,14.933 2.832,16.769 -0.136,0.797 2.672,1.875 3.172,0.641 0.52,-1.238 7.2,-19.164 12.621,-24.309 5.465,-5.164 18.168,-4.289 21.356,1.672 3.211,5.922 -4.945,19.383 -8.113,22.574 -0.739,0.719 0.937,2.832 1.656,2.454 0.734,-0.36 6.777,-4.688 10.105,-9.852 3.352,-5.145 9.575,-17.867 14.938,-20.918 5.363,-3.051 20.039,-7.496 22.332,-3.629 2.336,3.828 -6.16,15.613 -6.66,16.172 -0.496,0.598 1.515,3.051 2.254,2.473 13.043,-9.93 25.824,-31.145 25.824,-43.211 0,-11.188 -20.758,-26.938 -57.41,-43.649 -1.375,-0.636 -2.789,-1.258 -4.227,-1.914 -6.004,-3.109 -2.93,-5.523 19.102,-20.238 0.84,-0.559 1.554,-0.777 2.613,-0.777 h 29.531 V 580.66 c 0,-0.801 -0.457,-1.515 -1.433,-1.176 -10.411,3.528 -17.348,13.957 -17.348,13.957 0,0 -3.293,-13.82 -12.844,-16.531 -9.57,-2.754 -21.015,12.781 -35.554,37.11 0,0 -16.809,-4.805 -42.012,-15.614 -1.156,-0.5 -2.254,-0.082 -2.754,0.657 -0.539,0.738 -8.453,12.027 -8.914,12.683 -1.715,2.434 -1.395,5.981 1.019,8.234 29.668,28.059 41.575,42.497 46.024,48.575 1.312,1.797 -0.063,2.117 -3.172,2.215 -14.516,0.519 -23.07,-2.274 -33.719,-14.477 -0.679,-0.777 -4.07,0.238 -3.332,2.055 3.77,9.453 4.367,9.988 3.789,12.023 -0.597,2.055 -2.73,5.125 -9.871,5.223 -1.476,0.019 -1.695,3.73 -0.277,3.91 8.215,1.035 13.359,3.172 14.594,5.922 0.898,1.894 0.519,8.355 0.578,9.492 0.082,1.594 3.113,2.074 3.59,0.719 0.48,-1.336 3.429,-9.094 6.562,-10.313 3.109,-1.195 17.406,-5.441 20.855,-4.703 3.43,0.719 4.168,3.649 3.829,5.582 -1.016,5.863 -3.008,10.809 -5.86,12.621 -2.832,1.797 -16.551,10.492 -17.289,11.129 -0.719,0.637 0.301,2.973 1.235,2.789 0.937,-0.238 14.48,-4.504 15.933,-4.742 1.457,-0.199 3.192,0.977 3.688,2.352 0.519,1.375 2.734,10.07 3.113,11.226 0.34,1.176 3.187,0.957 3.309,-0.277 0.16,-1.238 -0.379,-12.465 0.039,-13.86 0.441,-1.378 3.332,-13.003 7.019,-16.75 3.692,-3.789 5.742,-4.148 11.766,-1.675 6.023,2.453 34.918,18.984 42.73,27.976 1.957,2.254 4.129,8.813 -8.691,13.598 -11.207,4.148 -65.844,21.418 -99.723,-17.805 -0.598,-0.699 -3.289,0.539 -2.754,1.535 6.742,12.543 7.481,14.657 6.461,17.426 -1.035,2.754 -2.711,5.324 -12.781,6.082 -0.938,0.082 -1.293,2.793 -0.137,3.051 m 150.012,0 c 12.121,3.051 18.664,4.726 18.664,7.18 0,2.472 -11.406,13.082 -12.203,13.738 -0.801,0.641 1.137,2.793 2.312,2.176 5.743,-3.051 16.328,-7.637 21.633,-4.129 5.305,3.469 3.153,14.933 2.832,16.769 -0.14,0.797 2.672,1.875 3.192,0.641 0.519,-1.238 7.199,-19.164 12.64,-24.309 5.426,-5.164 18.129,-4.289 21.317,1.672 3.211,5.922 -4.903,19.383 -8.114,22.574 -0.738,0.719 0.938,2.832 1.672,2.454 0.719,-0.36 6.762,-4.688 10.114,-9.852 3.347,-5.145 9.55,-17.867 14.914,-20.918 5.382,-3.051 20.039,-7.496 22.351,-3.629 2.317,3.828 -6.16,15.613 -6.656,16.172 -0.52,0.598 1.473,3.051 2.23,2.473 13.082,-9.93 25.844,-31.145 25.844,-43.211 0,-11.188 -20.777,-26.938 -57.43,-43.649 -1.375,-0.636 -2.769,-1.258 -4.226,-1.914 -5.981,-3.109 -2.91,-5.523 19.101,-20.238 0.84,-0.559 1.555,-0.777 2.614,-0.777 h 29.531 V 580.66 c 0,-0.801 -0.438,-1.515 -1.414,-1.176 -10.41,3.528 -17.367,13.957 -17.367,13.957 0,0 -3.293,-13.82 -12.844,-16.531 -9.57,-2.754 -21.016,12.781 -35.535,37.11 0,0 -16.809,-4.805 -42.012,-15.614 -1.176,-0.5 -2.273,-0.082 -2.773,0.657 -0.52,0.738 -8.434,12.027 -8.914,12.683 -1.715,2.434 -1.395,5.981 1.019,8.234 29.672,28.059 41.574,42.497 46,48.575 1.336,1.797 -0.019,2.117 -3.129,2.215 -14.515,0.519 -23.09,-2.274 -33.738,-14.477 -0.66,-0.777 -4.07,0.238 -3.332,2.055 3.75,9.453 4.367,9.988 3.808,12.023 -0.597,2.055 -2.75,5.125 -9.89,5.223 -1.477,0.019 -1.672,3.73 -0.277,3.91 8.214,1.035 13.378,3.172 14.636,5.922 0.875,1.894 0.477,8.355 0.559,9.492 0.058,1.594 3.109,2.074 3.586,0.719 0.461,-1.336 3.429,-9.094 6.543,-10.313 3.129,-1.195 17.426,-5.441 20.855,-4.703 3.43,0.719 4.168,3.649 3.871,5.582 -1.039,5.863 -3.05,10.809 -5.883,12.621 -2.812,1.797 -16.57,10.492 -17.308,11.129 -0.719,0.637 0.297,2.973 1.234,2.789 0.957,-0.238 14.477,-4.504 15.934,-4.742 1.476,-0.199 3.191,0.977 3.711,2.352 0.496,1.375 2.73,10.07 3.109,11.226 0.32,1.176 3.168,0.957 3.309,-0.277 0.16,-1.238 -0.399,-12.465 0.043,-13.86 0.437,-1.378 3.308,-13.003 7.015,-16.75 3.711,-3.789 5.746,-4.148 11.746,-1.675 6.024,2.453 34.915,18.984 42.754,27.976 1.953,2.254 4.106,8.813 -8.695,13.598 -11.207,4.148 -65.844,21.418 -99.742,-17.805 -0.598,-0.699 -3.27,0.539 -2.75,1.535 6.738,12.543 7.476,14.657 6.461,17.426 -1.02,2.754 -2.715,5.324 -12.766,6.082 -0.957,0.082 -1.293,2.793 -0.156,3.051 m 150.031,0 c 12.121,3.051 18.645,4.726 18.645,7.18 0,2.472 -11.407,13.082 -12.184,13.738 -0.801,0.641 1.137,2.793 2.313,2.176 5.722,-3.051 16.332,-7.637 21.632,-4.129 5.305,3.469 3.153,14.933 2.813,16.769 -0.141,0.797 2.691,1.875 3.211,0.641 0.48,-1.238 7.18,-19.164 12.621,-24.309 5.465,-5.164 18.148,-4.289 21.34,1.672 3.207,5.922 -4.946,19.383 -8.117,22.574 -0.739,0.719 0.937,2.832 1.656,2.454 0.715,-0.36 6.777,-4.688 10.09,-9.852 3.367,-5.145 9.57,-17.867 14.953,-20.918 5.344,-3.051 20.039,-7.496 22.351,-3.629 2.317,3.828 -6.179,15.613 -6.679,16.172 -0.496,0.598 1.496,3.051 2.254,2.473 13.043,-9.93 25.824,-31.145 25.824,-43.211 0,-11.188 -20.758,-26.938 -57.41,-43.649 -1.375,-0.636 -2.813,-1.258 -4.227,-1.914 -6,-3.109 -2.93,-5.523 19.106,-20.238 0.836,-0.559 1.535,-0.777 2.609,-0.777 h 29.531 V 580.66 c 0,-0.801 -0.437,-1.515 -1.433,-1.176 -10.411,3.528 -17.348,13.957 -17.348,13.957 0,0 -3.293,-13.82 -12.863,-16.531 -9.551,-2.754 -20.996,12.781 -35.535,37.11 0,0 -16.829,-4.805 -42.012,-15.614 -1.176,-0.5 -2.254,-0.082 -2.754,0.657 -0.516,0.738 -8.473,12.027 -8.91,12.683 -1.715,2.434 -1.399,5.981 0.996,8.234 29.672,28.059 41.594,42.497 46.019,48.575 1.317,1.797 -0.039,2.117 -3.148,2.215 -14.516,0.519 -23.07,-2.274 -33.738,-14.477 -0.661,-0.777 -4.051,0.238 -3.332,2.055 3.769,9.453 4.367,9.988 3.828,12.023 -0.598,2.055 -2.75,5.125 -9.891,5.223 -1.492,0.019 -1.691,3.73 -0.297,3.91 8.235,1.035 13.379,3.172 14.637,5.922 0.875,1.894 0.496,8.355 0.535,9.492 0.082,1.594 3.133,2.074 3.633,0.719 0.457,-1.336 3.43,-9.094 6.539,-10.313 3.109,-1.195 17.406,-5.441 20.836,-4.703 3.449,0.719 4.168,3.649 3.851,5.582 -1.019,5.863 -3.011,10.809 -5.843,12.621 -2.832,1.797 -16.571,10.492 -17.309,11.129 -0.719,0.637 0.301,2.973 1.235,2.789 0.941,-0.238 14.457,-4.504 15.914,-4.742 1.457,-0.199 3.191,0.977 3.691,2.352 0.535,1.375 2.73,10.07 3.109,11.226 0.379,1.176 3.211,0.957 3.328,-0.277 0.161,-1.238 -0.398,-12.465 0.04,-13.86 0.441,-1.378 3.312,-13.003 7.019,-16.75 3.711,-3.789 5.723,-4.148 11.766,-1.675 6.004,2.453 34.894,18.984 42.734,27.976 1.934,2.254 4.145,8.813 -8.695,13.598 -11.188,4.148 -65.844,21.418 -99.742,-17.805 -0.598,-0.699 -3.27,0.539 -2.731,1.535 6.738,12.543 7.477,14.657 6.457,17.426 -1.035,2.754 -2.711,5.324 -12.801,6.082 -0.918,0.082 -1.273,2.793 -0.117,3.051 M 448.352,471.367 H 962.273 V 864.332 H 448.352 V 471.367"
         style="fill:#ffffff;fill-opacity:1;fill-rule:nonzero;stroke:none"
         id="path505" />
      <path
         d="m 544.285,651.434 c -3.41,-0.758 -5.664,-3.707 -5.023,-6.621 0.636,-2.911 3.926,-4.625 7.355,-3.926 3.391,0.777 5.645,3.726 5.008,6.636 -0.641,2.915 -3.93,4.649 -7.34,3.911"
         style="fill:#ffffff;fill-opacity:1;fill-rule:nonzero;stroke:none"
         id="path507" />
      <path
         d="m 694.313,651.434 c -3.43,-0.758 -5.684,-3.707 -5.028,-6.621 0.641,-2.911 3.91,-4.625 7.34,-3.926 3.391,0.777 5.66,3.726 5.023,6.636 -0.636,2.915 -3.925,4.649 -7.335,3.911"
         style="fill:#ffffff;fill-opacity:1;fill-rule:nonzero;stroke:none"
         id="path509" />
      <path
         d="m 844.328,651.434 c -3.41,-0.758 -5.66,-3.707 -5.023,-6.621 0.656,-2.911 3.886,-4.625 7.336,-3.926 3.41,0.777 5.664,3.726 5.007,6.636 -0.621,2.915 -3.91,4.649 -7.32,3.911"
         style="fill:#ffffff;fill-opacity:1;fill-rule:nonzero;stroke:none"
         id="path511" />
      <path
         d="M 962.273,907.105 705.621,1019.29 448.352,906.746 v -19.441 h 513.921 v 19.8"
         style="fill:#ffffff;fill-opacity:1;fill-rule:nonzero;stroke:none"
         id="path513" />
      <path
         d="m 1134.12,964.684 c 12.48,0 22.59,10.105 22.59,22.57 0,12.484 -10.11,22.596 -22.59,22.596 -12.47,0 -22.58,-10.112 -22.58,-22.596 0,-12.465 10.11,-22.57 22.58,-22.57"
         style="fill:#ffffff;fill-opacity:1;fill-rule:nonzero;stroke:none"
         id="path515" />
      <path
         d="m 279.203,964.785 c 12.481,0 22.59,10.113 22.59,22.574 0,12.485 -10.109,22.591 -22.59,22.591 -12.465,0 -22.574,-10.106 -22.574,-22.591 0,-12.461 10.109,-22.574 22.574,-22.574"
         style="fill:#ffffff;fill-opacity:1;fill-rule:nonzero;stroke:none"
         id="path517" />
      <path
         d="m 195.383,741.094 25.066,-4.328 c 11.586,-1.993 33.141,-5.703 39.024,-9.59 2.234,-1.317 3.59,-5.387 3.468,-10.391 l -0.117,-5.004 c 0.219,-0.558 3.906,-2.074 3.906,-2.074 l 2.473,1.137 c 0.18,0.461 1.817,21.996 1.817,21.996 l 3.05,23.168 c -0.082,0.5 -2.691,2.414 -2.691,2.414 l -3.371,-0.34 c -0.36,-0.539 -1.317,-5.582 -1.317,-5.582 -0.918,-4.867 -2.632,-8.016 -4.867,-8.895 -3.168,-1.175 -13,-1.554 -41.754,3.43 l -23.351,4.028 c -24.305,4.226 -52.063,16.152 -46.36,49.074 2.075,12.086 6.86,20.597 14.575,26.043 10.05,7.078 25.046,8.773 45.882,5.144 l 43.891,-7.578 c 21.078,-3.668 23.352,-4.445 21.773,-15.851 l -0.714,-4.946 c 0.355,-1.238 1.293,-1.816 2.609,-2.035 1.316,-0.18 2.973,0.039 3.711,0.977 0.16,0.359 5.203,25.547 5.203,25.547 l 6.32,25.183 c -0.277,1.477 -1.554,2.192 -2.671,2.512 -1.434,0.398 -2.711,0.219 -3.387,-0.5 -0.203,-0.336 -1.758,-5.363 -1.758,-5.363 -3.41,-10.868 -6.359,-11.028 -27.938,-7.297 l -47.953,8.293 c -24.308,4.23 -40.14,1.836 -51.347,-7.715 -9.055,-7.496 -15.137,-19.801 -18.008,-36.531 -2.731,-15.774 0.422,-31.883 8.258,-41.997 8.711,-11.503 23.949,-19.019 46.578,-22.929"
         style="fill:#ffffff;fill-opacity:1;fill-rule:nonzero;stroke:none"
         id="path519" />
      <path
         d="m 291.781,533.664 c 1.215,-0.262 3.91,-2.91 7.379,-9.531 l 1.336,-2.653 c 1.414,-0.937 2.93,-0.957 4.227,-0.378 1.078,0.457 1.816,1.296 2.054,2.273 -0.058,0.477 -7.636,20.656 -7.636,20.656 l -7.457,23.43 c -0.797,1.098 -1.996,1.496 -3.371,1.316 -1.477,-0.238 -2.711,-1.074 -3.172,-2.172 -0.039,-0.48 0.718,-3.929 0.718,-3.929 1.575,-7.356 1.715,-11.125 0.457,-12.641 -3.031,-3.512 -16.988,-8.734 -39.339,-14.734 l -42.614,-11.43 c -3.648,-0.976 -7.078,-1.894 -8.035,-1.473 0.676,-0.043 27.457,41.735 27.457,41.735 l 16.531,25.164 2.454,3.648 c 7.218,10.789 24.109,36.075 32.382,41.895 0,0.019 0.02,0.062 0.02,0.082 0.121,1.336 -2.293,9.691 -2.293,9.691 -0.02,0.078 -4.289,22.492 -4.289,22.492 -0.777,1.118 -1.735,1.473 -2.91,1.395 -1.496,-0.098 -3.032,-0.937 -3.707,-2.012 -0.121,-0.5 0.199,-3.968 0.199,-3.968 0.359,-3.911 0.277,-9.375 -2.074,-13.043 -3.469,-5.004 -7.297,-6.301 -13.16,-7.856 l -58.067,-15.375 -3.191,-0.855 c -10.707,-2.934 -30.629,-8.356 -37.61,-7.578 -2.031,0.339 -3.949,2.91 -5.242,7.078 -0.019,0.019 -1.758,5.203 -1.758,5.203 -0.336,0.441 -3.687,0.64 -3.687,0.64 l -2.789,-2.293 c -0.043,-0.519 4.922,-20.918 4.922,-20.918 l 4.269,-23.312 c 0.258,-0.457 3.031,-1.273 3.031,-1.273 l 3.547,1.812 c 0,0.063 0.024,0.082 0.024,0.141 0.097,1.054 -0.52,6.781 -0.52,6.781 -0.301,2.211 -0.359,4.168 -0.199,5.801 0.199,2.132 0.777,3.73 1.695,4.644 5.84,5.125 36.629,13.481 40.117,14.418 l 43.391,11.645 c 4.367,1.179 8.856,2.195 11.805,2.293 -1.176,-1.696 -20.039,-29.332 -20.039,-29.332 l -40.18,-60.297 c -15.715,-23.551 -20.641,-30.391 -23.211,-33.461 0.457,-2.992 1.934,-4.406 3.789,-4.508 3.528,1.316 14.934,4.586 34.258,9.77 l 50.43,13.543 c 9.75,2.609 32.562,8.812 40.058,7.476"
         style="fill:#ffffff;fill-opacity:1;fill-rule:nonzero;stroke:none"
         id="path521" />
      <path
         d="m 361.359,434.078 c 0.957,0.738 2.036,2.035 1.895,3.211 -0.16,0.379 -15.094,21.078 -15.094,21.078 l -14.137,21.774 c -1.316,0.879 -2.875,0.379 -3.968,-0.297 -0.598,-0.36 -2.016,-1.336 -2.016,-2.696 0.121,-0.378 2.691,-4.882 2.691,-4.882 5.645,-9.95 3.551,-11.907 -14.433,-24.231 l -60.582,-41.457 c -17.824,-12.199 -20.039,-13.258 -27.656,-4.566 l -3.43,3.929 c -1.793,0.5 -3.25,-0.32 -4.149,-1.171 -0.917,-0.879 -1.375,-1.879 -1.253,-2.719 0.156,-0.371 15.312,-21.449 15.312,-21.449 l 13.918,-21.403 c 1.316,-0.847 2.852,-0.34 3.969,0.301 0.597,0.379 2.015,1.359 1.996,2.691 -0.102,0.36 -2.496,4.969 -2.496,4.969 -5.363,10.25 -3.586,11.942 14.238,24.129 l 60.602,41.473 c 17.984,12.324 20.554,13.582 27.777,4.707 l 3.27,-4.028 c 1.554,-0.738 2.988,0.2 3.546,0.637"
         style="fill:#ffffff;fill-opacity:1;fill-rule:nonzero;stroke:none"
         id="path523" />
      <path
         d="m 505.313,316.48 c 0.539,1.059 0.64,2.051 0.281,2.829 -0.321,0.339 -16.891,10.793 -16.891,10.793 l -16.988,12.238 c -1.535,0.238 -2.793,-0.399 -3.731,-1.488 -0.656,-0.801 -1.035,-1.661 -1.093,-2.473 -0.024,-0.301 0,-0.578 0.078,-0.859 0.258,-0.418 3.011,-2.79 3.011,-2.79 3.989,-3.449 5.262,-5.691 5.204,-6.742 -0.02,-0.218 -0.079,-0.359 -0.161,-0.5 l -6.218,-5.367 -43.133,-24.723 c 0,0 -35.613,-20.16 -43.109,-24.41 0.894,3.434 18.882,72.684 18.882,72.684 4.407,16.367 8.395,27.539 9.313,29.437 0.558,0.493 2.152,0.672 8.652,-3.531 l 2.633,-1.68 c 1.516,-0.078 2.57,0.563 3.309,1.68 0.8,1.172 1.039,2.594 0.64,3.641 -0.262,0.34 -19.844,16.043 -19.844,16.043 l -16.089,14.386 c -1.536,0.364 -2.731,-0.117 -3.61,-1.046 -0.937,-1 -1.375,-2.301 -1.136,-3.512 0.199,-0.399 2.812,-3.11 2.812,-3.11 5.883,-6.242 5.781,-11.332 2.531,-23.511 l -25.402,-94.438 c -2.254,-9.152 -5.504,-19.16 -8.953,-27.5 0.058,-0.722 2.351,-3.312 2.351,-3.312 0.02,0 2.594,-1.02 2.594,-1.02 10.188,6.922 32.742,20.36 50.027,30.11 l 24.168,13.5 c 21.278,11.851 39.043,20.679 48.579,25.011 4.945,2.129 8.652,2.129 12.402,0.059 l 5.262,-3.027 c 1.816,0.117 3.031,1.468 3.629,2.628"
         style="fill:#ffffff;fill-opacity:1;fill-rule:nonzero;stroke:none"
         id="path525" />
      <path
         d="m 632.563,277.602 c -2.43,0.136 -14.079,3.75 -26.399,7.558 -0.16,0.059 -37.211,11.52 -37.211,11.52 l -23.031,7.781 c -1.555,-0.16 -2.453,-1.52 -2.91,-2.711 -0.239,-0.641 -0.739,-2.289 0.097,-3.352 0.301,-0.218 3.332,-1.597 3.332,-1.597 10.571,-4.699 10.231,-7.102 3.907,-27.551 l -21.973,-70.91 c -6.402,-20.738 -8.176,-22.629 -18.902,-20.301 l -6.66,1.41 c -1.778,-0.711 -2.375,-2.25 -2.555,-3.488 -0.18,-1.25 0.082,-2.332 0.68,-2.91 0.339,-0.18 27.296,-7.871 27.296,-7.871 l 17.731,-5.489 52.582,-16.953 c 5.144,4.852 14.754,18.532 18.285,25.012 -0.039,1.609 -0.758,2.711 -1.894,3.43 -1.157,0.742 -2.473,0.98 -3.532,0.64 -7.957,-8.179 -15.613,-13.879 -19.82,-14.781 -5.004,-0.82 -11.266,0.34 -25.742,4.832 -17.508,5.438 -20.5,8.809 -21.953,11.539 -1.977,4.012 -0.52,10.75 2.652,21.02 l 8.594,27.781 c 1.394,4.5 1.472,4.519 7.176,2.789 l 11.406,-3.551 c 7.16,-2.23 12.105,-3.929 14.636,-5.578 3.469,-2.101 3.711,-5.41 3.45,-8.68 l -0.617,-8.211 c 0.597,-1.621 2.171,-2.359 3.371,-2.601 1.336,-0.277 2.472,-0.059 3.168,0.582 0.218,0.34 2.156,7.719 2.156,7.719 l 3.129,11.761 4.187,11.911 2.75,7.75 c -0.176,1.32 -1.015,2.16 -2.25,2.66 -1.136,0.476 -2.851,0.75 -3.988,0.019 -0.281,-0.281 -4.348,-7.883 -4.348,-7.883 -2.492,-4.589 -4.066,-4.949 -6.183,-5 -2.41,-0.058 -8.395,1.332 -16.848,3.942 -0.019,0 -11.426,3.551 -11.426,3.551 -5.742,1.781 -5.742,1.781 -4.289,6.539 l 12.227,39.39 c 1.136,3.7 1.773,5.739 2.73,6.239 0.719,0.402 2.016,0.101 4.606,-0.7 l 14.179,-4.39 c 8.672,-2.688 14.817,-4.821 18.563,-7.039 8.695,-5.258 8.734,-12.059 8.773,-21.469 v -1.199 c 0.442,-1.184 1.399,-1.832 2.711,-2.172 1.098,-0.281 2.715,-0.34 3.653,0.441 0.296,0.449 0.875,3.149 0.875,3.149 1.894,8.949 4.507,21.23 4.386,24.66 l -0.019,0.719 -0.738,0.043"
         style="fill:#ffffff;fill-opacity:1;fill-rule:nonzero;stroke:none"
         id="path527" />
      <path
         d="m 750.188,207.691 c -10.387,-1.019 -13.18,-0.863 -13.68,-0.543 -0.438,0.5 -0.695,3.114 -0.977,6.161 l -4.707,48.121 c -0.219,2.39 -0.238,3.648 0.442,4.429 1.136,1.289 4.726,1.711 11.386,2.032 23.868,1.238 34.176,-12.7 35.196,-27.2 0.773,-11.5 -1.317,-19.921 -7.5,-25.8 -5.582,-5.172 -13.719,-6.563 -20.16,-7.2 m 89.054,-55.613 c -5.383,-0.238 -11.008,1.113 -14.957,3.801 -15.711,10.07 -29.172,25.93 -47.914,48.98 -1.437,1.75 -1.437,2.871 -0.976,3.59 5.582,2.789 24.304,14.531 22.074,37.313 -1.656,16.828 -12.004,24.34 -20.379,27.707 -9.195,3.89 -19.863,3.293 -31.508,2.672 l -3.41,-0.172 c -18.625,-0.957 -33,-2.219 -45.266,-3.989 -1.156,-0.621 -1.672,-1.66 -1.672,-2.968 -0.043,-1.301 0.457,-2.953 1.633,-3.711 0.379,-0.141 6.981,-0.621 6.981,-0.621 7.515,-0.559 8.593,-2.93 10.507,-23.192 l 7.118,-74.297 c 2.156,-21.972 1.757,-23.152 -9.09,-25.043 l -5.086,-0.898 c -1.336,-1.461 -1.297,-3.109 -0.977,-4.27 0.317,-1.199 0.957,-2.05 1.735,-2.39 0.398,-0.059 25.902,1.871 25.902,1.871 l 24.426,0.66 c 1.437,0.738 1.637,2.289 1.676,2.93 0.058,1.277 -0.239,2.929 -1.297,3.711 -0.399,0.16 -4.766,0.558 -4.766,0.558 -11.445,0.961 -11.965,2.989 -14.098,24.692 l -2.55,25.84 c -0.36,3.726 -0.36,3.726 8.472,4.578 7.977,0.8 11.586,-1.051 15.098,-5.02 l 24.324,-28.18 c 16.434,-17.98 26.981,-23.128 45.625,-20.75 l 9.113,2.27 c 0.899,0.84 1.118,1.809 0.856,2.73 -0.238,0.801 -0.836,1.399 -1.594,1.598"
         style="fill:#ffffff;fill-opacity:1;fill-rule:nonzero;stroke:none"
         id="path529" />
      <path
         d="m 928.723,265.91 -19.446,0.621 c -13.539,0.649 -22.711,4.938 -27.238,12.719 -1.453,2.512 -3.367,6.738 -3.508,11.559 -0.179,6.203 2.571,13.441 12.961,19.48 16.172,9.383 27.16,1.762 34.977,-5.961 1.136,-0.476 2.172,-0.258 3.23,0.422 1.098,0.738 2.211,2 2.274,3.23 -4.668,8.301 -12.203,17.348 -16.153,20.559 -0.898,0.082 -7.578,-2.41 -7.578,-2.41 -5.484,-1.258 -12.465,-4.09 -18.105,-7.379 -22.157,-12.879 -29.731,-34.141 -18.824,-52.898 8.773,-15.161 25.363,-19.172 37.707,-19.864 l 23.371,-1.218 c 17.289,-0.821 23.91,-8.192 28.453,-16.09 3.172,-5.418 4.109,-11.508 2.633,-17.09 -1.614,-6.078 -6,-11.371 -12.723,-15.27 -18.445,-10.73 -34.715,-1.199 -45.106,8.649 -0.957,0.5 -1.894,0.402 -2.851,-0.141 -1.137,-0.617 -2.352,-1.887 -2.492,-3.367 5.125,-8.32 14.976,-20.063 19.703,-22.93 6.18,-0.121 18.023,1.16 32.441,9.547 12.383,7.184 20.481,16.832 23.41,27.902 0.879,3.27 1.278,6.579 1.176,9.891 -0.18,6.199 -2.012,12.418 -5.48,18.34 -8.137,14.019 -22.137,21.117 -42.832,21.699"
         style="fill:#ffffff;fill-opacity:1;fill-rule:nonzero;stroke:none"
         id="path531" />
      <path
         d="m 1105.53,301.801 c -0.35,-0.141 -4.58,-3.129 -4.58,-3.129 -9.49,-6.703 -11.13,-5.363 -25.82,10.93 l -49.08,54.597 c -14.57,16.211 -16.13,18.602 -8.31,26.942 l 3.59,3.75 c 0.49,1.648 -0.66,2.968 -1.16,3.468 -0.92,0.891 -2.29,1.731 -3.41,1.411 -0.36,-0.18 -18.924,-17.75 -18.924,-17.75 l -19.699,-16.879 c -0.68,-1.403 0,-2.86 0.797,-3.852 0.457,-0.539 1.613,-1.859 2.949,-1.66 0.379,0.16 4.488,3.293 4.488,3.293 9.113,6.898 11.324,5.109 25.919,-11.113 l 49.1,-54.547 c 14.43,-16.09 15.77,-18.153 8.13,-26.84 l -3.41,-3.91 c -0.28,-1.871 0.74,-3.172 1.72,-3.953 1.01,-0.797 2.03,-1.118 2.85,-0.918 0.34,0.199 19.22,18.007 19.22,18.007 l 19.4,16.653 c 0.66,1.418 -0.04,2.871 -0.83,3.871 -0.44,0.558 -1.6,1.828 -2.94,1.629"
         style="fill:#ffffff;fill-opacity:1;fill-rule:nonzero;stroke:none"
         id="path533" />
      <path
         d="m 1215.71,447.004 c -0.59,0.398 -2.11,1.234 -3.31,0.656 -0.28,-0.277 -4.08,-5.703 -4.08,-5.703 -6.64,-9.211 -8.92,-8.336 -27.48,2.313 l -79.66,45.585 c -2.96,1.672 -4.39,2.512 -4.61,3.27 -0.2,0.758 0.56,2.133 1.79,4.309 l 7.28,12.679 c 5.61,9.774 10.83,15.614 15.97,17.887 2.46,1.078 7.94,-0.02 15.02,-3.012 1.71,0.18 2.81,1.477 3.31,2.711 0.54,1.239 0.54,2.477 -0.04,3.332 -5.96,2.793 -19.56,12.203 -25.76,18.383 -2.06,0.281 -3.57,-2.152 -3.75,-3.387 2.97,-5.425 2.73,-6.781 -2.87,-16.531 l -41.5,-72.465 c -5.22,-9.191 -8.02,-13.519 -13.3,-11.683 -1.75,-0.34 -3.05,-3.211 -2.99,-4.227 6.72,-5.902 16.55,-15.055 22.95,-22.516 1.8,-0.355 3.15,0.262 4.15,1.317 0.9,0.957 1.33,2.137 1.17,3.254 -3.31,4.625 -6.28,8.652 -7.75,15.191 -1.44,6.281 3.27,15.637 8.05,23.988 l 5.63,9.833 c 1.27,2.253 2.11,3.648 2.91,3.867 0.82,0.218 2.31,-0.637 4.8,-2.075 l 79.99,-45.781 c 18.8,-10.769 20.27,-12.898 15.69,-22.847 l -3.15,-6.762 c -0.02,-1.52 0.82,-2.641 2.21,-3.352 1,-0.5 2.47,-0.859 3.43,-0.218 0.28,0.3 13.96,25.46 13.96,25.46 l 13.92,23.094 c 0.2,1.555 -0.92,2.731 -1.98,3.43"
         style="fill:#ffffff;fill-opacity:1;fill-rule:nonzero;stroke:none"
         id="path535" />
      <path
         d="m 1256.91,673.426 c -1.64,-0.242 -2.61,-1.098 -3.21,-2.336 -0.6,-1.195 -0.66,-2.531 -0.2,-3.551 8.97,-6.976 15.49,-13.957 16.83,-18.062 1.37,-4.868 0.9,-11.227 -1.96,-26.106 -3.47,-18.004 -6.48,-21.375 -9.05,-23.09 -3.77,-2.39 -10.63,-1.695 -21.18,0.34 l -28.55,5.484 -3.87,1.415 c -0.54,0.777 -0.24,2.574 0.3,5.367 l 2.27,11.761 c 1.36,7.079 2.56,12.383 3.93,15.176 1.7,3.688 4.97,4.266 8.22,4.367 l 8.25,0.297 c 1.54,0.739 2.1,2.395 2.24,3.614 0.14,1.351 -0.2,2.468 -0.92,3.109 -0.38,0.16 -7.88,1.254 -7.88,1.254 l -12.1,1.836 -12.34,2.851 -7.96,1.875 c -1.3,-0.339 -2.02,-1.257 -2.41,-2.574 -0.34,-1.156 -0.42,-2.89 0.45,-3.945 0.3,-0.223 8.3,-3.43 8.3,-3.43 4.85,-1.996 5.38,-3.492 5.66,-5.586 0.3,-2.39 -0.48,-8.672 -2.11,-17.187 l -2.23,-11.766 c -1.16,-5.883 -1.16,-5.883 -6.05,-4.945 l -40.47,7.797 c -7.32,1.418 -7.32,1.418 -6.31,6.699 l 2.8,14.578 c 1.71,8.895 3.15,15.215 4.94,19.223 4.25,9.172 10.97,9.968 20.26,11.066 l 1.3,0.141 c 1.11,0.558 1.69,1.593 1.87,2.91 0.16,1.137 0.04,2.754 -0.84,3.609 -0.48,0.219 -3.33,0.5 -3.33,0.5 -9.05,0.914 -21.49,2.172 -24.88,1.653 l -0.74,-0.118 0.04,-0.718 c 0.14,-2.391 -2.09,-14.098 -4.49,-26.481 -0.14,-0.777 -7.45,-38.844 -7.45,-38.844 l -5.21,-23.75 c 0.34,-1.515 1.78,-2.273 3.01,-2.593 0.68,-0.157 2.39,-0.477 3.33,0.48 0.2,0.301 1.22,3.488 1.22,3.488 3.49,11.028 5.94,10.93 26.98,6.903 l 72.9,-14 c 21.3,-4.11 23.37,-5.645 22.25,-16.551 l -0.69,-6.82 c 0.91,-1.676 2.53,-2.114 3.76,-2.133 1.28,-0.039 2.32,0.34 2.82,1.015 0.14,0.34 4.84,27.977 4.84,27.977 l 3.49,18.227 11.03,54.117 c -5.35,4.566 -19.96,12.644 -26.86,15.457"
         style="fill:#ffffff;fill-opacity:1;fill-rule:nonzero;stroke:none"
         id="path537" />
      <path
         d="m 1141.02,813.961 c 0,0.019 -3.11,14.359 -3.11,14.359 -2.38,10.965 -2.41,18.801 -0.06,23.868 1.11,2.414 5.9,5.125 13.16,7.437 1.24,1.316 1.12,2.992 0.76,4.148 -0.44,1.356 -1.3,2.274 -2.3,2.571 -6.32,-1.754 -22.79,-3.449 -31.56,-2.809 -1.76,-1.117 -1.24,-3.93 -0.5,-5.008 5.82,-2.152 6.54,-3.347 8.93,-14.375 l 17.69,-81.797 c 2.23,-10.386 3.05,-15.414 -2.09,-17.449 -1.12,-1.433 -0.14,-4.445 0.57,-5.164 8.9,-0.078 22.36,-0.637 32.21,-2.133 1.55,0.879 2.15,2.196 2.21,3.61 0.04,1.336 -0.42,2.535 -1.26,3.289 -5.58,1.379 -10.5,2.472 -15.99,6.48 -5.26,3.832 -8.05,13.981 -10.13,23.41 l -2.39,11.11 c -0.54,2.531 -0.84,4.129 -0.42,4.785 0.46,0.68 2.15,1.016 4.97,1.555 l 90.33,17.23 c 21.29,4.047 23.81,3.387 26.78,-7.18 l 2.01,-7.179 c 0.98,-1.196 2.33,-1.477 3.85,-1.098 1.14,0.281 2.43,0.957 2.73,2.074 0.02,0.379 -5.94,28.399 -5.94,28.399 l -4.45,26.617 c -0.88,1.297 -2.47,1.457 -3.73,1.316 -0.71,-0.097 -2.41,-0.457 -2.93,-1.675 -0.08,-0.399 0.56,-6.997 0.56,-6.997 0.96,-11.289 -1.32,-12.105 -22.35,-16.113 l -90.35,-17.187 c -6.1,-1.176 -6.08,-1.176 -7.2,3.906"
         style="fill:#ffffff;fill-opacity:1;fill-rule:nonzero;stroke:none"
         id="path539" />
      <path
         d="m 327.934,1125.97 c 0.398,0.14 4.566,3.01 4.566,3.01 9.172,6.16 10.469,5.49 22.871,-11.86 0.02,0 29.074,-39.26 29.074,-39.26 14.559,-19.9 27.618,-29.18 42.293,-30.09 11.528,-0.88 23.59,3.37 37.946,13.42 13.402,9.35 21.496,20.99 23.414,33.68 2.293,14.26 -2.813,30.49 -15.618,49.51 l -12.98,19.36 c -3.07,4.55 -18.402,27.74 -19.762,35.85 -0.535,2.42 1.676,5.79 5.625,8.66 l 3.989,2.87 c 0.32,0.56 -0.938,4.07 -0.938,4.07 l -2.672,1.31 c -0.461,-0.14 -18.445,-11.7 -18.445,-11.7 l -20.258,-11.49 c -0.34,-0.4 -0.141,-3.29 -0.141,-3.29 l 2.731,-2.55 c 0.598,0.04 5.207,2.33 5.207,2.33 4.547,2.25 8.152,2.83 10.469,1.66 5.601,-2.93 16.347,-19.08 23.468,-29.77 l 15.575,-23.25 c 8.914,-13.24 13.66,-24.91 14.238,-35.1 0.734,-12.5 -4.828,-22.79 -16.633,-31.05 -23.109,-16.17 -43.148,-10.05 -65.023,19.85 l -26.485,35.91 -0.715,1.01 c -11.843,16.53 -13.101,18.25 -5.226,25.89 l 3.551,3.41 c 0.5,1.27 0.078,2.53 -0.938,3.65 -0.379,0.42 -1.695,1.77 -3.051,1.51 -0.378,-0.18 -19.402,-16.43 -19.402,-16.43 l -19.922,-15.36 c -0.734,-1.39 -0.156,-2.98 0.602,-4.1 0.773,-1.12 1.715,-1.72 2.59,-1.66"
         style="fill:#ffffff;fill-opacity:1;fill-rule:nonzero;stroke:none"
         id="path541" />
      <path
         d="m 532.273,1250.64 c 12.024,0.84 13.938,-0.79 15.672,-13.44 0,-0.02 5.387,-45.14 5.387,-45.14 l 3.688,-41.84 0.48,-6.36 c 1.156,-14.16 -1.477,-15.91 -9.254,-18.9 -0.019,0 -4.387,-1.74 -4.387,-1.74 -0.898,-0.97 -1.097,-2.11 -0.816,-3.34 0.297,-1.38 1.074,-2.56 2.012,-3.04 0.597,-0.04 21.156,5.89 21.156,5.89 l 22.594,5.18 c 1.117,0.74 1.535,1.89 1.414,3.25 -0.078,1.2 -0.617,2.67 -1.852,3.33 -0.5,0.06 -8.336,-1.31 -8.336,-1.31 -3.051,-0.56 -4.906,-0.41 -6.242,0.53 -2.453,1.72 -3.687,6.64 -5.144,15.14 l -6.161,45.56 -0.5,4.45 c 0,0 -3.347,29.93 -3.828,34.12 2.035,-3.03 9.731,-14.52 9.731,-14.52 l 6.918,-10.61 c 0,-0.02 24.925,-36.17 24.925,-36.17 l 3.551,-5.09 c 6.68,-9.55 16.75,-23.96 21.157,-32.48 0.878,-1.02 2.332,-1 2.792,-0.93 1.235,0.21 2.114,0.77 2.493,1.63 2.011,9.47 7.539,29.11 14.175,50.15 l 12.106,38.63 4.129,13.71 c 0,0 2.949,9.54 3.926,12.72 0.82,-4.5 15.195,-82.67 15.195,-82.67 0.719,-4.44 1.258,-7.65 1.316,-10.05 0.121,-4.76 -1.734,-6.2 -7.734,-7.26 l -5.824,-1.05 c -0.481,-0.28 -1.039,-3.45 -1.039,-3.45 l 2.054,-3.15 c 0.481,-0.1 24.985,2.31 24.985,2.31 l 24.129,1.1 c 1.136,0.67 1.554,1.57 1.574,2.75 0.043,1.27 -0.418,2.95 -1.555,3.87 -0.476,0.18 -7.097,0.31 -7.097,0.31 -8.614,0.31 -9.571,4.55 -11.665,13.84 l -0.339,1.52 -17.868,88.64 c -2.511,13.89 -1.875,17.36 10.372,19.68 l 4.183,0.72 c 1.258,1.07 1.117,2.65 1,3.3 -0.082,0.6 -0.5,2.6 -1.816,3.34 -0.477,0.07 -18.485,-1.84 -18.485,-1.84 l -16.172,-0.54 0.063,-0.85 c 0.117,-0.9 0.176,-1.84 0.195,-2.8 0.203,-9.17 -3.586,-21.31 -9.011,-38.86 l -13.637,-45.67 c 0,0 -9.332,-29.21 -9.395,-29.39 -0.121,1.46 -15.113,21.78 -15.113,21.78 l -2.672,3.72 v -0.02 l -31.129,44.4 c -7.176,9.66 -15.492,21.85 -16.051,30.34 l -0.082,0.98 -17.246,-4.68 c -0.418,-0.11 -16.511,-3.23 -16.511,-3.23 -1.176,-0.84 -1.657,-1.98 -1.633,-3.3 0,-1.41 0.496,-2.69 1.336,-3.35 0.578,-0.16 3.867,0.2 3.886,0.18"
         style="fill:#ffffff;fill-opacity:1;fill-rule:nonzero;stroke:none"
         id="path543" />
      <path
         d="m 790.633,1136.1 17.969,-4.55 c 0.019,0 53.418,-14.14 53.418,-14.14 4.886,5.09 13.757,19.25 16.968,25.95 -0.136,1.63 -0.918,2.65 -2.133,3.33 -1.175,0.68 -2.511,0.83 -3.546,0.42 -7.5,-8.56 -14.817,-14.68 -19.004,-15.77 -4.946,-1.08 -11.246,-0.27 -25.946,3.46 -17.765,4.49 -20.937,7.7 -22.511,10.35 -2.192,3.93 -1.098,10.73 1.535,21.14 l 7.121,28.19 1.633,3.77 c 0.797,0.5 2.574,0.1 5.343,-0.61 l 11.606,-2.94 c 7.32,-1.85 12.344,-3.29 14.937,-4.8 3.586,-1.92 3.965,-5.2 3.887,-8.44 0,-0.01 -0.199,-8.27 -0.199,-8.27 0.68,-1.58 2.293,-2.24 3.488,-2.41 1.336,-0.23 2.473,0.06 3.153,0.71 0.179,0.38 1.714,7.82 1.714,7.82 l 2.532,11.94 3.57,12.15 2.332,7.83 c -0.258,1.34 -1.156,2.14 -2.453,2.58 -1.137,0.4 -2.871,0.58 -3.945,-0.2 -0.243,-0.32 -3.911,-8.12 -3.911,-8.12 -2.253,-4.7 -3.808,-5.16 -5.902,-5.3 -2.434,-0.2 -8.492,0.9 -17.051,3.05 l -11.582,2.93 c -5.863,1.47 -5.863,1.47 -4.605,6.32 l 10.105,39.96 c 0.942,3.75 1.457,5.82 2.395,6.38 0.699,0.42 2.015,0.18 4.644,-0.47 l 14.379,-3.66 c 8.832,-2.21 15.055,-4 18.922,-6.02 8.934,-4.78 9.332,-11.52 9.891,-20.86 l 0.101,-1.31 c 0.457,-1.14 1.477,-1.78 2.793,-2.06 1.094,-0.19 2.711,-0.15 3.61,0.64 0.257,0.48 0.714,3.29 0.714,3.29 1.438,9.02 3.391,21.34 3.09,24.79 l -0.078,0.74 h -0.738 c -2.41,0 -14.098,2.93 -26.461,6.06 -0.477,0.12 -38.066,9.61 -38.066,9.61 l -23.387,6.56 c -1.559,-0.24 -2.375,-1.63 -2.754,-2.85 -0.238,-0.68 -0.637,-2.35 0.258,-3.35 0.301,-0.2 3.41,-1.42 3.41,-1.42 10.809,-4.14 10.59,-6.56 5.344,-27.34 l -18.184,-71.96 c -5.324,-21.02 -6.98,-23.01 -17.809,-21.26 l -6.757,1.08 c -1.715,-0.82 -2.235,-2.39 -2.356,-3.61 -0.097,-1.27 0.223,-2.33 0.86,-2.87 0.339,-0.18 27.656,-6.46 27.656,-6.46"
         style="fill:#ffffff;fill-opacity:1;fill-rule:nonzero;stroke:none"
         id="path545" />
      <path
         d="m 970.875,1124.96 c 0.02,0.5 1.594,1.61 2.613,2.35 0.02,0.03 35.272,24.85 35.272,24.85 0,0 7.24,4.63 9.79,6.26 -0.6,-2.19 -3.23,-11.88 -3.23,-11.88 l -11.92,-38.47 c -0.56,-1.87 -1.22,-3.93 -2.02,-4.21 -0.77,-0.25 -2.431,0.82 -4.122,2.02 0,0.02 -23.074,16.19 -23.074,16.19 -1.473,1.06 -3.309,2.35 -3.309,2.89 z m 62.815,67.04 c 4.16,5.9 11.24,7.72 16.31,4.15 5.2,-3.69 5.72,-10.85 1.55,-16.75 -4.28,-6.06 -11.08,-7.82 -16.31,-4.13 -5.06,3.57 -5.84,10.67 -1.55,16.73 m -130.393,-92.86 12.641,-7.34 5.902,-3.79 11.687,-7.8 c 1.555,-0.32 2.813,0.28 3.727,1.42 0.918,1.16 1.238,2.55 0.84,3.59 -0.258,0.34 -5.606,4.39 -5.606,4.39 -3.828,2.85 -3.488,3.96 -2.472,5.44 1.316,1.85 5.882,5.8 13.621,11.7 l 14.015,9.55 c 3.313,2.44 4.25,2.38 8.317,-0.49 l 27.777,-19.52 c 4.926,-3.45 4.945,-4.09 3.649,-8.18 -0.02,-0.02 -6.622,-22.97 -6.622,-22.97 -1.335,-4.25 -2.75,-8.48 -4.125,-10.39 -0.796,-1.16 -3.308,-0.54 -6.679,1.66 l -5.028,3.23 c -1.453,0.16 -2.531,-0.54 -3.289,-1.7 -0.836,-1.28 -1.035,-2.73 -0.539,-3.81 0.258,-0.3 3.871,-2.97 3.871,-2.97 l 15.211,-11.56 19.045,-16.06 c 1.7,-0.16 2.83,0.92 3.49,1.8 0.78,1.14 1.08,2.29 0.78,3.27 -0.2,0.34 -4.17,4.31 -4.17,4.31 -6.12,6.18 -6.24,10.37 -0.8,28.05 0,0.02 24.77,84.11 24.77,84.11 l 3.01,10.29 3.25,10.91 c 7.84,-1.58 15.59,1.43 19.9,7.54 5.94,8.43 4.37,20.87 -5.56,27.89 -9.93,7.02 -22.18,4.31 -28.16,-4.1 -4.61,-6.57 -4.59,-15.64 0.38,-22.64 l -11.57,-8.06 c 0,-0.02 -49.267,-33.36 -49.267,-33.36 1.453,-0.12 -40.063,-26.35 -27.977,-18.42 l -13.382,-8.75 c -5.641,-3.91 -10.387,-4.51 -15.454,-1.94 l -6.062,3.01 c -1.473,-0.06 -2.492,-0.88 -3.188,-2.13 -0.558,-0.96 -1,-2.36 -0.558,-3.41 0.34,-0.36 4.625,-2.77 4.625,-2.77"
         style="fill:#ffffff;fill-opacity:1;fill-rule:nonzero;stroke:none"
         id="path547" />
    </g>
  </g>
</svg>
