<?xml version="1.0" encoding="UTF-8" standalone="no"?>
<!-- Created with Inkscape (http://www.inkscape.org/) -->

<svg
   version="1.1"
   id="svg2768"
   width="188.97333"
   height="117.16"
   viewBox="0 0 188.97333 117.16"
   sodipodi:docname="logo_isof.svg"
   inkscape:version="1.2.2 (b0a8486541, 2022-12-01)"
   xmlns:inkscape="http://www.inkscape.org/namespaces/inkscape"
   xmlns:sodipodi="http://sodipodi.sourceforge.net/DTD/sodipodi-0.dtd"
   xmlns="http://www.w3.org/2000/svg"
   xmlns:svg="http://www.w3.org/2000/svg">
  <defs
     id="defs2772" />
  <sodipodi:namedview
     id="namedview2770"
     pagecolor="#ffffff"
     bordercolor="#000000"
     borderopacity="0.25"
     inkscape:showpageshadow="2"
     inkscape:pageopacity="0.0"
     inkscape:pagecheckerboard="0"
     inkscape:deskcolor="#d1d1d1"
     showgrid="false"
     inkscape:zoom="6.7855919"
     inkscape:cx="69.559149"
     inkscape:cy="58.506318"
     inkscape:window-width="1920"
     inkscape:window-height="1056"
     inkscape:window-x="1920"
     inkscape:window-y="0"
     inkscape:window-maximized="1"
     inkscape:current-layer="g2776">
    <inkscape:page
       x="0"
       y="0"
       id="page2774"
       width="188.97333"
       height="117.16" />
  </sodipodi:namedview>
  <g
     id="g2776"
     inkscape:groupmode="layer"
     inkscape:label="Page 1"
     transform="matrix(1.3333333,0,0,-1.3333333,0,117.16)">
    <g
       id="g2778"
       transform="scale(0.1)">
      <path
         d="m 182.129,81.043 c 0,44.758 35.828,81.039 80.023,81.039 44.192,0 80.016,-36.281 80.016,-81.039 C 342.168,36.2813 306.344,0 262.152,0 217.957,0 182.129,36.2813 182.129,81.043"
         style="fill:#231f20;fill-opacity:1;fill-rule:nonzero;stroke:none"
         id="path2780" />
      <path
         d="m 81.332,682.586 h 72.945 V 197.988 H 8.39063 v 410.758 c 0,0 0,73.5 72.94137,73.84"
         style="fill:#231f20;fill-opacity:1;fill-rule:nonzero;stroke:none"
         id="path2782" />
      <path
         d="m 160.043,797.699 c 0,-44.758 -35.828,-81.043 -80.0235,-81.043 C 35.8281,716.656 0,752.941 0,797.699 c 0,44.758 35.8281,81.039 80.0195,81.039 44.1955,0 80.0235,-36.281 80.0235,-81.039"
         style="fill:#231f20;fill-opacity:1;fill-rule:nonzero;stroke:none"
         id="path2784" />
      <path
         d="M 262.152,197.648 H 189.207 V 682.246 H 335.094 V 271.488 c 0,0 0,-73.5 -72.942,-73.84"
         style="fill:#231f20;fill-opacity:1;fill-rule:nonzero;stroke:none"
         id="path2786" />
      <path
         d="m 417.66,200.191 h 17.379 v 77.289 h 21.754 v 14.297 h -21.754 v 4.043 c 0,17.274 12.508,19.477 19.215,19.477 2.719,0 4.531,-0.367 4.531,-0.367 v 15.215 c 0,0 -2.719,0.55 -6.707,0.55 -11.601,0 -34.418,-3.847 -34.418,-34.507 v -4.411 H 406.238 V 277.48 h 11.422 z m 47.492,46.622 c 0,-28.282 22.094,-48.825 49.477,-48.825 27.383,0 49.473,20.543 49.473,48.825 0,28.097 -22.09,48.453 -49.473,48.453 -27.383,0 -49.477,-20.356 -49.477,-48.453 m 17.922,0 c 0,19.281 14.324,33.054 31.555,33.054 17.406,0 31.551,-13.773 31.551,-33.054 0,-19.469 -14.145,-33.426 -31.551,-33.426 -17.231,0 -31.555,13.957 -31.555,33.426 m 98.996,-21.309 c 0,-23.293 14.664,-26.043 24.629,-26.043 3.082,0 5.801,0.363 5.801,0.363 v 15.766 c 0,0 -1.449,-0.184 -3.078,-0.184 -5.438,0 -9.789,2.02 -9.789,13.219 V 329.777 H 582.07 Z m 47.313,-25.313 h 17.558 v 43.696 h 13.235 l 27.554,-43.696 h 20.481 l -33.898,51.579 v 0.367 l 30.453,40.926 h -19.938 l -25.015,-34.145 h -12.872 v 70.859 h -17.558 z m 93.535,0 h 17.559 v 42.411 c 0,4.218 0.179,8.441 1.089,12.117 3.446,13.215 12.875,24.414 26.297,24.414 14.145,0 15.961,-11.199 15.961,-23.317 v -55.625 h 17.559 v 42.411 c 0,4.773 0.363,8.996 1.269,12.847 3.266,12.668 12.875,23.684 25.754,23.684 13.782,0 16.324,-10.281 16.324,-23.317 v -55.625 h 17.559 v 59.481 c 0,23.676 -9.594,35.594 -30.258,35.594 -14.871,0 -27.566,-9.899 -32.64,-21.09 h -0.36 c -3.078,13.941 -12.133,21.09 -27.543,21.09 -14.328,0 -27.203,-10.45 -31.554,-21.274 h -0.364 c 0,0 0.364,3.117 0.364,6.785 v 12.286 h -17.016 z m 163.684,111.438 h 17.742 v 18.148 h -17.742 z m 0.179,-111.438 h 17.559 v 92.872 h -17.559 z m 43.321,0 h 17.566 v 43.508 c 0,4.594 0.359,8.817 1.445,12.485 3.809,13.402 15.055,22.765 29.02,22.765 14.691,0 17.41,-10.281 17.41,-23.312 v -55.446 h 17.557 v 59.481 c 0,23.676 -9.95,35.594 -31.522,35.594 -19.949,0 -30.832,-13.2 -34.457,-21.274 h -0.363 c 0,0 0.363,3.117 0.363,6.785 v 12.286 h -17.019 z m 107.498,0 h 17.56 v 43.508 c 0,4.594 0.36,8.817 1.45,12.485 3.81,13.402 15.05,22.765 29.01,22.765 14.69,0 17.41,-10.281 17.41,-23.312 v -55.446 h 17.57 v 59.481 c 0,23.676 -9.96,35.594 -31.53,35.594 -19.95,0 -30.83,-13.2 -34.46,-21.274 h -0.36 c 0,0 0.36,3.117 0.36,6.785 v 12.286 h -17.01 z m 101.15,46.446 c 0,-27.555 19.73,-48.649 48.57,-48.649 21.94,0 35.51,13.2 35.51,13.2 l -7.24,13.039 c 0,0 -11.41,-10.84 -27.18,-10.84 -16.33,0 -30.65,10.289 -31.56,30.683 h 66.89 c 0,0 0.54,5.313 0.54,7.696 0,24.058 -13.76,43.5 -39.68,43.5 -26.12,0 -45.85,-19.075 -45.85,-48.629 m 18.64,10.812 c 2.54,15.25 13.42,23.703 26.84,23.703 11.79,0 21.58,-7.718 22.13,-23.703 z m 86.49,-57.258 h 17.56 v 43.508 c 0,4.594 0.36,8.817 1.45,12.485 3.81,13.402 15.05,22.765 29.02,22.765 14.69,0 17.41,-10.281 17.41,-23.312 v -55.446 h 17.56 v 59.481 c 0,23.676 -9.96,35.594 -31.53,35.594 -19.94,0 -30.83,-13.2 -34.45,-21.274 h -0.36 c 0,0 0.36,3.117 0.36,6.785 v 12.286 h -17.02 v -92.872"
         style="fill:#231f20;fill-opacity:1;fill-rule:nonzero;stroke:none"
         id="path2788" />
      <path
         d="m 405.332,387.5 c 0,0 12.316,-13.566 34.793,-13.566 20.129,0 33.16,11.546 33.16,26.968 0,30.485 -47.129,26.813 -47.129,43.524 0,8.082 7.438,11.387 15.059,11.387 14.512,0 22.656,-8.266 22.656,-8.266 l 7.063,13.398 c 0,0 -9.414,10.266 -29.539,10.266 -18.317,0 -33.161,-9.531 -33.161,-26.418 0,-30.301 47.129,-26.813 47.129,-43.891 0,-7.531 -7.621,-11.57 -15.238,-11.57 -15.961,0 -26.277,10.836 -26.277,10.836 z m 86.828,-48.082 h 17.563 v 41.664 c 0,4.766 -0.364,8.066 -0.364,8.066 h 0.364 c 0,0 7.976,-15.214 28.105,-15.214 23.942,0 41.5,19.074 41.5,48.636 0,28.836 -15.566,48.641 -40.226,48.641 -23.032,0 -30.829,-16.867 -30.829,-16.867 h -0.363 c 0,0 0.363,3.117 0.363,6.781 v 7.883 H 492.16 Z m 17.02,82.789 c 0,23.688 12.691,33.422 26.476,33.422 15.235,0 25.934,-13.039 25.934,-33.242 0,-21.117 -11.969,-33.239 -26.481,-33.239 -16.863,0 -25.929,16.528 -25.929,33.059 m 89.929,-46.07 h 17.563 v 38 c 0,5.691 0.543,11.386 2.172,16.707 4.172,13.769 14.504,21.847 25.742,21.847 2.719,0 5.074,-0.55 5.074,-0.55 v 17.601 c 0,0 -2.176,0.367 -4.531,0.367 -14.141,0 -24.832,-10.632 -29,-24.211 h -0.363 c 0,-0.015 0.363,3.102 0.363,6.957 v 16.153 h -17.02 z m 58.731,26.054 c 0,-18.543 15.39,-28.257 31.168,-28.257 21.937,0 29.379,18.339 29.379,18.339 h 0.359 c 0,0.02 -0.359,-3.101 -0.359,-7.324 v -8.812 h 16.289 v 58.726 c 0,23.516 -13.031,36.348 -36.246,36.348 -21.028,0 -34.25,-11 -34.25,-11 l 7.238,-13.039 c 0,0 11.437,9.008 25.559,9.008 11.613,0 20.14,-5.145 20.14,-20.399 v -1.656 h -3.992 c -15.426,0 -55.285,-1.281 -55.285,-31.934 m 17.742,0.922 c 0,16.715 23.934,17.633 37.18,17.633 h 4.535 v -2.937 c 0,-13.778 -9.613,-29.579 -24.492,-29.579 -11.407,0 -17.223,7.348 -17.223,14.883 m 23.395,77.114 c 7.984,0 15.398,5.125 15.398,13.574 0,8.633 -7.414,13.758 -15.398,13.758 -8.161,0 -15.395,-5.125 -15.395,-13.758 0,-8.449 7.234,-13.574 15.395,-13.574 m 0,7.503 c -3.629,0 -5.993,2.579 -5.993,6.071 0,3.863 2.364,6.437 5.993,6.437 3.453,0 5.996,-2.574 5.996,-6.437 0,-3.492 -2.543,-6.071 -5.996,-6.071 m 60.195,-111.593 h 17.558 v 43.691 h 13.235 l 27.555,-43.691 h 20.484 l -33.899,51.578 v 0.363 l 30.454,40.93 H 814.617 L 789.602,434.859 H 776.73 v 70.864 h -17.558 z m 131.598,46.617 c 0,-28.281 22.093,-48.82 49.476,-48.82 27.383,0 49.477,20.539 49.477,48.82 0,28.101 -22.094,48.457 -49.477,48.457 -27.383,0 -49.476,-20.356 -49.476,-48.457 m 17.921,0 c 0,19.285 14.325,33.059 31.555,33.059 17.406,0 31.551,-13.774 31.551,-33.059 0,-19.465 -14.145,-33.422 -31.551,-33.422 -17.23,0 -31.555,13.957 -31.555,33.422 m 93.559,-0.184 c 0,-27.914 20.28,-48.636 49.1,-48.636 23.93,0 36.62,14.847 36.62,14.847 l -7.07,13.039 c 0,0 -11.24,-12.488 -28.28,-12.488 -19.03,0 -32.45,14.508 -32.45,33.422 0,19.101 13.42,33.059 31.91,33.059 15.59,0 25.38,-10.653 25.38,-10.653 l 8.33,12.485 c 0,0 -11.42,13.566 -34.44,13.566 -28.82,0 -49.1,-21.094 -49.1,-48.641 m 103.87,-46.433 h 17.56 v 43.508 c 0,4.406 0.36,8.628 1.45,12.3 3.81,13.403 15.23,22.95 29.02,22.95 14.69,0 17.41,-10.282 17.41,-23.317 v -55.441 h 17.56 v 59.48 c 0,23.676 -9.96,35.594 -31.53,35.594 -18.32,0 -29.92,-11.734 -33.91,-20.723 h -0.36 c 0,0 0.36,3.305 0.36,7.703 v 47.532 h -17.56 V 376.137"
         style="fill:#231f20;fill-opacity:1;fill-rule:nonzero;stroke:none"
         id="path2790" />
      <path
         d="m 416.391,552.082 h 17.922 v 129.586 h -17.922 z m 47.308,0 h 17.563 v 43.508 c 0,4.59 0.359,8.812 1.449,12.484 3.809,13.403 15.055,22.762 29.019,22.762 14.688,0 17.411,-10.277 17.411,-23.313 v -55.441 h 17.558 v 59.481 c 0,23.671 -9.957,35.589 -31.523,35.589 -19.953,0 -30.832,-13.199 -34.457,-21.269 h -0.364 c 0,0 0.364,3.113 0.364,6.785 v 12.281 h -17.02 z m 100.063,11.359 c 0,0 12.312,-13.562 34.793,-13.562 20.125,0 33.16,11.547 33.16,26.969 0,30.484 -47.129,26.808 -47.129,43.519 0,8.086 7.437,11.387 15.055,11.387 14.511,0 22.66,-8.262 22.66,-8.262 l 7.062,13.395 c 0,0 -9.418,10.265 -29.543,10.265 -18.312,0 -33.16,-9.531 -33.16,-26.418 0,-30.296 47.133,-26.808 47.133,-43.886 0,-7.532 -7.621,-11.571 -15.238,-11.571 -15.961,0 -26.282,10.832 -26.282,10.832 z m 90.633,22.586 c 0,-31.015 23.363,-34.679 35.144,-34.679 3.625,0 6.164,0.367 6.164,0.367 v 15.765 c 0,0 -1.633,-0.367 -4.172,-0.367 -6.707,0 -19.578,2.383 -19.578,20.934 v 41.324 h 22.117 v 14.297 h -22.117 v 26.801 h -17.015 v -26.801 h -12.504 v -14.297 h 11.961 z m 59.093,77.489 h 17.742 v 18.152 h -17.742 z m 0.18,-111.434 h 17.559 v 92.867 h -17.559 z m 47.129,33.945 c 0,-31.015 23.363,-34.679 35.144,-34.679 3.625,0 6.164,0.367 6.164,0.367 v 15.765 c 0,0 -1.632,-0.367 -4.171,-0.367 -6.707,0 -19.579,2.383 -19.579,20.934 v 41.324 h 22.118 v 14.297 h -22.118 v 26.801 H 761.34 v -26.801 h -12.504 v -14.297 h 11.961 z m 58.004,-0.558 c 0,-24.59 10.679,-35.59 31.347,-35.59 17.954,0 29.922,12.098 33.731,21.269 h 0.359 c 0,0.024 -0.359,-2.914 -0.359,-6.769 v -12.297 h 17.016 v 92.867 h -17.559 v -43.496 c 0,-18.371 -11.063,-35.074 -29.746,-35.074 -14.688,0 -17.227,10.277 -17.227,23.129 v 55.441 h -17.562 z m 111.664,0.558 c 0,-31.015 23.359,-34.679 35.14,-34.679 3.629,0 6.165,0.367 6.165,0.367 v 15.765 c 0,0 -1.629,-0.367 -4.168,-0.367 -6.707,0 -19.579,2.383 -19.579,20.934 v 41.324 h 22.118 v 14.297 h -22.118 v 26.801 H 931.008 V 643.668 H 918.5 v -14.297 h 11.965 z m 52.93,12.496 c 0,-27.554 19.735,-48.644 48.565,-48.644 21.94,0 35.52,13.195 35.52,13.195 l -7.24,13.043 c 0,0 -11.41,-10.84 -27.19,-10.84 -16.32,0 -30.65,10.286 -31.55,30.68 h 66.89 c 0,0 0.54,5.316 0.54,7.695 0,24.063 -13.76,43.5 -39.69,43.5 -26.11,0 -45.845,-19.074 -45.845,-48.629 m 18.645,10.813 c 2.54,15.254 13.42,23.703 26.84,23.703 11.79,0 21.58,-7.715 22.13,-23.703 z m 90.3,-23.309 c 0,-31.015 23.36,-34.679 35.14,-34.679 3.62,0 6.16,0.367 6.16,0.367 v 15.765 c 0,0 -1.63,-0.367 -4.17,-0.367 -6.71,0 -19.57,2.383 -19.57,20.934 v 41.324 h 22.11 v 14.297 h -22.11 v 26.801 h -17.02 v -26.801 h -12.51 v -14.297 h 11.97 z m 108.93,-33.945 h 17.38 v 77.289 h 21.75 v 14.297 h -21.75 v 4.039 c 0,17.277 12.51,19.481 19.22,19.481 2.72,0 4.53,-0.368 4.53,-0.368 v 15.211 c 0,0 -2.72,0.555 -6.71,0.555 -11.6,0 -34.42,-3.852 -34.42,-34.512 v -4.406 h -11.42 v -14.297 h 11.42 z m 47.5,46.617 c 0,-28.281 22.1,-48.82 49.47,-48.82 27.37,0 49.48,20.539 49.48,48.82 0,28.098 -22.11,48.453 -49.48,48.453 -27.37,0 -49.47,-20.355 -49.47,-48.453 m 17.92,0 c 0,19.281 14.33,33.055 31.55,33.055 17.4,0 31.55,-13.774 31.55,-33.055 0,-19.469 -14.15,-33.422 -31.55,-33.422 -17.22,0 -31.55,13.953 -31.55,33.422 m 39.54,64.449 h 14.48 v 18.52 h -14.48 z m -30.27,0 h 14.48 v 18.52 h -14.48 z m 90.81,-111.066 h 17.56 v 38 c 0,5.691 0.55,11.383 2.18,16.703 4.17,13.774 14.5,21.848 25.74,21.848 2.72,0 5.07,-0.547 5.07,-0.547 v 17.598 c 0,0 -2.17,0.367 -4.53,0.367 -14.14,0 -24.83,-10.633 -29,-24.207 h -0.36 c 0,-0.02 0.36,3.101 0.36,6.957 v 16.148 h -17.02 v -92.867"
         style="fill:#231f20;fill-opacity:1;fill-rule:nonzero;stroke:none"
         id="path2792" />
    </g>
  </g>
</svg>
