<?xml version="1.0" encoding="UTF-8" standalone="no"?>
<!-- Created with Inkscape (http://www.inkscape.org/) -->

<svg
   version="1.1"
   id="svg2"
   width="202.42667"
   height="56.759998"
   viewBox="0 0 202.42667 56.759998"
   sodipodi:docname="logo_ra.svg"
   inkscape:version="1.2.2 (b0a8486541, 2022-12-01)"
   xmlns:inkscape="http://www.inkscape.org/namespaces/inkscape"
   xmlns:sodipodi="http://sodipodi.sourceforge.net/DTD/sodipodi-0.dtd"
   xmlns="http://www.w3.org/2000/svg"
   xmlns:svg="http://www.w3.org/2000/svg">
  <defs
     id="defs6" />
  <sodipodi:namedview
     id="namedview4"
     pagecolor="#ffffff"
     bordercolor="#000000"
     borderopacity="0.25"
     inkscape:showpageshadow="2"
     inkscape:pageopacity="0.0"
     inkscape:pagecheckerboard="0"
     inkscape:deskcolor="#d1d1d1"
     showgrid="false"
     inkscape:zoom="4.1578577"
     inkscape:cx="101.97559"
     inkscape:cy="28.500254"
     inkscape:window-width="1920"
     inkscape:window-height="1145"
     inkscape:window-x="0"
     inkscape:window-y="0"
     inkscape:window-maximized="1"
     inkscape:current-layer="g10">
    <inkscape:page
       x="0"
       y="0"
       id="page8"
       width="202.42667"
       height="56.759998" />
  </sodipodi:namedview>
  <g
     id="g10"
     inkscape:groupmode="layer"
     inkscape:label="Page 1"
     transform="matrix(1.3333333,0,0,-1.3333333,0,56.76)">
    <g
       id="g12"
       transform="scale(0.1)">
      <path
         d="m 355.992,200.516 v -85.321 c 16.688,0.797 29.735,4.45 39.125,10.692 10.703,7.558 16.449,18.277 16.449,31.851 0,23.481 -20.355,42.262 -55.574,42.778 z M 484.867,22.2266 c 0,0 -14.804,0.3906 -24.961,1.7031 -6.781,1.0273 -11.23,2.6094 -16.176,4.9414 -10.964,4.9687 -22.929,12.6914 -32.476,29.7305 -12.481,22.2265 -17.953,34.9297 -22.391,41.9844 -3.902,6.266 -9.66,7.559 -20.086,8.598 l -13.05,1.312 V 71.3516 c 0,-15.6368 0.789,-24.5118 5.218,-30.5078 4.172,-5.754 15.403,-11.2344 32.356,-12.793 v -4.4336 c -16.446,0.2617 -32.356,0.2617 -48.281,0.2617 -15.641,0 -31.293,0 -46.43,-0.2617 v 4.4336 c 14.34,1.8359 22.172,5.4844 26.871,9.6445 6.269,5.7266 6.269,18.7891 6.269,33.1524 0,0 0,30.7733 0,49.5623 0,15.391 -0.269,39.403 -0.269,39.403 0,17.488 -0.785,27.656 -5.484,31.574 -6.766,5.738 -14.606,7.562 -24.786,9.129 v 4.168 c 41.235,1.316 61.321,1.836 70.196,1.836 22.176,0 37.043,-2.879 48.785,-10.704 11.742,-7.839 19.051,-19.043 19.051,-34.445 0,-19.047 -12,-33.398 -33.403,-42.797 20.868,-38.6092 33.86,-63.8162 52.696,-79.1482 6.351,-5.1836 14.343,-10.168 27.132,-12.7656 l -0.781,-4.4336"
         style="fill:#050301;fill-opacity:1;fill-rule:nonzero;stroke:none"
         id="path14" />
      <path
         d="m 519.684,170.547 c -7.567,0 -13.571,5.976 -13.571,12.769 0,7.297 6.539,13.309 13.305,13.309 7.305,0 13.312,-6.012 13.312,-13.047 0,-7.055 -5.488,-13.031 -13.046,-13.031 z m 0.273,-146.9142 c -11.488,0 -19.051,-0.2461 -30.527,-0.2461 v 4.4414 c 4.418,0.5 13.035,1.8164 16.683,4.1524 4.957,3.1406 4.703,13.8281 4.703,26.0937 0,6.2656 0.254,17.2383 -0.257,43.3048 -0.262,6.797 -0.786,13.582 -2.09,15.668 -1.559,2.609 -10.176,9.637 -14.621,13.297 v 1.832 l 35.492,13.035 2.086,-1.035 c 0,0 -0.254,-76.4455 -0.254,-86.1018 0,-15.6445 0.777,-23.2265 5.992,-26.6054 2.078,-1.5704 8.871,-2.8672 15.379,-3.6407 v -4.4414 c 0,0 -20.594,0.2461 -32.586,0.2461"
         style="fill:#050301;fill-opacity:1;fill-rule:nonzero;stroke:none"
         id="path16" />
      <path
         d="m 673.727,22.5781 c -7.848,0 -13.059,2.875 -17.235,5.75 -9.894,6.7735 -19.301,16.1641 -25.301,22.9649 -9.906,11.4687 -17.898,22.1914 -27.027,37.0468 v 0.2618 c 6.258,6.789 10.445,11.7424 15.117,17.2344 7.571,8.855 12.797,15.644 12.797,21.894 0,5.477 -6.277,6.27 -11.48,6.797 v 4.446 c 11.996,0.757 18.789,1.043 30.785,1.82 12.512,0.77 19.301,1.559 31.836,2.344 l 0.25,-4.442 c -6.02,-1.297 -12.785,-2.593 -20.356,-5.734 -9.656,-3.91 -17.738,-9.918 -23.468,-15.379 -3.399,-3.156 -13.059,-13.328 -19.047,-20.0976 V 97.2305 C 638.07,76.3516 646.402,67.2422 662.047,50.8047 673.27,39.0508 684.414,31.1992 692.516,27.7969 v -3.9024 c -5.754,-0.8007 -12.536,-1.3164 -18.789,-1.3164 z m -83.391,1.0547 c -11.484,0 -18.266,-0.2461 -29.754,-0.2461 v 4.4414 c 4.445,0.5 11.758,1.8164 15.125,3.8946 4.981,3.125 4.434,15.6562 4.434,26.3515 0,6.2656 0.269,31.0469 0.269,57.1408 0,25.308 0,51.39 -0.269,63.398 -0.243,6.258 0.269,8.883 -3.114,13.043 -2.609,3.141 -10.168,9.66 -10.168,9.66 v 2.09 l 32.344,12.535 2.598,-0.789 c 0,0 -0.785,-37.324 -1.035,-98.89 0,-22.6995 0,-52.18 0.25,-62.1018 0.273,-11.7305 0,-19.3125 4.957,-22.6914 2.109,-1.5704 8.875,-3.1407 15.668,-3.6407 v -4.4414 c 0,0 -19.313,0.2461 -31.305,0.2461"
         style="fill:#050301;fill-opacity:1;fill-rule:nonzero;stroke:none"
         id="path18" />
      <path
         d="m 736.176,20.293 c -14.617,0 -26.883,4.4414 -33.918,10.7187 l -1.582,30.0039 6.547,0.4961 c 0.781,-5.1953 4.695,-18.2461 9.64,-23.9883 6.282,-7.0468 11.75,-10.9648 22.176,-10.9648 13.047,0 20.613,10.4453 20.613,22.1914 0,10.6836 -6.246,15.3711 -15.406,21.1211 -6.766,4.1758 -13.558,7.2969 -19.812,11.2266 -10.954,7.0312 -19.039,14.0859 -19.039,29.9963 0,18.277 16.418,32.621 37.828,32.621 11.996,0 24.531,-4.168 31.058,-9.652 l 1.032,-23.997 -6.778,-0.535 c -1.558,4.973 -3.926,14.871 -10.707,21.922 -4.168,4.442 -9.129,5.988 -15.133,5.988 -9.382,0 -17.215,-8.07 -17.215,-19.293 0,-11.238 7.301,-16.179 16.43,-21.6636 7.055,-4.1641 12.012,-6.5235 18.52,-10.6875 11.484,-7.3164 19.824,-15.9258 19.824,-29.7383 0,-17.7578 -16.172,-35.7656 -44.078,-35.7656"
         style="fill:#050301;fill-opacity:1;fill-rule:nonzero;stroke:none"
         id="path20" />
      <path
         d="m 860.078,84.6953 c 0,0 -28.945,-14.3437 -36.75,-18.5273 -1.062,-2.875 -1.851,-7.3125 -1.851,-11.4649 0,-12.2734 8.101,-20.3593 19.058,-20.3593 7.297,0 14.348,4.957 19.055,9.1289 l 0.762,40.9648 z M 877.07,21.8125 C 862.715,22.5781 859.836,30.1602 859.836,38.5 h -0.52 c -3.125,-2.8711 -16.687,-16.9414 -32.617,-16.9414 -18.777,0 -27.922,13.832 -27.922,29.7344 0,4.6875 0.282,7.3086 1.594,11.75 l 59.981,27.125 c -0.274,8.8906 0.8,24.523 -5.469,32.102 -4.688,5.726 -12.254,8.859 -21.113,8.859 -7.864,0 -16.481,-2.328 -16.723,-10.676 -0.27,-5.492 0,-7.598 0,-12.797 0,0 -14.344,-1.054 -16.965,-0.781 -3.363,0.242 -2.852,2.602 -2.34,3.906 2.34,4.434 6.793,9.922 11.492,14.364 9.387,8.601 23.735,16.941 33.911,19.281 0,0 3.918,0.281 6.003,0.281 9.399,0 17.715,-2.875 24.778,-12.004 5.762,-7.558 6.816,-19.047 6.816,-32.8944 0,-9.8867 -1.054,-34.1563 -1.054,-42.0078 0,-4.4219 0.222,-10.9492 0.761,-12.2461 3.125,-8.3477 12.278,-12.25 22.957,-13.5742 V 28.082 c -5.468,-1.8359 -21.133,-6.2695 -26.336,-6.2695"
         style="fill:#050301;fill-opacity:1;fill-rule:nonzero;stroke:none"
         id="path22" />
      <path
         d="m 984.871,115.746 h -0.254 c -4.976,3.371 -10.965,8.356 -17.769,8.356 -5.453,0 -10.942,-4.446 -14.59,-9.922 -5.742,-8.606 -5.742,-20.6175 -5.742,-26.0862 0,-11.2188 0,-28.1836 0.261,-37.8399 0.254,-5.7383 0.254,-13.8281 5.75,-17.4805 4.414,-3.1289 16.692,-4.1718 22.969,-4.9453 v -4.4414 c 0,0 -27.156,0.2461 -39.141,0.2461 -11.492,0 -15.917,-0.2461 -27.41,-0.2461 v 4.4414 c 3.391,0.5 8.594,1.5469 12.539,3.8946 4.922,3.125 4.676,11.75 4.676,26.3515 0,6.2656 0,28.6875 0,45.1408 0,10.695 -2.344,14.367 -3.394,15.402 -2.856,3.121 -7.024,5.735 -10.688,8.606 v 2.613 c 12.016,5.48 32.856,14.871 32.856,14.871 l 1.328,-0.785 v -30.777 h 0.254 c 5.742,9.898 17.996,29.992 38.101,29.992 7.817,0 14.106,-3.649 14.106,-10.434 0,-7.558 -8.364,-13.824 -13.852,-16.957"
         style="fill:#050301;fill-opacity:1;fill-rule:nonzero;stroke:none"
         id="path24" />
      <path
         d="m 1114.7,22.2422 c -7.84,0 -13.05,2.8594 -17.24,5.7344 -9.91,6.7695 -19.28,16.164 -25.29,22.9648 -9.93,11.4688 -18.11,22.543 -27.23,37.3984 v 0.2618 c 6.24,6.789 10.42,11.7424 15.11,17.2344 7.57,8.855 12.82,15.644 12.82,21.894 0,5.477 -6.27,6.27 -11.51,6.797 v 4.446 c 12,0.757 18.81,1.043 30.79,1.82 12.52,0.77 19.32,1.559 31.82,2.344 l 0.27,-4.442 c -6.01,-1.297 -12.77,-2.593 -20.33,-5.734 -9.67,-3.91 -17.76,-9.918 -23.5,-15.379 -3.4,-3.156 -13.07,-13.328 -19.05,-20.0976 v -0.2539 c 17.48,-20.8789 25.67,-30.2188 41.35,-46.6758 11.2,-11.7422 22.66,-19.6992 30.77,-23.1172 v -3.9023 c -5.73,-0.7813 -12.5,-1.293 -18.78,-1.293 z m -83.62,1.3906 c -11.46,0 -18.26,-0.2461 -29.72,-0.2461 v 4.4414 c 4.43,0.5 11.76,1.8164 15.13,3.8946 4.97,3.125 4.44,15.6562 4.44,26.3515 0,6.2656 0.27,31.0469 0.27,57.1408 0,25.308 0,51.39 -0.27,63.398 -0.28,6.258 0.27,8.883 -3.11,13.043 -2.63,3.141 -10.2,9.66 -10.2,9.66 v 2.09 l 32.34,12.535 2.64,-0.789 c 0,0 -0.79,-37.324 -1.07,-98.89 0,-22.6995 0,-52.18 0.28,-62.1018 0.27,-11.7305 0,-19.3125 4.98,-22.6914 2.07,-1.5704 8.84,-3.1407 15.62,-3.6407 v -4.4414 c 0,0 -19.29,0.2461 -31.33,0.2461"
         style="fill:#050301;fill-opacity:1;fill-rule:nonzero;stroke:none"
         id="path26" />
      <path
         d="m 1172.37,170.547 c -7.57,0 -13.55,5.976 -13.55,12.769 0,7.297 6.5,13.309 13.28,13.309 7.3,0 13.32,-6.012 13.32,-13.047 0,-7.055 -5.48,-13.031 -13.05,-13.031 z m 0.28,-146.9142 c -11.49,0 -19.06,-0.2461 -30.52,-0.2461 v 4.4414 c 4.41,0.5 13.04,1.8164 16.69,4.1524 4.93,3.1406 4.68,13.8281 4.68,26.0937 0,6.2656 0.25,17.2383 -0.27,43.3048 -0.25,6.797 -0.77,13.582 -2.07,15.668 -1.56,2.609 -10.18,9.637 -14.62,13.297 v 1.832 l 35.47,13.035 2.07,-1.035 c 0,0 -0.22,-76.4455 -0.22,-86.1018 0,-15.6445 0.79,-23.2265 6.01,-26.6054 2.07,-1.5704 8.86,-2.8672 15.36,-3.6407 v -4.4414 c 0,0 -20.58,0.2461 -32.58,0.2461"
         style="fill:#050301;fill-opacity:1;fill-rule:nonzero;stroke:none"
         id="path28" />
      <path
         d="m 1321.28,134 c -6.79,-3.906 -10.43,-12.008 -16.94,-26.344 -3.65,-8.3357 -19.85,-45.6638 -27.16,-62.8865 -6.49,-15.3945 -9.31,-23.1328 -9.31,-23.1328 h -4.97 c 0,0 -37.89,88.6333 -41.51,97.2423 -1.85,4.937 -5.79,13.297 -9.45,15.121 -2.83,1.566 -5.45,2.355 -11.21,3.145 v 4.418 c 10.7,0 17,-0.254 27.66,-0.254 11.22,0 17.23,0.254 28.45,0.254 v -4.165 c -3.14,-0.527 -8.07,-1.043 -10.43,-1.832 -3.13,-1.289 -7.32,-3.648 -1.83,-18.265 4.96,-13.293 18.27,-44.0822 28.41,-68.3401 h 0.55 c 0,0 11.74,28.168 19.83,50.3594 3.13,8.8557 7.84,21.8907 7.84,27.9027 0,9.132 -11.24,8.879 -16.96,9.922 v 4.418 c 9.12,0 14.32,-0.254 23.46,-0.254 9.4,0 14.6,0.254 24.02,0.254 v -4.418 c -4.44,-0.79 -6.52,-0.79 -10.45,-3.145"
         style="fill:#050301;fill-opacity:1;fill-rule:nonzero;stroke:none"
         id="path30" />
      <path
         d="m 1375.8,138.586 c -14.86,0 -23.71,-13.57 -27.63,-27.941 0,0 43.58,0.789 51.4,1.835 -1.31,10.954 -8.6,26.106 -23.77,26.106 z m 2.93,-117.4297 c -11.78,0 -26.4,4.707 -37.34,15.1328 -11.21,10.707 -18.02,24.2617 -18.02,44.6132 0,17.4922 6.81,34.4647 18.02,45.9297 11.22,11.484 24.25,17.488 41.49,17.488 27.64,0 42.25,-18.539 42.25,-40.187 0,0 -57.14,2.101 -78,1.566 -1.08,-4.703 -1.3,-9.1326 -1.3,-15.1482 0,-15.8945 4.95,-28.9414 14.86,-38.8633 8.36,-8.3477 20.61,-13.5742 33.66,-13.5742 13.31,0 23.73,7.0664 30.78,16.7109 l 3.92,-3.1367 C 1417.81,35.7852 1401.4,21.1563 1378.73,21.1563"
         style="fill:#050301;fill-opacity:1;fill-rule:nonzero;stroke:none"
         id="path32" />
      <path
         d="m 1477.81,21.293 c -8.1,0 -14.62,1.5586 -18.78,3.9218 -5.2,3.1133 -7.84,7.3047 -7.84,17.4766 0,25.2813 1.31,48.0117 1.31,82.4536 0,0 -14.87,-0.282 -17.24,-0.282 -1.3,0 -2.86,2.36 -1.55,3.645 9.89,9.148 31.04,30.031 37.03,36.023 1.33,1.324 3.94,0.25 3.64,-1.578 -0.51,-5.742 -1.27,-23.715 -1.27,-23.715 h 42.79 V 125.66 h -42.55 c 0,0 -0.52,-37.5662 -0.52,-43.8397 0,-9.3906 -0.49,-25.5742 1.55,-33.9258 3.16,-12.2656 15.66,-15.1211 28.45,-15.1211 6.27,0 10.46,0.7813 14.38,1.5704 l 1.03,-4.4454 c -8.33,-3.1328 -25.34,-8.6054 -40.43,-8.6054"
         style="fill:#050301;fill-opacity:1;fill-rule:nonzero;stroke:none"
         id="path34" />
      <path
         d="m 124.91,367.5 c 55,0 89.035,-19.437 109.238,-61.422 6.422,2.324 15.555,4.457 15.555,4.457 0,0 -11.859,-40.828 -14.383,-49.375 -2.523,-8.547 -4.281,-18.265 -4.281,-18.265 -27.793,6.507 -82.601,12.25 -106.129,12.25 -23.515,0 -78.3319,-5.743 -106.1248,-12.25 0,0 -1.7579,9.718 -4.2696,18.265 -2.5351,8.547 -14.394506,49.375 -14.394506,49.375 0,0 9.136716,-2.133 15.550806,-4.457 20.207,41.985 54.2265,61.422 109.2381,61.422 z m 54.723,-21.094 c 9.629,-11.176 14.492,-20.89 14.492,-20.89 3.414,-1.36 7.008,-2.825 10.105,-4.485 0,0 -9.335,17.403 -24.597,25.375 z m -42.852,8.735 c 1.262,-10.196 3.492,-17.793 3.492,-17.793 5.879,-0.512 12.68,-1.332 19.832,-2.555 0,0 -5.933,16.172 -23.324,20.348 z m -66.574,-8.735 c -15.2656,-7.972 -24.6015,-25.375 -24.6015,-25.375 3.0859,1.66 6.6875,3.125 10.1172,4.485 0,0 4.8632,9.714 14.4843,20.89 z m 42.859,8.735 c -17.4097,-4.176 -23.3433,-20.348 -23.3433,-20.348 7.1562,1.223 13.9493,2.043 19.8283,2.555 0,0 2.25,7.597 3.515,17.793 v 0"
         style="fill:#161315;fill-opacity:1;fill-rule:evenodd;stroke:none"
         id="path36" />
      <path
         d="m 124.91,367.5 c 55,0 89.035,-19.437 109.238,-61.422 6.422,2.324 15.555,4.457 15.555,4.457 0,0 -11.859,-40.828 -14.383,-49.375 -2.523,-8.547 -4.281,-18.265 -4.281,-18.265 -27.793,6.507 -82.601,12.25 -106.129,12.25 -23.515,0 -78.3319,-5.743 -106.1248,-12.25 0,0 -1.7579,9.718 -4.2696,18.265 -2.5351,8.547 -14.394506,49.375 -14.394506,49.375 0,0 9.136716,-2.133 15.550806,-4.457 20.207,41.985 54.2265,61.422 109.2381,61.422 z m 54.723,-21.094 c 9.629,-11.176 14.492,-20.89 14.492,-20.89 3.414,-1.36 7.008,-2.825 10.105,-4.485 0,0 -9.335,17.403 -24.597,25.375 z m -42.852,8.735 c 1.262,-10.196 3.492,-17.793 3.492,-17.793 5.879,-0.512 12.68,-1.332 19.832,-2.555 0,0 -5.933,16.172 -23.324,20.348 z m -66.574,-8.735 c -15.2656,-7.972 -24.6015,-25.375 -24.6015,-25.375 3.0859,1.66 6.6875,3.125 10.1172,4.485 0,0 4.8632,9.714 14.4843,20.89 z m 42.859,8.735 c -17.4097,-4.176 -23.3433,-20.348 -23.3433,-20.348 7.1562,1.223 13.9493,2.043 19.8283,2.555 0,0 2.25,7.597 3.515,17.793 z"
         style="fill:none;stroke:#161315;stroke-width:0.16856;stroke-linecap:butt;stroke-linejoin:miter;stroke-miterlimit:3.86369;stroke-dasharray:none;stroke-opacity:1"
         id="path38" />
      <path
         d="m 124.824,425.516 c 0,0 2.906,0.097 4.192,0.097 -0.407,-1.066 -0.309,-10.008 -0.309,-10.008 0,0 7.301,0.098 10.602,0.489 0.277,-2.289 0.48,-6.899 0.187,-9.239 -3.402,0.875 -10.887,0.782 -10.887,0.782 0,0 -0.195,-4.778 0.286,-10.305 7.492,-1.074 12.05,-8.465 12.05,-15.652 0,-7.184 -4.75,-15.934 -16.035,-15.934 -11.078,0 -16.031,8.457 -16.031,15.645 0,7.199 4.379,14.867 11.844,15.941 0.5,5.527 0.406,10.207 0.406,10.207 0,0 -7.391,0.191 -10.785,-0.684 -0.293,2.34 -0.106,6.95 0.187,9.239 3.301,-0.391 10.598,-0.489 10.598,-0.489 0,0 0.094,8.942 -0.293,10.008 1.258,0 3.988,-0.097 3.988,-0.097 v 0"
         style="fill:#161315;fill-opacity:1;fill-rule:nonzero;stroke:none"
         id="path40" />
      <path
         d="m 124.824,425.516 c 0,0 2.906,0.097 4.192,0.097 -0.407,-1.066 -0.309,-10.008 -0.309,-10.008 0,0 7.301,0.098 10.602,0.489 0.277,-2.289 0.48,-6.899 0.187,-9.239 -3.402,0.875 -10.887,0.782 -10.887,0.782 0,0 -0.195,-4.778 0.286,-10.305 7.492,-1.074 12.05,-8.465 12.05,-15.652 0,-7.184 -4.75,-15.934 -16.035,-15.934 -11.078,0 -16.031,8.457 -16.031,15.645 0,7.199 4.379,14.867 11.844,15.941 0.5,5.527 0.406,10.207 0.406,10.207 0,0 -7.391,0.191 -10.785,-0.684 -0.293,2.34 -0.106,6.95 0.187,9.239 3.301,-0.391 10.598,-0.489 10.598,-0.489 0,0 0.094,8.942 -0.293,10.008 1.258,0 3.988,-0.097 3.988,-0.097 z"
         style="fill:none;stroke:#161315;stroke-width:0.16856;stroke-linecap:butt;stroke-linejoin:miter;stroke-miterlimit:3.86369;stroke-dasharray:none;stroke-opacity:1"
         id="path42" />
      <path
         d="m 232.797,263.801 c -24.098,5.828 -73.875,11.359 -107.887,11.359 -34.0077,0 -83.7616,-6.129 -107.8827,-11.945 l 4.086,-16.527 c 27.8086,6.511 80.2817,11.671 103.7967,11.671 25.57,0 63.473,-1.558 104.195,-10.793 1.364,5.149 3.692,16.235 3.692,16.235 v 0"
         style="fill:#f9e11a;fill-opacity:1;fill-rule:nonzero;stroke:none"
         id="path44" />
      <path
         d="m 232.797,263.801 c -24.098,5.828 -73.875,11.359 -107.887,11.359 -34.0077,0 -83.7616,-6.129 -107.8827,-11.945 l 4.086,-16.527 c 27.8086,6.511 80.2817,11.671 103.7967,11.671 25.57,0 63.473,-1.558 104.195,-10.793 1.364,5.149 3.692,16.235 3.692,16.235 z"
         style="fill:none;stroke:#161315;stroke-width:0.16856;stroke-linecap:butt;stroke-linejoin:miter;stroke-miterlimit:3.86369;stroke-dasharray:none;stroke-opacity:1"
         id="path46" />
      <path
         d="m 124.91,329.688 -12.722,-11.176 -2.93,2.031 c 0,0 5.652,19.344 7.301,38.211 -35.1801,-5.941 -35.2738,-41.703 -35.2738,-41.703 l -2.6368,-2.141 -12.4336,9.238 -9.8164,-11.179 -2.5351,1.937 c 2.2383,4.86 13.8945,29.746 29.0664,38.301 -20.1133,-2.324 -38.7852,-23.715 -47.3359,-42.379 -6.0235,-0.969 -11.0665,-5.238 -13.3086,-8.16 -1.1719,0.293 -2.8282,1.062 -3.0157,1.164 22.1602,47.621 58.5899,59.965 105.6405,59.965 47.055,0 83.496,-12.344 105.66,-59.965 -0.203,-0.102 -1.847,-0.871 -3.019,-1.164 -2.231,2.922 -7.285,7.191 -13.313,8.16 -8.558,18.664 -27.218,40.055 -47.343,42.379 15.16,-8.555 26.828,-33.441 29.066,-38.301 l -2.531,-1.937 -9.813,11.179 -12.441,-9.238 -2.625,2.141 c 0,0 -0.106,35.762 -35.285,41.703 1.672,-18.867 7.3,-38.211 7.3,-38.211 l -2.929,-2.031 -12.727,11.176 v 0"
         style="fill:#f9e11a;fill-opacity:1;fill-rule:nonzero;stroke:none"
         id="path48" />
      <path
         d="m 124.91,329.688 -12.722,-11.176 -2.93,2.031 c 0,0 5.652,19.344 7.301,38.211 -35.1801,-5.941 -35.2738,-41.703 -35.2738,-41.703 l -2.6368,-2.141 -12.4336,9.238 -9.8164,-11.179 -2.5351,1.937 c 2.2383,4.86 13.8945,29.746 29.0664,38.301 -20.1133,-2.324 -38.7852,-23.715 -47.3359,-42.379 -6.0235,-0.969 -11.0665,-5.238 -13.3086,-8.16 -1.1719,0.293 -2.8282,1.062 -3.0157,1.164 22.1602,47.621 58.5899,59.965 105.6405,59.965 47.055,0 83.496,-12.344 105.66,-59.965 -0.203,-0.102 -1.847,-0.871 -3.019,-1.164 -2.231,2.922 -7.285,7.191 -13.313,8.16 -8.558,18.664 -27.218,40.055 -47.343,42.379 15.16,-8.555 26.828,-33.441 29.066,-38.301 l -2.531,-1.937 -9.813,11.179 -12.441,-9.238 -2.625,2.141 c 0,0 -0.106,35.762 -35.285,41.703 1.672,-18.867 7.3,-38.211 7.3,-38.211 l -2.929,-2.031 -12.727,11.176 z"
         style="fill:none;stroke:#161315;stroke-width:0.16856;stroke-linecap:butt;stroke-linejoin:miter;stroke-miterlimit:3.86369;stroke-dasharray:none;stroke-opacity:1"
         id="path50" />
      <path
         d="m 122.207,397.672 c 0.496,5.535 0.375,11.426 0.375,11.426 0,0 -7.379,0.195 -10.781,-0.684 -0.293,2.336 -0.113,3.84 0.179,6.117 3.313,-0.39 10.602,-0.484 10.602,-0.484 0,0 0.098,8.945 -0.281,10.016 1.258,0 2.422,-0.102 2.422,-0.102 0,0 1.363,0.102 2.621,0.102 -0.379,-1.071 -0.293,-10.016 -0.293,-10.016 0,0 7.301,0.094 10.586,0.484 0.293,-2.277 0.5,-3.781 0.207,-6.117 -3.406,0.879 -10.879,0.781 -10.879,0.781 0,0 -0.094,-5.937 0.379,-11.476 l -5.137,-0.047 v 0"
         style="fill:#f9e11a;fill-opacity:1;fill-rule:nonzero;stroke:none"
         id="path52" />
      <path
         d="m 127.438,395.484 c 7.5,-1.07 11.378,-7.187 11.378,-14.39 0,-5.824 -4.57,-13.11 -13.406,-13.11 -9.031,0 -14.305,6.313 -14.305,12.914 0,7.196 3.411,13.516 10.903,14.586 h 5.43 v 0"
         style="fill:#3871c1;fill-opacity:1;fill-rule:nonzero;stroke:none"
         id="path54" />
      <path
         d="m 127.438,395.484 c 7.5,-1.07 11.378,-7.187 11.378,-14.39 0,-5.824 -4.57,-13.11 -13.406,-13.11 -9.031,0 -14.305,6.313 -14.305,12.914 0,7.196 3.411,13.516 10.903,14.586 h 5.43 z"
         style="fill:none;stroke:#3871c1;stroke-width:0.16856;stroke-linecap:butt;stroke-linejoin:miter;stroke-miterlimit:3.86369;stroke-dasharray:none;stroke-opacity:1"
         id="path56" />
      <path
         d="m 111.559,377.508 c -0.293,1.504 -0.485,4.219 -0.051,6.113 l 10.394,0.301 0.149,11.668 h 5.387 l 0.05,-11.668 10.985,-0.203 c 0.343,-1.602 0.492,-4.516 -0.293,-6.223 l -26.621,0.012 v 0"
         style="fill:#f9e11a;fill-opacity:1;fill-rule:nonzero;stroke:none"
         id="path58" />
      <path
         d="m 111.559,377.508 c -0.293,1.504 -0.485,4.219 -0.051,6.113 l 10.394,0.301 0.149,11.668 h 5.387 l 0.05,-11.668 10.985,-0.203 c 0.343,-1.602 0.492,-4.516 -0.293,-6.223 l -26.621,0.012 z"
         style="fill:none;stroke:#f2f020;stroke-width:0.16856;stroke-linecap:butt;stroke-linejoin:miter;stroke-miterlimit:3.86369;stroke-dasharray:none;stroke-opacity:1"
         id="path60" />
      <path
         d="m 124.938,277.488 c -34.0239,0 -84.5786,-5.843 -108.6763,-11.652 -2.5273,7.766 -10.32029,35.57 -11.46873,40.043 5.72653,-0.289 15.92583,-5.449 15.92583,-5.449 0,0 -1.0547,-3.891 -2.2266,-7.2 6.707,9.629 17.6289,10.891 17.207,-1.55 -0.1914,-5.641 -4.3711,-10.778 -9.0351,-11.563 3.4922,6.52 -3.1953,10.586 -7.293,6.121 -4.6641,-5.05 4.707,-14.386 14.5703,-8.937 5.6524,3.109 8.9414,9.715 8.9414,14.57 1.6524,-4.168 5.9375,-11.078 14.3828,-11.269 13.5235,-0.309 10.4063,15.457 3.1172,11.472 -3.332,-1.824 -1.375,-6.129 -0.789,-6.801 -4.4571,1.071 -12.9141,6.114 -9.9102,14.77 2.5156,7.219 9.5312,7.297 14.7734,2.719 -0.3789,2.14 -5.9218,7.875 -5.9218,7.875 3.1093,4.086 7.6796,9.625 7.6796,9.625 l 10.5,-7.59 c 0,0 -2.7265,-5.039 -3.707,-9.317 4.9649,6.989 10.9492,8.614 15.9336,4.961 5.4531,-4 2.0508,-16.722 -6.3984,-18.586 2.9062,7.102 -5.2422,9.141 -7.1914,4.282 -1.9493,-4.852 3.8828,-12.727 12.6328,-8.067 8.9453,4.77 9.8086,12.157 9.8086,12.157 0,0 0.6562,-8.75 9.043,-12.157 13.414,-5.449 19.059,10.887 10.309,12.352 -4.293,0.707 -6.907,-4.668 -4.372,-7.774 -5.543,1.641 -11.101,7.133 -9.238,15.157 2.231,9.629 12.93,7.582 16.039,2.722 0.383,1.547 -3.195,6.907 -5.351,8.063 2.828,2.723 10.687,9.574 10.687,9.574 0,0 7.883,-6.851 10.699,-9.574 -2.136,-1.156 -5.742,-6.516 -5.336,-8.063 3.094,4.86 13.809,6.907 16.028,-2.722 1.867,-8.024 -3.699,-13.516 -9.227,-15.157 2.512,3.106 -0.094,8.481 -4.379,7.774 -8.75,-1.465 -3.414,-17.598 10.008,-12.145 8.391,3.399 9.527,10.973 9.527,10.973 0,0 0,-6.516 9.036,-11.086 9.437,-4.754 15.742,2.633 13.222,7.973 -2.242,4.734 -10.113,2.82 -7.207,-4.282 -8.449,1.864 -11.851,14.586 -6.414,18.586 5,3.653 10.985,2.028 15.949,-4.961 -0.957,4.278 -3.679,9.317 -3.679,9.317 l 10.48,7.59 c 0,0 4.574,-5.539 7.672,-9.625 0,0 -5.531,-5.735 -5.922,-7.875 5.246,4.578 12.274,4.5 14.774,-2.719 3.019,-8.656 -5.438,-13.699 -9.911,-14.77 0.575,0.672 2.543,4.977 -0.789,6.801 -7.273,3.985 -10.293,-12.273 3.219,-11.765 7.774,0.293 12.637,5.929 13.988,10.8 0.688,-5.164 2.704,-10.273 9.235,-13.808 10.609,-5.742 19.258,3.887 14.586,8.937 -4.114,4.465 -10.801,0.399 -7.285,-6.121 -4.676,0.785 -8.852,5.922 -9.059,11.563 -0.414,12.441 10.52,11.179 17.207,1.55 -1.168,3.309 -2.227,7.2 -2.227,7.2 0,0 10.204,5.16 15.95,5.449 -1.172,-4.473 -8.946,-32.277 -11.492,-40.043 -24.098,5.809 -74.618,11.652 -108.625,11.652 v 0"
         style="fill:#f9e11a;fill-opacity:1;fill-rule:nonzero;stroke:none"
         id="path62" />
      <path
         d="m 124.938,277.488 c -34.0239,0 -84.5786,-5.843 -108.6763,-11.652 -2.5273,7.766 -10.32029,35.57 -11.46873,40.043 5.72653,-0.289 15.92583,-5.449 15.92583,-5.449 0,0 -1.0547,-3.891 -2.2266,-7.2 6.707,9.629 17.6289,10.891 17.207,-1.55 -0.1914,-5.641 -4.3711,-10.778 -9.0351,-11.563 3.4922,6.52 -3.1953,10.586 -7.293,6.121 -4.6641,-5.05 4.707,-14.386 14.5703,-8.937 5.6524,3.109 8.9414,9.715 8.9414,14.57 1.6524,-4.168 5.9375,-11.078 14.3828,-11.269 13.5235,-0.309 10.4063,15.457 3.1172,11.472 -3.332,-1.824 -1.375,-6.129 -0.789,-6.801 -4.4571,1.071 -12.9141,6.114 -9.9102,14.77 2.5156,7.219 9.5312,7.297 14.7734,2.719 -0.3789,2.14 -5.9218,7.875 -5.9218,7.875 3.1093,4.086 7.6796,9.625 7.6796,9.625 l 10.5,-7.59 c 0,0 -2.7265,-5.039 -3.707,-9.317 4.9649,6.989 10.9492,8.614 15.9336,4.961 5.4531,-4 2.0508,-16.722 -6.3984,-18.586 2.9062,7.102 -5.2422,9.141 -7.1914,4.282 -1.9493,-4.852 3.8828,-12.727 12.6328,-8.067 8.9453,4.77 9.8086,12.157 9.8086,12.157 0,0 0.6562,-8.75 9.043,-12.157 13.414,-5.449 19.059,10.887 10.309,12.352 -4.293,0.707 -6.907,-4.668 -4.372,-7.774 -5.543,1.641 -11.101,7.133 -9.238,15.157 2.231,9.629 12.93,7.582 16.039,2.722 0.383,1.547 -3.195,6.907 -5.351,8.063 2.828,2.723 10.687,9.574 10.687,9.574 0,0 7.883,-6.851 10.699,-9.574 -2.136,-1.156 -5.742,-6.516 -5.336,-8.063 3.094,4.86 13.809,6.907 16.028,-2.722 1.867,-8.024 -3.699,-13.516 -9.227,-15.157 2.512,3.106 -0.094,8.481 -4.379,7.774 -8.75,-1.465 -3.414,-17.598 10.008,-12.145 8.391,3.399 9.527,10.973 9.527,10.973 0,0 0,-6.516 9.036,-11.086 9.437,-4.754 15.742,2.633 13.222,7.973 -2.242,4.734 -10.113,2.82 -7.207,-4.282 -8.449,1.864 -11.851,14.586 -6.414,18.586 5,3.653 10.985,2.028 15.949,-4.961 -0.957,4.278 -3.679,9.317 -3.679,9.317 l 10.48,7.59 c 0,0 4.574,-5.539 7.672,-9.625 0,0 -5.531,-5.735 -5.922,-7.875 5.246,4.578 12.274,4.5 14.774,-2.719 3.019,-8.656 -5.438,-13.699 -9.911,-14.77 0.575,0.672 2.543,4.977 -0.789,6.801 -7.273,3.985 -10.293,-12.273 3.219,-11.765 7.774,0.293 12.637,5.929 13.988,10.8 0.688,-5.164 2.704,-10.273 9.235,-13.808 10.609,-5.742 19.258,3.887 14.586,8.937 -4.114,4.465 -10.801,0.399 -7.285,-6.121 -4.676,0.785 -8.852,5.922 -9.059,11.563 -0.414,12.441 10.52,11.179 17.207,1.55 -1.168,3.309 -2.227,7.2 -2.227,7.2 0,0 10.204,5.16 15.95,5.449 -1.172,-4.473 -8.946,-32.277 -11.492,-40.043 -24.098,5.809 -74.618,11.652 -108.625,11.652 z"
         style="fill:none;stroke:#161315;stroke-width:0.16856;stroke-linecap:butt;stroke-linejoin:miter;stroke-miterlimit:3.86369;stroke-dasharray:none;stroke-opacity:1"
         id="path64" />
      <path
         d="m 43.2773,316.855 c 1.9454,1.563 11.2735,5.153 11.2735,5.153 l -3.6016,-7.684 c 0,0 5.7305,-3.496 8.1719,-6.797 -6.9023,1.461 -10.4492,-4.164 -11.3711,-8.363 -1.7578,-7.879 6.0234,-15.648 13.2188,-15.062 -0.7891,1.937 -2.3399,6.421 1.1601,7.183 3.5,0.789 5.4414,-8.555 -3.4141,-9.512 -8.3984,-0.929 -15.246,8.543 -16.8007,16.711 1.1718,-11.183 -5.25,-20.89 -13.7071,-21.668 -8.1289,-0.757 -11.2929,8.77 -5.7304,9.629 4.457,0.672 3.7851,-5.066 2.332,-7.5 4.4687,-0.679 15.8477,5.45 11.6641,19.157 -1.711,5.613 -9.3321,5.531 -14.1016,1.156 1.2773,4.187 10.5117,10.605 17.0195,9.73 1.7578,3.887 3.8867,7.867 3.8867,7.867 v 0"
         style="fill:#e12a3a;fill-opacity:1;fill-rule:nonzero;stroke:none"
         id="path66" />
      <path
         d="m 206.559,316.855 c -1.95,1.563 -11.286,5.153 -11.286,5.153 l 3.606,-7.684 c 0,0 -5.742,-3.496 -8.176,-6.797 6.914,1.461 10.449,-4.164 11.371,-8.363 1.758,-7.879 -6.011,-15.648 -13.219,-15.062 0.79,1.937 2.34,6.421 -1.152,7.183 -3.5,0.789 -5.445,-8.555 3.406,-9.512 8.403,-0.929 15.246,8.543 16.813,16.711 -1.16,-11.183 5.238,-20.89 13.703,-21.668 8.121,-0.757 11.285,8.77 5.746,9.629 -4.48,0.672 -3.808,-5.066 -2.344,-7.5 -4.48,-0.679 -15.855,5.45 -11.668,19.157 1.715,5.613 9.329,5.531 14.102,1.156 -1.262,4.187 -10.508,10.605 -17.027,9.73 -1.735,3.887 -3.875,7.867 -3.875,7.867 v 0"
         style="fill:#e12a3a;fill-opacity:1;fill-rule:nonzero;stroke:none"
         id="path68" />
      <path
         d="m 88.7656,331.918 c 7.6797,1.953 20.1134,2.727 20.1134,2.727 -0.293,-4.86 -3.492,-14.68 -3.492,-14.68 0,0 4.258,-1.547 8.445,-5.922 -6.902,1.453 -10.687,-2.438 -12.051,-7.383 -2.5232,-9.242 5.832,-18.664 12.926,-17.109 -2.141,1.937 -2.027,7.094 1.566,7.281 5.442,0.293 4.899,-10.051 -3.984,-10.301 -10.418,-0.293 -13.9101,9.625 -14.9882,18.371 -0.0938,-9.039 -4.4649,-17.007 -13.0078,-18.957 -7.9649,-1.808 -9.586,8.34 -5.4414,9.246 3.5781,0.77 3.4922,-3.996 2.0273,-6.425 3.6016,-1.75 15.0938,5.418 11.6797,17.597 -1.5664,5.535 -10.5078,7.571 -15.2578,3.207 1.3476,3.102 4.9414,6.223 8.543,7.782 0,8.546 2.9218,14.566 2.9218,14.566 v 0"
         style="fill:#e12a3a;fill-opacity:1;fill-rule:nonzero;stroke:none"
         id="path70" />
      <path
         d="m 161.063,331.918 c -8.946,1.852 -20.118,2.824 -20.118,2.824 0.586,-5.64 3.508,-14.777 3.508,-14.777 0,0 -4.265,-1.547 -8.445,-5.922 6.902,1.453 10.687,-2.438 12.035,-7.383 2.547,-9.242 -5.832,-18.664 -12.914,-17.109 2.137,1.937 2.023,7.094 -1.555,7.281 -5.453,0.293 -4.922,-10.387 3.977,-10.301 8.851,0.106 14.773,8.66 14.972,18.371 0.286,-9.332 3.293,-15.949 12.336,-18.664 7.829,-2.351 11.371,7.68 6.114,8.953 -3.563,0.856 -3.485,-3.996 -2.028,-6.425 -3.601,-1.75 -15.078,5.418 -11.664,17.597 1.551,5.535 10.5,7.571 15.258,3.207 -1.363,3.102 -4.957,6.223 -8.551,7.782 0,8.546 -2.925,14.566 -2.925,14.566 v 0"
         style="fill:#e12a3a;fill-opacity:1;fill-rule:nonzero;stroke:none"
         id="path72" />
      <path
         d="M 220.941,63.8672 C 199.645,7.73828 159.508,0.894531 124.91,0.105469 113.652,-0.140625 94.9805,1.66016 80.0703,7.92969 58.3672,17.0547 28.1055,32.9883 19.957,98.082 13.5,149.469 17.6211,220.336 18.7852,244.844 138.91,269.707 231.223,245.516 231.246,245.137 234.938,149.785 233.77,97.6758 220.941,63.8672 v 0"
         style="fill:#161315;fill-opacity:1;fill-rule:nonzero;stroke:none"
         id="path74" />
      <path
         d="M 220.941,63.8672 C 199.645,7.73828 159.508,0.894531 124.91,0.105469 113.652,-0.140625 94.9805,1.66016 80.0703,7.92969 58.3672,17.0547 28.1055,32.9883 19.957,98.082 13.5,149.469 17.6211,220.336 18.7852,244.844 138.91,269.707 231.223,245.516 231.246,245.137 234.938,149.785 233.77,97.6758 220.941,63.8672 Z"
         style="fill:none;stroke:#161315;stroke-width:0.16856;stroke-linecap:butt;stroke-linejoin:miter;stroke-miterlimit:3.86369;stroke-dasharray:none;stroke-opacity:1"
         id="path76" />
      <path
         d="m 126.672,254.172 c 39.504,0 63.558,-1.559 100.777,-10.442 0.305,-1.015 1.489,-24.144 1.567,-85.988 0,0 0.64,-43.273 -6.871,-74.074 C 205.387,14.8828 162.23,4.00391 124.91,4.00391 c -29.1444,0 -58.4686,9.72659 -74.367,27.58989 -18.0235,20.246 -22.75,37.8164 -26.6914,64.9101 -4.6875,31.8941 -4.5078,114.0701 -1.961,146.3911 22.5469,4.863 63.6758,11.285 104.7814,11.277 v 0"
         style="fill:#3871c1;fill-opacity:1;fill-rule:nonzero;stroke:none"
         id="path78" />
      <path
         d="m 109.551,249.215 c 9.945,0 14.765,-6.035 15.359,-6.035 0.836,0 6.356,5.437 12.547,5.437 5.801,0 12.859,-2.039 16.559,-9.137 3.601,2.028 7.394,2.864 11.078,3.7 0.222,-0.231 0.336,-0.196 1.894,0 6.742,-0.387 15.594,-5.465 20.27,-13.235 22.996,7.125 38.66,-4.832 31.734,-21.265 -3.41,-8.137 -13.781,-11.274 -16.125,-11.078 0.965,-4.672 1.742,-32.266 1.742,-32.266 0,-7.481 8.661,-40.375 8.954,-42.188 0.292,-1.82 -6.145,-5.835 -7.208,-5.835 -0.48,0 -2.183,0.792 -3.265,1.378 -0.945,-1.937 -1.867,-2.804 -1.867,-3.808 0,-3.242 4.3,-1.813 3.195,-4.563 -2.344,-5.816 -7.973,-5.23 -9.906,-3.886 -2.731,-1.164 -5.364,-0.758 -5.836,-0.758 -1.387,0 -0.809,-0.93 -1.559,-2.348 2.145,0.363 12.832,-0.246 12.832,-6.4178 0,-1.0704 -0.801,-4.0977 -1.183,-4.461 0,0 -7.364,-1.1719 -7.364,-5.2656 0,0 4.618,-4.6641 5.157,-5.6367 1.214,-2.1133 1.824,-4.543 1.824,-6.9805 0,-7.3906 -7.188,-12.8398 -13.781,-12.8398 -0.563,-3.1953 -6.973,-7.7461 -9.563,-8.6719 -0.172,-0.5039 -0.359,-1.3516 -0.359,-1.8203 0,-0.4961 0.121,-2.918 0.574,-9.9102 0.098,-1.5781 0.605,-3.3125 0.785,-5.0703 0.383,-4.2422 0.106,-5.2461 0.383,-7.7695 0.273,-2.3164 1.172,-6.711 1.172,-7.1953 0,-0.0782 -1.125,-1.8789 -0.035,-3.1641 -4.051,0.8438 -5.02,1.2266 -7.856,1.3164 l -23.508,1.1602 -17.101,0.2031 c -0.485,0 -0.578,0 -1.071,0 -0.32,0 -4.656,0.4609 -7.48,0.3828 L 96.4219,20.8047 c 0,0 -0.25,0.0195 -0.4063,0.2031 L 78.9414,19.8242 c -0.3828,0 -1.5547,-0.1914 -4.5039,-0.3711 -0.2461,0.4297 -0.2461,0.6758 -0.2461,1.1485 0,0.4961 0.5859,3.8086 0.957,5.5664 l 1.5664,20.6836 v 7.0507 c -1.4648,0.7735 -4.0351,1.6329 -5.3632,2.6446 -1.8243,1.3515 -2.9141,3.8515 -4.9102,5.25 -0.7851,0.5508 -2.1641,0.1211 -3.2695,0.4922 -1.7735,0.5781 -3.5313,1.1523 -5.043,2.1523 -3.7578,2.4922 -5.3359,6.4063 -5.3359,9.8125 0,6.7578 7.1953,12.5664 7.1953,13.8008 0,3.5078 -8.6016,5.1055 -8.8945,5.1367 -0.586,0.8906 -1.0157,1.9609 -1.0157,2.9297 0,7.1839 7.5938,7.1639 12.8516,7.6559 v 1.649 c -0.1797,0.156 0.0781,0.312 -0.418,0.312 -0.4844,0 -2.332,-0.383 -2.8125,-0.383 -0.4844,0 -2.8281,0.778 -3.3008,0.778 -0.4843,0 -0.9257,-0.371 -1.375,-0.57 -0.2461,0.199 -0.375,0.175 -3.1093,0 -3.3985,1.292 -5.7227,2.691 -5.7227,5.714 0,2.243 3.4922,0.957 3.4922,4.106 0,0.617 -0.3828,1.281 -1.4609,3.195 -0.1602,0.156 -3,-0.68 -3.4922,-0.68 -1.1524,0 -7.3008,3.372 -7.3008,5.457 0,0.93 3.8086,14.543 4.7344,19.446 1.4843,7.734 3.5781,15.484 4.414,23.32 0.4922,4.621 -0.1914,5.406 -0.25,5.992 0,0 0.4492,19.844 0.4492,20.317 0,0.5 0.7813,3.707 0.7813,4.191 0,0.473 0.0117,0.543 -0.1484,0.836 -6.461,0.145 -16.0821,8.602 -17.0625,17.047 -0.0547,0.496 -0.0977,1.363 -0.0977,4.281 1.8438,10.629 13.8711,13.695 21.3828,13.695 0.4844,0 1.0742,0.02 4.1758,-0.179 1.9727,-0.149 5.25,-0.985 5.7344,-0.985 1,0 0.7773,0.985 0.7773,1.262 0,0.731 4.4141,5.621 5.7227,6.645 0.5429,0.406 5.75,3.965 11.707,4.347 h 3.2461 c 2.8945,0 10.6211,-2.668 12.0273,-2.941 1.5977,4.98 10.1366,8.586 14.5276,8.586 v 0"
         style="fill:#3871c1;fill-opacity:1;fill-rule:nonzero;stroke:none"
         id="path80" />
      <path
         d="m 109.551,249.215 c 9.945,0 14.765,-6.035 15.359,-6.035 0.836,0 6.356,5.437 12.547,5.437 5.801,0 12.859,-2.039 16.559,-9.137 3.601,2.028 7.394,2.864 11.078,3.7 0.222,-0.231 0.336,-0.196 1.894,0 6.742,-0.387 15.594,-5.465 20.27,-13.235 22.996,7.125 38.66,-4.832 31.734,-21.265 -3.41,-8.137 -13.781,-11.274 -16.125,-11.078 0.965,-4.672 1.742,-32.266 1.742,-32.266 0,-7.481 8.661,-40.375 8.954,-42.188 0.292,-1.82 -6.145,-5.835 -7.208,-5.835 -0.48,0 -2.183,0.792 -3.265,1.378 -0.945,-1.937 -1.867,-2.804 -1.867,-3.808 0,-3.242 4.3,-1.813 3.195,-4.563 -2.344,-5.816 -7.973,-5.23 -9.906,-3.886 -2.731,-1.164 -5.364,-0.758 -5.836,-0.758 -1.387,0 -0.809,-0.93 -1.559,-2.348 2.145,0.363 12.832,-0.246 12.832,-6.4178 0,-1.0704 -0.801,-4.0977 -1.183,-4.461 0,0 -7.364,-1.1719 -7.364,-5.2656 0,0 4.618,-4.6641 5.157,-5.6367 1.214,-2.1133 1.824,-4.543 1.824,-6.9805 0,-7.3906 -7.188,-12.8398 -13.781,-12.8398 -0.563,-3.1953 -6.973,-7.7461 -9.563,-8.6719 -0.172,-0.5039 -0.359,-1.3516 -0.359,-1.8203 0,-0.4961 0.121,-2.918 0.574,-9.9102 0.098,-1.5781 0.605,-3.3125 0.785,-5.0703 0.383,-4.2422 0.106,-5.2461 0.383,-7.7695 0.273,-2.3164 1.172,-6.711 1.172,-7.1953 0,-0.0782 -1.125,-1.8789 -0.035,-3.1641 -4.051,0.8438 -5.02,1.2266 -7.856,1.3164 l -23.508,1.1602 -17.101,0.2031 c -0.485,0 -0.578,0 -1.071,0 -0.32,0 -4.656,0.4609 -7.48,0.3828 L 96.4219,20.8047 c 0,0 -0.25,0.0195 -0.4063,0.2031 L 78.9414,19.8242 c -0.3828,0 -1.5547,-0.1914 -4.5039,-0.3711 -0.2461,0.4297 -0.2461,0.6758 -0.2461,1.1485 0,0.4961 0.5859,3.8086 0.957,5.5664 l 1.5664,20.6836 v 7.0507 c -1.4648,0.7735 -4.0351,1.6329 -5.3632,2.6446 -1.8243,1.3515 -2.9141,3.8515 -4.9102,5.25 -0.7851,0.5508 -2.1641,0.1211 -3.2695,0.4922 -1.7735,0.5781 -3.5313,1.1523 -5.043,2.1523 -3.7578,2.4922 -5.3359,6.4063 -5.3359,9.8125 0,6.7578 7.1953,12.5664 7.1953,13.8008 0,3.5078 -8.6016,5.1055 -8.8945,5.1367 -0.586,0.8906 -1.0157,1.9609 -1.0157,2.9297 0,7.1839 7.5938,7.1639 12.8516,7.6559 v 1.649 c -0.1797,0.156 0.0781,0.312 -0.418,0.312 -0.4844,0 -2.332,-0.383 -2.8125,-0.383 -0.4844,0 -2.8281,0.778 -3.3008,0.778 -0.4843,0 -0.9257,-0.371 -1.375,-0.57 -0.2461,0.199 -0.375,0.175 -3.1093,0 -3.3985,1.292 -5.7227,2.691 -5.7227,5.714 0,2.243 3.4922,0.957 3.4922,4.106 0,0.617 -0.3828,1.281 -1.4609,3.195 -0.1602,0.156 -3,-0.68 -3.4922,-0.68 -1.1524,0 -7.3008,3.372 -7.3008,5.457 0,0.93 3.8086,14.543 4.7344,19.446 1.4843,7.734 3.5781,15.484 4.414,23.32 0.4922,4.621 -0.1914,5.406 -0.25,5.992 0,0 0.4492,19.844 0.4492,20.317 0,0.5 0.7813,3.707 0.7813,4.191 0,0.473 0.0117,0.543 -0.1484,0.836 -6.461,0.145 -16.0821,8.602 -17.0625,17.047 -0.0547,0.496 -0.0977,1.363 -0.0977,4.281 1.8438,10.629 13.8711,13.695 21.3828,13.695 0.4844,0 1.0742,0.02 4.1758,-0.179 1.9727,-0.149 5.25,-0.985 5.7344,-0.985 1,0 0.7773,0.985 0.7773,1.262 0,0.731 4.4141,5.621 5.7227,6.645 0.5429,0.406 5.75,3.965 11.707,4.347 h 3.2461 c 2.8945,0 10.6211,-2.668 12.0273,-2.941 1.5977,4.98 10.1366,8.586 14.5276,8.586 z"
         style="fill:none;stroke:#3871c1;stroke-width:0.67424;stroke-linecap:butt;stroke-linejoin:miter;stroke-miterlimit:3.86371;stroke-dasharray:none;stroke-opacity:1"
         id="path82" />
      <path
         d="m 110.406,246.473 c 0.496,0.015 0.418,0.015 0.903,0.015 0.492,0 0.777,0 1.257,0 3.02,0 10.52,-3.988 11.692,-8.179 3.18,4.414 8.73,7.664 13.293,7.593 13.609,-0.179 14.929,-11.464 15.445,-10.89 1.848,2.058 7.484,5.437 13.426,5.437 5.543,0 14.957,-5.176 17.566,-11.406 -6.722,-2.715 -12.949,-5.676 -20.133,-9.18 -1.058,3.809 -6.074,5.633 -9.011,5.633 -0.492,0 -1.055,0.047 -4.75,-0.203 -2.164,-0.113 -6.129,-0.969 -6.614,-0.969 -0.484,0 -3.32,0.778 -4.871,0.977 l -12.648,3.914 c -1.074,0.336 0.191,0.621 -4.043,-0.027 -6.996,-1.102 -10.586,-5.247 -16.352,-5.247 -3.535,0 -6.8941,1.555 -10.5855,1.555 -3.1094,0 -6.7383,-1.308 -8.043,-5.633 -6.9258,4.008 -14.3086,8.18 -21.4883,9.938 -0.0195,0.258 -0.2148,0.156 -0.2148,0.648 0,4.887 8.5586,9.91 12.9297,10.317 0.8672,-0.102 2.8164,0.179 5.0586,0.078 4.1211,-0.258 8.9179,-1.371 12.6796,-5.653 h 0.4766 c -0.9258,4.18 5.2301,9.661 9.3671,10.86 0.942,0.258 4.66,0.422 4.66,0.422 v 0"
         style="fill:#f9e11a;fill-opacity:1;fill-rule:nonzero;stroke:none"
         id="path84" />
      <path
         d="m 110.406,246.473 c 0.496,0.015 0.418,0.015 0.903,0.015 0.492,0 0.777,0 1.257,0 3.02,0 10.52,-3.988 11.692,-8.179 3.18,4.414 8.73,7.664 13.293,7.593 13.609,-0.179 14.929,-11.464 15.445,-10.89 1.848,2.058 7.484,5.437 13.426,5.437 5.543,0 14.957,-5.176 17.566,-11.406 -6.722,-2.715 -12.949,-5.676 -20.133,-9.18 -1.058,3.809 -6.074,5.633 -9.011,5.633 -0.492,0 -1.055,0.047 -4.75,-0.203 -2.164,-0.113 -6.129,-0.969 -6.614,-0.969 -0.484,0 -3.32,0.778 -4.871,0.977 l -12.648,3.914 c -1.074,0.336 0.191,0.621 -4.043,-0.027 -6.996,-1.102 -10.586,-5.247 -16.352,-5.247 -3.535,0 -6.8941,1.555 -10.5855,1.555 -3.1094,0 -6.7383,-1.308 -8.043,-5.633 -6.9258,4.008 -14.3086,8.18 -21.4883,9.938 -0.0195,0.258 -0.2148,0.156 -0.2148,0.648 0,4.887 8.5586,9.91 12.9297,10.317 0.8672,-0.102 2.8164,0.179 5.0586,0.078 4.1211,-0.258 8.9179,-1.371 12.6796,-5.653 h 0.4766 c -0.9258,4.18 5.2301,9.661 9.3671,10.86 0.942,0.258 4.66,0.422 4.66,0.422 z"
         style="fill:none;stroke:#3871c1;stroke-width:0.67424;stroke-linecap:butt;stroke-linejoin:miter;stroke-miterlimit:3.86371;stroke-dasharray:none;stroke-opacity:1"
         id="path86" />
      <path
         d="m 50.9492,229.957 c 14.3086,-0.43 31.293,-10.094 37.8008,-14.914 -1.0273,0.191 -8.1836,1.703 -9.6055,1.703 -7.25,0 -17.0156,-5.082 -17.0273,-13.348 v -2.562 c -5.7109,-0.965 -4.0742,-0.816 -8.2539,-0.816 -5.9688,0 -14.3828,2.097 -18.043,8.988 -1.1562,2.23 -2.6484,5.371 -2.6484,7.637 0,7.75 9.0351,12.925 14.7773,12.925 0.4727,0 2.0274,0.203 3,0.387 v 0"
         style="fill:#f9e11a;fill-opacity:1;fill-rule:nonzero;stroke:none"
         id="path88" />
      <path
         d="m 50.9492,229.957 c 14.3086,-0.43 31.293,-10.094 37.8008,-14.914 -1.0273,0.191 -8.1836,1.703 -9.6055,1.703 -7.25,0 -17.0156,-5.082 -17.0273,-13.348 v -2.562 c -5.7109,-0.965 -4.0742,-0.816 -8.2539,-0.816 -5.9688,0 -14.3828,2.097 -18.043,8.988 -1.1562,2.23 -2.6484,5.371 -2.6484,7.637 0,7.75 9.0351,12.925 14.7773,12.925 0.4727,0 2.0274,0.203 3,0.387 z"
         style="fill:none;stroke:#3871c1;stroke-width:0.67424;stroke-linecap:butt;stroke-linejoin:miter;stroke-miterlimit:3.86371;stroke-dasharray:none;stroke-opacity:1"
         id="path90" />
      <path
         d="m 123.629,226.262 c 2.344,0 3.613,-0.176 4.101,-0.176 4.594,0 7.399,-4.871 16.352,-4.871 1.078,0 6.012,1.164 8.535,1.164 1.821,0 8.063,0.164 8.063,-4.078 0,-1.75 -11.328,-9.223 -13.899,-11.668 -1.484,2.176 -5.492,4.265 -7.765,4.265 -0.5,0 -2.235,-0.191 -2.715,-0.191 -2.348,0 -6.434,-2.129 -12.258,-2.129 -2.82,0 -10.078,1.738 -10.305,1.738 -0.48,0 -0.586,-0.179 -2.343,-0.179 -1.653,0.133 -4.387,-1.422 -5.774,-3.301 h -0.664 l -15.2265,11.519 c 0.25,2.938 3.1054,4.61 5.25,4.61 4.2343,0 6.7075,-1.949 11.3715,-1.949 7.527,0 7.449,2.632 17.277,5.246 v 0"
         style="fill:#f9e11a;fill-opacity:1;fill-rule:nonzero;stroke:none"
         id="path92" />
      <path
         d="m 123.629,226.262 c 2.344,0 3.613,-0.176 4.101,-0.176 4.594,0 7.399,-4.871 16.352,-4.871 1.078,0 6.012,1.164 8.535,1.164 1.821,0 8.063,0.164 8.063,-4.078 0,-1.75 -11.328,-9.223 -13.899,-11.668 -1.484,2.176 -5.492,4.265 -7.765,4.265 -0.5,0 -2.235,-0.191 -2.715,-0.191 -2.348,0 -6.434,-2.129 -12.258,-2.129 -2.82,0 -10.078,1.738 -10.305,1.738 -0.48,0 -0.586,-0.179 -2.343,-0.179 -1.653,0.133 -4.387,-1.422 -5.774,-3.301 h -0.664 l -15.2265,11.519 c 0.25,2.938 3.1054,4.61 5.25,4.61 4.2343,0 6.7075,-1.949 11.3715,-1.949 7.527,0 7.449,2.632 17.277,5.246 z"
         style="fill:none;stroke:#3871c1;stroke-width:0.67424;stroke-linecap:butt;stroke-linejoin:miter;stroke-miterlimit:3.86371;stroke-dasharray:none;stroke-opacity:1"
         id="path94" />
      <path
         d="m 77.3008,214.402 c 11.3711,0 18.1719,-3.23 25.0542,-10.64 -2.046,0.336 -5.4253,0.742 -5.9097,0.742 -5.4531,0 -14.8672,-2.816 -15.2734,-11.781 -0.0235,-0.852 0.1133,-1.836 0.3008,-3.578 h -2.5079 c -1.0468,0 -3.5351,1.238 -3.9296,1.304 -7.0508,1.485 -10.3829,8.313 -10.3829,13.762 0,6.219 8.8985,10.191 12.6485,10.191 v 0"
         style="fill:#f9e11a;fill-opacity:1;fill-rule:nonzero;stroke:none"
         id="path96" />
      <path
         d="m 77.3008,214.402 c 11.3711,0 18.1719,-3.23 25.0542,-10.64 -2.046,0.336 -5.4253,0.742 -5.9097,0.742 -5.4531,0 -14.8672,-2.816 -15.2734,-11.781 -0.0235,-0.852 0.1133,-1.836 0.3008,-3.578 h -2.5079 c -1.0468,0 -3.5351,1.238 -3.9296,1.304 -7.0508,1.485 -10.3829,8.313 -10.3829,13.762 0,6.219 8.8985,10.191 12.6485,10.191 z"
         style="fill:none;stroke:#3871c1;stroke-width:0.67424;stroke-linecap:butt;stroke-linejoin:miter;stroke-miterlimit:3.86371;stroke-dasharray:none;stroke-opacity:1"
         id="path98" />
      <path
         d="m 138.723,207.59 c 1.414,0 4.656,-0.926 4.656,-3.199 0,-0.946 -6.305,-7.254 -7.078,-8.153 -3.707,-4.246 -7.578,-10.484 -10.52,-15.066 -2.289,5.199 -7.468,11.871 -11.793,16.543 -1.781,1.922 -5.789,5.73 -5.789,6.586 0,2.836 3.696,2.726 4.867,2.726 0.485,0 9.614,-1.757 10.102,-1.757 0.484,0 1.27,-0.247 4.355,0.203 3.778,0.527 10.7,2.117 11.2,2.117 v 0"
         style="fill:#f9e11a;fill-opacity:1;fill-rule:nonzero;stroke:none"
         id="path100" />
      <path
         d="m 138.723,207.59 c 1.414,0 4.656,-0.926 4.656,-3.199 0,-0.946 -6.305,-7.254 -7.078,-8.153 -3.707,-4.246 -7.578,-10.484 -10.52,-15.066 -2.289,5.199 -7.468,11.871 -11.793,16.543 -1.781,1.922 -5.789,5.73 -5.789,6.586 0,2.836 3.696,2.726 4.867,2.726 0.485,0 9.614,-1.757 10.102,-1.757 0.484,0 1.27,-0.247 4.355,0.203 3.778,0.527 10.7,2.117 11.2,2.117 z"
         style="fill:none;stroke:#3871c1;stroke-width:0.67424;stroke-linecap:butt;stroke-linejoin:miter;stroke-miterlimit:3.86371;stroke-dasharray:none;stroke-opacity:1"
         id="path102" />
      <path
         d="m 94.6875,202.164 c 0.4922,0 1.5508,-0.226 4.2773,-0.207 6.8942,0.113 13.8792,-8.488 18.1522,-14.32 -2.273,0.336 -2.23,0.515 -3.758,0.515 -4.843,0 -10.136,-1.632 -11.781,-8.683 -0.215,-0.211 -0.383,-0.235 -0.855,-0.235 -4.5277,0 -16.43,5.586 -16.43,10.563 v 2.566 c 0,4.821 5.4648,9.801 10.3945,9.801 v 0"
         style="fill:#f9e11a;fill-opacity:1;fill-rule:nonzero;stroke:none"
         id="path104" />
      <path
         d="m 94.6875,202.164 c 0.4922,0 1.5508,-0.226 4.2773,-0.207 6.8942,0.113 13.8792,-8.488 18.1522,-14.32 -2.273,0.336 -2.23,0.515 -3.758,0.515 -4.843,0 -10.136,-1.632 -11.781,-8.683 -0.215,-0.211 -0.383,-0.235 -0.855,-0.235 -4.5277,0 -16.43,5.586 -16.43,10.563 v 2.566 c 0,4.821 5.4648,9.801 10.3945,9.801 z"
         style="fill:none;stroke:#3871c1;stroke-width:0.67424;stroke-linecap:butt;stroke-linejoin:miter;stroke-miterlimit:3.86371;stroke-dasharray:none;stroke-opacity:1"
         id="path106" />
      <path
         d="m 62.8594,198.457 c 2.7969,-7.965 13.0195,-11.973 19.6211,-11.523 4.414,-6.25 12.6328,-8.758 18.6245,-10.856 0.946,-2.75 0.844,-5.25 2.274,-8.172 1.914,-3.922 6.086,-6.386 6.086,-6.457 0,-0.48 -1.199,-2.937 -1.266,-4.293 -0.09,-2.136 -0.203,-2.414 -0.203,-2.902 0,-7.77 8.563,-15.203 8.563,-25.856 0,-10.871 -8.75,-9.777 -8.75,-15.949 0,-3.445 2.621,-5.359 5.742,-5.359 0.48,0 1.742,0.406 2.238,0.406 2.906,-1.926 6.305,-9.6132 6.219,-13.5116 -0.078,-3.1563 -3.176,-7.8438 -6.028,-10.3164 2.614,-2.2071 3.485,-4.2149 3.485,-7.1836 0,-4.7578 -4,-8.9336 -8.551,-11.0586 0,2.5195 -1.363,5.5508 -2.062,6.1211 h -0.672 v -4.5586 c 0.019,-6.8125 -7.313,-11.207 -13.0862,-11.207 -2.129,0 -6.043,1.4648 -7.2227,3.8945 -1.1016,-1.6289 -5.8633,-2.9141 -7.9609,-2.9141 -2.793,0 -8.5664,1.2266 -10.2032,5.3946 4.5938,1.5546 9.5274,5.8789 9.5274,5.8789 0.4726,0 3.0078,-0.586 3.5039,-0.586 0.4844,0 1.082,0 3.0039,0.2031 4.5312,0.4532 9.9141,2.9297 13.5391,7.8711 0.5703,0.8008 2.1957,0.8789 3.3317,1.3164 7.032,2.7735 9.473,9.1211 9.473,12.2774 0,2.8594 -1.555,7.1094 -6.613,7.3008 -0.473,0.0156 -0.879,-0.6797 -0.879,-1.0196 0.75,-0.5351 4.664,-2.7578 4.484,-6.3711 -0.199,-3.7656 -3.426,-8.8437 -8.156,-10.2812 h -0.672 c -0.09,2.0156 0.449,3.8867 -1.6992,5.8203 -0.8906,-0.3555 -0.8438,-0.7891 -0.8438,-0.9766 0,-0.4843 0.3789,-1.1718 0.3789,-1.6562 0,-6.7578 -5.75,-11.3789 -12.6367,-11.3789 -0.4844,0 -3.7812,0.4062 -4.6406,0.4219 -0.0195,0.664 0.1719,1.5273 0.1719,2.0117 0,0.7812 -0.0313,2.8164 -0.9688,2.8164 -0.4844,0 -3.1836,-10.4922 -14.1914,-10.4922 -5.3242,0 -10.6836,4.707 -10.6836,9.5273 0,7.2579 6.8008,9.8868 6.8008,13.5079 0,3.0429 -7.3867,6.1054 -8.7148,6.3984 -0.2032,0.3594 -0.4297,0.6992 -0.4297,1.1719 0,5.453 5.8984,5.746 9.1445,5.746 0.4844,0 2.7148,-0.574 3.2109,-0.574 0.5235,0 1.0664,-0.149 1.0664,0.574 0,0.34 -1.371,6.191 -1.371,8.457 -1.5547,-0.574 -2.8165,0.305 -2.8165,0.305 -0.8789,-2.727 -4.8632,-2.625 -5.789,-1.555 -0.2891,-0.473 -2.8047,-1.187 -3.3438,-1.187 -1.5312,0 -4.3789,1.449 -4.3789,2.921 0,0 2.5274,0.993 3.4063,3.016 0.5781,1.375 -0.7735,3.899 -1.4492,5.156 0,1.692 7.8632,1.75 8.3476,1.75 7.7813,0 15.3711,-7.871 17.9805,-16.039 0.6797,-2.105 3.7851,-5.8317 6.8008,-6.3122 7.3906,-1.1719 8.8554,3.6012 9.6289,4.4802 4.664,0.469 9.7225,1.293 9.7225,8.434 0,0.172 -0.566,2.566 -0.89,3.015 -1.59,-1.222 -0.426,-4.515 -2.5239,-6.316 -2.0157,-1.734 -3.1602,-2.812 -5.2578,-2.812 h -0.6524 c -0.1914,0.648 0,1.449 0,1.933 0,0.61 -0.4726,1.43 -0.9219,2.153 h -0.5 c -0.0547,-0.157 -0.1484,-1.102 -0.1484,-1.18 0,-5.363 -3.4883,-6.793 -6.2148,-6.793 -5.1446,0 -5.7305,5.344 -9.0743,10.031 -3.3007,4.621 -8.2343,8.899 -8.2343,9.598 0,0.543 0.9804,3.402 0.9804,4.086 0,4.043 -1.5664,7.785 -7.9726,8.371 0,0 -1.3633,-0.207 -1.3633,-0.692 5.4492,-1.156 6.6133,-2.929 6.6133,-6.035 0,-0.574 -1.3086,-4.179 -2.6289,-4.179 -0.4844,0 -4.0078,1.171 -4.4922,1.171 h -5.3946 c -1.3359,0 -9.9492,-2.722 -10.0195,-2.722 -0.9219,0 -4.293,1.824 -4.293,2.722 0,1.782 7.2188,30.286 8.5938,40.801 3.1562,-0.48 5.7852,-0.863 8.4922,-1.387 0.0195,-0.433 -0.1797,-9.175 0.6055,-13.441 0.7929,-4.351 3.0156,-2.906 6.7578,-5.117 0.6562,-0.379 1.7812,-0.356 2.6367,-0.695 2.8359,-1.196 7.8125,-4.61 8.3008,-4.61 1.5429,0 10.5703,5.442 11.1211,5.692 4.9257,2.488 10.1484,4.402 14.7423,6.687 -0.02,0.363 -0.313,0.723 -0.719,0.785 -9.5741,1.739 -20.3827,7.078 -30.5976,11.231 0.6524,0.285 1.793,0.683 2.2657,0.683 h 2.8711 c 0.4843,0 1.5664,0.602 2.5351,0.657 2.5313,0.113 5.0586,0.515 7.586,0.902 0.2031,0 0.3867,-0.203 2.1445,0 1.7773,-0.395 3.6015,-0.516 5.2148,-1.035 2.6641,-0.844 7.7114,-3.832 8.2074,-3.832 0.472,0 0.879,0.293 0.871,0.765 -0.106,3.629 -14.5549,7.786 -17.2229,8.36 l -10.0898,0.496 -15.8594,-0.879 c -4.2305,0 -8.6367,-0.09 -9.6016,1.273 l 0.1016,19.067 c 0,1.527 1.0351,6.148 1.5976,7.398 4.1446,-0.531 8.1953,0.707 12.3399,1.215 v 0"
         style="fill:#f9e11a;fill-opacity:1;fill-rule:nonzero;stroke:none"
         id="path108" />
      <path
         d="m 62.8594,198.457 c 2.7969,-7.965 13.0195,-11.973 19.6211,-11.523 4.414,-6.25 12.6328,-8.758 18.6245,-10.856 0.946,-2.75 0.844,-5.25 2.274,-8.172 1.914,-3.922 6.086,-6.386 6.086,-6.457 0,-0.48 -1.199,-2.937 -1.266,-4.293 -0.09,-2.136 -0.203,-2.414 -0.203,-2.902 0,-7.77 8.563,-15.203 8.563,-25.856 0,-10.871 -8.75,-9.777 -8.75,-15.949 0,-3.445 2.621,-5.359 5.742,-5.359 0.48,0 1.742,0.406 2.238,0.406 2.906,-1.926 6.305,-9.6132 6.219,-13.5116 -0.078,-3.1563 -3.176,-7.8438 -6.028,-10.3164 2.614,-2.2071 3.485,-4.2149 3.485,-7.1836 0,-4.7578 -4,-8.9336 -8.551,-11.0586 0,2.5195 -1.363,5.5508 -2.062,6.1211 h -0.672 v -4.5586 c 0.019,-6.8125 -7.313,-11.207 -13.0862,-11.207 -2.129,0 -6.043,1.4648 -7.2227,3.8945 -1.1016,-1.6289 -5.8633,-2.9141 -7.9609,-2.9141 -2.793,0 -8.5664,1.2266 -10.2032,5.3946 4.5938,1.5546 9.5274,5.8789 9.5274,5.8789 0.4726,0 3.0078,-0.586 3.5039,-0.586 0.4844,0 1.082,0 3.0039,0.2031 4.5312,0.4532 9.9141,2.9297 13.5391,7.8711 0.5703,0.8008 2.1957,0.8789 3.3317,1.3164 7.032,2.7735 9.473,9.1211 9.473,12.2774 0,2.8594 -1.555,7.1094 -6.613,7.3008 -0.473,0.0156 -0.879,-0.6797 -0.879,-1.0196 0.75,-0.5351 4.664,-2.7578 4.484,-6.3711 -0.199,-3.7656 -3.426,-8.8437 -8.156,-10.2812 h -0.672 c -0.09,2.0156 0.449,3.8867 -1.6992,5.8203 -0.8906,-0.3555 -0.8438,-0.7891 -0.8438,-0.9766 0,-0.4843 0.3789,-1.1718 0.3789,-1.6562 0,-6.7578 -5.75,-11.3789 -12.6367,-11.3789 -0.4844,0 -3.7812,0.4062 -4.6406,0.4219 -0.0195,0.664 0.1719,1.5273 0.1719,2.0117 0,0.7812 -0.0313,2.8164 -0.9688,2.8164 -0.4844,0 -3.1836,-10.4922 -14.1914,-10.4922 -5.3242,0 -10.6836,4.707 -10.6836,9.5273 0,7.2579 6.8008,9.8868 6.8008,13.5079 0,3.0429 -7.3867,6.1054 -8.7148,6.3984 -0.2032,0.3594 -0.4297,0.6992 -0.4297,1.1719 0,5.453 5.8984,5.746 9.1445,5.746 0.4844,0 2.7148,-0.574 3.2109,-0.574 0.5235,0 1.0664,-0.149 1.0664,0.574 0,0.34 -1.371,6.191 -1.371,8.457 -1.5547,-0.574 -2.8165,0.305 -2.8165,0.305 -0.8789,-2.727 -4.8632,-2.625 -5.789,-1.555 -0.2891,-0.473 -2.8047,-1.187 -3.3438,-1.187 -1.5312,0 -4.3789,1.449 -4.3789,2.921 0,0 2.5274,0.993 3.4063,3.016 0.5781,1.375 -0.7735,3.899 -1.4492,5.156 0,1.692 7.8632,1.75 8.3476,1.75 7.7813,0 15.3711,-7.871 17.9805,-16.039 0.6797,-2.105 3.7851,-5.8317 6.8008,-6.3122 7.3906,-1.1719 8.8554,3.6012 9.6289,4.4802 4.664,0.469 9.7225,1.293 9.7225,8.434 0,0.172 -0.566,2.566 -0.89,3.015 -1.59,-1.222 -0.426,-4.515 -2.5239,-6.316 -2.0157,-1.734 -3.1602,-2.812 -5.2578,-2.812 h -0.6524 c -0.1914,0.648 0,1.449 0,1.933 0,0.61 -0.4726,1.43 -0.9219,2.153 h -0.5 c -0.0547,-0.157 -0.1484,-1.102 -0.1484,-1.18 0,-5.363 -3.4883,-6.793 -6.2148,-6.793 -5.1446,0 -5.7305,5.344 -9.0743,10.031 -3.3007,4.621 -8.2343,8.899 -8.2343,9.598 0,0.543 0.9804,3.402 0.9804,4.086 0,4.043 -1.5664,7.785 -7.9726,8.371 0,0 -1.3633,-0.207 -1.3633,-0.692 5.4492,-1.156 6.6133,-2.929 6.6133,-6.035 0,-0.574 -1.3086,-4.179 -2.6289,-4.179 -0.4844,0 -4.0078,1.171 -4.4922,1.171 h -5.3946 c -1.3359,0 -9.9492,-2.722 -10.0195,-2.722 -0.9219,0 -4.293,1.824 -4.293,2.722 0,1.782 7.2188,30.286 8.5938,40.801 3.1562,-0.48 5.7852,-0.863 8.4922,-1.387 0.0195,-0.433 -0.1797,-9.175 0.6055,-13.441 0.7929,-4.351 3.0156,-2.906 6.7578,-5.117 0.6562,-0.379 1.7812,-0.356 2.6367,-0.695 2.8359,-1.196 7.8125,-4.61 8.3008,-4.61 1.5429,0 10.5703,5.442 11.1211,5.692 4.9257,2.488 10.1484,4.402 14.7423,6.687 -0.02,0.363 -0.313,0.723 -0.719,0.785 -9.5741,1.739 -20.3827,7.078 -30.5976,11.231 0.6524,0.285 1.793,0.683 2.2657,0.683 h 2.8711 c 0.4843,0 1.5664,0.602 2.5351,0.657 2.5313,0.113 5.0586,0.515 7.586,0.902 0.2031,0 0.3867,-0.203 2.1445,0 1.7773,-0.395 3.6015,-0.516 5.2148,-1.035 2.6641,-0.844 7.7114,-3.832 8.2074,-3.832 0.472,0 0.879,0.293 0.871,0.765 -0.106,3.629 -14.5549,7.786 -17.2229,8.36 l -10.0898,0.496 -15.8594,-0.879 c -4.2305,0 -8.6367,-0.09 -9.6016,1.273 l 0.1016,19.067 c 0,1.527 1.0351,6.148 1.5976,7.398 4.1446,-0.531 8.1953,0.707 12.3399,1.215 z"
         style="fill:none;stroke:#3871c1;stroke-width:0.67424;stroke-linecap:butt;stroke-linejoin:miter;stroke-miterlimit:3.86371;stroke-dasharray:none;stroke-opacity:1"
         id="path110" />
      <path
         d="m 114.414,186.227 c 6.758,0 9.731,-9.301 9.731,-13.028 0,-5.586 -0.422,-10.488 -8.059,-10.488 -6.441,0 -12.551,5.781 -12.551,12.523 0,0.485 0.195,0.594 0.195,2.918 1.215,6.125 6.442,8.075 10.684,8.075 v 0"
         style="fill:#f9e11a;fill-opacity:1;fill-rule:nonzero;stroke:none"
         id="path112" />
      <path
         d="m 114.414,186.227 c 6.758,0 9.731,-9.301 9.731,-13.028 0,-5.586 -0.422,-10.488 -8.059,-10.488 -6.441,0 -12.551,5.781 -12.551,12.523 0,0.485 0.195,0.594 0.195,2.918 1.215,6.125 6.442,8.075 10.684,8.075 z"
         style="fill:none;stroke:#3871c1;stroke-width:0.67424;stroke-linecap:butt;stroke-linejoin:miter;stroke-miterlimit:3.86371;stroke-dasharray:none;stroke-opacity:1"
         id="path114" />
      <path
         d="m 137.75,185.641 c 5.711,0 10.109,-4.743 10.109,-9.528 0,-5.82 -7.07,-14.187 -13.32,-14.187 -2.851,0 -8.453,1.402 -8.453,5.539 0,0.484 0.199,3.691 0.199,4.176 0,5.566 5.246,14 11.465,14 v 0"
         style="fill:#f9e11a;fill-opacity:1;fill-rule:nonzero;stroke:none"
         id="path116" />
      <path
         d="m 137.75,185.641 c 5.711,0 10.109,-4.743 10.109,-9.528 0,-5.82 -7.07,-14.187 -13.32,-14.187 -2.851,0 -8.453,1.402 -8.453,5.539 0,0.484 0.199,3.691 0.199,4.176 0,5.566 5.246,14 11.465,14 z"
         style="fill:none;stroke:#3871c1;stroke-width:0.67424;stroke-linecap:butt;stroke-linejoin:miter;stroke-miterlimit:3.86371;stroke-dasharray:none;stroke-opacity:1"
         id="path118" />
      <path
         d="m 124.238,162.52 c 0.485,0 2.141,-1.286 3.328,-1.692 3.27,-1.172 6.512,-1.551 9.938,-1.687 0.492,-0.813 1.805,-5.09 1.805,-5.571 0,-7.922 -7.731,-12.636 -13.52,-12.636 -9.066,0 -14.281,4.007 -14.281,13.222 0,2.059 -0.121,3.25 0.816,5.821 1.621,-0.18 3.356,-0.383 3.848,-0.383 2.566,0 7.117,2.926 8.066,2.926 v 0"
         style="fill:#f9e11a;fill-opacity:1;fill-rule:nonzero;stroke:none"
         id="path120" />
      <path
         d="m 124.238,162.52 c 0.485,0 2.141,-1.286 3.328,-1.692 3.27,-1.172 6.512,-1.551 9.938,-1.687 0.492,-0.813 1.805,-5.09 1.805,-5.571 0,-7.922 -7.731,-12.636 -13.52,-12.636 -9.066,0 -14.281,4.007 -14.281,13.222 0,2.059 -0.121,3.25 0.816,5.821 1.621,-0.18 3.356,-0.383 3.848,-0.383 2.566,0 7.117,2.926 8.066,2.926 z"
         style="fill:none;stroke:#3871c1;stroke-width:0.67424;stroke-linecap:butt;stroke-linejoin:miter;stroke-miterlimit:3.86371;stroke-dasharray:none;stroke-opacity:1"
         id="path122" />
      <path
         d="M 71.6914,156.461 H 72.5 c 1.3203,0.023 14.2344,-5.281 18.7969,-6.484 -7.3985,-3.313 -13.0313,-5.243 -17.7031,-5.926 -4.0782,1.465 -10.3047,3.019 -12.4141,3.941 l -0.4141,3.742 c 1.8555,-0.566 5.6328,-2.433 6.1289,-2.433 2.7227,0 4.2071,1.09 4.5703,5.156 l 0.2266,2.004 v 0"
         style="fill:#f9e11a;fill-opacity:1;fill-rule:nonzero;stroke:none"
         id="path124" />
      <path
         d="M 71.6914,156.461 H 72.5 c 1.3203,0.023 14.2344,-5.281 18.7969,-6.484 -7.3985,-3.313 -13.0313,-5.243 -17.7031,-5.926 -4.0782,1.465 -10.3047,3.019 -12.4141,3.941 l -0.4141,3.742 c 1.8555,-0.566 5.6328,-2.433 6.1289,-2.433 2.7227,0 4.2071,1.09 4.5703,5.156 l 0.2266,2.004 z"
         style="fill:none;stroke:#3871c1;stroke-width:0.67424;stroke-linecap:butt;stroke-linejoin:miter;stroke-miterlimit:3.86371;stroke-dasharray:none;stroke-opacity:1"
         id="path126" />
      <path
         d="m 131.852,133.941 c 0.066,-1.464 -0.52,-3.699 -0.52,-4.191 0,-9.66 8.941,-14.645 8.941,-16.715 0,-2.41 -2.57,-2.43 -3.492,-2.43 -4.136,0 -8.015,5.606 -8.367,8.95 -0.484,4.586 0,11.566 3.438,14.386 v 0"
         style="fill:#f9e11a;fill-opacity:1;fill-rule:nonzero;stroke:none"
         id="path128" />
      <path
         d="m 131.852,133.941 c 0.066,-1.464 -0.52,-3.699 -0.52,-4.191 0,-9.66 8.941,-14.645 8.941,-16.715 0,-2.41 -2.57,-2.43 -3.492,-2.43 -4.136,0 -8.015,5.606 -8.367,8.95 -0.484,4.586 0,11.566 3.438,14.386 z"
         style="fill:none;stroke:#3871c1;stroke-width:0.67424;stroke-linecap:butt;stroke-linejoin:miter;stroke-miterlimit:3.86371;stroke-dasharray:none;stroke-opacity:1"
         id="path130" />
      <path
         d="m 118.738,132.949 c 2.235,-1.215 4.235,-5.972 4.235,-8.051 0,-0.488 -0.2,-3.214 -0.2,-3.699 0,-2.328 -2.886,-10.078 -7.308,-11.179 -3.863,-0.957 -6.488,2.929 -3.664,4.976 4.715,3.402 7.48,7.703 7.48,12.902 0,0.5 -0.394,3.965 -0.543,5.051 v 0"
         style="fill:#f9e11a;fill-opacity:1;fill-rule:nonzero;stroke:none"
         id="path132" />
      <path
         d="m 118.738,132.949 c 2.235,-1.215 4.235,-5.972 4.235,-8.051 0,-0.488 -0.2,-3.214 -0.2,-3.699 0,-2.328 -2.886,-10.078 -7.308,-11.179 -3.863,-0.957 -6.488,2.929 -3.664,4.976 4.715,3.402 7.48,7.703 7.48,12.902 0,0.5 -0.394,3.965 -0.543,5.051 z"
         style="fill:none;stroke:#3871c1;stroke-width:0.67424;stroke-linecap:butt;stroke-linejoin:miter;stroke-miterlimit:3.86371;stroke-dasharray:none;stroke-opacity:1"
         id="path134" />
      <path
         d="m 125.586,90.4922 c 0.699,-2.9024 2.73,-5.9258 3.414,-6.8008 -4.676,-13.3164 3.566,-19.3281 11.652,-22.5391 1.364,-6.2265 15.364,-12.0585 22.942,-5.8437 0.488,0 3.695,-2.1172 7.582,-2.3203 0.191,-0.7852 2.949,-30.2695 2.918,-30.7188 -3.371,0.1563 -5.758,0.4688 -7.672,0.6758 l -25.484,0.9649 c -0.594,0.207 -1.364,0.207 -2.129,0.4062 L 97.5,24.2031 82.0586,23.3242 c -0.957,-0.1797 -2.5313,-0.3789 -3.0273,-0.3789 -0.4727,0 -1.0586,0.1914 -1.711,0.2227 0.5391,4.2148 0.8086,8.8984 1.5313,13.2929 l 0.7656,11.8438 c -0.1797,4.0781 0,4.0859 0.0234,4.9336 3.0977,-0.25 5.0313,0.5156 7.4688,1.3867 9.4258,-5.1484 20.6996,0.6953 24.1996,6.9219 6.421,1.9375 15.562,9.8008 9.914,21.8515 2.429,1.8438 3.828,5.9414 4.363,7.0938 v 0"
         style="fill:#f9e11a;fill-opacity:1;fill-rule:nonzero;stroke:none"
         id="path136" />
      <path
         d="m 125.586,90.4922 c 0.699,-2.9024 2.73,-5.9258 3.414,-6.8008 -4.676,-13.3164 3.566,-19.3281 11.652,-22.5391 1.364,-6.2265 15.364,-12.0585 22.942,-5.8437 0.488,0 3.695,-2.1172 7.582,-2.3203 0.191,-0.7852 2.949,-30.2695 2.918,-30.7188 -3.371,0.1563 -5.758,0.4688 -7.672,0.6758 l -25.484,0.9649 c -0.594,0.207 -1.364,0.207 -2.129,0.4062 L 97.5,24.2031 82.0586,23.3242 c -0.957,-0.1797 -2.5313,-0.3789 -3.0273,-0.3789 -0.4727,0 -1.0586,0.1914 -1.711,0.2227 0.5391,4.2148 0.8086,8.8984 1.5313,13.2929 l 0.7656,11.8438 c -0.1797,4.0781 0,4.0859 0.0234,4.9336 3.0977,-0.25 5.0313,0.5156 7.4688,1.3867 9.4258,-5.1484 20.6996,0.6953 24.1996,6.9219 6.421,1.9375 15.562,9.8008 9.914,21.8515 2.429,1.8438 3.828,5.9414 4.363,7.0938 z"
         style="fill:none;stroke:#3871c1;stroke-width:0.67424;stroke-linecap:butt;stroke-linejoin:miter;stroke-miterlimit:3.86371;stroke-dasharray:none;stroke-opacity:1"
         id="path138" />
      <path
         d="m 187.754,198.457 c -2.793,-7.965 -13.02,-11.973 -19.645,-11.523 -4.386,-6.25 -12.613,-8.758 -18.601,-10.856 -0.949,-2.75 -0.856,-5.25 -2.278,-8.172 -1.886,-3.922 -6.078,-6.386 -6.078,-6.457 0,-0.48 1.184,-2.937 1.258,-4.293 0.094,-2.136 0.207,-2.414 0.207,-2.902 0,-7.77 -8.558,-15.203 -8.558,-25.856 0,-10.871 8.75,-9.777 8.75,-15.949 0,-3.445 -2.621,-5.359 -5.735,-5.359 -0.496,0 -1.758,0.406 -2.238,0.406 -2.918,-1.926 -6.32,-9.6132 -6.227,-13.5116 0.086,-3.1563 3.172,-7.8438 6.036,-10.3164 -2.141,-1.7149 -3.5,-4.2149 -3.5,-7.1836 0,-4.7578 4.015,-8.9336 8.543,-11.0586 0,2.5195 1.371,5.5508 2.07,6.1211 h 0.68 v -4.5586 c -0.028,-6.8125 7.32,-11.207 13.085,-11.207 2.114,0 6.008,1.4648 7.207,3.8945 1.102,-1.6289 5.864,-2.9141 7.973,-2.9141 2.793,0 8.559,1.2266 10.18,5.3946 -4.574,1.5546 -9.516,5.8789 -9.516,5.8789 -0.484,0 -3.008,-0.586 -3.492,-0.586 -0.48,0 -1.094,0 -3.008,0.2031 -4.551,0.4532 -9.906,2.9297 -13.535,7.8711 -0.586,0.8008 -2.273,0.7305 -3.336,1.3164 -1.43,0.7579 -2.801,1.7344 -4.258,2.9063 -2.922,2.3437 -5.222,6.2148 -5.222,9.3711 0,2.8594 1.578,7.1094 6.621,7.3008 0.488,0.0156 0.871,-0.6797 0.879,-1.0196 -0.743,-0.5351 -4.664,-2.7578 -4.485,-6.3711 0.207,-3.7656 3.426,-8.8437 8.157,-10.2812 h 0.656 c 0.109,2.0156 -0.442,3.8867 1.707,5.8203 0.894,-0.3555 0.859,-0.7891 0.859,-0.9766 0,-0.4843 -0.387,-1.1718 -0.387,-1.6562 0,-6.7578 5.747,-11.3789 12.629,-11.3789 0.485,0 3.793,0.4062 4.629,0.4219 0.032,0.664 -0.164,1.5273 -0.164,2.0117 0,0.7812 0.051,2.8164 0.973,2.8164 0.484,0 3.183,-10.4922 14.191,-10.4922 5.336,0 10.699,4.707 10.699,9.5273 0,7.2579 -6.804,9.8868 -6.804,13.5079 0,3.0429 7.387,6.1054 8.707,6.3984 0.222,0.3594 0.426,0.6992 0.426,1.1719 0,5.453 -5.914,5.746 -9.133,5.746 -0.485,0 -2.723,-0.574 -3.207,-0.574 -0.531,0 -1.074,-0.149 -1.074,0.574 0,0.34 1.375,6.191 1.375,8.457 1.543,-0.574 2.906,0.305 2.793,0.305 0.406,-0.879 2.839,-3.121 5.812,-1.555 0.293,-0.473 2.813,-1.187 3.328,-1.187 1.535,0 4.371,1.449 4.371,2.921 0,0 -2.519,0.993 -3.386,3.016 -0.586,1.375 0.777,3.899 1.453,5.156 0,1.692 -7.875,1.75 -8.36,1.75 -7.765,0 -15.359,-7.871 -17.98,-16.039 -0.664,-2.105 -3.785,-5.8317 -6.813,-6.3122 -7.379,-1.1719 -8.836,3.6012 -9.621,4.4802 -4.664,0.469 -9.707,1.293 -9.707,8.434 0,0.172 0.563,2.566 0.879,3.015 1.578,-1.222 0.449,-4.515 2.535,-6.316 2.016,-1.734 3.164,-2.812 5.258,-2.812 h 0.656 c 0.192,0.648 0,1.449 0,1.933 0,0.61 0.473,1.43 0.922,2.153 h 0.485 c 0.05,-0.157 0.144,-1.102 0.144,-1.18 0,-5.363 3.5,-6.793 6.227,-6.793 5.144,0 5.73,5.344 9.066,10.031 3.313,4.621 8.223,8.899 8.223,9.598 0,0.543 -0.969,3.402 -0.969,4.086 0,4.043 1.555,7.785 7.973,8.371 0,0 1.351,-0.207 1.351,-0.692 -5.43,-1.156 -6.601,-2.929 -6.601,-6.035 0,-0.574 1.308,-4.179 2.629,-4.179 0.492,0 4.007,1.171 4.492,1.171 h 5.402 c 1.328,0 9.957,-2.722 10.023,-2.722 0.926,0 4.282,1.824 4.282,2.722 0,1.782 -7.207,30.286 -8.598,40.801 -3.16,-0.48 -5.773,-0.863 -8.488,-1.387 -0.02,-0.433 0.172,-9.175 -0.598,-13.441 -0.801,-4.351 -3.015,-2.906 -6.758,-5.117 -0.664,-0.379 -1.785,-0.356 -2.644,-0.695 -2.836,-1.196 -7.805,-4.61 -8.297,-4.61 -1.559,0 -10.566,5.442 -11.129,5.692 -4.91,2.488 -10.137,4.402 -14.73,6.687 0.023,0.363 0.316,0.723 0.699,0.785 9.586,1.739 20.386,7.078 30.609,11.231 -0.652,0.285 -1.781,0.683 -2.265,0.683 h -2.864 c -0.48,0 -1.57,0.602 -2.551,0.657 -2.527,0.113 -5.043,0.515 -7.57,0.902 -0.199,0 -0.379,-0.203 -2.152,0 -1.77,-0.395 -3.59,-0.516 -5.211,-1.035 -2.66,-0.844 -7.703,-3.832 -8.188,-3.832 -0.484,0 -0.886,0.293 -0.886,0.765 0.109,3.629 14.547,7.786 17.222,8.36 l 10.094,0.496 15.836,-0.879 c 4.258,0 8.648,-0.09 9.629,1.273 l -0.102,19.067 c 0,1.527 -1.058,6.148 -1.601,7.398 -4.141,-0.531 -8.199,0.707 -12.34,1.215 v 0"
         style="fill:#f9e11a;fill-opacity:1;fill-rule:nonzero;stroke:none"
         id="path140" />
      <path
         d="m 187.754,198.457 c -2.793,-7.965 -13.02,-11.973 -19.645,-11.523 -4.386,-6.25 -12.613,-8.758 -18.601,-10.856 -0.949,-2.75 -0.856,-5.25 -2.278,-8.172 -1.886,-3.922 -6.078,-6.386 -6.078,-6.457 0,-0.48 1.184,-2.937 1.258,-4.293 0.094,-2.136 0.207,-2.414 0.207,-2.902 0,-7.77 -8.558,-15.203 -8.558,-25.856 0,-10.871 8.75,-9.777 8.75,-15.949 0,-3.445 -2.621,-5.359 -5.735,-5.359 -0.496,0 -1.758,0.406 -2.238,0.406 -2.918,-1.926 -6.32,-9.6132 -6.227,-13.5116 0.086,-3.1563 3.172,-7.8438 6.036,-10.3164 -2.141,-1.7149 -3.5,-4.2149 -3.5,-7.1836 0,-4.7578 4.015,-8.9336 8.543,-11.0586 0,2.5195 1.371,5.5508 2.07,6.1211 h 0.68 v -4.5586 c -0.028,-6.8125 7.32,-11.207 13.085,-11.207 2.114,0 6.008,1.4648 7.207,3.8945 1.102,-1.6289 5.864,-2.9141 7.973,-2.9141 2.793,0 8.559,1.2266 10.18,5.3946 -4.574,1.5546 -9.516,5.8789 -9.516,5.8789 -0.484,0 -3.008,-0.586 -3.492,-0.586 -0.48,0 -1.094,0 -3.008,0.2031 -4.551,0.4532 -9.906,2.9297 -13.535,7.8711 -0.586,0.8008 -2.273,0.7305 -3.336,1.3164 -1.43,0.7579 -2.801,1.7344 -4.258,2.9063 -2.922,2.3437 -5.222,6.2148 -5.222,9.3711 0,2.8594 1.578,7.1094 6.621,7.3008 0.488,0.0156 0.871,-0.6797 0.879,-1.0196 -0.743,-0.5351 -4.664,-2.7578 -4.485,-6.3711 0.207,-3.7656 3.426,-8.8437 8.157,-10.2812 h 0.656 c 0.109,2.0156 -0.442,3.8867 1.707,5.8203 0.894,-0.3555 0.859,-0.7891 0.859,-0.9766 0,-0.4843 -0.387,-1.1718 -0.387,-1.6562 0,-6.7578 5.747,-11.3789 12.629,-11.3789 0.485,0 3.793,0.4062 4.629,0.4219 0.032,0.664 -0.164,1.5273 -0.164,2.0117 0,0.7812 0.051,2.8164 0.973,2.8164 0.484,0 3.183,-10.4922 14.191,-10.4922 5.336,0 10.699,4.707 10.699,9.5273 0,7.2579 -6.804,9.8868 -6.804,13.5079 0,3.0429 7.387,6.1054 8.707,6.3984 0.222,0.3594 0.426,0.6992 0.426,1.1719 0,5.453 -5.914,5.746 -9.133,5.746 -0.485,0 -2.723,-0.574 -3.207,-0.574 -0.531,0 -1.074,-0.149 -1.074,0.574 0,0.34 1.375,6.191 1.375,8.457 1.543,-0.574 2.906,0.305 2.793,0.305 0.406,-0.879 2.839,-3.121 5.812,-1.555 0.293,-0.473 2.813,-1.187 3.328,-1.187 1.535,0 4.371,1.449 4.371,2.921 0,0 -2.519,0.993 -3.386,3.016 -0.586,1.375 0.777,3.899 1.453,5.156 0,1.692 -7.875,1.75 -8.36,1.75 -7.765,0 -15.359,-7.871 -17.98,-16.039 -0.664,-2.105 -3.785,-5.8317 -6.813,-6.3122 -7.379,-1.1719 -8.836,3.6012 -9.621,4.4802 -4.664,0.469 -9.707,1.293 -9.707,8.434 0,0.172 0.563,2.566 0.879,3.015 1.578,-1.222 0.449,-4.515 2.535,-6.316 2.016,-1.734 3.164,-2.812 5.258,-2.812 h 0.656 c 0.192,0.648 0,1.449 0,1.933 0,0.61 0.473,1.43 0.922,2.153 h 0.485 c 0.05,-0.157 0.144,-1.102 0.144,-1.18 0,-5.363 3.5,-6.793 6.227,-6.793 5.144,0 5.73,5.344 9.066,10.031 3.313,4.621 8.223,8.899 8.223,9.598 0,0.543 -0.969,3.402 -0.969,4.086 0,4.043 1.555,7.785 7.973,8.371 0,0 1.351,-0.207 1.351,-0.692 -5.43,-1.156 -6.601,-2.929 -6.601,-6.035 0,-0.574 1.308,-4.179 2.629,-4.179 0.492,0 4.007,1.171 4.492,1.171 h 5.402 c 1.328,0 9.957,-2.722 10.023,-2.722 0.926,0 4.282,1.824 4.282,2.722 0,1.782 -7.207,30.286 -8.598,40.801 -3.16,-0.48 -5.773,-0.863 -8.488,-1.387 -0.02,-0.433 0.172,-9.175 -0.598,-13.441 -0.801,-4.351 -3.015,-2.906 -6.758,-5.117 -0.664,-0.379 -1.785,-0.356 -2.644,-0.695 -2.836,-1.196 -7.805,-4.61 -8.297,-4.61 -1.559,0 -10.566,5.442 -11.129,5.692 -4.91,2.488 -10.137,4.402 -14.73,6.687 0.023,0.363 0.316,0.723 0.699,0.785 9.586,1.739 20.386,7.078 30.609,11.231 -0.652,0.285 -1.781,0.683 -2.265,0.683 h -2.864 c -0.48,0 -1.57,0.602 -2.551,0.657 -2.527,0.113 -5.043,0.515 -7.57,0.902 -0.199,0 -0.379,-0.203 -2.152,0 -1.77,-0.395 -3.59,-0.516 -5.211,-1.035 -2.66,-0.844 -7.703,-3.832 -8.188,-3.832 -0.484,0 -0.886,0.293 -0.886,0.765 0.109,3.629 14.547,7.786 17.222,8.36 l 10.094,0.496 15.836,-0.879 c 4.258,0 8.648,-0.09 9.629,1.273 l -0.102,19.067 c 0,1.527 -1.058,6.148 -1.601,7.398 -4.141,-0.531 -8.199,0.707 -12.34,1.215 z"
         style="fill:none;stroke:#3871c1;stroke-width:0.67424;stroke-linecap:butt;stroke-linejoin:miter;stroke-miterlimit:3.86371;stroke-dasharray:none;stroke-opacity:1"
         id="path142" />
      <path
         d="m 179.688,157.25 h -0.809 c -1.305,0.012 -14.234,-5.293 -18.785,-6.508 7.394,-3.293 13.043,-5.226 17.703,-5.922 4.078,1.457 10.293,3.016 12.406,3.957 l 0.41,3.735 c -1.847,-0.578 -5.633,-2.434 -6.117,-2.434 -2.723,0 -4.207,1.09 -4.586,5.156 l -0.222,2.016 v 0"
         style="fill:#f9e11a;fill-opacity:1;fill-rule:nonzero;stroke:none"
         id="path144" />
      <path
         d="m 179.688,157.25 h -0.809 c -1.305,0.012 -14.234,-5.293 -18.785,-6.508 7.394,-3.293 13.043,-5.226 17.703,-5.922 4.078,1.457 10.293,3.016 12.406,3.957 l 0.41,3.735 c -1.847,-0.578 -5.633,-2.434 -6.117,-2.434 -2.723,0 -4.207,1.09 -4.586,5.156 l -0.222,2.016 z"
         style="fill:none;stroke:#3871c1;stroke-width:0.67424;stroke-linecap:butt;stroke-linejoin:miter;stroke-miterlimit:3.86371;stroke-dasharray:none;stroke-opacity:1"
         id="path146" />
      <path
         d="m 155.93,202.164 c -0.5,0 -1.571,-0.226 -4.285,-0.207 -6.899,0.113 -13.895,-8.488 -18.165,-14.32 2.286,0.336 2.25,0.515 3.786,0.515 4.836,0 10.129,-1.632 11.765,-8.683 0.207,-0.211 0.387,-0.235 0.871,-0.235 4.516,0 16.422,5.586 16.422,10.563 v 2.566 c 0,4.821 -5.472,9.801 -10.394,9.801 v 0"
         style="fill:#f9e11a;fill-opacity:1;fill-rule:nonzero;stroke:none"
         id="path148" />
      <path
         d="m 155.93,202.164 c -0.5,0 -1.571,-0.226 -4.285,-0.207 -6.899,0.113 -13.895,-8.488 -18.165,-14.32 2.286,0.336 2.25,0.515 3.786,0.515 4.836,0 10.129,-1.632 11.765,-8.683 0.207,-0.211 0.387,-0.235 0.871,-0.235 4.516,0 16.422,5.586 16.422,10.563 v 2.566 c 0,4.821 -5.472,9.801 -10.394,9.801 z"
         style="fill:none;stroke:#3871c1;stroke-width:0.67424;stroke-linecap:butt;stroke-linejoin:miter;stroke-miterlimit:3.86371;stroke-dasharray:none;stroke-opacity:1"
         id="path150" />
      <path
         d="m 200.434,229.957 c -14.301,-0.43 -31.286,-10.094 -37.805,-14.914 1.023,0.191 8.187,1.703 9.617,1.703 7.242,0 17.016,-5.082 17.016,-13.348 v -2.562 c 5.718,-0.965 4.078,-0.816 8.254,-0.816 5.98,0 14.402,2.097 18.05,8.988 1.172,2.23 2.661,5.371 2.661,7.637 0,7.75 -9.055,12.925 -14.789,12.925 -0.485,0 -2.036,0.203 -3.004,0.387 v 0"
         style="fill:#f9e11a;fill-opacity:1;fill-rule:nonzero;stroke:none"
         id="path152" />
      <path
         d="m 200.434,229.957 c -14.301,-0.43 -31.286,-10.094 -37.805,-14.914 1.023,0.191 8.187,1.703 9.617,1.703 7.242,0 17.016,-5.082 17.016,-13.348 v -2.562 c 5.718,-0.965 4.078,-0.816 8.254,-0.816 5.98,0 14.402,2.097 18.05,8.988 1.172,2.23 2.661,5.371 2.661,7.637 0,7.75 -9.055,12.925 -14.789,12.925 -0.485,0 -2.036,0.203 -3.004,0.387 z"
         style="fill:none;stroke:#3871c1;stroke-width:0.67424;stroke-linecap:butt;stroke-linejoin:miter;stroke-miterlimit:3.86371;stroke-dasharray:none;stroke-opacity:1"
         id="path154" />
      <path
         d="m 174.094,214.402 c -11.399,0 -18.164,-3.23 -25.063,-10.64 2.055,0.336 5.434,0.742 5.914,0.742 5.442,0 14.868,-2.816 15.258,-11.781 0.035,-0.852 -0.098,-1.836 -0.293,-3.578 h 2.5 c 1.063,0 3.551,1.238 3.945,1.304 7.04,1.485 10.383,8.313 10.383,13.762 0,6.219 -8.894,10.191 -12.644,10.191 v 0"
         style="fill:#f9e11a;fill-opacity:1;fill-rule:nonzero;stroke:none"
         id="path156" />
      <path
         d="m 174.094,214.402 c -11.399,0 -18.164,-3.23 -25.063,-10.64 2.055,0.336 5.434,0.742 5.914,0.742 5.442,0 14.868,-2.816 15.258,-11.781 0.035,-0.852 -0.098,-1.836 -0.293,-3.578 h 2.5 c 1.063,0 3.551,1.238 3.945,1.304 7.04,1.485 10.383,8.313 10.383,13.762 0,6.219 -8.894,10.191 -12.644,10.191 z"
         style="fill:none;stroke:#3871c1;stroke-width:0.67424;stroke-linecap:butt;stroke-linejoin:miter;stroke-miterlimit:3.86371;stroke-dasharray:none;stroke-opacity:1"
         id="path158" />
    </g>
  </g>
</svg>
