<?xml version="1.0" encoding="UTF-8" standalone="no"?>
<!-- Created with Inkscape (http://www.inkscape.org/) -->

<svg
   version="1.1"
   id="svg3241"
   width="435.50668"
   height="151.75999"
   viewBox="0 0 435.50668 151.75999"
   sodipodi:docname="logo_liu.svg"
   inkscape:version="1.2.2 (b0a8486541, 2022-12-01)"
   xmlns:inkscape="http://www.inkscape.org/namespaces/inkscape"
   xmlns:sodipodi="http://sodipodi.sourceforge.net/DTD/sodipodi-0.dtd"
   xmlns="http://www.w3.org/2000/svg"
   xmlns:svg="http://www.w3.org/2000/svg">
  <defs
     id="defs3245" />
  <sodipodi:namedview
     id="namedview3243"
     pagecolor="#ffffff"
     bordercolor="#000000"
     borderopacity="0.25"
     inkscape:showpageshadow="2"
     inkscape:pageopacity="0.0"
     inkscape:pagecheckerboard="0"
     inkscape:deskcolor="#d1d1d1"
     showgrid="false"
     inkscape:zoom="4.0642315"
     inkscape:cx="176.17107"
     inkscape:cy="75.783084"
     inkscape:window-width="1920"
     inkscape:window-height="1056"
     inkscape:window-x="1920"
     inkscape:window-y="0"
     inkscape:window-maximized="1"
     inkscape:current-layer="g3249">
    <inkscape:page
       x="0"
       y="0"
       id="page3247"
       width="435.50668"
       height="151.75999" />
  </sodipodi:namedview>
  <g
     id="g3249"
     inkscape:groupmode="layer"
     inkscape:label="Page 1"
     transform="matrix(1.3333333,0,0,-1.3333333,0,151.76)">
    <g
       id="g3251"
       transform="scale(0.1)">
      <path
         d="M 482.484,216.75 H 696.879 V 694.645 H 482.484 V 216.75"
         style="fill:#231f20;fill-opacity:1;fill-rule:nonzero;stroke:none"
         id="path3253" />
      <path
         d="M 216.762,216.75 H 431.16 V 908.914 H 216.762 V 216.75"
         style="fill:#231f20;fill-opacity:1;fill-rule:nonzero;stroke:none"
         id="path3255" />
      <path
         d="m 951.113,312.707 c 0,63.008 -50.957,114.57 -114.328,114.57 -62.269,0 -113.234,-51.562 -113.234,-114.57 0,-63.008 50.965,-113.418 113.234,-113.418 63.371,0 114.328,50.41 114.328,113.418"
         style="fill:#231f20;fill-opacity:1;fill-rule:nonzero;stroke:none"
         id="path3257" />
      <path
         d="M 1226.13,694.645 V 417.297 c 0,-24.582 -10.13,-36.875 -30.38,-36.875 -20.54,0 -30.81,12.293 -30.81,36.875 V 694.645 H 951.148 V 470.676 c 0,-78.887 18.532,-140.539 55.592,-184.922 47.69,-56.887 110.63,-82.695 188.79,-82.695 78.17,0 141.1,25.808 188.8,82.695 37.06,44.383 55.58,106.035 55.58,184.922 v 223.969 h -213.78"
         style="fill:#231f20;fill-opacity:1;fill-rule:nonzero;stroke:none"
         id="path3259" />
      <path
         d="m 1880.57,216.758 h -16.99 l -0.27,0.441 -100.02,168.125 V 216.758 h -18.87 v 205.051 h 16.73 l 0.26,-0.45 100.3,-168.703 v 169.153 h 18.86 V 216.758"
         style="fill:#231f20;fill-opacity:1;fill-rule:nonzero;stroke:none"
         id="path3261" />
      <path
         d="m 2050.47,216.758 h -18.05 l -0.22,0.625 -66.95,204.426 h 19.81 l 0.22,-0.625 56.16,-174.649 56.68,175.274 h 19.81 l -0.41,-1.211 -67.05,-203.84"
         style="fill:#231f20;fill-opacity:1;fill-rule:nonzero;stroke:none"
         id="path3263" />
      <path
         d="m 1630.24,214.465 c -40.58,0 -68.94,29.414 -68.94,71.531 v 135.813 h 18.85 V 285.422 c 0,-31.524 20.13,-52.695 50.09,-52.695 29.98,0 50.11,21.171 50.11,52.695 v 136.387 h 18.83 V 285.996 c 0,-42.117 -28.34,-71.531 -68.94,-71.531"
         style="fill:#231f20;fill-opacity:1;fill-rule:nonzero;stroke:none"
         id="path3265" />
      <path
         d="m 1943.62,216.758 h -18.85 v 205.051 h 18.85 V 216.758"
         style="fill:#231f20;fill-opacity:1;fill-rule:nonzero;stroke:none"
         id="path3267" />
      <path
         d="m 2299.67,299.641 h 39.43 c 32.27,0 51.53,17.636 51.53,47.207 v 8.066 c 0,31.191 -18.3,48.367 -51.53,48.367 h -39.43 z m 110.2,-82.852 h -22.79 l -0.29,0.359 -49.01,64.211 h -38.11 v -64.57 h -18.86 v 205.059 h 59.73 c 42.53,0 68.95,-25.879 68.95,-67.512 v -7.488 c 0,-33.731 -19.5,-56.934 -52.28,-62.344 l 52.66,-67.715"
         style="fill:#231f20;fill-opacity:1;fill-rule:nonzero;stroke:none"
         id="path3269" />
      <path
         d="m 2620.96,216.789 h -18.85 v 205.059 h 18.85 V 216.789"
         style="fill:#231f20;fill-opacity:1;fill-rule:nonzero;stroke:none"
         id="path3271" />
      <path
         d="m 2715.49,216.789 h -18.84 v 186.492 h -56.21 v 18.567 h 130.68 v -18.567 h -55.63 V 216.789"
         style="fill:#231f20;fill-opacity:1;fill-rule:nonzero;stroke:none"
         id="path3273" />
      <path
         d="m 2905.95,216.789 h -114.54 v 205.059 h 110.18 v -18.567 h -91.34 v -74.246 h 68.6 v -17.129 h -68.6 V 235.07 h 95.7 v -18.281"
         style="fill:#231f20;fill-opacity:1;fill-rule:nonzero;stroke:none"
         id="path3275" />
      <path
         d="m 2253.19,216.758 h -114.55 v 205.051 h 111.93 v -18.555 h -93.08 v -74.258 h 68.61 v -17.129 h -68.61 v -76.816 h 95.7 v -18.293"
         style="fill:#231f20;fill-opacity:1;fill-rule:nonzero;stroke:none"
         id="path3277" />
      <path
         d="m 2993.09,216.789 h -18.85 v 186.492 h -53.6 v 18.567 h 128.94 v -18.567 h -56.49 V 216.789"
         style="fill:#231f20;fill-opacity:1;fill-rule:nonzero;stroke:none"
         id="path3279" />
      <path
         d="m 2503.89,327.492 c -26.9,6.746 -52.32,13.125 -52.32,41.836 0,23.613 16.11,37.703 45.31,37.703 22.29,0 46,-12.754 47.11,-48.105 h 18.91 c -1.14,48.859 -34.32,66.367 -65.43,66.367 -40.57,0 -64.46,-21.445 -64.46,-55.965 0,-42.441 33.87,-51.008 63.76,-58.574 26.05,-6.563 50.66,-12.785 50.66,-39.719 0,-29.285 -25.43,-39.715 -49.24,-39.715 -31.18,0 -49.81,20.332 -49.81,54.414 v 0.926 h -18.55 v -0.926 c 0,-43.984 26.84,-72.402 68.36,-72.402 41.37,0 68.08,22.762 68.08,57.988 0,40.528 -31.7,48.477 -62.38,56.172"
         style="fill:#231f20;fill-opacity:1;fill-rule:nonzero;stroke:none"
         id="path3281" />
      <path
         d="m 1891.24,489.602 h -17.02 l -0.26,0.449 -100.03,168.14 V 489.602 h -18.85 V 694.66 h 16.72 l 0.28,-0.449 100.29,-168.691 v 169.14 h 18.87 V 489.602"
         style="fill:#231f20;fill-opacity:1;fill-rule:nonzero;stroke:none"
         id="path3283" />
      <path
         d="m 2611.22,489.602 h -17.02 l -0.26,0.449 -100.03,168.14 V 489.602 h -18.86 V 694.66 h 16.73 l 0.28,-0.449 100.29,-168.691 v 169.14 h 18.87 V 489.602"
         style="fill:#231f20;fill-opacity:1;fill-rule:nonzero;stroke:none"
         id="path3285" />
      <path
         d="M 1672.39,489.602 H 1564.18 V 694.66 h 18.85 V 507.883 h 89.36 v -18.281"
         style="fill:#231f20;fill-opacity:1;fill-rule:nonzero;stroke:none"
         id="path3287" />
      <path
         d="m 1713.45,489.602 h -18.84 V 694.66 h 18.84 V 489.602"
         style="fill:#231f20;fill-opacity:1;fill-rule:nonzero;stroke:none"
         id="path3289" />
      <path
         d="m 2118.33,706.707 c -6.23,0 -11.49,5.262 -11.49,11.473 0,6.226 5.26,11.488 11.49,11.488 6.21,0 11.46,-5.262 11.46,-11.488 0,-6.211 -5.25,-11.473 -11.46,-11.473 z m 52.51,0 c -6.22,0 -11.48,5.262 -11.48,11.473 0,6.226 5.26,11.488 11.48,11.488 6.23,0 11.49,-5.262 11.49,-11.488 0,-6.211 -5.26,-11.473 -11.49,-11.473 z m -26.26,-27.144 c -29.96,0 -50.08,-21.184 -50.08,-52.692 v -68.598 c 0,-31.523 20.12,-52.695 50.08,-52.695 29.98,0 50.09,21.172 50.09,52.695 v 68.313 c 0,31.676 -20.11,52.977 -50.09,52.977 z m 0,-192.247 c -40.6,0 -68.95,29.414 -68.95,71.524 v 67.168 c 0,42.289 28.35,71.816 68.95,71.816 40.59,0 68.94,-29.527 68.94,-71.816 V 558.84 c 0,-42.11 -28.35,-71.524 -68.94,-71.524"
         style="fill:#231f20;fill-opacity:1;fill-rule:nonzero;stroke:none"
         id="path3291" />
      <path
         d="m 2269.72,566.691 h 39.45 c 32.26,0 51.53,18.938 51.53,50.664 v 7.208 c 0,32.753 -18.79,51.542 -51.53,51.542 h -39.45 z m 0,-77.089 h -18.84 V 694.66 h 58.85 c 42.42,0 69.82,-27.512 69.82,-70.097 v -7.493 c 0,-42.351 -26.75,-68.66 -69.82,-68.66 h -40.01 v -58.808"
         style="fill:#231f20;fill-opacity:1;fill-rule:nonzero;stroke:none"
         id="path3293" />
      <path
         d="m 2431.25,489.602 h -18.86 V 694.66 h 18.86 V 489.602"
         style="fill:#231f20;fill-opacity:1;fill-rule:nonzero;stroke:none"
         id="path3295" />
      <path
         d="m 2717.08,486.73 c -40.43,0 -68.68,29.415 -68.68,71.543 v 68.313 c 0,42.113 28.25,71.535 68.68,71.535 39.7,0 68.05,-28.699 68.94,-69.793 v -0.937 h -18.84 l -0.01,0.906 c -0.54,30.832 -20.68,51.555 -50.09,51.555 -31.2,0 -49.82,-21.532 -49.82,-57.598 V 557.98 c 0,-31.523 20.02,-52.687 49.82,-52.687 29.96,0 50.09,21.164 50.09,52.687 v 10.625 h -50.74 v 17.098 h 69.59 v -27.43 c 0,-42.128 -28.36,-71.543 -68.94,-71.543"
         style="fill:#231f20;fill-opacity:1;fill-rule:nonzero;stroke:none"
         id="path3297" />
      <path
         d="m 2883.8,486.164 c -41.53,0 -68.37,28.399 -68.37,72.383 v 0.937 h 18.56 v -0.937 c 0,-34.063 18.63,-54.406 49.81,-54.406 23.8,0 49.23,10.422 49.23,39.718 0,26.934 -24.61,33.145 -50.64,39.715 -29.9,7.571 -63.79,16.121 -63.79,58.567 0,34.511 25.2,55.98 65.78,55.98 31.66,0 65.49,-18.113 65.49,-68.949 v -0.914 h -18.85 v 0.914 c 0,37.363 -24.38,50.68 -47.22,50.68 -29.21,0 -46.63,-14.102 -46.63,-37.711 0,-28.711 25.42,-35.082 52.33,-41.828 30.68,-7.696 62.38,-15.645 62.38,-56.172 0,-35.77 -26.08,-57.977 -68.08,-57.977"
         style="fill:#231f20;fill-opacity:1;fill-rule:nonzero;stroke:none"
         id="path3299" />
      <path
         d="m 2071.9,489.602 h -22.43 l -0.29,0.351 -71.28,95.067 h -21.04 v -95.418 h -18.85 V 694.66 h 18.85 v -91.945 h 21.32 l 60.86,91.945 h 21.57 l -66.68,-100.949 77.97,-104.109"
         style="fill:#231f20;fill-opacity:1;fill-rule:nonzero;stroke:none"
         id="path3301" />
    </g>
  </g>
</svg>
