<?xml version="1.0" encoding="UTF-8" standalone="no"?>
<!-- Created with Inkscape (http://www.inkscape.org/) -->

<svg
   version="1.1"
   id="svg2940"
   width="595.03998"
   height="666.66669"
   viewBox="0 0 595.03998 666.66669"
   sodipodi:docname="logo_kth.svg"
   inkscape:version="1.2.2 (b0a8486541, 2022-12-01)"
   xmlns:inkscape="http://www.inkscape.org/namespaces/inkscape"
   xmlns:sodipodi="http://sodipodi.sourceforge.net/DTD/sodipodi-0.dtd"
   xmlns="http://www.w3.org/2000/svg"
   xmlns:svg="http://www.w3.org/2000/svg">
  <defs
     id="defs2944" />
  <sodipodi:namedview
     id="namedview2942"
     pagecolor="#ffffff"
     bordercolor="#000000"
     borderopacity="0.25"
     inkscape:showpageshadow="2"
     inkscape:pageopacity="0.0"
     inkscape:pagecheckerboard="0"
     inkscape:deskcolor="#d1d1d1"
     showgrid="false"
     inkscape:zoom="1.1925"
     inkscape:cx="155.97485"
     inkscape:cy="332.91405"
     inkscape:window-width="1920"
     inkscape:window-height="1056"
     inkscape:window-x="1920"
     inkscape:window-y="0"
     inkscape:window-maximized="1"
     inkscape:current-layer="g2948">
    <inkscape:page
       x="0"
       y="0"
       id="page2946"
       width="595.03998"
       height="666.66669" />
  </sodipodi:namedview>
  <g
     id="g2948"
     inkscape:groupmode="layer"
     inkscape:label="Page 1"
     transform="matrix(1.3333333,0,0,-1.3333333,0,666.66667)">
    <g
       id="g2950"
       transform="scale(0.1)">
      <path
         d="m 2231.34,132.301 c -17.78,19.441 -37.22,41.07 -57.12,63.418 18.88,21.48 38.31,43.429 57.12,64.351 18.8,-21 38.23,-42.871 57.12,-64.351 -19.99,-22.348 -39.42,-43.977 -57.12,-63.418 z m 104.64,63.418 c 47.91,54.441 99.45,112.351 135.17,148.07 70.88,70.891 144.21,70.262 144.21,70.262 0,0 -83.71,41.07 -171.99,-47.129 -23.68,-23.762 -76.87,-83.563 -131.23,-144.613 -19.67,22.113 -39.1,43.98 -57.12,63.89 19.9,21.949 38.63,41.93 54.29,57.512 70.88,70.891 144.21,70.258 144.21,70.258 0,0 -83.71,41.07 -171.83,-47.129 -11.17,-11.25 -29.11,-30.602 -50.43,-54.211 -21.32,23.68 -39.26,43.043 -50.43,54.211 -88.2,88.199 -171.91,47.129 -171.91,47.129 0,0 73.24,0.711 144.21,-70.258 15.66,-15.582 34.3,-35.563 54.29,-57.512 -18.02,-19.988 -37.45,-41.777 -57.12,-63.89 -54.45,60.98 -107.63,120.851 -131.31,144.613 -88.2,88.199 -171.84,47.129 -171.84,47.129 0,0 73.17,0.699 144.22,-70.262 35.8,-35.879 87.18,-93.551 135.17,-148.07 C 2081.22,145.051 2038.03,97.1289 2013.4,72.5898 1954.39,13.5 1885.63,9.01953 1885.63,9.01953 c 0,0 73.95,-43.27733 174.82,59.78907 18.65,19.043 52.16,57.0434 89.85,100.0004 20.53,-23.289 39.89,-45.239 56.1,-63.411 C 2194.28,92.332 2183.5,80.9297 2175.16,72.6719 2116.15,13.582 2047.31,9.01953 2047.31,9.01953 c 0,0 73.96,-43.19923 174.98,59.87107 2.67,2.75 5.66,5.8985 8.97,9.2813 3.22,-3.3828 6.29,-6.6133 8.97,-9.2813 100.78,-103.0703 174.82,-59.87107 174.82,-59.87107 0,0 -68.84,4.56247 -127.77,63.65237 -8.42,8.3398 -19.2,19.6601 -31.32,32.7261 16.29,18.094 35.56,40.122 56.1,63.411 37.76,-42.957 71.12,-80.8793 89.93,-100.0004 100.78,-103.0664 174.82,-59.79688 174.82,-59.79688 0,0 -68.76,4.48828 -127.77,63.57808 -24.55,24.5391 -67.82,72.4612 -113.06,123.1292"
         style="fill:#1b2867;fill-opacity:1;fill-rule:nonzero;stroke:none"
         id="path2952" />
      <path
         d="m 418.844,3376.18 c 3.621,6.92 7.394,10.14 9.914,10.93 2.832,0.95 5.035,2.36 6.687,4.17 2.36,-0.47 5.035,-0.39 7.946,0.47 11.961,3.62 46.105,-21.48 58.062,-59.32 3.938,-12.51 5.512,-25.25 5.039,-37.45 -8.34,-6.29 -20.222,-12.98 -35.172,-17.7 -11.722,-3.62 -23.996,-5.59 -35.558,-5.59 -1.262,0 -2.285,0.08 -3.543,0.16 -7.317,9.68 -13.453,20.85 -17.387,33.36 -8.496,27.38 -3.855,55.94 4.012,70.97 z m 121.164,-90.72 c 1.574,-10.23 -0.156,-20.38 -5.195,-29.9 -8.258,-15.81 -25.016,-28.64 -45.79,-35.09 -9.125,-2.83 -18.171,-4.32 -27.062,-4.32 -24.391,0 -43.195,10.62 -51.852,28.71 9.602,-2.44 19.512,-2.91 25.571,-2.91 14.476,0 29.82,2.36 44.453,6.93 24.785,7.78 47.129,21.63 59.875,36.58 z m -160.977,-42.8 c 10.86,-34.78 42.645,-56.41 83.008,-56.41 11.723,0 23.602,1.89 35.402,5.51 1.418,-2.37 3.071,-4.8 5.43,-8.03 6.137,-8.34 13.297,-15.34 21.32,-20.77 2.598,-1.73 5.508,-2.6 8.418,-2.6 4.801,0 9.446,2.28 12.356,6.53 4.719,6.77 2.988,16.13 -3.856,20.77 -5.191,3.54 -9.992,8.27 -14.164,13.85 -0.941,1.26 -1.492,2.05 -2.125,2.91 15.739,9.6 28.641,22.19 36.508,37.14 9.992,18.96 11.883,39.65 5.586,59.95 -6.059,19.36 -21.793,25.33 -30.211,25.89 -1.023,0.07 -1.969,-0.4 -2.988,-0.56 -1.024,4.88 -2.203,9.76 -3.699,14.56 -14.477,46.03 -56.176,83.08 -87.805,80.33 -3.617,3.07 -9.836,6.92 -17.465,4.41 -7.711,-2.29 -10.625,-8.5 -12.117,-13.62 -7.867,-4.48 -14.793,-12.11 -20.223,-22.42 -13.453,-25.65 -15.89,-62.39 -6.136,-93.63 1.496,-4.79 3.304,-9.52 5.273,-14.08 -0.867,-0.39 -1.809,-0.55 -2.598,-1.18 -6.527,-5.19 -15.968,-19.2 -9.914,-38.55"
         style="fill:#1b2867;fill-opacity:1;fill-rule:nonzero;stroke:none"
         id="path2954" />
      <path
         d="m 667.621,3092.54 c -0.473,19.36 4.723,37.06 14.637,49.96 5.82,7.56 15.496,16.37 30.683,19.04 -9.836,-16.83 -15.972,-42.8 -15.421,-68.37 0.55,-24.86 7.472,-50.82 18.726,-67.58 -27.773,3.3 -47.918,30.45 -48.625,66.95 z m 102.203,47.6 c 39.34,1.42 74.43,-23.6 74.742,-35.64 0,-3.15 0.789,-5.74 1.969,-7.94 -1.18,-2.21 -1.808,-4.88 -1.652,-7.95 0,-2.44 -1.809,-7.08 -7.238,-12.83 -11.723,-12.27 -37.372,-25.8 -65.774,-26.43 -12.984,-0.32 -25.73,1.65 -37.137,5.43 -3.777,9.83 -7.004,23.13 -7.394,39.1 -0.317,15.5 2.203,28.72 5.348,38.63 11.25,4.49 23.839,7.32 37.136,7.63 z m -45.949,-144.76 c 20.223,0.39 30.527,13.84 33.438,21.71 0.316,0.95 0.16,1.89 0.316,2.83 3.777,-0.31 7.633,-0.47 11.566,-0.47 1.102,0 2.203,0 3.305,0 32.73,0.71 66.797,14.71 86.781,35.64 8.102,8.42 13.137,17.47 14.789,26.36 3.856,2.6 9.207,7.32 9.051,15.26 0,8.11 -5.195,12.75 -9.68,15.58 -7.632,31.08 -55.23,58.54 -104.246,57.51 -5.035,-0.07 -10.07,-0.47 -14.949,-1.18 -0.156,1.03 0,2.05 -0.394,3.07 -3.149,7.56 -13.454,20.22 -34.145,20.22 v 0 c -24.312,-0.55 -46.027,-11.72 -61.133,-31.47 -8.496,-11.17 -14.32,-24.7 -17.625,-39.42 -0.941,0.32 -1.886,0.63 -3.304,1.03 -6.528,2.12 -12.508,5.11 -17.86,9.04 -6.687,4.88 -15.972,3.47 -20.926,-3.22 -4.879,-6.61 -3.464,-16.05 3.227,-20.93 7.945,-5.82 16.836,-10.38 26.434,-13.45 3.777,-1.26 6.609,-1.97 9.285,-2.6 1.492,-55.62 36.664,-95.91 84.105,-95.91 0,0.4 1.809,0.4 1.965,0.4"
         style="fill:#1b2867;fill-opacity:1;fill-rule:nonzero;stroke:none"
         id="path2956" />
      <path
         d="m 377.461,2209.62 c -9.992,16.61 -14.32,34.54 -12.117,50.75 1.336,9.52 5.429,22.11 17.23,31.79 -0.238,-19.59 7.317,-45.16 20.535,-67.19 13.454,-22.19 32.493,-40.52 49.801,-49.26 -25.488,-10.93 -57.277,3.62 -75.449,33.91 z m 65.144,92.06 c 34.067,20.45 76.395,16.52 82.454,6.45 1.574,-2.83 3.621,-4.8 5.824,-6.14 0.078,-2.44 0.785,-5.03 2.437,-7.71 1.258,-2.12 1.965,-7.08 0,-14.79 -4.011,-16.44 -19.59,-40.91 -44.058,-55.62 -11.172,-6.77 -23.055,-11.41 -34.856,-13.69 -8.183,6.6 -17.547,16.6 -25.804,30.13 -8.106,13.53 -12.512,26.43 -14.637,36.74 7.711,9.44 17.387,17.86 28.64,24.63 z m 119.825,-29.27 c 2.832,11.33 2.675,21.56 -0.235,30.21 2.121,4.17 4.407,11.09 0.235,18.02 -4.012,6.76 -10.778,8.26 -16.129,8.57 -21.949,23.14 -77.574,23.06 -119.117,-1.81 -4.329,-2.59 -8.496,-5.42 -12.43,-8.41 -0.633,0.78 -1.102,1.81 -1.891,2.44 -1.414,1.1 -8.73,6.37 -19.824,6.37 -6.769,0 -13.453,-1.97 -19.75,-5.75 -20.848,-12.58 -34.144,-33.04 -37.449,-57.67 -1.891,-13.92 -0.078,-28.48 4.328,-42.95 -1.023,-0.16 -1.969,-0.48 -3.387,-0.79 -6.765,-1.42 -13.453,-1.65 -19.902,-1.02 -8.184,1.02 -15.656,-4.88 -16.602,-13.14 -0.945,-8.19 4.879,-15.58 13.141,-16.52 3.383,-0.4 6.844,-0.63 10.227,-0.63 6.371,0 12.902,0.7 19.355,2.04 3.855,0.87 6.688,1.57 9.359,2.28 19.672,-32.41 50.434,-51.77 82.379,-51.77 14.16,0 27.614,3.86 40.043,11.41 17.313,10.39 19.594,27.15 18.098,35.33 -0.156,1.02 -0.785,1.73 -1.102,2.59 4.407,2.13 8.891,4.49 13.141,7.08 27.93,16.84 50.512,46.03 57.512,74.12"
         style="fill:#1b2867;fill-opacity:1;fill-rule:nonzero;stroke:none"
         id="path2958" />
      <path
         d="m 33.0078,2340.86 c 2.0469,2.12 3.3047,4.56 3.9336,6.92 2.3633,0.71 4.6445,2.05 6.6094,4.41 8.5,8.89 50.75,3.93 79.6252,-23.13 9.597,-9.05 17.308,-19.36 22.812,-30.14 -4.246,-9.6 -11.25,-21.32 -21.949,-32.73 -10.699,-11.4 -22.109,-19.04 -31.9413,-23.99 -10.8594,4.8 -21.4024,11.64 -30.9219,20.61 -20.8477,19.51 -30.8399,46.58 -31.3125,63.65 -0.2383,7.79 1.414,12.51 3.1445,14.4 z m 157.1992,-62.55 c 0.551,-17.86 -7.711,-37.21 -22.66,-52.95 -15.5,-16.52 -34.934,-26.04 -53.344,-26.04 v 0 c -10.07,0 -19.4335,2.91 -27.3788,8.49 18.8828,4.96 41.3868,19.12 59.0078,37.85 17.703,18.88 30.293,41.93 34.148,61.13 6.372,-7.95 9.833,-17.7 10.227,-28.48 z M 40.6406,2241.17 c 3.6211,-3.46 7.4766,-6.76 11.4102,-9.67 -0.4727,-0.79 -1.2617,-1.42 -1.6524,-2.28 -3.1484,-7.79 -4.4843,-24.63 10.2266,-38.48 14.793,-13.92 33.2031,-21.32 53.5,-21.32 v 0 c 26.438,0 53.66,12.82 74.668,35.09 2.437,-1.42 5.031,-2.67 8.574,-4.25 9.125,-4.17 18.727,-6.76 28.637,-7.71 0.473,0 1.023,-0.08 1.496,-0.08 7.633,0 14.16,5.75 14.871,13.46 0.785,8.26 -5.273,15.5 -13.457,16.36 -6.605,0.63 -13.137,2.36 -19.273,5.12 -1.18,0.62 -2.047,1.02 -2.911,1.41 8.969,16.13 13.766,33.52 13.215,50.43 -0.629,21.33 -9.203,40.44 -24.625,54.84 -9.203,8.89 -18.882,10.78 -25.332,10.78 -7.082,0 -12.117,-2.12 -13.457,-2.83 -0.941,-0.47 -1.57,-1.34 -2.437,-2.05 -3.305,3.78 -6.688,7.48 -10.383,10.94 -35.094,32.81 -88.9063,44.69 -115.8165,26.83 -4.7187,0.86 -12.0351,1.26 -17.5429,-4.8 -5.50785,-5.75 -4.95707,-12.67 -3.77738,-17.7 -4.64063,-7.87 -6.925783,-17.86 -6.5312512,-29.59 C 0.832031,2296.64 16.8789,2263.44 40.6406,2241.17"
         style="fill:#1b2867;fill-opacity:1;fill-rule:nonzero;stroke:none"
         id="path2960" />
      <path
         d="m 558.73,1290.44 c -27.378,15.81 -47.046,45.71 -35.48,74.58 9.203,-17.31 27.93,-35.72 50.43,-48.78 21.953,-12.59 47.918,-20.14 67.347,-19.2 -16.757,-21.55 -51.687,-24.31 -82.297,-6.6 z m 12.434,112.03 c 19.906,34.38 58.852,51.3 69.156,45.4 2.754,-1.65 5.43,-2.28 8.028,-2.44 1.336,-2.05 3.144,-4.01 5.82,-5.51 2.047,-1.26 5.113,-5.19 7.082,-12.82 4.484,-16.52 2.754,-45.4 -11.566,-70.02 -6.454,-11.1 -14.477,-20.78 -23.368,-28.41 -10.621,1.73 -24.156,5.67 -37.687,13.54 -13.609,7.86 -23.68,17.07 -30.527,24.86 2.203,11.88 6.531,23.99 13.062,35.4 z m 119.117,32.42 c -3.066,11.33 -8.105,20.3 -14.793,26.35 -0.234,4.72 -1.492,11.73 -8.258,15.5 -6.925,4.33 -13.691,2.28 -18.414,-0.08 -30.445,9.68 -79.07,-17.3 -103.378,-59.24 -2.52,-4.41 -4.801,-8.81 -6.766,-13.3 -0.945,0.4 -1.813,1.11 -2.914,1.26 -0.785,0.08 -3.227,0.24 -3.934,0.24 -12.668,0 -24.312,-7.16 -31.078,-18.96 -19.59,-33.83 -10.465,-74.67 19.672,-104.01 -0.711,-0.63 -1.574,-1.34 -2.676,-2.29 -5.191,-4.48 -10.777,-7.94 -16.918,-10.46 -7.629,-3.23 -11.328,-11.88 -8.179,-19.51 2.359,-5.82 7.945,-9.29 13.843,-9.29 1.891,0 3.86,0.4 5.668,1.18 9.125,3.7 17.621,9.05 25.176,15.58 2.988,2.52 5.113,4.57 7.082,6.53 17.859,-10.15 37.215,-15.65 55.859,-15.65 30.606,0 56.415,14.47 70.731,39.49 10.148,17.47 4.016,33.2 -1.18,39.81 -0.629,0.79 -1.574,1.18 -2.281,1.66 2.832,4.09 5.586,8.18 8.105,12.58 16.442,28.17 22.11,64.44 14.633,92.61"
         style="fill:#1b2867;fill-opacity:1;fill-rule:nonzero;stroke:none"
         id="path2962" />
      <path
         d="m 366.602,1205.86 c -8.184,-32.89 -31.079,-54.84 -56.961,-54.84 -1.653,0 -3.383,0 -5.118,0.31 14.793,14.17 27.305,38.56 33.125,61.77 6.137,24.7 5.981,51.45 0,70.18 14.082,-5.75 21.715,-16.68 25.805,-25.34 6.77,-14.87 7.871,-33.28 3.149,-52.08 z m -169.551,21.32 c -4.012,6.69 -4.875,11.56 -4.246,13.92 0.707,2.99 0.629,5.67 0,8.11 1.652,1.89 2.988,4.17 3.617,7.16 3.07,11.96 42.484,28.09 80.801,18.57 12.906,-3.23 24.55,-8.82 34.621,-15.66 0.941,-10.39 0.39,-23.84 -3.305,-38.87 -3.855,-15.42 -9.992,-27.85 -15.738,-36.5 -12.035,-1.18 -24.781,-0.32 -37.528,2.99 -27.539,6.84 -49.488,25.64 -58.222,40.28 z m 244.375,-1.5 c -3.383,7.56 -12.274,10.94 -19.75,7.56 -5.903,-2.68 -12.43,-4.33 -19.278,-4.88 -1.492,-0.16 -2.437,-0.24 -3.46,-0.32 0,15.03 -2.516,29.59 -8.418,42.41 -10.387,22.42 -29.11,38.16 -52.633,44.14 -17.235,4.33 -32.34,-4.49 -37.766,-12.27 -0.633,-0.87 -0.711,-1.81 -1.101,-2.76 -4.723,1.65 -9.524,3.15 -14.399,4.41 -46.656,11.56 -99.449,-4.41 -114.16,-32.97 -4.566,-1.65 -11.254,-4.88 -12.984,-12.9 -1.965,-7.71 1.73,-13.38 5.273,-17.31 -0.316,-9.13 2.594,-18.96 8.574,-29.03 14.871,-24.79 45.004,-46.03 76.711,-53.97 4.879,-1.34 9.836,-2.05 14.711,-2.84 -0.078,-1.02 -0.469,-1.96 -0.391,-2.91 1.102,-8.26 8.18,-23.68 27.774,-28.56 6.449,-1.65 12.98,-2.44 19.351,-2.44 v 0 c 39.735,0 74.118,30.92 85.84,77.03 0.078,0 0.157,-0.08 0.313,-0.08 2.676,0 5.586,0.24 9.363,0.55 10.149,0.94 19.906,3.38 28.875,7.4 7.555,3.3 10.938,12.27 7.555,19.74"
         style="fill:#1b2867;fill-opacity:1;fill-rule:nonzero;stroke:none"
         id="path2964" />
      <path
         d="m 1099.33,643.859 c 16.52,-10.617 42.25,-17.457 69.62,-18.007 25.26,0 50.12,6.207 66.41,16.128 -4.64,-30.218 -36.19,-45.949 -67.19,-45.949 h -1.42 c -19.35,0.231 -36.9,6.059 -49.41,16.52 -7.47,6.058 -16.05,16.129 -18.01,31.308 z m 61.68,129.59 v 0 c 3.22,-0.32 5.82,0.551 8.1,1.731 2.13,-1.34 4.8,-2.051 7.95,-2.051 2.44,0 6.92,-1.969 12.43,-7.707 11.88,-12.121 24.47,-38.242 24.08,-66.723 -0.16,-13.219 -2.92,-25.648 -7.16,-37.058 -9.76,-3.219 -22.98,-5.969 -38.79,-5.969 v 0 c -15.58,0.308 -28.72,3.297 -38.55,6.84 -4.02,11.488 -6.46,24.23 -6.3,37.449 0.63,39.648 26.28,73.488 38.24,73.488 z m 5.9,-207.32 c 0.47,0 1.18,0 1.26,0 55.23,0 97.17,35.641 97.64,82.691 0.31,20.301 -12.75,31.078 -20.54,34.231 -0.94,0.308 -1.81,0.148 -2.75,0.39 0.55,4.879 0.94,9.829 1.02,14.868 0.39,32.73 -12.35,67.273 -32.57,88.043 -8.18,8.257 -16.92,13.687 -25.81,15.66 -2.44,4.008 -7.08,9.59 -15.18,9.59 -8.11,0.238 -12.67,-4.793 -15.66,-9.043 -31.23,-6.528 -60.58,-53.821 -61.29,-102.129 -0.08,-5.032 0.16,-10.149 0.63,-15.02 -1.02,-0.16 -2.12,0 -3.15,-0.32 -7.86,-2.91 -21.24,-13.371 -21.32,-33.52 -0.31,-24.308 10.07,-46.418 29.27,-62.148 10.86,-8.973 24.15,-15.113 38.71,-18.961 -0.32,-0.949 -0.63,-1.891 -1.18,-3.231 -2.36,-6.609 -5.59,-12.429 -9.6,-17.39 -5.19,-6.449 -4.17,-15.809 2.28,-21.078 2.83,-2.203 6.06,-3.383 9.36,-3.383 4.41,0 8.74,1.961 11.65,5.66 6.14,7.551 11.01,16.293 14.48,25.961 1.18,3.781 1.96,6.531 2.75,9.129"
         style="fill:#1b2867;fill-opacity:1;fill-rule:nonzero;stroke:none"
         id="path2966" />
      <path
         d="m 1040,359.52 c -5.35,-9.282 -12.98,-16.278 -22.5,-20.301 5.59,18.73 5.27,45.402 -1.34,70.113 -6.37,23.047 -19.351,47.199 -34.379,61.129 27.929,3.379 53.819,-18.731 63.179,-53.27 5.74,-21.16 4.01,-42.171 -4.96,-57.671 z m -82.687,-13.372 c -27.458,-7.558 -55.864,-1.808 -70.575,6.614 -6.843,4.008 -9.992,7.859 -10.543,10.07 -0.707,2.988 -2.125,5.348 -3.855,7.156 0.551,2.442 0.551,5.032 -0.313,8.024 -3.226,11.957 23.207,45.32 61.446,55.777 12.668,3.473 25.492,4.652 37.609,3.699 5.981,-8.566 12.195,-20.769 16.363,-35.867 4.09,-15.109 4.879,-28.641 4.09,-39.109 -10.066,-7.16 -21.476,-12.903 -34.222,-16.364 z m 122.417,121.793 c -3.93,-5.191 -8.81,-9.91 -14.47,-13.691 -1.18,-0.789 -1.97,-1.34 -2.83,-1.891 -16.53,29.661 -44.22,48.313 -74.907,48.313 -6.921,0 -13.925,-1.024 -20.769,-2.832 -19.512,-5.27 -26.199,-20.692 -27.066,-29.11 -0.079,-1.101 0.316,-1.968 0.394,-3.07 -4.879,-0.789 -9.836,-1.808 -14.715,-3.148 -46.496,-12.742 -84.812,-52.633 -83.554,-84.731 -3.145,-3.472 -7.239,-9.519 -4.958,-17.551 2.047,-7.55 8.106,-10.781 13.063,-12.269 4.25,-8.18 11.645,-15.34 21.793,-21.242 16.129,-9.207 37.059,-14.168 58.301,-14.168 11.801,0 23.761,1.578 35.011,4.64 4.879,1.418 9.598,2.918 14.243,4.649 0.39,-0.789 0.468,-1.66 1.097,-2.52 4.407,-5.898 14.242,-12.832 27.377,-12.832 3.47,0 7.16,0.481 10.78,1.422 20.46,5.512 36.82,18.18 47.37,36.738 12.74,22.114 15.58,51.223 7.94,79.782 2.44,1.422 4.88,2.91 8.19,5.121 8.34,5.578 15.65,12.508 21.55,20.449 4.96,6.691 3.62,15.969 -2.91,21.012 -6.61,4.879 -15.97,3.539 -20.93,-3.071"
         style="fill:#1b2867;fill-opacity:1;fill-rule:nonzero;stroke:none"
         id="path2968" />
      <path
         d="m 1796.01,106.102 c -4.4,-0.473 -7.47,0.32 -7.55,0.32 -2.04,2.039 -3.54,12.109 -4.4,17.539 -2.21,15.027 -6.06,40.289 -31.4,45.641 -4.95,1.097 -9.91,1.648 -14.71,1.648 -28.64,0 -45.55,-19.039 -63.34,-39.18 -3.85,-4.41 -7.94,-8.968 -12.5,-13.851 l -2.6,-2.91 c -12.27,-13.219 -30.76,-33.5199 -59.4,-33.5199 -7.87,0 -16.29,1.5703 -24.94,4.4922 -9.68,3.3789 -16.37,7.5507 -18.02,11.0898 -2.6,5.8199 3.07,19.5899 7.55,30.6799 8.18,19.988 21.87,53.429 -7.08,75.379 -10.07,7.629 -21.24,11.48 -33.12,11.48 -30.29,0 -55.94,-24.23 -80.72,-47.519 -3.62,-3.539 -7.32,-6.922 -10.94,-10.301 -19.83,-18.102 -42.8,-28.168 -64.67,-28.168 -25.42,0 -49.26,13.449 -68.22,38.16 -2.83,4.008 -7.47,11.637 -6.21,16.438 2.67,9.992 26.9,21.64 42.88,29.269 27.69,13.301 65.53,31.391 52.08,67.66 -20.3,54.211 -73.25,54.211 -90.64,54.211 -4.79,0 -9.75,-0.16 -15.02,-0.469 -36.59,-2.601 -65.62,10.778 -79.07,35.95 -12.51,23.211 -9.29,53.031 8.41,79.781 18.57,27.848 43.75,43.98 69,43.98 25.1,0 47.45,-15.504 62.95,-43.351 13.61,-25.02 36.19,-58.379 73.87,-58.379 8.9,0 18.02,1.969 27.07,5.75 29.66,12.187 25.41,47.277 21.56,78.277 -2.44,19.512 -5.75,46.192 1.65,55.231 0.79,1.031 3.23,3.941 13.69,4.879 5.04,0.793 9.83,1.101 14.4,1.101 15.03,0 55.07,0 55.47,-78.828 v -11.57 c -0.16,-33.992 -0.32,-72.461 20.22,-93.071 9.59,-9.679 23.28,-14.089 36.82,-13.062 32.88,2.59 42.33,34.141 49.17,57.043 10.15,33.828 14.08,33.988 27.22,30.289 28.64,-8.18 34.94,-35.641 39.34,-65.461 l 2.44,-16.602 c 4.8,-33.906 9.68,-69 50.2,-78.046 2.36,-0.473 4.72,-0.711 7.08,-0.711 v 0 c 20.93,0 32.02,17.621 40.12,30.531 2.99,4.797 8.11,12.738 8.81,14 0,0 1.18,-0.231 3.55,-1.652 9.59,-6.141 24.62,-26.43 24.39,-91.739 -10.86,1.809 -22.27,3.699 -34.86,5.668 -165.54,29.031 -375.05,111.883 -443.98,139.102 -21.47,8.418 -21.47,8.418 -23.6,8.418 -2.2,0 -4.17,-0.949 -5.59,-2.438 v 0 c -0.47,-0.633 -0.94,-1.261 -1.25,-1.972 -0.32,-0.629 -0.55,-1.489 -0.63,-2.2 -0.08,-1.179 0,-2.199 0.31,-3.308 4.8,-14 275.77,-143.031 467.19,-176.86 12.59,-1.972 24.39,-3.781 35.64,-5.429 -20.54,-57.203 -42.88,-71.75 -58.62,-73.41 z m 185.92,58.699 c 10.07,0 19.43,0.629 21.64,7.859 0.31,1.11 0.47,2.129 0.39,3.231 0.16,0.468 0.23,1.101 0.31,1.648 0.55,6.93 0.95,14.641 -98.03,32.731 0.95,36.269 -1.1,109.05 -45.08,137.371 -9.13,5.82 -18.41,8.738 -27.38,8.738 -25.1,0 -38.32,-21.09 -47.13,-34.938 -1.41,-2.281 -3.3,-5.269 -4.95,-7.632 -4.33,3.382 -6.38,11.882 -10.08,38.242 l -2.43,16.91 c -4.1,27.699 -12.59,85.371 -71.44,102.051 -7.4,2.039 -14.48,3.148 -21.01,3.148 -42.33,0 -54.21,-39.89 -61.37,-63.648 -2.6,-8.5 -6.84,-22.821 -11.25,-25.34 -7.47,6.137 -7.32,44.769 -7.24,61.289 v 11.961 c -0.31,78.437 -36.9,123.449 -100.31,123.449 -6.53,0 -13.38,-0.48 -19.36,-1.34 -18.8,-1.652 -33.43,-8.66 -43.58,-21.172 -19.36,-23.988 -15.11,-58.527 -11.33,-89.14 1.26,-10.457 3.22,-25.571 2.28,-32.567 -2.28,-0.793 -4.49,-1.101 -6.45,-1.101 -10.39,0 -21.64,11.488 -34.54,35.168 -23.53,42.25 -60.74,66.48 -102.2,66.48 -40.6,0 -79.39,-23.289 -106.38,-63.89 -27.06,-40.75 -31.07,-87.719 -10.62,-125.879 20.14,-37.532 61.21,-59.95 109.84,-59.95 3.93,0 7.86,0.149 11.72,0.309 4.17,0.32 8.18,0.473 12.11,0.473 29.98,0 41,-8.18 47.13,-21.321 -5.58,-4.562 -18.72,-10.929 -27.93,-15.179 -27.69,-13.301 -59.01,-28.25 -66.87,-58.301 -4.49,-17 -0.16,-35.09 13.37,-54.449 35.88,-46.6526 76.55,-56.4104 104.41,-56.4104 33.04,0 66.79,14.1601 94.96,39.9684 3.78,3.461 7.63,7.078 11.49,10.7 15.81,14.949 37.53,35.402 49.96,35.402 1.49,0 3.46,-0.313 6.06,-1.652 0.7,-3.848 -4.25,-15.969 -7.24,-23.29 -7.87,-19.039 -17.63,-42.8 -6.93,-66.1597 7.16,-15.8203 21.72,-27.3008 44.46,-35.0195 13.37,-4.5625 26.59,-6.8399 39.34,-6.8399 48.38,0 78.12,32.4883 92.44,47.9883 l 2.28,2.4414 c 4.88,5.1211 9.29,10.1485 13.3,14.7894 14.08,15.82 21.71,24.082 29.82,24.082 0.08,0 0.16,0 0.23,0 0.55,-2.75 1.18,-6.371 1.58,-9.211 2.67,-17.7815 8.34,-60.969 60.89,-55.6213 42.41,4.4805 75.61,42.0113 98.98,111.0113 38.47,-4.8 66.01,-7.39 82.14,-7.39"
         style="fill:#1b2867;fill-opacity:1;fill-rule:nonzero;stroke:none"
         id="path2970" />
      <path
         d="m 636.152,3408.2 c 1.965,5.11 4.485,5.98 4.407,6.37 3.933,0 10.382,-2.2 16.207,-4.09 8.339,-2.83 16.992,-5.67 26.277,-5.67 14.477,0 23.289,7.08 28.324,13.14 23.996,29.98 12.586,58.93 1.574,86.86 -1.808,4.64 -3.699,9.52 -5.668,14.72 l -1.335,3.46 c -10.622,27.93 -18.411,57.67 10.464,86.86 10.071,9.52 15.578,10.54 17.465,10.54 6.219,0 15.895,-11.25 23.684,-20.22 12.429,-14.4 27.851,-32.34 50.902,-32.34 6.219,0 12.434,1.34 18.02,3.86 49.093,20.53 31.863,77.34 20.457,114.95 -1.653,5.58 -3.383,11.17 -4.957,16.99 -8.184,26.99 -6.453,51.3 4.875,70.42 11.804,19.75 33.992,33.59 63.414,39.65 2.836,0.47 5.351,0.79 7.711,0.79 5.98,0 7.632,-1.65 8.183,-2.21 7.082,-7.15 6.844,-33.51 6.766,-50.98 -0.234,-30.68 -0.551,-72.62 36.98,-76.08 51.528,-5.11 75.848,32.73 92.998,70.02 14.08,32.81 39.34,52.32 67.74,52.32 25.25,0 49.25,-15.73 64.2,-42.01 16.84,-29.74 19.43,-59.56 6.92,-81.67 -11.48,-20.3 -34.38,-32.02 -64.04,-32.96 -71.36,-0.24 -88.83,-36.51 -90.95,-67.11 -1.73,-32.03 32.1,-43.67 59.24,-53.03 17.47,-6.06 41.39,-14.32 46.27,-24.55 0.62,-1.18 2.36,-4.88 -1.34,-15.11 -11.41,-35.4 -32.18,-39.41 -46.82,-39.41 -14.63,0 -32.65,4.87 -51.92,14.08 l -7.63,3.85 c -23.92,12.2 -51.144,25.97 -75.218,25.97 -20.301,0 -36.192,-9.68 -44.926,-27.85 -13.613,-29.98 10.937,-53.43 27.222,-68.85 8.024,-7.63 20.141,-19.19 20.297,-25.25 0,-2.36 -2.281,-6.22 -6.843,-11.1 -8.735,-9.83 -19.2,-14.47 -32.965,-14.47 -14.242,0 -29.192,4.95 -40.047,8.65 l -18.488,6.14 c -17.075,5.82 -31.789,10.78 -46.344,10.78 -17.07,0 -31.235,-6.93 -41.934,-20.38 -16.207,-19.75 -3.148,-41.86 4.719,-55 2.441,-4.09 6.375,-10.62 7.398,-14.16 -0.472,-0.31 -1.101,-0.78 -1.89,-1.33 -4.641,-2.6 -10.699,-3.86 -18.094,-3.86 -23.055,0 -51.062,12.2 -70.184,21.87 15.973,18.81 36.508,43.59 63.336,76.4 99.606,121.79 257.911,259.4 327.931,315.34 l 1.81,1.26 c 27.22,19.19 27.22,19.19 27.61,23.44 l 0.24,2.99 -4.17,5.19 h -3.62 c -2.91,0 -4.48,0 -30.76,-21 -60.51,-42.65 -243.587,-172.15 -349.564,-301.42 -27.856,-34.22 -48.231,-60.5 -63.18,-80.88 -45.871,47.6 -45.476,74.12 -40.754,86.08 z m 2.36,-158.77 2.832,-4.33 0.394,-2.52 h 7 c 3.227,0 6.688,0 28.09,23.29 27.774,-14.95 65.301,-32.02 100.551,-32.02 15.184,0 28.715,3.3 40.359,9.83 12.512,7.32 20.297,16.92 23.367,28.56 4.958,19.2 -5.191,36.19 -12.585,48.7 -1.262,2.13 -2.915,4.96 -4.25,7.32 6.293,1.89 19.511,-2.91 34.851,-8.1 l 18.57,-6.22 c 13.059,-4.4 32.731,-11.01 54.368,-11.01 26.75,0 49.093,9.91 65.851,28.87 12.82,13.3 19.12,27.62 18.8,42.49 -0.55,24.7 -19.272,42.48 -34.222,56.72 -5.664,5.35 -14.867,14.17 -16.914,18.57 0.551,0.71 1.336,0.95 3.699,0.95 13.293,0 36.347,-11.73 54.837,-21.17 l 8.18,-4.17 c 77.97,-37.13 139.34,-15.97 160.9,51.06 6.53,17.94 6.37,34.39 -0.55,48.94 -12.98,27.22 -44.46,38.08 -72.15,47.68 -9.52,3.3 -23.21,8.02 -28.8,11.64 1.26,9.21 7.09,21.17 46.66,21.33 45.87,1.49 83.24,21.79 102.36,55.78 20.3,36.11 17.78,81.98 -7.08,125.72 -22.98,40.52 -61.61,64.76 -103.23,64.76 -46.89,0 -87.64,-29.74 -108.73,-78.92 -16.68,-36.35 -28.795,-43.74 -42.877,-43.82 -1.496,7.16 -1.34,21.32 -1.262,31.31 0.239,29.35 0.473,62.47 -19.746,82.93 -7.004,7.08 -19.59,15.42 -39.969,15.42 -4.878,0 -9.992,-0.47 -16.128,-1.57 -42.801,-8.82 -75.137,-29.82 -93.469,-60.74 -18.016,-30.22 -21.242,-66.96 -9.442,-105.82 1.575,-5.67 3.305,-11.57 5.114,-17.55 9.285,-30.45 16.05,-56.02 4.879,-60.97 -3.7,1.02 -12.274,10.93 -17.387,16.91 -13.77,15.89 -30.922,35.8 -57.594,35.8 -16.285,0 -32.019,-7.47 -48.777,-23.29 -52.242,-52.71 -30.371,-110.23 -21.086,-134.77 l 1.179,-3.23 c 2.043,-5.51 4.09,-10.7 6.059,-15.58 9.281,-23.68 11.406,-31.31 8.024,-38 -2.594,0.71 -5.821,1.81 -8.262,2.68 -8.969,2.99 -19.196,6.45 -30.367,6.45 -12.196,0 -34.305,-4.57 -46.106,-34.7 -15.816,-39.81 3.383,-86.94 56.567,-140.2 -16.364,-26.52 -14.004,-31.79 -12.508,-35.01"
         style="fill:#1b2867;fill-opacity:1;fill-rule:nonzero;stroke:none"
         id="path2972" />
      <path
         d="m 814.594,671.789 c -14.793,0 -29.114,-5.027 -45.715,-10.93 -4.797,-1.73 -9.91,-3.617 -15.184,-5.269 l -4.562,-1.578 c -10.387,-3.383 -24.547,-8.18 -39.496,-8.18 -18.176,0 -33.676,7.238 -46.422,21.09 -6.449,7.859 -9.91,14.867 -9.52,19.039 0.707,6.609 12.118,15.648 21.325,22.891 17.464,13.929 43.902,34.859 31.156,67.738 -4.879,13.058 -18.805,35.012 -55.863,35.012 -18.723,0 -38.946,-5.192 -58.458,-10.301 -5.664,-1.582 -11.25,-2.992 -17.152,-4.492 -10.07,-2.59 -19.746,-3.93 -29.031,-3.93 -42.801,0 -70.336,27.461 -77.574,77.019 -1.024,7.481 -0.395,13.063 1.648,15.352 1.891,2.121 8.184,5.82 29.348,5.82 7.316,0 14.793,-0.468 22.187,-0.789 7.711,-0.472 15.106,-0.781 22.032,-0.781 33.75,0 52.32,11.641 55.074,34.059 8.808,53.742 -31.785,79.231 -66.875,94.891 -30.528,15.97 -48.782,42.09 -48.625,69.63 0.078,26.2 15.972,49.33 43.586,63.49 36.273,18.72 73.722,16.68 94.019,-4.64 12.59,-13.3 18.727,-33.05 17.469,-58.7 0.941,-54.99 22.5,-85.75 64.988,-91.339 l 3.383,-0.161 c 29.582,0 41.617,30.53 52.16,57.52 8.106,20.45 18.02,46.02 30.61,46.02 2.75,0 6.214,-0.86 10.543,-2.59 18.171,-7.16 29.421,-16.84 34.222,-29.74 6.531,-17.31 1.891,-41.86 -13.14,-70.499 l -4.09,-7.472 c -16.524,-29.59 -35.246,-63.098 -26.75,-91.508 3.621,-12.109 11.801,-21.949 23.84,-28.242 6.136,-3.149 12.586,-4.797 19.277,-4.797 20.926,0 36.898,15.5 50.98,29.187 7.868,7.551 19.75,19.039 25.414,19.039 1.575,0 4.879,-1.808 10.465,-7.867 21.082,-20.609 13.61,-46.422 3.461,-73.332 l -6.297,-16.91 c -11.484,-30.129 -23.207,-61.367 5.196,-88.988 6.453,-5.821 14.476,-8.961 23.289,-8.961 v 0 c 11.722,0 22.265,5.582 31.547,10.539 4.644,2.441 12.433,6.613 13.457,7.242 0,0 0.863,-0.789 2.515,-3.699 4.407,-7.563 10.389,-31.32 -24.785,-91.742 -17.855,16.761 -40.91,38.082 -71.359,66.011 -84.973,75.368 -188.668,194.329 -308.414,353.179 -13.375,17.86 -13.375,17.86 -17.309,17.86 -0.945,0 -1.812,-0.15 -2.676,-0.47 -2.437,-0.94 -4.328,-3.22 -4.8,-5.74 -2.672,-14.64 162.234,-266.25 305.898,-394.258 28.641,-26.274 53.187,-47.672 73.723,-64.512 -27.696,-23.371 -51.379,-35.25 -70.496,-35.25 -4.801,0.082 -9.125,0.871 -12.668,2.129 -4.012,1.73 -5.665,3.141 -5.821,3.141 -0.629,2.91 2.989,12.281 4.957,17.39 5.508,14.16 14.789,37.77 -3.699,54.84 -11.566,11.801 -25.492,17.539 -40.988,17.539 z m 58.457,-139.57 v 0 c 43.82,0 85.285,32.73 106.844,52.082 16.046,-11.09 27.455,-16.832 33.905,-16.832 5.51,0 8.03,3.301 8.81,4.722 0.16,0.231 0.32,0.469 0.4,0.86 1.02,0.949 1.73,1.89 2.04,2.988 1.34,4.25 2.05,6.93 -23.52,32.34 15.89,25.73 58.93,97.402 30.53,145.871 -11.81,21.242 -28.09,25.648 -39.658,25.648 -14.004,0 -26.355,-6.609 -36.269,-11.796 -1.969,-1.11 -4.406,-2.293 -6.453,-3.391 -1.336,5.039 1.023,13.609 9.207,35.328 l 6.293,16.762 c 8.89,23.519 29.664,78.519 -13.137,120.289 -12.984,14.32 -27.383,21.558 -42.723,21.558 -23.918,0 -42.015,-17.617 -56.648,-31.699 -6.059,-5.91 -16.129,-15.66 -19.828,-15.82 -4.719,7.871 16.051,44.93 22.894,57.203 l 4.485,8.18 c 21.558,41.148 26.832,77.258 15.578,107.398 -9.36,25.1 -29.504,43.9 -59.399,55.62 -9.363,3.86 -18.57,5.82 -27.3,5.82 -43.039,0 -59.954,-43.19 -72.305,-74.5 -3.699,-9.44 -9.051,-23.06 -13.063,-28.56 -8.968,1.89 -20.296,8.57 -21.007,45.47 1.734,36.75 -8.497,67.9 -29.817,90.25 -33.832,35.48 -93.234,41.3 -147.051,13.61 -42.328,-21.8 -67.738,-60.43 -67.898,-103.15 -0.156,-44.69 27.066,-85.68 73.957,-110.072 38.238,-17.148 43.668,-29.738 42.645,-43.109 -4.719,-0.789 -18.016,-0.707 -31.157,0 -8.105,0.391 -16.363,0.781 -24.468,0.781 -20.77,0 -46.657,-2.281 -63.02,-21 -11.016,-12.511 -15.188,-29.738 -12.355,-51.14 10.386,-71.371 57.121,-115.821 121.953,-115.821 13.058,0 26.589,1.813 39.808,5.27 5.746,1.34 11.723,2.84 17.703,4.492 16.758,4.399 34.149,8.891 47.129,8.891 11.567,0 12.824,-3.231 14.16,-6.301 -1.101,-3.621 -11.25,-11.641 -17.308,-16.52 -15.735,-12.429 -35.324,-28.089 -38,-53.339 -1.809,-17.071 4.562,-34.231 20.297,-53.192 22.187,-24.23 49.175,-36.5 80.254,-36.5 22.343,0 41.144,6.371 53.734,10.539 l 4.25,1.41 c 5.742,1.813 11.172,3.86 16.285,5.672 12.668,4.481 23.606,8.258 30.684,8.258 1.968,0 3.933,-0.16 6.609,-1.891 -0.863,-2.75 -2.281,-6.367 -3.305,-9.117 -6.214,-15.82 -22.66,-58.07 25.887,-78.371 9.203,-3.379 19.117,-5.191 29.348,-5.191"
         style="fill:#1b2867;fill-opacity:1;fill-rule:nonzero;stroke:none"
         id="path2974" />
      <path
         d="m 156.77,1612.3 c -3.149,14.32 -0.707,19.28 0,20.46 3.382,5.04 18.332,7.48 29.265,9.21 21.008,3.38 56.02,9.04 59.797,45 4.563,51.45 -49.566,66.09 -89.062,76.87 -4.879,1.26 -9.598,2.59 -14.321,4.01 -27.222,7.71 -47.992,23.21 -58.4568,43.67 -10.3867,20.37 -10.6992,45.63 -1.1797,71.75 5.8203,13.69 10.6992,13.69 12.8242,13.69 10.9373,0 29.2693,-11.64 43.9803,-21.24 18.727,-11.88 36.43,-23.21 54.207,-23.21 11.883,0 22.504,5.11 30.371,15.18 36.035,49.8 1.336,99.21 -9.836,115.19 -19.824,28.87 -23.918,59.16 -11.328,83.24 11.645,22.18 35.957,34.85 66.563,34.85 h 3.773 c 34.227,-1.26 62.078,-15.66 74.586,-38.39 11.098,-20.3 8.973,-45.32 -6.055,-70.81 -10.859,-18.89 -43.984,-76.4 8.18,-111.88 6.297,-4.57 13.692,-6.93 21.481,-6.93 v 0 c 19.117,0 35.879,13.46 55.23,29.04 14.082,11.4 33.281,26.9 44.77,26.9 1.652,0 5.507,0 12.429,-9.2 13.453,-15.82 19.278,-30.77 17.153,-44.14 -2.754,-17.7 -18.727,-36.03 -46.184,-53.19 l -9.441,-5.66 c -29.348,-17.78 -62.469,-37.77 -68.215,-66.88 -2.438,-12.51 0.551,-25.02 8.656,-35.87 6.059,-8.34 17.547,-18.34 38.156,-18.34 11.727,0 23.606,3.23 35.172,6.22 9.52,2.52 19.274,5.11 26.512,5.11 4.957,0 8.5,0 11.883,-11.96 7.711,-27.85 -12.039,-47.2 -34.621,-66.01 l -12.903,-10.7 c -25.648,-21.32 -52.164,-43.35 -39.258,-82.06 8.418,-24.07 34.145,-24.47 49.411,-24.54 4.796,0 12.429,-0.16 15.968,-1.11 0.078,-0.63 0.078,-1.49 0.078,-2.51 -0.234,-11.1 -9.519,-33.99 -64.433,-67.19 -7.555,22.89 -17.625,51.77 -31.238,89.29 -51.297,147.13 -80.329,350.36 -92.836,437.06 -6.692,46.81 -6.692,46.81 -13.926,46.81 l -6.219,-3.15 c -7.082,-10.07 8.34,-301.65 74.981,-493.3 14.004,-38.56 25.254,-67.9 34.461,-90.8 -11.957,-2.44 -27.618,-5.03 -43.274,-5.03 -23.367,0 -39.418,5.5 -47.758,16.52 -3.144,4.09 -3.461,6.06 -3.539,6.06 0.785,2.83 8.262,9.05 12.274,12.51 11.488,9.67 30.761,25.88 22.265,50.04 -12.039,35.95 -42.484,41.3 -71.91,46.42 -5.586,0.94 -11.566,1.96 -17.859,3.22 l -3.699,0.79 c -28.797,5.51 -57.75,14.48 -66.875,54.99 z m 61.683,-99.84 c 6.766,-1.41 13.137,-2.44 19.195,-3.54 23.684,-4.17 31.317,-6.29 35.012,-12.19 -1.965,-1.81 -4.64,-4.09 -6.609,-5.75 -12.824,-10.77 -46.656,-39.26 -15.578,-80.09 17.308,-22.74 45.398,-34.3 83.476,-34.3 24.235,0 47.207,4.8 61.293,8.18 16.051,-34.15 21.477,-34.46 25.488,-34.46 2.676,0 5.118,1.26 6.692,3.22 l 3.223,1.66 c 1.968,2.75 4.566,6.92 -5.036,41.3 29.348,16.68 94.336,56.81 95.594,110.31 0.317,14.48 -3.777,26.12 -12.117,34.7 -13.77,14.31 -33.594,14.55 -48.07,14.79 -2.442,0 -5.664,0 -8.34,0.15 1.023,5.2 7.16,11.33 26.199,27.07 l 12.902,10.86 c 21.164,17.62 65.227,54.28 49.172,112.43 -8.101,28.87 -27.613,44.84 -55.152,44.84 -13.059,0 -26.277,-3.54 -38,-6.68 -8.734,-2.29 -17.781,-4.73 -23.684,-4.73 -1.808,0 -2.515,0.32 -2.75,0.79 1.571,9.36 33.672,28.72 47.364,37.06 l 9.832,6.06 c 39.496,24.54 62,52.95 66.879,84.26 4.167,27.07 -5.036,53.97 -26.36,78.91 -16.051,21.56 -34.695,26.2 -47.519,26.2 -27.301,0 -51.457,-19.51 -72.856,-36.74 -8.027,-6.53 -19.75,-15.97 -25.336,-18.57 -7.316,5.59 -13.215,14.95 7.321,50.83 22.972,38.87 25.41,80.64 6.683,114.95 -20.141,36.82 -62.152,59.95 -112.43,61.6 l -5.347,0.16 c -47.051,0 -86.781,-21.95 -106.137,-58.93 -20.379,-38.63 -15.105,-87.02 14.082,-129.58 22.977,-32.65 19.828,-48.39 13.219,-59.17 -6.688,2.44 -18.649,9.99 -26.985,15.34 -20.617,13.22 -44.062,28.09 -68.1363,28.09 -16.6015,0 -39.4961,-7.08 -54.4453,-41.93 -14.2383,-39.34 -13.2187,-77.03 2.9922,-108.66 16.207,-31.55 46.7344,-55.15 85.9144,-66.4 4.879,-1.42 9.914,-2.76 14.949,-4.17 32.492,-8.73 57.277,-16.52 56.726,-28.56 -2.832,-2.44 -15.421,-4.49 -22.972,-5.67 -19.985,-3.22 -44.926,-7.31 -59.168,-28.24 -9.598,-14.16 -11.801,-32.26 -6.688,-55.31 16.285,-72.7 76.399,-84.5 102.047,-89.54 l 3.461,-0.55"
         style="fill:#1b2867;fill-opacity:1;fill-rule:nonzero;stroke:none"
         id="path2976" />
      <path
         d="m 175.258,2682.55 c 5.508,18.57 11.094,18.57 13.769,18.57 6.688,0 16.364,-3.54 25.727,-6.92 12.195,-4.41 24.785,-8.97 37.766,-8.97 v 0 c 15.105,0 27.773,6.29 36.113,17.54 33.515,41.78 -9.047,83.01 -37.215,110.23 -4.172,4.09 -8.34,8.11 -12.512,12.35 -20.769,20.38 -31.707,44.06 -30.683,66.64 1.101,22.51 13.769,44.22 36.742,62.87 7.476,6.13 11.644,6.69 13.14,6.69 9.52,0 23.68,-25.97 32.102,-41.39 13.77,-25.33 28.008,-51.45 54.129,-51.45 v 0 c 5.191,0 10.309,1.18 14.242,2.99 54.129,21.32 49.567,76.78 47.203,106.52 -2.203,27.38 4.645,51.22 19.434,67.35 21.558,23.37 58.379,26.2 91.031,6.3 29.27,-17.86 46.422,-43.83 46.027,-69.55 -0.394,-22.98 -14.793,-43.75 -40.519,-58.3 -63.414,-35.88 -56.332,-79.47 -45.949,-103.23 4.957,-9.99 16.129,-21.95 41.386,-21.95 11.25,0 23.446,2.2 36.426,4.48 12.434,2.21 25.258,4.49 35.957,4.49 17.938,0 20.692,-5.19 22.5,-16.44 3.305,-19.75 0.473,-35.33 -8.179,-46.19 -11.332,-14.16 -34.149,-22.74 -65.54,-24.55 l -8.496,-0.31 c -34.07,-1.26 -72.777,-2.75 -92.921,-24.63 -8.497,-9.28 -12.743,-21.24 -12.036,-35.32 2.832,-32.89 35.641,-41.31 57.356,-46.82 34.461,-8.81 33.594,-12.27 30.527,-25.09 -6.531,-28.17 -32.965,-35.33 -61.84,-40.76 l -17.937,-3.46 c -31.945,-6.14 -65.07,-12.51 -72.543,-51.77 -4.723,-25.33 17.465,-38.16 30.844,-45.87 4.011,-2.28 10.382,-5.98 13.058,-8.42 -0.234,-0.55 -0.551,-1.26 -1.023,-2.04 -6.059,-9.84 -25.883,-25.81 -89.926,-28.01 4.953,24.55 11.172,56.72 19.195,99.21 26.2,151.3 101.024,341.15 132.887,422.26 18.094,45.95 18.094,45.95 13.219,50.83 -1.34,1.02 -2.992,1.65 -4.723,1.65 -18.094,0 -148.387,-281.51 -180.723,-466.87 -8.179,-43.82 -13.375,-76.63 -16.597,-101.65 -60.192,19.27 -72.227,41.46 -73.801,53.73 -0.711,5.2 0,7.16 0,7.16 1.965,2.05 11.801,3.94 17.07,4.96 14.715,2.83 39.34,7.55 44.063,32.73 7.316,37.84 -17.231,57.51 -40.992,76.63 -4.168,3.31 -8.575,6.85 -13.141,10.78 l -2.754,2.28 c -22.183,18.65 -43.43,40.68 -31.863,80.72 z m 3.543,-115.42 2.515,-2.2 c 4.879,-4.17 9.676,-7.94 14.082,-11.49 19.434,-15.57 25.098,-21.32 25.415,-28.4 -2.676,-0.71 -6.215,-1.34 -8.891,-1.81 -16.363,-3.14 -59.875,-11.48 -53.188,-61.92 5.118,-41.3 43.746,-72.62 114.004,-93.47 -1.101,-27.3 2.832,-32.25 4.723,-34.46 1.574,-1.96 5.43,-3.85 8.184,-3.54 0.785,-0.31 1.57,-0.47 2.281,-0.47 5.035,0 8.179,0.47 16.129,33.52 32.097,0.16 108.968,2.75 137.922,49.72 7.472,12.51 9.832,24.71 6.765,36.35 -4.957,19.12 -22.109,29.03 -34.621,36.27 -2.043,1.18 -4.641,2.68 -6.844,4.09 3.305,3.78 11.567,6.22 34.618,10.62 l 17.703,3.47 c 25.019,4.64 83.554,15.65 97.246,74.5 14.086,59.01 -38,72.39 -63.098,78.76 -7.476,1.97 -19.75,5.03 -23.683,7.95 0.078,0.31 0.156,0.39 0.238,0.47 7.472,8.18 42.64,9.52 61.601,10.15 l 9.129,0.39 c 45.395,2.75 78.442,16.6 98.188,41.39 16.918,21.16 22.816,48.54 17.469,81.35 -3.227,20.22 -16.211,54.21 -66.719,54.21 -14.715,0 -30.215,-2.76 -43.824,-5.12 -10.938,-1.89 -21.321,-3.77 -28.637,-3.77 -1.024,0 -1.735,0 -2.363,0.07 -3.067,8.9 -3.227,22.98 29.031,41.23 39.578,22.5 62.551,57.67 63.179,96.62 0.629,41.78 -24.625,82.29 -67.585,108.49 -50.825,30.92 -111.563,24.55 -147.282,-14.24 -23.367,-25.41 -34.461,-61.36 -31.156,-101.33 3.227,-39.97 -2.047,-52.56 -15.344,-59.56 -4.718,5.51 -11.484,17.94 -16.207,26.67 -15.734,28.87 -35.328,64.75 -71.437,64.75 -13.77,0 -27.696,-5.58 -41.387,-16.68 -33.199,-26.98 -51.613,-60.11 -53.266,-95.67 -1.652,-35.56 14.008,-71.36 43.747,-100.47 4.089,-4.17 8.496,-8.42 12.98,-12.83 22.66,-21.95 40.758,-40.83 32.258,-50.74 -5.035,0 -14.238,3.3 -22.422,6.29 -12.43,4.56 -26.516,9.68 -41.07,9.68 -19.039,0 -44.293,-8.73 -56.805,-50.83 -20.77,-71.67 26.277,-111.17 46.422,-128.01"
         style="fill:#1b2867;fill-opacity:1;fill-rule:nonzero;stroke:none"
         id="path2978" />
      <path
         d="m 3922.59,3285.46 c 12.9,-14.79 35.48,-28.95 59.95,-36.66 14.63,-4.57 29.98,-6.93 44.37,-6.93 6.06,0 15.98,0.48 25.57,2.99 -8.57,-18.17 -27.53,-28.71 -51.92,-28.71 -8.81,0 -17.94,1.49 -27.15,4.32 -18.33,5.67 -33.51,16.29 -42.56,29.82 -5.35,7.95 -10.62,20.14 -8.26,35.17 z m 38.55,47.05 c 11.96,37.84 46.42,62.94 57.91,59.4 2.91,-0.94 5.66,-1.02 8.02,-0.55 1.73,-1.73 4.01,-3.3 6.93,-4.25 2.28,-0.71 6.05,-3.93 9.83,-10.86 7.87,-15.02 12.43,-43.58 3.93,-70.88 -3.85,-12.51 -10.07,-23.69 -17.38,-33.29 -1.18,0 -2.21,-0.15 -3.54,-0.15 -11.49,0 -23.84,1.89 -35.49,5.58 -14.95,4.72 -26.91,11.49 -35.25,17.78 -0.47,11.96 1.26,24.71 5.04,37.22 z m -23.37,-128.17 c -0.63,-0.78 -1.26,-1.57 -2.04,-2.75 -4.25,-5.66 -8.97,-10.39 -14.24,-13.93 -6.77,-4.72 -8.42,-14 -3.86,-20.77 2.91,-4.25 7.63,-6.53 12.35,-6.53 2.91,0 5.9,0.87 8.42,2.6 7.95,5.43 15.11,12.43 21.4,20.85 2.28,3.22 4.02,5.51 5.27,7.95 11.73,-3.62 23.76,-5.51 35.41,-5.51 40.44,0 72.22,21.63 83,56.41 6.06,19.35 -3.38,33.36 -9.99,38.63 -0.78,0.63 -1.65,0.71 -2.52,1.18 1.89,4.56 3.78,9.28 5.2,14.08 9.75,31.24 7.47,67.98 -5.98,93.63 -5.43,10.31 -12.36,18.02 -20.22,22.42 -1.26,4.57 -4.02,11.18 -11.65,13.46 -7.63,2.59 -13.69,-0.79 -17.86,-4.17 -31.78,2.44 -73.4,-34.23 -87.88,-80.33 -1.57,-4.88 -2.75,-9.68 -3.78,-14.56 -1.02,0.08 -1.88,0.63 -2.91,0.55 -8.42,-0.47 -24.23,-6.53 -30.29,-25.88 -7.24,-23.13 -3.62,-47.37 10.31,-67.98 8.02,-11.72 18.96,-21.48 31.86,-29.35"
         style="fill:#1b2867;fill-opacity:1;fill-rule:nonzero;stroke:none"
         id="path2980" />
      <path
         d="m 3746.67,3025.67 c 11.09,16.76 18.01,42.72 18.56,67.58 0.48,25.49 -5.58,51.46 -15.5,68.37 27.54,-4.8 46.27,-32.57 45.32,-69.08 -0.78,-36.42 -20.77,-63.49 -48.38,-66.87 z m -55.79,23.76 c -28.56,0.63 -54.13,14.16 -65.85,26.43 -5.43,5.75 -7.32,10.39 -7.32,12.59 0.16,3.15 -0.47,5.75 -1.65,8.03 1.26,2.12 1.97,4.64 1.97,7.71 0.39,12.35 35.4,36.74 74.74,36.03 13.3,-0.31 25.89,-3.22 37.14,-7.63 3.22,-9.91 5.74,-23.13 5.43,-38.63 -0.4,-15.97 -3.62,-29.27 -7.48,-39.1 -11.33,-3.78 -23.92,-5.75 -36.98,-5.43 z m 133.99,41.85 c 2.68,0.56 5.51,1.34 9.28,2.6 9.6,3.15 18.49,7.63 26.44,13.45 6.69,4.88 8.1,14.25 3.15,20.93 -4.96,6.69 -14.16,8.11 -20.85,3.23 -5.27,-3.94 -11.49,-6.93 -17.94,-9.05 -1.42,-0.47 -2.36,-0.79 -3.38,-1.1 -9.21,40.99 -39.81,70.02 -79.86,70.97 -19.43,0 -29.9,-12.75 -32.97,-20.3 -0.39,-0.95 -0.31,-1.97 -0.39,-3.07 -4.88,0.63 -9.91,1.02 -14.95,1.1 -48.54,0.94 -96.22,-26.2 -104.17,-57.43 -4.01,-2.44 -9.75,-7.16 -9.75,-15.35 -0.24,-7.86 4.72,-12.58 8.96,-15.57 1.66,-8.89 6.77,-18.02 14.87,-26.44 19.99,-20.93 54.06,-34.93 86.71,-35.64 1.26,0 2.28,0 3.38,0 3.93,0 7.79,0.16 11.49,0.47 0.23,-0.94 0,-1.89 0.39,-2.83 2.83,-7.95 13.14,-21.32 33.44,-21.72 0.08,0 1.89,0 1.97,0 47.44,-0.15 82.76,40.21 84.18,95.75"
         style="fill:#1b2867;fill-opacity:1;fill-rule:nonzero;stroke:none"
         id="path2982" />
      <path
         d="m 3929.2,2279.57 c -1.81,7.71 -1.1,12.59 0,14.63 1.65,2.6 2.36,5.2 2.44,7.71 2.12,1.26 4.17,3.07 5.58,5.83 6.37,10.46 48.78,14.47 82.77,-5.98 11.33,-6.77 21.01,-15.19 28.56,-24.55 -2.04,-10.31 -6.45,-23.21 -14.63,-36.74 -8.26,-13.54 -17.71,-23.53 -25.81,-30.22 -11.8,2.36 -23.76,6.93 -34.85,13.62 -24.39,14.71 -39.89,39.25 -44.06,55.7 z m 168.13,-19.2 c 2.12,-16.13 -2.12,-34.14 -12.12,-50.75 -18.17,-30.29 -49.96,-44.92 -75.45,-33.98 17.39,8.73 36.43,27.06 49.81,49.33 13.21,21.95 20.77,47.52 20.61,67.19 11.72,-9.68 15.89,-22.27 17.15,-31.79 z m -109.28,-107.16 c 12.35,-7.55 25.8,-11.33 39.97,-11.33 32.02,0 62.78,19.44 82.45,51.77 2.67,-0.78 5.43,-1.49 9.36,-2.28 6.45,-1.41 12.83,-2.04 19.28,-2.04 3.46,0 6.84,0.23 10.31,0.63 8.18,0.94 14,8.33 13.06,16.6 -0.95,8.18 -8.5,14.16 -16.61,13.06 -6.45,-0.79 -13.13,-0.48 -19.82,1.1 -1.42,0.31 -2.44,0.47 -3.46,0.78 4.48,14.32 6.21,28.96 4.4,42.88 -3.38,24.55 -16.6,45.09 -37.53,57.6 -6.29,3.85 -12.98,5.82 -19.75,5.82 -11.17,0 -18.48,-5.2 -19.9,-6.38 -0.79,-0.62 -1.26,-1.65 -1.89,-2.43 -3.93,2.99 -8.18,5.82 -12.51,8.41 -41.15,24.79 -96.38,24.94 -118.88,1.81 -4.72,-0.15 -11.96,-1.33 -16.13,-8.41 -4.09,-6.77 -2.2,-13.3 0.08,-18.02 -2.91,-8.58 -3.07,-18.96 -0.32,-30.29 7.01,-28.09 29.59,-57.28 57.68,-74.04 4.24,-2.59 8.65,-4.88 13.13,-7.08 -0.31,-0.86 -0.94,-1.65 -1.1,-2.6 -1.33,-8.33 0.87,-25.09 18.18,-35.56"
         style="fill:#1b2867;fill-opacity:1;fill-rule:nonzero;stroke:none"
         id="path2984" />
      <path
         d="m 4418.65,2352.74 c 2.12,-2.44 4.64,-4.01 7.08,-4.8 0.63,-2.44 1.81,-4.88 4.01,-7.24 1.66,-1.73 3.39,-6.37 3.07,-14.24 -0.47,-16.99 -10.46,-44.14 -31.31,-63.73 -9.44,-8.89 -20.14,-15.89 -31.16,-20.69 -9.68,4.96 -21,12.82 -31.55,24.07 -10.78,11.49 -17.86,23.21 -22.11,32.81 5.51,10.7 13.22,21.09 22.9,30.06 28.79,27.14 71.04,32.18 79.07,23.76 z m -123.6,-127.46 c -14.87,15.82 -23.21,35.17 -22.58,53.03 0.31,10.78 3.85,20.46 10.23,28.56 3.77,-19.2 16.52,-42.25 34.22,-61.21 17.55,-18.65 40.13,-32.81 59.01,-37.77 -22.74,-15.89 -56.81,-8.1 -80.88,17.39 z m 13.53,114.63 c -0.87,0.71 -1.5,1.58 -2.44,1.97 -1.42,0.71 -6.37,2.83 -13.37,2.83 -6.61,0 -16.29,-1.81 -25.5,-10.7 -15.5,-14.47 -24.07,-33.51 -24.62,-54.83 -0.47,-16.92 4.25,-34.31 13.29,-50.44 -0.94,-0.47 -1.73,-0.86 -3.06,-1.41 -5.98,-2.76 -12.43,-4.49 -19.12,-5.2 -8.18,-0.78 -14.24,-8.1 -13.46,-16.28 0.79,-7.79 7.24,-13.53 14.87,-13.53 0.48,0 0.95,0.07 1.5,0.15 9.91,0.95 19.59,3.54 28.56,7.56 3.7,1.65 6.21,2.91 8.65,4.32 21.09,-22.26 48.23,-35.01 74.67,-35.01 20.22,0 38.71,7.4 53.42,21.24 14.79,14.01 13.45,30.85 10.31,38.56 -0.4,0.86 -1.1,1.41 -1.66,2.12 3.94,3.07 7.71,6.29 11.41,9.68 23.92,22.42 39.97,55.62 40.76,84.5 0.39,11.72 -1.81,21.71 -6.53,29.5 1.18,4.49 1.96,11.65 -3.46,17.47 -5.35,5.98 -12.44,6.06 -17.71,5.11 -26.35,18.02 -80.64,6.3 -116.05,-26.83 -3.69,-3.38 -7.23,-6.92 -10.46,-10.78"
         style="fill:#1b2867;fill-opacity:1;fill-rule:nonzero;stroke:none"
         id="path2986" />
      <path
         d="m 3903.86,1290.44 c -13.53,-7.87 -27.85,-11.89 -41.46,-11.89 -17.23,0 -31.31,6.54 -40.91,18.49 19.67,-0.94 45.47,6.61 67.42,19.28 22.43,12.98 41.15,31.39 50.44,48.7 11.48,-28.87 -8.19,-58.77 -35.49,-74.58 z m -102.67,136.58 c 1.97,7.71 5.03,11.64 7.08,12.82 2.75,1.5 4.48,3.47 5.82,5.43 2.44,0.16 5.04,0.79 7.71,2.28 10.62,6.14 49.65,-10.77 69.63,-45.08 6.61,-11.48 10.94,-23.6 13.06,-35.4 -6.84,-8.03 -16.91,-17.08 -30.45,-24.87 -13.69,-7.86 -27.22,-11.72 -37.76,-13.53 -8.97,7.63 -17,17.23 -23.37,28.4 -14.32,24.71 -16.13,53.58 -11.72,69.95 z m 160.82,-40.44 c -6.85,11.8 -18.42,18.88 -31.08,18.88 -0.79,0 -3.15,-0.16 -4.01,-0.23 -1.11,-0.24 -1.89,-0.87 -2.84,-1.26 -2.04,4.56 -4.32,9.05 -6.92,13.37 -24.08,41.7 -72.23,68.37 -103.15,59.17 -4.25,2.2 -11.25,4.72 -18.01,0.47 -6.93,-3.86 -8.5,-10.54 -8.82,-15.81 -6.76,-6.06 -11.8,-14.95 -14.87,-26.36 -7.55,-28.01 -1.73,-64.36 14.64,-92.68 2.44,-4.49 5.19,-8.5 8.18,-12.59 -0.79,-0.63 -1.65,-0.95 -2.12,-1.65 -5.28,-6.61 -11.49,-22.27 -1.34,-39.81 14.4,-25.02 40.2,-39.5 70.73,-39.5 18.73,0 38.08,5.35 55.94,15.66 1.97,-1.97 4.09,-4.02 7.08,-6.53 7.55,-6.61 15.97,-11.81 25.1,-15.58 1.81,-0.79 3.78,-1.26 5.74,-1.26 5.82,0 11.41,3.54 13.77,9.28 3.15,7.71 -0.55,16.37 -8.18,19.59 -6.06,2.44 -11.8,5.98 -16.92,10.47 -1.18,1.02 -1.89,1.65 -2.67,2.28 30.21,29.42 39.26,70.34 19.75,104.09"
         style="fill:#1b2867;fill-opacity:1;fill-rule:nonzero;stroke:none"
         id="path2988" />
      <path
         d="m 4265.54,1227.1 c -8.73,-14.56 -30.76,-33.36 -58.38,-40.28 -12.58,-3.23 -25.33,-4.17 -37.37,-2.91 -5.82,8.73 -11.96,21 -15.81,36.42 -3.86,15.03 -4.33,28.56 -3.38,38.95 10.14,6.84 21.63,12.35 34.53,15.58 38.4,9.52 77.82,-6.61 80.81,-18.1 0.63,-3.15 1.96,-5.51 3.69,-7.39 -0.62,-2.44 -0.78,-5.2 0,-8.19 0.71,-2.44 -0.07,-7.31 -4.09,-14.08 z m -169.47,-21.24 c -4.8,18.72 -3.7,37.21 3.15,52 4.09,8.66 11.56,19.59 25.73,25.34 -5.9,-18.65 -6.14,-45.4 0,-70.18 5.82,-23.21 18.33,-47.6 33.12,-61.77 -28.17,-3.06 -53.34,19.6 -62,54.61 z m 196.3,64.91 c -14.4,28.56 -67.42,44.69 -114.39,33.12 -4.88,-1.18 -9.68,-2.68 -14.4,-4.41 -0.4,0.95 -0.55,1.97 -1.1,2.76 -5.43,7.86 -20.62,16.6 -37.85,12.27 -23.52,-5.98 -42.25,-21.64 -52.55,-44.22 -5.98,-12.74 -8.58,-27.3 -8.5,-42.32 -1.02,0 -1.97,0.15 -3.46,0.31 -6.93,0.55 -13.22,2.12 -19.2,4.88 -7.55,3.3 -16.44,0 -19.83,-7.71 -3.38,-7.55 0,-16.29 7.63,-19.67 8.97,-4.09 18.65,-6.53 28.8,-7.4 3.86,-0.39 6.77,-0.63 9.44,-0.63 0.08,0 0.24,0 0.24,0 11.64,-45.94 46.1,-76.86 85.76,-76.86 6.45,0 12.98,0.78 19.35,2.43 19.67,4.88 26.75,20.3 27.85,28.49 0.16,1.02 -0.31,1.96 -0.31,2.99 4.88,0.7 9.75,1.57 14.63,2.75 31.79,8.02 61.92,29.11 76.79,53.97 6.06,9.99 8.89,19.91 8.66,29.03 3.22,3.31 7.39,9.21 5.35,16.76 -1.74,8.18 -7.87,11.65 -12.91,13.46"
         style="fill:#1b2867;fill-opacity:1;fill-rule:nonzero;stroke:none"
         id="path2990" />
      <path
         d="m 3227.32,642.051 c 16.36,-9.992 41.38,-16.121 68.13,-16.121 v 0 c 25.96,0.39 51.3,7.39 67.74,17.929 -3.7,-27.687 -30.84,-47.277 -67.27,-47.75 h -1.41 c -31,-0.078 -62.47,15.731 -67.19,45.942 z m 45.71,123.449 c 5.5,5.59 10.15,7.711 12.35,7.711 3.15,0 5.74,0.789 7.95,1.969 1.96,-1.098 4.48,-1.66 7.16,-1.66 0.23,0 0.39,0 0.7,0 12.43,0 38.08,-33.911 38.63,-73.481 0.16,-13.219 -2.2,-25.891 -6.21,-37.367 -9.99,-3.703 -23.6,-6.613 -39.97,-6.93 -15.03,0 -27.85,2.68 -37.53,5.977 -4.33,11.332 -6.92,23.84 -7.16,37.062 -0.31,28.399 12.28,54.52 24.08,66.719 z m 53.81,-198.352 c -0.47,1.344 -0.86,2.364 -1.26,3.313 40.68,10.859 68.53,42.008 68.06,81.109 -0.24,20.219 -13.53,30.61 -21.32,33.442 -1.1,0.398 -2.13,0.238 -3.15,0.398 0.39,4.871 0.71,9.988 0.55,15.02 -0.79,48.07 -29.74,95.121 -61.13,102.05 -2.52,3.7 -7.24,9.2 -15.19,9.2 -8.02,-0.391 -12.9,-5.032 -15.65,-9.598 -8.89,-1.961 -17.7,-7.473 -25.89,-15.73 -20.22,-20.77 -33.04,-55.313 -32.65,-88.043 0.16,-5.039 0.47,-9.989 1.1,-14.868 -0.94,-0.16 -1.81,0 -2.75,-0.39 -7.87,-3.153 -20.85,-13.93 -20.61,-34.071 0.55,-47.289 42.56,-82.851 97.71,-82.851 0.08,0 0.79,0 1.26,0 0.71,-2.598 1.58,-5.348 2.91,-9.047 3.54,-9.672 8.26,-18.41 14.48,-25.961 2.91,-3.699 7.24,-5.59 11.64,-5.59 3.23,0 6.61,1.098 9.37,3.309 6.37,5.191 7.39,14.629 2.2,21.082 -4.17,4.879 -7.4,10.699 -9.68,17.226"
         style="fill:#1b2867;fill-opacity:1;fill-rule:nonzero;stroke:none"
         id="path2992" />
      <path
         d="m 3590.33,370.07 c -1.65,-1.808 -3.07,-4.172 -3.85,-7.16 -0.63,-2.359 -3.7,-6.219 -10.62,-10.23 -14.79,-8.34 -43.12,-14.09 -70.66,-6.532 -12.58,3.383 -23.99,9.122 -33.98,16.211 -0.79,10.379 -0.16,23.84 4.01,39.02 4.17,15.18 10.46,27.301 16.28,35.883 12.12,1.019 25.02,-0.242 37.69,-3.621 38.24,-10.469 64.67,-43.832 61.53,-55.391 -0.87,-2.91 -0.87,-5.668 -0.4,-8.18 z m -145.24,-30.851 c -9.44,4.101 -17.15,11.019 -22.5,20.301 -8.89,15.5 -10.62,36.589 -4.88,57.75 8.74,31.949 31.79,53.582 57.44,53.582 1.81,0 3.85,-0.161 5.66,-0.391 -15.02,-14.082 -28.01,-38.242 -34.46,-61.129 -6.61,-24.711 -6.92,-51.383 -1.26,-70.113 z m 91.98,123.371 c -4.88,1.262 -9.68,2.281 -14.64,3.07 0.08,1.102 0.48,2.051 0.32,3.07 -0.79,8.418 -7.55,23.84 -26.99,29.11 -6.84,1.89 -13.92,2.832 -20.85,2.832 -30.6,0 -58.22,-18.652 -74.82,-48.231 -0.86,0.469 -1.65,1.098 -2.83,1.809 -5.59,3.781 -10.54,8.422 -14.56,13.691 -4.87,6.61 -14.32,7.95 -20.92,2.911 -6.61,-5.032 -7.87,-14.321 -2.92,-20.93 6.06,-8.024 13.38,-14.793 21.64,-20.453 3.23,-2.207 5.67,-3.86 8.1,-5.117 -7.63,-28.563 -4.79,-57.672 7.95,-79.852 10.62,-18.41 26.99,-31.078 47.37,-36.75 3.69,-0.941 7.31,-1.41 10.93,-1.41 13.06,0 22.9,6.922 27.38,12.902 0.55,0.789 0.63,1.649 1.1,2.598 4.64,-1.809 9.29,-3.391 14.16,-4.719 11.26,-3.07 23.21,-4.57 35.02,-4.57 21.32,0 42.17,4.801 58.3,14.09 10.07,5.82 17.46,12.98 21.71,21.16 4.49,1.34 10.94,4.41 13.06,12.269 2.13,7.711 -1.41,13.539 -4.88,17.551 1.5,31.938 -36.98,72.149 -83.63,84.969"
         style="fill:#1b2867;fill-opacity:1;fill-rule:nonzero;stroke:none"
         id="path2994" />
      <path
         d="m 3258.79,370.07 c -12.44,-23.058 -37.93,-36.429 -70.34,-36.429 -2.83,0 -5.75,0.16 -8.97,0.39 -5.11,0.399 -10.15,0.551 -14.87,0.551 -17.39,0 -70.42,0 -90.64,-54.363 -13.45,-36.117 24.47,-54.289 52.09,-67.508 15.97,-7.711 40.28,-19.27 42.88,-29.27 1.26,-4.871 -3.39,-12.429 -5.59,-15.652 -19.51,-25.488 -43.27,-38.949 -68.76,-38.949 -21.8,0 -44.69,10.07 -64.68,28.25 -3.62,3.301 -7.24,6.68 -10.93,10.152 -24.71,23.438 -50.44,47.598 -80.73,47.598 -11.88,0 -23.13,-3.86 -33.36,-11.488 -28.79,-21.95 -15.1,-55.391 -6.84,-75.372 4.48,-11.101 10.15,-24.789 7.55,-30.6089 -1.65,-3.6211 -8.42,-7.7891 -18.01,-11.0898 -8.66,-2.9102 -17.16,-4.4922 -24.87,-4.4922 -28.64,0 -47.28,20.2229 -59.48,33.5199 l -2.67,2.992 c -4.49,4.719 -8.5,9.281 -12.43,13.609 -17.86,20.301 -34.7,39.34 -63.34,39.34 -4.8,0 -9.68,-0.629 -14.47,-1.648 -25.65,-5.352 -29.51,-30.692 -31.71,-45.641 -0.87,-5.43 -2.28,-15.5 -4.25,-17.461 0,-0.078 -2.91,-0.871 -7.71,-0.398 -15.74,1.66 -38.08,16.128 -58.62,73.019 11.33,1.649 23.14,3.539 35.72,5.5 191.5,33.84 462.39,162.789 467.19,176.867 0.32,1.102 0.47,2.133 0.32,3.231 0,0.863 -0.32,1.57 -0.56,2.281 -0.39,0.711 -0.78,1.41 -1.33,1.969 -1.42,1.57 -3.39,2.433 -5.51,2.433 -2.12,0 -2.12,0 -23.68,-8.492 -68.84,-27.148 -278.36,-109.988 -443.82,-139.031 -12.67,-1.957 -24.16,-3.93 -35.01,-5.66 -0.32,65.222 14.79,85.441 24.31,91.582 1.34,0.789 2.2,1.258 2.59,1.57 2.76,-2.281 7.24,-9.359 9.92,-13.84 9.05,-14.32 21.4,-35.25 47.52,-29.672 40.28,9.051 45.16,44.141 49.88,78.051 l 2.36,16.531 c 4.49,29.891 10.78,57.348 39.26,65.528 13.3,3.703 17.15,3.621 27.3,-30.289 6.93,-22.969 16.29,-54.36 49.02,-57.039 15.03,-1.262 27.38,3.379 37.06,13.058 20.61,20.621 20.37,59.012 20.22,93 v 11.641 c 0.39,78.84 40.36,78.84 55.38,78.84 4.65,0 9.37,-0.399 15.5,-1.258 9.37,-0.793 11.81,-3.703 12.59,-4.723 7.4,-9.129 4.09,-35.801 1.65,-55.23 -3.85,-31.078 -8.18,-66.168 21.4,-78.289 9.21,-3.77 18.26,-5.739 27.15,-5.739 37.68,0 60.27,33.36 73.8,58.219 15.58,27.93 37.92,43.43 63.02,43.43 25.33,0 50.59,-15.969 69,-43.899 17.78,-26.601 20.93,-56.41 8.5,-79.621 z m -77.58,168.442 c -41.46,0 -78.68,-24.231 -102.28,-66.563 -12.82,-23.679 -24.15,-35.008 -34.46,-35.008 -1.89,0 -4.09,0.321 -6.45,1.02 -0.87,7.008 1.02,22.191 2.28,32.66 3.78,30.52 8.1,65.141 -11.33,88.981 -10.15,12.507 -24.86,19.668 -42.41,21.089 -75.61,10.301 -120.45,-35.41 -120.77,-122.031 v -11.961 c 0.08,-16.597 0.24,-55.148 -8.26,-61.367 -3.38,2.598 -7.71,16.918 -10.23,25.41 -7.16,23.84 -18.96,63.649 -61.37,63.649 -6.53,0 -13.61,-1.102 -21.08,-3.141 -58.85,-16.758 -67.27,-74.352 -71.44,-102.129 l -2.44,-16.91 c -3.62,-26.441 -5.66,-34.859 -9.99,-38.242 -1.65,2.363 -3.54,5.351 -5.04,7.711 -8.65,13.929 -21.95,34.851 -47.05,34.851 -9.04,0 -18.25,-2.91 -27.53,-8.73 -43.98,-28.242 -45.95,-100.942 -45.01,-137.211 -98.97,-18.258 -98.58,-25.969 -98.03,-32.809 0.08,-0.633 0.16,-1.179 0.32,-1.73 0,-1.102 0.15,-2.129 0.47,-3.231 2.28,-7.16 11.49,-7.711 21.64,-7.711 16.12,0 43.66,2.52 82.21,7.711 23.37,-69 56.57,-106.6091 98.98,-111.0114 2.83,-0.3984 5.59,-0.4688 8.18,-0.4688 44.22,0 50.2,39.3322 52.64,56.1722 0.47,2.679 1.1,6.367 1.65,9.129 0.08,0 0.16,0 0.24,0 8.18,0 15.81,-8.262 29.81,-24.161 4.17,-4.7183 8.5,-9.5894 13.22,-14.7105 l 2.44,-2.5898 c 14.32,-15.5 44.14,-47.918 92.53,-47.918 12.74,0 25.96,2.2774 39.33,6.8477 22.74,7.7109 37.3,19.1094 44.38,34.9297 10.62,23.3709 0.94,47.1989 -6.93,66.2499 -2.99,7.231 -8.02,19.352 -7.55,22.422 2.83,2.121 4.8,2.441 6.3,2.441 12.51,0 34.22,-20.461 49.96,-35.332 3.85,-3.699 7.71,-7.238 11.4,-10.699 28.17,-25.8124 61.92,-40.0507 95.05,-40.0507 27.85,0 68.52,9.8399 104.87,57.3597 13.06,18.57 17.39,36.582 12.91,53.66 -7.95,29.969 -39.18,45 -66.96,58.219 -9.12,4.48 -22.34,10.781 -27.85,15.183 6.06,13.379 17.15,21.328 47.13,21.328 3.93,0 7.94,-0.16 11.88,-0.32 54.76,-3.852 100,18.879 121.71,59.48 20.46,38.079 16.45,85.129 -10.62,125.879 -27.06,40.371 -65.77,63.653 -106.45,63.653"
         style="fill:#1b2867;fill-opacity:1;fill-rule:nonzero;stroke:none"
         id="path2996" />
      <path
         d="m 3994.5,870.461 c -8.81,-60.672 -47.6,-88.832 -107.08,-73.332 -5.35,1.262 -10.94,2.75 -16.6,4.25 -19.51,5.109 -39.73,10.383 -58.38,10.383 -37.21,0 -50.98,-21.953 -55.86,-34.93 -12.83,-32.973 13.61,-54.051 31.15,-67.82 9.05,-7.403 20.54,-16.442 21.33,-22.973 0.39,-4.25 -2.99,-11.18 -8.66,-18.098 -13.53,-14.793 -29.03,-21.949 -47.2,-21.949 -15.03,0 -29.19,4.719 -39.58,8.18 l -4.4,1.418 c -5.35,1.808 -10.55,3.691 -15.35,5.269 -16.52,5.903 -30.92,11.012 -45.63,11.012 -15.5,0 -29.5,-5.82 -40.99,-16.992 -18.8,-17.469 -9.6,-41.07 -4.09,-55.149 1.89,-5.039 5.58,-14.558 5.11,-17 -0.31,-0.468 -1.89,-1.808 -5.43,-3.378 -20.53,-7.872 -48.93,3.539 -83.63,32.89 20.53,16.746 45,38.227 73.72,64.43 143.82,128.09 308.65,379.698 306.05,394.328 -0.47,2.52 -2.28,4.88 -4.79,5.75 -0.87,0.31 -1.74,0.47 -2.68,0.47 -4.01,0 -4.01,0 -17.39,-17.7 -119.67,-159.008 -223.44,-277.809 -308.49,-353.418 -30.37,-27.852 -53.42,-49.172 -71.2,-65.93 -35.17,60.418 -29.35,84.18 -24.55,92.359 0.71,1.18 1.26,1.969 1.41,2.438 3.39,-0.778 10.15,-4.321 14.4,-6.61 9.29,-4.867 19.83,-10.461 31.55,-10.461 8.81,0 16.92,3.071 23.68,9.364 28.09,27.148 16.29,58.297 4.88,88.508 l -6.29,16.761 c -10.15,27.071 -17.63,52.867 4.48,74.508 4.56,5.043 7.95,6.852 9.36,6.852 5.83,0 17.71,-11.571 25.5,-19.121 14.08,-13.688 30.05,-29.188 50.98,-29.188 6.69,0 13.14,1.648 19.35,4.879 11.96,6.129 20.14,15.969 23.84,28.16 8.42,28.481 -10.3,62 -26.83,91.5 l -3.93,6.93 c -15.18,29.109 -19.83,53.659 -13.37,70.969 4.87,12.9 15.97,22.58 34.69,29.89 3.86,1.65 7.32,2.44 9.99,2.44 12.51,0 22.58,-25.57 30.61,-46.1 10.62,-26.99 22.58,-57.52 52.16,-57.52 l 4.33,0.321 c 41.54,5.429 63.26,36.269 64.12,92.839 -1.26,24.15 4.88,43.9 17.55,57.2 20.3,21.32 57.75,23.36 93.94,4.64 27.69,-14.16 43.51,-37.37 43.59,-63.49 0.15,-27.54 -18.1,-53.66 -47.37,-69 -36.43,-16.21 -77.02,-41.779 -68.21,-94.65 2.83,-23.129 21.48,-34.86 55.15,-34.86 6.92,0 14.32,0.399 22.03,0.79 7.32,0.39 14.79,0.789 22.19,0.789 21.16,0 27.38,-3.7 29.34,-5.829 1.81,-2.281 2.44,-7.871 1.5,-15.019 z m -31,65.769 c -8.02,0 -16.29,-0.468 -24.47,-0.941 -13.22,-0.629 -26.51,-0.789 -31.15,0 -1.11,12.981 4.17,25.801 44.05,43.742 45.56,23.919 72.86,64.829 72.7,109.519 -0.15,42.8 -25.41,81.43 -67.82,103.22 -53.89,27.78 -113.29,21.88 -147.12,-13.61 -21.33,-22.34 -31.55,-53.66 -29.9,-88.82 -0.63,-39.66 -12.9,-45.48 -20.93,-47.13 -4.01,5.35 -9.28,19.12 -13.06,28.64 -12.35,31.39 -29.27,74.5 -72.38,74.5 -8.58,0 -17.86,-1.96 -26.75,-5.66 -30.45,-11.8 -50.59,-30.61 -59.96,-55.78 -11.25,-30.06 -5.98,-66.25 15.82,-107.871 l 4.25,-7.629 c 6.68,-11.879 26.35,-47.289 21.71,-57.359 -4.64,2.281 -13.29,10.781 -18.72,15.969 -14.64,14.171 -32.73,31.789 -56.73,31.789 -15.34,0 -29.74,-7.399 -41.7,-20.61 -43.82,-42.879 -22.97,-97.879 -14.08,-121.398 l 6.29,-16.762 c 8.26,-21.949 10.55,-30.449 9.21,-35.328 -2.13,1.098 -4.57,2.359 -6.45,3.379 -10,5.199 -22.27,11.808 -36.35,11.808 -11.57,0 -27.85,-4.488 -39.42,-25.179 -28.56,-48.86 14.48,-120.61 30.29,-146.34 -25.49,-25.258 -24.78,-28.008 -23.52,-32.258 0.39,-1.101 1.1,-2.59 2.59,-3.769 0.63,-1.114 1.26,-1.973 1.97,-2.602 1.42,-1.102 5.03,-2.129 6.77,-2.129 6.37,0 17.86,5.668 33.83,16.84 21.63,-19.43 63.17,-52.16 106.92,-52.16 10.23,0 20.14,1.808 29.82,5.578 48.07,19.992 31.63,62.32 25.41,78.133 -1.18,2.75 -2.52,6.449 -3.3,9.207 2.59,1.652 4.64,1.812 6.61,1.812 7.08,0 18.01,-3.859 30.68,-8.269 5.11,-1.801 10.54,-3.852 16.44,-5.742 l 4.09,-1.34 c 12.59,-4.239 31.48,-10.539 53.82,-10.539 31.08,0 57.99,12.269 80.96,37.449 14.87,18.019 21.32,35.172 19.51,52.242 -2.75,25.18 -22.26,40.758 -38,53.348 -6.06,4.879 -16.29,12.902 -17.07,16.761 1.02,2.75 2.28,6.051 13.92,6.051 12.91,0 30.29,-4.562 47.21,-8.89 5.98,-1.653 11.88,-3.141 17.07,-4.403 13.85,-3.617 27.38,-5.347 40.36,-5.347 64.91,0 111.65,44.289 122.11,116.046 2.83,21.243 -1.42,38.231 -12.43,50.821 -16.44,18.492 -42.41,21.011 -63.1,21.011"
         style="fill:#1b2867;fill-opacity:1;fill-rule:nonzero;stroke:none"
         id="path2998" />
      <path
         d="m 4378.52,1811.52 c -10.46,-20.46 -31.15,-35.96 -58.53,-43.83 -4.64,-1.26 -9.36,-2.59 -14.24,-3.93 -39.42,-10.7 -93.47,-25.26 -88.99,-77.1 3.7,-35.65 38.79,-41.23 59.8,-44.69 10.93,-1.73 25.8,-4.25 29.27,-9.13 0.78,-1.26 3.14,-6.14 0,-20.38 -9.05,-40.75 -38.08,-49.64 -67.04,-55.31 l -3.7,-0.71 c -6.29,-1.33 -12.19,-2.28 -17.85,-3.38 -29.43,-5.03 -59.88,-10.38 -71.76,-46.1 -8.57,-24.47 10.62,-40.6 22.11,-50.28 4.09,-3.46 11.64,-9.75 12.27,-12.27 0,0 -0.23,-1.97 -3.54,-6.3 -8.26,-11.01 -24.47,-16.6 -47.75,-16.6 -15.66,0 -31.32,2.6 -43.28,5.12 9.29,22.81 20.54,52.16 34.46,90.71 66.57,191.66 82.06,483.32 74.9,493.31 l -6.13,3.07 c -7.32,0 -7.32,0 -14.01,-46.58 -12.35,-86.86 -41.38,-290 -92.76,-437.05 -13.69,-37.61 -23.76,-66.56 -31.31,-89.46 -54.92,33.28 -64.04,56.1 -64.36,67.19 0,1.1 0,1.97 0.08,2.6 3.62,0.94 11.17,1.1 15.89,1.1 15.34,0.24 40.99,0.55 49.65,24.94 12.74,38.32 -13.77,60.43 -39.42,81.67 l -12.75,10.7 c -22.65,18.8 -42.4,38.08 -34.61,66.01 3.3,11.96 6.92,11.96 11.8,11.96 7.24,0 17.07,-2.6 26.51,-5.04 11.57,-3.07 23.45,-6.29 35.09,-6.29 20.62,0 32.1,10.07 37.93,18.09 8.26,11.1 11.33,23.69 8.73,36.27 -5.59,28.96 -38.87,49.02 -68.06,66.8 l -9.36,5.59 c -27.54,17.23 -43.51,35.48 -46.26,53.18 -2.05,13.54 3.7,28.33 18.09,45.32 5.98,8.03 9.84,8.03 11.49,8.03 11.41,0 30.68,-15.5 44.69,-26.83 19.35,-15.58 36.11,-29.11 55.23,-29.11 7.79,0 15.19,2.44 20.85,6.61 52.71,35.79 19.67,93.46 8.65,112.5 -14.87,25.26 -16.99,50.44 -5.9,70.58 12.43,22.81 40.37,37.21 74.51,38.31 l 3.86,0.16 c 30.6,0 54.83,-12.74 66.56,-35.01 12.59,-24 8.49,-54.21 -11.17,-82.93 -11.49,-16.2 -46.11,-65.53 -9.45,-116.2 7.32,-9.29 17.94,-14.56 29.82,-14.56 17.86,0 35.49,11.41 54.21,23.37 14.79,9.36 33.05,21.08 43.98,21.08 2.05,0 6.93,0 12.36,-12.27 10.07,-27.38 9.91,-52.71 -0.56,-72.93 z m -332.8,-450.59 c 0.39,0.39 0.79,0.94 1.18,1.42 0.23,-0.32 0.71,-0.55 0.86,-1.1 z m 321.24,580.72 c -24.08,0 -47.52,-14.87 -68.14,-28.09 -8.26,-5.27 -20.29,-12.9 -26.98,-15.34 -6.69,11.25 -9.44,26.99 13.37,59.4 29.03,42.33 34.31,90.72 14.01,129.42 -19.44,36.98 -59.09,58.93 -106.3,58.93 l -5.35,-0.15 c -50.19,-1.73 -92.21,-24.79 -112.35,-61.61 -18.72,-34.3 -16.28,-76.08 6.61,-114.71 20.22,-35.09 15.03,-44.92 7.63,-50.9 -6.13,2.83 -17.62,12.03 -25.41,18.41 -21.4,17.23 -45.63,36.74 -73.01,36.74 -12.75,0 -31.4,-4.56 -46.42,-24.94 -22.35,-26.2 -31.55,-53.11 -27.46,-80.17 4.88,-31.32 27.38,-59.8 66.95,-84.35 l 9.84,-5.98 c 13.69,-8.26 45.79,-27.69 47.2,-37.52 0,0 -0.78,-0.32 -2.59,-0.32 -5.82,0 -14.87,2.36 -23.68,4.72 -11.65,3.15 -24.87,6.69 -37.93,6.69 -27.53,0 -47.12,-15.97 -55.15,-44.93 -16.05,-58.06 28.09,-94.72 49.33,-112.43 l 12.75,-10.78 c 19.19,-15.89 25.33,-21.95 26.28,-26.98 -2.76,-0.24 -5.91,-0.24 -8.42,-0.24 -14.48,-0.23 -34.38,-0.47 -48.07,-14.79 -8.34,-8.57 -12.44,-20.3 -12.12,-34.85 1.34,-53.5 66.25,-93.47 95.59,-110.15 -9.52,-34.46 -6.92,-38.55 -4.95,-41.31 l 7,-3.62 0.78,0.24 2.05,-1.42 c 4.09,0 9.44,0.16 25.49,34.31 14.16,-3.39 37.14,-8.11 61.29,-8.11 38,0 66.17,11.49 83.56,34.23 31.07,40.83 -2.84,69.39 -15.66,80.09 -1.97,1.65 -4.64,4.01 -6.61,5.82 3.7,5.83 11.17,8.03 35.01,12.12 6.06,1.1 12.43,2.12 19.12,3.54 l 3.46,0.79 c 25.65,4.95 85.76,16.76 102.05,89.53 5.03,22.98 2.83,41.07 -6.77,55.23 -14.32,21.09 -39.18,25.02 -59.16,28.25 -7.56,1.26 -20.15,3.22 -22.27,4.72 -1.18,13.06 23.6,20.85 56.1,29.58 5.03,1.42 9.99,2.76 14.87,4.17 39.26,11.25 69.78,34.78 86.07,66.41 16.13,31.7 17.23,69.31 2.44,109.99 -14.56,33.28 -37.45,40.36 -54.05,40.36"
         style="fill:#1b2867;fill-opacity:1;fill-rule:nonzero;stroke:none"
         id="path3000" />
      <path
         d="m 4103,2872.01 c 4.87,-2.2 9.99,-3.3 15.18,-3.3 26.12,0 40.36,26.2 54.13,51.45 8.42,15.5 22.58,41.46 32.1,41.46 1.42,0 5.67,-0.63 13.06,-6.68 23.05,-18.73 35.8,-40.52 36.74,-62.95 1.11,-22.65 -9.83,-46.26 -30.92,-66.95 -3.85,-3.93 -8.1,-7.95 -12.27,-11.96 -28.09,-27.3 -70.65,-68.53 -37.69,-109.68 8.82,-11.88 21.48,-18.09 36.75,-18.09 12.9,0 25.49,4.56 37.68,8.97 9.29,3.38 18.96,6.92 25.73,6.92 2.67,0 8.26,0 13.69,-18.41 11.64,-40.28 -9.52,-62.23 -32.26,-81.35 l -2.59,-2.28 c -4.65,-3.86 -9.05,-7.4 -13.22,-10.78 -23.84,-19.12 -48.23,-38.79 -40.99,-76.48 4.8,-25.33 29.34,-29.97 44.13,-32.81 5.2,-1.02 15.03,-2.91 17.08,-4.87 0,0 0.78,-1.89 0.08,-7.48 -1.58,-12.11 -13.61,-34.3 -73.8,-53.5 -3.15,24.94 -8.34,57.75 -16.53,101.5 -32.41,185.44 -162.7,466.95 -180.87,466.95 -1.97,0 -3.94,-0.79 -5.28,-2.21 -4.25,-4.17 -4.25,-4.17 14.01,-50.27 31.86,-81.04 106.53,-270.81 132.81,-422.26 8.02,-42.49 14.16,-74.51 19.19,-99.06 -64.04,2.2 -83.87,18.1 -89.93,27.77 -0.47,0.95 -0.94,1.66 -1.1,2.29 2.6,2.51 8.89,6.13 12.91,8.41 13.37,7.72 35.56,20.54 30.84,45.87 -7.48,39.19 -40.52,45.56 -72.46,51.7 l -18.02,3.46 c -28.88,5.35 -55.31,12.59 -61.92,40.83 -2.99,12.75 -3.86,16.21 30.61,25.02 21.79,5.59 54.6,14 57.43,47.68 0.63,13.22 -3.54,25.18 -12.04,34.46 -20.06,21.95 -58.77,23.37 -92.92,24.63 l -8.18,0.31 c -31.71,1.89 -54.52,10.39 -65.85,24.63 -8.66,10.85 -11.49,26.35 -8.18,46.26 1.81,11.17 4.64,16.36 22.42,16.36 10.86,0 23.68,-2.28 36.03,-4.48 12.99,-2.28 25.18,-4.49 36.51,-4.49 25.18,0 36.43,11.88 41.78,22.9 9.91,22.82 17.07,66.32 -46.42,102.2 -25.65,14.64 -40.13,35.33 -40.44,58.3 -0.47,25.73 16.76,51.69 45.94,69.55 32.73,19.91 69.48,17.08 91.03,-6.29 14.8,-16.05 21.72,-39.97 19.44,-67.35 -2.13,-29.58 -6.61,-84.97 46.58,-105.9 z m -32.73,203.85 c -35.8,38.79 -96.54,45.16 -147.37,14.24 -42.96,-26.2 -68.13,-66.79 -67.5,-108.49 0.71,-38.95 23.68,-74.19 63.33,-96.7 33.05,-18.72 31.87,-32.96 29.03,-41.15 -0.62,0 -1.49,-0.07 -2.36,-0.07 -7.39,0 -17.78,1.81 -28.71,3.77 -13.69,2.36 -29.03,5.12 -43.83,5.12 -50.59,0 -63.49,-33.99 -66.71,-54.13 -5.35,-32.81 0.47,-60.27 17.46,-81.43 19.75,-24.71 52.79,-38.64 98.58,-41.39 l 8.74,-0.31 c 18.88,-0.71 54.13,-2.05 61.52,-10.15 0.08,-0.08 0.24,-0.24 0.24,-0.48 -4.01,-2.83 -16.13,-5.97 -23.68,-7.94 -25.02,-6.37 -77.11,-19.75 -63.18,-78.68 13.77,-59.01 72.3,-69.94 97.24,-74.59 l 17.71,-3.46 c 23.13,-4.4 31.31,-6.84 34.69,-10.62 -2.12,-1.42 -4.87,-2.91 -6.92,-4.09 -12.43,-7.24 -29.66,-17.15 -34.54,-36.27 -2.99,-11.64 -0.71,-24 6.85,-36.66 28.79,-46.74 105.82,-49.41 137.84,-49.57 7.95,-33.28 11.17,-33.44 16.21,-33.44 0.94,0 1.65,0.16 2.44,0.32 2.04,0.15 6.29,1.73 7.86,3.69 1.97,2.21 5.83,7.24 4.72,34.46 70.34,20.7 108.89,52.09 113.93,93.32 6.77,50.59 -36.74,58.85 -53.19,61.99 -2.67,0.48 -6.13,1.18 -8.89,1.89 0.32,7 5.98,12.75 25.49,28.4 4.41,3.55 9.05,7.32 14.09,11.49 l 2.52,2.13 c 20.14,16.91 67.19,56.41 46.49,128.16 -12.43,41.86 -37.68,50.67 -56.8,50.67 -14.64,0 -28.64,-5.11 -40.99,-9.68 -8.18,-2.99 -17.39,-6.21 -23.68,-5.5 -7.4,9.12 10.77,28 33.43,49.96 4.49,4.32 8.82,8.57 12.67,12.51 30.13,29.42 45.63,65.22 44.14,100.78 -1.65,35.56 -20.14,68.69 -53.34,95.67 -13.69,11.1 -27.7,16.68 -41.31,16.68 -36.11,0 -55.78,-35.95 -71.44,-64.83 -4.8,-8.73 -11.49,-21.16 -16.29,-26.67 -13.06,6.53 -18.56,18.96 -15.26,59.56 3.23,40.13 -7.87,76.08 -31.23,101.49"
         style="fill:#1b2867;fill-opacity:1;fill-rule:nonzero;stroke:none"
         id="path3002" />
      <path
         d="m 3267.83,3765.31 c 14.87,26.28 39.03,42.1 64.2,42.1 28.41,0 53.74,-19.59 68.06,-52.8 15.82,-34.61 38.24,-70.02 83.79,-70.02 2.83,0 5.82,0.16 8.66,0.39 37.76,3.47 37.53,45.4 37.21,76.09 -0.16,17.46 -0.31,43.82 6.77,50.98 0.63,0.55 2.12,2.2 8.18,2.2 2.44,0 4.96,-0.23 7.08,-0.63 30.13,-6.21 52.32,-19.98 64.04,-39.81 11.41,-19.12 13.06,-43.43 4.88,-70.81 -1.57,-5.35 -3.14,-10.93 -4.88,-16.52 -11.48,-37.61 -28.71,-94.41 19.91,-114.71 6.06,-2.68 12.19,-4.01 18.41,-4.01 22.97,0 38.47,18.01 50.9,32.41 7.79,8.97 17.39,20.22 23.69,20.22 1.81,0 7.39,-1.02 16.91,-9.99 29.51,-29.74 21.64,-59.48 11.02,-87.41 l -1.34,-3.46 c -1.89,-5.2 -3.86,-10.07 -5.59,-14.72 -11.01,-27.93 -22.34,-56.88 1.66,-87.09 4.87,-5.9 13.76,-12.98 28.16,-12.98 9.21,0 17.94,2.91 26.28,5.66 5.67,1.89 12.2,4.09 16.92,4.09 0,0 1.65,-1.26 3.69,-6.45 4.72,-11.8 5.04,-38.32 -40.75,-86.07 -14.87,20.37 -35.33,46.65 -63.18,80.88 -106.06,129.34 -289.14,258.69 -349.56,301.41 -26.28,20.93 -27.86,20.93 -30.77,20.93 h -3.06 l -4.65,-4.72 0.24,-3.46 c 0.39,-4.25 0.39,-4.25 27.62,-23.37 l 1.81,-1.34 c 69.94,-55.86 228.32,-193.47 327.92,-315.26 26.75,-32.89 47.37,-57.67 63.34,-76.4 -19.04,-9.75 -47.21,-21.87 -70.26,-21.87 -7.4,0 -13.38,1.34 -17.7,3.7 -1.1,0.55 -1.66,1.1 -2.21,1.5 1.03,3.46 4.88,9.99 7.4,14.08 7.79,13.14 21.01,35.17 4.88,54.76 -10.86,13.69 -25.02,20.69 -42.17,20.69 -14.48,0 -29.19,-4.96 -46.27,-10.78 l -18.56,-6.21 c -10.86,-3.62 -25.81,-8.66 -39.97,-8.66 -13.85,0 -24.31,4.64 -33.52,15.11 -4.09,4.17 -6.45,8.1 -6.37,10.38 0.08,6.06 12.19,17.63 20.38,25.26 16.13,15.5 40.75,38.86 26.9,69.39 -8.41,17.7 -24.46,27.38 -44.68,27.38 -24.08,0 -51.15,-13.77 -75.14,-25.96 l -7.24,-3.62 c -19.67,-9.36 -37.77,-14.32 -52.4,-14.32 -14.63,0 -35.4,4.09 -47.13,40.28 -3.38,9.37 -1.65,13.06 -1.02,14.24 4.88,10.31 28.72,18.57 46.26,24.55 27.22,9.36 60.98,21.01 59.25,53.34 -2.05,30.37 -19.52,66.56 -90.25,66.88 -30.37,0.94 -53.34,12.67 -64.75,32.97 -12.35,22.1 -9.83,51.84 7,81.58 z m -39.02,22.11 c -24.7,-43.82 -27.3,-89.61 -7,-125.72 19.12,-33.99 56.49,-54.37 103.07,-55.79 39.26,-0.15 44.68,-12.19 45.94,-21.32 -5.43,-3.62 -19.19,-8.42 -28.71,-11.64 -27.86,-9.6 -59.25,-20.46 -72.23,-47.68 -6.92,-14.56 -7.08,-31.08 -0.79,-48.15 21.95,-68.29 82.38,-89.46 161.53,-51.69 l 7.87,4.01 c 18.41,9.36 41.46,21.09 54.83,21.09 2.44,0 3.23,-0.16 3.7,-0.95 -1.97,-4.4 -11.25,-13.14 -16.84,-18.57 -14.94,-14.32 -33.67,-32.02 -34.3,-56.72 -0.31,-14.79 5.98,-29.11 18.18,-41.86 17.38,-19.59 39.81,-29.5 66.56,-29.5 21.48,0 41.15,6.61 54.21,11.01 l 18.64,6.22 c 15.27,5.19 28.33,10.07 34.78,8.1 -1.26,-2.36 -2.91,-5.11 -4.17,-7.32 -7.48,-12.43 -17.63,-29.5 -12.59,-48.7 2.91,-11.64 10.86,-21.24 23.6,-28.71 11.49,-6.46 24.94,-9.76 40.05,-9.76 35.33,0 72.85,17.07 100.63,32.02 21.16,-22.97 24.7,-23.29 27.85,-23.29 2.05,-0.31 4.33,0.63 6.06,2.28 l 2.12,0.32 2.05,4.25 c 1.57,3.22 3.93,8.57 -12.43,35.01 53.18,53.18 72.3,100.39 56.64,140.04 -11.8,30.3 -34.06,34.86 -46.18,34.86 -11.25,0 -21.4,-3.38 -30.45,-6.45 -2.44,-0.87 -5.58,-1.89 -8.18,-2.68 -3.38,6.77 -1.26,14.48 8.03,38 1.96,4.88 4.01,10 5.97,15.5 l 1.26,3.23 c 9.29,24.55 31.16,82.14 -21.55,135.32 -16.29,15.27 -32.03,22.74 -48.23,22.74 -26.83,0 -43.91,-19.82 -57.6,-35.8 -5.11,-5.98 -13.68,-15.89 -17.62,-16.44 -10.93,4.56 -4.17,30.05 5.04,60.5 1.81,6.06 3.69,11.88 5.03,17.15 11.8,39.34 8.66,76.09 -9.2,106.3 -18.41,30.92 -50.83,51.92 -94.26,60.97 -28.09,4.88 -46.73,-5.35 -55.39,-14.08 -20.3,-20.38 -19.98,-53.66 -19.75,-82.93 0.08,-9.91 0.24,-24.15 -1.33,-31.31 -14.09,0.08 -26.12,7.47 -42.65,43.27 -21.32,49.73 -62.07,79.47 -109.04,79.47 -41.55,0.23 -80.1,-24 -103.15,-64.6"
         style="fill:#1b2867;fill-opacity:1;fill-rule:nonzero;stroke:none"
         id="path3004" />
      <path
         d="m 1148.34,1615.53 100.71,264.44 h -56.96 l -52.88,-137.3 c -7.63,-20.37 -15.26,-44.21 -21.87,-68.13 h -0.55 c -6.53,24.47 -13.69,47.76 -21.87,69.16 l -51.38,136.27 h -60.579 l 101.259,-264.44 h 64.12 v 0"
         style="fill:#1b2867;fill-opacity:1;fill-rule:nonzero;stroke:none"
         id="path3006" />
      <path
         d="m 1474.85,1659.35 h -100.78 v 71.13 h 96.14 v 41.86 h -96.14 v 64.51 h 100.78 v 43.19 h -155.7 v -264.51 h 155.7 v 43.82"
         style="fill:#1b2867;fill-opacity:1;fill-rule:nonzero;stroke:none"
         id="path3008" />
      <path
         d="m 1671.63,1615.53 v 217.78 h 73.32 v 46.73 h -201.49 v -46.73 h 73.25 v -217.78 h 54.92"
         style="fill:#1b2867;fill-opacity:1;fill-rule:nonzero;stroke:none"
         id="path3010" />
      <path
         d="m 1979.33,1836.85 v 43.19 h -155.62 v -264.51 h 155.62 v 43.82 H 1878.7 v 71.13 h 96.15 v 41.86 h -96.15 v 64.51 h 100.63"
         style="fill:#1b2867;fill-opacity:1;fill-rule:nonzero;stroke:none"
         id="path3012" />
      <path
         d="m 2245.34,1739.21 -89.06,140.83 h -73.25 v -264.51 h 53.42 l -0.47,138.39 c 0,24.39 -0.47,40.68 -1.57,55.39 h 0.47 c 7.08,-15.65 16.76,-34.54 26.98,-50.35 l 91.03,-143.43 h 73.17 v 264.44 h -53.34 l 0.47,-116.45 c 0,-34.14 0.55,-59.48 1.5,-76.24 h -0.39 c -8.58,18.34 -18.73,35.72 -28.96,51.93"
         style="fill:#1b2867;fill-opacity:1;fill-rule:nonzero;stroke:none"
         id="path3014" />
      <path
         d="m 2489.48,1656.29 c -22.35,0 -43.2,4.17 -58.46,10.15 l -2.05,-49.34 c 14.8,-3.54 36.12,-6.6 54.37,-6.6 67.74,0 114.48,35.09 114.48,89.06 0,82.92 -118.02,63.1 -118.02,108.26 0,19.9 14.79,33.12 48.23,33.12 15.34,0 36.19,-2.99 50.51,-7.63 l 1.97,46.73 c -14.79,2.6 -35.09,4.65 -50.36,4.65 -69.78,0 -108.41,-33.05 -108.41,-82.85 0,-86 116.44,-61.61 116.44,-108.42 0.08,-25.88 -23.76,-37.13 -48.7,-37.13"
         style="fill:#1b2867;fill-opacity:1;fill-rule:nonzero;stroke:none"
         id="path3016" />
      <path
         d="m 2693.96,1880.04 v -264.51 h 54.92 v 124.23 l 98.11,-124.23 h 72.78 l -113.85,137.37 108.26,127.14 h -67.66 l -97.64,-117.85 v 117.85 h -54.92"
         style="fill:#1b2867;fill-opacity:1;fill-rule:nonzero;stroke:none"
         id="path3018" />
      <path
         d="m 3079.09,1781.46 c 5.11,13.77 10.15,28.48 13.37,41.15 h 0.4 c 3.61,-12.2 8.65,-27.85 13.76,-41.7 l 27.54,-74.19 h -83.48 z m -41.62,-114.4 h 110.3 l 18.81,-51.45 h 61.05 l -99.76,264.51 h -64.52 l -100.08,-264.59 h 54.84 l 19.36,51.53"
         style="fill:#1b2867;fill-opacity:1;fill-rule:nonzero;stroke:none"
         id="path3020" />
      <path
         d="m 3385.38,1745.35 c -7.16,0 -17.39,0.39 -23.37,2.04 v 89.46 c 7.08,0.47 16.76,0.47 26.91,0.47 34.14,0 51.37,-18.72 51.37,-44.69 0.01,-31.07 -20.77,-47.28 -54.91,-47.28 z m 8.1,136.27 c -31.15,0 -64.04,-1.02 -86.54,-1.58 v -264.51 h 54.99 v 87.1 c 6.61,-0.63 16.76,-1.1 23.37,-1.1 67.19,0 113.37,36.58 113.37,94.57 0.08,53.5 -38,85.52 -105.19,85.52"
         style="fill:#1b2867;fill-opacity:1;fill-rule:nonzero;stroke:none"
         id="path3022" />
      <path
         d="m 1154.24,1395.55 c 45.32,0 74.75,-31.08 74.75,-90.01 0,-59.01 -34.62,-87.49 -76.79,-87.49 -51.93,0 -73.25,39.73 -73.25,90.01 0,57.04 35.01,87.49 75.29,87.49 z m -5.11,-225.81 c 75.76,0 138.79,51.93 138.79,139.34 0,89.54 -53.43,134.23 -130.22,134.23 -73.24,0 -137.37,-52.32 -137.37,-139.34 0.08,-79.15 42.8,-134.23 128.8,-134.23"
         style="fill:#1b2867;fill-opacity:1;fill-rule:nonzero;stroke:none"
         id="path3024" />
      <path
         d="m 1481.7,1170.85 c 25.96,0 49.33,4.09 71.28,11.64 l -4.64,48.86 c -15.74,-7.71 -35.56,-12.27 -55.39,-12.27 -52.48,0 -82.93,30.05 -82.93,86.93 0,52.4 27.93,90.09 79.86,90.09 18.33,0 37.14,-3.07 55.94,-9.21 l 5.04,48.31 c -17.79,5.04 -39.66,7.16 -56.97,7.16 -99.21,0 -142.4,-66.64 -142.4,-141.38 0.08,-80.33 43.82,-130.13 130.21,-130.13"
         style="fill:#1b2867;fill-opacity:1;fill-rule:nonzero;stroke:none"
         id="path3026" />
      <path
         d="m 1873.91,1174.39 v 264.43 h -54.92 v -105.27 h -124.63 v 105.27 h -54.91 v -264.43 h 54.91 v 111.88 h 124.63 v -111.88 h 54.92"
         style="fill:#1b2867;fill-opacity:1;fill-rule:nonzero;stroke:none"
         id="path3028" />
      <path
         d="m 2163.99,1298.54 98.19,-124.15 h 72.7 l -113.93,137.29 108.26,127.14 h -67.58 l -97.64,-118.02 v 118.02 h -54.92 v -264.43 h 54.92 v 124.15"
         style="fill:#1b2867;fill-opacity:1;fill-rule:nonzero;stroke:none"
         id="path3030" />
      <path
         d="m 2505.29,1395.55 c 45.16,0 74.67,-31.08 74.67,-90.01 0,-59.01 -34.54,-87.49 -76.87,-87.49 -51.85,0 -73.17,39.73 -73.17,90.01 0.08,57.04 35.17,87.49 75.37,87.49 z m -5.03,-225.81 c 75.76,0 138.78,51.93 138.78,139.34 0,89.54 -53.42,134.23 -130.13,134.23 -73.33,0 -137.37,-52.32 -137.37,-139.34 -0.08,-79.15 42.64,-134.23 128.72,-134.23"
         style="fill:#1b2867;fill-opacity:1;fill-rule:nonzero;stroke:none"
         id="path3032" />
      <path
         d="m 2799,1317.74 91.03,-143.35 h 73.24 v 264.43 h -53.42 l 0.55,-116.44 c 0,-34.07 0.47,-59.48 1.5,-76.24 h -0.47 c -8.66,18.25 -18.81,35.56 -28.96,51.77 l -89.06,140.91 h -73.33 v -264.43 h 53.5 l -0.47,138.31 c 0,24.47 -0.55,40.76 -1.65,55.47 h 0.63 c 7.08,-15.66 16.76,-34.62 26.91,-50.43"
         style="fill:#1b2867;fill-opacity:1;fill-rule:nonzero;stroke:none"
         id="path3034" />
      <path
         d="m 3124.01,1215.14 c -22.26,0 -43.19,4.01 -58.38,10.15 l -1.96,-49.33 c 14.71,-3.62 36.11,-6.77 54.36,-6.77 67.59,0 114.4,35.17 114.4,89.15 0,82.84 -117.94,63.09 -117.94,108.33 0,19.83 14.71,33.05 48.23,33.05 15.26,0 36.11,-3.07 50.43,-7.71 l 1.97,46.89 c -14.79,2.52 -35.01,4.56 -50.43,4.56 -69.63,0 -108.34,-33.04 -108.34,-82.92 0,-85.92 116.44,-61.45 116.44,-108.34 0.08,-25.97 -23.76,-37.06 -48.78,-37.06"
         style="fill:#1b2867;fill-opacity:1;fill-rule:nonzero;stroke:none"
         id="path3036" />
      <path
         d="m 3413.78,1174.39 v 217.62 h 73.25 v 46.81 h -201.41 v -46.81 h 73.24 v -217.62 h 54.92"
         style="fill:#1b2867;fill-opacity:1;fill-rule:nonzero;stroke:none"
         id="path3038" />
      <path
         d="m 1363.76,2188.22 -6.53,0.87 c -138.87,17.23 -139.65,44.69 -142.96,160.11 v 200.47 l 232.02,-252.4 c 88.44,-96.93 137.22,-150.35 265.93,-150.35 24,0 50.44,1.73 81.04,5.51 l 6.53,0.7 0.47,31.08 -7.31,0.32 c -77.34,3.38 -119.59,47.28 -203.62,134.46 -11.57,12.11 -23.92,24.86 -36.98,38.23 l -226.12,251.61 91.03,93.08 19.43,20.38 c 76.48,80.33 163.18,171.44 278.76,183.63 l 6.69,0.71 v 31 h -306.22 v -31 l 6.69,-0.71 c 30.29,-3.23 46.58,-10.23 51.22,-22.27 8.58,-22.34 -18.25,-68.21 -82.14,-139.96 l -177.57,-189.54 v 190.64 c 3.38,115.81 4.17,143.43 112.82,160.42 l 6.37,1.03 v 30.68 H 960.852 V 2906 l 6.453,-0.87 c 128.795,-17.15 129.505,-44.69 132.885,-160.11 v -395.51 c -3.38,-115.81 -4.17,-143.19 -132.885,-160.42 l -6.453,-0.94 v -30.92 h 402.828 l 0.08,30.99 v 0"
         style="fill:#1b2867;fill-opacity:1;fill-rule:nonzero;stroke:none"
         id="path3040" />
      <path
         d="m 2380.27,2188.3 -6.61,0.79 c -145.31,17.31 -150.82,50.27 -150.82,187.09 v 512.04 h 60.03 c 132.81,0 187.02,-41.15 223.21,-169.55 l 1.97,-6.69 28.87,6.29 -14.32,219.83 h -713.76 l -13.93,-219.83 28.88,-6.29 1.96,6.69 c 36.2,128.32 90.4,169.55 223.29,169.55 h 60.03 v -512.04 c 0,-136.82 -5.51,-169.7 -150.82,-187.09 l -6.53,-0.79 v -31.07 h 428.63 v 31.07 h -0.08"
         style="fill:#1b2867;fill-opacity:1;fill-rule:nonzero;stroke:none"
         id="path3042" />
      <path
         d="m 3526.21,2905.13 6.45,0.87 v 30.92 h -402.83 v -30.84 l 6.3,-0.95 c 143.19,-20.77 143.19,-39.34 143.19,-160.11 v -155.54 h -406.45 v 155.54 c 0,120.77 0,139.34 143.04,160.11 l 6.45,0.95 v 30.84 H 2619.61 V 2906 l 6.45,-0.87 c 128.8,-17.15 129.51,-44.61 132.89,-160.11 v -395.59 c -3.46,-115.81 -4.17,-143.11 -132.89,-160.34 l -6.45,-0.95 v -30.92 h 402.75 v 30.85 l -6.45,1.02 c -143.04,20.77 -143.04,39.34 -143.04,160.11 v 178.04 h 406.45 V 2349.2 c 0,-120.77 0,-139.34 -143.19,-160.11 l -6.3,-1.02 v -30.85 h 402.83 v 30.92 l -6.45,0.95 c -128.79,17.23 -129.5,44.61 -132.81,160.11 v 395.59 c 3.31,115.65 4.02,143.19 132.81,160.34"
         style="fill:#1b2867;fill-opacity:1;fill-rule:nonzero;stroke:none"
         id="path3044" />
      <path
         d="m 1296.49,4155.4 c 32.1,0 58.3,-26.12 58.3,-58.22 0,-10.47 -3.07,-20.14 -7.87,-28.64 -2.2,0.16 -4.4,0.39 -6.68,0.39 -25.5,0 -48.15,-11.57 -63.5,-29.58 -18.01,11.17 -38.39,36.74 -38.39,57.83 -0.08,32.1 26.04,58.22 58.14,58.22 z m 3.23,101.89 c 0,24.23 19.67,43.9 43.82,43.9 24.31,0 44.06,-19.67 44.06,-43.9 0,-24.24 -19.75,-43.91 -44.06,-43.91 -24.15,0 -43.82,19.59 -43.82,43.91 z m 129.74,145.23 c 16.99,0 30.92,-13.84 30.92,-31 0,-16.99 -13.85,-30.84 -30.92,-30.84 -17.16,0 -31.08,13.85 -31.08,30.84 0.08,17.16 13.92,31 31.08,31 z m 283.31,54.21 c 1.26,-2.28 2.6,-4.64 4.02,-6.77 -40.13,-3.69 -71.84,-37.21 -71.84,-78.36 0,-29.34 16.13,-54.6 39.81,-68.29 -28.56,-16.36 -47.83,-47.05 -47.83,-82.22 0,-43.66 29.74,-80.41 70.1,-91.34 -1.49,-9.29 -1.49,-18.96 0.39,-28.64 0,0 1.58,-4.41 2.99,-8.18 -4.95,0 -10.3,0.94 -15.1,0 -44.3,-8.66 -73.33,-51.77 -64.6,-96.15 8.58,-44.21 51.77,-73.25 96.07,-64.51 33.67,6.53 58.3,33.2 64.36,64.99 1.89,-6.14 5.9,-22.74 6.68,-26.99 8.97,-45.56 -20.92,-90.01 -66.48,-98.9 -42.56,-8.34 -84.58,4.49 -114.71,31.32 -11.17,-38.79 -39.65,-72.07 -80.17,-87.89 -40.6,-15.89 -86.08,2.13 -105.59,40.13 5.12,4.33 9.6,9.28 13.61,14.71 67.51,-24.55 101.97,26.36 107.95,40.36 25.02,58.38 -13.22,118.8 -75.06,119.36 -19.75,0.15 -38,-6.93 -52.32,-18.57 -1.57,-1.1 -3.15,-2.28 -4.8,-3.31 -0.47,1.97 -5.11,31.87 -43.98,53.03 3.3,9.84 7.55,21.01 8.42,37.69 2.67,47.76 -2.91,65.3 29.82,140.44 40.52,81.9 128.48,163.96 298.26,218.09 z m -178.44,14.64 c 14.01,0 25.42,-11.41 25.42,-25.42 0,-14.08 -11.41,-25.49 -25.42,-25.49 -14.16,0 -25.57,11.49 -25.57,25.49 -0.08,14.01 11.41,25.42 25.57,25.42 z m 112.35,46.34 c 11.18,0 20.22,-9.13 20.22,-20.3 0,-11.25 -9.12,-20.3 -20.22,-20.3 -11.25,0 -20.29,9.12 -20.29,20.3 0,11.17 9.04,20.3 20.29,20.3 z m 77.5,-96.85 c 27.15,0 49.25,-22.11 49.25,-49.26 0,-27.22 -22.1,-49.33 -49.25,-49.33 -27.22,0 -49.25,22.11 -49.25,49.33 0,27.07 22.03,49.26 49.25,49.26 z m 50.2,108.96 c 22.11,0 39.97,-18.02 39.97,-40.12 0,-22.11 -17.94,-40.13 -39.97,-40.13 -22.19,0 -40.21,18.02 -40.21,40.13 0,22.1 18.02,40.12 40.21,40.12 z m -56.89,-371.98 c -28.87,6.53 -50.59,32.33 -50.59,63.18 0,35.79 29.12,64.82 64.91,64.82 35.8,0 64.91,-29.11 64.91,-64.82 0,-7.95 -1.65,-15.5 -4.25,-22.59 -6.6,0.32 -13.29,0 -20.06,-1.41 -24.07,-4.64 -43.51,-19.51 -54.92,-39.18 z m 136.98,-102.76 c 0,-29.66 -24.07,-53.73 -53.81,-53.73 -29.67,0 -53.82,24.07 -53.82,53.73 0,29.67 24.08,53.82 53.82,53.82 29.82,-0.08 53.81,-24.08 53.81,-53.82 z m 318.33,549.88 c 1.57,-0.94 3.23,-1.89 4.8,-2.83 C 2128.19,4478.45 2123,4201.5 2123,4201.5 l 29.27,-18.88 c -2.13,-7.4 -3.31,-15.19 -3.31,-23.29 0,0 0.63,-4.64 1.34,-8.65 -4.88,0.86 -9.91,2.91 -14.79,2.91 -45.16,0 -81.91,-36.75 -81.91,-81.91 0,-45.08 36.75,-81.82 81.91,-81.82 34.3,0 63.57,21.32 75.69,51.46 0.55,-6.38 1.33,-23.37 1.33,-27.78 0,-46.5 -37.84,-84.34 -84.26,-84.34 -43.35,0 -79.31,21.32 -103.78,53.34 -17.93,-36.27 -49.09,-63.65 -91.66,-71.91 -45.71,-8.97 -90.08,20.93 -99.05,66.48 -0.79,4.33 -3.23,21.17 -3.93,27.54 17.7,-27.22 50.43,-42.56 84.1,-35.95 44.38,8.65 73.25,51.76 64.6,96.06 -8.58,44.29 -51.77,73.33 -96.07,64.6 -4.88,-0.95 -9.13,-3.63 -13.69,-5.43 0,4.01 -0.23,8.49 -0.23,8.49 -3.94,20.15 -15.03,37.06 -29.98,48.78 l 12.04,20.85 c -47.84,98.82 -82.61,380.02 322.18,402.91 z m -311.33,-9.91 c 16.05,0 29.11,-13.06 29.11,-29.19 0,-16.05 -13.13,-29.11 -29.11,-29.11 -16.12,0 -29.26,13.06 -29.26,29.11 0,16.13 13.14,29.19 29.26,29.19 z m 94.5,46.26 c 12.9,0 23.36,-10.54 23.36,-23.52 0,-12.99 -10.38,-23.53 -23.36,-23.53 -13.06,0 -23.69,10.54 -23.69,23.53 0.08,13.05 10.7,23.52 23.69,23.52 z m 107.47,25.33 c 10.23,0 18.65,-8.41 18.65,-18.72 0,-10.38 -8.42,-18.88 -18.65,-18.88 -10.39,0 -18.88,8.41 -18.88,18.88 0,10.31 8.49,18.72 18.88,18.72 z m 83.4,44.69 h 62.47 c -13.85,-7.79 -23.21,-22.34 -23.21,-39.33 0,-3.62 0.47,-7.25 1.33,-10.63 -10.3,-0.08 -19.98,-0.23 -27.38,-0.47 -8.41,13.06 -13.45,28.48 -13.45,45.16 -0.08,1.81 0.08,3.54 0.24,5.27 z m 63.88,76.01 v -44.54 h -55.39 c 10.86,21.48 31.55,38.79 55.39,44.54 z m 20.54,-151.85 c 15.5,0 28.17,-12.59 28.17,-28.09 0,-15.58 -12.67,-28.09 -28.17,-28.09 -15.58,0 -28.09,12.59 -28.09,28.09 0,15.5 12.51,28.09 28.09,28.09 z m 0,55.31 c 10.31,0 18.72,-8.42 18.72,-18.73 0,-10.3 -8.41,-18.72 -18.72,-18.72 -10.31,0 -18.73,8.34 -18.73,18.72 0,10.31 8.42,18.73 18.73,18.73 z m 20.53,96.54 c 24.08,-5.75 44.77,-23.06 55.63,-44.54 h -55.63 z m 64.2,-76.01 c 0,-1.73 0.24,-3.46 0.24,-5.27 0,-16.68 -4.96,-32.18 -13.45,-45.16 -7.4,0.24 -17.08,0.39 -27.46,0.47 0.78,3.38 1.33,7.01 1.33,10.63 0,16.99 -9.51,31.54 -23.36,39.33 z m 296.3,-509.28 11.96,-20.85 c -14.87,-11.72 -26.04,-28.56 -29.97,-48.78 0,0 -0.16,-4.48 -0.32,-8.49 -4.56,1.8 -8.81,4.48 -13.69,5.43 -44.22,8.65 -87.41,-20.31 -96.06,-64.6 -8.58,-44.22 20.29,-87.33 64.67,-96.06 33.67,-6.61 66.4,8.73 84.03,35.95 -0.63,-6.45 -3.07,-23.21 -3.94,-27.54 -8.97,-45.63 -53.34,-75.45 -99.05,-66.48 -42.57,8.26 -73.72,35.64 -91.58,71.91 -24.47,-32.1 -60.43,-53.34 -103.86,-53.34 -46.42,0 -84.42,37.84 -84.42,84.34 0,4.41 0.79,21.4 1.34,27.78 12.19,-30.06 41.62,-51.46 75.84,-51.46 45.17,0 81.99,36.74 81.99,81.82 0,45.16 -36.82,81.91 -81.99,81.91 -4.87,0 -9.83,-1.97 -14.79,-2.91 0.63,4.01 1.34,8.65 1.34,8.65 0,8.1 -1.26,15.89 -3.38,23.29 l 29.27,18.88 c 0,0 -5.2,276.95 -54.69,400.63 1.66,0.86 3.31,1.89 4.88,2.83 404.8,-22.89 370.02,-304.09 322.42,-402.91 z m -212.98,464.59 c 10.47,0 18.89,-8.41 18.89,-18.72 0,-10.38 -8.42,-18.88 -18.89,-18.88 -10.22,0 -18.56,8.41 -18.56,18.88 -0.08,10.31 8.34,18.72 18.56,18.72 z m 107.4,-25.33 c 13.06,0 23.68,-10.54 23.68,-23.52 0,-12.99 -10.62,-23.53 -23.68,-23.53 -12.91,0 -23.37,10.54 -23.37,23.53 0,12.98 10.46,23.52 23.37,23.52 z m 94.65,-46.26 c 16.13,0 29.19,-13.06 29.19,-29.19 0,-16.05 -13.06,-29.11 -29.19,-29.11 -16.13,0 -29.19,13.06 -29.19,29.11 0,16.13 13.06,29.19 29.19,29.19 z m 60.74,-486.23 c 29.66,0 53.81,-24.07 53.81,-53.74 0,-29.66 -24.15,-53.81 -53.81,-53.81 -29.74,0 -53.82,24.15 -53.82,53.81 0,29.74 24.08,53.74 53.82,53.74 z m 26.27,421 c 22.11,0 40.21,-18.02 40.21,-40.12 0,-22.11 -18.02,-40.13 -40.21,-40.13 -22.18,0 -39.96,18.02 -39.96,40.13 0,22.1 17.86,40.12 39.96,40.12 z m 99.45,-158.22 c 0,-27.22 -22.03,-49.33 -49.25,-49.33 -27.22,0 -49.33,22.11 -49.33,49.33 0,27.15 22.11,49.26 49.33,49.26 27.22,0 49.25,-22.19 49.25,-49.26 z m -97.4,-174.58 c -6.77,1.41 -13.45,1.73 -20.14,1.41 -2.6,7.09 -4.25,14.64 -4.25,22.59 0,35.79 29.11,64.82 64.91,64.82 35.8,0 64.91,-29.11 64.91,-64.82 0,-30.85 -21.64,-56.65 -50.59,-63.18 -11.41,19.67 -30.76,34.54 -54.84,39.18 z m 59.56,259.71 c 169.71,-54.13 257.82,-136.19 298.11,-218.17 32.65,-75.14 27.06,-92.68 29.82,-140.44 0.94,-16.68 5.03,-27.85 8.34,-37.69 -38.79,-21.16 -43.43,-51.06 -44.06,-53.02 -1.58,1.02 -3.15,2.12 -4.8,3.3 -14.32,11.56 -32.42,18.72 -52.24,18.57 -61.77,-0.55 -100.08,-60.98 -75.06,-119.36 6.06,-14 40.52,-64.83 107.94,-40.36 4.02,-5.43 8.5,-10.38 13.61,-14.71 -19.43,-38 -64.9,-56.02 -105.58,-40.13 -40.52,15.82 -68.92,49.1 -80.17,87.89 -30.14,-26.83 -72.15,-39.74 -114.64,-31.32 -45.63,8.89 -75.53,53.35 -66.56,98.9 0.79,4.25 4.88,20.85 6.77,26.99 5.98,-31.79 30.6,-58.46 64.2,-64.99 44.29,-8.73 87.49,20.38 96.22,64.51 8.66,44.3 -20.38,87.41 -64.67,96.15 -4.8,1.02 -9.99,0 -15.03,0 1.42,3.85 2.99,8.18 2.99,8.18 1.89,9.76 1.89,19.36 0.39,28.64 40.37,10.86 70.11,47.68 70.11,91.35 0,35.16 -19.36,65.85 -47.84,82.21 23.76,13.69 39.89,39.03 39.89,68.29 0,41.15 -31.63,74.67 -71.91,78.37 1.57,2.2 2.91,4.56 4.17,6.84 z m 66.17,60.98 c 11.25,0 20.3,-9.13 20.3,-20.3 0,-11.25 -9.05,-20.3 -20.3,-20.3 -11.18,0 -20.3,9.12 -20.3,20.3 0,11.17 9.12,20.3 20.3,20.3 z m 112.35,-46.34 c 14.08,0 25.49,-11.41 25.49,-25.42 0,-14.08 -11.49,-25.49 -25.49,-25.49 -14.16,0 -25.41,11.49 -25.41,25.49 0,14.01 11.4,25.42 25.41,25.42 z m 104.8,-68.85 c 17.15,0 31.07,-13.84 31.07,-31 0,-16.99 -13.92,-30.84 -31.07,-30.84 -17.08,0 -30.92,13.85 -30.92,30.84 0.07,17.16 13.92,31 30.92,31 z m 85.91,-101.33 c 24.16,0 43.83,-19.67 43.83,-43.9 0,-24.24 -19.67,-43.91 -43.83,-43.91 -24.31,0 -44.14,19.67 -44.14,43.91 0.08,24.15 19.91,43.9 44.14,43.9 z m 47.05,-145.79 c 32.1,0 58.22,-26.12 58.22,-58.22 0,-21.09 -20.45,-46.66 -38.47,-57.83 -15.26,18.01 -37.92,29.58 -63.49,29.58 -2.21,0 -4.41,-0.16 -6.69,-0.39 -4.88,8.5 -7.87,18.17 -7.87,28.64 0.08,32.1 26.2,58.22 58.3,58.22 z m -78.91,-289.69 c -29.9,0 -54.13,24.23 -54.13,54.13 0,14.63 5.82,27.85 15.18,37.6 9.84,10.39 23.68,16.84 39.03,16.84 23.36,0 43.19,-14.79 50.59,-35.4 2.28,-5.9 3.54,-12.36 3.54,-19.04 -0.08,-29.82 -24.31,-54.13 -54.21,-54.13 z M 2231.1,4334.7 c 36.66,0 66.41,-29.58 66.41,-66.16 0,-16.68 -6.3,-32.02 -16.53,-43.67 -13.84,10.47 -31.15,16.68 -49.8,16.68 -18.73,0 -35.96,-6.3 -49.72,-16.84 -10.31,11.65 -16.53,26.99 -16.53,43.75 0,36.66 29.66,66.24 66.17,66.24 z m -41.54,187.02 c 0,22.97 18.65,41.7 41.7,41.7 23.05,0 41.85,-18.65 41.85,-41.7 0,-23.05 -18.72,-41.7 -41.85,-41.7 -22.98,0 -41.7,18.65 -41.7,41.7 z m 41.78,-59.32 c 29.58,0 53.65,-23.92 53.65,-53.42 0,-29.51 -24.07,-53.43 -53.65,-53.43 -29.51,0 -53.43,24 -53.43,53.43 -0.07,29.58 23.84,53.42 53.43,53.42 z m -0.16,-419.35 c -29.66,0 -53.74,24.07 -53.74,53.81 0,29.66 24.08,53.74 53.74,53.74 29.74,0 53.97,-24.08 53.97,-53.74 0,-29.74 -24.23,-53.81 -53.97,-53.81 z m -855.93,-177.34 c -29.9,0 -54.13,24.31 -54.13,54.21 0,11.32 3.46,21.79 9.36,30.44 9.68,14.48 26.12,24 44.77,24 18.64,0 35.09,-9.52 44.76,-23.92 5.98,-8.65 9.45,-19.19 9.45,-30.52 0,-29.9 -24.24,-54.21 -54.21,-54.21 z m -76.24,91.81 c -2.75,-5.58 -21.01,-44.13 5.9,-85.36 29.35,-44.93 79.23,-37.22 80.88,-36.98 34.46,-43.51 91.9,-95.44 138.87,-81.98 0,0 295.98,137.21 706.44,137.76 h 0.32 c 410.69,-0.55 706.68,-137.76 706.68,-137.76 46.97,-13.38 104.32,38.47 138.78,81.98 1.66,-0.24 51.54,-7.95 80.88,36.98 26.99,41.23 8.58,79.78 5.91,85.36 24.54,39.74 62.31,75.06 62.31,75.06 17.46,16.13 28.32,39.03 28.32,64.52 0,48.54 -39.49,88.2 -88.04,88.2 -4.01,0 -7.79,-0.32 -11.49,-0.87 -0.62,2.44 -1.49,4.96 -2.12,7.39 23.84,12.28 40.28,36.91 40.28,65.39 0,40.75 -33.04,73.79 -73.8,73.79 -13.69,0 -26.2,-3.93 -37.21,-10.38 -2.12,2.44 -4.17,4.88 -6.37,7.4 11.48,11.01 18.56,26.43 18.56,43.5 0,33.6 -27.3,60.82 -60.89,60.82 -20.62,0 -38.71,-10.3 -49.65,-26.12 -3.54,2.28 -7.08,4.64 -10.62,6.85 6.77,9.2 10.94,20.45 10.94,32.73 0,30.52 -24.86,55.38 -55.47,55.38 -24,0 -44.14,-15.41 -51.77,-36.74 -5.82,2.52 -11.64,4.96 -17.55,7.4 4.49,7.47 7.16,16.13 7.16,25.41 0,27.7 -22.5,50.2 -50.27,50.2 -24.94,0 -45.63,-18.41 -49.41,-42.49 -3.7,1.18 -7.32,2.36 -11.25,3.54 -8.26,29.43 -35.01,51.06 -67.19,51.06 -7.08,0 -14.01,-1.26 -20.3,-3.3 -2.6,2.12 -5.11,4.17 -7.79,6.13 0.08,1.11 0.24,2.13 0.24,3.31 0,32.57 -26.6,59.09 -59.17,59.09 -12.9,0 -24.62,-4.17 -34.3,-11.25 -2.28,0.86 -4.64,1.81 -6.93,2.67 0,0.47 0.16,0.95 0.16,1.42 0,29.5 -24,53.42 -53.5,53.42 -19.98,0 -37.29,-11.25 -46.42,-27.62 -4.09,0.79 -8.26,1.58 -12.51,2.28 0.08,0.63 0.24,1.34 0.24,1.9 0,26.82 -21.88,48.69 -48.7,48.69 -23.29,0 -42.88,-16.51 -47.53,-38.47 -4.72,0.31 -9.52,0.71 -14.31,1.03 5.82,13.84 9.12,29.03 9.12,44.92 0,44.22 -24.94,82.61 -61.68,101.97 0,0 -13.45,7 -33.05,10.85 0,40.44 0,87.97 0,87.97 0,0 44.54,0 49.41,0 1.66,1.96 4.96,8.65 4.96,20.69 0,11.72 -3.3,18.49 -4.96,20.45 -4.87,0 -49.41,0 -49.41,0 v 49.33 c -2.04,1.66 -8.81,4.96 -20.69,4.96 v 0 c -11.88,0 -18.57,-3.23 -20.69,-4.96 v -49.25 c 0,0 -44.3,0 -49.17,0 -1.73,-1.97 -5.04,-8.73 -5.04,-20.45 0,-11.96 3.31,-18.73 5.04,-20.7 4.87,0 49.17,0 49.17,0 0,0 0,-47.52 0,-87.96 -19.04,-3.77 -32.49,-10.78 -32.49,-10.78 -36.67,-19.35 -61.69,-57.75 -61.69,-101.96 0,-15.9 3.31,-31.08 9.21,-44.93 -4.8,-0.31 -9.68,-0.63 -14.32,-1.02 -4.64,21.95 -24.15,38.47 -47.44,38.47 -26.91,0 -48.78,-21.87 -48.78,-48.7 0,-0.63 0.15,-1.26 0.23,-1.88 -4.32,-0.79 -8.49,-1.5 -12.59,-2.29 -9.04,16.37 -26.35,27.62 -46.26,27.62 -29.5,0 -53.58,-23.92 -53.58,-53.42 0,-0.48 0.16,-0.95 0.16,-1.42 -2.28,-0.87 -4.56,-1.81 -6.92,-2.67 -9.68,7 -21.4,11.25 -34.31,11.25 -32.65,0 -59.16,-26.52 -59.16,-59.09 0,-1.1 0.08,-2.13 0.15,-3.31 -2.59,-1.96 -5.19,-4.01 -7.71,-6.13 -6.45,2.04 -13.29,3.3 -20.37,3.3 -32.02,0 -58.78,-21.71 -67.19,-51.06 -3.86,-1.18 -7.4,-2.36 -11.25,-3.54 -3.7,24.08 -24.39,42.49 -49.41,42.49 -27.7,0 -50.2,-22.59 -50.2,-50.2 0,-9.36 2.67,-18.02 7.16,-25.41 -5.9,-2.45 -11.8,-4.88 -17.55,-7.4 -7.63,21.32 -27.85,36.74 -51.84,36.74 -30.61,0 -55.47,-24.78 -55.47,-55.39 0,-12.27 4.09,-23.52 10.93,-32.73 -3.54,-2.28 -7.08,-4.56 -10.54,-6.84 -10.93,15.73 -29.19,26.12 -49.72,26.12 -33.6,0 -60.9,-27.3 -60.9,-60.82 0,-17.07 7.16,-32.57 18.57,-43.59 -2.2,-2.43 -4.25,-4.88 -6.37,-7.31 -10.94,6.45 -23.61,10.38 -37.3,10.38 -40.59,0 -73.72,-33.04 -73.72,-73.8 0,-28.56 16.45,-53.1 40.28,-65.38 -0.7,-2.44 -1.57,-4.95 -2.2,-7.39 -3.7,0.47 -7.55,0.79 -11.49,0.79 -48.54,0 -88.11,-39.58 -88.11,-88.13 0,-25.49 10.85,-48.38 28.32,-64.51 0.31,-0.08 38,-35.41 62.55,-75.22"
         style="fill:#1b2867;fill-opacity:1;fill-rule:nonzero;stroke:none"
         id="path3046" />
      <path
         d="m 2830.31,3525.43 c 7.79,0 15.03,4.72 18.02,12.43 3.54,9.91 -1.42,20.93 -11.33,24.55 -190.95,70.73 -392.37,106.6 -599.13,106.6 h -13.3 c -206.53,0 -408.02,-35.87 -598.89,-106.6 -9.92,-3.7 -14.95,-14.64 -11.33,-24.55 3.62,-9.84 14.63,-14.95 24.55,-11.33 186.7,69.16 383.71,104.32 585.67,104.32 h 13.3 c 202.12,0 399.13,-35.09 585.83,-104.32 2.2,-0.71 4.48,-1.1 6.61,-1.1"
         style="fill:#1b2867;fill-opacity:1;fill-rule:nonzero;stroke:none"
         id="path3048" />
      <path
         d="m 2831.1,3678.85 c 23.99,3.93 50.35,8.26 63.65,10.54 4.32,-11.64 10.07,-27.38 14.71,-39.34 -11.33,-6.21 -25.89,-14.32 -36.82,-20.38 -8.66,10.08 -25.89,30.53 -41.54,49.18 z m -192.61,58.53 c -3.62,-17.62 -20.85,-28.95 -38.47,-25.25 l -64.04,13.14 c -17.71,3.62 -29.04,20.93 -25.5,38.47 3.7,17.62 20.93,29.11 38.56,25.41 l 64.12,-13.21 c 17.7,-3.7 28.95,-20.93 25.33,-38.56 z m -407.31,5.75 -67.11,38.31 67.19,38.48 67.35,-38.48 z m -304.4,-17.94 -64.05,-13.14 c -17.62,-3.62 -34.93,7.71 -38.47,25.26 -3.62,17.62 7.63,34.85 25.33,38.47 l 64.2,13.22 c 17.71,3.69 34.94,-7.79 38.56,-25.42 3.46,-17.54 -7.87,-34.69 -25.57,-38.39 z m -336.74,-95.67 c -10.94,6.05 -25.49,14.16 -36.75,20.37 4.57,12.04 10.39,27.7 14.72,39.34 13.21,-2.2 39.57,-6.53 63.57,-10.54 -15.66,-18.49 -32.97,-38.94 -41.54,-49.17 z m 1355.61,7.08 -27.85,74.19 -4.25,11.33 -35.72,-5.9 c -195.67,75.06 -401.65,114.87 -612.82,118.72 l -33.91,19.36 -33.67,-19.36 c -211.1,-3.77 -417.07,-43.66 -612.74,-118.72 l -35.8,5.9 -4.25,-11.33 -27.85,-74.19 79.86,-44.38 25.8,30.61 c 181.51,68.06 372.3,104.88 567.82,109.2 l 40.75,-23.28 40.99,23.28 c 195.59,-4.4 386.39,-41.14 567.98,-109.2 l 25.64,-30.61 80.02,44.38"
         style="fill:#1b2867;fill-opacity:1;fill-rule:nonzero;stroke:none"
         id="path3050" />
    </g>
  </g>
</svg>
