<?xml version="1.0" encoding="UTF-8" standalone="no"?>
<!-- Created with Inkscape (http://www.inkscape.org/) -->

<svg
   version="1.1"
   id="svg2446"
   width="127.86667"
   height="102.34667"
   viewBox="0 0 127.86667 102.34667"
   sodipodi:docname="logo_gu.svg"
   inkscape:version="1.2.2 (b0a8486541, 2022-12-01)"
   xmlns:inkscape="http://www.inkscape.org/namespaces/inkscape"
   xmlns:sodipodi="http://sodipodi.sourceforge.net/DTD/sodipodi-0.dtd"
   xmlns="http://www.w3.org/2000/svg"
   xmlns:svg="http://www.w3.org/2000/svg">
  <defs
     id="defs2450" />
  <sodipodi:namedview
     id="namedview2448"
     pagecolor="#ffffff"
     bordercolor="#000000"
     borderopacity="0.25"
     inkscape:showpageshadow="2"
     inkscape:pageopacity="0.0"
     inkscape:pagecheckerboard="0"
     inkscape:deskcolor="#d1d1d1"
     showgrid="false"
     inkscape:zoom="7.767717"
     inkscape:cx="42.226049"
     inkscape:cy="51.108968"
     inkscape:window-width="1920"
     inkscape:window-height="1056"
     inkscape:window-x="1920"
     inkscape:window-y="0"
     inkscape:window-maximized="1"
     inkscape:current-layer="g2454">
    <inkscape:page
       x="0"
       y="0"
       id="page2452"
       width="127.86667"
       height="102.34667" />
  </sodipodi:namedview>
  <g
     id="g2454"
     inkscape:groupmode="layer"
     inkscape:label="Page 1"
     transform="matrix(1.3333333,0,0,-1.3333333,0,102.34667)">
    <g
       id="g2456"
       transform="scale(0.1)">
      <path
         d="m 63.6797,208.73 c 0,29.961 20.2539,47.618 46.9183,47.618 10.125,0 16.011,-1.66 21.211,-3.164 l 4.507,3.964 h 2.051 l 0.957,-29.96 h -2.871 c -6.836,18.339 -16.543,23.535 -26.68,23.535 -15.8667,0 -31.316,-11.895 -31.316,-40.625 0,-22.442 11.211,-42.813 34.473,-42.813 6.711,0 13.957,1.914 13.957,4.082 0,4.668 0.133,17.11 -0.278,27.656 l -0.546,0.547 -13.407,0.684 v 4.629 h 38.313 v -4.629 l -9.864,-0.684 -0.546,-0.547 c -0.278,-8.75 -0.414,-18.613 -0.278,-29.14 -1.636,-3.418 -14.761,-8.75 -28.582,-8.75 -27.9021,0 -48.0193,17.363 -48.0193,47.597"
         style="fill:#231f20;fill-opacity:1;fill-rule:nonzero;stroke:none"
         id="path2458" />
      <path
         d="m 214.57,272.07 c 0,4.375 2.743,7.793 7.395,7.793 4.375,0 7.105,-2.871 7.105,-7.246 0,-4.394 -2.871,-7.793 -7.515,-7.793 -4.242,0 -6.985,2.871 -6.985,7.246 z m -25.593,0 c 0,4.375 2.742,7.793 7.402,7.793 4.375,0 7.105,-2.871 7.105,-7.246 0,-4.394 -2.871,-7.793 -7.527,-7.793 -4.238,0 -6.98,2.871 -6.98,7.246 z m 48.433,-63.34 c 0,27.637 -10.808,41.446 -28.18,41.446 -17.367,0 -28.449,-13.809 -28.449,-41.446 0,-27.636 10.813,-41.445 28.172,-41.445 17.387,0 28.457,13.809 28.457,41.445 z m -71.402,-1.367 c 0,31.055 19.019,48.985 43.222,48.985 27.223,0 42.965,-19.18 42.965,-46.25 0,-31.055 -19.019,-48.965 -43.242,-48.965 -27.215,0 -42.945,19.14 -42.945,46.23"
         style="fill:#231f20;fill-opacity:1;fill-rule:nonzero;stroke:none"
         id="path2460" />
      <path
         d="m 280.637,167.148 14.644,0.665 0.547,0.566 c 0.141,5.059 0.41,22.695 0.41,41.172 0,18.457 0,33.652 -0.41,38.437 l -0.418,0.684 h -16.277 c -2.871,0 -6.289,-4.922 -11.899,-21.484 h -2.73 l 1.094,29.96 h 2.461 l 3.961,-2.304 h 61.437 l 3.953,2.304 h 2.473 l 1.086,-29.96 h -2.739 c -5.742,16.699 -9.019,21.484 -11.89,21.484 h -16.289 l -0.403,-0.684 c -0.144,-3.281 -0.41,-21.758 -0.41,-40.215 0,-18.476 0.266,-34.472 0.41,-39.394 l 0.547,-0.566 15.047,-0.665 v -4.668 h -44.605 v 4.668"
         style="fill:#231f20;fill-opacity:1;fill-rule:nonzero;stroke:none"
         id="path2462" />
      <path
         d="m 357.383,167.148 13.41,0.665 0.547,0.566 c 0.137,6.269 0.406,22.695 0.406,41.172 0,18.457 -0.269,33.926 -0.406,39.394 l -0.547,0.547 -13.41,0.684 v 4.668 h 60.058 l 5.34,2.304 h 2.055 l 0.957,-29.96 h -2.734 c -4.934,13.828 -9.321,20.664 -11.621,20.8 l -25.864,1.367 -0.418,-0.683 c -0.129,-6.289 -0.398,-20.801 -0.398,-36.113 6.148,0 19.551,0.41 23.101,0.683 l 0.559,0.547 4.91,9.57 h 2.602 c -0.129,-3.828 -0.254,-9.707 -0.254,-13.398 0,-3.555 0.125,-11.211 0.254,-15.332 h -2.602 l -4.91,11.367 -0.559,0.547 c -4.238,0.137 -16.406,0.391 -23.101,0.391 0,-17.364 0.269,-31.309 0.398,-38.282 l 0.418,-0.683 27.903,1.484 c 2.324,0.156 8.476,5.762 13.41,21.895 h 3.14 c -1.773,-26.66 -2.183,-28.868 -4.507,-28.868 h -68.137 v 4.668"
         style="fill:#231f20;fill-opacity:1;fill-rule:nonzero;stroke:none"
         id="path2464" />
      <path
         d="m 509.102,188.75 c 0,12.988 -8.899,18.066 -20.926,18.066 h -14.375 c -0.129,-17.382 0.269,-31.191 0.418,-38.437 l 0.676,-0.566 c 2.605,-0.137 5.078,-0.137 6.714,-0.137 18.469,0 27.493,7.676 27.493,21.074 z m -26.68,24.082 c 16.141,0 20.254,7.656 20.254,18.203 0,7.246 -2.598,12.715 -8.211,15.586 -3.559,1.914 -8.625,3.008 -16.152,3.008 -0.684,0 -2.192,0 -3.54,-0.137 l -0.554,-0.683 c -0.149,-7.11 -0.547,-20.508 -0.418,-35.977 z m -35.984,-45.684 13.417,0.665 0.536,0.566 c 0.144,4.785 0.422,22.695 0.422,41.172 0,18.457 -0.278,33.379 -0.422,39.394 l -0.536,0.547 -13.417,0.684 v 4.668 c 10.132,0 21.753,0.254 29.832,0.254 9.98,0 17.648,-0.821 23.808,-2.735 10.789,-3.418 17.371,-10.39 17.371,-20.39 0,-11.758 -7.793,-18.731 -16.695,-20.918 v -0.274 c 14.488,-0.683 23.125,-9.16 23.125,-20.254 0,-18.593 -16.699,-28.32 -43.234,-28.32 -8.899,0 -23.25,0.273 -34.207,0.273 v 4.668"
         style="fill:#231f20;fill-opacity:1;fill-rule:nonzero;stroke:none"
         id="path2466" />
      <path
         d="m 614.426,208.73 c 0,27.637 -10.805,41.446 -28.164,41.446 -17.383,0 -28.457,-13.809 -28.457,-41.446 0,-27.636 10.8,-41.445 28.179,-41.445 17.368,0 28.442,13.809 28.442,41.445 z m -71.406,-1.367 c 0,31.055 19.023,48.985 43.242,48.985 27.222,0 42.949,-19.18 42.949,-46.25 0,-31.055 -19.023,-48.965 -43.227,-48.965 -27.222,0 -42.964,19.14 -42.964,46.23"
         style="fill:#231f20;fill-opacity:1;fill-rule:nonzero;stroke:none"
         id="path2468" />
      <path
         d="m 701.57,231.035 c 0,7.52 -3.277,13.125 -9.429,15.996 -3.418,1.641 -7.676,2.598 -16.289,2.598 h -4.512 l -0.41,-0.41 c -0.137,-5.879 -0.278,-23.809 -0.41,-39.805 23.804,0.684 31.05,8.34 31.05,21.621 z m -58.687,-63.887 13.672,0.665 0.562,0.566 c 0.141,3.965 0.41,22.695 0.41,41.172 0,18.457 -0.269,33.242 -0.41,39.394 l -0.562,0.547 -13.672,0.684 v 4.668 c 12.32,0 25.445,0.254 32.437,0.254 10.801,0 17.09,-0.684 22.153,-2.188 13.14,-3.965 18.882,-12.441 18.882,-21.758 0,-13.535 -9.175,-19.961 -20.386,-23.515 v -0.274 c 3.551,-4.101 9.707,-15.332 17.636,-29.277 3.438,-6.035 6.715,-10.527 11.231,-10.801 l 3.008,-0.137 v -4.668 h -20.531 l -0.543,0.547 c -5.059,10.274 -8.618,18.614 -17.227,33.946 -1.801,3.125 -3.422,5.722 -5.473,8.066 -4.922,-0.703 -9.59,-0.957 -13.55,-0.957 -0.137,-16.289 0.273,-31.602 0.41,-35.703 l 0.547,-0.566 12.593,-0.665 v -4.668 h -41.187 v 4.668"
         style="fill:#231f20;fill-opacity:1;fill-rule:nonzero;stroke:none"
         id="path2470" />
      <path
         d="m 738.098,208.73 c 0,29.961 20.254,47.618 46.914,47.618 10.133,0 16.011,-1.66 21.211,-3.164 l 4.507,3.964 h 2.051 l 0.957,-29.96 h -2.871 c -6.836,18.339 -16.543,23.535 -26.656,23.535 -15.883,0 -31.328,-11.895 -31.328,-40.625 0,-22.442 11.211,-42.813 34.472,-42.813 6.7,0 13.946,1.914 13.946,4.082 0,4.668 0.137,17.11 -0.278,27.656 l -0.543,0.547 -13.402,0.684 v 4.629 h 38.305 v -4.629 l -9.863,-0.684 -0.532,-0.547 c -0.293,-8.75 -0.425,-18.613 -0.293,-29.14 -1.636,-3.418 -14.761,-8.75 -28.574,-8.75 -27.906,0 -48.023,17.363 -48.023,47.597"
         style="fill:#231f20;fill-opacity:1;fill-rule:nonzero;stroke:none"
         id="path2472" />
      <path
         d="m 839.734,191.348 h 3.164 c 4.77,-17.364 12.563,-24.61 22.153,-24.61 11.211,0 18.316,7.52 18.316,17.364 0,23.808 -41.988,17.793 -41.988,47.871 0,12.734 10,24.375 27.359,24.375 8.891,0 16.02,-2.754 17.524,-3.164 l 4.082,3.964 h 2.594 l 0.839,-29.96 h -2.886 c -5.746,16.699 -13.262,23.535 -22.563,23.535 -8.062,0 -15.035,-5.332 -15.035,-14.356 0,-22.851 42.676,-19.297 42.676,-48.164 0,-13.808 -10.395,-27.07 -31.739,-27.07 -5.878,0 -12.851,1.347 -18.886,5.332 l -2.739,-5.332 h -2.871 v 30.215"
         style="fill:#231f20;fill-opacity:1;fill-rule:nonzero;stroke:none"
         id="path2474" />
      <path
         d="m 13.8203,34.1992 c 0,5.1953 0.1367,8.3399 0.1367,21.875 0,10.8203 -0.1367,19.4336 -0.2773,31.7383 L 13.1367,88.3594 0,89.0625 v 4.6484 H 39.1328 V 89.0625 L 28.0469,88.3594 27.4883,87.8125 c -0.125,-10.2539 -0.2539,-32.4023 -0.2539,-53.0664 0,-17.2266 3.957,-28.86719 22.1523,-28.86719 19.0117,0 24.4805,11.09379 24.4805,31.46489 0,17.7929 -0.2656,37.0703 -0.5352,50.4687 l -0.5507,0.5469 -12.5977,0.7031 v 4.6484 H 96.4453 V 89.0625 L 83.0352,88.3594 82.4883,87.8125 C 82.082,73.1836 82.082,53.0859 82.2266,36.1133 82.3516,12.5781 71.2695,0 48.2891,0 25.7227,0 13.8203,11.6211 13.8203,34.1992"
         style="fill:#231f20;fill-opacity:1;fill-rule:nonzero;stroke:none"
         id="path2476" />
      <path
         d="m 108.75,6.01563 13.406,0.68359 0.547,0.54687 c 0.41,14.64841 0.41,25.44921 0.41,39.12111 0,13.6914 0,21.2109 -0.41,41.4453 l -0.547,0.5469 -13.406,0.7031 v 4.6484 h 26.145 C 151.57,70.3125 170.598,42.9688 184.277,23.3984 h 0.262 c -0.262,26.25 -0.547,51.0157 -0.816,64.4141 l -0.547,0.5469 -12.578,0.7031 v 4.6484 h 36.25 v -4.6484 l -13.418,-0.7031 -0.532,-0.5469 c -0.41,-14.6289 -0.41,-25.4297 -0.41,-59.7656 V 0.683594 H 185.77 C 168.816,24.7656 148.563,53.0859 131.328,77.6953 h -0.265 c 0.136,-32.0117 0.539,-56.7578 0.824,-70.44921 L 132.41,6.69922 145.012,6.01563 V 1.36719 H 108.75 v 4.64844"
         style="fill:#231f20;fill-opacity:1;fill-rule:nonzero;stroke:none"
         id="path2478" />
      <path
         d="m 223.254,6.01563 13.406,0.68359 0.547,0.54687 c 0.281,4.23831 0.422,22.71481 0.422,41.17191 0,18.4765 -0.141,34.7461 -0.422,39.3945 l -0.547,0.5469 -13.406,0.7031 v 4.6484 h 41.601 v -4.6484 l -13.285,-0.7031 -0.547,-0.5469 c -0.269,-3.6719 -0.41,-22.6953 -0.41,-41.1523 0,-18.4766 0.278,-34.7657 0.41,-39.41411 L 251.57,6.69922 264.855,6.01563 V 1.36719 h -41.601 v 4.64844"
         style="fill:#231f20;fill-opacity:1;fill-rule:nonzero;stroke:none"
         id="path2480" />
      <path
         d="m 284.68,88.6523 -8.203,0.4102 v 4.6484 h 35.836 v -4.6484 l -12.168,-0.5469 -0.555,-0.5468 c 7.668,-19.8438 16.687,-43.7891 25.723,-66.8946 h 0.285 c 6.699,18.5938 18.32,51.6992 22.832,67.0313 l -0.41,0.4101 -11.079,0.5469 v 4.6484 h 30.239 v -4.6484 l -7.942,-0.4102 C 352.129,70.5859 335.703,28.0469 324.895,0 h -3.684 C 307.117,34.1992 294.949,64.0234 284.68,88.6523"
         style="fill:#231f20;fill-opacity:1;fill-rule:nonzero;stroke:none"
         id="path2482" />
      <path
         d="m 377.422,6.01563 13.406,0.68359 0.551,0.54687 c 0.137,6.28911 0.406,22.71481 0.406,41.17191 0,18.4765 -0.269,33.9258 -0.406,39.3945 l -0.551,0.5469 -13.406,0.7031 v 4.6484 h 60.066 l 5.332,2.3243 h 2.051 l 0.957,-29.961 h -2.73 c -4.934,13.8281 -9.297,20.6641 -11.621,20.8008 l -25.864,1.3672 -0.41,-0.6836 c -0.137,-6.3086 -0.406,-20.8008 -0.406,-36.1133 6.148,0 19.551,0.4102 23.101,0.6836 l 0.559,0.5274 4.91,9.5898 h 2.617 c -0.132,-3.8281 -0.269,-9.707 -0.269,-13.3984 0,-3.5743 0.137,-11.2305 0.269,-15.3321 h -2.617 l -4.91,11.3477 -0.559,0.5469 c -4.238,0.1562 -16.406,0.4101 -23.101,0.4101 0,-17.3828 0.269,-31.3281 0.406,-38.30077 l 0.41,-0.68359 27.903,1.5039 c 2.336,0.13672 8.476,5.74216 13.41,21.89456 h 3.14 C 448.293,3.55469 447.883,1.36719 445.559,1.36719 h -68.137 v 4.64844"
         style="fill:#231f20;fill-opacity:1;fill-rule:nonzero;stroke:none"
         id="path2484" />
      <path
         d="m 525.168,69.9023 c 0,7.5196 -3.266,13.1446 -9.438,16.0157 -3.417,1.6406 -7.656,2.5976 -16.277,2.5976 h -4.519 l -0.414,-0.4101 c -0.133,-5.8789 -0.262,-23.8086 -0.411,-39.8242 23.813,0.6835 31.059,8.3593 31.059,21.621 z m -58.684,-63.88667 13.684,0.68359 0.547,0.54687 c 0.137,3.96481 0.406,22.71481 0.406,41.17191 0,18.4765 -0.269,33.2617 -0.406,39.3945 l -0.547,0.5469 -13.684,0.7031 v 4.6484 c 12.317,0 25.442,0.2735 32.422,0.2735 10.813,0 17.102,-0.6836 22.157,-2.1875 13.125,-3.9844 18.886,-12.461 18.886,-21.7578 0,-13.5352 -9.179,-19.9805 -20.386,-23.5352 v -0.2734 c 3.55,-4.1016 9.707,-15.3125 17.656,-29.2578 3.418,-6.0352 6.699,-10.54692 11.211,-10.82036 l 3.008,-0.13671 V 1.36719 H 530.93 l -0.547,0.54687 c -5.078,10.25394 -8.637,18.61324 -17.246,33.92574 -1.782,3.1446 -3.418,5.7422 -5.469,8.0665 -4.934,-0.6836 -9.582,-0.9375 -13.559,-0.9375 -0.132,-16.2891 0.278,-31.6211 0.411,-35.72271 l 0.546,-0.54687 12.602,-0.68359 V 1.36719 h -41.184 v 4.64844"
         style="fill:#231f20;fill-opacity:1;fill-rule:nonzero;stroke:none"
         id="path2486" />
      <path
         d="m 566.477,30.2344 h 3.164 c 4.785,-17.3828 12.578,-24.62893 22.144,-24.62893 11.211,0 18.344,7.51953 18.344,17.38283 0,23.789 -42.016,17.7734 -42.016,47.8711 0,12.7148 10,24.3554 27.367,24.3554 8.907,0 16.012,-2.7343 17.516,-3.1445 l 4.106,3.9649 h 2.593 l 0.825,-29.961 h -2.875 c -5.743,16.6797 -13.258,23.5352 -22.579,23.5352 -8.062,0 -15.039,-5.3321 -15.039,-14.3555 0,-22.8516 42.676,-19.2969 42.676,-48.1641 C 622.703,13.2813 612.313,0 590.969,0 585.09,0 578.113,1.36719 572.102,5.33203 L 569.348,0 h -2.871 v 30.2344"
         style="fill:#231f20;fill-opacity:1;fill-rule:nonzero;stroke:none"
         id="path2488" />
      <path
         d="m 642.551,6.01563 13.394,0.68359 0.547,0.54687 c 0.278,4.23831 0.41,22.71481 0.41,41.17191 0,18.4765 -0.132,34.7461 -0.41,39.3945 l -0.547,0.5469 -13.394,0.7031 v 4.6484 h 41.582 v -4.6484 l -13.266,-0.7031 -0.562,-0.5469 c -0.254,-3.6719 -0.395,-22.6953 -0.395,-41.1523 0,-18.4766 0.278,-34.7657 0.395,-39.41411 l 0.562,-0.54687 13.266,-0.68359 V 1.36719 h -41.582 v 4.64844"
         style="fill:#231f20;fill-opacity:1;fill-rule:nonzero;stroke:none"
         id="path2490" />
      <path
         d="m 716.688,6.01563 14.628,0.68359 0.571,0.54687 c 0.117,5.05861 0.386,22.71481 0.386,41.17191 0,18.4765 0,33.6718 -0.386,38.457 l -0.41,0.6836 h -16.289 c -2.875,0 -6.309,-4.9414 -11.895,-21.4844 h -2.734 l 1.074,29.961 h 2.476 l 3.965,-2.3243 h 61.43 l 3.941,2.3243 h 2.485 l 1.09,-29.961 h -2.735 c -5.738,16.6797 -9.019,21.4844 -11.914,21.4844 h -16.266 l -0.414,-0.6836 c -0.132,-3.3008 -0.41,-21.7578 -0.41,-40.2148 0,-18.4766 0.278,-34.4922 0.41,-39.41411 l 0.547,-0.54687 15.039,-0.68359 V 1.36719 h -44.589 v 4.64844"
         style="fill:#231f20;fill-opacity:1;fill-rule:nonzero;stroke:none"
         id="path2492" />
      <path
         d="m 793.43,6.01563 13.418,0.68359 0.547,0.54687 c 0.132,6.28911 0.41,22.71481 0.41,41.17191 0,18.4765 -0.278,33.9258 -0.41,39.3945 l -0.547,0.5469 -13.418,0.7031 v 4.6484 h 60.054 l 5.332,2.3243 h 2.051 l 0.957,-29.961 h -2.73 c -4.922,13.8281 -9.297,20.6641 -11.621,20.8008 l -25.864,1.3672 -0.41,-0.6836 c -0.136,-6.3086 -0.406,-20.8008 -0.406,-36.1133 6.148,0 19.566,0.4102 23.125,0.6836 l 0.547,0.5274 4.922,9.5898 h 2.593 c -0.132,-3.8281 -0.269,-9.707 -0.269,-13.3984 0,-3.5743 0.137,-11.2305 0.269,-15.3321 h -2.593 l -4.922,11.3477 -0.547,0.5469 c -4.238,0.1562 -16.406,0.4101 -23.125,0.4101 0,-17.3828 0.27,-31.3281 0.406,-38.30077 l 0.41,-0.68359 27.911,1.5039 c 2.328,0.13672 8.476,5.74216 13.418,21.89456 h 3.125 C 864.309,3.55469 863.879,1.36719 861.57,1.36719 h -68.14 v 4.64844"
         style="fill:#231f20;fill-opacity:1;fill-rule:nonzero;stroke:none"
         id="path2494" />
      <path
         d="m 898.621,6.01563 14.649,0.68359 0.546,0.54687 c 0.137,5.05861 0.414,22.71481 0.414,41.17191 0,18.4765 0,33.6718 -0.414,38.457 l -0.41,0.6836 h -16.289 c -2.871,0 -6.289,-4.9414 -11.89,-21.4844 h -2.739 l 1.098,29.961 h 2.461 l 3.965,-2.3243 h 61.426 l 3.96,2.3243 h 2.461 l 1.094,-29.961 h -2.73 c -5.743,16.6797 -9.028,21.4844 -11.899,21.4844 h -16.289 l -0.406,-0.6836 c -0.117,-3.3008 -0.41,-21.7578 -0.41,-40.2148 0,-18.4766 0.293,-34.4922 0.41,-39.41411 L 928.191,6.69922 943.23,6.01563 V 1.36719 h -44.609 v 4.64844"
         style="fill:#231f20;fill-opacity:1;fill-rule:nonzero;stroke:none"
         id="path2496" />
      <path
         d="m 475.945,412.074 c -79.605,1.723 -142.965,67.91 -141.257,147.531 0.839,38.567 16.652,74.5 44.5,101.188 27.875,26.676 64.457,40.906 103.007,40.07 79.629,-1.715 142.993,-67.906 141.274,-147.523 -0.84,-38.567 -16.645,-74.508 -44.516,-101.192 C 551.105,425.477 514.52,411.234 475.945,412.074 Z M 370.969,669.371 c -30.149,-28.879 -47.258,-67.762 -48.156,-109.512 -1.868,-86.164 66.73,-157.793 152.878,-159.668 41.743,-0.906 81.329,14.5 111.489,43.372 30.156,28.886 47.261,67.773 48.179,109.523 1.86,86.172 -66.738,157.797 -152.898,159.656 -41.731,0.91 -81.316,-14.492 -111.492,-43.371"
         style="fill:#155196;fill-opacity:1;fill-rule:nonzero;stroke:none"
         id="path2498" />
      <path
         d="m 474.719,354.898 c -111.156,2.403 -199.614,94.79 -197.199,205.946 1.164,53.84 23.222,104 62.121,141.234 38.882,37.258 89.976,57.125 143.804,55.965 53.828,-1.168 104.004,-23.234 141.25,-62.129 37.246,-38.894 57.114,-89.969 55.957,-143.805 v 0 C 678.23,440.957 585.852,352.496 474.719,354.898 Z m -141.684,354.09 c -40.738,-39.011 -63.847,-91.547 -65.074,-147.933 -2.523,-116.43 90.125,-213.188 206.543,-215.719 116.402,-2.52 213.184,90.156 215.684,206.566 v 0 c 1.23,56.391 -19.575,109.879 -58.579,150.625 -39.043,40.739 -91.558,63.844 -147.949,65.071 -56.394,1.218 -109.89,-19.586 -150.625,-58.61"
         style="fill:#155196;fill-opacity:1;fill-rule:nonzero;stroke:none"
         id="path2500" />
      <path
         d="m 521.105,430.902 c -78.402,-14.066 -141.234,16.442 -152.726,54.078 -7.434,24.344 3.367,29.633 5.09,47.208 -13.567,-7.231 -16.074,11.597 -4.082,13.21 12.676,1.707 18.355,-11.613 12.183,-29.343 -8.867,-25.469 6.711,-37.297 11.098,-35.977 0.184,1.332 1.773,4.578 2.547,6.016 -10.672,13.633 -6.223,33.515 11.98,35.14 7.422,0.664 6.684,-4.734 1.535,-5.488 -13.957,-2.019 -13.3,-17.601 -7.492,-19.586 1.02,0 2.207,0.27 3.242,1.305 -0.242,3.176 1.958,7.695 5.579,6.797 8.039,-2.028 4.968,-12.274 -0.555,-13.11 -2.07,-6.308 -6.035,-15.097 -5.18,-19.664 0.844,-4.547 4.043,-5.453 6.66,-2.82 1.954,1.937 2.883,6.641 4.133,11.738 -1.328,5.754 1.477,10.121 6.36,8.055 3.378,-1.441 3.75,-6.637 0.425,-10.664 -0.425,-4.942 -2.593,-10.547 -2.129,-14.336 0.493,-3.797 5.665,-3.543 7.54,-1.481 1.859,2.051 3.792,15.458 4.542,18.399 -2.902,2.574 -1.75,10.48 4.219,10.949 7.012,0.563 5.391,-8.984 3.399,-11.398 1.98,-7.461 -1.219,-15.864 0.207,-19.192 1.425,-3.336 6.89,-4.129 9.363,-1.406 2.473,2.738 -0.645,8.484 0.73,15.203 -2.363,5.797 0.395,10.445 3.848,10.719 7.824,0.629 5.598,-6.426 4.16,-11.383 0.395,-5.074 1.262,-11.133 3.02,-15.808 1.133,-3.036 6.164,-3.727 7.82,0.179 1.059,2.43 -1.324,9.344 -1.891,14.227 -3.402,7.898 -0.531,10.054 2.516,10.301 2.871,0.238 6.801,-1.383 6.281,-9.176 1.582,-5.258 2.942,-11.606 4.895,-15.742 0.879,-3.301 4.91,-3.637 6.187,-0.215 1.25,3.418 -1.113,7.449 -3.629,12.957 -5.625,5.461 -0.519,9.664 2.696,9.929 3.179,0.254 8.179,-0.617 7.137,-9.117 1.73,-5.156 2.871,-9.863 4.011,-12.609 1.34,-3.149 5.727,-3.524 7.602,-1.457 1.89,2.082 -1.723,5.715 -2.656,10.195 -4.243,4.11 -3.457,9.738 1.367,10.125 2.468,0.195 7.301,-0.078 6.851,-7.305 1.43,-3.128 1.45,-7.109 3.52,-10.503 2.539,-4.141 6.441,-2.571 8.008,1.148 1.543,3.746 -8.164,14.594 -0.586,15.211 7.593,0.59 8.925,-9.359 11.383,-11.75 2.46,-2.367 4.359,-0.789 5.507,0.504 1.993,2.199 -3.3,8.164 0.395,9.855 7.461,3.418 7.32,-5.093 12.598,-5.183 23.082,-0.36 41.265,37.535 38.574,48.23 -7.739,4.578 -5.024,16.02 1.441,16.141 15.918,0.289 13.676,-22.192 1.606,-48.289 -15.825,-34.215 -54.731,-51.832 -71.329,-54.817"
         style="fill:#155196;fill-opacity:1;fill-rule:nonzero;stroke:none"
         id="path2502" />
      <path
         d="m 541.648,617.293 c -2.554,-2.469 -10.664,-2.992 -14.8,-0.574 -3.442,2.019 -4.219,17.086 -2.5,21.156 1.738,4.074 19.429,4.238 20.84,1.441 1.406,-2.796 -0.977,-19.554 -3.54,-22.023 z m -31.714,18.629 c 0.562,-2.149 2.671,-11.656 3.164,-17.363 0.269,-2.133 -0.493,-4.723 -1.758,-5.211 -3.188,-1.211 -8.481,-0.922 -11.352,0.183 -3.164,1.211 -1.023,13.789 -12.617,16.039 1.606,1.118 2.442,2.289 2.758,5.055 0.215,1.805 2.437,3.758 5.176,4.086 5.293,0.594 8.601,0.758 10.386,0.691 1.77,-0.062 3.672,-1.289 4.243,-3.48 z m -22.422,-62.43 c -6.758,0.145 -9.289,42.371 -2.297,42.231 6.262,-0.133 6.965,-42.321 2.297,-42.231 z m 67.207,37.5 c -0.254,0.098 -0.317,0.539 -0.254,0.735 3.555,13.699 6.148,19.714 7.437,33.359 0.317,3.262 -2.007,5.898 -4.175,6.441 -8.442,2.11 -12.329,2.032 -15.586,2.282 -0.356,0.027 -1.133,0.183 -1.371,0.652 -0.973,1.98 -2.418,7.941 -2.442,10.965 4.942,10.449 -3.863,14.051 -12.144,13.918 -5.454,0.265 -10.996,-2.239 -11.641,-6.321 -0.766,-7.906 7.984,-10.793 11.109,-11.074 0.532,-1.125 1.797,-6.636 2.016,-8.828 0.02,-0.289 -0.234,-0.605 -0.625,-0.605 -14.008,-0.266 -32.16,-2.715 -41.367,-3.418 -1.321,-0.211 -1.953,0.554 -2.231,1.32 -1.707,4.719 -9.004,27.008 4.692,26.574 8.125,-0.258 14.922,6.391 7.207,11.449 -1.977,1.309 -12.364,2.579 -17.973,1.606 -4.668,-0.805 -6.91,-6.063 -6.336,-10.656 0.93,-7.203 -17.019,-7.942 -22.324,-5.797 -3.777,1.531 -8.438,6.051 -10.066,8.949 -3.45,6.156 -9.415,1.461 -8.325,-1.84 7.434,-22.406 31.157,-18.848 37.348,-19.164 0.312,-0.016 0.84,-0.422 0.879,-0.586 1.504,-8.098 6.324,-16.633 6.316,-19.785 -2.961,-3.281 -1.699,-10.301 2.473,-11.504 -5.102,-4.891 -7.375,-21.941 -6.555,-36.09 1.035,-18.031 8.313,-35.527 19.778,-33.636 14.578,2.382 8.836,36.097 12.379,38.98 1.769,1.43 6.503,1.023 8.246,0.816 0.386,-0.043 0.601,-0.496 0.586,-0.711 -1.172,-13.23 -4.297,-34.453 -5.071,-40.113 -0.801,-5.765 -1.269,-8.75 1.653,-14.078 3.203,-5.867 9.058,-24.531 2.207,-44.269 -0.207,-0.778 -0.852,-1.028 -1.079,-1.083 -6.179,-1.414 -9.468,-3.343 -11.714,-4.871 -2.446,-1.656 -5.063,-5.109 -3.286,-7.191 2.598,-2.363 19.243,-1.445 24.375,6.238 0.122,0.192 0.469,0.918 0.532,1.078 1.773,4.957 4.004,8.575 5.679,11.754 7.676,14.649 8.789,32.649 -1.738,40.778 -2.945,2.277 -5.973,4.449 -3.086,10.144 5.571,11.028 6.153,23.067 6.86,33.242 0.269,4.098 7.086,6.438 9.644,2.575 6.391,-15.114 1.367,-28.125 1.274,-33.493 -0.122,-5.375 1.914,-7.859 2.593,-11.078 4.36,-19.691 2.168,-35.64 -1.773,-55.961 -0.024,-0.433 -0.356,-0.734 -0.766,-0.871 -4.605,-1.543 -7.437,-2.508 -10.332,-4.523 -2.929,-2.051 -4.082,-4.668 -2.808,-6.102 3.867,-4.363 21.367,0.367 22.671,5.379 3.286,12.461 26.86,41.336 10.454,59.777 -7.485,8.426 -7.485,5.04 -7.563,9.293 -0.035,2.036 4.692,13.215 5.883,21.852 1.25,9 -4.649,17.559 -3.188,22.527 0.063,0.153 0.43,0.399 0.586,0.364 2.446,-0.469 8.203,-2.008 11.938,-4.137 1.148,-0.649 3.14,-0.133 3.433,4.328 0.317,4.848 -11.968,9.523 -14.429,10.41"
         style="fill:#155196;fill-opacity:1;fill-rule:nonzero;stroke:none"
         id="path2504" />
      <path
         d="m 406.73,549.293 c -2.382,1.32 -0.531,6.113 2.926,6.641 2.434,0.375 10.657,1.367 13.52,0.117 2.207,-0.957 3.765,-5.594 2.515,-6.961 -2.363,-2.61 -15.546,-1.699 -18.961,0.203 z m -27.5,15.219 c -0.226,2.851 3.629,6.07 6.583,5.449 2.363,-0.5 9.683,-8.227 10.015,-10.039 0.625,-3.32 -2.027,-5.949 -4.246,-6.113 -3.445,-0.25 -12.078,7.593 -12.352,10.703 z m 1.461,15.547 c -1.675,-1.996 -5.449,-3.258 -7.261,-1.813 -2.739,2.188 -3.559,11.113 -1.789,14.906 1.203,2.559 7.414,3.973 8.562,1.051 0.805,-2.008 1.731,-12.672 0.488,-14.144 z m 2.114,25.328 c -3.008,-1.504 -5.801,0.539 -6.117,4.25 -0.309,3.711 8.449,12.789 11.605,11.926 1.551,-0.422 3.863,-3.364 3.609,-5.981 -0.164,-1.832 -7.332,-9.316 -9.097,-10.195 z m 47.363,-32.313 c -3.148,1.367 -11.289,12.098 -8.391,15 2.727,2.731 14.161,8.531 16.004,6.813 7.102,-6.606 -1.465,-24.496 -7.613,-21.813 z m -33.32,2.168 c 0,2.071 10.718,9.348 14.929,7.77 3.391,-1.266 8.719,-14.617 5.828,-15.969 -7.769,-3.668 -20.757,4.789 -20.757,8.199 z m 2.664,32.61 c 1.535,0.32 8.664,-10.739 7.351,-14.836 -1.101,-3.461 -14.258,-8.348 -15.562,-7.036 -4.016,4.004 -0.508,20.036 8.211,21.872 z m 32.336,-2.914 c 0,-3.415 -11.899,-9.114 -14.282,-7.715 -3.472,2.05 -10.562,12.57 -9.082,14.398 5.121,6.363 23.364,-1.332 23.364,-6.683 z m -10.215,23.312 c 0.738,-1.605 1.629,-3.75 -0.039,-5.598 -1.406,-1.543 -14.028,-1.972 -15.918,-1.847 -3.988,0.265 -5.84,4.336 -4.524,6.383 2.395,3.718 19.09,4.046 20.481,1.062 z m 27.762,-16.152 c -0.418,-2.207 -4.051,-3.055 -5.633,-2.875 -1.938,0.218 -10.176,6.664 -10.703,8.925 -0.696,2.954 1.296,4.84 3.191,5.317 5.129,1.285 13.738,-8.195 13.145,-11.367 z m 7.058,-29.844 c -1.875,-1.242 -5.418,-1.457 -6.91,0.797 -1.027,1.554 -1.352,13.004 -0.664,14.703 0.699,1.762 4.551,3.07 6.719,1.871 2.5,-1.367 3.894,-15.344 0.855,-17.371 z M 444.23,570.82 c 1.93,0.18 5.583,-0.265 6.637,-2.922 1.153,-2.89 -6.836,-11.933 -10.535,-12.992 -2.266,-0.644 -5.652,2.766 -5.027,6.129 0.41,2.184 7.34,9.645 8.925,9.785 z m 21.266,25.621 c -1.316,15.965 -16.211,37.071 -37.969,40.676 -23.621,3.922 -60.339,-5.539 -64.312,-40.262 -4.113,-35.917 23.394,-62.609 56.402,-60.074 35.821,2.739 47.746,37.055 45.879,59.66"
         style="fill:#155196;fill-opacity:1;fill-rule:nonzero;stroke:none"
         id="path2506" />
      <path
         d="m 413.84,735.805 -1.027,-8.055 -5.215,-6.227 8.054,-1.031 6.235,-5.219 1.011,8.063 5.215,6.223 -8.047,1.031 -6.226,5.215"
         style="fill:#155196;fill-opacity:1;fill-rule:nonzero;stroke:none"
         id="path2508" />
      <path
         d="m 564.52,386.852 -6.54,4.793 -8.109,0.5 4.77,6.566 0.504,8.113 6.543,-4.812 8.109,-0.5 -4.785,-6.555 -0.492,-8.105"
         style="fill:#155196;fill-opacity:1;fill-rule:nonzero;stroke:none"
         id="path2510" />
      <path
         d="m 393.035,387.152 6.567,4.778 8.113,0.457 -4.754,6.593 -0.488,8.11 -6.567,-4.789 -8.093,-0.469 4.753,-6.57 0.469,-8.11"
         style="fill:#155196;fill-opacity:1;fill-rule:nonzero;stroke:none"
         id="path2512" />
      <path
         d="m 348.203,422.008 8.262,9.68 c 3.762,4.41 9.758,4.097 15.476,-0.786 5.762,-4.918 7.051,-10.816 3.301,-15.218 l -8.262,-9.692 c -1.011,-1.187 -1.05,-1.855 0.293,-3.008 l -2.949,-2.226 -7.969,6.789 1.782,3.238 c 1.343,-1.156 2,-1.012 3.008,0.176 l 8.296,9.727 c 1.645,1.933 1.489,4.292 -1.082,6.484 -2.644,2.258 -5.031,2.066 -6.679,0.133 l -8.289,-9.727 c -1.02,-1.183 -1.055,-1.851 0.261,-2.98 l -2.922,-2.254 -7.285,6.215 1.743,3.261 c 1.343,-1.152 2.007,-1.004 3.015,0.188"
         style="fill:#155196;fill-opacity:1;fill-rule:nonzero;stroke:none"
         id="path2514" />
      <path
         d="m 321.672,454.285 17.461,13.094 3.277,-4.391 -5.469,-18.468 c -0.371,-1.278 -1.367,-3.305 -1.367,-3.305 0,0 1.582,1.461 2.364,2.051 l 7.699,5.773 c 1.211,0.906 1.465,1.543 0.386,2.961 l 3.34,1.559 5.278,-7.016 -2.414,-2.813 c -1.067,1.43 -1.766,1.407 -2.981,0.493 l -12.828,-9.614 c -1.25,-0.933 -1.445,-1.578 -0.371,-3.004 l -3.371,-1.523 -4.727,6.309 4.949,16.797 c 0.415,1.308 1.438,3.359 1.438,3.359 0,0 -1.609,-1.488 -2.512,-2.156 l -6.551,-4.918 c -1.242,-0.934 -1.433,-1.575 -0.363,-3.004 l -3.34,-1.551 -5.293,7.055 2.422,2.769 c 1.074,-1.426 1.723,-1.387 2.973,-0.457"
         style="fill:#155196;fill-opacity:1;fill-rule:nonzero;stroke:none"
         id="path2516" />
      <path
         d="m 328.391,487.758 4.531,-9.18 -2.895,-2.281 c -0.789,1.594 -1.48,1.699 -2.839,1.031 l -14.375,-7.117 c -1.399,-0.695 -1.7,-1.285 -0.911,-2.887 l -3.574,-0.918 -4.527,9.184 2.887,2.277 c 0.792,-1.597 1.449,-1.719 2.843,-1.027 l 14.375,7.113 c 1.36,0.672 1.699,1.285 0.907,2.887 l 3.578,0.918"
         style="fill:#155196;fill-opacity:1;fill-rule:nonzero;stroke:none"
         id="path2518" />
      <path
         d="m 295.789,515.219 23.625,-2.129 2.078,-7.047 -18.711,-14.492 c -1.367,-1.043 -1.519,-1.606 -1.051,-3.184 l -3.695,-0.258 -2.89,9.786 3.246,1.793 c 0.449,-1.395 1.023,-1.602 2.207,-0.743 l 9.043,6.805 c 1.504,1.051 4.683,2.547 4.683,2.547 0,0 -3.511,-0.387 -5.347,-0.285 l -11.379,1.105 c -1.512,0.106 -1.836,-0.547 -1.414,-2 l -3.672,-0.293 -2.571,8.707 3.25,1.754 c 0.469,-1.621 0.879,-1.918 2.598,-2.066"
         style="fill:#155196;fill-opacity:1;fill-rule:nonzero;stroke:none"
         id="path2520" />
      <path
         d="m 313.262,552.211 1.926,-21.156 -3.516,-1.129 c -0.156,1.773 -0.781,2.125 -2.285,1.984 l -15.957,-1.457 c -1.567,-0.14 -2.051,-0.586 -1.899,-2.363 l -3.672,0.469 -1.836,20.23 6.528,0.59 0.828,-2.781 c -2.102,-0.5 -2.527,-1.125 -2.258,-4.188 l 0.434,-4.699 6.597,0.598 -0.386,4.265 c -0.161,1.817 -0.532,2.453 -1.953,2.324 l 0.449,2.993 6.519,0.593 1.02,-2.859 c -1.465,-0.133 -1.723,-0.824 -1.543,-2.648 l 0.387,-4.258 7.179,0.66 -0.594,6.519 c -0.253,2.836 -1.105,3.297 -3.085,3.477 l 0.3,3.023 6.817,-0.187"
         style="fill:#155196;fill-opacity:1;fill-rule:nonzero;stroke:none"
         id="path2522" />
      <path
         d="m 291.531,577.965 -0.445,-4.074 7.828,-0.875 0.449,3.941 c 0.332,2.965 -1.004,4.684 -3.394,4.953 -2.383,0.262 -4.106,-1.027 -4.438,-3.945 z m 24.668,11.355 -0.894,-8.101 c -4.297,-3.547 -11.02,0.113 -11.645,-5.418 l -0.359,-3.278 5.222,-0.582 c 1.504,-0.168 2.122,0.118 2.317,1.891 l 3.508,-1.152 -1.133,-10.094 -3.676,-0.395 c 0.195,1.817 -0.328,2.231 -1.836,2.403 l -15.933,1.781 c -1.504,0.172 -2.129,-0.164 -2.329,-1.934 l -3.496,1.2 1.543,13.808 c 0.754,6.684 3.938,10.317 9.028,9.75 3.32,-0.375 5.425,-2.402 6.328,-5.953 1.304,3.301 4.551,3.789 6.504,3.977 2.261,0.195 3.054,0.554 3.289,2.636 l 0.066,0.618 3.496,-1.157"
         style="fill:#155196;fill-opacity:1;fill-rule:nonzero;stroke:none"
         id="path2524" />
      <path
         d="m 321.887,606.953 c -1.653,-5.133 -4.516,-8.332 -5.93,-9.699 l -5.176,3.258 0.774,2.379 c 3.258,-0.024 5.308,2.586 6.187,5.3 0.664,2.079 0.395,4.559 -1.812,5.266 -1.907,0.609 -3.227,-0.559 -5.356,-4.594 -2.129,-4.133 -5.574,-7.843 -10.879,-6.14 -5.164,1.668 -6.597,7.226 -4.707,13.121 1.45,4.496 3.813,7.617 5.129,8.969 l 4.895,-3.118 -0.742,-2.332 c -2.864,-0.297 -4.551,-2.656 -5.239,-4.773 -0.75,-2.328 -0.222,-4.328 1.516,-4.883 1.687,-0.547 2.937,0.688 4.504,3.691 2.887,5.485 6.012,9.063 11.812,7.196 5.688,-1.828 6.875,-7.875 5.024,-13.641"
         style="fill:#155196;fill-opacity:1;fill-rule:nonzero;stroke:none"
         id="path2526" />
      <path
         d="m 334.055,636.445 -4.668,-9.117 -3.559,0.973 c 0.805,1.586 0.473,2.207 -0.879,2.898 l -14.258,7.317 c -1.382,0.711 -2.046,0.601 -2.859,-0.989 l -2.859,2.321 4.668,9.117 3.55,-0.973 c -0.808,-1.586 -0.515,-2.187 0.872,-2.894 l 14.265,-7.321 c 1.352,-0.691 2.055,-0.601 2.863,0.989 l 2.864,-2.321"
         style="fill:#155196;fill-opacity:1;fill-rule:nonzero;stroke:none"
         id="path2528" />
      <path
         d="m 335.32,674.207 c -1.699,0.856 -2.73,0.953 -4.441,-1.379 l -1.582,-2.16 13.801,-10.113 c 1.218,-0.891 1.89,-0.95 2.949,0.488 l 2.461,-2.742 -5.996,-8.188 -3.403,1.485 c 1.094,1.472 0.832,2.097 -0.386,2.996 l -13.789,10.113 -1.582,-2.152 c -1.719,-2.34 -1.309,-3.297 0.007,-4.657 l -2.199,-2.023 -5.055,4.637 14.508,19.797 5.981,-3.387 -1.274,-2.715"
         style="fill:#155196;fill-opacity:1;fill-rule:nonzero;stroke:none"
         id="path2530" />
      <path
         d="m 353.301,691.777 c -1.36,0.805 -4.153,3.141 -4.153,3.141 0,0 2.012,-3.125 2.688,-4.504 l 2.937,-6.941 5.149,4.797 z m 23.418,-4.464 -7.356,-6.868 -3.015,2.121 c 0.976,0.911 1.062,1.539 -0.364,2.282 l -1.992,1.015 -7.156,-6.687 0.852,-2.078 c 0.632,-1.532 1.367,-1.34 2.402,-0.364 l 1.914,-3.16 -6.352,-5.922 -3.015,2.118 c 1.172,1.093 1.347,1.683 0.676,3.257 l -6.895,16.278 c -0.449,0.992 -1.098,1.3 -2.363,0.113 l -1.875,3.184 10.586,9.878 3.047,-2.089 c -1.309,-1.215 -1.133,-1.793 -0.122,-2.297 l 15.864,-8.051 c 1.441,-0.77 2.05,-0.699 3.258,0.426 l 1.906,-3.156"
         style="fill:#155196;fill-opacity:1;fill-rule:nonzero;stroke:none"
         id="path2532" />
      <path
         d="m 392.078,696.758 c -4.566,-2.844 -8.824,-3.434 -10.789,-3.555 l -1.836,5.836 2.117,1.313 c 2.485,-2.133 5.743,-1.477 8.164,0.023 1.86,1.152 3.246,3.223 2.024,5.191 -1.067,1.704 -2.813,1.661 -7.063,-0.023 -4.297,-1.777 -9.324,-2.379 -12.254,2.352 -2.863,4.621 -0.363,9.789 4.914,13.058 4,2.485 7.833,3.332 9.708,3.504 l 1.714,-5.543 -2.089,-1.289 c -2.364,1.621 -5.184,0.926 -7.071,-0.254 -2.09,-1.289 -2.976,-3.152 -2.012,-4.699 0.942,-1.516 2.676,-1.379 5.825,-0.109 5.758,2.308 10.449,3.019 13.672,-2.168 3.14,-5.067 0.132,-10.45 -5.024,-13.637"
         style="fill:#155196;fill-opacity:1;fill-rule:nonzero;stroke:none"
         id="path2534" />
      <path
         d="m 469.188,733.066 c -1.852,-0.25 -2.168,-0.875 -1.969,-2.336 l 0.269,-2.117 c 0.2,-1.41 0.559,-1.722 1.489,-1.601 l -0.254,-3.492 c -3.887,-0.79 -4.551,-2.5 -10.52,-3.305 -7.988,-1.074 -15.265,1.898 -16.633,12.051 -1.257,9.316 4.153,14.851 12.856,16.023 5.203,0.699 9.226,-0.824 10.933,-1.535 l -0.718,-6.301 -2.383,-0.32 c -1.172,2.762 -3.711,3.586 -6.543,3.207 -4.985,-0.676 -7.258,-3.852 -6.418,-10.078 0.848,-6.27 3.508,-8.696 8.406,-8.039 1.192,0.164 2.649,0.718 3.43,1.269 l -0.457,3.36 c -0.196,1.457 -0.625,1.984 -2.524,1.73 l -0.484,-0.07 0.27,3.679 10.507,1.414 1.235,-3.472 -0.492,-0.067"
         style="fill:#155196;fill-opacity:1;fill-rule:nonzero;stroke:none"
         id="path2536" />
      <path
         d="m 494.348,744.238 c -4.27,0.348 -6.504,-1.84 -7.051,-8.636 -0.551,-6.793 1.308,-9.313 5.562,-9.657 4.36,-0.351 6.504,1.848 7.051,8.641 0.551,6.789 -1.219,9.305 -5.562,9.652 z m -1.875,-23.261 c -8.262,0.664 -13.774,4.949 -12.953,15.25 0.839,10.3 6.957,13.652 15.214,12.988 8.403,-0.68 13.813,-4.957 12.993,-15.262 -0.84,-10.297 -6.875,-13.656 -15.254,-12.976"
         style="fill:#155196;fill-opacity:1;fill-rule:nonzero;stroke:none"
         id="path2538" />
      <path
         d="m 537.82,732.793 c 0.2,1.891 -0.078,2.887 -2.886,3.648 l -2.579,0.707 -4.496,-16.5 c -0.41,-1.46 -0.214,-2.113 1.504,-2.582 l -1.675,-3.281 -9.805,2.672 0.191,3.695 c 1.762,-0.484 2.246,-0.019 2.656,1.442 l 4.497,16.504 -2.582,0.703 c -2.79,0.765 -3.536,0.047 -4.332,-1.68 l -2.676,1.332 2.515,6.375 23.696,-6.465 -1.035,-6.785 -2.993,0.215"
         style="fill:#155196;fill-opacity:1;fill-rule:nonzero;stroke:none"
         id="path2540" />
      <path
         d="m 566.516,697.691 -9.043,4.602 0.918,3.582 c 1.636,-0.828 2.207,-0.469 2.886,0.879 l 2.793,5.476 -9.234,4.708 -2.793,-5.477 c -0.703,-1.348 -0.625,-2.027 0.953,-2.84 l -2.32,-2.871 -9.043,4.605 0.918,3.586 c 1.621,-0.832 2.207,-0.48 2.887,0.872 l 7.289,14.292 c 0.703,1.387 0.625,2.028 -0.997,2.852 l 2.364,2.856 9.043,-4.61 -0.957,-3.558 c -1.606,0.804 -2.153,0.492 -2.871,-0.895 l -2.246,-4.406 9.253,-4.707 2.247,4.402 c 0.707,1.387 0.625,2.031 -0.997,2.856 l 2.344,2.851 9.067,-4.601 -0.981,-3.563 c -1.578,0.809 -2.144,0.496 -2.851,-0.898 l -7.262,-14.286 c -0.688,-1.351 -0.649,-2.031 0.957,-2.835 l -2.324,-2.872"
         style="fill:#155196;fill-opacity:1;fill-rule:nonzero;stroke:none"
         id="path2542" />
      <path
         d="m 598.699,701.996 c -3.301,2.719 -6.386,2.199 -10.703,-3.066 -4.336,-5.258 -4.258,-8.383 -0.953,-11.102 3.379,-2.773 6.387,-2.199 10.723,3.067 4.312,5.261 4.312,8.328 0.933,11.101 z m -14.82,-18.023 c -6.406,5.269 -8.481,11.933 -1.899,19.914 6.567,7.976 13.5,7.226 19.907,1.961 6.48,-5.352 8.496,-11.961 1.929,-19.934 -6.582,-7.98 -13.433,-7.285 -19.937,-1.941"
         style="fill:#155196;fill-opacity:1;fill-rule:nonzero;stroke:none"
         id="path2544" />
      <path
         d="m 619.109,672.781 2.075,-2.566 c 1.699,-2.121 3.511,-2.25 5.078,-0.992 1.519,1.23 1.812,2.875 0.039,5.062 l -2.09,2.606 z m -3.433,-2.765 -6.172,-4.973 2.461,-3.055 c 1.875,-2.32 4.004,-2.488 5.879,-0.984 1.836,1.48 2.066,3.738 0.152,6.133 z m -6.504,-11.243 -8.442,10.473 2.305,2.887 c 1.137,-1.383 1.836,-1.332 3.012,-0.379 l 12.476,10.051 c 1.235,0.984 1.387,1.629 0.278,3.019 l 3.301,1.637 7.886,-9.781 c 4.242,-5.278 4.731,-9.797 0.996,-12.813 -1.738,-1.398 -4.566,-1.441 -6.675,-0.39 1.328,-3.403 0.269,-6.426 -2.09,-8.325 -3.989,-3.214 -8.828,-1.617 -13.047,3.621"
         style="fill:#155196;fill-opacity:1;fill-rule:nonzero;stroke:none"
         id="path2546" />
      <path
         d="m 651.57,630.395 -11.328,-5.79 c -5.176,-2.632 -10.586,-0.046 -14.004,6.661 -3.433,6.742 -2.383,12.687 2.778,15.32 l 11.343,5.793 c 1.387,0.707 1.684,1.309 0.879,2.894 l 3.575,0.922 4.765,-9.32 -2.867,-2.316 c -0.82,1.589 -1.469,1.699 -2.856,0.992 l -11.406,-5.809 c -2.246,-1.152 -3.008,-3.394 -1.465,-6.406 1.582,-3.098 3.852,-3.836 6.118,-2.684 l 11.382,5.813 c 1.387,0.707 1.684,1.308 0.903,2.855 l 3.551,0.969 4.359,-8.531 -2.856,-2.356 c -0.82,1.59 -1.461,1.7 -2.871,0.993"
         style="fill:#155196;fill-opacity:1;fill-rule:nonzero;stroke:none"
         id="path2548" />
      <path
         d="m 661.633,604.52 -1.035,3.96 -7.618,-2.011 0.997,-3.836 c 0.781,-2.883 2.632,-4.004 4.961,-3.391 2.324,0.617 3.457,2.438 2.695,5.278 z m -18.891,-19.504 -2.09,7.879 c 2.739,4.863 10.317,3.878 8.891,9.257 l -0.844,3.184 -5.078,-1.344 c -1.465,-0.383 -1.933,-0.879 -1.465,-2.597 l -3.687,-0.188 -2.602,9.813 3.281,1.699 c 0.469,-1.762 1.118,-1.961 2.582,-1.571 l 15.504,4.094 c 1.465,0.387 1.938,0.926 1.465,2.645 l 3.696,0.148 3.55,-13.437 c 1.723,-6.504 0.063,-11.039 -4.882,-12.348 -3.243,-0.855 -5.934,0.273 -8.043,3.262 -0.04,-3.555 -2.875,-5.18 -4.629,-6.059 -2.036,-1 -2.661,-1.625 -2.129,-3.648 l 0.176,-0.602 -3.696,-0.187"
         style="fill:#155196;fill-opacity:1;fill-rule:nonzero;stroke:none"
         id="path2550" />
      <path
         d="m 655.852,551.293 c -0.082,1.871 -0.684,2.242 -2.153,2.168 l -2.129,-0.106 c -1.425,-0.07 -1.773,-0.398 -1.715,-1.335 l -3.46,0.543 c -0.465,3.949 -2.11,4.761 -2.418,10.765 -0.391,8.055 3.179,15.055 13.418,15.559 9.39,0.465 14.453,-5.403 14.878,-14.164 0.254,-5.25 -1.597,-9.133 -2.46,-10.778 l -6.208,1.254 -0.121,2.403 c 2.856,0.941 3.887,3.398 3.75,6.25 -0.254,5.023 -3.218,7.554 -9.492,7.246 -6.324,-0.313 -8.965,-2.758 -8.726,-7.7 0.054,-1.203 0.488,-2.695 0.972,-3.519 l 3.379,0.164 c 1.488,0.078 2.031,0.461 1.938,2.375 l -0.024,0.488 3.657,-0.582 0.503,-10.586 -3.55,-0.933 -0.039,0.488"
         style="fill:#155196;fill-opacity:1;fill-rule:nonzero;stroke:none"
         id="path2552" />
      <path
         d="m 640.984,520.371 3.227,21 3.672,0.25 c -0.254,-1.762 0.254,-2.246 1.734,-2.476 l 15.863,-2.426 c 1.54,-0.231 2.125,0.082 2.403,1.844 l 3.433,-1.336 -3.062,-20.075 -6.469,0.989 -0.137,2.902 c 2.153,-0.02 2.715,0.484 3.188,3.523 l 0.723,4.668 -6.567,1.004 -0.64,-4.234 c -0.278,-1.801 -0.082,-2.512 1.343,-2.727 l -1.148,-2.793 -6.484,0.985 -0.317,3.023 c 1.469,-0.219 1.875,0.391 2.149,2.192 l 0.648,4.23 -7.133,1.094 -0.992,-6.477 c -0.434,-2.816 0.293,-3.465 2.168,-4.113 l -1.02,-2.863 -6.582,1.816"
         style="fill:#155196;fill-opacity:1;fill-rule:nonzero;stroke:none"
         id="path2554" />
      <path
         d="m 649.895,478.727 -20.415,7.699 1.938,5.125 18.516,5.301 c 1.289,0.375 3.511,0.625 3.511,0.625 0,0 -2.066,0.546 -2.984,0.898 l -9.008,3.391 c -1.426,0.527 -2.09,0.406 -2.715,-1.262 l -3.101,1.98 3.086,8.207 3.672,-0.519 c -0.649,-1.668 -0.239,-2.246 1.168,-2.781 l 15.023,-5.657 c 1.441,-0.554 2.09,-0.367 2.715,1.301 l 3.101,-2.023 -2.793,-7.375 -16.812,-4.848 c -1.328,-0.355 -3.598,-0.586 -3.598,-0.586 0,0 2.114,-0.566 3.149,-0.957 l 7.672,-2.894 c 1.464,-0.547 2.113,-0.364 2.738,1.3 l 3.101,-1.98 -3.101,-8.246 -3.653,0.558 c 0.625,1.672 0.25,2.188 -1.21,2.743"
         style="fill:#155196;fill-opacity:1;fill-rule:nonzero;stroke:none"
         id="path2556" />
      <path
         d="m 618.801,468.59 c 2.887,4.555 6.441,6.941 8.164,7.91 l 4.195,-4.445 -1.324,-2.11 c -3.164,0.836 -5.805,-1.175 -7.324,-3.59 -1.172,-1.843 -1.528,-4.308 0.449,-5.55 1.68,-1.075 3.238,-0.262 6.324,3.113 3.086,3.469 7.348,6.207 12.055,3.238 4.59,-2.902 4.605,-8.652 1.289,-13.886 -2.524,-3.989 -5.586,-6.426 -7.207,-7.403 l -3.945,4.238 1.289,2.071 c 2.847,-0.422 5.078,1.433 6.265,3.316 1.313,2.071 1.289,4.137 -0.254,5.113 -1.504,0.954 -3.007,0.063 -5.293,-2.457 -4.16,-4.589 -8.062,-7.281 -13.218,-4.019 -5.063,3.191 -4.707,9.336 -1.465,14.461"
         style="fill:#155196;fill-opacity:1;fill-rule:nonzero;stroke:none"
         id="path2558" />
      <path
         d="m 599.363,442.711 6.821,7.656 3.203,-1.832 c -1.196,-1.332 -1.02,-2.015 0.093,-3.027 l 11.997,-10.656 c 1.168,-1.036 1.836,-1.086 3.003,0.242 l 2.208,-2.965 -6.817,-7.656 -3.199,1.832 c 1.187,1.336 1.055,1.984 -0.102,3.027 l -11.992,10.652 c -1.133,1.008 -1.836,1.094 -3.008,-0.238 l -2.207,2.965"
         style="fill:#155196;fill-opacity:1;fill-rule:nonzero;stroke:none"
         id="path2560" />
      <path
         d="m 582.336,427.711 c 4.195,3.363 8.34,4.461 10.293,4.816 l 2.516,-5.57 -1.954,-1.562 c -2.711,1.828 -5.878,0.781 -8.086,-1.004 -1.714,-1.364 -2.847,-3.586 -1.382,-5.391 1.25,-1.562 2.988,-1.316 6.992,0.871 4.058,2.281 8.98,3.484 12.461,-0.863 3.394,-4.238 1.519,-9.676 -3.305,-13.551 -3.687,-2.949 -7.383,-4.25 -9.234,-4.652 l -2.367,5.297 1.918,1.535 c 2.554,-1.328 5.273,-0.293 7.007,1.097 1.899,1.536 2.563,3.489 1.426,4.914 -1.109,1.391 -2.828,1.04 -5.801,-0.597 -5.425,-2.977 -10.015,-4.254 -13.828,0.512 -3.726,4.656 -1.387,10.351 3.344,14.148"
         style="fill:#155196;fill-opacity:1;fill-rule:nonzero;stroke:none"
         id="path2562" />
      <path
         d="m 434.578,367.359 -13.66,3.907 0.273,3.73 1.758,-0.508 c 1.809,-0.519 2.371,-0.129 2.781,1.328 l 3.989,13.914 c -0.981,-0.507 -2.617,-0.73 -5.403,-0.261 l 1.153,4.031 c 2.976,-0.105 4.785,0.207 7.851,2.984 l 5.575,-1.586 -6.051,-21.113 c -0.41,-1.457 -0.039,-2.121 1.719,-2.629 l 1.753,-0.496 -1.738,-3.301"
         style="fill:#155196;fill-opacity:1;fill-rule:nonzero;stroke:none"
         id="path2564" />
      <path
         d="m 462.93,387.035 c -2.492,0.235 -4.219,-0.633 -4.383,-2.363 -0.168,-1.777 1.348,-3.309 3.726,-4.649 2.5,0.879 4.258,2.11 4.438,3.879 0.152,1.727 -1.43,2.911 -3.781,3.133 z m -1.067,-11.394 c -3.062,-1.106 -5.308,-2.637 -5.523,-4.903 -0.188,-1.992 1.758,-3.652 4.683,-3.925 2.832,-0.266 5.149,0.945 5.332,2.937 0.215,2.305 -1.746,4.238 -4.492,5.891 z m -1.226,-12.961 c -7.539,0.715 -12.043,4.179 -11.614,8.75 0.372,3.945 3.719,5.871 7.372,7.05 -2.965,1.711 -5.45,3.821 -5.157,6.973 0.383,4.035 5.071,6.367 12.082,5.703 6.692,-0.625 11.043,-3.808 10.672,-7.851 -0.301,-3.153 -3.094,-4.766 -6.324,-5.887 3.355,-1.836 6.297,-4.355 5.918,-8.301 -0.434,-4.57 -5.625,-7.121 -12.949,-6.437"
         style="fill:#155196;fill-opacity:1;fill-rule:nonzero;stroke:none"
         id="path2566" />
      <path
         d="m 495.266,386.762 c -3.286,-0.313 -4.973,-2.664 -4.653,-6.035 0.305,-3.145 2.192,-5.067 5.332,-4.766 2.883,0.273 5.371,2.305 5.024,5.937 -0.227,2.403 -1.797,5.247 -5.703,4.864 z m -0.078,-24.168 c -1.829,-0.176 -5.293,0.117 -6.497,0.859 l -0.378,3.895 c 1.343,-0.36 3.281,-0.535 5.015,-0.371 4.863,0.468 7.68,2.929 8.281,7.785 -0.886,-1.477 -3.433,-2.883 -6.129,-3.145 -6.703,-0.644 -10.902,2.891 -11.425,8.485 -0.547,5.714 3.574,10.226 10.8,10.918 8.375,0.812 12.75,-4.227 13.458,-11.454 0.828,-8.644 -2.942,-15.988 -13.125,-16.972"
         style="fill:#155196;fill-opacity:1;fill-rule:nonzero;stroke:none"
         id="path2568" />
      <path
         d="m 538.23,371.246 -13.726,-3.633 -1.66,3.34 1.758,0.469 c 1.816,0.476 2.109,1.113 1.714,2.566 l -3.687,14.004 c -0.586,-0.937 -1.875,-1.972 -4.516,-2.988 l -1.07,4.043 c 2.613,1.426 4.02,2.629 5.23,6.586 l 5.586,1.476 5.61,-21.234 c 0.386,-1.457 1.035,-1.848 2.808,-1.367 l 1.758,0.457 0.195,-3.719"
         style="fill:#155196;fill-opacity:1;fill-rule:nonzero;stroke:none"
         id="path2570" />
    </g>
  </g>
</svg>
