<?xml version="1.0" encoding="UTF-8" standalone="no"?>
<!-- Created with Inkscape (http://www.inkscape.org/) -->

<svg
   width="33.101315mm"
   height="43.720951mm"
   viewBox="0 0 33.101315 43.720951"
   version="1.1"
   id="svg824"
   xmlns:inkscape="http://www.inkscape.org/namespaces/inkscape"
   xmlns:sodipodi="http://sodipodi.sourceforge.net/DTD/sodipodi-0.dtd"
   xmlns="http://www.w3.org/2000/svg"
   xmlns:svg="http://www.w3.org/2000/svg">
  <sodipodi:namedview
     id="namedview826"
     pagecolor="#ffffff"
     bordercolor="#000000"
     borderopacity="0.25"
     inkscape:showpageshadow="2"
     inkscape:pageopacity="0.0"
     inkscape:pagecheckerboard="0"
     inkscape:deskcolor="#d1d1d1"
     inkscape:document-units="mm"
     showgrid="false" />
  <defs
     id="defs821">
    <clipPath
       clipPathUnits="userSpaceOnUse"
       id="clipPath62">
      <path
         d="m 589.502,175.005 h 93.831 v 123.934 h -93.831 z"
         id="path60" />
    </clipPath>
    <clipPath
       clipPathUnits="userSpaceOnUse"
       id="clipPath74-3">
      <path
         d="M 569.917,155.905 H 702.918 V 307.638 H 569.917 Z"
         id="path72-6" />
    </clipPath>
  </defs>
  <g
     inkscape:label="Layer 1"
     inkscape:groupmode="layer"
     id="layer1"
     transform="translate(-47.631551,-59.667826)">
    <g
       id="g1134"
       transform="matrix(0.35277777,0,0,-0.35277777,-160.33165,165.12661)">
      <g
         id="g56">
        <g
           id="g58"
           clip-path="url(#clipPath62)">
          <g
             id="g64"
             transform="translate(621.5792,298.9383)">
            <path
               d="m 0,0 c -0.318,-1.092 -0.918,-3.919 -1.922,-5.609 -1.004,-1.692 -3.098,-5.036 -1.588,-12.116 -3.181,0.799 -3.727,1.271 -7.048,1.01 -3.321,-0.262 -5.234,0.398 -7.715,1.539 -2.48,1.141 -2.481,-2.691 -1.854,-4.199 0.627,-1.509 2.365,-5.753 7.185,-8.333 4.819,-2.58 7.531,-3.321 9.857,-5.083 2.325,-1.762 4.372,-3.455 4.473,-4.114 0.102,-0.659 -0.878,-0.567 -1.424,-0.278 -0.546,0.29 -3.28,2.146 -4.349,2.684 -1.069,0.537 -4.654,3.201 -5.215,3.748 -0.561,0.546 -1.684,0.909 -2.62,0.982 -0.936,0.073 -4.085,0.681 -5.891,1.519 -1.807,0.837 -4.388,2.616 -5.226,2.459 -0.838,-0.157 -1.393,-0.812 -1.661,-1.687 -0.267,-0.874 -0.297,-2.916 2.055,-5.503 2.352,-2.586 3.252,-4.229 3.969,-4.916 0.718,-0.688 4.694,-3.887 7.328,-5.126 2.635,-1.239 9.341,-3.289 14.026,-6.661 0.644,-0.519 0.598,-1.188 -0.119,-1.617 -0.716,-0.428 -3.644,-0.344 -5.299,0.803 -1.655,1.147 -4.999,4.04 -6.388,4.623 -1.39,0.583 -5.429,1.567 -7.026,2.825 -1.598,1.258 -5.051,4.208 -8.687,4.444 -3.636,0.235 -2.842,-2.509 -2.359,-3.532 0.482,-1.023 2.913,-4.228 3.859,-5.202 0.945,-0.975 3.521,-4.128 3.858,-4.473 0.338,-0.345 3.833,-3.272 5.856,-4.204 2.024,-0.931 3.434,-1.148 4.966,-2.002 1.532,-0.854 8.065,-3.579 9.846,-3.968 0.475,-0.165 0.455,-0.37 0.45,-0.467 -0.005,-0.097 -0.224,-0.153 -0.665,-0.028 -0.442,0.124 -5.615,1.674 -6.55,2.091 -0.934,0.417 -3.493,1.081 -4.295,1.398 -0.802,0.318 -1.973,0.785 -3.039,0.529 -1.065,-0.257 -2.169,-0.945 -3.758,-0.202 -1.589,0.743 -3.12,1.576 -5.426,2.255 -2.305,0.679 -5.762,1.483 -7.509,1.293 -1.748,-0.189 -2.498,-0.77 -2.041,-2.439 0.456,-1.669 1.265,-2.844 3.224,-4.489 1.959,-1.644 4.641,-2.601 5.443,-3.648 0.801,-1.048 1.586,-2.525 3.357,-3.129 1.772,-0.603 4.058,-1.305 4.653,-1.431 -1.316,-0.319 -3.107,-0.667 -3.422,-0.718 -0.315,-0.051 -1.978,-0.407 -3.261,-0.193 -1.284,0.214 -3.84,-0.083 -5.381,-0.367 -1.54,-0.285 -4.28,-0.978 -4.565,-2.09 -0.286,-1.112 5,-3.793 5.945,-4.188 0.944,-0.395 4.138,-2.347 8.16,-2.382 4.021,-0.035 10.294,-0.002 11.28,-0.024 0.987,-0.022 1.384,-0.304 1.203,-0.75 -0.181,-0.445 -0.592,-0.743 -1.207,-0.828 -0.615,-0.085 -3.589,-0.567 -5.147,-0.547 -1.558,0.021 -5.158,-0.37 -5.52,-0.697 -0.363,-0.327 -1.456,-1.761 -2.764,-1.935 -1.309,-0.174 -2.644,-0.156 -3.422,-0.444 -0.777,-0.288 -5.122,-1.817 -4.802,-3.505 0.32,-1.687 2.395,-2.949 3.82,-3.428 1.426,-0.479 2.788,-0.962 3.799,-0.854 1.01,0.109 2.501,0.149 3.016,0.034 0.515,-0.114 1.771,-0.136 2.887,0.075 1.116,0.211 2.961,0.45 3.786,0.185 0.826,-0.266 0.938,-0.565 0.777,-0.8 -0.161,-0.235 -1.249,-1.475 -2.107,-2.299 -0.858,-0.823 -3.77,-3.491 -4.148,-3.82 -0.379,-0.328 -1.56,-1.606 -1.688,-1.871 -0.127,-0.265 -0.496,-0.754 -0.794,-0.82 -0.298,-0.066 -0.857,-0.292 -0.786,-0.706 0.072,-0.415 0.702,-1.698 1.341,-2.304 0.638,-0.606 2.807,-2.393 3.935,-2.681 1.129,-0.287 1.883,-0.419 2.097,-1.099 0.214,-0.68 0.671,-2.81 2.093,-2.677 1.422,0.132 4.48,1.102 6.437,2.7 1.957,1.597 2.185,2.319 2.682,3.073 0.497,0.754 2.168,3.992 2.697,4.474 0.528,0.482 0.794,0.547 1.24,0.251 0.446,-0.296 3.253,-2.963 3.748,-3.288 0.496,-0.324 1.413,-1.075 2.104,-0.664 0.691,0.411 0.928,1.81 0.847,2.658 -0.08,0.849 -0.17,1.858 -0.461,3.048 -0.292,1.191 -1.41,5.165 -1.228,6.126 0.358,-0.14 1.269,-0.52 2.267,-0.461 0.215,0.399 0.752,2.11 1.461,3.398 0.71,1.287 1.005,3.88 0.954,5.122 -0.05,1.242 -0.615,5.159 0.349,6.075 0.964,0.915 1.499,1.548 2.867,0.599 1.368,-0.95 1.426,-6.721 0.872,-8.492 -0.555,-1.772 -0.912,-5.121 -0.92,-6.452 -0.008,-1.331 0.12,-3.921 1.272,-4.068 1.153,-0.146 2.324,1.211 2.358,1.364 0.885,-2.502 1.174,-3.473 1.738,-4.427 0.285,-1.271 1.278,-4.174 2.301,-6.11 1.023,-1.936 2.789,-4.644 4.5,-4.564 1.711,0.08 2.122,4.334 2.233,4.984 0.111,0.651 0.163,1.942 0.999,2.142 0.836,0.2 3.255,-2.083 4.197,-3.358 0.942,-1.275 4.094,-5.618 6.907,-7.748 2.813,-2.13 4.241,-3.377 6.003,-3.809 1.762,-0.432 3.034,0.652 3.538,1.09 0.504,0.438 2.396,2.16 2.321,3.465 -0.076,1.305 -0.175,1.557 -0.621,2.303 -0.445,0.747 -2.915,4.636 -3.333,5.277 -0.418,0.64 -1.998,2.693 -1.87,3.774 0.128,1.081 1.883,0.777 2.71,0.762 0.827,-0.015 5.41,-0.152 6.614,0.263 1.205,0.415 3.257,1.567 3.277,2.685 0.02,1.117 -1.045,1.956 -1.638,2.328 -0.594,0.373 -4.907,2.801 -5.465,3.304 -0.559,0.504 -1.928,1.475 -3.386,2.139 -1.457,0.665 -4.062,1.756 -5.538,2.377 -1.476,0.621 -3.043,0.979 -3.873,1.037 -0.829,0.058 -2.934,0.191 -3.323,1.07 -0.39,0.878 0.076,1.249 0.625,1.282 0.548,0.032 1.807,-0.129 2.837,-0.347 1.029,-0.218 4.153,-0.763 6.04,-0.802 1.888,-0.038 5.56,0.201 8.396,1.335 2.836,1.135 4.649,2.401 5.619,4.305 0.97,1.903 0.586,3.061 -0.714,3.564 -1.3,0.502 -4.254,0.306 -5.75,0.539 -1.496,0.234 -5.173,1.175 -7.123,1.939 -1.951,0.765 -2.858,0.711 -3.469,0.653 1.598,0.567 4.073,1.358 5.258,2.115 1.185,0.757 4.437,2.753 6.606,5.909 2.17,3.155 1.697,4.007 0.951,4.457 -0.746,0.449 -1.767,0.518 -2.737,0.439 -0.97,-0.079 -6.41,-1.239 -8.576,-1.153 -2.165,0.087 -5.476,-0.174 -6.359,-0.291 1.601,0.89 3.171,1.949 3.615,3.07 0.443,1.121 0.527,2.242 3.065,4.153 2.537,1.91 4.983,4.309 5.626,7.117 0.643,2.807 0.323,4.677 -0.607,5.373 -0.93,0.697 -3.186,-0.575 -3.616,-0.836 -0.43,-0.262 -4.649,-2.766 -7.195,-3.432 -2.545,-0.666 -5.621,-1.321 -6.935,-2.043 -1.314,-0.722 -6.676,-3.25 -7.629,-3.79 -0.954,-0.539 -4.373,-2.588 -4.881,-2.973 -0.507,-0.384 -1.897,-1.261 -2.24,-0.809 -0.344,0.452 0.374,1.944 1.967,2.618 1.592,0.674 6.176,2.352 7.414,2.919 1.238,0.567 5.958,2.478 6.738,3.641 1.494,1.999 0.618,3.6 2.776,5.853 2.157,2.253 2.872,3.454 3.271,4.251 0.398,0.796 2.689,4.41 3.078,5.012 0.389,0.603 1.449,2.791 1.148,3.975 -0.302,1.185 -0.721,2.212 -2.163,1.869 -1.441,-0.343 -4.064,-1.508 -5.654,-2.59 -1.59,-1.081 -7.36,-4.965 -8.681,-5.945 -1.32,-0.98 -5.76,-4.603 -7.541,-6.222 -1.781,-1.619 -4.63,-3.462 -5.343,-2.667 -0.713,0.795 0.645,3.13 1.832,4.037 1.187,0.908 6.538,5.089 7.646,5.702 1.109,0.613 3.773,2.896 4.397,3.642 0.624,0.745 2.265,2.592 2.842,3.613 0.576,1.022 2.651,4.709 3.187,6.801 0.536,2.093 0.559,3.897 -0.145,4.349 -0.704,0.452 -1.825,0.064 -2.566,-0.324 -0.74,-0.387 -4.315,-1.93 -5.667,-2.353 -1.353,-0.424 -3.47,-1.172 -5.007,-2.444 -1.536,-1.272 -3.228,-2.789 -3.679,-3.416 -0.451,-0.628 -1.282,-1.644 -1.883,-2.237 -0.601,-0.594 -2.704,-3.059 -3,-3.076 -0.295,-0.018 -1.235,0.485 -0.438,1.348 0.798,0.863 2.313,2.498 2.872,3.089 0.559,0.592 1.938,2.391 2.383,3.126 0.445,0.735 2.006,3.038 2.439,3.987 0.432,0.948 1.176,3.483 1.434,4.507 0.259,1.024 1.021,3.602 0.976,4.738 -0.044,1.135 -0.779,3.603 -1.058,4.037 -0.28,0.434 -0.94,1.232 -1.95,0.743 -1.01,-0.489 -2.108,-2.014 -3.13,-2.654 -1.022,-0.64 -3.301,-2.257 -3.843,-2.783 -0.541,-0.525 -2.592,-2.429 -3.219,-2.208 -0.627,0.22 -1.392,1.742 -1.68,2.691 C 7.965,-9.188 6.857,-5.776 4.917,-3.723 2.977,-1.67 0.989,-0.263 0,0"
               style="fill:#0c0c0b;fill-opacity:1;fill-rule:nonzero;stroke:none"
               id="path66" />
          </g>
        </g>
      </g>
      <g
         id="g68">
        <g
           id="g70"
           clip-path="url(#clipPath74-3)">
          <g
             id="g76"
             transform="translate(635.1661,228.9144)">
            <path
               d="m 0,0 c 0,0 0.001,0.032 0.004,0.095 0.001,0.03 0.007,0.045 0.01,0.075 0.008,0.032 0.013,0.073 0.03,0.118 0.051,0.182 0.205,0.457 0.494,0.766 0.286,0.31 0.694,0.652 1.189,1.018 0.494,0.366 1.082,0.762 1.709,1.204 0.62,0.426 1.336,0.842 2.106,1.256 0.771,0.413 1.599,0.824 2.462,1.236 1.728,0.824 3.598,1.652 5.466,2.485 1.869,0.832 3.737,1.667 5.471,2.49 1.735,0.823 3.335,1.633 4.672,2.392 1.338,0.756 2.41,1.464 3.126,2.006 0.358,0.271 0.629,0.498 0.811,0.655 0.179,0.16 0.275,0.246 0.275,0.246 0,0 -0.098,-0.084 -0.28,-0.241 C 27.361,15.647 27.086,15.426 26.724,15.162 26,14.633 24.918,13.946 23.569,13.216 22.222,12.483 20.611,11.703 18.865,10.913 17.119,10.123 15.238,9.322 13.356,8.524 11.473,7.725 9.588,6.93 7.838,6.134 6.964,5.736 6.123,5.338 5.336,4.934 4.549,4.529 3.817,4.122 3.162,3.689 2.525,3.256 1.937,2.876 1.42,2.507 0.904,2.14 0.465,1.789 0.135,1.443 -0.197,1.101 -0.415,0.753 -0.503,0.47 -0.528,0.401 -0.541,0.336 -0.555,0.279 -0.564,0.218 -0.574,0.156 -0.576,0.123 -0.58,0.061 -0.581,0.028 -0.581,0.028 Z"
               style="fill:#f35e25;fill-opacity:1;fill-rule:nonzero;stroke:none"
               id="path78" />
          </g>
          <g
             id="g80"
             transform="translate(633.8708,240.3723)">
            <path
               d="m 0,0 c 0,0 0,0.007 0.001,0.022 0,0.015 0.001,0.04 0.004,0.05 0.004,0.027 0.017,0.101 0.05,0.19 0.064,0.184 0.203,0.463 0.42,0.802 0.431,0.681 1.153,1.608 2.078,2.666 0.463,0.529 0.977,1.093 1.536,1.672 0.28,0.29 0.57,0.584 0.875,0.872 0.303,0.283 0.631,0.579 0.959,0.863 1.324,1.151 2.818,2.289 4.333,3.397 1.515,1.107 3.053,2.185 4.486,3.21 1.434,1.023 2.761,1.996 3.879,2.857 0.557,0.432 1.064,0.833 1.507,1.196 0.221,0.183 0.427,0.355 0.618,0.513 0.189,0.161 0.362,0.31 0.518,0.443 0.309,0.272 0.551,0.486 0.713,0.636 0.163,0.148 0.25,0.228 0.25,0.228 0,0 -0.088,-0.078 -0.254,-0.223 -0.164,-0.147 -0.411,-0.356 -0.724,-0.622 -0.159,-0.131 -0.334,-0.276 -0.526,-0.434 -0.193,-0.154 -0.403,-0.322 -0.626,-0.5 -0.45,-0.355 -0.963,-0.747 -1.528,-1.167 -1.131,-0.84 -2.474,-1.786 -3.926,-2.782 -1.45,-0.997 -3.007,-2.047 -4.546,-3.128 C 8.559,9.68 7.039,8.566 5.681,7.428 5.338,7.14 5.014,6.863 4.694,6.57 4.38,6.277 4.084,5.982 3.799,5.692 3.229,5.112 2.707,4.548 2.235,4.018 1.292,2.956 0.553,2.026 0.093,1.315 -0.137,0.96 -0.296,0.657 -0.381,0.422 -0.424,0.302 -0.446,0.209 -0.457,0.123 -0.463,0.076 -0.463,0.058 -0.464,0.043 -0.465,0.029 -0.465,0.021 -0.465,0.021 Z"
               style="fill:#606164;fill-opacity:1;fill-rule:nonzero;stroke:none"
               id="path82" />
          </g>
          <g
             id="g84"
             transform="translate(631.6704,253.25)">
            <path
               d="M 0,0 C 0,0 0,0.007 0.001,0.02 0.002,0.031 0.002,0.06 0.005,0.067 0.006,0.073 0.007,0.08 0.008,0.088 0.011,0.1 0.014,0.113 0.017,0.126 0.024,0.155 0.034,0.189 0.049,0.229 0.106,0.39 0.238,0.638 0.443,0.938 0.851,1.541 1.537,2.356 2.391,3.306 2.821,3.78 3.287,4.294 3.78,4.838 4.026,5.111 4.279,5.393 4.533,5.687 4.659,5.835 4.786,5.986 4.911,6.142 4.974,6.221 5.036,6.301 5.097,6.383 5.155,6.464 5.214,6.544 5.273,6.625 5.511,6.948 5.745,7.284 5.996,7.608 6.249,7.931 6.495,8.265 6.762,8.588 7.289,9.239 7.839,9.89 8.412,10.52 l 0.43,0.473 c 0.144,0.157 0.292,0.309 0.437,0.463 0.147,0.154 0.293,0.307 0.439,0.46 0.148,0.15 0.296,0.3 0.444,0.449 0.589,0.597 1.185,1.169 1.766,1.718 1.163,1.096 2.275,2.093 3.225,2.95 0.951,0.856 1.741,1.573 2.292,2.077 0.549,0.506 0.863,0.796 0.863,0.796 0,0 -0.32,-0.283 -0.879,-0.777 -0.561,-0.493 -1.366,-1.192 -2.335,-2.027 -0.967,-0.837 -2.1,-1.81 -3.288,-2.884 C 11.213,13.681 10.603,13.12 9.999,12.534 9.848,12.387 9.697,12.24 9.544,12.093 9.395,11.942 9.245,11.792 9.095,11.641 8.945,11.489 8.793,11.339 8.645,11.184 L 8.203,10.718 C 7.614,10.096 7.046,9.453 6.501,8.808 6.226,8.488 5.969,8.154 5.706,7.833 5.445,7.51 5.206,7.182 4.961,6.864 4.901,6.784 4.841,6.704 4.781,6.625 4.723,6.548 4.663,6.472 4.602,6.398 4.48,6.248 4.355,6.101 4.229,5.957 3.978,5.669 3.724,5.391 3.477,5.122 2.979,4.582 2.508,4.072 2.074,3.601 1.207,2.652 0.506,1.836 0.068,1.201 -0.151,0.884 -0.304,0.612 -0.385,0.394 -0.405,0.34 -0.421,0.289 -0.433,0.244 -0.438,0.22 -0.443,0.198 -0.448,0.179 -0.452,0.157 -0.455,0.133 -0.458,0.114 -0.464,0.069 -0.463,0.058 -0.464,0.043 -0.465,0.03 -0.465,0.023 -0.465,0.023 Z"
               style="fill:#f35e25;fill-opacity:1;fill-rule:nonzero;stroke:none"
               id="path86" />
          </g>
          <g
             id="g88"
             transform="translate(629.7537,264.5503)">
            <path
               d="M 0,0 C 0,0 0,0.069 -0.001,0.199 -0.005,0.267 0.008,0.335 0.014,0.423 0.019,0.507 0.035,0.611 0.055,0.727 0.09,0.959 0.157,1.24 0.241,1.562 0.33,1.883 0.439,2.244 0.573,2.633 0.838,3.414 1.191,4.312 1.592,5.264 1.793,5.74 2.006,6.231 2.227,6.726 2.451,7.22 2.69,7.716 2.94,8.207 c 0.249,0.492 0.504,0.981 0.758,1.46 0.253,0.481 0.507,0.951 0.753,1.406 0.493,0.91 0.96,1.755 1.362,2.478 0.805,1.446 1.353,2.404 1.353,2.404 0,0 -0.567,-0.946 -1.4,-2.376 C 5.349,12.864 4.866,12.028 4.355,11.128 4.099,10.678 3.836,10.213 3.574,9.737 3.31,9.262 3.044,8.777 2.786,8.289 2.525,7.801 2.274,7.307 2.04,6.815 1.808,6.322 1.585,5.835 1.373,5.362 0.952,4.414 0.579,3.518 0.296,2.733 0.152,2.342 0.034,1.977 -0.064,1.65 -0.157,1.322 -0.231,1.032 -0.274,0.786 -0.297,0.664 -0.317,0.555 -0.326,0.451 -0.335,0.351 -0.349,0.261 -0.346,0.199 -0.348,0.069 -0.349,0 -0.349,0 Z"
               style="fill:#606164;fill-opacity:1;fill-rule:nonzero;stroke:none"
               id="path90" />
          </g>
          <g
             id="g92"
             transform="translate(629.8647,262.5938)">
            <path
               d="M 0,0 C 0,0 -0.005,0.02 -0.014,0.059 -0.025,0.101 -0.03,0.152 -0.061,0.239 -0.075,0.28 -0.09,0.327 -0.107,0.378 -0.127,0.425 -0.149,0.476 -0.172,0.531 -0.195,0.587 -0.226,0.642 -0.256,0.703 -0.286,0.764 -0.321,0.826 -0.36,0.89 -0.662,1.412 -1.197,2.064 -1.903,2.769 -3.312,4.182 -5.391,5.82 -7.527,7.364 c -2.138,1.545 -4.335,2.999 -5.996,4.066 -1.662,1.068 -2.788,1.748 -2.788,1.748 0,0 1.115,-0.699 2.758,-1.794 1.643,-1.095 3.815,-2.585 5.923,-4.163 2.107,-1.576 4.153,-3.246 5.519,-4.663 0.683,-0.705 1.191,-1.35 1.462,-1.838 0.036,-0.06 0.067,-0.118 0.093,-0.173 0.026,-0.056 0.054,-0.107 0.072,-0.156 0.02,-0.049 0.039,-0.094 0.056,-0.135 0.012,-0.04 0.024,-0.076 0.034,-0.108 0.023,-0.059 0.031,-0.129 0.04,-0.165 0.009,-0.039 0.013,-0.059 0.013,-0.059 z"
               style="fill:#606164;fill-opacity:1;fill-rule:nonzero;stroke:none"
               id="path94" />
          </g>
          <g
             id="g96"
             transform="translate(632.4835,249.3441)">
            <path
               d="m 0,0 c 0,0 -0.01,0.03 -0.03,0.087 -0.007,0.024 -0.031,0.078 -0.052,0.128 -0.023,0.055 -0.051,0.102 -0.082,0.164 -0.132,0.235 -0.362,0.538 -0.699,0.849 -0.671,0.628 -1.742,1.313 -3.08,1.999 -2.676,1.376 -6.406,2.785 -10.179,4.034 l -0.352,0.116 -0.352,0.122 -0.351,0.122 -0.344,0.131 -0.343,0.132 -0.34,0.142 c -0.227,0.092 -0.45,0.191 -0.671,0.292 -0.888,0.402 -1.739,0.849 -2.541,1.318 -1.606,0.939 -3.018,1.966 -4.177,2.907 -1.159,0.941 -2.068,1.798 -2.685,2.415 -0.617,0.618 -0.944,0.996 -0.944,0.996 0,0 0.32,-0.384 0.926,-1.014 0.607,-0.629 1.501,-1.503 2.646,-2.468 1.144,-0.965 2.542,-2.022 4.14,-2.996 0.8,-0.487 1.648,-0.953 2.536,-1.375 0.222,-0.107 0.445,-0.211 0.673,-0.308 l 0.34,-0.15 0.347,-0.14 0.347,-0.14 0.349,-0.129 0.35,-0.128 0.353,-0.124 c 3.741,-1.315 7.436,-2.793 10.046,-4.196 0.652,-0.351 1.234,-0.696 1.728,-1.029 0.494,-0.332 0.899,-0.652 1.197,-0.941 0.3,-0.288 0.482,-0.544 0.577,-0.721 0.02,-0.043 0.045,-0.086 0.055,-0.114 0.012,-0.033 0.022,-0.048 0.032,-0.082 0.019,-0.058 0.028,-0.087 0.028,-0.087 z"
               style="fill:#f35e25;fill-opacity:1;fill-rule:nonzero;stroke:none"
               id="path98" />
          </g>
          <g
             id="g100"
             transform="translate(634.0908,237.3763)">
            <path
               d="m 0,0 c 0,0 -0.011,0.03 -0.033,0.088 -0.019,0.053 -0.062,0.159 -0.118,0.278 -0.113,0.236 -0.308,0.575 -0.638,0.926 -0.325,0.354 -0.784,0.709 -1.345,1.022 -0.563,0.314 -1.225,0.591 -1.958,0.838 -1.466,0.496 -3.21,0.884 -5.062,1.337 -0.925,0.226 -1.878,0.469 -2.837,0.752 -0.958,0.279 -1.918,0.616 -2.869,0.971 -1.904,0.715 -3.771,1.531 -5.501,2.34 -1.731,0.809 -3.324,1.612 -4.68,2.322 -2.711,1.418 -4.471,2.453 -4.471,2.453 0,0 1.744,-1.063 4.434,-2.524 1.346,-0.731 2.928,-1.56 4.648,-2.398 1.721,-0.837 3.58,-1.684 5.48,-2.432 0.952,-0.373 1.911,-0.724 2.871,-1.029 0.959,-0.305 1.912,-0.569 2.836,-0.816 1.845,-0.493 3.576,-0.917 4.996,-1.432 0.709,-0.256 1.339,-0.536 1.857,-0.84 0.518,-0.304 0.921,-0.632 1.196,-0.944 0.278,-0.311 0.433,-0.597 0.523,-0.796 0.045,-0.1 0.071,-0.166 0.093,-0.231 0.021,-0.058 0.032,-0.089 0.032,-0.089 z"
               style="fill:#f35e25;fill-opacity:1;fill-rule:nonzero;stroke:none"
               id="path102" />
          </g>
          <g
             id="g104"
             transform="translate(635.2416,227.3952)">
            <path
               d="m 0,0 c 0,0 -0.012,0.03 -0.034,0.087 -0.018,0.05 -0.067,0.162 -0.131,0.282 -0.127,0.236 -0.357,0.556 -0.712,0.872 -0.355,0.317 -0.828,0.627 -1.396,0.909 -0.568,0.283 -1.23,0.539 -1.962,0.768 -1.465,0.459 -3.21,0.813 -5.087,1.097 -0.939,0.143 -1.911,0.267 -2.899,0.384 -0.493,0.058 -0.99,0.117 -1.49,0.175 -0.498,0.057 -0.994,0.131 -1.495,0.201 -0.501,0.067 -0.997,0.151 -1.493,0.229 -0.496,0.076 -0.988,0.168 -1.477,0.252 -0.978,0.174 -1.937,0.358 -2.865,0.546 -0.927,0.187 -1.822,0.376 -2.669,0.563 -0.847,0.186 -1.647,0.369 -2.384,0.542 -2.95,0.692 -4.9,1.219 -4.9,1.219 0,0 1.941,-0.56 4.88,-1.302 0.735,-0.185 1.532,-0.381 2.376,-0.582 0.845,-0.201 1.737,-0.406 2.662,-0.609 0.926,-0.203 1.884,-0.404 2.861,-0.595 0.488,-0.092 0.979,-0.192 1.476,-0.277 0.497,-0.087 0.995,-0.18 1.493,-0.255 0.498,-0.079 0.999,-0.162 1.498,-0.229 0.498,-0.069 0.994,-0.137 1.487,-0.204 0.983,-0.137 1.949,-0.28 2.879,-0.44 1.859,-0.319 3.579,-0.705 5,-1.181 0.709,-0.238 1.343,-0.499 1.874,-0.776 0.531,-0.277 0.958,-0.572 1.261,-0.854 0.304,-0.282 0.48,-0.545 0.576,-0.73 0.046,-0.092 0.072,-0.148 0.095,-0.215 0.022,-0.058 0.033,-0.088 0.033,-0.088 z"
               style="fill:#f35e25;fill-opacity:1;fill-rule:nonzero;stroke:none"
               id="path106" />
          </g>
          <g
             id="g108"
             transform="translate(635.3596,226.0976)">
            <path
               d="m 0,0 c 0,0 0.132,-0.029 0.38,-0.082 0.125,-0.026 0.295,-0.044 0.486,-0.071 0.048,-0.007 0.098,-0.014 0.149,-0.021 0.051,-0.004 0.103,-0.009 0.156,-0.013 0.107,-0.009 0.221,-0.019 0.341,-0.029 0.48,-0.037 1.06,-0.058 1.724,-0.066 0.332,-0.003 0.685,0.002 1.057,0.004 0.372,0.012 0.763,0.017 1.17,0.035 0.407,0.021 0.831,0.034 1.269,0.066 0.22,0.014 0.442,0.029 0.669,0.043 0.226,0.019 0.455,0.038 0.688,0.057 0.93,0.074 1.908,0.185 2.918,0.313 0.504,0.074 1.018,0.137 1.534,0.228 0.259,0.042 0.519,0.086 0.78,0.129 0.261,0.049 0.522,0.099 0.785,0.149 0.264,0.046 0.526,0.105 0.789,0.163 0.263,0.058 0.528,0.112 0.791,0.175 0.525,0.127 1.052,0.253 1.578,0.38 2.106,0.516 4.203,1.055 6.177,1.526 0.987,0.235 1.943,0.456 2.852,0.651 0.455,0.097 0.897,0.194 1.326,0.277 0.429,0.086 0.844,0.169 1.243,0.239 0.399,0.075 0.782,0.144 1.147,0.202 0.365,0.059 0.711,0.12 1.037,0.164 0.327,0.046 0.632,0.089 0.915,0.129 0.283,0.034 0.543,0.066 0.778,0.094 0.118,0.014 0.229,0.027 0.334,0.039 0.104,0.01 0.203,0.019 0.295,0.028 0.183,0.017 0.338,0.031 0.465,0.043 0.252,0.023 0.387,0.036 0.387,0.036 0,0 -0.135,-0.01 -0.388,-0.03 C 33.706,4.849 33.549,4.837 33.366,4.823 33.274,4.816 33.176,4.809 33.071,4.801 32.966,4.79 32.854,4.779 32.737,4.767 32.501,4.743 32.24,4.716 31.956,4.687 31.673,4.652 31.366,4.613 31.039,4.573 30.711,4.534 30.364,4.479 29.998,4.426 29.631,4.375 29.247,4.312 28.847,4.244 28.445,4.18 28.029,4.105 27.598,4.025 27.167,3.949 26.723,3.86 26.266,3.771 25.352,3.591 24.392,3.386 23.4,3.168 21.417,2.73 19.309,2.226 17.199,1.747 16.671,1.63 16.142,1.512 15.616,1.395 15.354,1.336 15.09,1.288 14.828,1.234 14.567,1.181 14.306,1.128 14.044,1.086 13.782,1.041 13.521,0.996 13.262,0.952 13.002,0.913 12.743,0.874 12.486,0.836 11.972,0.755 11.46,0.702 10.959,0.637 9.954,0.526 8.98,0.433 8.055,0.375 7.824,0.36 7.596,0.345 7.371,0.33 7.147,0.32 6.925,0.309 6.708,0.299 6.272,0.274 5.851,0.268 5.448,0.255 5.044,0.244 4.657,0.245 4.289,0.24 3.921,0.244 3.572,0.245 3.245,0.253 2.591,0.273 2.022,0.303 1.558,0.347 1.087,0.388 0.751,0.443 0.509,0.486 0.262,0.544 0.13,0.575 0.13,0.575 Z"
               style="fill:#606164;fill-opacity:1;fill-rule:nonzero;stroke:none"
               id="path110" />
          </g>
          <g
             id="g112"
             transform="translate(635.1657,227.0696)">
            <path
               d="m 0,0 c 0,0 0.037,-0.026 0.109,-0.078 0.069,-0.051 0.189,-0.128 0.305,-0.225 0.122,-0.095 0.274,-0.224 0.437,-0.388 0.167,-0.161 0.336,-0.37 0.524,-0.616 0.371,-0.498 0.814,-1.17 1.395,-1.867 0.072,-0.087 0.146,-0.176 0.221,-0.266 0.077,-0.088 0.155,-0.177 0.234,-0.268 0.156,-0.183 0.325,-0.363 0.497,-0.55 0.169,-0.189 0.354,-0.37 0.537,-0.562 0.182,-0.189 0.368,-0.383 0.558,-0.58 0.749,-0.792 1.534,-1.682 2.359,-2.633 0.823,-0.952 1.685,-1.963 2.575,-3.011 0.89,-1.048 1.811,-2.131 2.753,-3.226 0.945,-1.093 1.912,-2.198 2.913,-3.275 l 0.375,-0.404 0.384,-0.396 c 0.129,-0.131 0.254,-0.265 0.385,-0.393 l 0.397,-0.384 c 0.26,-0.251 0.527,-0.505 0.767,-0.764 0.123,-0.13 0.242,-0.266 0.363,-0.399 0.118,-0.136 0.235,-0.273 0.352,-0.408 0.924,-1.102 1.779,-2.238 2.606,-3.337 0.826,-1.1 1.62,-2.168 2.386,-3.171 0.765,-1.004 1.503,-1.942 2.205,-2.79 0.702,-0.848 1.369,-1.606 1.986,-2.253 0.617,-0.647 1.186,-1.181 1.676,-1.594 0.486,-0.418 0.905,-0.698 1.19,-0.889 0.294,-0.175 0.451,-0.268 0.451,-0.268 0,0 -0.155,0.096 -0.447,0.275 -0.281,0.195 -0.696,0.48 -1.175,0.905 -0.483,0.42 -1.042,0.961 -1.648,1.616 -0.607,0.654 -1.261,1.421 -1.949,2.279 -0.688,0.857 -1.411,1.804 -2.16,2.818 -0.75,1.014 -1.528,2.093 -2.338,3.206 -0.811,1.113 -1.65,2.263 -2.566,3.388 -0.116,0.139 -0.233,0.279 -0.35,0.419 -0.121,0.136 -0.239,0.275 -0.363,0.411 -0.25,0.278 -0.507,0.529 -0.768,0.789 l -0.385,0.384 c -0.128,0.129 -0.251,0.264 -0.377,0.396 l -0.374,0.398 -0.368,0.407 c -0.978,1.086 -1.927,2.203 -2.854,3.308 -0.925,1.108 -1.829,2.203 -2.703,3.265 C 9.24,-9.67 8.393,-8.645 7.582,-7.677 6.77,-6.713 5.991,-5.803 5.242,-4.986 5.053,-4.785 4.869,-4.587 4.689,-4.394 4.512,-4.203 4.333,-4.022 4.171,-3.835 4.006,-3.651 3.843,-3.472 3.694,-3.292 3.618,-3.203 3.544,-3.114 3.47,-3.028 3.399,-2.939 3.329,-2.852 3.26,-2.766 2.706,-2.081 2.299,-1.439 1.91,-0.901 1.714,-0.634 1.524,-0.394 1.335,-0.206 1.15,-0.014 0.981,0.135 0.835,0.252 0.688,0.376 0.586,0.441 0.514,0.497 0.443,0.549 0.406,0.576 0.406,0.576 Z"
               style="fill:#606164;fill-opacity:1;fill-rule:nonzero;stroke:none"
               id="path114" />
          </g>
          <g
             id="g116"
             transform="translate(648.6906,211.5966)">
            <path
               d="m 0,0 c 0,0 0.087,-0.042 0.25,-0.119 0.162,-0.079 0.402,-0.192 0.712,-0.332 0.617,-0.285 1.496,-0.676 2.556,-1.142 1.059,-0.464 2.298,-0.999 3.628,-1.563 0.667,-0.28 1.355,-0.57 2.055,-0.864 0.7,-0.292 1.412,-0.587 2.126,-0.877 0.713,-0.293 1.429,-0.579 2.133,-0.861 0.703,-0.284 1.402,-0.55 2.074,-0.814 0.675,-0.257 1.328,-0.505 1.947,-0.74 0.623,-0.225 1.21,-0.442 1.755,-0.634 0.548,-0.185 1.047,-0.363 1.494,-0.506 0.448,-0.139 0.838,-0.264 1.161,-0.36 0.65,-0.174 1.022,-0.273 1.022,-0.273 0,0 -0.37,0.106 -1.017,0.293 -0.321,0.102 -0.708,0.234 -1.153,0.382 -0.444,0.151 -0.939,0.338 -1.482,0.533 -0.541,0.203 -1.124,0.431 -1.742,0.667 -0.614,0.247 -1.262,0.507 -1.931,0.776 -0.667,0.278 -1.359,0.556 -2.057,0.854 -0.698,0.295 -1.408,0.594 -2.115,0.901 -0.708,0.304 -1.413,0.612 -2.108,0.917 C 8.615,-3.455 7.932,-3.152 7.272,-2.86 5.953,-2.27 4.726,-1.713 3.677,-1.229 2.629,-0.744 1.755,-0.335 1.152,-0.043 0.85,0.101 0.613,0.218 0.451,0.3 0.29,0.381 0.204,0.424 0.204,0.424 Z"
               style="fill:#f35e25;fill-opacity:1;fill-rule:nonzero;stroke:none"
               id="path118" />
          </g>
          <g
             id="g120"
             transform="translate(640.6256,221.0653)">
            <path
               d="m 0,0 c 0,0 0.023,-0.019 0.069,-0.056 0.047,-0.036 0.107,-0.092 0.208,-0.161 0.097,-0.07 0.218,-0.159 0.359,-0.246 0.071,-0.045 0.147,-0.093 0.227,-0.145 0.083,-0.048 0.171,-0.099 0.264,-0.152 0.183,-0.112 0.395,-0.216 0.622,-0.337 0.23,-0.114 0.48,-0.235 0.75,-0.356 0.273,-0.115 0.56,-0.246 0.872,-0.359 0.155,-0.059 0.314,-0.119 0.476,-0.18 C 4.012,-2.047 4.181,-2.104 4.353,-2.161 4.439,-2.19 4.526,-2.22 4.614,-2.249 4.703,-2.275 4.793,-2.301 4.883,-2.327 5.065,-2.38 5.249,-2.433 5.437,-2.487 5.626,-2.54 5.82,-2.582 6.016,-2.631 6.212,-2.676 6.409,-2.734 6.614,-2.77 7.022,-2.847 7.438,-2.944 7.87,-3 c 0.215,-0.033 0.432,-0.066 0.652,-0.099 0.22,-0.028 0.444,-0.048 0.668,-0.073 0.225,-0.021 0.451,-0.054 0.681,-0.065 0.229,-0.014 0.459,-0.027 0.692,-0.041 0.115,-0.007 0.232,-0.014 0.348,-0.021 0.117,-0.005 0.235,-0.003 0.352,-0.006 0.235,-0.002 0.471,-0.005 0.708,-0.008 0.946,-10e-4 1.902,0.019 2.861,0.026 3.832,0.038 7.665,0.05 10.538,-0.043 1.436,-0.045 2.632,-0.119 3.464,-0.216 0.417,-0.046 0.742,-0.104 0.96,-0.154 0.055,-0.013 0.103,-0.025 0.145,-0.034 0.041,-0.013 0.075,-0.024 0.103,-0.032 0.056,-0.017 0.084,-0.026 0.084,-0.026 0,0 -0.028,0.009 -0.083,0.027 -0.028,0.009 -0.062,0.02 -0.103,0.033 -0.042,0.011 -0.09,0.023 -0.144,0.037 -0.219,0.053 -0.543,0.116 -0.959,0.169 -0.832,0.111 -2.028,0.202 -3.465,0.27 -2.873,0.137 -6.707,0.184 -10.541,0.204 -0.957,0.009 -1.918,0.003 -2.858,0.019 -0.235,0.006 -0.469,0.013 -0.701,0.019 -0.116,0.004 -0.232,0.005 -0.348,0.011 -0.115,0.009 -0.23,0.018 -0.344,0.026 -0.23,0.017 -0.458,0.034 -0.684,0.051 C 9.67,-2.912 9.447,-2.875 9.225,-2.851 9.004,-2.824 8.784,-2.801 8.567,-2.77 8.35,-2.733 8.136,-2.697 7.924,-2.662 7.499,-2.6 7.091,-2.498 6.691,-2.416 6.49,-2.378 6.297,-2.317 6.104,-2.27 5.912,-2.219 5.721,-2.174 5.537,-2.12 5.353,-2.064 5.172,-2.009 4.995,-1.954 4.906,-1.927 4.819,-1.9 4.732,-1.873 4.646,-1.843 4.561,-1.813 4.477,-1.784 4.309,-1.724 4.144,-1.667 3.983,-1.61 3.825,-1.547 3.67,-1.486 3.519,-1.426 3.215,-1.311 2.937,-1.178 2.672,-1.062 2.41,-0.94 2.169,-0.819 1.947,-0.704 1.729,-0.583 1.524,-0.479 1.349,-0.369 1.261,-0.316 1.177,-0.266 1.098,-0.219 1.022,-0.168 0.95,-0.121 0.884,-0.077 0.747,0.01 0.646,0.088 0.56,0.151 0.475,0.209 0.408,0.272 0.364,0.308 0.319,0.345 0.296,0.365 0.296,0.365 Z"
               style="fill:#f35e25;fill-opacity:1;fill-rule:nonzero;stroke:none"
               id="path122" />
          </g>
          <g
             id="g124"
             transform="translate(635.0784,227.2623)">
            <path
               d="m 0,0 c 0,0 -0.018,-0.033 -0.053,-0.098 -0.035,-0.063 -0.085,-0.163 -0.153,-0.281 -0.135,-0.229 -0.344,-0.579 -0.633,-1.016 -0.573,-0.876 -1.441,-2.104 -2.517,-3.553 -0.538,-0.724 -1.129,-1.503 -1.766,-2.316 -0.321,-0.4 -0.651,-0.832 -0.972,-1.278 -0.318,-0.445 -0.639,-0.901 -0.959,-1.369 -1.283,-1.868 -2.601,-3.89 -3.966,-5.876 -0.171,-0.248 -0.344,-0.494 -0.518,-0.738 -0.174,-0.244 -0.354,-0.485 -0.527,-0.735 -0.347,-0.495 -0.678,-0.995 -1.003,-1.493 -0.649,-0.998 -1.267,-1.993 -1.849,-2.965 -1.165,-1.945 -2.186,-3.8 -2.986,-5.429 -0.401,-0.815 -0.747,-1.572 -1.032,-2.253 -0.286,-0.68 -0.508,-1.284 -0.669,-1.789 -0.085,-0.251 -0.144,-0.48 -0.202,-0.678 -0.051,-0.199 -0.091,-0.37 -0.124,-0.508 -0.053,-0.279 -0.081,-0.428 -0.081,-0.428 0,0 0.031,0.149 0.089,0.426 0.035,0.137 0.078,0.307 0.133,0.505 0.061,0.196 0.124,0.424 0.214,0.673 0.17,0.501 0.402,1.1 0.7,1.773 0.296,0.674 0.654,1.423 1.069,2.228 0.828,1.611 1.88,3.443 3.076,5.362 0.599,0.959 1.233,1.94 1.898,2.922 0.332,0.49 0.672,0.983 1.023,1.466 0.174,0.24 0.358,0.479 0.539,0.722 0.18,0.243 0.358,0.488 0.534,0.733 1.405,1.967 2.759,3.964 4.072,5.802 0.327,0.46 0.653,0.908 0.977,1.342 0.322,0.432 0.646,0.84 0.981,1.242 0.656,0.807 1.262,1.578 1.817,2.295 1.107,1.436 2.002,2.655 2.602,3.537 0.302,0.438 0.526,0.796 0.681,1.053 0.076,0.125 0.124,0.218 0.162,0.283 0.036,0.063 0.054,0.096 0.054,0.096 z"
               style="fill:#606164;fill-opacity:1;fill-rule:nonzero;stroke:none"
               id="path126" />
          </g>
          <g
             id="g128"
             transform="translate(627.0925,215.831)">
            <path
               d="m 0,0 c 0,0 -0.085,-0.03 -0.245,-0.087 -0.159,-0.058 -0.393,-0.141 -0.692,-0.239 -0.297,-0.102 -0.662,-0.217 -1.081,-0.349 -0.419,-0.133 -0.895,-0.272 -1.414,-0.426 -0.521,-0.146 -1.083,-0.312 -1.683,-0.467 -0.3,-0.079 -0.607,-0.164 -0.923,-0.243 -0.316,-0.079 -0.639,-0.159 -0.967,-0.241 -0.328,-0.084 -0.663,-0.158 -1.003,-0.236 -0.339,-0.077 -0.682,-0.159 -1.029,-0.233 -0.696,-0.142 -1.4,-0.302 -2.111,-0.427 -0.354,-0.066 -0.709,-0.132 -1.063,-0.197 -0.354,-0.058 -0.708,-0.115 -1.058,-0.171 -0.7,-0.122 -1.395,-0.201 -2.065,-0.294 -0.335,-0.05 -0.666,-0.077 -0.99,-0.112 -0.323,-0.033 -0.64,-0.066 -0.949,-0.098 -0.618,-0.052 -1.203,-0.084 -1.743,-0.123 -0.54,-0.027 -1.037,-0.031 -1.476,-0.046 -0.44,-0.02 -0.823,-0.002 -1.139,0.002 -0.632,0.012 -0.993,0.019 -0.993,0.019 0,0 0.361,-0.012 0.993,-0.034 0.315,-0.009 0.699,-0.033 1.139,-0.02 0.44,0.008 0.937,0.005 1.478,0.024 0.541,0.031 1.128,0.054 1.748,0.097 0.309,0.027 0.627,0.054 0.952,0.083 0.324,0.029 0.657,0.052 0.993,0.096 0.672,0.084 1.37,0.152 2.073,0.263 0.352,0.052 0.707,0.103 1.063,0.155 0.355,0.061 0.711,0.121 1.068,0.182 0.714,0.114 1.422,0.263 2.122,0.395 0.349,0.069 0.694,0.146 1.035,0.218 0.342,0.073 0.679,0.142 1.009,0.222 0.33,0.076 0.655,0.152 0.973,0.226 0.318,0.074 0.627,0.155 0.929,0.229 0.605,0.147 1.171,0.305 1.696,0.443 0.523,0.147 1.003,0.279 1.426,0.406 0.423,0.126 0.792,0.237 1.095,0.335 0.304,0.095 0.54,0.175 0.7,0.23 0.16,0.054 0.246,0.083 0.246,0.083 z"
               style="fill:#f35e25;fill-opacity:1;fill-rule:nonzero;stroke:none"
               id="path130" />
          </g>
          <g
             id="g132"
             transform="translate(625.5979,213.6712)">
            <path
               d="M 0,0 C 0,0 -0.006,-0.053 -0.017,-0.152 -0.024,-0.251 -0.035,-0.413 -0.038,-0.6 -0.04,-0.694 -0.041,-0.798 -0.043,-0.911 c 10e-4,-0.113 0.002,-0.235 0.003,-0.365 0.002,-0.26 0.015,-0.553 0.027,-0.873 0.018,-0.319 0.035,-0.665 0.066,-1.03 0.025,-0.365 0.067,-0.749 0.106,-1.146 0.045,-0.396 0.093,-0.805 0.15,-1.22 0.062,-0.414 0.118,-0.836 0.195,-1.254 0.036,-0.209 0.072,-0.419 0.108,-0.627 0.041,-0.208 0.082,-0.415 0.123,-0.62 0.042,-0.205 0.079,-0.409 0.124,-0.609 0.045,-0.199 0.091,-0.397 0.135,-0.591 0.046,-0.193 0.085,-0.385 0.134,-0.571 0.048,-0.185 0.095,-0.366 0.141,-0.543 0.046,-0.176 0.09,-0.348 0.133,-0.514 0.049,-0.164 0.095,-0.324 0.139,-0.476 0.091,-0.305 0.171,-0.586 0.247,-0.832 0.081,-0.246 0.152,-0.459 0.21,-0.636 0.117,-0.351 0.183,-0.553 0.183,-0.553 0,0 -0.061,0.203 -0.168,0.558 -0.054,0.178 -0.119,0.393 -0.194,0.64 -0.07,0.249 -0.142,0.531 -0.225,0.838 -0.041,0.153 -0.083,0.313 -0.126,0.479 -0.039,0.167 -0.08,0.339 -0.121,0.516 -0.041,0.178 -0.083,0.36 -0.127,0.546 -0.043,0.186 -0.078,0.378 -0.118,0.572 -0.039,0.195 -0.079,0.393 -0.12,0.593 -0.04,0.2 -0.071,0.405 -0.108,0.61 -0.035,0.205 -0.071,0.412 -0.106,0.62 -0.031,0.209 -0.061,0.418 -0.092,0.628 -0.065,0.418 -0.11,0.839 -0.161,1.252 -0.047,0.414 -0.084,0.823 -0.119,1.217 -0.028,0.396 -0.06,0.778 -0.075,1.141 -0.022,0.363 -0.03,0.706 -0.039,1.022 -0.005,0.317 -0.009,0.607 -0.005,0.864 0.002,0.128 0.004,0.248 0.006,0.359 0.005,0.11 0.009,0.212 0.013,0.303 0.008,0.185 0.02,0.314 0.029,0.412 0.014,0.099 0.021,0.151 0.021,0.151 z"
               style="fill:#f35e25;fill-opacity:1;fill-rule:nonzero;stroke:none"
               id="path134" />
          </g>
          <g
             id="g136"
             transform="translate(635.7607,175.0049)">
            <path
               d="m 0,0 c 0,0 0.039,0.109 0.114,0.322 0.038,0.106 0.084,0.239 0.14,0.396 0.054,0.166 0.117,0.357 0.188,0.574 0.275,0.862 0.646,2.112 1.027,3.729 0.381,1.614 0.771,3.59 1.075,5.874 0.304,2.284 0.524,4.877 0.567,7.708 0.01,0.708 -0.002,1.431 -0.002,2.167 -0.014,0.736 -0.051,1.486 -0.077,2.248 -0.004,0.19 -0.02,0.381 -0.033,0.573 -0.014,0.192 -0.028,0.384 -0.042,0.578 -0.028,0.386 -0.056,0.776 -0.084,1.169 -0.062,0.783 -0.14,1.561 -0.21,2.359 -0.293,3.189 -0.619,6.548 -0.975,10.021 -0.356,3.473 -0.739,7.059 -1.16,10.702 -0.21,1.821 -0.429,3.656 -0.666,5.498 -0.235,1.845 -0.508,3.691 -0.786,5.531 -0.556,3.681 -1.131,7.357 -1.692,10.975 -0.279,1.81 -0.556,3.605 -0.83,5.378 -0.133,0.887 -0.265,1.768 -0.397,2.643 -0.133,0.875 -0.241,1.742 -0.392,2.615 -0.294,1.725 -0.609,3.41 -0.92,5.061 -0.318,1.648 -0.628,3.261 -0.931,4.831 -0.613,3.138 -1.208,6.101 -1.765,8.835 -1.115,5.468 -2.083,10.016 -2.806,13.189 -0.361,1.587 -0.661,2.83 -0.885,3.673 -0.111,0.421 -0.208,0.741 -0.273,0.957 -0.075,0.212 -0.114,0.321 -0.114,0.321 0,0 0.037,-0.11 0.108,-0.324 0.061,-0.216 0.152,-0.537 0.255,-0.961 0.208,-0.846 0.485,-2.094 0.816,-3.686 0.664,-3.186 1.547,-7.75 2.56,-13.236 0.506,-2.744 1.045,-5.717 1.6,-8.864 0.273,-1.575 0.554,-3.192 0.84,-4.845 0.281,-1.653 0.564,-3.345 0.824,-5.063 0.131,-0.848 0.224,-1.729 0.341,-2.608 0.116,-0.878 0.232,-1.764 0.349,-2.654 0.241,-1.779 0.484,-3.58 0.73,-5.395 0.494,-3.629 1.001,-7.315 1.488,-11.001 0.243,-1.843 0.48,-3.683 0.679,-5.519 0.203,-1.838 0.386,-3.673 0.563,-5.493 0.352,-3.642 0.668,-7.231 0.959,-10.704 0.291,-3.473 0.554,-6.834 0.787,-10.019 0.055,-0.795 0.119,-1.587 0.166,-2.354 0.02,-0.383 0.04,-0.762 0.06,-1.139 0.01,-0.188 0.02,-0.376 0.03,-0.563 0.01,-0.186 0.022,-0.372 0.022,-0.558 C 1.259,22.2 1.282,21.471 1.282,20.755 1.269,20.04 1.268,19.337 1.246,18.65 1.153,15.901 0.892,13.391 0.557,11.187 0.222,8.981 -0.19,7.082 -0.585,5.537 -0.98,3.994 -1.359,2.799 -1.628,2.006 -1.696,1.811 -1.756,1.638 -1.808,1.489 -1.866,1.334 -1.915,1.204 -1.954,1.099 -2.033,0.888 -2.073,0.78 -2.073,0.78 Z"
               style="fill:#f35e25;fill-opacity:1;fill-rule:nonzero;stroke:none"
               id="path138" />
          </g>
        </g>
      </g>
    </g>
  </g>
</svg>
