<?xml version="1.0" encoding="UTF-8" standalone="no"?>
<!-- Created with Inkscape (http://www.inkscape.org/) -->

<svg
   version="1.1"
   id="svg2"
   width="316.52402"
   height="74.810913"
   viewBox="0 0 316.52401 74.810913"
   sodipodi:docname="Höstworkshop_program4_2023.pdf"
   xmlns:inkscape="http://www.inkscape.org/namespaces/inkscape"
   xmlns:sodipodi="http://sodipodi.sourceforge.net/DTD/sodipodi-0.dtd"
   xmlns="http://www.w3.org/2000/svg"
   xmlns:svg="http://www.w3.org/2000/svg">
  <defs
     id="defs6">
    <clipPath
       clipPathUnits="userSpaceOnUse"
       id="clipPath150">
      <path
         d="M 62.607,85.039 H 300 v 56.109 H 62.607 Z"
         id="path148" />
    </clipPath>
  </defs>
  <sodipodi:namedview
     id="namedview4"
     pagecolor="#ffffff"
     bordercolor="#000000"
     borderopacity="0.25"
     inkscape:showpageshadow="2"
     inkscape:pageopacity="0.0"
     inkscape:pagecheckerboard="0"
     inkscape:deskcolor="#d1d1d1"
     showgrid="false" />
  <g
     id="g10"
     inkscape:groupmode="layer"
     inkscape:label="Page 1"
     transform="matrix(1.3333333,0,0,-1.3333333,-83.475999,188.19638)">
    <g
       id="g144"
       inkscape:export-filename="nationella_sprakbanken.png"
       inkscape:export-xdpi="96"
       inkscape:export-ydpi="96">
      <g
         id="g146"
         clip-path="url(#clipPath150)">
        <g
           id="g152"
           transform="translate(300.0001,85.1541)">
          <path
             d="M 0,0 V 28.379 H -2.142 V 5.278 L -20.653,28.8 -21.151,28.685 V 0.344 h 2.104 V 23.713 L -0.382,-0.076 Z m -24.937,0.344 v 1.951 h -13.692 v 11.321 h 12.354 v 1.912 h -12.354 v 10.939 h 13.692 v 1.912 H -40.77 V 0.344 Z m -18.051,0 -14.343,14.419 13.807,13.616 h -2.753 L -59.396,15.337 v 13.042 h -2.142 V 0.344 h 2.142 V 14.189 L -45.819,0.344 Z M -66.28,0 v 28.379 h -2.142 V 5.278 L -86.933,28.8 -87.431,28.685 V 0.344 h 2.104 v 23.369 l 18.664,-23.789 z m -23.407,0.344 -12.277,28.494 h -0.383 L -114.624,0.344 h 2.257 l 3.595,8.567 h 13.157 l 3.633,-8.567 z m -6.731,10.403 h -11.551 l 5.775,13.731 z m -20.232,1.626 c -1.046,1.262 -2.691,2.097 -4.934,2.505 1.912,0.51 3.359,1.325 4.341,2.448 0.981,1.121 1.473,2.524 1.473,4.207 0,0.943 -0.199,1.848 -0.594,2.715 -0.395,0.867 -0.994,1.626 -1.797,2.276 -0.803,0.65 -1.817,1.167 -3.041,1.549 -1.224,0.382 -2.677,0.574 -4.36,0.574 -1.147,0 -2.218,-0.045 -3.212,-0.134 -0.995,-0.09 -2.015,-0.198 -3.06,-0.325 V 0.535 c 1.045,-0.127 2.109,-0.235 3.194,-0.325 1.083,-0.089 2.199,-0.134 3.346,-0.134 1.683,0 3.161,0.217 4.437,0.651 1.274,0.433 2.339,1.013 3.193,1.74 0.854,0.727 1.498,1.568 1.932,2.524 0.433,0.956 0.65,1.944 0.65,2.964 0,1.683 -0.523,3.156 -1.568,4.418 m -1.798,6.712 c -0.332,-0.688 -0.835,-1.288 -1.511,-1.798 -0.675,-0.51 -1.529,-0.911 -2.562,-1.204 -1.033,-0.294 -2.263,-0.44 -3.691,-0.44 h -1.74 c -0.574,0 -1.154,0.025 -1.74,0.076 v 10.748 c 1.351,0.229 2.779,0.344 4.283,0.344 2.549,0 4.43,-0.516 5.642,-1.549 1.21,-1.033 1.816,-2.352 1.816,-3.959 0,-0.79 -0.166,-1.53 -0.497,-2.218 m 0.65,-13.425 c -0.331,-0.739 -0.822,-1.383 -1.472,-1.931 -0.651,-0.549 -1.46,-0.982 -2.429,-1.3 -0.969,-0.319 -2.091,-0.478 -3.366,-0.478 -0.79,0 -1.587,0.031 -2.39,0.095 -0.803,0.064 -1.549,0.147 -2.237,0.249 v 11.55 c 0.586,0.051 1.21,0.077 1.874,0.077 h 1.759 c 2.932,0 5.125,-0.549 6.578,-1.645 1.454,-1.096 2.181,-2.499 2.181,-4.207 0,-0.867 -0.167,-1.67 -0.498,-2.41 m -16.254,-5.316 -14.342,14.419 13.807,13.616 h -2.754 L -150.46,15.337 v 13.042 h -2.141 V 0.344 h 2.141 v 13.845 l 13.578,-13.845 z m -30.406,33.753 c -0.714,0.752 -1.67,1.128 -2.868,1.128 -1.173,0 -2.123,-0.376 -2.85,-1.128 -0.727,-0.753 -1.09,-1.664 -1.09,-2.735 0,-0.943 0.287,-1.772 0.861,-2.486 0.573,-0.714 1.344,-1.147 2.313,-1.3 L -179.795,0.344 h 2.257 l 3.595,8.567 h 13.157 l 3.633,-8.567 h 2.295 L -166.6,27.538 c 0.969,0.178 1.747,0.617 2.333,1.319 0.586,0.701 0.88,1.536 0.88,2.505 0,1.071 -0.358,1.982 -1.071,2.735 m 2.868,-23.35 h -11.55 l 5.775,13.731 z m -4.035,18.837 c -0.446,-0.472 -1.013,-0.708 -1.701,-0.708 -0.664,0 -1.218,0.236 -1.664,0.708 -0.447,0.471 -0.669,1.077 -0.669,1.816 0,0.74 0.222,1.339 0.669,1.798 0.446,0.459 1,0.688 1.664,0.688 0.688,0 1.255,-0.229 1.701,-0.688 0.446,-0.459 0.67,-1.058 0.67,-1.798 0,-0.739 -0.224,-1.345 -0.67,-1.816 m -14.055,-29.24 -8.147,11.857 c 2.091,0.612 3.697,1.631 4.819,3.059 1.122,1.428 1.683,3.098 1.683,5.011 0,1.224 -0.229,2.345 -0.688,3.365 -0.459,1.02 -1.135,1.894 -2.027,2.62 -0.893,0.727 -2.002,1.294 -3.328,1.702 -1.326,0.408 -2.856,0.612 -4.589,0.612 -1.097,0 -2.11,-0.045 -3.041,-0.134 -0.931,-0.089 -1.919,-0.197 -2.964,-0.325 V 0.344 h 2.18 v 11.398 c 0.459,-0.052 1.014,-0.09 1.664,-0.115 0.65,-0.026 1.23,-0.038 1.74,-0.038 0.433,0 0.854,0.012 1.262,0.038 0.408,0.025 0.803,0.063 1.186,0.115 l 7.649,-11.398 z m -6.139,14.897 c -1.466,-1.211 -3.614,-1.816 -6.444,-1.816 -0.587,0 -1.199,0.025 -1.836,0.076 -0.638,0.051 -1.199,0.102 -1.683,0.153 v 12.66 c 1.351,0.229 2.702,0.344 4.054,0.344 1.326,0 2.492,-0.166 3.5,-0.497 1.007,-0.332 1.855,-0.784 2.543,-1.358 0.689,-0.574 1.205,-1.256 1.549,-2.046 0.344,-0.791 0.517,-1.658 0.517,-2.601 0,-2.065 -0.734,-3.704 -2.2,-4.915 m -15.566,7.822 c -0.446,1.071 -1.115,2.014 -2.008,2.83 -0.892,0.816 -2.014,1.466 -3.365,1.951 -1.352,0.484 -2.933,0.726 -4.743,0.726 -1.046,0 -2.04,-0.032 -2.983,-0.095 -0.944,-0.064 -1.874,-0.16 -2.792,-0.287 V 0.344 h 2.142 v 9.983 c 0.484,-0.052 1.051,-0.103 1.702,-0.153 0.65,-0.052 1.229,-0.077 1.74,-0.077 1.733,0 3.276,0.236 4.628,0.708 1.351,0.471 2.498,1.128 3.442,1.969 0.943,0.842 1.664,1.849 2.161,3.022 0.497,1.172 0.746,2.46 0.746,3.863 0,1.198 -0.224,2.333 -0.67,3.404 m -2.18,-6.56 c -0.37,-0.931 -0.918,-1.727 -1.644,-2.39 -0.727,-0.663 -1.626,-1.186 -2.697,-1.568 -1.071,-0.383 -2.308,-0.574 -3.71,-0.574 -0.587,0 -1.192,0.032 -1.816,0.096 -0.625,0.063 -1.193,0.12 -1.702,0.172 V 26.39 c 0.586,0.077 1.21,0.14 1.874,0.191 0.662,0.051 1.325,0.077 1.989,0.077 1.351,0 2.543,-0.198 3.576,-0.593 1.032,-0.396 1.893,-0.918 2.581,-1.568 0.689,-0.65 1.211,-1.403 1.568,-2.257 0.357,-0.854 0.536,-1.753 0.536,-2.696 0,-1.097 -0.185,-2.11 -0.555,-3.041 m -17.631,-6.291 c -0.32,0.765 -0.791,1.459 -1.416,2.084 -0.625,0.625 -1.396,1.205 -2.313,1.741 -0.918,0.535 -1.977,1.07 -3.175,1.606 -0.841,0.382 -1.619,0.771 -2.333,1.166 -0.714,0.395 -1.326,0.829 -1.836,1.301 -0.51,0.471 -0.905,0.994 -1.185,1.568 -0.281,0.574 -0.421,1.243 -0.421,2.008 0,0.739 0.14,1.421 0.421,2.046 0.28,0.624 0.681,1.173 1.204,1.645 0.523,0.471 1.16,0.841 1.913,1.109 0.751,0.268 1.599,0.401 2.543,0.401 1.071,0 2.071,-0.166 3.002,-0.497 0.931,-0.332 1.753,-0.752 2.467,-1.262 l 1.033,1.798 c -0.816,0.56 -1.766,1.019 -2.849,1.376 -1.084,0.357 -2.238,0.536 -3.462,0.536 -1.249,0 -2.39,-0.191 -3.423,-0.574 -1.032,-0.382 -1.919,-0.905 -2.658,-1.568 -0.74,-0.663 -1.313,-1.434 -1.721,-2.314 -0.408,-0.879 -0.612,-1.83 -0.612,-2.849 0,-0.969 0.159,-1.83 0.478,-2.582 0.319,-0.752 0.778,-1.434 1.377,-2.046 0.599,-0.612 1.332,-1.167 2.199,-1.664 0.867,-0.497 1.836,-0.988 2.907,-1.472 0.994,-0.459 1.874,-0.899 2.639,-1.32 0.765,-0.42 1.409,-0.879 1.931,-1.377 0.523,-0.497 0.918,-1.045 1.186,-1.644 0.268,-0.6 0.402,-1.307 0.402,-2.123 0,-0.765 -0.147,-1.486 -0.44,-2.161 -0.294,-0.676 -0.714,-1.256 -1.262,-1.74 -0.549,-0.485 -1.205,-0.867 -1.97,-1.147 -0.765,-0.281 -1.606,-0.421 -2.524,-0.421 -1.276,0 -2.519,0.229 -3.729,0.688 -1.212,0.459 -2.391,1.071 -3.538,1.836 l -1.033,-1.874 c 1.224,-0.816 2.505,-1.453 3.844,-1.912 1.339,-0.459 2.76,-0.689 4.264,-0.689 1.199,0 2.314,0.186 3.347,0.555 1.033,0.369 1.937,0.892 2.716,1.568 0.777,0.675 1.389,1.485 1.835,2.429 0.446,0.943 0.67,1.988 0.67,3.136 0,0.994 -0.16,1.874 -0.478,2.639"
             style="fill:#231f20;fill-opacity:1;fill-rule:nonzero;stroke:none"
             id="path154" />
        </g>
        <g
           id="g156"
           transform="translate(94.2713,124.9123)">
          <path
             d="M 0,0 -6.995,16.235 H -7.213 L -14.209,0 h 1.286 l 2.049,4.881 h 7.496 L -1.308,0 Z m -3.835,5.928 h -6.582 l 3.291,7.823 z m -11.659,-6.124 v 16.17 h -1.221 V 2.811 l -10.547,13.403 -0.283,-0.066 V 0 h 1.198 V 13.315 L -15.712,-0.24 Z"
             style="fill:#f2581a;fill-opacity:1;fill-rule:nonzero;stroke:none"
             id="path158" />
        </g>
        <g
           id="g160"
           transform="translate(187.0183,124.9123)">
          <path
             d="M 0,0 -6.995,16.235 H -7.213 L -14.209,0 h 1.286 l 2.048,4.881 h 7.497 L -1.308,0 Z m -3.835,5.928 h -6.582 l 3.291,7.823 z M -13.86,0 v 1.111 h -7.801 v 14.863 h -1.221 V 0 Z m -10.089,0 v 1.111 h -7.802 v 14.863 h -1.22 V 0 Z m -11.179,0 v 1.111 h -7.802 v 6.451 h 7.039 v 1.09 h -7.039 v 6.232 h 7.802 v 1.09 H -44.15 V 0 Z m -11.724,-0.196 v 16.17 h -1.221 V 2.811 L -58.62,16.214 -58.904,16.148 V 0 h 1.199 V 13.315 L -47.071,-0.24 Z m -14.732,11.452 c -0.407,1.009 -0.967,1.881 -1.678,2.615 -0.712,0.733 -1.547,1.307 -2.506,1.721 -0.959,0.414 -1.983,0.622 -3.073,0.622 -1.104,0 -2.139,-0.208 -3.105,-0.622 -0.967,-0.414 -1.809,-0.988 -2.528,-1.721 -0.719,-0.734 -1.286,-1.606 -1.7,-2.615 -0.414,-1.01 -0.621,-2.103 -0.621,-3.28 0,-1.177 0.203,-2.266 0.61,-3.269 0.407,-1.002 0.966,-1.871 1.678,-2.604 0.712,-0.734 1.547,-1.304 2.506,-1.711 0.959,-0.406 1.983,-0.61 3.073,-0.61 1.104,0 2.139,0.204 3.105,0.61 0.966,0.407 1.809,0.977 2.528,1.711 0.72,0.733 1.286,1.602 1.7,2.604 0.414,1.003 0.621,2.092 0.621,3.269 0,1.177 -0.203,2.27 -0.61,3.28 m -1.21,-6.08 C -63.12,4.311 -63.575,3.559 -64.156,2.92 -64.737,2.281 -65.43,1.779 -66.237,1.417 c -0.806,-0.364 -1.689,-0.545 -2.647,-0.545 -0.959,0 -1.842,0.181 -2.648,0.545 -0.807,0.362 -1.501,0.864 -2.081,1.503 -0.582,0.639 -1.036,1.391 -1.362,2.256 -0.327,0.864 -0.491,1.798 -0.491,2.8 0,1.002 0.164,1.939 0.491,2.811 0.326,0.872 0.78,1.627 1.362,2.267 0.58,0.639 1.274,1.14 2.081,1.503 0.806,0.363 1.689,0.545 2.648,0.545 0.958,0 1.841,-0.182 2.647,-0.545 0.807,-0.363 1.5,-0.864 2.081,-1.503 0.581,-0.64 1.036,-1.395 1.362,-2.267 0.327,-0.872 0.491,-1.809 0.491,-2.811 0,-1.002 -0.164,-1.936 -0.491,-2.8 m -16.158,10.798 h -1.22 V 0 h 1.22 z m -2.768,-1.09 v 1.09 h -12.073 v -1.09 h 5.426 V 0 h 1.243 v 14.884 z"
             style="fill:#f2581a;fill-opacity:1;fill-rule:nonzero;stroke:none"
             id="path162" />
        </g>
      </g>
    </g>
  </g>
</svg>
