<?xml version="1.0" encoding="UTF-8" standalone="no"?>
<!-- Created with Inkscape (http://www.inkscape.org/) -->

<svg
   id="svg4313"
   sodipodi:docname="speech_bubbles.svg"
   viewBox="0 0 636.58 429.44"
   version="1.1"
   inkscape:version="1.2.2 (b0a8486541, 2022-12-01)"
   xmlns:inkscape="http://www.inkscape.org/namespaces/inkscape"
   xmlns:sodipodi="http://sodipodi.sourceforge.net/DTD/sodipodi-0.dtd"
   xmlns="http://www.w3.org/2000/svg"
   xmlns:svg="http://www.w3.org/2000/svg"
   xmlns:rdf="http://www.w3.org/1999/02/22-rdf-syntax-ns#"
   xmlns:cc="http://creativecommons.org/ns#"
   xmlns:dc="http://purl.org/dc/elements/1.1/">
  <defs
     id="defs9">
    <rect
       x="38.114545"
       y="-84.457465"
       width="249.76239"
       height="84.457465"
       id="rect498" />
    <rect
       x="295.25552"
       y="-160.53181"
       width="306.37818"
       height="160.53181"
       id="rect442" />
  </defs>
  <sodipodi:namedview
     id="base"
     bordercolor="#666666"
     inkscape:pageshadow="2"
     inkscape:window-y="0"
     fit-margin-left="0"
     pagecolor="#ffffff"
     inkscape:window-height="1145"
     inkscape:window-maximized="1"
     inkscape:zoom="1.0795523"
     inkscape:window-x="0"
     showgrid="false"
     borderopacity="1.0"
     inkscape:current-layer="layer1"
     inkscape:cx="251.95631"
     inkscape:cy="270.94566"
     fit-margin-top="0"
     fit-margin-right="0"
     fit-margin-bottom="0"
     inkscape:window-width="1920"
     inkscape:pageopacity="0.0"
     inkscape:document-units="px"
     inkscape:showpageshadow="2"
     inkscape:pagecheckerboard="0"
     inkscape:deskcolor="#d1d1d1" />
  <g
     id="layer1"
     inkscape:label="Layer 1"
     inkscape:groupmode="layer"
     transform="translate(-10.104 -169.87)">
    <path
       id="path4287"
       style="color:#000000;fill:#f0581a;stroke:none;stroke-width:29.061;fill-opacity:1"
       d="M 421.89697 187.25086 C 420.99203 187.24598 420.08813 187.24711 419.18603 187.25867 C 417.38183 187.28181 415.58329 187.34364 413.78955 187.46766 L 413.79541 187.46375 C 306.17581 194.90301 222.17627 257.55458 222.17627 332.7743 C 222.17627 393.90406 278.03279 445.74453 356.58447 467.18445 L 478.27587 570.71375 L 478.27587 474.44813 C 575.95351 461.12717 649.00439 403.18192 649.00439 332.7782 C 649.00439 252.54852 553.45499 187.46766 435.58447 187.46766 C 431.90107 187.46766 428.24699 187.34412 424.61572 187.28211 C 423.7079 187.2666 422.80191 187.25573 421.89697 187.25086 z M 347.81884 282.56922 L 388.27587 364.14539 L 367.22509 364.14539 L 359.98877 349.34266 L 335.53759 349.34266 L 328.41064 364.14539 L 307.46923 364.14539 L 347.81884 282.56922 z M 506.80127 285.63953 C 517.98493 285.63953 524.56522 288.60035 530.81494 293.42469 L 530.81494 313.37977 C 525.77131 308.00722 518.75365 303.29188 507.89892 303.29188 C 495.50916 303.29188 484.87353 311.62632 484.87353 325.77039 C 484.87353 339.91446 495.50916 348.24695 507.89892 348.24695 C 518.75365 348.24695 525.77131 343.53163 530.81494 338.15906 L 530.81494 358.11414 C 524.56522 362.93846 517.98493 365.8993 506.80127 365.8993 C 482.13138 365.8993 464.69775 349.67276 464.69775 325.77039 C 464.69775 301.86802 482.13138 285.63953 506.80127 285.63953 z M 396.28173 287.39344 L 424.45947 287.39344 C 440.24814 287.39344 451.76025 293.8634 451.76025 306.91102 C 451.76025 314.36678 447.4842 319.84881 440.57666 322.91883 C 449.45781 325.98888 456.14697 332.23926 456.14697 342.54578 C 456.14697 357.78628 444.52361 364.14539 426.32275 364.14539 L 396.28173 364.14539 L 396.28173 287.39344 z M 546.3833 287.39344 L 566.8872 287.39344 L 563.37744 338.81727 L 550.00244 338.81727 L 546.3833 287.39344 z M 414.81103 301.75672 L 414.81103 317.87586 L 422.48486 317.87586 C 428.73455 317.87586 432.57275 314.80449 432.57275 309.65125 C 432.57275 304.498 428.73455 301.75672 422.48486 301.75672 L 414.81103 301.75672 z M 347.81884 315.57313 L 339.26611 335.19813 L 356.36962 335.19813 L 347.81884 315.57313 z M 414.81103 330.81336 L 414.81103 349.78211 L 424.24072 349.78211 C 431.36754 349.78211 436.95947 347.36874 436.95947 339.91297 C 436.95947 333.2247 431.36754 330.81336 424.24072 330.81336 L 414.81103 330.81336 z M 556.68994 347.91688 C 562.72037 347.91688 566.99658 351.86437 566.99658 357.34656 C 566.99658 362.9384 562.72037 366.77625 556.68994 366.77625 C 550.65953 366.77625 546.3833 362.9384 546.3833 357.34656 C 546.3833 351.86437 550.65953 347.91688 556.68994 347.91688 z " />
    <path
       id="path4294"
       style="color:#000000;fill:#f2dbd1;fill-opacity:1"
       d="M 165.91259 233.34461 C 162.2431 233.29733 158.53925 233.48523 154.79345 233.48523 C 74.883446 233.48523 10.104 277.60467 10.104 331.99695 C 10.104 379.73646 59.637514 419.01762 125.86377 428.0575 L 125.86377 493.32117 L 208.36767 423.13172 C 219.78282 420.01548 230.43351 415.9028 240.21337 411.03406 C 239.72574 410.53104 239.2155 410.03949 238.73681 409.53211 C 237.32807 408.03892 235.95839 406.52697 234.62939 404.99695 C 233.30039 403.46693 232.01138 401.91798 230.76416 400.35242 C 229.51693 398.78686 228.3104 397.20408 227.14697 395.60438 C 225.98354 394.00458 224.86325 392.38743 223.78564 390.75477 C 222.70803 389.122 221.67385 387.47389 220.68408 385.80945 C 219.69431 384.14501 218.74999 382.46522 217.85009 380.77039 C 216.9502 379.07556 216.0956 377.36541 215.28759 375.64148 C 214.47959 373.91767 213.71653 372.18032 213.00244 370.42859 C 212.28835 368.67697 211.62254 366.90997 211.00439 365.13172 C 210.38624 363.35347 209.81559 361.56215 209.29541 359.75867 C 208.77522 357.95519 208.30545 356.14078 207.88525 354.31336 C 207.46505 352.48593 207.09601 350.64586 206.77783 348.79578 C 206.45965 346.9457 206.19315 345.08519 205.979 343.21375 C 205.76485 341.3423 205.6027 339.46074 205.49462 337.56922 C 205.38664 335.6777 205.33252 333.7764 205.33252 331.86609 C 205.33252 329.51558 205.41442 327.17719 205.57666 324.85242 C 205.73888 322.52765 205.98051 320.21515 206.30127 317.91883 C 206.62202 315.62251 207.02098 313.34229 207.49658 311.07703 C 207.97218 308.81177 208.52421 306.56254 209.15087 304.33094 C 209.77763 302.09933 210.48015 299.88565 211.25439 297.69031 C 212.02864 295.49497 212.87542 293.31739 213.79345 291.16102 C 214.71149 289.00455 215.70015 286.86782 216.7583 284.75281 C 217.81644 282.6378 218.94459 280.54436 220.13916 278.47352 C 221.33373 276.40258 222.59505 274.35521 223.92236 272.33094 C 225.24967 270.30667 226.64178 268.30593 228.09814 266.33094 C 229.5545 264.35594 231.07511 262.4064 232.65673 260.48328 C 234.23845 258.56016 235.88106 256.66246 237.58447 254.79383 C 238.394 253.90576 239.26168 253.04606 240.09814 252.17078 C 219.90857 242.02426 195.81408 235.31029 169.58252 233.49695 L 169.5708 233.48523 C 168.35475 233.40118 167.13579 233.36037 165.91259 233.34461 z M 41.307125 321.6825 L 41.307125 340.69617 L 36.959469 340.69617 L 36.959469 326.27039 L 32.346187 327.41688 L 32.346187 323.49695 L 41.307125 321.6825 z M 54.879391 321.6825 L 54.879391 340.69617 L 50.533687 340.69617 L 50.533687 326.27039 L 45.920406 327.41688 L 45.920406 323.49695 L 54.879391 321.6825 z M 66.506344 321.6825 C 71.279638 321.6825 74.266109 325.28218 74.266109 331.36219 C 74.266109 337.44211 71.279638 341.04188 66.506344 341.04188 C 61.893036 341.04188 58.746578 337.44211 58.746578 331.36219 C 58.746578 325.28218 61.893036 321.6825 66.506344 321.6825 z M 86.105953 321.6825 L 86.105953 340.69617 L 81.76025 340.69617 L 81.76025 326.27039 L 77.146969 327.41688 L 77.146969 323.49695 L 86.105953 321.6825 z M 97.732906 321.6825 C 102.50624 321.6825 105.49267 325.28218 105.49267 331.36219 C 105.49267 337.44213 102.50624 341.04188 97.732906 341.04188 C 93.119597 341.04188 89.973141 337.44213 89.973141 331.36219 C 89.973141 325.28218 93.119597 321.6825 97.732906 321.6825 z M 117.33447 321.6825 L 117.33447 340.69617 L 112.98681 340.69617 L 112.98681 326.27039 L 108.37353 327.41688 L 108.37353 323.49695 L 117.33447 321.6825 z M 130.90673 321.6825 L 130.90673 340.69617 L 126.56103 340.69617 L 126.56103 326.27039 L 121.94775 327.41688 L 121.94775 323.49695 L 130.90673 321.6825 z M 142.53369 321.6825 C 147.30699 321.6825 150.29345 325.28218 150.29345 331.36219 C 150.29345 337.44216 147.30699 341.04188 142.53369 341.04188 C 137.92034 341.04188 134.77392 337.44216 134.77392 331.36219 C 134.77392 325.28218 137.92034 321.6825 142.53369 321.6825 z M 66.506344 325.54969 C 64.453026 325.54969 63.094234 327.84218 63.094234 331.36219 C 63.094234 334.8821 64.453026 337.17664 66.506344 337.17664 C 68.559662 337.17664 69.920406 334.8821 69.920406 331.36219 C 69.920406 327.84218 68.559662 325.54969 66.506344 325.54969 z M 97.732906 325.54969 C 95.679584 325.54969 94.320797 327.84218 94.320797 331.36219 C 94.320797 334.88212 95.679584 337.17664 97.732906 337.17664 C 99.786227 337.17664 101.14697 334.88212 101.14697 331.36219 C 101.14697 327.84218 99.786227 325.54969 97.732906 325.54969 z M 142.53369 325.54969 C 140.48035 325.54969 139.11962 327.84218 139.11962 331.36219 C 139.11962 334.88215 140.48035 337.17664 142.53369 337.17664 C 144.58702 337.17664 145.94775 334.88215 145.94775 331.36219 C 145.94775 327.84218 144.58702 325.54969 142.53369 325.54969 z M 155.65478 336.42859 C 157.12145 336.42859 158.16064 337.55034 158.16064 338.88367 C 158.16064 340.24367 157.12145 341.3368 155.65478 341.3368 C 154.18811 341.3368 153.14697 340.24367 153.14697 338.88367 C 153.14697 337.55034 154.18811 336.42859 155.65478 336.42859 z M 164.24072 336.42859 C 165.70739 336.42859 166.74658 337.55034 166.74658 338.88367 C 166.74658 340.24367 165.70739 341.3368 164.24072 341.3368 C 162.77405 341.3368 161.73291 340.24367 161.73291 338.88367 C 161.73291 337.55034 162.77405 336.42859 164.24072 336.42859 z M 172.82666 336.42859 C 174.29332 336.42859 175.33447 337.55034 175.33447 338.88367 C 175.33447 340.24367 174.29332 341.3368 172.82666 341.3368 C 171.35999 341.3368 170.3208 340.24367 170.3208 338.88367 C 170.3208 337.55034 171.35999 336.42859 172.82666 336.42859 z " />
  </g>
  <metadata
     id="metadata6">
    <rdf:RDF>
      <cc:Work>
        <dc:format>image/svg+xml</dc:format>
        <dc:type
           rdf:resource="http://purl.org/dc/dcmitype/StillImage" />
        <cc:license
           rdf:resource="http://creativecommons.org/licenses/publicdomain/" />
        <dc:publisher>
          <cc:Agent
             rdf:about="http://openclipart.org/">
            <dc:title>Openclipart</dc:title>
          </cc:Agent>
        </dc:publisher>
      </cc:Work>
      <cc:License
         rdf:about="http://creativecommons.org/licenses/publicdomain/">
        <cc:permits
           rdf:resource="http://creativecommons.org/ns#Reproduction" />
        <cc:permits
           rdf:resource="http://creativecommons.org/ns#Distribution" />
        <cc:permits
           rdf:resource="http://creativecommons.org/ns#DerivativeWorks" />
      </cc:License>
    </rdf:RDF>
  </metadata>
</svg>
