<?xml version="1.0" encoding="UTF-8" standalone="no"?>
<!-- Created with Inkscape (http://www.inkscape.org/) -->

<svg
   width="72.131393mm"
   height="19.582474mm"
   viewBox="0 0 72.131393 19.582474"
   version="1.1"
   id="svg5"
   inkscape:version="1.2.2 (b0a8486541, 2022-12-01)"
   sodipodi:docname="strix_slogan.svg"
   xml:space="preserve"
   inkscape:export-filename="tmp.png"
   inkscape:export-xdpi="171.03999"
   inkscape:export-ydpi="171.03999"
   xmlns:inkscape="http://www.inkscape.org/namespaces/inkscape"
   xmlns:sodipodi="http://sodipodi.sourceforge.net/DTD/sodipodi-0.dtd"
   xmlns="http://www.w3.org/2000/svg"
   xmlns:svg="http://www.w3.org/2000/svg"><sodipodi:namedview
     id="namedview7"
     pagecolor="#ffffff"
     bordercolor="#000000"
     borderopacity="0.25"
     inkscape:showpageshadow="2"
     inkscape:pageopacity="0.0"
     inkscape:pagecheckerboard="0"
     inkscape:deskcolor="#d1d1d1"
     inkscape:document-units="mm"
     showgrid="false"
     inkscape:zoom="1.330521"
     inkscape:cx="336.33441"
     inkscape:cy="61.2542"
     inkscape:window-width="1920"
     inkscape:window-height="1029"
     inkscape:window-x="0"
     inkscape:window-y="27"
     inkscape:window-maximized="1"
     inkscape:current-layer="layer1"
     showguides="true"><inkscape:grid
       type="xygrid"
       id="grid13315" /><sodipodi:guide
       position="-0.62088807,207.46582"
       orientation="1,0"
       id="guide13317"
       inkscape:locked="false" /><sodipodi:guide
       position="-13.850055,203.49707"
       orientation="0,-1"
       id="guide13319"
       inkscape:locked="false" /><sodipodi:guide
       position="102.56661,109.56997"
       orientation="1,0"
       id="guide4551"
       inkscape:locked="false" /><sodipodi:guide
       position="25.385454,19.996033"
       orientation="0,-1"
       id="guide5892"
       inkscape:locked="false" /></sodipodi:namedview><defs
     id="defs2"><rect
       x="482.19177"
       y="295.30188"
       width="327.69745"
       height="62.83186"
       id="rect10965-1-9-1-8-4" /><rect
       x="165.33238"
       y="165.66167"
       width="170.87849"
       height="72.536377"
       id="rect827-6-9-4-1-6-6-9-9" /></defs><g
     inkscape:label="Layer 1"
     inkscape:groupmode="layer"
     id="layer1"
     transform="translate(-11.204221,-194.49792)"><g
       aria-label="Språkbankens textforskningsplattform"
       transform="matrix(0.26458333,0,0,0.26458333,-116.48884,123.04003)"
       id="text10963-5-2-1-4"
       style="font-weight:300;font-size:49.3333px;font-family:'Open Sans';-inkscape-font-specification:'Open Sans, Light';white-space:pre;shape-inside:url(#rect10965-1-9-1-8-4);display:inline;fill:#f0581a"><path
         d="m 484.25808,336.42291 -1.46667,1.03333 c 0.76667,1.60001 2.41667,2.98334 4.46667,2.98334 1.98334,0 3.88334,-1.3 3.88334,-3.48334 0,-2.03333 -1.56667,-3.01667 -2.96667,-3.5 -1.88334,-0.65001 -2.65,-1.23334 -2.65,-2.13334 0,-0.66667 0.5,-1.25 1.58333,-1.25 1.18334,0 1.88334,0.76666 2.36667,1.63333 l 1.58334,-0.9 c -0.6,-1.21667 -1.85,-2.5 -3.91667,-2.5 -2.10001,0 -3.66668,1.28333 -3.66668,3.15 0,2.16667 1.95001,3.00001 3.10001,3.41668 1.48333,0.55 2.48334,0.95 2.48334,2.23333 0,0.93334 -0.71667,1.56667 -1.80001,1.56667 -1.31667,0 -2.25,-0.88333 -3,-2.25 z"
         style="font-weight:500;font-size:16.6667px;font-family:'Jost*';-inkscape-font-specification:'Jost*, Medium';fill:#000000"
         id="path8147" /><path
         d="m 494.74144,343.85626 v -4.95001 c 0.55,0.95 1.46667,1.48333 2.61667,1.48333 2.00001,0 3.73334,-1.46667 3.73334,-4.03334 0,-2.56667 -1.73333,-4.05001 -3.73334,-4.05001 -1.15,0 -2.06667,0.55 -2.61667,1.50001 v -1.28334 h -1.81667 v 11.33336 z m 4.48334,-7.50002 c 0,1.53334 -1.05,2.40001 -2.3,2.40001 -1.05,0 -2.18334,-0.85001 -2.18334,-2.40001 0,-1.56667 1.13334,-2.4 2.18334,-2.4 1.25,0 2.3,0.86666 2.3,2.4 z"
         style="font-weight:500;font-size:16.6667px;font-family:'Jost*';-inkscape-font-specification:'Jost*, Medium';fill:#000000"
         id="path8149" /><path
         d="m 506.87481,334.43957 0.88333,-1.51667 c -0.35,-0.4 -0.86667,-0.58333 -1.41667,-0.58333 -0.65,0 -1.3,0.41666 -1.75,1.1 v -0.91667 h -1.78334 v 7.66668 h 1.78334 v -4.31667 c 0,-1.10001 0.36667,-1.83334 1.26667,-1.83334 0.43333,0 0.68333,0.13333 1.01667,0.4 z"
         style="font-weight:500;font-size:16.6667px;font-family:'Jost*';-inkscape-font-specification:'Jost*, Medium';fill:#000000"
         id="path8151" /><path
         d="m 510.30815,329.55623 c 0,1.06667 0.86667,1.78333 1.85001,1.78333 0.98333,0 1.86667,-0.71666 1.86667,-1.78333 0,-1.05 -0.88334,-1.76667 -1.86667,-1.76667 -0.98334,0 -1.85001,0.71667 -1.85001,1.76667 z m 1.03334,0 c 0,-0.51667 0.4,-0.85 0.81667,-0.85 0.41667,0 0.81667,0.33333 0.81667,0.85 0,0.53333 -0.4,0.85 -0.81667,0.85 -0.41667,0 -0.81667,-0.31667 -0.81667,-0.85 z m -1.6,4.98334 c 0.36666,-0.23333 1.23333,-0.73333 2.33333,-0.73333 0.83334,0 1.51667,0.4 1.51667,1.11667 v 1.06666 c -0.46666,-0.26666 -1.15,-0.51666 -2,-0.51666 -1.9,0 -3.28334,0.91666 -3.28334,2.61667 0,1.41667 1.06667,2.26667 2.68334,2.26667 1.15,0 2.15,-0.45 2.6,-1.26667 v 1.1 h 1.76667 v -5.46668 c 0,-1.51666 -1.31667,-2.38333 -3.2,-2.38333 -1.38334,0 -2.46667,0.5 -3.15001,0.91667 z m 0.38333,3.38334 c 0,-0.8 0.58333,-1.3 1.73334,-1.3 0.68333,0 1.21667,0.13333 1.73333,0.38333 v 0.13334 c 0,1.35 -0.88333,1.85 -2.05,1.85 -0.9,0 -1.41667,-0.35 -1.41667,-1.06667 z"
         style="font-weight:500;font-size:16.6667px;font-family:'Jost*';-inkscape-font-specification:'Jost*, Medium';fill:#000000"
         id="path8153" /><path
         d="m 521.99152,332.5229 -2.81667,2.70001 v -8.03335 h -1.76667 v 13.00002 h 1.76667 v -3.88334 l 3.16667,3.88334 h 2.20001 l -3.65001,-4.50001 3.31667,-3.16667 z"
         style="font-weight:500;font-size:16.6667px;font-family:'Jost*';-inkscape-font-specification:'Jost*, Medium';fill:#000000"
         id="path8155" /><path
         d="m 533.82489,336.35624 c 0,-2.53334 -1.73333,-4.00001 -3.73334,-4.00001 -1.11667,0 -2.05,0.51667 -2.61667,1.45001 v -6.61668 h -1.81667 v 13.00002 h 1.81667 v -1.28333 c 0.56667,0.93333 1.5,1.45 2.61667,1.45 2.00001,0 3.73334,-1.48334 3.73334,-4.00001 z m -1.86667,0 c 0,1.53334 -1.05,2.43334 -2.3,2.43334 -1.05,0 -2.18334,-0.88334 -2.18334,-2.43334 0,-1.56667 1.13334,-2.43334 2.18334,-2.43334 1.25,0 2.3,0.9 2.3,2.43334 z"
         style="font-weight:500;font-size:16.6667px;font-family:'Jost*';-inkscape-font-specification:'Jost*, Medium';fill:#000000"
         id="path8157" /><path
         d="m 536.10824,334.5229 c 0.33334,-0.25 1.25001,-0.71666 2.33334,-0.71666 0.95,0 1.63334,0.33333 1.63334,1.26667 v 0.93333 c -0.48333,-0.26667 -1.21667,-0.53333 -2.21667,-0.53333 -1.90001,0 -3.00001,0.95 -3.00001,2.43333 0,1.56667 1.23334,2.45001 2.68334,2.45001 0.98334,0 2.05001,-0.4 2.53334,-1.21667 v 1.05 h 1.76667 v -5.46668 c 0,-1.51666 -1.35,-2.38333 -3.21667,-2.38333 -1.43334,0 -2.55001,0.5 -3.25001,0.91667 z m 0.56667,3.28334 c 0,-0.71666 0.48334,-1.15 1.61667,-1.15 0.65,0 1.23334,0.11667 1.78334,0.36667 v 0.11667 c 0,1.16667 -0.9,1.86667 -1.96667,1.86667 -0.83334,0 -1.43334,-0.43334 -1.43334,-1.20001 z"
         style="font-weight:500;font-size:16.6667px;font-family:'Jost*';-inkscape-font-specification:'Jost*, Medium';fill:#000000"
         id="path8159" /><path
         d="m 548.87493,335.52291 v 4.66667 h 1.85001 v -4.88334 c 0,-1.83334 -0.93334,-2.95001 -2.66667,-2.95001 -1.05001,0 -1.81668,0.45 -2.30001,1.35001 v -1.18334 h -1.81667 v 7.66668 h 1.81667 v -4.66667 c 0,-1.05001 0.66667,-1.71667 1.7,-1.71667 0.96667,0 1.41667,0.6 1.41667,1.71667 z"
         style="font-weight:500;font-size:16.6667px;font-family:'Jost*';-inkscape-font-specification:'Jost*, Medium';fill:#000000"
         id="path8161" /><path
         d="m 557.54162,332.5229 -2.81668,2.70001 v -8.03335 h -1.76667 v 13.00002 h 1.76667 v -3.88334 l 3.16668,3.88334 h 2.2 l -3.65001,-4.50001 3.31668,-3.16667 z"
         style="font-weight:500;font-size:16.6667px;font-family:'Jost*';-inkscape-font-specification:'Jost*, Medium';fill:#000000"
         id="path8163" /><path
         d="m 564.35832,340.35625 c 1.76667,0 3.03334,-0.68334 3.85001,-2.08334 l -1.56667,-0.61667 c -0.48334,0.81667 -1.21667,1.21667 -2.20001,1.21667 -1.25,0 -2.03333,-0.75 -2.15,-2.1 h 5.96668 c 0,-0.0833 0.0167,-0.3 0.0167,-0.5 0,-2.45001 -1.41667,-3.91668 -3.83334,-3.91668 -2.43334,0 -4.00001,1.58334 -4.00001,4.00001 0,2.40001 1.55001,4.00001 3.91668,4.00001 z m 0.0667,-6.63335 c 1.08333,0 1.8,0.71667 1.88333,1.80001 h -3.96667 c 0.21667,-1.16667 0.93333,-1.78334 2.08334,-1.80001 z"
         style="font-weight:500;font-size:16.6667px;font-family:'Jost*';-inkscape-font-specification:'Jost*, Medium';fill:#000000"
         id="path8165" /><path
         d="m 574.94167,335.52291 v 4.66667 h 1.85 v -4.88334 c 0,-1.83334 -0.93333,-2.95001 -2.66667,-2.95001 -1.05,0 -1.81667,0.45 -2.30001,1.35001 v -1.18334 h -1.81667 v 7.66668 h 1.81667 v -4.66667 c 0,-1.05001 0.66667,-1.71667 1.70001,-1.71667 0.96667,0 1.41667,0.6 1.41667,1.71667 z"
         style="font-weight:500;font-size:16.6667px;font-family:'Jost*';-inkscape-font-specification:'Jost*, Medium';fill:#000000"
         id="path8167" /><path
         d="m 579.44168,337.65624 -1.05001,1.06667 c 0.66667,0.86667 1.83334,1.70001 3.43334,1.70001 1.66667,0 2.73334,-0.95001 2.73334,-2.40001 0,-1.38333 -1.06667,-1.9 -2.35,-2.41667 -0.93334,-0.36667 -1.66667,-0.63333 -1.66667,-1.2 0,-0.43334 0.38333,-0.65 0.9,-0.65 0.75,0 1.5,0.43333 2,1.01666 l 1.00001,-1.06666 c -0.63334,-0.76667 -1.71667,-1.35001 -2.96668,-1.35001 -1.41667,0 -2.63333,0.7 -2.63333,2.08334 0,1.38334 1.13333,1.96667 2.18333,2.33334 1.01667,0.36667 1.71667,0.66667 1.71667,1.35 0,0.5 -0.38333,0.81667 -1.03333,0.81667 -0.78334,0 -1.51667,-0.45 -2.26667,-1.28334 z"
         style="font-weight:500;font-size:16.6667px;font-family:'Jost*';-inkscape-font-specification:'Jost*, Medium';fill:#000000"
         id="path8169" /><path
         d="m 590.09169,332.5229 v 1.58334 h 1.3 v 6.08334 h 1.76667 v -6.08334 h 1.28334 v -1.58334 h -1.28334 v -2.66667 h -1.76667 v 2.66667 z"
         style="font-weight:500;font-size:16.6667px;font-family:'Jost*';-inkscape-font-specification:'Jost*, Medium';fill:#000000"
         id="path8171" /><path
         d="m 599.00837,340.35625 c 1.76667,0 3.03334,-0.68334 3.85,-2.08334 l -1.56667,-0.61667 c -0.48333,0.81667 -1.21666,1.21667 -2.2,1.21667 -1.25,0 -2.03334,-0.75 -2.15,-2.1 h 5.96667 c 0,-0.0833 0.0167,-0.3 0.0167,-0.5 0,-2.45001 -1.41667,-3.91668 -3.83334,-3.91668 -2.43334,0 -4.00001,1.58334 -4.00001,4.00001 0,2.40001 1.55001,4.00001 3.91668,4.00001 z m 0.0667,-6.63335 c 1.08334,0 1.80001,0.71667 1.88334,1.80001 h -3.96667 c 0.21666,-1.16667 0.93333,-1.78334 2.08333,-1.80001 z"
         style="font-weight:500;font-size:16.6667px;font-family:'Jost*';-inkscape-font-specification:'Jost*, Medium';fill:#000000"
         id="path8173" /><path
         d="m 608.82505,332.5229 -1.66667,2.40001 -1.66667,-2.40001 h -2.06667 l 2.76668,3.71667 -2.93334,3.95001 h 2.06667 l 1.83333,-2.63334 1.83334,2.63334 h 2.01667 l -2.91667,-3.95001 2.75001,-3.71667 z"
         style="font-weight:500;font-size:16.6667px;font-family:'Jost*';-inkscape-font-specification:'Jost*, Medium';fill:#000000"
         id="path8175" /><path
         d="m 611.09173,332.5229 v 1.58334 h 1.3 v 6.08334 h 1.76667 v -6.08334 h 1.28333 v -1.58334 h -1.28333 v -2.66667 h -1.76667 v 2.66667 z"
         style="font-weight:500;font-size:16.6667px;font-family:'Jost*';-inkscape-font-specification:'Jost*, Medium';fill:#000000"
         id="path8177" /><path
         d="m 616.04174,332.5229 v 1.58334 h 0.83333 v 6.08334 h 1.78334 v -6.08334 h 1.78334 v -1.58334 h -1.78334 v -2.48334 c 0,-0.96667 0.3,-1.35 0.8,-1.35 0.26667,0 0.56667,0.0833 0.8,0.43333 l 0.83334,-1.4 c -0.28334,-0.33333 -0.83334,-0.75 -1.71667,-0.75 -1.61667,0 -2.50001,0.93333 -2.50001,2.71667 v 2.83334 z"
         style="font-weight:500;font-size:16.6667px;font-family:'Jost*';-inkscape-font-specification:'Jost*, Medium';fill:#000000"
         id="path8179" /><path
         d="m 621.24175,336.35624 c 0,2.35001 1.78333,4.00001 4.13334,4.00001 2.35,0 4.13334,-1.65 4.13334,-4.00001 0,-2.36667 -1.78334,-4.00001 -4.13334,-4.00001 -2.35001,0 -4.13334,1.63334 -4.13334,4.00001 z m 1.85,0 c 0,-1.43333 0.98334,-2.41667 2.28334,-2.41667 1.28333,0 2.28334,0.98334 2.28334,2.41667 0,1.43334 -1.00001,2.41667 -2.28334,2.41667 -1.3,0 -2.28334,-0.98333 -2.28334,-2.41667 z"
         style="font-weight:500;font-size:16.6667px;font-family:'Jost*';-inkscape-font-specification:'Jost*, Medium';fill:#000000"
         id="path8181" /><path
         d="m 635.29177,334.43957 0.88333,-1.51667 c -0.35,-0.4 -0.86667,-0.58333 -1.41667,-0.58333 -0.65,0 -1.3,0.41666 -1.75,1.1 v -0.91667 h -1.78334 v 7.66668 h 1.78334 v -4.31667 c 0,-1.10001 0.36667,-1.83334 1.26667,-1.83334 0.43333,0 0.68333,0.13333 1.01667,0.4 z"
         style="font-weight:500;font-size:16.6667px;font-family:'Jost*';-inkscape-font-specification:'Jost*, Medium';fill:#000000"
         id="path8183" /><path
         d="m 637.75844,337.65624 -1.05,1.06667 c 0.66667,0.86667 1.83334,1.70001 3.43334,1.70001 1.66667,0 2.73334,-0.95001 2.73334,-2.40001 0,-1.38333 -1.06667,-1.9 -2.35001,-2.41667 -0.93333,-0.36667 -1.66667,-0.63333 -1.66667,-1.2 0,-0.43334 0.38334,-0.65 0.90001,-0.65 0.75,0 1.5,0.43333 2,1.01666 l 1,-1.06666 c -0.63333,-0.76667 -1.71667,-1.35001 -2.96667,-1.35001 -1.41667,0 -2.63334,0.7 -2.63334,2.08334 0,1.38334 1.13334,1.96667 2.18334,2.33334 1.01667,0.36667 1.71667,0.66667 1.71667,1.35 0,0.5 -0.38334,0.81667 -1.03334,0.81667 -0.78333,0 -1.51667,-0.45 -2.26667,-1.28334 z"
         style="font-weight:500;font-size:16.6667px;font-family:'Jost*';-inkscape-font-specification:'Jost*, Medium';fill:#000000"
         id="path8185" /><path
         d="m 648.9918,332.5229 -2.81668,2.70001 v -8.03335 h -1.76667 v 13.00002 h 1.76667 v -3.88334 l 3.16668,3.88334 h 2.2 l -3.65001,-4.50001 3.31668,-3.16667 z"
         style="font-weight:500;font-size:16.6667px;font-family:'Jost*';-inkscape-font-specification:'Jost*, Medium';fill:#000000"
         id="path8187" /><path
         d="m 657.6585,335.52291 v 4.66667 h 1.85 v -4.88334 c 0,-1.83334 -0.93334,-2.95001 -2.66667,-2.95001 -1.05001,0 -1.81667,0.45 -2.30001,1.35001 v -1.18334 h -1.81667 v 7.66668 h 1.81667 v -4.66667 c 0,-1.05001 0.66667,-1.71667 1.70001,-1.71667 0.96666,0 1.41667,0.6 1.41667,1.71667 z"
         style="font-weight:500;font-size:16.6667px;font-family:'Jost*';-inkscape-font-specification:'Jost*, Medium';fill:#000000"
         id="path8189" /><path
         d="m 661.74183,329.47289 c 0,0.61667 0.51667,1.10001 1.13333,1.10001 0.63334,0 1.15001,-0.48334 1.15001,-1.10001 0,-0.61666 -0.51667,-1.1 -1.15001,-1.1 -0.61666,0 -1.13333,0.48334 -1.13333,1.1 z m 0.25,3.05001 v 7.66668 h 1.78334 v -7.66668 z"
         style="font-weight:500;font-size:16.6667px;font-family:'Jost*';-inkscape-font-specification:'Jost*, Medium';fill:#000000"
         id="path8191" /><path
         d="m 671.19185,335.52291 v 4.66667 h 1.85 v -4.88334 c 0,-1.83334 -0.93333,-2.95001 -2.66667,-2.95001 -1.05,0 -1.81667,0.45 -2.3,1.35001 v -1.18334 h -1.81667 v 7.66668 h 1.81667 v -4.66667 c 0,-1.05001 0.66667,-1.71667 1.7,-1.71667 0.96667,0 1.41667,0.6 1.41667,1.71667 z"
         style="font-weight:500;font-size:16.6667px;font-family:'Jost*';-inkscape-font-specification:'Jost*, Medium';fill:#000000"
         id="path8193" /><path
         d="m 674.90853,340.70625 c 0.0833,2 1.50001,3.38334 4.00001,3.38334 2.08334,0 3.96667,-1.3 3.96667,-4.06667 v -7.50002 h -1.76667 v 1.25 c -0.56666,-0.91667 -1.5,-1.41667 -2.61667,-1.41667 -2,0 -3.73334,1.43334 -3.73334,3.95001 0,2.53334 1.73334,3.96668 3.73334,3.96668 1.11667,0 2.05001,-0.50001 2.61667,-1.41667 v 1.16667 c 0,1.71667 -1.11666,2.5 -2.23333,2.5 -1.30001,0 -2.13334,-0.78333 -2.16667,-1.81667 z m 1.71667,-4.40001 c 0,-1.53334 1.05,-2.38334 2.30001,-2.38334 1.05,0 2.18333,0.83334 2.18333,2.38334 0,1.56667 -1.13333,2.40001 -2.18333,2.40001 -1.25001,0 -2.30001,-0.85001 -2.30001,-2.40001 z"
         style="font-weight:500;font-size:16.6667px;font-family:'Jost*';-inkscape-font-specification:'Jost*, Medium';fill:#000000"
         id="path8195" /><path
         d="m 685.45856,337.65624 -1.05,1.06667 c 0.66667,0.86667 1.83334,1.70001 3.43334,1.70001 1.66667,0 2.73334,-0.95001 2.73334,-2.40001 0,-1.38333 -1.06667,-1.9 -2.35001,-2.41667 -0.93333,-0.36667 -1.66667,-0.63333 -1.66667,-1.2 0,-0.43334 0.38334,-0.65 0.9,-0.65 0.75001,0 1.50001,0.43333 2.00001,1.01666 l 1,-1.06666 c -0.63333,-0.76667 -1.71667,-1.35001 -2.96667,-1.35001 -1.41667,0 -2.63334,0.7 -2.63334,2.08334 0,1.38334 1.13333,1.96667 2.18334,2.33334 1.01667,0.36667 1.71667,0.66667 1.71667,1.35 0,0.5 -0.38334,0.81667 -1.03334,0.81667 -0.78333,0 -1.51667,-0.45 -2.26667,-1.28334 z"
         style="font-weight:500;font-size:16.6667px;font-family:'Jost*';-inkscape-font-specification:'Jost*, Medium';fill:#000000"
         id="path8197" /><path
         d="m 693.92524,343.85626 v -4.95001 c 0.55001,0.95 1.46667,1.48333 2.61668,1.48333 2,0 3.73334,-1.46667 3.73334,-4.03334 0,-2.56667 -1.73334,-4.05001 -3.73334,-4.05001 -1.15001,0 -2.06667,0.55 -2.61668,1.50001 v -1.28334 h -1.81667 v 11.33336 z m 4.48335,-7.50002 c 0,1.53334 -1.05001,2.40001 -2.30001,2.40001 -1.05,0 -2.18334,-0.85001 -2.18334,-2.40001 0,-1.56667 1.13334,-2.4 2.18334,-2.4 1.25,0 2.30001,0.86666 2.30001,2.4 z"
         style="font-weight:500;font-size:16.6667px;font-family:'Jost*';-inkscape-font-specification:'Jost*, Medium';fill:#000000"
         id="path8199" /><path
         d="m 701.99194,327.18956 v 13.00002 h 1.81667 v -13.00002 z"
         style="font-weight:500;font-size:16.6667px;font-family:'Jost*';-inkscape-font-specification:'Jost*, Medium';fill:#000000"
         id="path8201" /><path
         d="m 706.65861,334.5229 c 0.33333,-0.25 1.25,-0.71666 2.33334,-0.71666 0.95,0 1.63334,0.33333 1.63334,1.26667 v 0.93333 c -0.48334,-0.26667 -1.21667,-0.53333 -2.21668,-0.53333 -1.9,0 -3,0.95 -3,2.43333 0,1.56667 1.23333,2.45001 2.68334,2.45001 0.98333,0 2.05,-0.4 2.53334,-1.21667 v 1.05 h 1.76667 v -5.46668 c 0,-1.51666 -1.35001,-2.38333 -3.21668,-2.38333 -1.43333,0 -2.55,0.5 -3.25,0.91667 z m 0.56667,3.28334 c 0,-0.71666 0.48333,-1.15 1.61667,-1.15 0.65,0 1.23333,0.11667 1.78334,0.36667 v 0.11667 c 0,1.16667 -0.90001,1.86667 -1.96668,1.86667 -0.83333,0 -1.43333,-0.43334 -1.43333,-1.20001 z"
         style="font-weight:500;font-size:16.6667px;font-family:'Jost*';-inkscape-font-specification:'Jost*, Medium';fill:#000000"
         id="path8203" /><path
         d="m 713.4253,332.5229 v 1.58334 h 1.3 v 6.08334 h 1.76667 v -6.08334 h 1.28334 v -1.58334 h -1.28334 v -2.66667 h -1.76667 v 2.66667 z"
         style="font-weight:500;font-size:16.6667px;font-family:'Jost*';-inkscape-font-specification:'Jost*, Medium';fill:#000000"
         id="path8205" /><path
         d="m 717.94196,332.5229 v 1.58334 h 1.3 v 6.08334 h 1.76667 v -6.08334 h 1.28334 v -1.58334 h -1.28334 v -2.66667 h -1.76667 v 2.66667 z"
         style="font-weight:500;font-size:16.6667px;font-family:'Jost*';-inkscape-font-specification:'Jost*, Medium';fill:#000000"
         id="path8207" /><path
         d="m 722.89197,332.5229 v 1.58334 h 0.83334 v 6.08334 h 1.78333 v -6.08334 h 1.78334 v -1.58334 h -1.78334 v -2.48334 c 0,-0.96667 0.30001,-1.35 0.80001,-1.35 0.26666,0 0.56666,0.0833 0.8,0.43333 l 0.83333,-1.4 c -0.28333,-0.33333 -0.83333,-0.75 -1.71667,-0.75 -1.61667,0 -2.5,0.93333 -2.5,2.71667 v 2.83334 z"
         style="font-weight:500;font-size:16.6667px;font-family:'Jost*';-inkscape-font-specification:'Jost*, Medium';fill:#000000"
         id="path8209" /><path
         d="m 728.09198,336.35624 c 0,2.35001 1.78334,4.00001 4.13334,4.00001 2.35001,0 4.13335,-1.65 4.13335,-4.00001 0,-2.36667 -1.78334,-4.00001 -4.13335,-4.00001 -2.35,0 -4.13334,1.63334 -4.13334,4.00001 z m 1.85001,0 c 0,-1.43333 0.98333,-2.41667 2.28333,-2.41667 1.28334,0 2.28334,0.98334 2.28334,2.41667 0,1.43334 -1,2.41667 -2.28334,2.41667 -1.3,0 -2.28333,-0.98333 -2.28333,-2.41667 z"
         style="font-weight:500;font-size:16.6667px;font-family:'Jost*';-inkscape-font-specification:'Jost*, Medium';fill:#000000"
         id="path8211" /><path
         d="m 742.142,334.43957 0.88334,-1.51667 c -0.35,-0.4 -0.86667,-0.58333 -1.41667,-0.58333 -0.65001,0 -1.30001,0.41666 -1.75001,1.1 v -0.91667 h -1.78333 v 7.66668 h 1.78333 v -4.31667 c 0,-1.10001 0.36667,-1.83334 1.26667,-1.83334 0.43334,0 0.68334,0.13333 1.01667,0.4 z"
         style="font-weight:500;font-size:16.6667px;font-family:'Jost*';-inkscape-font-specification:'Jost*, Medium';fill:#000000"
         id="path8213" /><path
         d="m 755.24203,335.30624 c 0,-1.86667 -0.8,-2.95001 -2.45,-2.95001 -1.03334,0 -1.85001,0.46667 -2.40001,1.36667 -0.33333,-0.88333 -1.08333,-1.36667 -2.2,-1.36667 -1.00001,0 -1.71667,0.43334 -2.16667,1.28334 v -1.11667 h -1.76667 v 7.66668 h 1.76667 v -4.66667 c 0,-1.10001 0.6,-1.71667 1.51667,-1.71667 0.88333,0 1.28333,0.55 1.28333,1.71667 v 4.66667 h 1.8 v -4.66667 c 0,-1.10001 0.60001,-1.71667 1.53334,-1.71667 0.86667,0 1.26667,0.55 1.26667,1.71667 v 4.66667 h 1.81667 z"
         style="font-weight:500;font-size:16.6667px;font-family:'Jost*';-inkscape-font-specification:'Jost*, Medium';fill:#000000"
         id="path8215" /></g><g
       aria-label="Strix"
       transform="matrix(0.26458333,0,0,0.26458333,-33.160766,152.59586)"
       id="text825-4-5-8-7-9-3-4"
       style="font-weight:300;font-size:53.3333px;font-family:'Jost*';-inkscape-font-specification:'Jost*, Light';white-space:pre;shape-inside:url(#rect827-6-9-4-1-6-6-9-9);display:inline"><path
         d="m 170.0787,201.04792 -2.4,1.49334 c 1.76,5.22666 5.91999,9.75999 12.37332,9.75999 6.08,0 10.82666,-4.10666 10.82666,-10.18666 0,-6.56 -5.11999,-9.38666 -9.27999,-10.87999 -6.02666,-2.13334 -9.06666,-4.42667 -9.06666,-8.53333 0,-3.36 2.4,-5.86666 6.77333,-5.86666 4.85333,0 7.25333,3.25333 8.53332,6.07999 l 2.56,-1.44 c -1.49333,-3.57333 -5.01333,-7.46666 -10.93332,-7.46666 -5.86667,0 -10.02666,3.68 -10.02666,9.06666 0,6.34666 5.59999,8.85333 9.91999,10.45333 4.26666,1.6 8.47999,3.52 8.47999,8.90666 0,4.10666 -2.93333,7.09333 -7.73332,7.09333 -5.38667,0 -8.26667,-3.78666 -10.02666,-8.48 z"
         id="path8136" /><path
         d="m 193.75869,187.28793 v 2.61333 h 4 v 21.91999 h 2.77333 v -21.91999 h 4 v -2.61333 h -4 v -8.53333 h -2.77333 v 8.53333 z"
         id="path8138" /><path
         d="m 211.99864,187.28793 h -2.77333 v 24.53332 h 2.77333 v -14.93332 c 0,-4.16 1.33333,-7.52 4.96,-7.52 1.28,0 2.13333,0.37333 3.2,1.17333 l 1.54666,-2.29333 c -1.12,-1.06666 -2.56,-1.49333 -4.10666,-1.49333 -2.34667,0 -4.37333,1.6 -5.6,4.10666 z"
         id="path8140" /><path
         d="m 226.39866,176.19461 c 0,1.06666 0.85333,1.97333 1.97333,1.97333 1.12,0 1.97333,-0.90667 1.97333,-1.97333 0,-1.06667 -0.85333,-1.97334 -1.97333,-1.97334 -1.12,0 -1.97333,0.90667 -1.97333,1.97334 z m 0.58667,11.09332 v 24.53332 h 2.77333 v -24.53332 z"
         id="path8142" /><path
         d="m 252.15866,187.28793 -6.82666,9.70666 -6.82667,-9.70666 h -3.19999 l 8.47999,11.89333 -9.01333,12.63999 h 3.2 l 7.36,-10.45333 7.35999,10.45333 h 3.2 l -9.01333,-12.63999 8.48,-11.89333 z"
         id="path8144" /></g><path
       style="fill:#f0581a;fill-opacity:1;stroke-width:0.10897"
       d="m 36.989318,205.89001 c 0.403016,-0.71764 1.093497,-1.20534 1.406454,-1.97878 0.375534,-0.66244 1.032285,-1.09507 1.368295,-1.79825 0.418941,-0.54228 0.989252,-0.95519 1.151953,-1.63883 0.542246,-0.74459 1.272729,-1.31399 2.03212,-1.80951 0.71925,-0.30617 1.245242,-0.85039 1.774532,-1.38973 0.53601,-0.85741 0.736675,-2.02341 1.739871,-2.49629 0.710755,-0.39484 1.562873,-0.27126 2.337904,-0.22762 0.724954,0.0908 1.553399,0.52691 1.928163,0.89569 0.374764,0.36878 0.476863,1.21207 0.54878,1.84616 0.04758,0.41957 0.08029,0.93735 -0.103275,1.55454 -0.01606,0.30048 0.05706,0.47849 0.0191,0.8923 -0.09712,1.05868 -0.827138,1.89622 -1.480515,2.69354 -1.069208,1.39206 -2.504261,2.53568 -4.140086,3.187 -0.440368,0.18258 -1.573666,0.43042 -0.700302,0.87459 0.551045,0.23153 0.872422,0.35791 1.327906,0.62607 0.728986,-0.0715 1.25569,-0.13201 1.690292,0.35261 0.434603,0.48462 0.3805,0.48217 0.396149,0.7949 -0.299909,-0.0864 -1.060749,-0.58413 -1.589303,-0.39212 -0.59913,0.13858 -1.398285,-0.36565 -1.849128,0.15131 -0.172448,0.3542 -0.460702,-0.40677 -0.922848,0.0713 -0.286332,-0.63998 0.626894,-0.64223 -0.357743,-0.76652 -0.466234,0.10668 0.314562,-0.69533 -0.325974,-0.44602 -0.648546,0.44129 0.20182,-1.07097 -0.337958,-0.60124 -0.369307,0.26549 -0.184407,-0.70578 -0.683443,-0.32123 -0.353153,0.17135 -0.674962,0.30832 -0.494021,-0.21814 -0.179835,-0.40469 -1.351055,0.62241 -1.494244,0.38326 -0.742294,0.18115 -1.229798,0.77149 -1.88864,1.11661 -0.794075,0.42613 -1.566356,1.0784 -2.509708,1.0708 0.362702,-0.6815 1.178582,-1.06283 1.365855,-1.83176 -0.343421,0.0183 -1.188184,0.58746 -1.1252,0.4434 0.268935,-0.37783 0.647367,-0.66122 0.915014,-1.03799 z"
       id="path11581-7"
       sodipodi:nodetypes="sccccccczscszzzzzczcccczcczccczcs" /></g></svg>
