<?xml version="1.0" encoding="UTF-8" standalone="no"?>
<!-- Created with Inkscape (http://www.inkscape.org/) -->

<svg
   width="70mm"
   height="70mm"
   viewBox="0 0 70 70.000002"
   version="1.1"
   id="svg5"
   inkscape:version="1.2.2 (b0a8486541, 2022-12-01)"
   sodipodi:docname="sprakbanken_cup_obj.svg"
   xml:space="preserve"
   inkscape:export-filename="sprakbanken_logotyper_2025.png"
   inkscape:export-xdpi="144"
   inkscape:export-ydpi="144"
   xmlns:inkscape="http://www.inkscape.org/namespaces/inkscape"
   xmlns:sodipodi="http://sodipodi.sourceforge.net/DTD/sodipodi-0.dtd"
   xmlns="http://www.w3.org/2000/svg"
   xmlns:svg="http://www.w3.org/2000/svg"><sodipodi:namedview
     id="namedview7"
     pagecolor="#ffffff"
     bordercolor="#000000"
     borderopacity="0.25"
     inkscape:showpageshadow="2"
     inkscape:pageopacity="0.0"
     inkscape:pagecheckerboard="0"
     inkscape:deskcolor="#d1d1d1"
     inkscape:document-units="mm"
     showgrid="false"
     inkscape:zoom="3.8078029"
     inkscape:cx="34.928278"
     inkscape:cy="67.361679"
     inkscape:window-width="1920"
     inkscape:window-height="1145"
     inkscape:window-x="0"
     inkscape:window-y="0"
     inkscape:window-maximized="1"
     inkscape:current-layer="text304"
     showguides="true"><inkscape:grid
       type="xygrid"
       id="grid13315"
       originx="-0.34535431"
       originy="-5.3937383e-07" /><sodipodi:guide
       position="-0.01398899,93.891534"
       orientation="1,0"
       id="guide13317"
       inkscape:locked="false" /><sodipodi:guide
       position="-13.243155,89.922784"
       orientation="0,-1"
       id="guide13319"
       inkscape:locked="false" /><sodipodi:guide
       position="103.1735,-4.004309"
       orientation="1,0"
       id="guide4551"
       inkscape:locked="false" /><sodipodi:guide
       position="25.992354,-93.578252"
       orientation="0,-1"
       id="guide5892"
       inkscape:locked="false" /><sodipodi:guide
       position="94.527421,-118.50828"
       orientation="0,-1"
       id="guide8737"
       inkscape:locked="false" /></sodipodi:namedview><defs
     id="defs2"><rect
       x="-0.052871772"
       y="57.797502"
       width="278.65861"
       height="262.62747"
       id="rect306" /><rect
       x="34.405685"
       y="187.59879"
       width="498.24536"
       height="62.798195"
       id="rect1143-28" /></defs><g
     inkscape:label="Layer 1"
     inkscape:groupmode="layer"
     id="layer1"
     transform="translate(-10.597322,-30.506111)"><g
       aria-label="SPRÅKBANKEN

50 ÅR AV SPRÅKTEKNOLOGI
1975–2025"
       transform="matrix(0.26458333,0,0,0.26458333,8.9995536,17.314506)"
       id="text304"
       style="font-weight:300;font-size:45.3333px;line-height:0.9;font-family:'Jost*';-inkscape-font-specification:'Jost*, Light';white-space:pre;shape-inside:url(#rect306);display:inline;fill:#f0581a;stroke:#f0581a;stroke-width:0.566929"><path
         d="m 13.956362,81.018813 -1.8,1.12 c 1.32,3.92 4.44,7.32 9.28,7.32 4.56,0 8.12,-3.08 8.12,-7.64 0,-4.92 -3.84,-7.04 -6.96,-8.16 -4.52,-1.6 -6.8,-3.32 -6.8,-6.4 0,-2.52 1.8,-4.4 5.08,-4.4 3.64,0 5.44,2.44 6.4,4.56 l 1.92,-1.08 c -1.12,-2.68 -3.76,-5.6 -8.2,-5.6 -4.4,0 -7.52,2.76 -7.52,6.8 0,4.76 4.2,6.64 7.44,7.84 3.2,1.2 6.36,2.64 6.36,6.68 0,3.08 -2.2,5.32 -5.8,5.32 -4.04,0 -6.2,-2.84 -7.52,-6.36 z"
         style="font-size:40px;text-align:center;text-anchor:middle"
         id="path4057" /><path
         d="m 34.716369,61.098813 v 28 h 2.2 v -11.44 h 4.36 c 5.24,0 9.16,-3.12 9.16,-8.28 0,-5.16 -3.92,-8.28 -9.16,-8.28 z m 6.56,2.08 c 4.08,0 6.92,2.16 6.92,6.2 0,4.04 -2.84,6.2 -6.92,6.2 h -4.36 v -12.4 z"
         style="font-size:40px;text-align:center;text-anchor:middle"
         id="path4059" /><path
         d="m 55.556365,61.098813 v 28 h 2.2 v -11.76 h 3.68 l 8.16,11.76 h 2.72 l -8.48,-11.88 c 4.44,-0.6 7.6,-3.44 7.6,-8 0,-5.16 -4.08,-8.12 -9.48,-8.12 z m 6.4,1.96 c 4.24,0 7.28,2.12 7.28,6.16 0,4.04 -3,6.16 -7.28,6.16 h -4.2 v -12.32 z"
         style="font-size:40px;text-align:center;text-anchor:middle"
         id="path4061" /><path
         d="m 81.756394,57.018813 c 0,2.24 1.76,3.8 3.68,3.96 l -11.96,28.12 h 2.48 l 3.84,-9.4 h 12.08 l 3.84,9.4 h 2.48 l -11.96,-28.12 c 1.92,-0.16 3.68,-1.72 3.68,-3.96 0,-2.4 -2,-4 -4.08,-4 -2.08,0 -4.08,1.6 -4.08,4 z m 1.4,0 c 0,-1.64 1.32,-2.72 2.68,-2.72 1.36,0 2.68,1.08 2.68,2.72 0,1.64 -1.32,2.72 -2.68,2.72 -1.36,0 -2.68,-1.08 -2.68,-2.72 z m 2.68,8.08 5.2,12.52 h -10.36 z"
         style="font-size:40px;text-align:center;text-anchor:middle"
         id="path4063" /><path
         d="m 101.83638,61.098813 v 28 h 2.2 v -14.08 l 12.2,14.08 h 2.8 l -12.92,-14.88 12.32,-13.12 h -2.8 l -11.6,12.48 v -12.48 z"
         style="font-size:40px;text-align:center;text-anchor:middle"
         id="path4065" /><path
         d="m 138.55638,80.978813 c 0,-4.2 -3,-6.52 -6.6,-7.24 3.08,-0.76 5.04,-2.68 5.04,-5.88 0,-4.44 -3.16,-6.76 -8.16,-6.76 h -6.08 v 28 h 6.48 c 5.4,0 9.32,-2.56 9.32,-8.12 z m -9.72,-17.92 c 3.6,0 5.96,1.84 5.96,4.92 0,3.28 -2.68,4.8 -5.96,4.8 h -3.88 v -9.72 z m -3.88,24.08 v -12.4 h 4.28 c 3.76,0 7.08,2.2 7.08,6.12 0,4.16 -2.84,6.28 -7.08,6.28 z"
         style="font-size:40px;text-align:center;text-anchor:middle"
         id="path4067" /><path
         d="m 162.71644,89.098813 h 2.48 l -12.36,-29.08 -12.36,29.08 h 2.48 l 3.84,-9.4 h 12.08 z m -9.88,-24 5.2,12.52 h -10.36 z"
         style="font-size:40px;text-align:center;text-anchor:middle"
         id="path4069" /><path
         d="m 190.19643,61.098813 v 23.44 l -21.28,-24.52 v 29.08 h 2.2 v -23.36 l 21.28,24.44 v -29.08 z"
         style="font-size:40px;text-align:center;text-anchor:middle"
         id="path4071" /><path
         d="m 199.03639,61.098813 v 28 h 2.2 v -14.08 l 12.2,14.08 h 2.8 l -12.92,-14.88 12.32,-13.12 h -2.8 l -11.6,12.48 v -12.48 z"
         style="font-size:40px;text-align:center;text-anchor:middle"
         id="path4073" /><path
         d="m 219.95639,61.098813 v 28 h 15.04 v -2.08 h -12.84 v -12.24 h 12.04 v -2.08 h -12.04 v -9.52 h 12.84 v -2.08 z"
         style="font-size:40px;text-align:center;text-anchor:middle"
         id="path4075" /><path
         d="m 262.59641,61.098813 v 23.44 l -21.28,-24.52 v 29.08 h 2.2 v -23.36 l 21.28,24.44 v -29.08 z"
         style="font-size:40px;text-align:center;text-anchor:middle"
         id="path4077" /><path
         d="m 90.44439,163.33876 c 0,-4.32 -2.848,-7.296 -6.56,-7.296 -1.824,0 -3.36,0.704 -4.384,1.6 l 1.92,-7.776 h 9.216 v -1.568 h -10.56 l -2.944,11.936 c 2.016,-1.856 3.648,-2.592 6.048,-2.592 3.072,0 5.44,2.304 5.44,5.696 0,3.776 -2.304,6.016 -5.76,6.016 -2.816,0 -4.896,-1.76 -5.952,-4.032 l -1.504,0.992 c 1.344,2.688 3.584,4.704 7.456,4.704 4.192,0 7.584,-2.592 7.584,-7.68 z"
         style="font-size:32px;text-align:center;text-anchor:middle"
         id="path4079" /><path
         d="m 93.548416,159.49876 c 0,6.56 3.072,11.52 7.808004,11.52 4.736,0 7.808,-4.96 7.808,-11.52 0,-6.56 -3.072,-11.52 -7.808,-11.52 -4.736004,0 -7.808004,4.96 -7.808004,11.52 z m 1.76,0 c 0,-5.536 2.272,-9.856 6.048004,-9.856 3.776,0 6.048,4.32 6.048,9.856 0,5.536 -2.272,9.856 -6.048,9.856 -3.776004,0 -6.048004,-4.32 -6.048004,-9.856 z"
         style="font-size:32px;text-align:center;text-anchor:middle"
         id="path4081" /><path
         d="m 127.14839,145.03476 c 0,1.792 1.408,3.04 2.944,3.168 l -9.568,22.496 h 1.984 l 3.072,-7.52 h 9.664 l 3.072,7.52 h 1.984 l -9.568,-22.496 c 1.536,-0.128 2.944,-1.376 2.944,-3.168 0,-1.92 -1.6,-3.2 -3.264,-3.2 -1.664,0 -3.264,1.28 -3.264,3.2 z m 1.12,0 c 0,-1.312 1.056,-2.176 2.144,-2.176 1.088,0 2.144,0.864 2.144,2.176 0,1.312 -1.056,2.176 -2.144,2.176 -1.088,0 -2.144,-0.864 -2.144,-2.176 z m 2.144,6.464 4.16,10.016 h -8.288 z"
         style="font-size:32px;text-align:center;text-anchor:middle"
         id="path4083" /><path
         d="m 143.27638,148.29876 v 22.4 h 1.76 v -9.408 h 2.944 l 6.528,9.408 h 2.176 l -6.784,-9.504 c 3.552,-0.48 6.08,-2.752 6.08,-6.4 0,-4.128 -3.264,-6.496 -7.584,-6.496 z m 5.12,1.568 c 3.392,0 5.824,1.696 5.824,4.928 0,3.232 -2.4,4.928 -5.824,4.928 h -3.36 v -9.856 z"
         style="font-size:32px;text-align:center;text-anchor:middle"
         id="path4085" /><path
         d="m 185.00438,170.69876 h 1.984 l -9.888,-23.264 -9.888,23.264 h 1.984 l 3.072,-7.52 h 9.664 z m -7.904,-19.2 4.16,10.016 h -8.288 z"
         style="font-size:32px;text-align:center;text-anchor:middle"
         id="path4087" /><path
         d="m 194.25235,167.46676 -7.904,-19.168 h -1.984 l 9.888,23.264 9.888,-23.264 h -1.984 z"
         style="font-size:32px;text-align:center;text-anchor:middle"
         id="path4089" /><path
         d="m 14.348366,205.03473 -1.44,0.896 c 1.056,3.136 3.552,5.856 7.424,5.856 3.648,0 6.496,-2.464 6.496,-6.112 0,-3.936 -3.072,-5.632 -5.568,-6.528 -3.616,-1.28 -5.44,-2.656 -5.44,-5.12 0,-2.016 1.44,-3.52 4.064,-3.52 2.912,0 4.352,1.952 5.12,3.648 l 1.536,-0.864 c -0.896,-2.144 -3.008,-4.48 -6.56,-4.48 -3.52,0 -6.016,2.208 -6.016,5.44 0,3.808 3.36,5.312 5.952,6.272 2.56,0.96 5.088,2.112 5.088,5.344 0,2.464 -1.76,4.256 -4.64,4.256 -3.232,0 -4.96,-2.272 -6.016,-5.088 z"
         style="font-size:32px;text-align:center;text-anchor:middle"
         id="path4091" /><path
         d="m 30.956372,189.09873 v 22.4 h 1.76 v -9.152 h 3.488 c 4.192,0 7.328,-2.496 7.328,-6.624 0,-4.128 -3.136,-6.624 -7.328,-6.624 z m 5.248,1.664 c 3.264,0 5.536,1.728 5.536,4.96 0,3.232 -2.272,4.96 -5.536,4.96 h -3.488 v -9.92 z"
         style="font-size:32px;text-align:center;text-anchor:middle"
         id="path4093" /><path
         d="m 47.628369,189.09873 v 22.4 h 1.76 v -9.408 h 2.944 l 6.528,9.408 h 2.176 l -6.784,-9.504 c 3.552,-0.48 6.08,-2.752 6.08,-6.4 0,-4.128 -3.264,-6.496 -7.584,-6.496 z m 5.12,1.568 c 3.392,0 5.824,1.696 5.824,4.928 0,3.232 -2.4,4.928 -5.824,4.928 h -3.36 v -9.856 z"
         style="font-size:32px;text-align:center;text-anchor:middle"
         id="path4095" /><path
         d="m 68.588392,185.83473 c 0,1.792 1.408,3.04 2.944,3.168 l -9.568,22.496 h 1.984 l 3.072,-7.52 h 9.664 l 3.072,7.52 h 1.984 l -9.568,-22.496 c 1.536,-0.128 2.944,-1.376 2.944,-3.168 0,-1.92 -1.6,-3.2 -3.264,-3.2 -1.664,0 -3.264,1.28 -3.264,3.2 z m 1.12,0 c 0,-1.312 1.056,-2.176 2.144,-2.176 1.088,0 2.144,0.864 2.144,2.176 0,1.312 -1.056,2.176 -2.144,2.176 -1.088,0 -2.144,-0.864 -2.144,-2.176 z m 2.144,6.464 4.16,10.016 h -8.288 z"
         style="font-size:32px;text-align:center;text-anchor:middle"
         id="path4097" /><path
         d="m 84.652381,189.09873 v 22.4 h 1.76 v -11.264 l 9.76,11.264 h 2.24 l -10.336,-11.904 9.856,-10.496 h -2.24 l -9.28,9.984 v -9.984 z"
         style="font-size:32px;text-align:center;text-anchor:middle"
         id="path4099" /><path
         d="m 100.1084,190.76273 h 5.888 v 20.736 h 1.76 v -20.736 h 5.888 v -1.664 h -13.536 z"
         style="font-size:32px;text-align:center;text-anchor:middle"
         id="path4101" /><path
         d="m 116.78041,189.09873 v 22.4 h 12.032 v -1.664 h -10.272 v -9.792 h 9.632 v -1.664 h -9.632 v -7.616 h 10.272 v -1.664 z"
         style="font-size:32px;text-align:center;text-anchor:middle"
         id="path4103" /><path
         d="m 133.80442,189.09873 v 22.4 h 1.76 v -11.264 l 9.76,11.264 h 2.24 l -10.336,-11.904 9.856,-10.496 h -2.24 l -9.28,9.984 v -9.984 z"
         style="font-size:32px;text-align:center;text-anchor:middle"
         id="path4105" /><path
         d="m 167.56442,189.09873 v 18.752 l -17.024,-19.616 v 23.264 h 1.76 v -18.688 l 17.024,19.552 v -23.264 z"
         style="font-size:32px;text-align:center;text-anchor:middle"
         id="path4107" /><path
         d="m 173.42039,200.29873 c 0,6.592 4.736,11.488 11.136,11.488 6.4,0 11.136,-4.896 11.136,-11.488 0,-6.592 -4.736,-11.488 -11.136,-11.488 -6.4,0 -11.136,4.896 -11.136,11.488 z m 1.856,0 c 0,-5.6 3.904,-9.728 9.28,-9.728 5.376,0 9.248,4.128 9.248,9.728 0,5.6 -3.872,9.728 -9.248,9.728 -5.376,0 -9.28,-4.128 -9.28,-9.728 z"
         style="font-size:32px;text-align:center;text-anchor:middle"
         id="path4109" /><path
         d="m 199.7884,189.09873 v 22.4 h 11.008 v -1.664 h -9.248 v -20.736 z"
         style="font-size:32px;text-align:center;text-anchor:middle"
         id="path4111" /><path
         d="m 211.69236,200.29873 c 0,6.592 4.736,11.488 11.136,11.488 6.4,0 11.136,-4.896 11.136,-11.488 0,-6.592 -4.736,-11.488 -11.136,-11.488 -6.4,0 -11.136,4.896 -11.136,11.488 z m 1.856,0 c 0,-5.6 3.904,-9.728 9.28,-9.728 5.376,0 9.248,4.128 9.248,9.728 0,5.6 -3.872,9.728 -9.248,9.728 -5.376,0 -9.28,-4.128 -9.28,-9.728 z"
         style="font-size:32px;text-align:center;text-anchor:middle"
         id="path4113" /><path
         d="m 248.52438,201.99473 h 8.032 c -0.48,4.32 -3.584,8.032 -8.608,8.032 -5.312,0 -9.312,-4.032 -9.312,-9.728 0,-5.728 4.032,-9.728 9.312,-9.728 3.616,0 6.368,1.696 7.872,4.16 l 1.28,-1.12 c -1.92,-2.976 -5.024,-4.8 -9.152,-4.8 -6.4,0 -11.168,4.8 -11.168,11.488 0,6.688 4.768,11.488 11.168,11.488 6.592,0 10.528,-5.376 10.528,-11.456 h -9.952 z"
         style="font-size:32px;text-align:center;text-anchor:middle"
         id="path4115" /><path
         d="m 262.66837,189.09873 v 22.4 h 1.76 v -22.4 z"
         style="font-size:32px;text-align:center;text-anchor:middle"
         id="path4117" /><path
         d="m 61.692338,233.1307 5.152,-1.344 v 20.512 h 1.76 v -22.656 l -6.912,1.664 z"
         style="font-size:32px;text-align:center;text-anchor:middle"
         id="path4119" /><path
         d="m 80.188339,252.2987 7.392,-10.336 c 0.864,-1.184 1.568,-3.008 1.568,-4.832 0,-4.48 -3.04,-7.552 -7.36,-7.552 -4.32,0 -7.36,3.072 -7.36,7.552 0,4 2.976,7.136 6.624,7.136 1.44,0 2.656,-0.352 3.648,-1.12 l -6.72,9.152 z m 7.264,-15.168 c 0,3.2 -2.272,5.824 -5.792,5.824 -3.072,0 -5.536,-2.496 -5.536,-5.824 0,-3.456 2.336,-5.952 5.664,-5.952 3.328,0 5.664,2.496 5.664,5.952 z"
         style="font-size:32px;text-align:center;text-anchor:middle"
         id="path4121" /><path
         d="m 90.8123,231.5627 h 12.768 l -10.368,20.736 h 1.856 l 11.168,-22.4 h -15.424 z"
         style="font-size:32px;text-align:center;text-anchor:middle"
         id="path4123" /><path
         d="m 122.7803,244.9387 c 0,-4.32 -2.848,-7.296 -6.56,-7.296 -1.824,0 -3.36,0.704 -4.384,1.6 l 1.92,-7.776 h 9.216 v -1.568 h -10.56 l -2.944,11.936 c 2.016,-1.856 3.648,-2.592 6.048,-2.592 3.072,0 5.44,2.304 5.44,5.696 0,3.776 -2.304,6.016 -5.76,6.016 -2.816,0 -4.896,-1.76 -5.952,-4.032 l -1.504,0.992 c 1.344,2.688 3.584,4.704 7.456,4.704 4.192,0 7.584,-2.592 7.584,-7.68 z"
         style="font-size:32px;text-align:center;text-anchor:middle"
         id="path4125" /><path
         d="m 126.65232,245.0667 h 19.2 v -1.568 h -19.2 z"
         style="font-size:32px;text-align:center;text-anchor:middle"
         id="path4127" /><path
         d="m 148.79632,252.2987 h 15.296 v -1.664 h -11.616 l 8.16,-8.416 c 1.696,-1.76 3.04,-3.904 3.04,-6.336 0,-2.688 -2.016,-6.336 -6.688,-6.336 -4.384,0 -7.04,3.264 -7.04,8.032 h 1.76 c 0,-3.84 2.016,-6.368 5.28,-6.368 3.296,0 4.864,2.56 4.864,4.736 0,2.144 -1.088,3.712 -2.592,5.312 z"
         style="font-size:32px;text-align:center;text-anchor:middle"
         id="path4129" /><path
         d="m 167.06834,241.0987 c 0,6.56 3.072,11.52 7.808,11.52 4.736,0 7.808,-4.96 7.808,-11.52 0,-6.56 -3.072,-11.52 -7.808,-11.52 -4.736,0 -7.808,4.96 -7.808,11.52 z m 1.76,0 c 0,-5.536 2.272,-9.856 6.048,-9.856 3.776,0 6.048,4.32 6.048,9.856 0,5.536 -2.272,9.856 -6.048,9.856 -3.776,0 -6.048,-4.32 -6.048,-9.856 z"
         style="font-size:32px;text-align:center;text-anchor:middle"
         id="path4131" /><path
         d="m 184.86034,252.2987 h 15.296 v -1.664 h -11.616 l 8.16,-8.416 c 1.696,-1.76 3.04,-3.904 3.04,-6.336 0,-2.688 -2.016,-6.336 -6.688,-6.336 -4.384,0 -7.04,3.264 -7.04,8.032 h 1.76 c 0,-3.84 2.016,-6.368 5.28,-6.368 3.296,0 4.864,2.56 4.864,4.736 0,2.144 -1.088,3.712 -2.592,5.312 z"
         style="font-size:32px;text-align:center;text-anchor:middle"
         id="path4133" /><path
         d="m 217.98037,244.9387 c 0,-4.32 -2.848,-7.296 -6.56,-7.296 -1.824,0 -3.36,0.704 -4.384,1.6 l 1.92,-7.776 h 9.216 v -1.568 h -10.56 l -2.944,11.936 c 2.016,-1.856 3.648,-2.592 6.048,-2.592 3.072,0 5.44,2.304 5.44,5.696 0,3.776 -2.304,6.016 -5.76,6.016 -2.816,0 -4.896,-1.76 -5.952,-4.032 l -1.504,0.992 c 1.344,2.688 3.584,4.704 7.456,4.704 4.192,0 7.584,-2.592 7.584,-7.68 z"
         style="font-size:32px;text-align:center;text-anchor:middle"
         id="path4135" /></g></g></svg>
