<?xml version="1.0" encoding="UTF-8" standalone="no"?>
<!-- Created with Inkscape (http://www.inkscape.org/) -->

<svg
   width="92.023094mm"
   height="25.339378mm"
   viewBox="0 0 92.023095 25.339379"
   version="1.1"
   id="svg5"
   inkscape:version="1.2.2 (b0a8486541, 2022-12-01)"
   sodipodi:docname="sprakbanken_inv_logo_slogan_sv.svg"
   xml:space="preserve"
   inkscape:export-filename="sprakbanken_logotyper_2025.png"
   inkscape:export-xdpi="144"
   inkscape:export-ydpi="144"
   xmlns:inkscape="http://www.inkscape.org/namespaces/inkscape"
   xmlns:sodipodi="http://sodipodi.sourceforge.net/DTD/sodipodi-0.dtd"
   xmlns="http://www.w3.org/2000/svg"
   xmlns:svg="http://www.w3.org/2000/svg"><sodipodi:namedview
     id="namedview7"
     pagecolor="#ffffff"
     bordercolor="#000000"
     borderopacity="0.25"
     inkscape:showpageshadow="2"
     inkscape:pageopacity="0.0"
     inkscape:pagecheckerboard="0"
     inkscape:deskcolor="#d1d1d1"
     inkscape:document-units="mm"
     showgrid="false"
     inkscape:zoom="2.1241802"
     inkscape:cx="72.498557"
     inkscape:cy="29.423116"
     inkscape:window-width="1536"
     inkscape:window-height="909"
     inkscape:window-x="0"
     inkscape:window-y="27"
     inkscape:window-maximized="1"
     inkscape:current-layer="layer1"
     showguides="true"><inkscape:grid
       type="xygrid"
       id="grid13315"
       originx="3.3530278"
       originy="3.1031554" /><sodipodi:guide
       position="3.3536646,26.019407"
       orientation="1,0"
       id="guide13317"
       inkscape:locked="false" /><sodipodi:guide
       position="-9.8755015,22.050656"
       orientation="0,-1"
       id="guide13319"
       inkscape:locked="false" /><sodipodi:guide
       position="106.54116,-71.876432"
       orientation="1,0"
       id="guide4551"
       inkscape:locked="false" /><sodipodi:guide
       position="29.360006,-161.45037"
       orientation="0,-1"
       id="guide5892"
       inkscape:locked="false" /><sodipodi:guide
       position="97.89507,-186.3804"
       orientation="0,-1"
       id="guide8737"
       inkscape:locked="false" /></sodipodi:namedview><defs
     id="defs2"><rect
       x="42.637711"
       y="232.56482"
       width="429.04333"
       height="39.494087"
       id="rect4674" /><rect
       x="34.405685"
       y="187.59879"
       width="498.24536"
       height="62.798195"
       id="rect1143" /></defs><g
     inkscape:label="Layer 1"
     inkscape:groupmode="layer"
     id="layer1"
     transform="translate(-7.2296681,-7.2946095)"><rect
       style="fill:#f0581a;stroke-width:0.409842;stroke-linecap:round;stroke-linejoin:bevel;stroke-dasharray:0.931966, 0.232991"
       id="rect295"
       width="92.023094"
       height="25.339378"
       x="7.2296681"
       y="7.2946095"
       inkscape:export-filename="sprakbanken_inv_logo_slogan_sv.png"
       inkscape:export-xdpi="331.22119"
       inkscape:export-ydpi="331.22119" /><g
       aria-label="SPRÅKBANKEN"
       transform="matrix(0.26458333,0,0,0.26458333,0.90415729,-38.748453)"
       id="text1141"
       style="font-size:10.6667px;font-family:'Open Sans';-inkscape-font-specification:'Open Sans, Normal';white-space:pre;fill:#ffffff"><path
         d="m 38.915586,221.21617 -2.280001,1.41867 c 1.672001,4.96534 5.624003,9.27201 11.754674,9.27201 5.776003,0 10.28534,-3.90134 10.28534,-9.67734 0,-6.23201 -4.864003,-8.91734 -8.816006,-10.33601 -5.725337,-2.02667 -8.613339,-4.20533 -8.613339,-8.10667 0,-3.192 2.280002,-5.57334 6.434671,-5.57334 4.61067,0 6.890671,3.09067 8.106672,5.77601 l 2.432001,-1.368 c -1.418667,-3.39467 -4.762669,-7.09334 -10.386673,-7.09334 -5.573337,0 -9.525339,3.496 -9.525339,8.61334 0,6.02933 5.320003,8.41067 9.424006,9.93067 4.053336,1.52 8.056005,3.344 8.056005,8.46134 0,3.90133 -2.786669,6.73867 -7.346672,6.73867 -5.117336,0 -7.853338,-3.59734 -9.525339,-8.05601 z"
         style="-inkscape-font-specification:'Jost*, Light'"
         id="path2132" /><path
         d="m 65.211611,195.98416 v 35.46669 h 2.786668 v -14.49068 h 5.522671 c 6.637337,0 11.602674,-3.952 11.602674,-10.488 0,-6.53601 -4.965337,-10.48801 -11.602674,-10.48801 z m 8.309339,2.63467 c 5.168003,0 8.765338,2.736 8.765338,7.85334 0,5.11733 -3.597335,7.85333 -8.765338,7.85333 h -5.522671 v -15.70667 z"
         style="-inkscape-font-specification:'Jost*, Light'"
         id="path2134" /><path
         d="m 91.608954,195.98416 v 35.46669 h 2.786668 v -14.89601 h 4.661336 l 10.336002,14.89601 h 3.44534 l -10.74134,-15.04801 c 5.624,-0.76 9.62667,-4.35734 9.62667,-10.13334 0,-6.53601 -5.168,-10.28534 -12.008005,-10.28534 z m 8.106671,2.48267 c 5.370675,0 9.221335,2.68533 9.221335,7.80267 0,5.11734 -3.8,7.80267 -9.221335,7.80267 h -5.320003 v -15.60534 z"
         style="-inkscape-font-specification:'Jost*, Light'"
         id="path2136" /><path
         d="m 124.79568,190.81616 c 0,2.83733 2.22933,4.81333 4.66133,5.016 l -15.14934,35.61869 h 3.14133 l 4.86401,-11.90668 h 15.30134 l 4.864,11.90668 h 3.14134 l -15.14934,-35.61869 c 2.432,-0.20267 4.66133,-2.17867 4.66133,-5.016 0,-3.04001 -2.53333,-5.06667 -5.168,-5.06667 -2.63467,0 -5.168,2.02666 -5.168,5.06667 z m 1.77333,0 c 0,-2.07734 1.672,-3.44534 3.39467,-3.44534 1.72267,0 3.39467,1.368 3.39467,3.44534 0,2.07733 -1.672,3.44533 -3.39467,3.44533 -1.72267,0 -3.39467,-1.368 -3.39467,-3.44533 z m 3.39467,10.23467 6.58667,15.85868 h -13.12267 z"
         style="-inkscape-font-specification:'Jost*, Light'"
         id="path2138" /><path
         d="m 150.23035,195.98416 v 35.46669 h 2.78666 v -17.83468 l 15.45335,17.83468 h 3.54667 l -16.36535,-18.84801 15.60535,-16.61868 h -3.54667 l -14.69335,15.80801 v -15.80801 z"
         style="-inkscape-font-specification:'Jost*, Light'"
         id="path2140" /><path
         d="m 196.74237,221.16551 c 0,-5.32001 -3.8,-8.25867 -8.36,-9.17067 3.90133,-0.96267 6.384,-3.39467 6.384,-7.44801 0,-5.624 -4.00267,-8.56267 -10.33601,-8.56267 h -7.70133 v 35.46669 h 8.208 c 6.84,0 11.80534,-3.24267 11.80534,-10.28534 z m -12.31201,-22.69868 c 4.56001,0 7.54934,2.33067 7.54934,6.232 0,4.15467 -3.39467,6.08 -7.54934,6.08 h -4.91467 v -12.312 z m -4.91467,30.50135 V 213.2615 h 5.42134 c 4.76267,0 8.96801,2.78667 8.96801,7.75201 0,5.26933 -3.59734,7.95467 -8.96801,7.95467 z"
         style="-inkscape-font-specification:'Jost*, Light'"
         id="path2142" /><path
         d="m 227.34513,231.45085 h 3.14133 l -15.65601,-36.83469 -15.656,36.83469 h 3.14133 l 4.864,-11.90668 h 15.30135 z m -12.51468,-30.40002 6.58668,15.85868 h -13.12268 z"
         style="-inkscape-font-specification:'Jost*, Light'"
         id="path2144" /><path
         d="m 262.15313,195.98416 v 29.69068 l -26.95468,-31.05868 v 36.83469 h 2.78666 V 201.8615 l 26.95469,30.95735 v -36.83469 z"
         style="-inkscape-font-specification:'Jost*, Light'"
         id="path2146" /><path
         d="m 273.35044,195.98416 v 35.46669 h 2.78667 v -17.83468 l 15.45334,17.83468 h 3.54667 l -16.36534,-18.84801 15.60534,-16.61868 h -3.54667 l -14.69334,15.80801 v -15.80801 z"
         style="-inkscape-font-specification:'Jost*, Light'"
         id="path2148" /><path
         d="m 299.84911,195.98416 v 35.46669 h 19.05068 v -2.63467 h -16.26401 v -15.50401 h 15.25068 v -2.63467 h -15.25068 v -12.05867 h 16.26401 v -2.63467 z"
         style="-inkscape-font-specification:'Jost*, Light'"
         id="path2150" /><path
         d="m 353.85983,195.98416 v 29.69068 l -26.95469,-31.05868 v 36.83469 h 2.78667 V 201.8615 l 26.95468,30.95735 v -36.83469 z"
         style="-inkscape-font-specification:'Jost*, Light'"
         id="path2152" /></g><g
       aria-label="En forskningsinfrastruktur för språkliga data"
       transform="matrix(0.26458333,0,0,0.26458333,-1.042744,-37.041667)"
       id="text4672"
       style="font-weight:500;font-size:12px;font-family:'Jost*';-inkscape-font-specification:'Jost*, Medium';white-space:pre;fill:#f0581a"><path
         d="m 43.938675,234.07253 v 11.66669 h 7.100014 v -1.73334 h -5.166677 v -3.66667 h 4.833343 v -1.7 h -4.833343 v -2.83334 h 5.166677 v -1.73334 z"
         style="fill:#000000"
         id="path1967" /><path
         d="m 58.23869,241.07254 v 4.66668 h 1.850003 v -4.88334 c 0,-1.83334 -0.933335,-2.95001 -2.666672,-2.95001 -1.050002,0 -1.81667,0.45 -2.300004,1.35 v -1.18333 h -1.816671 v 7.66668 h 1.816671 v -4.66668 c 0,-1.05 0.666668,-1.71667 1.700003,-1.71667 0.966669,0 1.41667,0.60001 1.41667,1.71667 z"
         style="fill:#000000"
         id="path1969" /><path
         d="m 66.755363,238.07254 v 1.58333 h 0.833335 v 6.08335 h 1.783337 v -6.08335 h 1.783337 v -1.58333 h -1.783337 v -2.48334 c 0,-0.96667 0.3,-1.35 0.800001,-1.35 0.266668,0 0.566668,0.0833 0.800002,0.43333 l 0.833335,-1.4 c -0.283334,-0.33334 -0.833335,-0.75 -1.71667,-0.75 -1.61667,0 -2.500005,0.93333 -2.500005,2.71667 v 2.83334 z"
         style="fill:#000000"
         id="path1971" /><path
         d="m 71.955374,241.90588 c 0,2.35 1.783337,4.00001 4.133342,4.00001 2.350004,0 4.133341,-1.65001 4.133341,-4.00001 0,-2.36667 -1.783337,-4.00001 -4.133341,-4.00001 -2.350005,0 -4.133342,1.63334 -4.133342,4.00001 z m 1.850004,0 c 0,-1.43334 0.983335,-2.41667 2.283338,-2.41667 1.283336,0 2.283338,0.98333 2.283338,2.41667 0,1.43334 -1.000002,2.41667 -2.283338,2.41667 -1.300003,0 -2.283338,-0.98333 -2.283338,-2.41667 z"
         style="fill:#000000"
         id="path1973" /><path
         d="m 86.005389,239.98921 0.883335,-1.51667 c -0.350001,-0.4 -0.866669,-0.58334 -1.41667,-0.58334 -0.650001,0 -1.300002,0.41667 -1.750003,1.10001 v -0.91667 h -1.783337 v 7.66668 h 1.783337 v -4.31667 c 0,-1.10001 0.366667,-1.83334 1.266669,-1.83334 0.433334,0 0.683335,0.13333 1.016669,0.4 z"
         style="fill:#000000"
         id="path1975" /><path
         d="m 88.472064,243.20588 -1.050002,1.06667 c 0.666668,0.86667 1.833337,1.7 3.43334,1.7 1.66667,0 2.733339,-0.95 2.733339,-2.4 0,-1.38334 -1.066669,-1.9 -2.350005,-2.41667 -0.933335,-0.36667 -1.66667,-0.63334 -1.66667,-1.2 0,-0.43334 0.383335,-0.65001 0.900002,-0.65001 0.750002,0 1.500003,0.43334 2.000004,1.01667 l 1.000002,-1.06667 c -0.633334,-0.76666 -1.71667,-1.35 -2.966672,-1.35 -1.41667,0 -2.633339,0.7 -2.633339,2.08334 0,1.38333 1.133336,1.96667 2.183338,2.33334 1.016668,0.36666 1.71667,0.66666 1.71667,1.35 0,0.5 -0.383334,0.81667 -1.033336,0.81667 -0.783334,0 -1.516669,-0.45 -2.266671,-1.28334 z"
         style="fill:#000000"
         id="path1977" /><path
         d="m 99.705416,238.07254 -2.816672,2.7 v -8.03335 h -1.76667 v 13.00003 h 1.76667 v -3.88334 l 3.166676,3.88334 h 2.2 l -3.650006,-4.50001 3.316676,-3.16667 z"
         style="fill:#000000"
         id="path1979" /><path
         d="m 108.37211,241.07254 v 4.66668 h 1.85001 v -4.88334 c 0,-1.83334 -0.93334,-2.95001 -2.66667,-2.95001 -1.05001,0 -1.81667,0.45 -2.30001,1.35 v -1.18333 h -1.81667 v 7.66668 h 1.81667 v -4.66668 c 0,-1.05 0.66667,-1.71667 1.7,-1.71667 0.96667,0 1.41667,0.60001 1.41667,1.71667 z"
         style="fill:#000000"
         id="path1981" /><path
         d="m 112.45546,235.02253 c 0,0.61667 0.51667,1.1 1.13333,1.1 0.63334,0 1.15001,-0.48333 1.15001,-1.1 0,-0.61667 -0.51667,-1.1 -1.15001,-1.1 -0.61666,0 -1.13333,0.48333 -1.13333,1.1 z m 0.25,3.05001 v 7.66668 h 1.78334 v -7.66668 z"
         style="fill:#000000"
         id="path1983" /><path
         d="m 121.90548,241.07254 v 4.66668 h 1.85001 v -4.88334 c 0,-1.83334 -0.93334,-2.95001 -2.66668,-2.95001 -1.05,0 -1.81667,0.45 -2.3,1.35 v -1.18333 h -1.81667 v 7.66668 h 1.81667 v -4.66668 c 0,-1.05 0.66667,-1.71667 1.7,-1.71667 0.96667,0 1.41667,0.60001 1.41667,1.71667 z"
         style="fill:#000000"
         id="path1985" /><path
         d="m 125.62216,246.25589 c 0.0833,2 1.5,3.38334 4,3.38334 2.08334,0 3.96668,-1.3 3.96668,-4.06668 v -7.50001 h -1.76667 v 1.25 c -0.56667,-0.91667 -1.50001,-1.41667 -2.61667,-1.41667 -2.00001,0 -3.73335,1.43334 -3.73335,3.95001 0,2.53334 1.73334,3.96667 3.73335,3.96667 1.11666,0 2.05,-0.5 2.61667,-1.41667 v 1.16667 c 0,1.71667 -1.11667,2.50001 -2.23334,2.50001 -1.3,0 -2.13334,-0.78334 -2.16667,-1.81667 z m 1.71667,-4.40001 c 0,-1.53334 1.05,-2.38334 2.3,-2.38334 1.05,0 2.18334,0.83334 2.18334,2.38334 0,1.56667 -1.13334,2.4 -2.18334,2.4 -1.25,0 -2.3,-0.85 -2.3,-2.4 z"
         style="fill:#000000"
         id="path1987" /><path
         d="m 136.17218,243.20588 -1.05,1.06667 c 0.66667,0.86667 1.83334,1.7 3.43334,1.7 1.66667,0 2.73334,-0.95 2.73334,-2.4 0,-1.38334 -1.06667,-1.9 -2.35,-2.41667 -0.93334,-0.36667 -1.66667,-0.63334 -1.66667,-1.2 0,-0.43334 0.38333,-0.65001 0.9,-0.65001 0.75,0 1.5,0.43334 2,1.01667 l 1,-1.06667 c -0.63333,-0.76666 -1.71667,-1.35 -2.96667,-1.35 -1.41667,0 -2.63334,0.7 -2.63334,2.08334 0,1.38333 1.13334,1.96667 2.18334,2.33334 1.01667,0.36666 1.71667,0.66666 1.71667,1.35 0,0.5 -0.38333,0.81667 -1.03334,0.81667 -0.78333,0 -1.51667,-0.45 -2.26667,-1.28334 z"
         style="fill:#000000"
         id="path1989" /><path
         d="m 142.8222,235.02253 c 0,0.61667 0.51666,1.1 1.13333,1.1 0.63334,0 1.15,-0.48333 1.15,-1.1 0,-0.61667 -0.51666,-1.1 -1.15,-1.1 -0.61667,0 -1.13333,0.48333 -1.13333,1.1 z m 0.25,3.05001 v 7.66668 h 1.78333 v -7.66668 z"
         style="fill:#000000"
         id="path1991" /><path
         d="m 152.27222,241.07254 v 4.66668 h 1.85 v -4.88334 c 0,-1.83334 -0.93333,-2.95001 -2.66667,-2.95001 -1.05,0 -1.81667,0.45 -2.3,1.35 v -1.18333 h -1.81667 v 7.66668 h 1.81667 v -4.66668 c 0,-1.05 0.66666,-1.71667 1.7,-1.71667 0.96667,0 1.41667,0.60001 1.41667,1.71667 z"
         style="fill:#000000"
         id="path1993" /><path
         d="m 155.78889,238.07254 v 1.58333 h 0.83334 v 6.08335 h 1.78333 v -6.08335 h 1.78334 v -1.58333 h -1.78334 v -2.48334 c 0,-0.96667 0.3,-1.35 0.80001,-1.35 0.26666,0 0.56666,0.0833 0.8,0.43333 l 0.83333,-1.4 c -0.28333,-0.33334 -0.83333,-0.75 -1.71667,-0.75 -1.61667,0 -2.5,0.93333 -2.5,2.71667 v 2.83334 z"
         style="fill:#000000"
         id="path1995" /><path
         d="m 165.63891,239.98921 0.88334,-1.51667 c -0.35,-0.4 -0.86667,-0.58334 -1.41667,-0.58334 -0.65,0 -1.30001,0.41667 -1.75001,1.10001 v -0.91667 h -1.78333 v 7.66668 h 1.78333 v -4.31667 c 0,-1.10001 0.36667,-1.83334 1.26667,-1.83334 0.43334,0 0.68334,0.13333 1.01667,0.4 z"
         style="fill:#000000"
         id="path1997" /><path
         d="m 168.32225,240.07254 c 0.33334,-0.25 1.25001,-0.71667 2.33334,-0.71667 0.95,0 1.63334,0.33334 1.63334,1.26667 v 0.93334 c -0.48334,-0.26667 -1.21667,-0.53334 -2.21667,-0.53334 -1.90001,0 -3.00001,0.95001 -3.00001,2.43334 0,1.56667 1.23334,2.45001 2.68334,2.45001 0.98333,0 2.05,-0.4 2.53334,-1.21667 v 1.05 h 1.76667 v -5.46668 c 0,-1.51667 -1.35,-2.38334 -3.21667,-2.38334 -1.43334,0 -2.55001,0.50001 -3.25001,0.91667 z m 0.56667,3.28334 c 0,-0.71667 0.48334,-1.15 1.61667,-1.15 0.65,0 1.23334,0.11667 1.78334,0.36667 v 0.11666 c 0,1.16667 -0.9,1.86667 -1.96667,1.86667 -0.83334,0 -1.43334,-0.43333 -1.43334,-1.2 z"
         style="fill:#000000"
         id="path1999" /><path
         d="m 176.5056,243.20588 -1.05,1.06667 c 0.66667,0.86667 1.83334,1.7 3.43334,1.7 1.66667,0 2.73334,-0.95 2.73334,-2.4 0,-1.38334 -1.06667,-1.9 -2.35,-2.41667 -0.93334,-0.36667 -1.66667,-0.63334 -1.66667,-1.2 0,-0.43334 0.38333,-0.65001 0.9,-0.65001 0.75,0 1.5,0.43334 2,1.01667 l 1,-1.06667 c -0.63333,-0.76666 -1.71667,-1.35 -2.96667,-1.35 -1.41667,0 -2.63334,0.7 -2.63334,2.08334 0,1.38333 1.13334,1.96667 2.18334,2.33334 1.01667,0.36666 1.71667,0.66666 1.71667,1.35 0,0.5 -0.38333,0.81667 -1.03334,0.81667 -0.78333,0 -1.51667,-0.45 -2.26667,-1.28334 z"
         style="fill:#000000"
         id="path2001" /><path
         d="m 182.15561,238.07254 v 1.58333 h 1.30001 v 6.08335 h 1.76667 v -6.08335 h 1.28333 v -1.58333 h -1.28333 v -2.66667 h -1.76667 v 2.66667 z"
         style="fill:#000000"
         id="path2003" /><path
         d="m 191.80562,239.98921 0.88334,-1.51667 c -0.35,-0.4 -0.86667,-0.58334 -1.41667,-0.58334 -0.65001,0 -1.30001,0.41667 -1.75001,1.10001 v -0.91667 h -1.78333 v 7.66668 h 1.78333 v -4.31667 c 0,-1.10001 0.36667,-1.83334 1.26667,-1.83334 0.43334,0 0.68334,0.13333 1.01667,0.4 z"
         style="fill:#000000"
         id="path2005" /><path
         d="m 195.7723,242.73921 v -4.66667 h -1.85 v 4.86667 c 0,1.83334 0.95,2.96668 2.66667,2.96668 1.06667,0 1.81667,-0.46667 2.31667,-1.35001 v 1.18334 h 1.8 v -7.66668 h -1.8 v 4.66667 c 0,1.03334 -0.68334,1.71667 -1.7,1.71667 -0.96667,0 -1.43334,-0.61666 -1.43334,-1.71667 z"
         style="fill:#000000"
         id="path2007" /><path
         d="m 207.52233,238.07254 -2.81667,2.7 v -8.03335 h -1.76667 v 13.00003 h 1.76667 v -3.88334 l 3.16667,3.88334 h 2.20001 l -3.65001,-4.50001 3.31667,-3.16667 z"
         style="fill:#000000"
         id="path2009" /><path
         d="m 210.18902,238.07254 v 1.58333 h 1.3 v 6.08335 h 1.76667 v -6.08335 h 1.28333 v -1.58333 h -1.28333 v -2.66667 h -1.76667 v 2.66667 z"
         style="fill:#000000"
         id="path2011" /><path
         d="m 217.62237,242.73921 v -4.66667 h -1.85001 v 4.86667 c 0,1.83334 0.95,2.96668 2.66667,2.96668 1.06667,0 1.81667,-0.46667 2.31668,-1.35001 v 1.18334 h 1.8 v -7.66668 h -1.8 v 4.66667 c 0,1.03334 -0.68334,1.71667 -1.70001,1.71667 -0.96667,0 -1.43333,-0.61666 -1.43333,-1.71667 z"
         style="fill:#000000"
         id="path2013" /><path
         d="m 228.92238,239.98921 0.88334,-1.51667 c -0.35,-0.4 -0.86667,-0.58334 -1.41667,-0.58334 -0.65,0 -1.30001,0.41667 -1.75001,1.10001 v -0.91667 h -1.78333 v 7.66668 h 1.78333 v -4.31667 c 0,-1.10001 0.36667,-1.83334 1.26667,-1.83334 0.43334,0 0.68334,0.13333 1.01667,0.4 z"
         style="fill:#000000"
         id="path2015" /><path
         d="m 235.40572,238.07254 v 1.58333 h 0.83334 v 6.08335 h 1.78333 v -6.08335 h 1.78334 v -1.58333 h -1.78334 v -2.48334 c 0,-0.96667 0.3,-1.35 0.8,-1.35 0.26667,0 0.56667,0.0833 0.80001,0.43333 l 0.83333,-1.4 c -0.28333,-0.33334 -0.83333,-0.75 -1.71667,-0.75 -1.61667,0 -2.5,0.93333 -2.5,2.71667 v 2.83334 z"
         style="fill:#000000"
         id="path2017" /><path
         d="m 245.40574,235.42253 c 0,0.63334 0.51667,1.10001 1.15,1.10001 0.61667,0 1.13334,-0.46667 1.13334,-1.10001 0,-0.61666 -0.51667,-1.08333 -1.13334,-1.08333 -0.63333,0 -1.15,0.46667 -1.15,1.08333 z m -3.61667,0 c 0,0.63334 0.51666,1.10001 1.13333,1.10001 0.63334,0 1.13334,-0.46667 1.13334,-1.10001 0,-0.61666 -0.5,-1.08333 -1.13334,-1.08333 -0.61667,0 -1.13333,0.46667 -1.13333,1.08333 z m -1.18334,6.48335 c 0,2.35 1.78334,4.00001 4.13334,4.00001 2.35001,0 4.13334,-1.65001 4.13334,-4.00001 0,-2.36667 -1.78333,-4.00001 -4.13334,-4.00001 -2.35,0 -4.13334,1.63334 -4.13334,4.00001 z m 1.85,0 c 0,-1.43334 0.98334,-2.41667 2.28334,-2.41667 1.28334,0 2.28334,0.98333 2.28334,2.41667 0,1.43334 -1,2.41667 -2.28334,2.41667 -1.3,0 -2.28334,-0.98333 -2.28334,-2.41667 z"
         style="fill:#000000"
         id="path2019" /><path
         d="m 254.65575,239.98921 0.88333,-1.51667 c -0.35,-0.4 -0.86666,-0.58334 -1.41667,-0.58334 -0.65,0 -1.3,0.41667 -1.75,1.10001 v -0.91667 h -1.78334 v 7.66668 h 1.78334 v -4.31667 c 0,-1.10001 0.36667,-1.83334 1.26667,-1.83334 0.43333,0 0.68333,0.13333 1.01667,0.4 z"
         style="fill:#000000"
         id="path2021" /><path
         d="m 262.12242,243.20588 -1.05,1.06667 c 0.66667,0.86667 1.83334,1.7 3.43334,1.7 1.66667,0 2.73334,-0.95 2.73334,-2.4 0,-1.38334 -1.06667,-1.9 -2.35,-2.41667 -0.93334,-0.36667 -1.66667,-0.63334 -1.66667,-1.2 0,-0.43334 0.38333,-0.65001 0.9,-0.65001 0.75,0 1.5,0.43334 2,1.01667 l 1,-1.06667 c -0.63333,-0.76666 -1.71667,-1.35 -2.96667,-1.35 -1.41667,0 -2.63334,0.7 -2.63334,2.08334 0,1.38333 1.13334,1.96667 2.18334,2.33334 1.01667,0.36666 1.71667,0.66666 1.71667,1.35 0,0.5 -0.38333,0.81667 -1.03333,0.81667 -0.78334,0 -1.51667,-0.45 -2.26668,-1.28334 z"
         style="fill:#000000"
         id="path2023" /><path
         d="m 270.58911,249.40589 v -4.95001 c 0.55,0.95001 1.46667,1.48334 2.61667,1.48334 2,0 3.73334,-1.46667 3.73334,-4.03334 0,-2.56667 -1.73334,-4.05001 -3.73334,-4.05001 -1.15,0 -2.06667,0.55 -2.61667,1.5 v -1.28333 h -1.81667 v 11.33335 z m 4.48334,-7.50001 c 0,1.53334 -1.05,2.4 -2.3,2.4 -1.05001,0 -2.18334,-0.85 -2.18334,-2.4 0,-1.56667 1.13333,-2.40001 2.18334,-2.40001 1.25,0 2.3,0.86667 2.3,2.40001 z"
         style="fill:#000000"
         id="path2025" /><path
         d="m 282.72248,239.98921 0.88333,-1.51667 c -0.35,-0.4 -0.86667,-0.58334 -1.41667,-0.58334 -0.65,0 -1.3,0.41667 -1.75,1.10001 v -0.91667 h -1.78334 v 7.66668 h 1.78334 v -4.31667 c 0,-1.10001 0.36667,-1.83334 1.26667,-1.83334 0.43333,0 0.68333,0.13333 1.01667,0.4 z"
         style="fill:#000000"
         id="path2027" /><path
         d="m 286.15582,235.10587 c 0,1.06666 0.86667,1.78333 1.85,1.78333 0.98334,0 1.86667,-0.71667 1.86667,-1.78333 0,-1.05001 -0.88333,-1.76667 -1.86667,-1.76667 -0.98333,0 -1.85,0.71666 -1.85,1.76667 z m 1.03334,0 c 0,-0.51667 0.4,-0.85001 0.81666,-0.85001 0.41667,0 0.81667,0.33334 0.81667,0.85001 0,0.53333 -0.4,0.85 -0.81667,0.85 -0.41666,0 -0.81666,-0.31667 -0.81666,-0.85 z m -1.60001,4.98334 c 0.36667,-0.23333 1.23334,-0.73334 2.33334,-0.73334 0.83333,0 1.51667,0.40001 1.51667,1.11667 v 1.06667 c -0.46667,-0.26667 -1.15,-0.51667 -2,-0.51667 -1.90001,0 -3.28334,0.91667 -3.28334,2.61668 0,1.41667 1.06666,2.26667 2.68333,2.26667 1.15001,0 2.15001,-0.45 2.60001,-1.26667 v 1.1 h 1.76667 v -5.46668 c 0,-1.51667 -1.31667,-2.38334 -3.20001,-2.38334 -1.38333,0 -2.46667,0.50001 -3.15,0.91667 z m 0.38334,3.38334 c 0,-0.8 0.58333,-1.3 1.73333,-1.3 0.68334,0 1.21667,0.13333 1.73334,0.38333 v 0.13333 c 0,1.35001 -0.88334,1.85001 -2.05,1.85001 -0.90001,0 -1.41667,-0.35 -1.41667,-1.06667 z"
         style="fill:#000000"
         id="path2029" /><path
         d="m 297.83919,238.07254 -2.81667,2.7 v -8.03335 h -1.76667 v 13.00003 h 1.76667 v -3.88334 l 3.16667,3.88334 h 2.20001 l -3.65001,-4.50001 3.31668,-3.16667 z"
         style="fill:#000000"
         id="path2031" /><path
         d="m 301.57255,232.73919 v 13.00003 h 1.81667 v -13.00003 z"
         style="fill:#000000"
         id="path2033" /><path
         d="m 305.60589,235.02253 c 0,0.61667 0.51667,1.1 1.13333,1.1 0.63334,0 1.15001,-0.48333 1.15001,-1.1 0,-0.61667 -0.51667,-1.1 -1.15001,-1.1 -0.61666,0 -1.13333,0.48333 -1.13333,1.1 z m 0.25,3.05001 v 7.66668 h 1.78334 v -7.66668 z"
         style="fill:#000000"
         id="path2035" /><path
         d="m 309.68923,246.25589 c 0.0833,2 1.50001,3.38334 4.00001,3.38334 2.08334,0 3.96668,-1.3 3.96668,-4.06668 v -7.50001 h -1.76667 v 1.25 c -0.56667,-0.91667 -1.50001,-1.41667 -2.61668,-1.41667 -2,0 -3.73334,1.43334 -3.73334,3.95001 0,2.53334 1.73334,3.96667 3.73334,3.96667 1.11667,0 2.05001,-0.5 2.61668,-1.41667 v 1.16667 c 0,1.71667 -1.11667,2.50001 -2.23334,2.50001 -1.30001,0 -2.13334,-0.78334 -2.16667,-1.81667 z m 1.71667,-4.40001 c 0,-1.53334 1.05001,-2.38334 2.30001,-2.38334 1.05,0 2.18334,0.83334 2.18334,2.38334 0,1.56667 -1.13334,2.4 -2.18334,2.4 -1.25,0 -2.30001,-0.85 -2.30001,-2.4 z"
         style="fill:#000000"
         id="path2037" /><path
         d="m 320.45593,240.07254 c 0.33333,-0.25 1.25,-0.71667 2.33334,-0.71667 0.95,0 1.63333,0.33334 1.63333,1.26667 v 0.93334 c -0.48333,-0.26667 -1.21667,-0.53334 -2.21667,-0.53334 -1.9,0 -3,0.95001 -3,2.43334 0,1.56667 1.23333,2.45001 2.68333,2.45001 0.98334,0 2.05001,-0.4 2.53334,-1.21667 v 1.05 h 1.76667 v -5.46668 c 0,-1.51667 -1.35,-2.38334 -3.21667,-2.38334 -1.43334,0 -2.55001,0.50001 -3.25001,0.91667 z m 0.56667,3.28334 c 0,-0.71667 0.48333,-1.15 1.61667,-1.15 0.65,0 1.23333,0.11667 1.78333,0.36667 v 0.11666 c 0,1.16667 -0.9,1.86667 -1.96667,1.86667 -0.83333,0 -1.43333,-0.43333 -1.43333,-1.2 z"
         style="fill:#000000"
         id="path2039" /><path
         d="m 332.70595,241.90588 c 0,2.51667 1.73334,4.00001 3.73334,4.00001 1.11667,0 2.05001,-0.51667 2.61667,-1.45001 v 1.28334 h 1.81667 v -13.00003 h -1.81667 v 6.61668 c -0.56666,-0.93333 -1.5,-1.45 -2.61667,-1.45 -2,0 -3.73334,1.46667 -3.73334,4.00001 z m 1.86667,0 c 0,-1.53334 1.05,-2.43334 2.30001,-2.43334 1.05,0 2.18333,0.86667 2.18333,2.43334 0,1.55 -1.13333,2.43334 -2.18333,2.43334 -1.25001,0 -2.30001,-0.9 -2.30001,-2.43334 z"
         style="fill:#000000"
         id="path2041" /><path
         d="m 343.67263,240.07254 c 0.33334,-0.25 1.25001,-0.71667 2.33334,-0.71667 0.95,0 1.63334,0.33334 1.63334,1.26667 v 0.93334 c -0.48334,-0.26667 -1.21667,-0.53334 -2.21667,-0.53334 -1.90001,0 -3.00001,0.95001 -3.00001,2.43334 0,1.56667 1.23334,2.45001 2.68334,2.45001 0.98333,0 2.05,-0.4 2.53334,-1.21667 v 1.05 h 1.76667 v -5.46668 c 0,-1.51667 -1.35,-2.38334 -3.21667,-2.38334 -1.43334,0 -2.55001,0.50001 -3.25001,0.91667 z m 0.56667,3.28334 c 0,-0.71667 0.48334,-1.15 1.61667,-1.15 0.65,0 1.23334,0.11667 1.78334,0.36667 v 0.11666 c 0,1.16667 -0.9,1.86667 -1.96667,1.86667 -0.83334,0 -1.43334,-0.43333 -1.43334,-1.2 z"
         style="fill:#000000"
         id="path2043" /><path
         d="m 350.43932,238.07254 v 1.58333 h 1.3 v 6.08335 h 1.76667 v -6.08335 h 1.28334 v -1.58333 h -1.28334 v -2.66667 h -1.76667 v 2.66667 z"
         style="fill:#000000"
         id="path2045" /><path
         d="m 356.58932,240.07254 c 0.33333,-0.25 1.25,-0.71667 2.33334,-0.71667 0.95,0 1.63333,0.33334 1.63333,1.26667 v 0.93334 c -0.48333,-0.26667 -1.21666,-0.53334 -2.21667,-0.53334 -1.9,0 -3,0.95001 -3,2.43334 0,1.56667 1.23333,2.45001 2.68334,2.45001 0.98333,0 2.05,-0.4 2.53333,-1.21667 v 1.05 h 1.76668 v -5.46668 c 0,-1.51667 -1.35001,-2.38334 -3.21668,-2.38334 -1.43333,0 -2.55,0.50001 -3.25,0.91667 z m 0.56667,3.28334 c 0,-0.71667 0.48333,-1.15 1.61667,-1.15 0.65,0 1.23333,0.11667 1.78333,0.36667 v 0.11666 c 0,1.16667 -0.9,1.86667 -1.96667,1.86667 -0.83333,0 -1.43333,-0.43333 -1.43333,-1.2 z"
         style="fill:#000000"
         id="path2047" /></g></g></svg>
