<?xml version="1.0" encoding="UTF-8" standalone="no"?>
<!-- Created with Inkscape (http://www.inkscape.org/) -->

<svg
   width="111.66834mm"
   height="12.453769mm"
   viewBox="0 0 111.66834 12.453769"
   version="1.1"
   id="svg5"
   inkscape:version="1.2.2 (b0a8486541, 2022-12-01)"
   sodipodi:docname="sprakbanken_sam_logo.svg"
   xml:space="preserve"
   inkscape:export-filename="sprakbanken_logotyper_2025.png"
   inkscape:export-xdpi="144"
   inkscape:export-ydpi="144"
   xmlns:inkscape="http://www.inkscape.org/namespaces/inkscape"
   xmlns:sodipodi="http://sodipodi.sourceforge.net/DTD/sodipodi-0.dtd"
   xmlns="http://www.w3.org/2000/svg"
   xmlns:svg="http://www.w3.org/2000/svg"><sodipodi:namedview
     id="namedview7"
     pagecolor="#ffffff"
     bordercolor="#000000"
     borderopacity="0.25"
     inkscape:showpageshadow="2"
     inkscape:pageopacity="0.0"
     inkscape:pagecheckerboard="0"
     inkscape:deskcolor="#d1d1d1"
     inkscape:document-units="mm"
     showgrid="false"
     inkscape:zoom="1.0620901"
     inkscape:cx="35.778509"
     inkscape:cy="7.0615478"
     inkscape:window-width="1536"
     inkscape:window-height="909"
     inkscape:window-x="0"
     inkscape:window-y="27"
     inkscape:window-maximized="1"
     inkscape:current-layer="layer1"
     showguides="true"><inkscape:grid
       type="xygrid"
       id="grid13315"
       originx="-0.014000004"
       originy="1.2460626e-05" /><sodipodi:guide
       position="-0.58966672,212.66404"
       orientation="1,0"
       id="guide13317"
       inkscape:locked="false" /><sodipodi:guide
       position="-13.818832,208.69529"
       orientation="0,-1"
       id="guide13319"
       inkscape:locked="false" /><sodipodi:guide
       position="102.59782,114.76821"
       orientation="1,0"
       id="guide4551"
       inkscape:locked="false" /><sodipodi:guide
       position="25.416675,25.194264"
       orientation="0,-1"
       id="guide5892"
       inkscape:locked="false" /><sodipodi:guide
       position="93.951738,0.26423511"
       orientation="0,-1"
       id="guide8737"
       inkscape:locked="false" /><sodipodi:guide
       position="0.0027222659,44.008284"
       orientation="1,0"
       id="guide13127"
       inkscape:locked="false" /></sodipodi:namedview><defs
     id="defs2"><rect
       x="42.637711"
       y="232.56482"
       width="429.04333"
       height="39.494087"
       id="rect4674-97-5" /><rect
       x="34.405685"
       y="187.59879"
       width="498.24536"
       height="62.798195"
       id="rect1143-9-1-9" /></defs><g
     inkscape:label="Layer 1"
     inkscape:groupmode="layer"
     id="layer1"
     transform="translate(-11.173,-206.82486)"><g
       aria-label="SPRÅKBANKENSAM"
       transform="matrix(0.26458333,0,0,0.26458333,1.479835,157.67864)"
       id="text1141-2-5"
       style="font-size:10.6667px;font-family:'Open Sans';-inkscape-font-specification:'Open Sans, Normal';white-space:pre"><path
         d="m 38.915586,221.21617 -2.280001,1.41867 c 1.672001,4.96534 5.624003,9.27201 11.754674,9.27201 5.776003,0 10.28534,-3.90134 10.28534,-9.67734 0,-6.23201 -4.864003,-8.91734 -8.816006,-10.33601 -5.725337,-2.02667 -8.613339,-4.20533 -8.613339,-8.10667 0,-3.192 2.280002,-5.57334 6.434671,-5.57334 4.61067,0 6.890671,3.09067 8.106672,5.77601 l 2.432001,-1.368 c -1.418667,-3.39467 -4.762669,-7.09334 -10.386673,-7.09334 -5.573337,0 -9.525339,3.496 -9.525339,8.61334 0,6.02933 5.320003,8.41067 9.424006,9.93067 4.053336,1.52 8.056005,3.344 8.056005,8.46134 0,3.90133 -2.786669,6.73867 -7.346672,6.73867 -5.117336,0 -7.853338,-3.59734 -9.525339,-8.05601 z"
         style="-inkscape-font-specification:'Jost*, Light'"
         id="path4311" /><path
         d="m 65.211611,195.98416 v 35.46669 h 2.786668 v -14.49068 h 5.522671 c 6.637337,0 11.602674,-3.952 11.602674,-10.488 0,-6.53601 -4.965337,-10.48801 -11.602674,-10.48801 z m 8.309339,2.63467 c 5.168003,0 8.765338,2.736 8.765338,7.85334 0,5.11733 -3.597335,7.85333 -8.765338,7.85333 h -5.522671 v -15.70667 z"
         style="-inkscape-font-specification:'Jost*, Light'"
         id="path4313" /><path
         d="m 91.608954,195.98416 v 35.46669 h 2.786668 v -14.89601 h 4.661336 l 10.336002,14.89601 h 3.44534 l -10.74134,-15.04801 c 5.624,-0.76 9.62667,-4.35734 9.62667,-10.13334 0,-6.53601 -5.168,-10.28534 -12.008005,-10.28534 z m 8.106671,2.48267 c 5.370675,0 9.221335,2.68533 9.221335,7.80267 0,5.11734 -3.8,7.80267 -9.221335,7.80267 h -5.320003 v -15.60534 z"
         style="-inkscape-font-specification:'Jost*, Light'"
         id="path4315" /><path
         d="m 124.79568,190.81616 c 0,2.83733 2.22933,4.81333 4.66133,5.016 l -15.14934,35.61869 h 3.14133 l 4.86401,-11.90668 h 15.30134 l 4.864,11.90668 h 3.14134 l -15.14934,-35.61869 c 2.432,-0.20267 4.66133,-2.17867 4.66133,-5.016 0,-3.04001 -2.53333,-5.06667 -5.168,-5.06667 -2.63467,0 -5.168,2.02666 -5.168,5.06667 z m 1.77333,0 c 0,-2.07734 1.672,-3.44534 3.39467,-3.44534 1.72267,0 3.39467,1.368 3.39467,3.44534 0,2.07733 -1.672,3.44533 -3.39467,3.44533 -1.72267,0 -3.39467,-1.368 -3.39467,-3.44533 z m 3.39467,10.23467 6.58667,15.85868 h -13.12267 z"
         style="-inkscape-font-specification:'Jost*, Light'"
         id="path4317" /><path
         d="m 150.23035,195.98416 v 35.46669 h 2.78666 v -17.83468 l 15.45335,17.83468 h 3.54667 l -16.36535,-18.84801 15.60535,-16.61868 h -3.54667 l -14.69335,15.80801 v -15.80801 z"
         style="-inkscape-font-specification:'Jost*, Light'"
         id="path4319" /><path
         d="m 196.74237,221.16551 c 0,-5.32001 -3.8,-8.25867 -8.36,-9.17067 3.90133,-0.96267 6.384,-3.39467 6.384,-7.44801 0,-5.624 -4.00267,-8.56267 -10.33601,-8.56267 h -7.70133 v 35.46669 h 8.208 c 6.84,0 11.80534,-3.24267 11.80534,-10.28534 z m -12.31201,-22.69868 c 4.56001,0 7.54934,2.33067 7.54934,6.232 0,4.15467 -3.39467,6.08 -7.54934,6.08 h -4.91467 v -12.312 z m -4.91467,30.50135 V 213.2615 h 5.42134 c 4.76267,0 8.96801,2.78667 8.96801,7.75201 0,5.26933 -3.59734,7.95467 -8.96801,7.95467 z"
         style="-inkscape-font-specification:'Jost*, Light'"
         id="path4321" /><path
         d="m 227.34513,231.45085 h 3.14133 l -15.65601,-36.83469 -15.656,36.83469 h 3.14133 l 4.864,-11.90668 h 15.30135 z m -12.51468,-30.40002 6.58668,15.85868 h -13.12268 z"
         style="-inkscape-font-specification:'Jost*, Light'"
         id="path4323" /><path
         d="m 262.15313,195.98416 v 29.69068 l -26.95468,-31.05868 v 36.83469 h 2.78666 V 201.8615 l 26.95469,30.95735 v -36.83469 z"
         style="-inkscape-font-specification:'Jost*, Light'"
         id="path4325" /><path
         d="m 273.35044,195.98416 v 35.46669 h 2.78667 v -17.83468 l 15.45334,17.83468 h 3.54667 l -16.36534,-18.84801 15.60534,-16.61868 h -3.54667 l -14.69334,15.80801 v -15.80801 z"
         style="-inkscape-font-specification:'Jost*, Light'"
         id="path4327" /><path
         d="m 299.84911,195.98416 v 35.46669 h 19.05068 v -2.63467 h -16.26401 v -15.50401 h 15.25068 v -2.63467 h -15.25068 v -12.05867 h 16.26401 v -2.63467 z"
         style="-inkscape-font-specification:'Jost*, Light'"
         id="path4329" /><path
         d="m 353.85983,195.98416 v 29.69068 l -26.95469,-31.05868 v 36.83469 h 2.78667 V 201.8615 l 26.95468,30.95735 v -36.83469 z"
         style="-inkscape-font-specification:'Jost*, Light'"
         id="path4331" /><path
         d="m 365.4118,221.21617 -2.28,1.41867 c 1.672,4.96534 5.624,9.27201 11.75467,9.27201 5.77601,0 10.28534,-3.90134 10.28534,-9.67734 0,-6.23201 -4.864,-8.91734 -8.816,-10.33601 -5.72534,-2.02667 -8.61334,-4.20533 -8.61334,-8.10667 0,-3.192 2.28,-5.57334 6.43467,-5.57334 4.61067,0 6.89067,3.09067 8.10667,5.77601 l 2.432,-1.368 c -1.41866,-3.39467 -4.76267,-7.09334 -10.38667,-7.09334 -5.57334,0 -9.52534,3.496 -9.52534,8.61334 0,6.02933 5.32,8.41067 9.42401,9.93067 4.05333,1.52 8.056,3.344 8.056,8.46134 0,3.90133 -2.78667,6.73867 -7.34667,6.73867 -5.11734,0 -7.85334,-3.59734 -9.52534,-8.05601 z"
         style="-inkscape-font-specification:'Jost*, Light';fill:#f0581a"
         id="path4333" /><path
         d="m 416.0785,231.45085 h 3.14133 l -15.65601,-36.83469 -15.65601,36.83469 h 3.14134 l 4.864,-11.90668 h 15.30134 z m -12.51468,-30.40002 6.58667,15.85868 h -13.12267 z"
         style="-inkscape-font-specification:'Jost*, Light';fill:#f0581a"
         id="path4335" /><path
         d="m 427.93448,203.3815 12.46401,23.96535 12.46401,-23.96535 3.04,28.06935 h 2.78667 l -4.104,-36.83469 -14.18668,27.25868 -14.18667,-27.25868 -4.10401,36.83469 h 2.78667 z"
         style="-inkscape-font-specification:'Jost*, Light';fill:#f0581a"
         id="path4337" /></g></g></svg>
